<?xml version="1.0" encoding="utf-8"?>
<!-- Generator: Adobe Illustrator 25.0.1, SVG Export Plug-In . SVG Version: 6.00 Build 0)  -->
<svg version="1.1" id="Layer_1" xmlns="http://www.w3.org/2000/svg" xmlns:xlink="http://www.w3.org/1999/xlink" x="0px" y="0px"
	 viewBox="0 0 396 288" style="enable-background:new 0 0 396 288;" xml:space="preserve">
<style type="text/css">
	.st0{fill:url(#SVGID_1_);}
	.st1{fill:#595959;}
	.st2{fill:url(#SVGID_2_);}
	.st3{clip-path:url(#SVGID_4_);fill:url(#SVGID_5_);}
	.st4{clip-path:url(#SVGID_7_);fill:url(#SVGID_8_);}
	.st5{clip-path:url(#SVGID_10_);}
	.st6{fill:url(#SVGID_11_);}
	.st7{fill:#006999;}
	.st8{fill:#C09236;}
	.st9{fill:url(#SVGID_12_);}
	.st10{fill:url(#SVGID_13_);}
	.st11{fill:url(#SVGID_14_);}
	.st12{fill:url(#SVGID_15_);}
	.st13{fill:url(#SVGID_16_);}
	.st14{fill:url(#SVGID_17_);}
	.st15{fill:url(#SVGID_18_);}
</style>
<g>
	
		<linearGradient id="SVGID_1_" gradientUnits="userSpaceOnUse" x1="398.7717" y1="-292.1157" x2="-19.7458" y2="-656.0953" gradientTransform="matrix(1 0 0 -1 0 -322.7244)">
		<stop  offset="0" style="stop-color:#D1D1D1"/>
		<stop  offset="0.1422" style="stop-color:#CACACA"/>
		<stop  offset="0.3524" style="stop-color:#B6B6B6"/>
		<stop  offset="0.6049" style="stop-color:#959595"/>
		<stop  offset="0.888" style="stop-color:#686868"/>
		<stop  offset="1" style="stop-color:#545454"/>
	</linearGradient>
	<path class="st0" d="M-35.3-28.4v344.8h466.6V-28.4H-35.3z M323,232.5c-17.3,0-34.6-0.7-51.9-0.5c-16.5,0.2-33,1.9-49.6,1.7
		s-33.1-2.3-49.7-2.4c-14.3,0-28.6,0.5-42.9,1c-1.2,0.9-2.6,1.5-4.1,1.5c-13.4,0.2-26.5-2.5-39.9-2.3c-8.9,0.1-8.9-14,0-14.2
		c11.8-0.2,23.5,1.9,35.2,2.2c1.1-0.8,2.4-1.3,3.8-1.3c16.4-0.6,32.8-1.2,49.2-1.1c16.2,0.1,32.2,2.1,48.4,2.3
		c17,0.2,33.9-1.5,50.9-1.7c16.9-0.1,33.7,0.4,50.5,0.5C331.9,218.3,331.9,232.5,323,232.5z"/>
	<g>
		<path class="st1" d="M-35.5-15.2v329.4h449.1V-15.2H-35.5z M323,232.5c-17.3,0-34.6-0.7-51.9-0.5c-16.5,0.2-33,1.9-49.6,1.7
			s-33.1-2.3-49.7-2.4c-14.3,0-28.6,0.5-42.9,1c-1.2,0.9-2.6,1.5-4.1,1.5c-13.4,0.2-26.5-2.5-39.9-2.3c-8.9,0.1-8.9-14,0-14.2
			c11.8-0.2,23.5,1.9,35.2,2.2c1.1-0.8,2.4-1.3,3.8-1.3c16.4-0.6,32.8-1.2,49.2-1.1c16.2,0.1,32.2,2.1,48.4,2.3
			c17,0.2,33.9-1.5,50.9-1.7c16.9-0.1,33.7,0.4,50.5,0.5C331.9,218.3,331.9,232.5,323,232.5z"/>
	</g>
	<g>
		
			<linearGradient id="SVGID_2_" gradientUnits="userSpaceOnUse" x1="198" y1="-559.7189" x2="198" y2="-362.3548" gradientTransform="matrix(1 0 0 -1 0 -322.7244)">
			<stop  offset="0" style="stop-color:#FFFFFF"/>
			<stop  offset="0.3571" style="stop-color:#F1F1F1"/>
			<stop  offset="1" style="stop-color:#CFCFCF"/>
		</linearGradient>
		<path class="st2" d="M-35.3-28.4v344.8h466.6V-28.4H-35.3z"/>
		<g>
			<g>
				<g>
					<g>
						<g>
							<g>
								<defs>
									<rect id="SVGID_3_" x="-35.3" y="-28.4" width="466.6" height="344.8"/>
								</defs>
								<clipPath id="SVGID_4_">
									<use xlink:href="#SVGID_3_"  style="overflow:visible;"/>
								</clipPath>
								
									<linearGradient id="SVGID_5_" gradientUnits="userSpaceOnUse" x1="362.9023" y1="-399.5234" x2="496.5267" y2="-568.0823" gradientTransform="matrix(1 0 0 -1 0 -322.7244)">
									<stop  offset="0" style="stop-color:#D1D1D1"/>
									<stop  offset="0.1422" style="stop-color:#CACACA"/>
									<stop  offset="0.3524" style="stop-color:#B6B6B6"/>
									<stop  offset="0.6049" style="stop-color:#959595"/>
									<stop  offset="0.888" style="stop-color:#686868"/>
									<stop  offset="1" style="stop-color:#545454"/>
								</linearGradient>
								<polygon class="st3" points="451.2,173.1 175.3,54 457.2,-18.1 								"/>
							</g>
						</g>
					</g>
				</g>
			</g>
			<g>
				<g>
					<g>
						<g>
							<g>
								<defs>
									<rect id="SVGID_6_" x="-35.3" y="-28.4" width="466.6" height="344.8"/>
								</defs>
								<clipPath id="SVGID_7_">
									<use xlink:href="#SVGID_6_"  style="overflow:visible;"/>
								</clipPath>
								
									<linearGradient id="SVGID_8_" gradientUnits="userSpaceOnUse" x1="-3026.4495" y1="-399.5212" x2="-2892.825" y2="-568.0801" gradientTransform="matrix(-1 0 0 -1 -2999.5 -322.7244)">
									<stop  offset="0" style="stop-color:#D1D1D1"/>
									<stop  offset="0.1422" style="stop-color:#CACACA"/>
									<stop  offset="0.3524" style="stop-color:#B6B6B6"/>
									<stop  offset="0.6049" style="stop-color:#959595"/>
									<stop  offset="0.888" style="stop-color:#686868"/>
									<stop  offset="1" style="stop-color:#545454"/>
								</linearGradient>
								<polygon class="st4" points="-61.3,173.1 214.6,54 -67.4,-18.1 								"/>
							</g>
						</g>
					</g>
				</g>
			</g>
			<g>
				<g>
					<g>
						<g>
							<g>
								<defs>
									<rect id="SVGID_9_" x="-35.3" y="-28.4" width="466.6" height="344.8"/>
								</defs>
								<clipPath id="SVGID_10_">
									<use xlink:href="#SVGID_9_"  style="overflow:visible;"/>
								</clipPath>
								<g class="st5">
									<g>
										<polygon class="st1" points="-46.3,-119.2 -46.3,54.4 190.6,122.9 455.5,54.4 455.5,-119.2 										"/>
									</g>
									
										<linearGradient id="SVGID_11_" gradientUnits="userSpaceOnUse" x1="204.6" y1="-525.9799" x2="204.6" y2="-34.5785" gradientTransform="matrix(1 0 0 -1 0 -322.7244)">
										<stop  offset="0" style="stop-color:#B2782A"/>
										<stop  offset="5.760000e-02" style="stop-color:#B77F2E"/>
										<stop  offset="0.1404" style="stop-color:#C49239"/>
										<stop  offset="0.2379" style="stop-color:#DAB14C"/>
										<stop  offset="0.3333" style="stop-color:#F4D662"/>
										<stop  offset="0.5161" style="stop-color:#F4DE8B"/>
										<stop  offset="0.6613" style="stop-color:#F4D662"/>
										<stop  offset="1" style="stop-color:#B2782A"/>
									</linearGradient>
									<polygon class="st6" points="-46.3,-119.2 -46.3,54.4 190.6,122.9 455.5,54.4 455.5,-119.2 									"/>
									<polygon class="st7" points="-46.2,-136.7 -46.2,36.9 190.6,118.5 455.5,36.9 455.5,-136.7 									"/>
								</g>
							</g>
						</g>
					</g>
				</g>
			</g>
		</g>
		<g>
			<path class="st8" d="M209.6,38.5"/>
		</g>
		<g>
			<g>
				<g>
					<g>
						<g>
							<g>
								
									<linearGradient id="SVGID_12_" gradientUnits="userSpaceOnUse" x1="176.6" y1="-433.5244" x2="176.6" y2="-433.5244" gradientTransform="matrix(1 0 0 -1 0 -322.7244)">
									<stop  offset="0" style="stop-color:#B2782A"/>
									<stop  offset="5.760000e-02" style="stop-color:#B77F2E"/>
									<stop  offset="0.1404" style="stop-color:#C49239"/>
									<stop  offset="0.2379" style="stop-color:#DAB14C"/>
									<stop  offset="0.3333" style="stop-color:#F4D662"/>
									<stop  offset="0.5161" style="stop-color:#F4DE8B"/>
									<stop  offset="0.6613" style="stop-color:#F4D662"/>
									<stop  offset="1" style="stop-color:#B2782A"/>
								</linearGradient>
								<path class="st9" d="M176.6,110.8"/>
								
									<linearGradient id="SVGID_13_" gradientUnits="userSpaceOnUse" x1="167.6" y1="-431.5244" x2="167.6" y2="-431.5244" gradientTransform="matrix(1 0 0 -1 0 -322.7244)">
									<stop  offset="0" style="stop-color:#B2782A"/>
									<stop  offset="5.760000e-02" style="stop-color:#B77F2E"/>
									<stop  offset="0.1404" style="stop-color:#C49239"/>
									<stop  offset="0.2379" style="stop-color:#DAB14C"/>
									<stop  offset="0.3333" style="stop-color:#F4D662"/>
									<stop  offset="0.5161" style="stop-color:#F4DE8B"/>
									<stop  offset="0.6613" style="stop-color:#F4D662"/>
									<stop  offset="1" style="stop-color:#B2782A"/>
								</linearGradient>
								<path class="st10" d="M167.6,108.8"/>
							</g>
							<g>
								
									<linearGradient id="SVGID_14_" gradientUnits="userSpaceOnUse" x1="171.1" y1="-403.5244" x2="171.1" y2="-403.5244" gradientTransform="matrix(1 0 0 -1 0 -322.7244)">
									<stop  offset="0" style="stop-color:#B2782A"/>
									<stop  offset="5.760000e-02" style="stop-color:#B77F2E"/>
									<stop  offset="0.1404" style="stop-color:#C49239"/>
									<stop  offset="0.2379" style="stop-color:#DAB14C"/>
									<stop  offset="0.3333" style="stop-color:#F4D662"/>
									<stop  offset="0.5161" style="stop-color:#F4DE8B"/>
									<stop  offset="0.6613" style="stop-color:#F4D662"/>
									<stop  offset="1" style="stop-color:#B2782A"/>
								</linearGradient>
								<path class="st11" d="M171.1,80.8"/>
								
									<linearGradient id="SVGID_15_" gradientUnits="userSpaceOnUse" x1="171.2" y1="-396.7244" x2="171.2" y2="-396.7244" gradientTransform="matrix(1 0 0 -1 0 -322.7244)">
									<stop  offset="0" style="stop-color:#B2782A"/>
									<stop  offset="5.760000e-02" style="stop-color:#B77F2E"/>
									<stop  offset="0.1404" style="stop-color:#C49239"/>
									<stop  offset="0.2379" style="stop-color:#DAB14C"/>
									<stop  offset="0.3333" style="stop-color:#F4D662"/>
									<stop  offset="0.5161" style="stop-color:#F4DE8B"/>
									<stop  offset="0.6613" style="stop-color:#F4D662"/>
									<stop  offset="1" style="stop-color:#B2782A"/>
								</linearGradient>
								<path class="st12" d="M171.2,74"/>
							</g>
						</g>
						<g>
							<g>
								
									<linearGradient id="SVGID_16_" gradientUnits="userSpaceOnUse" x1="217.9" y1="-424.6244" x2="217.9" y2="-424.6244" gradientTransform="matrix(1 0 0 -1 0 -322.7244)">
									<stop  offset="0" style="stop-color:#B2782A"/>
									<stop  offset="5.760000e-02" style="stop-color:#B77F2E"/>
									<stop  offset="0.1404" style="stop-color:#C49239"/>
									<stop  offset="0.2379" style="stop-color:#DAB14C"/>
									<stop  offset="0.3333" style="stop-color:#F4D662"/>
									<stop  offset="0.5161" style="stop-color:#F4DE8B"/>
									<stop  offset="0.6613" style="stop-color:#F4D662"/>
									<stop  offset="1" style="stop-color:#B2782A"/>
								</linearGradient>
								<path class="st13" d="M217.9,101.9"/>
							</g>
							<g>
								
									<linearGradient id="SVGID_17_" gradientUnits="userSpaceOnUse" x1="200.1" y1="-395.7244" x2="200.1" y2="-395.7244" gradientTransform="matrix(1 0 0 -1 0 -322.7244)">
									<stop  offset="0" style="stop-color:#B2782A"/>
									<stop  offset="5.760000e-02" style="stop-color:#B77F2E"/>
									<stop  offset="0.1404" style="stop-color:#C49239"/>
									<stop  offset="0.2379" style="stop-color:#DAB14C"/>
									<stop  offset="0.3333" style="stop-color:#F4D662"/>
									<stop  offset="0.5161" style="stop-color:#F4DE8B"/>
									<stop  offset="0.6613" style="stop-color:#F4D662"/>
									<stop  offset="1" style="stop-color:#B2782A"/>
								</linearGradient>
								<path class="st14" d="M200.1,73"/>
								
									<linearGradient id="SVGID_18_" gradientUnits="userSpaceOnUse" x1="204.7" y1="-395.9244" x2="204.7" y2="-395.9244" gradientTransform="matrix(1 0 0 -1 0 -322.7244)">
									<stop  offset="0" style="stop-color:#B2782A"/>
									<stop  offset="5.760000e-02" style="stop-color:#B77F2E"/>
									<stop  offset="0.1404" style="stop-color:#C49239"/>
									<stop  offset="0.2379" style="stop-color:#DAB14C"/>
									<stop  offset="0.3333" style="stop-color:#F4D662"/>
									<stop  offset="0.5161" style="stop-color:#F4DE8B"/>
									<stop  offset="0.6613" style="stop-color:#F4D662"/>
									<stop  offset="1" style="stop-color:#B2782A"/>
								</linearGradient>
								<path class="st15" d="M204.7,73.2"/>
							</g>
						</g>
					</g>
				</g>
			</g>
		</g>
	</g>
</g>
</svg>
