<svg width="193" height="53" viewBox="0 0 193 53" fill="none" xmlns="http://www.w3.org/2000/svg">
<g clip-path="url(#clip0_17_153)">
<path d="M63.6646 0.33049H72.5653C76.9693 0.33049 79.662 2.66218 79.662 6.45443C79.662 8.97345 78.5606 10.7767 76.4508 11.6783C78.8064 12.455 79.9991 14.2582 79.9991 16.9021C79.9991 20.7888 77.3379 23.058 72.7182 23.058H63.6646V0.33049ZM67.58 3.84402V10.0304H72.3211C74.4624 10.0304 75.6551 8.88055 75.6551 6.85954C75.6551 4.90098 74.4324 3.84402 72.2297 3.84402H67.58ZM67.58 13.3886V19.5445H72.5653C74.768 19.5445 75.9908 18.4571 75.9908 16.4041C75.9908 14.476 74.7366 13.3886 72.5653 13.3886H67.58Z" fill="#752CAF"/>
<path d="M91.8638 11.1498H90.4867C87.7955 11.1498 86.1127 12.6103 86.1127 15.5954V23.0565H82.3816V7.73069H85.8999L86.1142 9.96948C86.7571 8.44649 88.1941 7.42 90.2125 7.42C90.7324 7.42 91.2524 7.48244 91.8638 7.63778V11.1498Z" fill="#752CAF"/>
<path d="M92.7075 18.6734C92.7075 15.8436 94.7259 14.0724 98.3057 13.7922L102.833 13.4495V13.1084C102.833 11.0249 101.608 10.1857 99.7128 10.1857C97.51 10.1857 96.2873 11.1193 96.2873 12.7352H93.1061C93.1061 9.40902 95.7973 7.23267 99.8971 7.23267C103.965 7.23267 106.474 9.47146 106.474 13.7297V23.0565H103.201L102.925 20.7873C102.283 22.3727 100.234 23.4601 97.8787 23.4601C94.666 23.4616 92.7075 21.564 92.7075 18.6734ZM102.864 16.8397V16.031L99.7128 16.2792C97.3887 16.497 96.5016 17.2737 96.5016 18.518C96.5016 19.9161 97.4186 20.6015 99.1014 20.6015C101.396 20.6015 102.864 19.2018 102.864 16.8397Z" fill="#752CAF"/>
<path d="M108.778 2.31951C108.778 1.04477 109.788 0.0502548 111.072 0.0502548C112.297 0.0502548 113.305 1.04477 113.305 2.31951C113.305 3.59425 112.295 4.62074 111.072 4.62074C109.788 4.62074 108.778 3.59425 108.778 2.31951ZM109.207 7.6987H112.938V23.0565H109.207V7.6987Z" fill="#752CAF"/>
<path d="M115.849 23.0565V7.6987H119.306L119.612 9.68772C120.56 8.13275 122.396 7.23115 124.446 7.23115C128.239 7.23115 130.197 9.62528 130.197 13.6049V23.0565H126.464V14.5065C126.464 11.9265 125.21 10.6822 123.283 10.6822C120.989 10.6822 119.582 12.2981 119.582 14.7867V23.0565H115.849Z" fill="#752CAF"/>
<path d="M132.358 11.9265C132.358 5.08678 136.579 0.423386 142.759 0.423386C147.47 0.423386 151.171 3.31554 152.058 7.72916H149.702C148.785 4.52632 146.093 2.56775 142.667 2.56775C137.865 2.56775 134.654 6.29907 134.654 11.925C134.654 17.522 137.865 21.2518 142.667 21.2518C146.124 21.2518 148.877 19.3557 149.825 16.3706H152.181C151.171 20.568 147.348 23.3961 142.637 23.3961C136.519 23.3992 132.358 18.7663 132.358 11.9265Z" fill="#752CAF"/>
<path d="M161.233 7.6058C165.577 7.6058 168.758 10.932 168.758 15.533C168.758 20.1034 165.577 23.4297 161.233 23.4297C156.889 23.4297 153.708 20.1034 153.708 15.533C153.709 10.932 156.889 7.6058 161.233 7.6058ZM161.233 21.5031C164.384 21.5031 166.617 19.0465 166.617 15.5025C166.617 12.0209 164.384 9.53391 161.233 9.53391C158.052 9.53391 155.849 12.0209 155.849 15.5025C155.849 19.0465 158.052 21.5031 161.233 21.5031Z" fill="#752CAF"/>
<path d="M178.874 9.75017H177.711C174.989 9.75017 173.245 11.6158 173.245 14.476V23.0565H171.135V8.00939H173.123L173.276 10.3411C173.857 8.7252 175.417 7.66824 177.497 7.66824C177.956 7.66824 178.354 7.6987 178.874 7.82359V9.75017Z" fill="#752CAF"/>
<path d="M179.125 15.533C179.125 10.8391 182 7.6058 186.221 7.6058C190.228 7.6058 192.951 10.4964 192.951 14.7562V15.8132H181.174C181.327 19.4821 183.224 21.596 186.405 21.596C188.822 21.596 190.382 20.539 190.932 18.5485H192.951C192.155 21.7193 189.861 23.4297 186.374 23.4297C182.03 23.4297 179.125 20.2588 179.125 15.533ZM181.234 14.2582H190.839C190.839 11.3676 189.004 9.43948 186.221 9.43948C183.437 9.43948 181.601 11.3051 181.234 14.2582Z" fill="#752CAF"/>
<path d="M62.304 48.2087L67.6205 33.4098H69.8157L75.1516 48.2087H73.0778L71.7697 44.5246H65.647L64.3583 48.2087H62.304ZM66.2509 42.7853H71.1853L68.9496 36.605C68.8492 36.3187 68.7488 35.9699 68.7083 35.7461C68.6679 35.9501 68.5675 36.2989 68.4671 36.605L66.2509 42.7853Z" fill="#752CAF"/>
<path d="M80.2149 37.9133C82.6918 37.9133 84.424 39.3464 84.7656 41.5761H82.8731C82.5509 40.3074 81.544 39.6327 80.2748 39.6327C78.4826 39.6327 77.2539 41.0247 77.2539 43.1935C77.2539 45.3424 78.4017 46.7344 80.1939 46.7344C81.5425 46.7344 82.5494 46.0171 82.8926 44.8307H84.7851C84.403 47.0009 82.5704 48.4539 80.1939 48.4539C77.2944 48.4539 75.3809 46.3659 75.3809 43.2148C75.3809 40.0835 77.3348 37.9133 80.2149 37.9133Z" fill="#752CAF"/>
<path d="M85.7742 45.4262C85.7742 43.5834 87.1228 42.4381 89.4394 42.2538L92.5412 42.0086V41.7223C92.5412 40.0439 91.5537 39.45 90.2261 39.45C88.6347 39.45 87.7282 40.1658 87.7282 41.3735H86.0769C86.0769 39.2855 87.7686 37.9148 90.3055 37.9148C92.7419 37.9148 94.3932 39.2246 94.3932 41.9263V48.2102H92.7824L92.5816 46.5928C92.0781 47.7396 90.7295 48.4554 89.1382 48.4554C87.0239 48.4554 85.7742 47.2477 85.7742 45.4262ZM92.5606 43.891V43.358L90.0432 43.5636C88.3725 43.7265 87.6877 44.3814 87.6877 45.3637C87.6877 46.4283 88.4534 46.9598 89.6821 46.9598C91.4743 46.9614 92.5606 45.7734 92.5606 43.891Z" fill="#752CAF"/>
<path d="M95.8901 43.2346C95.8901 40.1643 97.6418 37.9133 100.562 37.9133C102.073 37.9133 103.34 38.588 104.006 39.817V33.1448H105.879V48.2102H104.187L104.027 46.3887C103.382 47.7594 102.053 48.4569 100.483 48.4569C97.6223 48.4554 95.8901 46.2851 95.8901 43.2346ZM103.986 43.1737C103.986 41.1268 102.798 39.6541 100.865 39.6541C98.932 39.6541 97.8037 41.1283 97.8037 43.1737C97.8037 45.2419 98.932 46.7146 100.865 46.7146C102.798 46.7146 103.986 45.2617 103.986 43.1737Z" fill="#752CAF"/>
<path d="M107.467 43.2148C107.467 40.0835 109.421 37.9133 112.28 37.9133C115.079 37.9133 116.912 39.8779 116.912 42.8462V43.5636L109.3 43.5834C109.441 45.6912 110.528 46.8593 112.401 46.8593C113.871 46.8593 114.838 46.244 115.16 45.0987H116.931C116.449 47.2477 114.797 48.4554 112.359 48.4554C109.46 48.4554 107.467 46.3263 107.467 43.2148ZM109.34 42.2934H115.019C115.019 40.6349 113.952 39.5292 112.28 39.5292C110.629 39.5307 109.581 40.5343 109.34 42.2934Z" fill="#752CAF"/>
<path d="M118.55 48.2087V38.1996H120.241L120.423 39.5094C120.926 38.5682 121.974 37.9133 123.363 37.9133C124.892 37.9133 125.98 38.6915 126.484 39.9388C126.947 38.69 128.135 37.9133 129.665 37.9133C131.92 37.9133 133.29 39.3464 133.29 41.6583V48.2087H131.438V42.1304C131.438 40.5541 130.572 39.6541 129.242 39.6541C127.813 39.6541 126.866 40.6775 126.866 42.2736V48.2102H124.993V42.1106C124.993 40.5343 124.146 39.6754 122.817 39.6754C121.388 39.6754 120.441 40.6775 120.441 42.2751V48.2117H118.55V48.2087Z" fill="#752CAF"/>
<path d="M134.104 51.1161H135.373C136.279 51.1161 137.005 50.9729 137.468 49.7042L137.811 48.7417L133.843 38.2011H135.837L138.696 46.2653L141.617 38.2011H143.571L138.92 50.4612C138.256 52.1806 137.268 52.898 135.758 52.898C135.133 52.898 134.61 52.8157 134.107 52.6923V51.1161H134.104Z" fill="#752CAF"/>
<path d="M37.1796 4.20802C34.1692 2.23422 30.7812 0.845254 27.071 0.459938C35.2466 3.65974 42.108 9.56589 46.5793 17.1001C46.1568 14.6664 45.3086 12.6652 44.468 11.2046C42.3327 8.58052 39.8813 6.23207 37.1796 4.20802Z" fill="#752CAF"/>
<path d="M45.451 24.2658C45.9455 23.8926 46.3216 23.3855 46.5569 22.6499C41.7109 11.4574 31.5949 3.14192 19.417 0.962524C18.0968 1.25798 16.8187 1.66158 15.5854 2.15655C29.1314 3.14497 40.5601 12.0118 45.451 24.2658Z" fill="#752CAF"/>
<path d="M13.0575 6.29299C25.7824 6.29299 36.7285 14.1836 41.4082 25.4034C42.009 25.3242 42.5635 25.2481 43.0729 25.1552C38.2374 13.1282 26.6095 4.62988 13.0575 4.62988C12.2918 4.62988 11.5351 4.66643 10.7814 4.71974C9.9063 5.31827 9.07166 5.97011 8.28198 6.67221C9.83887 6.42396 11.4332 6.29299 13.0575 6.29299Z" fill="#752CAF"/>
<path d="M13.0576 8.86836C10.3094 8.86836 7.65567 9.27652 5.14278 10.0228C4.57486 10.7553 4.0519 11.5214 3.56641 12.3179C6.51685 11.1696 9.71454 10.533 13.0561 10.533C24.4038 10.533 34.1093 17.7946 37.9258 27.9819C38.3529 27.3026 38.672 26.6081 38.8563 25.9182C34.4509 15.8848 24.5477 8.86836 13.0576 8.86836Z" fill="#752CAF"/>
<path d="M13.0576 13.1099C8.96238 13.1099 5.10388 14.1577 1.72488 15.999C1.40871 16.7894 1.13299 17.6012 0.89624 18.4312C4.40261 16.1223 8.57728 14.7745 13.0576 14.7745C23.3475 14.7745 32.034 21.8549 34.6667 31.471C35.1432 31.1025 35.6018 30.7034 36.0348 30.2801C32.975 20.3426 23.8315 13.1099 13.0576 13.1099Z" fill="#752CAF"/>
<path d="M13.0576 17.3499C8.12616 17.3499 3.61284 19.1866 0.133443 22.2158C0.11696 22.3468 0.0944822 22.4747 0.0809962 22.6057C0.0735039 22.6742 0.0660108 22.7352 0.0660108 22.8037C0.0585185 22.9849 0.0510254 23.1753 0.0510254 23.3565C0.0510254 23.7556 0.086989 24.1211 0.140933 24.4699C3.44801 21.1025 8.01827 19.016 13.0576 19.016C21.774 19.016 29.0804 25.2588 30.8846 33.5743C31.3806 33.4113 31.896 33.189 32.416 32.9209C30.3421 24.0053 22.4528 17.3499 13.0576 17.3499Z" fill="#752CAF"/>
<path d="M13.0576 21.5899C8.35093 21.5899 4.1328 23.7129 1.24829 27.0528C1.58394 27.4793 1.97654 27.8631 2.41558 28.2194C5.0004 25.1857 8.80796 23.2545 13.0576 23.2545C19.3346 23.2545 24.663 27.4519 26.4776 33.2286C27.0216 33.5255 27.6419 33.7479 28.3327 33.8438C26.6739 26.8274 20.4629 21.5899 13.0576 21.5899Z" fill="#752CAF"/>
<path d="M13.0576 25.8314C9.6921 25.8314 6.66823 27.3102 4.55542 29.6511C5.02593 29.9282 5.51293 30.2054 6.01041 30.4948C7.80855 28.6444 10.3035 27.496 13.0576 27.496C18.5254 27.496 22.9728 32.0163 22.9728 37.5737C22.9728 38.7875 22.7496 39.9449 22.3615 41.0232L24.1042 41.0095C24.4323 39.9221 24.6106 38.7692 24.6106 37.5737C24.6106 31.0979 19.4275 25.8314 13.0576 25.8314Z" fill="#752CAF"/>
<path d="M13.0575 30.0714C10.5371 30.0714 8.30893 31.3644 6.97681 33.3306C7.28699 33.8286 7.6571 34.2886 8.06768 34.6937C9.05665 32.9301 10.9207 31.736 13.0575 31.736C16.2252 31.736 18.8011 34.3541 18.8011 37.5737C18.8011 38.8819 18.371 40.0866 17.6517 41.0613L19.5937 41.0461C20.1302 40.0074 20.4374 38.8271 20.4374 37.5737C20.4389 33.4372 17.1273 30.0714 13.0575 30.0714Z" fill="#752CAF"/>
<path d="M13.0575 34.3114C11.8048 34.3114 10.7289 35.0516 10.2014 36.1192C10.6614 36.2959 11.1245 36.3948 11.571 36.3948C11.7029 36.3948 11.8497 36.3964 12.004 36.3979C12.2828 36.139 12.6514 35.976 13.0575 35.976C13.4441 35.976 13.7932 36.1238 14.0674 36.3598C14.6878 36.3172 15.3171 36.2304 15.8865 36.0674C15.3486 35.0287 14.2892 34.3114 13.0575 34.3114Z" fill="#752CAF"/>
</g>
<defs>
<clipPath id="clip0_17_153">
<rect width="193" height="53" fill="white"/>
</clipPath>
</defs>
</svg>
