<svg xmlns="http://www.w3.org/2000/svg" viewBox="0 0 48 48"><defs><style>.cls-1,.cls-2{fill:none;stroke-linecap:round;stroke-linejoin:round;}.cls-1{stroke:#1d1d1b;}.cls-2{stroke:#1F252D;}</style></defs><g id="bookmark"><path class="cls-1" d="M16.75,23.11,19,28.7a1,1,0,0,0,.24.36l13,12.13a1,1,0,0,0,1.43-.06L43,30.77A1,1,0,0,0,43,29.35L30.33,18a.83.83,0,0,0-.34-.2l-5.9-2a1,1,0,0,0-1,.23L17,22A1,1,0,0,0,16.75,23.11Z"/><circle class="cls-2" cx="23.5" cy="21.5" r="2"/><path class="cls-2" d="M23.5,21.5a28.62,28.62,0,0,1-6-6c-3.21-4.2-7.11-8.95-10-9-1.06,0-1.08.94-1,2,.22,2.84,4.45,4.34,9,7A46.23,46.23,0,0,1,23.5,21.5Z"/></g></svg>