<svg xmlns="http://www.w3.org/2000/svg" viewBox="0 0 48 48"><defs><style>.cls-1,.cls-2{fill:none;stroke:#1F252D;stroke-linecap:round;}.cls-1{stroke-miterlimit:10;}.cls-2{stroke-linejoin:round;}</style></defs><g id="Layer_52" data-name="Layer 52"><path class="cls-1" d="M11.08,8.68H36.92a4,4,0,0,1,4,4v4.7a0,0,0,0,1,0,0H7.08a0,0,0,0,1,0,0v-4.7A4,4,0,0,1,11.08,8.68Z"/><path class="cls-1" d="M7.08,17.38v23A2.11,2.11,0,0,0,9.2,42.51H38.8a2.11,2.11,0,0,0,2.12-2.11v-23"/><path class="cls-1" d="M15.11,8.68a3.2,3.2,0,1,1,3.2,3.2"/><path class="cls-1" d="M26.53,8.68a3.2,3.2,0,1,1,3.19,3.2"/><rect class="cls-2" x="11.69" y="21.11" width="5.29" height="5.29"/><rect class="cls-2" x="21.36" y="21.11" width="5.29" height="5.29"/><rect class="cls-2" x="31.03" y="21.11" width="5.29" height="5.29"/><rect class="cls-2" x="11.69" y="29.95" width="5.29" height="5.29"/><rect class="cls-2" x="21.36" y="29.95" width="5.29" height="5.29"/><rect class="cls-2" x="31.03" y="29.95" width="5.29" height="5.29"/></g></svg>