<svg xmlns="http://www.w3.org/2000/svg" viewBox="0 0 48 48"><defs><style>.cls-1{fill:none;stroke:#1F252D;stroke-miterlimit:10;}</style></defs><g id="chat"><path class="cls-1" d="M21.94,39.37c.36-.28,5.67,2.13,8.56,2.13,7.73,0,13.25-6,13.25-13.75a14,14,0,1,0-26.82,5.63c.39,1.21-.36,3.8-4.43,5.12C10.22,39.24,17.63,42.72,21.94,39.37Z"/><path class="cls-1" d="M21.73,28.27c-.29-.23-4.6,1.73-7,1.73C8.49,30,4,25.11,4,18.82a11.39,11.39,0,0,1,22.77,0,11.23,11.23,0,0,1-1,4.57c-.32,1,.29,3.1,3.6,4.17C31.26,28.16,25.24,31,21.73,28.27Z"/></g></svg>