<svg xmlns="http://www.w3.org/2000/svg" viewBox="0 0 48 48"><defs><style>.cls-1,.cls-2{fill:none;stroke:#1F252D;stroke-linecap:round;stroke-linejoin:round;}.cls-2{stroke-width:1.16px;}</style></defs><g id="Layer_2" data-name="Layer 2"><path class="cls-1" d="M34,36.75c6.08,0,11.5-2.42,11.5-8.5a11,11,0,0,0-11-11,10.73,10.73,0,0,0-3,.43,11,11,0,0,0-21,4.57c0,.37,0,.73.05,1.09a7.19,7.19,0,0,0-1.05-.09,7,7,0,0,0-7,7A6.17,6.17,0,0,0,9,36.75Z"/><path class="cls-2" d="M22.29,29v-.78a2.25,2.25,0,0,1,1.33-2.1,3.48,3.48,0,1,0-4.78-3.71"/><path class="cls-2" d="M22.29,31.92v0Z"/></g></svg>