<svg xmlns="http://www.w3.org/2000/svg" viewBox="0 0 48 48"><defs><style>.cls-1{fill:none;stroke:#1F252D;stroke-linecap:round;stroke-linejoin:round;}</style></defs><g id="Layer_2" data-name="Layer 2"><path class="cls-1" d="M34,36.75c6.08,0,11.5-2.42,11.5-8.5a11,11,0,0,0-11-11,10.73,10.73,0,0,0-3,.43,11,11,0,0,0-21,4.57c0,.37,0,.73.05,1.09a7.19,7.19,0,0,0-1.05-.09,7,7,0,0,0-7,7A6.17,6.17,0,0,0,9,36.75Z"/><polygon class="cls-1" points="19.57 20.47 28.33 20.47 23.95 25.95 19.7 20.61 19.57 20.47"/><polygon class="cls-1" points="19.57 31.43 28.33 31.43 23.95 25.95 19.7 31.29 19.57 31.43"/></g></svg>