<svg xmlns="http://www.w3.org/2000/svg" viewBox="0 0 48 48"><defs><style>.cls-1{fill:none;}.cls-1,.cls-2{stroke:#1F252D;stroke-linecap:round;stroke-linejoin:round;}.cls-2{fill:#fff;}</style></defs><g id="Layer_52" data-name="Layer 52"><path class="cls-1" d="M15.92,18.2H32.08a0,0,0,0,1,0,0V33.51a2,2,0,0,1-2,2H17.92a2,2,0,0,1-2-2V18.2A0,0,0,0,1,15.92,18.2Z"/><path class="cls-2" d="M15.6,14.5H32.4a1,1,0,0,1,1,1v3.13a0,0,0,0,1,0,0H14.6a0,0,0,0,1,0,0V15.5A1,1,0,0,1,15.6,14.5Z"/><line class="cls-1" x1="20.5" y1="22.06" x2="20.5" y2="32.89"/><line class="cls-1" x1="24" y1="22.06" x2="24" y2="32.89"/><line class="cls-1" x1="27.6" y1="22.06" x2="27.6" y2="32.89"/><path class="cls-1" d="M22,14.5a2,2,0,0,1,4,0"/></g></svg>