<svg xmlns="http://www.w3.org/2000/svg" viewBox="0 0 48 48"><defs><style>.cls-1{fill:#fff;stroke:#1F252D;stroke-linecap:round;stroke-linejoin:round;}</style></defs><g id="Layer_52" data-name="Layer 52"><path class="cls-1" d="M44.49,12.57H20.9l-2-3.36H14l-2,3.36H9.16a.94.94,0,0,0-.94.94V37.85a.94.94,0,0,0,.94.94H44.49a.94.94,0,0,0,.94-.94V13.51A.94.94,0,0,0,44.49,12.57Z"/><path class="cls-1" d="M44.18,38.79H8.93A.94.94,0,0,1,8,38.11L2.61,19.56a.94.94,0,0,1,.9-1.21H38.76a.94.94,0,0,1,.9.68l5.42,18.56A.94.94,0,0,1,44.18,38.79Z"/></g></svg>