<svg xmlns="http://www.w3.org/2000/svg" viewBox="0 0 48 48"><defs><style>.cls-1{fill:none;stroke:#1F252D;stroke-linejoin:round;}</style></defs><g id="school_year" data-name="school year"><path d="M32.91,6a9,9,0,0,0,8.42,5H42c-.16,9.73-3.23,17.89-9.16,24.25A30.69,30.69,0,0,1,24,41.9a30.38,30.38,0,0,1-8.77-6.6C11.11,30.9,6.21,23.13,6,11h.66a9,9,0,0,0,8.42-5H32.91m.59-1h-19c-2.37,4.61-5.81,5-7.83,5l-1,0c-.41,0-.65,0-.65.21C5,35.23,24,43,24,43s19-7.77,19-32.82c0-.17-.24-.21-.65-.21l-1,0c-2,0-5.45-.38-7.83-5Z"/><line class="cls-1" x1="24" y1="6" x2="24" y2="42"/><line class="cls-1" x1="15" y1="6" x2="24" y2="15"/><line class="cls-1" x1="10" y1="10" x2="24" y2="25"/><line class="cls-1" x1="24" y1="36" x2="6" y2="16"/></g></svg>