<svg xmlns="http://www.w3.org/2000/svg" viewBox="0 0 48 48"><defs><style>.cls-1,.cls-2,.cls-3{fill:none;stroke:#1F252D;stroke-linejoin:round;}.cls-2,.cls-3{stroke-linecap:round;}</style></defs><g id="Explore"><path d="M24,3A21,21,0,1,1,3,24,21,21,0,0,1,24,3m0-1A22,22,0,1,0,46,24,22,22,0,0,0,24,2Z"/><polygon class="cls-1" points="18.34 29.66 12.69 12.69 29.66 18.34 35.31 35.31 18.34 29.66"/><path d="M24,21.5a2.49,2.49,0,1,1-1.77.73A2.49,2.49,0,0,1,24,21.5m0-1a3.44,3.44,0,0,0-2.47,1,3.48,3.48,0,0,0,0,4.94,3.48,3.48,0,0,0,4.94,0,3.48,3.48,0,0,0,0-4.94,3.44,3.44,0,0,0-2.47-1Z"/><line class="cls-2" x1="24.05" y1="12" x2="24.05" y2="8"/><line class="cls-3" x1="36" y1="24" x2="40" y2="24"/><line class="cls-3" x1="24" y1="36" x2="24" y2="40"/><line class="cls-3" x1="12" y1="24" x2="8" y2="24"/></g></svg>