<svg xmlns="http://www.w3.org/2000/svg" viewBox="0 0 48 48"><defs><style>.cls-1,.cls-2{fill:none;stroke:#1F252D;stroke-linecap:round;stroke-linejoin:round;}.cls-2{stroke-width:0.94px;}</style></defs><g id="Storage"><path class="cls-1" d="M38.7,32.94c3.92-1,6.8-3.51,6.8-7.94a11,11,0,0,0-11-11,10.73,10.73,0,0,0-3,.43A11,11,0,0,0,10.5,19c0,.37,0,.73.05,1.09A7.19,7.19,0,0,0,9.5,20a7,7,0,0,0-7,7A6.17,6.17,0,0,0,9,33.5H25.5"/><ellipse class="cls-2" cx="32" cy="25" rx="6.5" ry="2"/><path class="cls-2" d="M38.5,35.5c0,1.1-2.91,2-6.5,2s-6.5-.9-6.5-2"/><path class="cls-2" d="M38.5,40.5c0,1.1-2.91,2-6.5,2s-6.5-.9-6.5-2"/><path class="cls-2" d="M38.5,29.5c0,1.1-2.91,2-6.5,2s-6.5-.9-6.5-2"/><path class="cls-2" d="M25.5,25V40.5"/><path class="cls-2" d="M38.5,25V40.5"/></g></svg>