<svg xmlns="http://www.w3.org/2000/svg" viewBox="0 0 48 48"><defs><style>.cls-1,.cls-2,.cls-3,.cls-4{fill:none;stroke:#1F252D;stroke-miterlimit:10;}.cls-2,.cls-4{stroke-linecap:round;}.cls-3{stroke-width:1.14px;}.cls-4{stroke-width:1.07px;}</style></defs><g id="subject"><path d="M31,8a1,1,0,0,1,1,1V39a1,1,0,0,1-1,1H9a1,1,0,0,1-1-1V9A1,1,0,0,1,9,8H31m0-1H9A2,2,0,0,0,7,9V39a2,2,0,0,0,2,2H31a2,2,0,0,0,2-2V9a2,2,0,0,0-2-2Z"/><line class="cls-1" x1="11.5" y1="8" x2="11.5" y2="41"/><line class="cls-2" x1="7.5" y1="36.5" x2="11.5" y2="36.5"/><line class="cls-2" x1="7.5" y1="32.5" x2="11.5" y2="32.5"/><line class="cls-2" x1="7.5" y1="28.5" x2="11.5" y2="28.5"/><line class="cls-2" x1="7.5" y1="24.5" x2="11.5" y2="24.5"/><line class="cls-2" x1="7.5" y1="20.5" x2="11.5" y2="20.5"/><line class="cls-2" x1="7.5" y1="16.5" x2="11.5" y2="16.5"/><line class="cls-2" x1="7.5" y1="12.5" x2="11.5" y2="12.5"/><rect class="cls-3" x="14.31" y="13" width="13.71" height="8" rx="2"/><line class="cls-4" x1="17.17" y1="18.5" x2="25.17" y2="18.5"/><line class="cls-4" x1="17.5" y1="15.5" x2="25.5" y2="15.5"/><path class="cls-4" d="M32.5,9.5l9,1.86a2,2,0,0,1,1.55,2.39L36.92,41.58a2,2,0,0,1-2.34,1.54L21.5,40.5"/><path class="cls-4" d="M32.53,14.66l4.37,1a2,2,0,0,1,1.46,2.48l-1.09,4a2,2,0,0,1-2.38,1.42L32.53,23"/><line class="cls-4" x1="32.53" y1="17" x2="36.5" y2="18.5"/><line class="cls-4" x1="32.53" y1="20.05" x2="35.48" y2="21"/></g></svg>