<svg xmlns="http://www.w3.org/2000/svg" viewBox="0 0 48 48"><defs><style>.cls-1,.cls-2,.cls-3{fill:none;stroke:#1F252D;stroke-linecap:round;}.cls-1,.cls-3{stroke-linejoin:round;}.cls-1{stroke-width:0.94px;}.cls-2{stroke-miterlimit:10;}.cls-3{stroke-width:0.93px;}</style></defs><g id="statistics"><path d="M39.15,8.93a.92.92,0,0,1,.92.92v19.3a.92.92,0,0,1-.92.92H8.85a.92.92,0,0,1-.92-.92V9.85a.92.92,0,0,1,.92-.92h30.3m0-.93H8.85A1.85,1.85,0,0,0,7,9.85v19.3A1.85,1.85,0,0,0,8.85,31h30.3A1.85,1.85,0,0,0,41,29.15V9.85A1.85,1.85,0,0,0,39.15,8Z"/><line class="cls-1" x1="5" y1="30.5" x2="43" y2="30.5"/><line class="cls-2" x1="24" y1="5" x2="24" y2="8"/><polyline class="cls-2" points="16 43 20 31 28 31 32 43"/><polyline class="cls-3" points="11.99 24.84 16.99 18.84 21.5 22.5 27.5 16.5 29.5 18.5 34.5 13.5 32.5 13.5"/><line class="cls-3" x1="34.5" y1="15.5" x2="34.5" y2="13.5"/></g></svg>