<svg xmlns="http://www.w3.org/2000/svg" viewBox="0 0 48 48"><defs><style>.cls-1,.cls-2{fill:none;stroke:#1F252D;stroke-miterlimit:10;}.cls-2{stroke-linecap:round;}</style></defs><g id="user_forms" data-name="user forms"><rect class="cls-1" x="25" y="15" width="18" height="28" rx="1"/><rect class="cls-1" x="27.5" y="19.5" width="4" height="4" rx="1"/><line class="cls-2" x1="33.5" y1="20.5" x2="38.5" y2="20.5"/><line class="cls-2" x1="33.5" y1="22.5" x2="38.5" y2="22.5"/><rect class="cls-1" x="27.5" y="26.5" width="4" height="4" rx="1"/><line class="cls-2" x1="33.5" y1="27.5" x2="38.5" y2="27.5"/><line class="cls-2" x1="33.5" y1="29.5" x2="38.5" y2="29.5"/><rect class="cls-1" x="27.5" y="33.5" width="4" height="4" rx="1"/><line class="cls-2" x1="33.5" y1="34.5" x2="38.5" y2="34.5"/><line class="cls-2" x1="33.5" y1="36.5" x2="38.5" y2="36.5"/><path class="cls-2" d="M24.5,39.5H6.5a1,1,0,0,1-1-1V6.5a1,1,0,0,1,1-1h24a1,1,0,0,1,1,1v8.24"/><polyline class="cls-2" points="5.5 5.86 8.5 10.5 28.34 10.5 31.11 5.86"/><rect class="cls-1" x="8" y="32" width="7.5" height="5" rx="1"/><path class="cls-1" d="M24.5,37H19a1,1,0,0,1-1-1V33a1,1,0,0,1,1-1h5.5"/></g></svg>