<svg xmlns="http://www.w3.org/2000/svg" viewBox="0 0 48 48"><defs><style>.cls-1,.cls-2{fill:none;stroke:#1F252D;}.cls-1{stroke-linejoin:bevel;}.cls-2{stroke-miterlimit:10;}</style></defs><g id="my_library" data-name="my library"><path class="cls-1" d="M20.53,16,17.1,11.27a1,1,0,0,1,.26-1.39l5.78-4a1,1,0,0,1,1.39.26L38.09,26a1,1,0,0,1-.26,1.39l-5.77,4a1,1,0,0,1-1.39-.26L23.5,20.5"/><line class="cls-2" x1="27.97" y1="26.25" x2="34.57" y2="21.73"/><line class="cls-2" x1="28.69" y1="28.18" x2="36.53" y2="22.81"/><circle class="cls-2" cx="24.7" cy="13.94" r="2"/><path class="cls-2" d="M23.5,32l18.12.2a1,1,0,0,1,1,1l-.06,7a1,1,0,0,1-1,1L23,41"/><line class="cls-2" x1="36.05" y1="40.65" x2="36.12" y2="32.65"/><line class="cls-2" x1="38.05" y1="41.17" x2="38.12" y2="31.67"/><rect class="cls-2" x="5.38" y="16" width="9" height="26" rx="1"/><line class="cls-2" x1="5.88" y1="35.5" x2="13.88" y2="35.5"/><line class="cls-2" x1="5.38" y1="37.5" x2="14.88" y2="37.5"/><circle class="cls-2" cx="10.13" cy="23.5" r="2"/><path class="cls-2" d="M14.38,41a1,1,0,0,0,1,1h7a1,1,0,0,0,1-1V17a1,1,0,0,0-1-1h-7a1.44,1.44,0,0,0-1,1.44"/><line class="cls-2" x1="14.88" y1="35.5" x2="22.88" y2="35.5"/><line class="cls-2" x1="14.38" y1="37.5" x2="23.88" y2="37.5"/><circle class="cls-2" cx="19.13" cy="23.5" r="2"/></g></svg>