<svg xmlns="http://www.w3.org/2000/svg" viewBox="0 0 48 48"><defs><style>.cls-1,.cls-2{fill:none;stroke:#1F252D;stroke-linecap:round;stroke-linejoin:round;}.cls-1{stroke-width:1.01px;}.cls-2{stroke-width:0.85px;}</style></defs><g id="raports"><path d="M39,3V44.49H9V3H39m0-1H9A1,1,0,0,0,8,3V44.5a1,1,0,0,0,1,1H39a1,1,0,0,0,1-1V3a1,1,0,0,0-1-1Z"/><polyline class="cls-1" points="12 27.53 14.6 30.93 19.69 25.84"/><line class="cls-1" x1="22.74" y1="26.89" x2="36.25" y2="26.89"/><line class="cls-1" x1="22.74" y1="29.89" x2="36.25" y2="29.89"/><polyline class="cls-1" points="12 35.53 14.6 38.93 19.69 33.84"/><line class="cls-1" x1="22.74" y1="34.89" x2="36.25" y2="34.89"/><line class="cls-1" x1="22.74" y1="37.89" x2="36.25" y2="37.89"/><path class="cls-1" d="M23,15l7.49.29A7.5,7.5,0,1,1,23,7.5Z"/><path class="cls-2" d="M25.54,13V6.64A6.38,6.38,0,0,1,31.89,13c0,.13,0,.25,0,.37Z"/></g></svg>