<svg xmlns="http://www.w3.org/2000/svg" viewBox="0 0 48 48"><defs><style>.cls-1{fill:none;stroke:#1F252D;stroke-linecap:round;stroke-linejoin:round;}</style></defs><g id="grades"><path d="M24,3A21,21,0,1,1,3,24,21,21,0,0,1,24,3m0-1A22,22,0,1,0,46,24,22,22,0,0,0,24,2Z"/><path d="M24,7A17,17,0,1,1,7,24,17,17,0,0,1,24,7m0-1A18,18,0,1,0,42,24,18,18,0,0,0,24,6Z"/><path class="cls-1" d="M19.71,19.5l3.79-6,4.55,6h6.36a.27.27,0,0,1,.2.44L30.5,24.5l3,7-9-4-9,4.51,3-7.51-5.09-4.24a.46.46,0,0,1,.29-.82c2.05,0,6,.06,6,.06"/></g></svg>