<svg xmlns="http://www.w3.org/2000/svg" viewBox="0 0 48 48"><defs><style>.cls-1{fill:none;stroke:#1F252D;stroke-linecap:round;stroke-miterlimit:10;}</style></defs><g id="schedule"><path d="M24,3A21,21,0,1,1,3,24,21,21,0,0,1,24,3m0-1A22,22,0,1,0,46,24,22,22,0,0,0,24,2Z"/><line class="cls-1" x1="24" y1="5.5" x2="24" y2="7.5"/><line class="cls-1" x1="24" y1="40.5" x2="24" y2="42.5"/><line class="cls-1" x1="42.5" y1="24" x2="40.5" y2="24"/><line class="cls-1" x1="7.5" y1="24" x2="5.5" y2="24"/><line class="cls-1" x1="33.25" y1="40.02" x2="32.25" y2="38.29"/><line class="cls-1" x1="15.75" y1="9.71" x2="14.75" y2="7.98"/><line class="cls-1" x1="40.02" y1="14.75" x2="38.29" y2="15.75"/><line class="cls-1" x1="9.71" y1="32.25" x2="7.98" y2="33.25"/><line class="cls-1" x1="34.26" y1="8.6" x2="33.15" y2="10.27"/><line class="cls-1" x1="14.85" y1="37.73" x2="13.74" y2="39.4"/><line class="cls-1" x1="14.75" y1="7.98" x2="15.75" y2="9.71"/><line class="cls-1" x1="32.25" y1="38.29" x2="33.25" y2="40.02"/><line class="cls-1" x1="8.02" y1="14.68" x2="9.75" y2="15.69"/><line class="cls-1" x1="38.25" y1="32.31" x2="39.98" y2="33.32"/><circle cx="24" cy="24" r="1"/><polyline class="cls-1" points="24 12 24 24 32.02 24"/></g></svg>