<svg xmlns="http://www.w3.org/2000/svg" viewBox="0 0 48 48"><defs><style>.cls-1{fill:none;stroke:#1F252D;stroke-miterlimit:10;stroke-width:1.09px;}</style></defs><g id="my_classes" data-name="my classes"><rect class="cls-1" x="9.5" y="10.05" width="29.49" height="34.95" rx="2.15"/><path class="cls-1" d="M32.43,41.72H15a2.17,2.17,0,0,1-2.18-2.18V31.89A2.18,2.18,0,0,1,15,29.71H32.43a2.19,2.19,0,0,1,2.19,2.18v7.65A2.18,2.18,0,0,1,32.43,41.72Z"/><line class="cls-1" x1="12.78" y1="32.99" x2="34.62" y2="32.99"/><rect class="cls-1" x="12.78" y="18.79" width="4.37" height="6.55" rx="2.18"/><rect class="cls-1" x="30.25" y="18.79" width="4.37" height="6.55" rx="2.18"/><line class="cls-1" x1="14.96" y1="10.05" x2="14.96" y2="18.79"/><line class="cls-1" x1="32.43" y1="10.6" x2="32.43" y2="19.34"/><path class="cls-1" d="M18.24,9.51a6,6,0,1,1,12,0"/><circle class="cls-1" cx="23.7" cy="16.61" r="3.28"/></g></svg>