<svg xmlns="http://www.w3.org/2000/svg" viewBox="0 0 48 48"><defs><style>.cls-1,.cls-2{fill:none;stroke:#1F252D;stroke-linecap:round;stroke-miterlimit:10;}.cls-2{stroke-width:0.55px;}</style></defs><g id="program"><path class="cls-1" d="M40.74,18.82,22.56,30.64a1,1,0,0,1-1.11,0L8,21.42,4.24,18.85a1,1,0,0,1,0-1.67L21.88,5.73a2,2,0,0,1,2.22,0l16.66,11.4A1,1,0,0,1,40.74,18.82Z"/><path class="cls-1" d="M8,21.42v6.12a1,1,0,0,0,.44.83l13.43,9a1,1,0,0,0,1.09,0l14-9a1,1,0,0,0,.46-.84V21.24"/><path class="cls-1" d="M32.5,34.5h0a2,2,0,0,1,2,2v3a0,0,0,0,1,0,0h-4a0,0,0,0,1,0,0v-3A2,2,0,0,1,32.5,34.5Z"/><polyline class="cls-1" points="21.98 16.85 32.39 24 32.5 34.5"/></g><g id="schedule"><polyline class="cls-2" points="34 34 34 34 34 34"/></g></svg>