<svg xmlns="http://www.w3.org/2000/svg" viewBox="0 0 48 48"><defs><style>.cls-1,.cls-2{fill:none;stroke:#1F252D;stroke-miterlimit:10;}.cls-2{stroke-linecap:round;}</style></defs><g id="homework"><path class="cls-1" d="M35,5h6a2,2,0,0,1,2,2V34a1,1,0,0,1-1,1H34a1,1,0,0,1-1-1V7A2,2,0,0,1,35,5Z"/><line class="cls-1" x1="33.5" y1="10.5" x2="42.5" y2="10.5"/><line class="cls-1" x1="33" y1="12.5" x2="42.5" y2="12.5"/><path class="cls-1" d="M33.06,34.32l4.11,7.16a.92.92,0,0,0,1.66,0l4.11-7.16"/><line class="cls-1" x1="36.26" y1="39.35" x2="40" y2="39.35"/><circle class="cls-1" cx="19.5" cy="15.5" r="5"/><path class="cls-1" d="M16.23,19.27,6.5,41.5c-.74,1.6,2,2,4-1l9-20"/><path class="cls-1" d="M22.65,19.27,32.38,41.5c.74,1.6-2,2-4-1l-9-20"/><line class="cls-2" x1="27.48" y1="30.31" x2="31.46" y2="30.31"/><line class="cls-2" x1="15.08" y1="30.31" x2="23.79" y2="30.31"/><line class="cls-2" x1="8.2" y1="30.31" x2="11" y2="30.31"/><line class="cls-2" x1="19.73" y1="29.27" x2="19.73" y2="31.33"/><line class="cls-2" x1="19.7" y1="5.45" x2="19.7" y2="10.5"/><line class="cls-2" x1="17.72" y1="7.97" x2="21.68" y2="7.97"/></g></svg>