<svg xmlns="http://www.w3.org/2000/svg" viewBox="0 0 48 48"><defs><style>.cls-1,.cls-2{fill:none;stroke:#1F252D;stroke-miterlimit:10;}.cls-2{stroke-linecap:round;}</style></defs><g id="curriculum"><path class="cls-1" d="M31,8.5h3.55a2,2,0,0,1,2,1.95v32.1a2,2,0,0,1-2,2H13.45a2,2,0,0,1-1.95-2V10.45A2,2,0,0,1,13.45,8.5H18"/><rect class="cls-1" x="16.5" y="14.5" width="15" height="13"/><line class="cls-2" x1="16.5" y1="32.5" x2="31.5" y2="32.5"/><line class="cls-2" x1="16.5" y1="35.5" x2="31.5" y2="35.5"/><path class="cls-1" d="M27.69,5.5a1,1,0,0,1-.92-.63,3,3,0,0,0-5.54,0,1,1,0,0,1-.92.63H18.5a1,1,0,0,0-1,1v4h13v-4a1,1,0,0,0-1-1Z"/></g></svg>