<svg xmlns="http://www.w3.org/2000/svg" viewBox="0 0 48 48"><defs><style>.cls-1,.cls-2,.cls-3{fill:none;stroke:#1F252D;stroke-linejoin:round;}.cls-2,.cls-3{stroke-linecap:round;}.cls-3{stroke-width:1.1px;}</style></defs><g id="user_s_activity" data-name="user&apos;s activity"><path d="M24.22,11.39a8,8,0,1,1-8,8,8,8,0,0,1,8-8m0-1a9,9,0,1,0,9,9,9,9,0,0,0-9-9Z"/><path d="M31.22,31.29c3.91,0,7.1,2.51,7.1,5.59v6.5c0,.34-.45.72-1.1.72h-26c-.65,0-1.1-.38-1.1-.72v-6.5c0-3.08,3.19-5.59,7.1-5.59h2.62l3.74,3.79a.89.89,0,0,0,1.28,0l3.74-3.79h2.62m0-.9h-3l-4,4.06-4-4.06h-3c-4.42,0-8,2.91-8,6.49v6.5a1.85,1.85,0,0,0,2,1.62h26a1.85,1.85,0,0,0,2-1.62v-6.5c0-3.58-3.58-6.49-8-6.49Z"/><line class="cls-1" x1="19.72" y1="30.39" x2="19.72" y2="26.39"/><line class="cls-1" x1="28.72" y1="30.39" x2="28.72" y2="26.39"/><path d="M30.22,40.39a1,1,0,1,1-1,1,1,1,0,0,1,1-1m0-1a2,2,0,1,0,2,2,2,2,0,0,0-2-2Z"/><polyline class="cls-1" points="23.5 34.5 20.72 37.89 15.72 30.89"/><polyline class="cls-1" points="24.5 34.5 26.72 37.89 32.72 30.89"/><path class="cls-1" d="M18.5,13.5s9.73,5.78,13.36,2.89"/><path d="M25,4a2,2,0,1,1-2,2,2,2,0,0,1,2-2m0-1a3,3,0,1,0,3,3,3,3,0,0,0-3-3Z"/><path d="M8.17,27a2,2,0,1,1-2,2,2,2,0,0,1,2-2m0-1a3,3,0,1,0,3,3,3,3,0,0,0-3-3Z"/><path d="M8.17,13a2,2,0,1,1-2,2,2,2,0,0,1,2-2m0-1a3,3,0,1,0,3,3,3,3,0,0,0-3-3Z"/><line class="cls-2" x1="8.17" y1="24.5" x2="8.17" y2="20.5"/><path d="M40.17,28a2,2,0,1,1-2,2,2,2,0,0,1,2-2m0-1a3,3,0,1,0,3,3,3,3,0,0,0-3-3Z"/><path d="M40.17,14a2,2,0,1,1-2,2,2,2,0,0,1,2-2m0-1a3,3,0,1,0,3,3,3,3,0,0,0-3-3Z"/><line class="cls-2" x1="40.17" y1="25.5" x2="40.17" y2="21.5"/><line class="cls-3" x1="12.83" y1="9.39" x2="16.83" y2="7.5"/><line class="cls-3" x1="30.93" y1="7.31" x2="34.73" y2="9.58"/></g></svg>