<svg width="48" height="48" viewBox="0 0 48 48" fill="none" xmlns="http://www.w3.org/2000/svg">
<path d="M36.8209 37.5659H10.745C10.5474 37.5659 10.3579 37.4874 10.2182 37.3477C10.0785 37.208 10 37.0185 10 36.8209V10.745C10 10.5474 10.0785 10.3579 10.2182 10.2182C10.3579 10.0785 10.5474 10 10.745 10H31.1736C31.3654 10.0008 31.5496 10.0755 31.6877 10.2086L34.5858 12.9801L37.3349 15.5877C37.4085 15.6578 37.4669 15.7422 37.5066 15.8357C37.5464 15.9293 37.5665 16.0299 37.5659 16.1315V36.8209C37.5659 37.0185 37.4874 37.208 37.3477 37.3477C37.208 37.4874 37.0185 37.5659 36.8209 37.5659Z" stroke="#FDFDFD" stroke-miterlimit="10"/>
<path d="M15.588 10V18.2325C15.5758 18.5048 15.6714 18.7709 15.8541 18.9731C16.0368 19.1753 16.2918 19.2974 16.5639 19.3128H28.0224C28.2945 19.2974 28.5496 19.1753 28.7323 18.9731C28.915 18.7709 29.0106 18.5048 28.9984 18.2325V10" stroke="#FDFDFD" stroke-miterlimit="10"/>
</svg>
