<svg xmlns="http://www.w3.org/2000/svg" viewBox="0 0 48 48"><defs><style>.cls-1{fill:none;stroke:#1F252D;stroke-linecap:round;stroke-linejoin:round;}</style></defs><g id="school_building" data-name="school building"><line class="cls-1" x1="5.5" y1="42.5" x2="43" y2="42.5"/><polyline class="cls-1" points="9.26 42.5 9.26 22.3 15.33 22.3 15.33 15.06 24 9.94 32.08 15.13 32.08 22.5 38.5 22.5 38.5 42.5"/><polyline class="cls-1" points="18.75 42.5 18.75 32.73 23.6 32.73 28.45 32.73 28.45 42.5"/><line class="cls-1" x1="23.88" y1="42.5" x2="23.88" y2="32.73"/><polyline class="cls-1" points="24 10.19 24 4.44 27.88 4.44 27.88 7.77 24 7.79"/><circle class="cls-1" cx="24" cy="19" r="3.5"/><polyline class="cls-1" points="23.5 16.5 23.5 19.51 25.94 19.51"/><rect class="cls-1" x="12.5" y="26.5" width="4" height="4"/><rect class="cls-1" x="12.5" y="32.5" width="4" height="4"/><rect class="cls-1" x="18.5" y="26.5" width="4" height="4"/><rect class="cls-1" x="24.5" y="26.5" width="4" height="4"/><rect class="cls-1" x="31.5" y="26.5" width="4" height="4"/><rect class="cls-1" x="31.5" y="32.5" width="4" height="4"/></g></svg>