<svg xmlns="http://www.w3.org/2000/svg" viewBox="0 0 48 48"><defs><style>.cls-1{fill:none;stroke:#1F252D;stroke-linecap:round;stroke-linejoin:round;}</style></defs><g id="Layer_52" data-name="Layer 52"><path class="cls-1" d="M24.93,7.33l3.62,11.16a1,1,0,0,0,.93.67H41.21a1,1,0,0,1,.57,1.76l-9.49,6.9a1,1,0,0,0-.35,1.09l3.62,11.15a1,1,0,0,1-1.5,1.09l-9.49-6.89a1,1,0,0,0-1.14,0l-9.49,6.89a1,1,0,0,1-1.5-1.09l3.62-11.15a1,1,0,0,0-.35-1.09l-9.49-6.9a1,1,0,0,1,.57-1.76H18.52a1,1,0,0,0,.93-.67L23.07,7.33A1,1,0,0,1,24.93,7.33Z"/></g></svg>