<svg width="32" height="33" viewBox="0 0 32 33" fill="none" xmlns="http://www.w3.org/2000/svg">
<circle cx="16" cy="16.3853" r="16" fill="#15A3A5"/>
<path d="M14.5547 14.9868H15.5859C16.0911 14.9868 16.5078 14.9035 16.8359 14.7368C17.1693 14.5649 17.4167 14.3332 17.5781 14.0415C17.7448 13.7446 17.8281 13.4113 17.8281 13.0415C17.8281 12.604 17.7552 12.2368 17.6094 11.9399C17.4635 11.6431 17.2448 11.4191 16.9531 11.2681C16.6615 11.117 16.2917 11.0415 15.8438 11.0415C15.4375 11.0415 15.0781 11.1222 14.7656 11.2837C14.4583 11.4399 14.2161 11.6639 14.0391 11.9556C13.8672 12.2472 13.7812 12.591 13.7812 12.9868H12.3359C12.3359 12.4087 12.4818 11.8826 12.7734 11.4087C13.0651 10.9347 13.474 10.5571 14 10.2759C14.5312 9.99463 15.1458 9.854 15.8438 9.854C16.5312 9.854 17.1328 9.9764 17.6484 10.2212C18.1641 10.4608 18.5651 10.8201 18.8516 11.2993C19.138 11.7733 19.2812 12.3644 19.2812 13.0728C19.2812 13.3592 19.2135 13.6665 19.0781 13.9946C18.9479 14.3175 18.7422 14.6196 18.4609 14.9009C18.1849 15.1821 17.8255 15.4139 17.3828 15.5962C16.9401 15.7733 16.4089 15.8618 15.7891 15.8618H14.5547V14.9868ZM14.5547 16.1743V15.3071H15.7891C16.513 15.3071 17.112 15.3931 17.5859 15.5649C18.0599 15.7368 18.4323 15.966 18.7031 16.2524C18.9792 16.5389 19.1719 16.854 19.2812 17.1978C19.3958 17.5363 19.4531 17.8748 19.4531 18.2134C19.4531 18.7446 19.362 19.216 19.1797 19.6274C19.0026 20.0389 18.75 20.3879 18.4219 20.6743C18.099 20.9608 17.7188 21.1769 17.2812 21.3228C16.8438 21.4686 16.3672 21.5415 15.8516 21.5415C15.3568 21.5415 14.8906 21.4712 14.4531 21.3306C14.0208 21.1899 13.638 20.9868 13.3047 20.7212C12.9714 20.4504 12.7109 20.1196 12.5234 19.729C12.3359 19.3332 12.2422 18.8826 12.2422 18.3774H13.6875C13.6875 18.7733 13.7734 19.1196 13.9453 19.4165C14.1224 19.7134 14.3724 19.9451 14.6953 20.1118C15.0234 20.2733 15.4089 20.354 15.8516 20.354C16.2943 20.354 16.6745 20.2785 16.9922 20.1274C17.3151 19.9712 17.5625 19.7368 17.7344 19.4243C17.9115 19.1118 18 18.7186 18 18.2446C18 17.7707 17.901 17.3826 17.7031 17.0806C17.5052 16.7733 17.224 16.5467 16.8594 16.4009C16.5 16.2498 16.0755 16.1743 15.5859 16.1743H14.5547Z" fill="#FDFDFD"/>
</svg>
