<svg xmlns="http://www.w3.org/2000/svg" viewBox="0 0 48 48"><defs><style>.cls-1,.cls-2{fill:none;}.cls-2{stroke:#1F252D;stroke-linecap:round;stroke-linejoin:round;}</style></defs><g id="Layer_56" data-name="Layer 56"><circle class="cls-1" cx="18.34" cy="31.64" r="0.09"/><path class="cls-2" d="M33,4.09H28.15v21.5h0V30.4h0v.21h0a7.23,7.23,0,1,1-7.46-7.46h5.07V18.33H21.26A12.27,12.27,0,0,0,8.93,29.2a12,12,0,1,0,24,1.21L33,26V11.77s2.74,2.9,3.73,3.76S41.36,19,41.37,19V12.47a17.69,17.69,0,0,1-4.48-3.09A39.45,39.45,0,0,1,33,4.09Z"/></g></svg>