<svg width="32" height="33" viewBox="0 0 32 33" fill="none" xmlns="http://www.w3.org/2000/svg">
<circle cx="16" cy="16.3853" r="16" fill="#15A3A5"/>
<path d="M19.8984 20.1978V21.3853H12.4531V20.3462L16.1797 16.1978C16.638 15.6873 16.9922 15.255 17.2422 14.9009C17.4974 14.5415 17.6745 14.2212 17.7734 13.9399C17.8776 13.6535 17.9297 13.3618 17.9297 13.0649C17.9297 12.6899 17.8516 12.3514 17.6953 12.0493C17.5443 11.742 17.3203 11.4972 17.0234 11.3149C16.7266 11.1326 16.3672 11.0415 15.9453 11.0415C15.4401 11.0415 15.0182 11.1405 14.6797 11.3384C14.3464 11.5311 14.0964 11.8019 13.9297 12.1509C13.763 12.4998 13.6797 12.9009 13.6797 13.354H12.2344C12.2344 12.7134 12.375 12.1274 12.6562 11.5962C12.9375 11.0649 13.3542 10.6431 13.9062 10.3306C14.4583 10.0129 15.138 9.854 15.9453 9.854C16.6641 9.854 17.2786 9.98161 17.7891 10.2368C18.2995 10.4868 18.6901 10.841 18.9609 11.2993C19.237 11.7524 19.375 12.2837 19.375 12.8931C19.375 13.2264 19.3177 13.5649 19.2031 13.9087C19.0938 14.2472 18.9401 14.5858 18.7422 14.9243C18.5495 15.2629 18.3229 15.5962 18.0625 15.9243C17.8073 16.2524 17.5339 16.5754 17.2422 16.8931L14.1953 20.1978H19.8984Z" fill="#FDFDFD"/>
</svg>
