<svg xmlns="http://www.w3.org/2000/svg" viewBox="0 0 48 48"><defs><style>.cls-1{fill:none;stroke:#1F252D;stroke-linecap:round;stroke-linejoin:round;}</style></defs><g id="unlocked_open" data-name="unlocked/open"><path class="cls-1" d="M16.85,6.9a10.74,10.74,0,0,1,7.37-2.59h0c7,0,11,5.77,11,12.4v3.1"/><path d="M24.22,26.81a3,3,0,0,1,1.66,5.49l-.44.3v2.78a1,1,0,0,1-1,1H24a1,1,0,0,1-1-1V32.6l-.44-.3a3,3,0,0,1,1.67-5.49m0-1A4,4,0,0,0,22,33.13v2.25a2,2,0,0,0,2,2h.47a2,2,0,0,0,2-2V33.13a4,4,0,0,0-2.22-7.32Z"/><path d="M35.72,20.81a3,3,0,0,1,3,3v14.5a3,3,0,0,1-3,3h-23a3,3,0,0,1-3-3V23.81a3,3,0,0,1,3-3h23m0-1h-23a4,4,0,0,0-4,4v14.5a4,4,0,0,0,4,4h23a4,4,0,0,0,4-4V23.81a4,4,0,0,0-4-4Z"/></g></svg>