<svg xmlns="http://www.w3.org/2000/svg" viewBox="0 0 48 48"><defs><style>.cls-1,.cls-2{fill:none;stroke-linejoin:round;}.cls-1{stroke:#1F252D;}.cls-2{stroke:#fff;stroke-linecap:round;stroke-width:1.25px;}</style></defs><g id="confirmation_about_signed_it_with_avatar" data-name="confirmation about signed it with avatar"><path d="M31.64,25.91a7,7,0,0,1,7,7v8a1,1,0,0,1-1,1h-26a1,1,0,0,1-1-1v-8a7,7,0,0,1,7-7h2.52l3.7,4.62a1,1,0,0,0,1.57,0l3.7-4.62h2.51m0-1h-3l-4,5-4-5h-3a8,8,0,0,0-8,8v8a2,2,0,0,0,2,2h26a2,2,0,0,0,2-2v-8a8,8,0,0,0-8-8Z"/><path d="M24.64,5.91a8,8,0,1,1-8,8,8,8,0,0,1,8-8m0-1a9,9,0,1,0,9,9,9,9,0,0,0-9-9Z"/><path d="M31.64,25.91a7,7,0,0,1,7,7v8a1,1,0,0,1-1,1h-26a1,1,0,0,1-1-1v-8a7,7,0,0,1,7-7h2.52l3.7,4.62a1,1,0,0,0,1.57,0l3.7-4.62h2.51m0-1h-3l-4,5-4-5h-3a8,8,0,0,0-8,8v8a2,2,0,0,0,2,2h26a2,2,0,0,0,2-2v-8a8,8,0,0,0-8-8Z"/><line class="cls-1" x1="20.14" y1="24.91" x2="20.14" y2="20.91"/><line class="cls-1" x1="29.14" y1="24.91" x2="29.14" y2="20.91"/><path class="cls-1" d="M29.14,6.41c0,1-7,6-12.5,4.5"/><path class="cls-1" d="M25.64,8.91s5,5,7.5,3.5"/><path d="M30.64,34.91a1,1,0,1,1-1,1,1,1,0,0,1,1-1m0-1a2,2,0,1,0,2,2,2,2,0,0,0-2-2Z"/><polyline class="cls-1" points="24.14 30.41 21.14 32.41 16.14 25.41"/><polyline class="cls-1" points="25.14 30.41 27.14 32.41 33.14 25.41"/><circle cx="33.39" cy="37.62" r="7.5"/><polyline class="cls-2" points="30.04 37.26 32.51 39.73 36.74 35.51"/></g></svg>