<svg width="48" height="48" viewBox="0 0 48 48" fill="none" xmlns="http://www.w3.org/2000/svg">
<path d="M33.39 6C33.6552 6 33.9096 6.10536 34.0971 6.29289C34.2847 6.48043 34.39 6.73478 34.39 7V41C34.39 41.2652 34.2847 41.5196 34.0971 41.7071C33.9096 41.8946 33.6552 42 33.39 42H7.45001C7.1848 42 6.93044 41.8946 6.74291 41.7071C6.55537 41.5196 6.45001 41.2652 6.45001 41V7C6.45001 6.73478 6.55537 6.48043 6.74291 6.29289C6.93044 6.10536 7.1848 6 7.45001 6H33.39ZM33.39 5H7.45001C6.91958 5 6.41087 5.21071 6.0358 5.58579C5.66073 5.96086 5.45001 6.46957 5.45001 7V41C5.45001 41.5304 5.66073 42.0391 6.0358 42.4142C6.41087 42.7893 6.91958 43 7.45001 43H33.39C33.9204 43 34.4292 42.7893 34.8042 42.4142C35.1793 42.0391 35.39 41.5304 35.39 41V7C35.39 6.46957 35.1793 5.96086 34.8042 5.58579C34.4292 5.21071 33.9204 5 33.39 5Z" fill="#523970"/>
<path d="M34.39 45.65C38.8083 45.65 42.39 42.0683 42.39 37.65C42.39 33.2317 38.8083 29.65 34.39 29.65C29.9717 29.65 26.39 33.2317 26.39 37.65C26.39 42.0683 29.9717 45.65 34.39 45.65Z" fill="#DCA3FF" stroke="#523970" stroke-linecap="round" stroke-linejoin="round"/>
<path d="M30.16 37.65H38.62" stroke="#523970" stroke-linecap="round" stroke-linejoin="round"/>
<path d="M34.39 41.88V33.42" stroke="#523970" stroke-linecap="round" stroke-linejoin="round"/>
<path d="M11.84 23.43H30.34" stroke="#523970" stroke-miterlimit="10" stroke-linecap="round"/>
<path d="M11.84 27.76H30.34" stroke="#523970" stroke-miterlimit="10" stroke-linecap="round"/>
<path d="M11.84 32.09H21.09" stroke="#523970" stroke-miterlimit="10" stroke-linecap="round"/>
<path d="M14.12 20.65C15.8708 20.65 17.29 19.6023 17.29 18.31C17.29 17.0176 15.8708 15.97 14.12 15.97C12.3693 15.97 10.95 17.0176 10.95 18.31C10.95 19.6023 12.3693 20.65 14.12 20.65Z" stroke="#523970" stroke-miterlimit="10" stroke-linecap="round"/>
<path d="M25.28 20.65C27.0307 20.65 28.45 19.6023 28.45 18.31C28.45 17.0176 27.0307 15.97 25.28 15.97C23.5292 15.97 22.11 17.0176 22.11 18.31C22.11 19.6023 23.5292 20.65 25.28 20.65Z" stroke="#523970" stroke-miterlimit="10" stroke-linecap="round"/>
<path d="M17.28 18.31V9H28.45V18.41" stroke="#523970" stroke-miterlimit="10" stroke-linecap="round"/>
</svg>
