<svg width="48" height="48" viewBox="0 0 48 48" fill="none" xmlns="http://www.w3.org/2000/svg">
<path d="M33.39 6C33.94 6 34.39 6.45 34.39 7V41C34.39 41.55 33.94 42 33.39 42H7.45001C6.90001 42 6.45001 41.55 6.45001 41V7C6.45001 6.45 6.90001 6 7.45001 6H33.39ZM33.39 5H7.45001C6.35001 5 5.45001 5.9 5.45001 7V41C5.45001 42.1 6.35001 43 7.45001 43H33.39C34.49 43 35.39 42.1 35.39 41V7C35.39 5.9 34.49 5 33.39 5Z" fill="#523970"/>
<path d="M34.39 45.65C38.8083 45.65 42.39 42.0683 42.39 37.65C42.39 33.2317 38.8083 29.65 34.39 29.65C29.9717 29.65 26.39 33.2317 26.39 37.65C26.39 42.0683 29.9717 45.65 34.39 45.65Z" fill="#DCA3FF" stroke="#523970" stroke-miterlimit="10" stroke-linecap="round" stroke-linejoin="round"/>
<path d="M30.16 37.65H38.62" stroke="#523970" stroke-miterlimit="10" stroke-linecap="round" stroke-linejoin="round"/>
<path d="M34.39 41.88V33.42" stroke="#523970" stroke-miterlimit="10" stroke-linecap="round" stroke-linejoin="round"/>
<path d="M21.18 35.13L16.27 32.29C15.6 31.9 14.76 32.39 14.76 33.16V38.83C14.76 39.61 15.6 40.09 16.27 39.7L21.18 36.86C21.85 36.48 21.85 35.52 21.18 35.13Z" stroke="#523970" stroke-miterlimit="10"/>
<path d="M13.55 15.45C12.94 15.45 12.48 15.29 12.18 14.98C11.88 14.67 11.73 14.21 11.73 13.62V11.26H11.13C10.85 11.26 10.71 11.13 10.71 10.87C10.71 10.61 10.85 10.48 11.13 10.48H11.73V9.45C11.73 9.11 11.9 8.94 12.24 8.94C12.57 8.94 12.74 9.11 12.74 9.45V10.48H13.91C14.19 10.48 14.33 10.61 14.33 10.87C14.33 11.13 14.19 11.26 13.91 11.26H12.74V13.54C12.74 13.89 12.81 14.16 12.96 14.34C13.11 14.52 13.35 14.61 13.7 14.61C13.82 14.61 13.92 14.6 14.01 14.57C14.1 14.54 14.17 14.53 14.24 14.53C14.31 14.53 14.37 14.56 14.42 14.61C14.47 14.66 14.49 14.75 14.49 14.9C14.49 15.01 14.47 15.1 14.43 15.19C14.39 15.27 14.33 15.33 14.24 15.36C14.16 15.39 14.05 15.42 13.91 15.44C13.77 15.44 13.65 15.45 13.55 15.45Z" fill="#523970"/>
<path d="M17.44 10.47H28.73" stroke="#523970" stroke-miterlimit="10" stroke-linecap="round"/>
<path d="M17.44 12.9H26.24" stroke="#523970" stroke-miterlimit="10" stroke-linecap="round"/>
<path d="M14.35 27.97L17.27 24.33L19.69 26.7L22.82 20.76L25.38 27.97" stroke="#523970" stroke-miterlimit="10" stroke-linecap="round"/>
<path d="M18.22 20.28C18.22 21.27 17.42 22.07 16.43 22.07C15.44 22.07 14.64 21.27 14.64 20.28C14.64 19.29 15.44 18.49 16.43 18.49C17.42 18.49 18.22 19.29 18.22 20.28Z" stroke="#523970" stroke-miterlimit="10"/>
</svg>
