<svg width="48" height="48" viewBox="0 0 48 48" fill="none" xmlns="http://www.w3.org/2000/svg">
<path d="M26.05 5H8V43H35.64V14.59L26.05 5Z" stroke="#523970" stroke-miterlimit="10" stroke-linecap="round" stroke-linejoin="round"/>
<path d="M11.84 14.77H30.34" stroke="#523970" stroke-miterlimit="10" stroke-linecap="round"/>
<path d="M11.84 19.1H30.34" stroke="#523970" stroke-miterlimit="10" stroke-linecap="round"/>
<path d="M11.84 23.43H30.34" stroke="#523970" stroke-miterlimit="10" stroke-linecap="round"/>
<path d="M11.84 27.76H30.34" stroke="#523970" stroke-miterlimit="10" stroke-linecap="round"/>
<path d="M11.84 32.09H21.09" stroke="#523970" stroke-miterlimit="10" stroke-linecap="round"/>
<path d="M34.39 45.65C38.8083 45.65 42.39 42.0683 42.39 37.65C42.39 33.2317 38.8083 29.65 34.39 29.65C29.9717 29.65 26.39 33.2317 26.39 37.65C26.39 42.0683 29.9717 45.65 34.39 45.65Z" fill="#DCA3FF" stroke="#523970" stroke-miterlimit="10" stroke-linecap="round" stroke-linejoin="round"/>
<path d="M30.16 37.65H38.62" stroke="#523970" stroke-miterlimit="10" stroke-linecap="round" stroke-linejoin="round"/>
<path d="M34.39 41.88V33.42" stroke="#523970" stroke-miterlimit="10" stroke-linecap="round" stroke-linejoin="round"/>
<path d="M35.64 11.17L29.47 5H35.64V11.17Z" stroke="#523970" stroke-miterlimit="10" stroke-linecap="round" stroke-linejoin="round"/>
</svg>
