<svg width="48" height="48" viewBox="0 0 48 48" fill="none" xmlns="http://www.w3.org/2000/svg">
<path d="M33.39 6C33.94 6 34.39 6.45 34.39 7V41C34.39 41.55 33.94 42 33.39 42H7.45C6.9 42 6.45 41.55 6.45 41V7C6.45 6.45 6.9 6 7.45 6H33.39ZM33.39 5H7.45C6.35 5 5.45 5.9 5.45 7V41C5.45 42.1 6.35 43 7.45 43H33.39C34.49 43 35.39 42.1 35.39 41V7C35.39 5.9 34.49 5 33.39 5Z" fill="#523970"/>
<path d="M13.66 17.78C12.86 17.78 12.26 17.57 11.85 17.14C11.44 16.71 11.25 16.1 11.25 15.3V11.73H10.31C9.98001 11.73 9.82001 11.58 9.82001 11.28C9.82001 10.99 9.98001 10.85 10.31 10.85H11.25V9.23998C11.25 8.85998 11.44 8.66998 11.82 8.66998C12.19 8.66998 12.38 8.85998 12.38 9.23998V10.85H14.14C14.47 10.85 14.63 10.99 14.63 11.28C14.63 11.58 14.47 11.73 14.14 11.73H12.38V15.19C12.38 15.72 12.49 16.13 12.72 16.4C12.94 16.68 13.31 16.81 13.81 16.81C13.99 16.81 14.14 16.79 14.26 16.75C14.38 16.71 14.49 16.69 14.58 16.69C14.66 16.68 14.73 16.71 14.79 16.77C14.85 16.84 14.87 16.95 14.87 17.11C14.87 17.22 14.85 17.32 14.81 17.42C14.77 17.51 14.7 17.58 14.59 17.62C14.48 17.66 14.33 17.69 14.15 17.73C13.98 17.76 13.81 17.78 13.66 17.78Z" fill="#523970"/>
<path d="M18.49 13.66H30.36" stroke="#523970" stroke-miterlimit="10" stroke-linecap="round"/>
<path d="M9.87001 18.99H30.36" stroke="#523970" stroke-miterlimit="10" stroke-linecap="round"/>
<path d="M9.87001 24.32H30.36" stroke="#523970" stroke-miterlimit="10" stroke-linecap="round"/>
<path d="M9.87001 29.65H27.36" stroke="#523970" stroke-miterlimit="10" stroke-linecap="round"/>
<path d="M9.87001 34.98H23.09" stroke="#523970" stroke-miterlimit="10" stroke-linecap="round"/>
<path d="M34.39 45.65C38.8083 45.65 42.39 42.0683 42.39 37.65C42.39 33.2317 38.8083 29.65 34.39 29.65C29.9717 29.65 26.39 33.2317 26.39 37.65C26.39 42.0683 29.9717 45.65 34.39 45.65Z" fill="#DCA3FF" stroke="#523970" stroke-miterlimit="10" stroke-linecap="round" stroke-linejoin="round"/>
<path d="M30.16 37.65H38.62" stroke="#523970" stroke-miterlimit="10" stroke-linecap="round" stroke-linejoin="round"/>
<path d="M34.39 41.88V33.42" stroke="#523970" stroke-miterlimit="10" stroke-linecap="round" stroke-linejoin="round"/>
</svg>
