<svg width="48" height="48" viewBox="0 0 48 48" fill="none" xmlns="http://www.w3.org/2000/svg">
<path d="M33.39 6C33.94 6 34.39 6.45 34.39 7V41C34.39 41.55 33.94 42 33.39 42H7.45C6.9 42 6.45 41.55 6.45 41V7C6.45 6.45 6.9 6 7.45 6H33.39ZM33.39 5H7.45C6.35 5 5.45 5.9 5.45 7V41C5.45 42.1 6.35 43 7.45 43H33.39C34.49 43 35.39 42.1 35.39 41V7C35.39 5.9 34.49 5 33.39 5Z" fill="#523970"/>
<path d="M14.47 22.02C13.55 22.02 12.86 21.78 12.41 21.29C11.96 20.8 11.72 20.1 11.72 19.19V15.11H10.65C10.28 15.11 10.09 14.94 10.09 14.6C10.09 14.27 10.28 14.1 10.65 14.1H11.72V12.26C11.72 11.82 11.94 11.6 12.38 11.6C12.81 11.6 13.02 11.82 13.02 12.26V14.1H15.04C15.41 14.1 15.6 14.27 15.6 14.6C15.6 14.94 15.41 15.11 15.04 15.11H13.02V19.06C13.02 19.67 13.15 20.13 13.4 20.44C13.66 20.75 14.07 20.91 14.65 20.91C14.85 20.91 15.02 20.89 15.16 20.85C15.3 20.81 15.42 20.79 15.53 20.79C15.63 20.78 15.71 20.81 15.77 20.89C15.83 20.97 15.87 21.09 15.87 21.27C15.87 21.4 15.85 21.52 15.8 21.62C15.75 21.73 15.67 21.8 15.55 21.84C15.42 21.88 15.25 21.92 15.05 21.96C14.85 22 14.64 22.02 14.47 22.02Z" fill="#523970"/>
<path d="M9.26 25.32H31.26" stroke="#523970" stroke-miterlimit="10" stroke-linecap="round"/>
<path d="M34.39 45.65C38.8083 45.65 42.39 42.0683 42.39 37.65C42.39 33.2317 38.8083 29.65 34.39 29.65C29.9717 29.65 26.39 33.2317 26.39 37.65C26.39 42.0683 29.9717 45.65 34.39 45.65Z" fill="#DCA3FF" stroke="#523970" stroke-miterlimit="10" stroke-linecap="round" stroke-linejoin="round"/>
<path d="M30.16 37.65H38.62" stroke="#523970" stroke-miterlimit="10" stroke-linecap="round" stroke-linejoin="round"/>
<path d="M34.39 41.88V33.42" stroke="#523970" stroke-miterlimit="10" stroke-linecap="round" stroke-linejoin="round"/>
</svg>
