<svg width="48" height="48" viewBox="0 0 48 48" fill="none" xmlns="http://www.w3.org/2000/svg">
<path d="M26.05 5H8V43H35.64V14.59L26.05 5Z" stroke="#523970" stroke-linecap="round" stroke-linejoin="round"/>
<path d="M34.39 45.65C38.8083 45.65 42.39 42.0683 42.39 37.65C42.39 33.2317 38.8083 29.65 34.39 29.65C29.9717 29.65 26.39 33.2317 26.39 37.65C26.39 42.0683 29.9717 45.65 34.39 45.65Z" fill="#DCA3FF" stroke="#523970" stroke-linecap="round" stroke-linejoin="round"/>
<path d="M30.16 37.65H38.62" stroke="#523970" stroke-linecap="round" stroke-linejoin="round"/>
<path d="M34.39 41.88V33.42" stroke="#523970" stroke-linecap="round" stroke-linejoin="round"/>
<path d="M35.64 11.17L29.47 5H35.64V11.17Z" stroke="#523970" stroke-linecap="round" stroke-linejoin="round"/>
<path d="M23.5443 22.4563C22.7252 21.6376 21.6144 21.1776 20.4563 21.1776C19.2981 21.1776 18.1874 21.6376 17.3683 22.4563L14.2793 25.5443C13.4602 26.3634 13 27.4744 13 28.6328C13 29.7912 13.4602 30.9022 14.2793 31.7213C15.0984 32.5404 16.2094 33.0006 17.3678 33.0006C18.5262 33.0006 19.6372 32.5404 20.4563 31.7213L22.0003 30.1773" stroke="#523970" stroke-linecap="round" stroke-linejoin="round"/>
<path d="M20.4563 25.5443C21.2754 26.3631 22.3861 26.823 23.5443 26.823C24.7024 26.823 25.8132 26.3631 26.6323 25.5443L29.7213 22.4563C30.5404 21.6372 31.0006 20.5262 31.0006 19.3678C31.0006 18.2094 30.5404 17.0984 29.7213 16.2793C28.9022 15.4602 27.7912 15 26.6328 15C25.4744 15 24.3634 15.4602 23.5443 16.2793L22.0003 17.8233" stroke="#523970" stroke-linecap="round" stroke-linejoin="round"/>
</svg>
