<svg width="48" height="48" viewBox="0 0 48 48" fill="none" xmlns="http://www.w3.org/2000/svg">
<path d="M33.39 6C33.94 6 34.39 6.45 34.39 7V41C34.39 41.55 33.94 42 33.39 42H7.45C6.9 42 6.45 41.55 6.45 41V7C6.45 6.45 6.9 6 7.45 6H33.39ZM33.39 5H7.45C6.35 5 5.45 5.9 5.45 7V41C5.45 42.1 6.35 43 7.45 43H33.39C34.49 43 35.39 42.1 35.39 41V7C35.39 5.9 34.49 5 33.39 5Z" fill="#523970"/>
<path d="M10.09 12.94L11.44 14.35L13.91 10.56" stroke="#523970" stroke-miterlimit="10" stroke-linecap="round" stroke-linejoin="round"/>
<path d="M10.13 22.13L13.87 25.87" stroke="#523970" stroke-miterlimit="10" stroke-linecap="round" stroke-linejoin="round"/>
<path d="M10.13 25.87L13.87 22.13" stroke="#523970" stroke-miterlimit="10" stroke-linecap="round" stroke-linejoin="round"/>
<path d="M10.09 35.48L11.44 36.89L13.91 33.1" stroke="#523970" stroke-miterlimit="10" stroke-linecap="round" stroke-linejoin="round"/>
<path d="M17.49 11.42H31.73" stroke="#523970" stroke-miterlimit="10" stroke-linecap="round"/>
<path d="M17.49 13.85H27.28" stroke="#523970" stroke-miterlimit="10" stroke-linecap="round"/>
<path d="M17.49 22.5H31.73" stroke="#523970" stroke-miterlimit="10" stroke-linecap="round"/>
<path d="M17.49 24.93H27.28" stroke="#523970" stroke-miterlimit="10" stroke-linecap="round"/>
<path d="M17.49 33.58H24.85" stroke="#523970" stroke-miterlimit="10" stroke-linecap="round"/>
<path d="M17.49 36H23.36" stroke="#523970" stroke-miterlimit="10" stroke-linecap="round"/>
<path d="M34.39 45.65C38.8083 45.65 42.39 42.0683 42.39 37.65C42.39 33.2317 38.8083 29.65 34.39 29.65C29.9717 29.65 26.39 33.2317 26.39 37.65C26.39 42.0683 29.9717 45.65 34.39 45.65Z" fill="#DCA3FF" stroke="#523970" stroke-miterlimit="10" stroke-linecap="round" stroke-linejoin="round"/>
<path d="M30.16 37.65H38.62" stroke="#523970" stroke-miterlimit="10" stroke-linecap="round" stroke-linejoin="round"/>
<path d="M34.39 41.88V33.42" stroke="#523970" stroke-miterlimit="10" stroke-linecap="round" stroke-linejoin="round"/>
</svg>
