<svg width="48" height="48" viewBox="0 0 48 48" fill="none" xmlns="http://www.w3.org/2000/svg">
<path d="M33.39 6C33.94 6 34.39 6.45 34.39 7V41C34.39 41.55 33.94 42 33.39 42H7.45C6.9 42 6.45 41.55 6.45 41V7C6.45 6.45 6.9 6 7.45 6H33.39ZM33.39 5H7.45C6.35 5 5.45 5.9 5.45 7V41C5.45 42.1 6.35 43 7.45 43H33.39C34.49 43 35.39 42.1 35.39 41V7C35.39 5.9 34.49 5 33.39 5Z" fill="#523970"/>
<path d="M15.77 10.75V13.91L18.2 21.64L20.7 13.91V10.75H15.77Z" stroke="#523970" stroke-miterlimit="10" stroke-linecap="round" stroke-linejoin="round"/>
<path d="M8.57001 23.37H31.39" stroke="#523970" stroke-miterlimit="10" stroke-linecap="round" stroke-linejoin="round"/>
<path d="M10.58 31.8C9.91 31.8 9.4 31.55 9.05 31.04C8.7 30.54 8.52 29.82 8.52 28.88C8.52 27.94 8.7 27.22 9.05 26.73C9.41 26.25 9.92 26 10.58 26C11.25 26 11.76 26.25 12.11 26.74C12.46 27.23 12.63 27.95 12.63 28.88C12.63 29.81 12.45 30.54 12.1 31.04C11.76 31.55 11.25 31.8 10.58 31.8ZM10.58 30.96C10.94 30.96 11.21 30.79 11.38 30.46C11.55 30.12 11.64 29.6 11.64 28.88C11.64 28.16 11.55 27.65 11.38 27.32C11.21 27 10.94 26.84 10.58 26.84C10.22 26.84 9.96 27 9.78 27.32C9.6 27.64 9.52 28.16 9.52 28.88C9.52 29.6 9.61 30.12 9.78 30.46C9.96 30.79 10.23 30.96 10.58 30.96Z" fill="#523970"/>
<path d="M26.05 31.71C25.86 31.71 25.73 31.65 25.65 31.52C25.57 31.39 25.58 31.24 25.67 31.06L27.9 26.87H25.5C25.2 26.87 25.05 26.73 25.05 26.45C25.05 26.16 25.2 26.02 25.5 26.02H28.6C28.74 26.02 28.86 26.06 28.95 26.13C29.04 26.21 29.09 26.31 29.09 26.45C29.09 26.57 29.07 26.67 29.04 26.76C29.01 26.85 28.97 26.94 28.91 27.04L26.64 31.38C26.52 31.6 26.32 31.71 26.05 31.71Z" fill="#523970"/>
<path d="M34.39 45.65C38.8083 45.65 42.39 42.0683 42.39 37.65C42.39 33.2317 38.8083 29.65 34.39 29.65C29.9717 29.65 26.39 33.2317 26.39 37.65C26.39 42.0683 29.9717 45.65 34.39 45.65Z" fill="#DCA3FF" stroke="#523970" stroke-miterlimit="10" stroke-linecap="round" stroke-linejoin="round"/>
<path d="M30.16 37.65H38.62" stroke="#523970" stroke-miterlimit="10" stroke-linecap="round" stroke-linejoin="round"/>
<path d="M34.39 41.88V33.42" stroke="#523970" stroke-miterlimit="10" stroke-linecap="round" stroke-linejoin="round"/>
</svg>
