<svg width="48" height="48" viewBox="0 0 48 48" fill="none" xmlns="http://www.w3.org/2000/svg">
<path d="M33.39 6C33.94 6 34.39 6.45 34.39 7V41C34.39 41.55 33.94 42 33.39 42H7.45C6.9 42 6.45 41.55 6.45 41V7C6.45 6.45 6.9 6 7.45 6H33.39ZM33.39 5H7.45C6.35 5 5.45 5.9 5.45 7V41C5.45 42.1 6.35 43 7.45 43H33.39C34.49 43 35.39 42.1 35.39 41V7C35.39 5.9 34.49 5 33.39 5Z" fill="#523970"/>
<path d="M17.49 11.42H31.73" stroke="#523970" stroke-miterlimit="10" stroke-linecap="round"/>
<path d="M17.49 13.85H27.28" stroke="#523970" stroke-miterlimit="10" stroke-linecap="round"/>
<path d="M17.49 22.5H31.73" stroke="#523970" stroke-miterlimit="10" stroke-linecap="round"/>
<path d="M17.49 24.93H27.28" stroke="#523970" stroke-miterlimit="10" stroke-linecap="round"/>
<path d="M11.83 16.26C11.51 16.26 11.17 16.22 10.82 16.13C10.47 16.05 10.17 15.92 9.91 15.75C9.76 15.65 9.67 15.53 9.64 15.4C9.61 15.27 9.63 15.15 9.68 15.05C9.74 14.94 9.83 14.87 9.95 14.84C10.07 14.81 10.21 14.83 10.37 14.91C10.62 15.04 10.85 15.14 11.08 15.19C11.31 15.25 11.54 15.28 11.78 15.28C12.59 15.28 12.99 14.96 12.99 14.33C12.99 14.03 12.89 13.81 12.69 13.66C12.49 13.51 12.2 13.44 11.81 13.44H11.23C11.06 13.44 10.93 13.4 10.85 13.31C10.77 13.22 10.72 13.11 10.72 12.96C10.72 12.81 10.76 12.69 10.85 12.61C10.94 12.53 11.06 12.48 11.23 12.48H11.7C12.04 12.48 12.3 12.4 12.5 12.23C12.7 12.06 12.8 11.84 12.8 11.54C12.8 11.26 12.71 11.05 12.52 10.91C12.34 10.77 12.07 10.69 11.72 10.69C11.5 10.69 11.29 10.72 11.09 10.77C10.9 10.82 10.68 10.92 10.45 11.05C10.31 11.13 10.19 11.16 10.07 11.12C9.96 11.08 9.87 11.01 9.8 10.9C9.74 10.8 9.72 10.68 9.74 10.55C9.76 10.42 9.85 10.32 9.99 10.23C10.52 9.88997 11.12 9.71997 11.81 9.71997C12.47 9.71997 12.98 9.86997 13.35 10.17C13.72 10.47 13.9 10.88 13.9 11.41C13.9 11.75 13.81 12.05 13.64 12.31C13.47 12.57 13.23 12.75 12.93 12.87C13.3 12.97 13.58 13.16 13.79 13.43C13.99 13.7 14.1 14.03 14.1 14.42C14.1 14.98 13.9 15.43 13.49 15.76C13.08 16.09 12.54 16.26 11.83 16.26Z" fill="#523970"/>
<path d="M10.66 27.6399C10.33 27.6399 10.16 27.4799 10.16 27.15C10.16 26.84 10.33 26.68 10.66 26.68H11.67V22.6L10.91 23.0599C10.77 23.1399 10.63 23.17 10.52 23.12C10.4 23.08 10.31 22.9999 10.25 22.8899C10.19 22.7799 10.17 22.66 10.2 22.53C10.22 22.4 10.31 22.2899 10.45 22.2099L11.69 21.4599C11.81 21.3899 11.93 21.33 12.05 21.28C12.17 21.23 12.28 21.2 12.38 21.2C12.51 21.2 12.61 21.2299 12.7 21.2999C12.78 21.3699 12.83 21.4799 12.83 21.6399V26.66H13.75C14.08 26.66 14.24 26.8199 14.24 27.1299C14.24 27.4499 14.07 27.62 13.75 27.62H10.66V27.6399Z" fill="#523970"/>
<path d="M10.45 38.5299C10.26 38.5299 10.12 38.4899 10.03 38.3999C9.94 38.3099 9.9 38.1899 9.9 38.0199C9.9 37.9199 9.93 37.8199 9.98 37.7199C10.03 37.6199 10.11 37.5199 10.21 37.4099L12.02 35.4799C12.3 35.1899 12.49 34.9299 12.61 34.6899C12.73 34.4499 12.79 34.2099 12.79 33.9699C12.79 33.3599 12.42 33.0499 11.68 33.0499C11.48 33.0499 11.27 33.0799 11.07 33.1299C10.87 33.1899 10.66 33.2899 10.45 33.4199C10.32 33.5099 10.2 33.5399 10.08 33.4999C9.96 33.4599 9.88 33.3899 9.82 33.2799C9.76 33.1699 9.74 33.0499 9.76 32.9199C9.78 32.7899 9.86 32.6899 9.99 32.5999C10.25 32.4299 10.54 32.2899 10.86 32.1999C11.18 32.1099 11.5 32.0699 11.83 32.0699C12.51 32.0699 13.03 32.2199 13.39 32.5299C13.75 32.8399 13.93 33.2699 13.93 33.8399C13.93 34.2199 13.84 34.5899 13.65 34.9499C13.47 35.2999 13.18 35.6799 12.79 36.0899L11.4 37.5499H13.75C14.08 37.5499 14.25 37.7099 14.25 38.0199C14.25 38.3399 14.08 38.5099 13.75 38.5099H10.45V38.5299Z" fill="#523970"/>
<path d="M17.49 33.58H24.85" stroke="#523970" stroke-miterlimit="10" stroke-linecap="round"/>
<path d="M17.49 36H23.36" stroke="#523970" stroke-miterlimit="10" stroke-linecap="round"/>
<path d="M34.39 45.65C38.8083 45.65 42.39 42.0683 42.39 37.65C42.39 33.2317 38.8083 29.65 34.39 29.65C29.9717 29.65 26.39 33.2317 26.39 37.65C26.39 42.0683 29.9717 45.65 34.39 45.65Z" fill="#DCA3FF" stroke="#523970" stroke-miterlimit="10" stroke-linecap="round" stroke-linejoin="round"/>
<path d="M30.16 37.65H38.62" stroke="#523970" stroke-miterlimit="10" stroke-linecap="round" stroke-linejoin="round"/>
<path d="M34.39 41.88V33.42" stroke="#523970" stroke-miterlimit="10" stroke-linecap="round" stroke-linejoin="round"/>
</svg>
