<svg width="32" height="33" viewBox="0 0 32 33" fill="none" xmlns="http://www.w3.org/2000/svg">
<path fill-rule="evenodd" clip-rule="evenodd" d="M24.1903 10.6114C24.3554 10.39 24.3097 10.0767 24.0884 9.91167C23.867 9.7466 23.5537 9.79224 23.3886 10.0136L14.5121 21.9179L8.35895 15.5725C8.16672 15.3742 7.85017 15.3694 7.65193 15.5616C7.45368 15.7538 7.44881 16.0704 7.64105 16.2686L14.1965 23.0289C14.2076 23.0408 14.2194 23.0522 14.2319 23.0632C14.2721 23.0986 14.3168 23.1265 14.3639 23.1468C14.4985 23.2049 14.6508 23.1999 14.7797 23.1377C14.843 23.1071 14.9006 23.0628 14.9478 23.0054C14.9545 22.9973 14.9609 22.9891 14.9669 22.9807L24.1903 10.6114Z" fill="black"/>
</svg>
