<svg width="32" height="33" viewBox="0 0 32 33" fill="none" xmlns="http://www.w3.org/2000/svg">
<path fill-rule="evenodd" clip-rule="evenodd" d="M22.359 10.6606C22.5512 10.4623 22.5463 10.1458 22.3481 9.95355C22.1498 9.76131 21.8333 9.76618 21.641 9.96443L16 15.7818L10.359 9.96443C10.1667 9.76618 9.85017 9.76131 9.65193 9.95355C9.45368 10.1458 9.44881 10.4623 9.64105 10.6606L15.3035 16.5L9.64105 22.3394C9.44881 22.5377 9.45368 22.8542 9.65193 23.0465C9.85017 23.2387 10.1667 23.2338 10.359 23.0356L16 17.2182L21.641 23.0356C21.8333 23.2338 22.1498 23.2387 22.3481 23.0465C22.5463 22.8542 22.5512 22.5377 22.3589 22.3394L16.6965 16.5L22.359 10.6606Z" fill="black"/>
</svg>
