<svg width="24" height="25" viewBox="0 0 24 25" fill="none" xmlns="http://www.w3.org/2000/svg">
<path fill-rule="evenodd" clip-rule="evenodd" d="M5.10068 4.86208C4.90945 4.66287 4.59293 4.65641 4.39372 4.84765C4.19452 5.03889 4.18806 5.3554 4.3793 5.55461L6.34141 7.59847C5.65858 8.01302 5.03492 8.46948 4.48357 8.92014C3.59529 9.6462 2.87766 10.3712 2.38186 10.9146C2.13368 11.1867 1.94033 11.4141 1.80822 11.5745C1.74215 11.6548 1.69134 11.7184 1.65659 11.7625C1.63922 11.7845 1.62586 11.8017 1.61661 11.8137L1.60583 11.8277L1.60277 11.8317L1.60183 11.833L1.60151 11.8334C1.60139 11.8336 1.60128 11.8337 2 12.1354L1.60128 11.8337C1.4676 12.0104 1.46612 12.2539 1.59763 12.4322L2 12.1354C1.59763 12.4322 1.59773 12.4323 1.59785 12.4325L1.59817 12.4329L1.5991 12.4342L1.60214 12.4383L1.61289 12.4526C1.62212 12.4649 1.63546 12.4825 1.65281 12.5051C1.68751 12.5503 1.73827 12.6154 1.80429 12.6977C1.9363 12.8622 2.12955 13.0953 2.37763 13.3742C2.8732 13.9315 3.59063 14.6749 4.47875 15.4196C6.24045 16.8967 8.74399 18.4375 11.56 18.4375C13.0581 18.4375 14.4679 18.0021 15.7245 17.3726L18.2193 19.9713C18.4105 20.1705 18.7271 20.1769 18.9263 19.9857C19.1255 19.7945 19.1319 19.478 18.9407 19.2787L16.6302 16.872C17.3733 16.4231 18.049 15.9205 18.6409 15.4251C19.529 14.6818 20.2465 13.9396 20.7421 13.3834C20.9902 13.1049 21.1834 12.8722 21.3154 12.708C21.3815 12.6259 21.4322 12.5609 21.4669 12.5157C21.4843 12.4932 21.4976 12.4756 21.5069 12.4634L21.5176 12.449L21.5206 12.445L21.5216 12.4437L21.5219 12.4433C21.522 12.4431 21.5221 12.443 21.12 12.1458L21.5221 12.443C21.6538 12.2648 21.6525 12.0212 21.519 11.8445L21.12 12.1458C21.519 11.8445 21.5189 11.8443 21.5188 11.8442L21.5184 11.8437L21.5175 11.8425L21.5144 11.8385L21.5037 11.8244C21.4944 11.8124 21.4811 11.7952 21.4637 11.7731C21.4289 11.7289 21.3781 11.6652 21.3121 11.5849C21.18 11.4241 20.9866 11.1963 20.7384 10.9238C20.2427 10.3793 19.525 9.65302 18.6368 8.92563C16.8741 7.48217 14.372 5.97915 11.56 5.97915C10.0021 5.97915 8.53937 6.43966 7.24473 7.09546L5.10068 4.86208ZM7.05226 8.33894C6.34914 8.74965 5.69861 9.21854 5.11643 9.6944C4.27471 10.3824 3.59234 11.0715 3.12064 11.5886C2.92011 11.8084 2.75821 11.9965 2.63886 12.1394C2.75866 12.2868 2.92203 12.4816 3.12487 12.7097C3.5968 13.2404 4.27937 13.9474 5.12125 14.6533C6.48332 15.7953 8.21728 16.8964 10.1216 17.2876C8.01525 16.6172 6.5 14.5798 6.5 12.1979C6.5 10.9602 6.90916 9.81543 7.5978 8.90721L7.05226 8.33894ZM8.27598 8.16968L7.97174 7.85276C8.61287 7.54949 9.28801 7.30538 9.98711 7.15311C9.35078 7.37589 8.77159 7.7245 8.27598 8.16968ZM8.30043 9.63913C7.79814 10.3531 7.5 11.2363 7.5 12.1979C7.5 14.6048 9.3681 16.5208 11.63 16.5208C12.5476 16.5208 13.4004 16.2055 14.09 15.6699L12.649 14.1689C12.3609 14.314 12.036 14.3958 11.69 14.3958C10.4615 14.3958 9.5 13.3643 9.5 12.1354C9.5 11.7757 9.58237 11.4329 9.72969 11.1279L8.30043 9.63913ZM10.3591 10.3395L8.96934 8.89193C9.6907 8.2561 10.6212 7.87496 11.63 7.87496C13.8919 7.87496 15.76 9.79097 15.76 12.1979C15.76 13.2563 15.3987 14.2198 14.8016 14.9672L13.4171 13.525C13.7082 13.1391 13.88 12.6549 13.88 12.1354C13.88 10.9064 12.9185 9.87497 11.69 9.87497C11.1852 9.87497 10.7255 10.0491 10.3591 10.3395ZM10.5134 11.9443C10.5046 12.0064 10.5 12.0702 10.5 12.1354C10.5 12.8509 11.0518 13.3958 11.69 13.3958C11.7577 13.3958 11.8244 13.3897 11.8896 13.3779L10.5134 11.9443ZM12.7091 12.7875L11.0583 11.0679C11.2434 10.945 11.4612 10.875 11.69 10.875C12.3282 10.875 12.88 11.4198 12.88 12.1354C12.88 12.377 12.8171 12.5992 12.7091 12.7875ZM14.7861 16.3951C14.3748 16.7289 13.9127 16.9992 13.4131 17.1912C13.9581 17.0489 14.4875 16.8511 14.9963 16.614L14.7861 16.3951ZM15.919 16.1312L15.4988 15.6934C16.2856 14.7555 16.76 13.5306 16.76 12.1979C16.76 9.96441 15.4277 8.03378 13.525 7.24917C15.225 7.70771 16.7679 8.68774 18.0032 9.69933C18.845 10.3886 19.5273 11.079 19.9991 11.597C20.1997 11.8174 20.3618 12.006 20.4811 12.1493C20.3614 12.2963 20.1981 12.4907 19.9954 12.7182C19.5235 13.2478 18.841 13.9536 17.9991 14.6582C17.3769 15.1789 16.6772 15.6911 15.919 16.1312Z" fill="black"/>
</svg>
