<svg width="24" height="25" viewBox="0 0 24 25" fill="none" xmlns="http://www.w3.org/2000/svg">
<path fill-rule="evenodd" clip-rule="evenodd" d="M2.63884 11.9201C2.75861 12.0671 2.92187 12.2615 3.12456 12.489C3.59647 13.0187 4.27902 13.7245 5.12089 14.4291C6.46233 15.5518 8.16463 16.6349 10.0353 17.0405C7.97396 16.3426 6.49998 14.3284 6.49998 11.9792C6.49998 9.61824 7.98866 7.59571 10.0661 6.90748C8.18037 7.29922 6.46529 8.3659 5.11676 9.47018C4.27503 10.1595 3.59265 10.8498 3.12092 11.3679C2.92023 11.5883 2.75822 11.7769 2.63884 11.9201ZM17.9991 14.4291C16.7563 15.4692 15.2038 16.4754 13.4946 16.9403C15.4135 16.1638 16.76 14.2245 16.76 11.9792C16.76 9.71624 15.3923 7.7642 13.4495 7.00001C15.1792 7.44957 16.7496 8.44363 18.0032 9.47018C18.8449 10.1595 19.5273 10.8498 19.999 11.3679C20.1997 11.5883 20.3617 11.7769 20.4811 11.9201C20.3614 12.0671 20.1981 12.2615 19.9954 12.489C19.5235 13.0187 18.8409 13.7245 17.9991 14.4291ZM21.12 11.9167C21.5221 12.2138 21.522 12.214 21.5219 12.2141L21.5216 12.2146L21.5206 12.2158L21.5176 12.2199L21.5068 12.2342C21.4976 12.2465 21.4843 12.264 21.4669 12.2866C21.4322 12.3317 21.3814 12.3967 21.3154 12.4789C21.1834 12.643 20.9901 12.8758 20.7421 13.1542C20.2465 13.7105 19.529 14.4526 18.6409 15.1959C16.8791 16.6704 14.3757 18.2083 11.56 18.2083C8.74428 18.2083 6.24084 16.6704 4.47907 15.1959C3.59094 14.4526 2.87349 13.7105 2.37791 13.1542C2.12982 12.8758 1.93657 12.643 1.80455 12.4789C1.73852 12.3967 1.68775 12.3317 1.65305 12.2866C1.6357 12.264 1.62236 12.2465 1.61313 12.2342L1.60238 12.2199L1.59934 12.2158L1.59841 12.2146L1.59809 12.2141C1.59797 12.214 1.59787 12.2138 1.99998 11.9167C1.601 11.6153 1.6011 11.6152 1.60122 11.615L1.60154 11.6146L1.60248 11.6134L1.60554 11.6093L1.61632 11.5953C1.62557 11.5833 1.63893 11.5661 1.6563 11.544C1.69104 11.4998 1.74185 11.4361 1.80792 11.3557C1.94002 11.195 2.13336 10.9672 2.38154 10.6946C2.87731 10.1502 3.59494 9.42387 4.4832 8.69649C6.24592 7.25303 8.74796 5.75 11.56 5.75C14.372 5.75 16.874 7.25303 18.6368 8.69649C19.525 9.42387 20.2426 10.1502 20.7384 10.6946C20.9866 10.9672 21.1799 11.195 21.312 11.3557C21.3781 11.4361 21.4289 11.4998 21.4637 11.544C21.481 11.5661 21.4944 11.5833 21.5036 11.5953L21.5144 11.6093L21.5175 11.6134L21.5184 11.6146L21.5187 11.615C21.5189 11.6152 21.519 11.6153 21.12 11.9167ZM21.12 11.9167L21.519 11.6153L21.7441 11.9134L21.5221 12.2138L21.12 11.9167ZM1.601 11.6153L1.99998 11.9167L1.59787 12.2138L1.37585 11.9134L1.601 11.6153ZM11.63 7.65624C9.36809 7.65624 7.49998 9.57225 7.49998 11.9792C7.49998 14.3861 9.36809 16.3021 11.63 16.3021C13.8919 16.3021 15.76 14.3861 15.76 11.9792C15.76 9.57225 13.8919 7.65624 11.63 7.65624ZM10.5 12.1249C10.5 11.4094 11.0518 10.8645 11.69 10.8645C12.3282 10.8645 12.88 11.4094 12.88 12.1249C12.88 12.8405 12.3282 13.3854 11.69 13.3854C11.0518 13.3854 10.5 12.8405 10.5 12.1249ZM11.69 9.86453C10.4614 9.86453 9.49998 10.896 9.49998 12.1249C9.49998 13.3539 10.4614 14.3854 11.69 14.3854C12.9185 14.3854 13.88 13.3539 13.88 12.1249C13.88 10.896 12.9185 9.86453 11.69 9.86453Z" fill="black"/>
</svg>
