<svg width="32" height="33" viewBox="0 0 32 33" fill="none" xmlns="http://www.w3.org/2000/svg">
<path fill-rule="evenodd" clip-rule="evenodd" d="M9.24265 12.3719V10.5219H11.125V12.3719H9.24265ZM11.6397 9.52188H8.72793C8.45992 9.52188 8.24265 9.73734 8.24265 10.0031V12.8906C8.24265 13.1564 8.45992 13.3719 8.72793 13.3719H11.6397C11.9077 13.3719 12.125 13.1564 12.125 12.8906V10.0031C12.125 9.73734 11.9077 9.52188 11.6397 9.52188ZM13.4267 10.9373C13.1505 10.9366 12.9262 11.16 12.9255 11.4361C12.9249 11.7123 13.1483 11.9366 13.4244 11.9373L23.7562 11.9606C24.0324 11.9612 24.2567 11.7379 24.2574 11.4617C24.258 11.1856 24.0346 10.9612 23.7585 10.9606L13.4267 10.9373ZM9.24265 15.575V17.425H11.125V15.575H9.24265ZM8.72793 14.575H11.6397C11.9077 14.575 12.125 14.7905 12.125 15.0562V17.9437C12.125 18.2095 11.9077 18.425 11.6397 18.425H8.72793C8.45992 18.425 8.24265 18.2095 8.24265 17.9437V15.0562C8.24265 14.7905 8.45992 14.575 8.72793 14.575ZM13.4267 15.9856C13.1505 15.9849 12.9262 16.2083 12.9255 16.4844C12.9249 16.7606 13.1483 16.9849 13.4244 16.9856L23.7562 17.0089C24.0324 17.0095 24.2567 16.7862 24.2574 16.51C24.258 16.2339 24.0346 16.0095 23.7585 16.0089L13.4267 15.9856ZM9.24263 20.6281V22.4781H11.1249V20.6281H9.24263ZM8.72792 19.6281H11.6397C11.9077 19.6281 12.1249 19.8436 12.1249 20.1094V22.9969C12.1249 23.2627 11.9077 23.4781 11.6397 23.4781H8.72792C8.4599 23.4781 8.24263 23.2627 8.24263 22.9969V20.1094C8.24263 19.8436 8.4599 19.6281 8.72792 19.6281ZM13.4267 21.0387C13.1505 21.0381 12.9261 21.2614 12.9255 21.5376C12.9249 21.8137 13.1483 22.0381 13.4244 22.0387L23.7562 22.062C24.0324 22.0627 24.2567 21.8393 24.2573 21.5632C24.258 21.287 24.0346 21.0627 23.7585 21.062L13.4267 21.0387Z" fill="black"/>
</svg>
