<svg width="32" height="33" viewBox="0 0 32 33" fill="none" xmlns="http://www.w3.org/2000/svg">
<path fill-rule="evenodd" clip-rule="evenodd" d="M9.25641 14.7082V10.5383H13.4103V14.7082H9.25641ZM13.8974 9.53833H8.76923C8.48601 9.53833 8.25641 9.76853 8.25641 10.0525V15.194C8.25641 15.478 8.48601 15.7082 8.76923 15.7082H13.8974C14.1807 15.7082 14.4103 15.478 14.4103 15.194V10.0525C14.4103 9.76853 14.1807 9.53833 13.8974 9.53833ZM17.5898 14.7082V10.5383H21.7436V14.7082H17.5898ZM22.2308 9.53833H17.1026C16.8193 9.53833 16.5898 9.76853 16.5898 10.0525V15.194C16.5898 15.478 16.8193 15.7082 17.1026 15.7082H22.2308C22.514 15.7082 22.7436 15.478 22.7436 15.194V10.0525C22.7436 9.76853 22.514 9.53833 22.2308 9.53833ZM17.5898 18.2918V22.4617H21.7436V18.2918H17.5898ZM17.1026 17.2918H22.2308C22.514 17.2918 22.7436 17.522 22.7436 17.806V22.9475C22.7436 23.2315 22.514 23.4617 22.2308 23.4617H17.1026C16.8193 23.4617 16.5898 23.2315 16.5898 22.9475V17.806C16.5898 17.522 16.8193 17.2918 17.1026 17.2918ZM9.25641 22.4617V18.2918H13.4103V22.4617H9.25641ZM13.8974 17.2918H8.76923C8.48601 17.2918 8.25641 17.522 8.25641 17.806V22.9475C8.25641 23.2315 8.48601 23.4617 8.76923 23.4617H13.8974C14.1807 23.4617 14.4103 23.2315 14.4103 22.9475V17.806C14.4103 17.522 14.1807 17.2918 13.8974 17.2918Z" fill="black"/>
</svg>
