<svg width="32" height="33" viewBox="0 0 32 33" fill="none" xmlns="http://www.w3.org/2000/svg">
<path fill-rule="evenodd" clip-rule="evenodd" d="M16.0984 23.7187C16.0984 23.9949 16.3222 24.2187 16.5984 24.2187C16.8745 24.2187 17.0984 23.9949 17.0984 23.7187V10.7426L18.6048 12.6863C18.774 12.9046 19.088 12.9444 19.3063 12.7752C19.5246 12.6061 19.5644 12.292 19.3952 12.0737L16.9943 8.97594C16.9395 8.90474 16.8652 8.8481 16.7775 8.81442C16.7654 8.80979 16.7532 8.80565 16.741 8.802C16.6797 8.78374 16.6165 8.77771 16.5548 8.78313C16.5177 8.78639 16.4812 8.79376 16.4458 8.80508C16.3633 8.83151 16.2873 8.87946 16.2267 8.94678L13.6283 11.8343C13.4436 12.0396 13.4603 12.3557 13.6655 12.5404C13.8708 12.7251 14.187 12.7085 14.3717 12.5032L16.0984 10.5844V23.7187ZM4.5 20.625C4.5 20.3488 4.27614 20.125 4 20.125C3.72386 20.125 3.5 20.3488 3.5 20.625V28.875C3.5 29.1511 3.72386 29.375 4 29.375H28C28.2761 29.375 28.5 29.1511 28.5 28.875V20.625C28.5 20.3488 28.2761 20.125 28 20.125C27.7239 20.125 27.5 20.3488 27.5 20.625V28.375H4.5V20.625Z" fill="black"/>
</svg>
