<svg width="48" height="48" viewBox="0 0 48 48" fill="none" xmlns="http://www.w3.org/2000/svg">
<path d="M34.2 9.70001C34.8 9.70001 35.2 10.1 35.2 10.7V41C35.2 41.6 34.8 42 34.2 42H11.2C10.6 42 10.2 41.6 10.2 41V10.7C10.2 10.1 10.6 9.70001 11.2 9.70001H34.2ZM34.2 8.70001H11.2C10.1 8.70001 9.20001 9.60001 9.20001 10.7V41C9.20001 42.1 10.1 43 11.2 43H34.2C35.3 43 36.2 42.1 36.2 41V10.7C36.2 9.60001 35.3 8.70001 34.2 8.70001Z" fill="#523970"/>
<path d="M9.20005 41V40.1C8.70005 40 8.30005 39.6 8.30005 39.1V8.90002C8.30005 8.30002 8.70005 7.90002 9.30005 7.90002H32.3C32.8 7.90002 33.2 8.30002 33.3 8.80002H34.2001H34.3C34.2 7.80002 33.4 6.90002 32.3 6.90002H9.30005C8.20005 6.90002 7.30005 7.80002 7.30005 8.90002V39.2C7.30005 40.3 8.10005 41.1 9.20005 41.2C9.20005 41.1 9.20005 41 9.20005 41Z" fill="#523970"/>
<path d="M7.30002 39.1V38.2C6.80002 38.1 6.40002 37.7 6.40002 37.2V7C6.40002 6.4 6.80002 6 7.40002 6H30.4C30.9 6 31.3 6.4 31.4 6.9H32.3H32.4C32.3 5.9 31.5 5 30.4 5H7.40002C6.30002 5 5.40002 5.9 5.40002 7V37.3C5.40002 38.4 6.20002 39.2 7.30002 39.3C7.30002 39.2 7.30002 39.2 7.30002 39.1Z" fill="#523970"/>
<path d="M9.7 27.3L5.5 23.3V16.3L9.7 20.4H36.2V27.3H9.7Z" fill="#DCA3FF" stroke="#523970" stroke-miterlimit="10" stroke-linecap="round" stroke-linejoin="round"/>
<path d="M34.4 45.6C38.8183 45.6 42.4 42.0183 42.4 37.6C42.4 33.1817 38.8183 29.6 34.4 29.6C29.9817 29.6 26.4 33.1817 26.4 37.6C26.4 42.0183 29.9817 45.6 34.4 45.6Z" fill="#DCA3FF" stroke="#523970" stroke-miterlimit="10" stroke-linecap="round" stroke-linejoin="round"/>
<path d="M30.2 37.6H38.6" stroke="#523970" stroke-miterlimit="10" stroke-linecap="round" stroke-linejoin="round"/>
<path d="M34.4 41.9V33.4" stroke="#523970" stroke-miterlimit="10" stroke-linecap="round" stroke-linejoin="round"/>
</svg>
