<svg width="48" height="48" viewBox="0 0 48 48" fill="none" xmlns="http://www.w3.org/2000/svg">
<path d="M33.3902 6C33.6554 6 33.9098 6.10536 34.0973 6.29289C34.2848 6.48043 34.3902 6.73478 34.3902 7V41C34.3902 41.2652 34.2848 41.5196 34.0973 41.7071C33.9098 41.8946 33.6554 42 33.3902 42H7.4502C7.18498 42 6.93063 41.8946 6.74309 41.7071C6.55555 41.5196 6.4502 41.2652 6.4502 41V7C6.4502 6.73478 6.55555 6.48043 6.74309 6.29289C6.93063 6.10536 7.18498 6 7.4502 6H33.3902ZM33.3902 5H7.4502C6.91976 5 6.41105 5.21071 6.03598 5.58579C5.66091 5.96086 5.4502 6.46957 5.4502 7V41C5.4502 41.5304 5.66091 42.0391 6.03598 42.4142C6.41105 42.7893 6.91976 43 7.4502 43H33.3902C33.9206 43 34.4293 42.7893 34.8044 42.4142C35.1795 42.0391 35.3902 41.5304 35.3902 41V7C35.3902 6.46957 35.1795 5.96086 34.8044 5.58579C34.4293 5.21071 33.9206 5 33.3902 5V5Z" fill="#523970"/>
<path d="M9.25977 19.1H31.2598" stroke="#523970" stroke-miterlimit="10" stroke-linecap="round"/>
<path d="M9.25977 23.4301H31.2598" stroke="#523970" stroke-miterlimit="10" stroke-linecap="round"/>
<path d="M9.25977 27.76H31.2598" stroke="#523970" stroke-miterlimit="10" stroke-linecap="round"/>
<path d="M9.25977 14.77H31.2598" stroke="#523970" stroke-miterlimit="10" stroke-linecap="round"/>
<path d="M34.3901 45.65C38.8084 45.65 42.3901 42.0683 42.3901 37.65C42.3901 33.2317 38.8084 29.65 34.3901 29.65C29.9719 29.65 26.3901 33.2317 26.3901 37.65C26.3901 42.0683 29.9719 45.65 34.3901 45.65Z" fill="#DCA3FF" stroke="#523970" stroke-linecap="round" stroke-linejoin="round"/>
<path d="M30.1602 37.65H38.6202" stroke="#523970" stroke-linecap="round" stroke-linejoin="round"/>
<path d="M34.3901 41.88V33.42" stroke="#523970" stroke-linecap="round" stroke-linejoin="round"/>
<path d="M22.2598 12H14.8398V14.77H22.2598V12Z" stroke="#523970" stroke-miterlimit="10" stroke-linecap="round"/>
<path d="M28.67 20.6H21.25V23.37H28.67V20.6Z" stroke="#523970" stroke-miterlimit="10" stroke-linecap="round"/>
<path d="M18.5601 24.99H11.1401V27.76H18.5601V24.99Z" stroke="#523970" stroke-miterlimit="10" stroke-linecap="round"/>
<path d="M16.9298 30.7H9.50977V33.47H16.9298V30.7Z" stroke="#523970" stroke-miterlimit="10" stroke-linecap="round"/>
</svg>
