<svg width="48" height="48" viewBox="0 0 48 48" fill="none" xmlns="http://www.w3.org/2000/svg">
<path d="M33.3902 6C33.6554 6 33.9098 6.10536 34.0973 6.29289C34.2848 6.48043 34.3902 6.73478 34.3902 7V41C34.3902 41.2652 34.2848 41.5196 34.0973 41.7071C33.9098 41.8946 33.6554 42 33.3902 42H7.4502C7.18498 42 6.93063 41.8946 6.74309 41.7071C6.55555 41.5196 6.4502 41.2652 6.4502 41V7C6.4502 6.73478 6.55555 6.48043 6.74309 6.29289C6.93063 6.10536 7.18498 6 7.4502 6H33.3902ZM33.3902 5H7.4502C6.91976 5 6.41105 5.21071 6.03598 5.58579C5.66091 5.96086 5.4502 6.46957 5.4502 7V41C5.4502 41.5304 5.66091 42.0391 6.03598 42.4142C6.41105 42.7893 6.91976 43 7.4502 43H33.3902C33.9206 43 34.4293 42.7893 34.8044 42.4142C35.1795 42.0391 35.3902 41.5304 35.3902 41V7C35.3902 6.46957 35.1795 5.96086 34.8044 5.58579C34.4293 5.21071 33.9206 5 33.3902 5V5Z" fill="#523970"/>
<path d="M34.3901 45.65C38.8084 45.65 42.3901 42.0683 42.3901 37.65C42.3901 33.2317 38.8084 29.65 34.3901 29.65C29.9719 29.65 26.3901 33.2317 26.3901 37.65C26.3901 42.0683 29.9719 45.65 34.3901 45.65Z" fill="#DCA3FF" stroke="#523970" stroke-linecap="round" stroke-linejoin="round"/>
<path d="M30.1602 37.65H38.6202" stroke="#523970" stroke-linecap="round" stroke-linejoin="round"/>
<path d="M34.3901 41.88V33.42" stroke="#523970" stroke-linecap="round" stroke-linejoin="round"/>
<path d="M11.8398 23.4301H30.3398" stroke="#523970" stroke-miterlimit="10" stroke-linecap="round"/>
<path d="M11.8398 27.76H30.3398" stroke="#523970" stroke-miterlimit="10" stroke-linecap="round"/>
<path d="M11.8398 32.09H21.0898" stroke="#523970" stroke-miterlimit="10" stroke-linecap="round"/>
<path d="M14.1202 20.65C15.8709 20.65 17.2902 19.6023 17.2902 18.31C17.2902 17.0176 15.8709 15.97 14.1202 15.97C12.3695 15.97 10.9502 17.0176 10.9502 18.31C10.9502 19.6023 12.3695 20.65 14.1202 20.65Z" stroke="#523970" stroke-miterlimit="10" stroke-linecap="round"/>
<path d="M25.2799 20.65C27.0306 20.65 28.4499 19.6023 28.4499 18.31C28.4499 17.0176 27.0306 15.97 25.2799 15.97C23.5291 15.97 22.1099 17.0176 22.1099 18.31C22.1099 19.6023 23.5291 20.65 25.2799 20.65Z" stroke="#523970" stroke-miterlimit="10" stroke-linecap="round"/>
<path d="M17.2798 18.31V9H28.4498V18.41" stroke="#523970" stroke-miterlimit="10" stroke-linecap="round"/>
</svg>
