<svg width="48" height="48" viewBox="0 0 48 48" fill="none" xmlns="http://www.w3.org/2000/svg">
<path d="M33.3902 6C33.9402 6 34.3902 6.45 34.3902 7V41C34.3902 41.55 33.9402 42 33.3902 42H7.4502C6.9002 42 6.4502 41.55 6.4502 41V7C6.4502 6.45 6.9002 6 7.4502 6H33.3902ZM33.3902 5H7.4502C6.3502 5 5.4502 5.9 5.4502 7V41C5.4502 42.1 6.3502 43 7.4502 43H33.3902C34.4902 43 35.3902 42.1 35.3902 41V7C35.3902 5.9 34.4902 5 33.3902 5Z" fill="#523970"/>
<path d="M34.3901 45.65C38.8084 45.65 42.3901 42.0683 42.3901 37.65C42.3901 33.2317 38.8084 29.65 34.3901 29.65C29.9719 29.65 26.3901 33.2317 26.3901 37.65C26.3901 42.0683 29.9719 45.65 34.3901 45.65Z" fill="#DCA3FF" stroke="#523970" stroke-miterlimit="10" stroke-linecap="round" stroke-linejoin="round"/>
<path d="M30.1602 37.65H38.6202" stroke="#523970" stroke-miterlimit="10" stroke-linecap="round" stroke-linejoin="round"/>
<path d="M34.3901 41.88V33.42" stroke="#523970" stroke-miterlimit="10" stroke-linecap="round" stroke-linejoin="round"/>
<path d="M21.1798 35.13L16.2698 32.29C15.5998 31.9 14.7598 32.39 14.7598 33.16V38.83C14.7598 39.61 15.5998 40.09 16.2698 39.7L21.1798 36.86C21.8498 36.48 21.8498 35.52 21.1798 35.13Z" stroke="#523970" stroke-miterlimit="10"/>
<path d="M13.55 15.4499C12.94 15.4499 12.48 15.2899 12.18 14.9799C11.88 14.6699 11.73 14.2099 11.73 13.6199V11.2599H11.13C10.85 11.2599 10.71 11.1299 10.71 10.8699C10.71 10.6099 10.85 10.4799 11.13 10.4799H11.73V9.44994C11.73 9.10994 11.9 8.93994 12.24 8.93994C12.57 8.93994 12.74 9.10994 12.74 9.44994V10.4799H13.91C14.19 10.4799 14.33 10.6099 14.33 10.8699C14.33 11.1299 14.19 11.2599 13.91 11.2599H12.74V13.5399C12.74 13.8899 12.81 14.1599 12.96 14.3399C13.11 14.5199 13.35 14.6099 13.7 14.6099C13.82 14.6099 13.92 14.5999 14.01 14.5699C14.1 14.5399 14.17 14.5299 14.24 14.5299C14.31 14.5299 14.37 14.5599 14.42 14.6099C14.47 14.6599 14.49 14.7499 14.49 14.8999C14.49 15.0099 14.47 15.0999 14.43 15.1899C14.39 15.2699 14.33 15.3299 14.24 15.3599C14.16 15.3899 14.05 15.4199 13.91 15.4399C13.77 15.4399 13.65 15.4499 13.55 15.4499Z" fill="#523970"/>
<path d="M17.4399 10.47H28.7299" stroke="#523970" stroke-miterlimit="10" stroke-linecap="round"/>
<path d="M17.4399 12.8999H26.2399" stroke="#523970" stroke-miterlimit="10" stroke-linecap="round"/>
<path d="M14.3501 27.97L17.2701 24.33L19.6901 26.7L22.8201 20.76L25.3801 27.97" stroke="#523970" stroke-miterlimit="10" stroke-linecap="round"/>
<path d="M18.2201 20.28C18.2201 21.27 17.4201 22.07 16.4301 22.07C15.4401 22.07 14.6401 21.27 14.6401 20.28C14.6401 19.29 15.4401 18.49 16.4301 18.49C17.4201 18.49 18.2201 19.29 18.2201 20.28Z" stroke="#523970" stroke-miterlimit="10"/>
</svg>
