<svg width="48" height="48" viewBox="0 0 48 48" fill="none" xmlns="http://www.w3.org/2000/svg">
<path d="M26.05 5H8V43H35.64V14.59L26.05 5Z" stroke="#523970" stroke-miterlimit="10" stroke-linecap="round" stroke-linejoin="round"/>
<path d="M11.8398 14.77H30.3398" stroke="#523970" stroke-miterlimit="10" stroke-linecap="round"/>
<path d="M11.8398 19.1H30.3398" stroke="#523970" stroke-miterlimit="10" stroke-linecap="round"/>
<path d="M11.8398 23.4301H30.3398" stroke="#523970" stroke-miterlimit="10" stroke-linecap="round"/>
<path d="M11.8398 27.76H30.3398" stroke="#523970" stroke-miterlimit="10" stroke-linecap="round"/>
<path d="M11.8398 32.09H21.0898" stroke="#523970" stroke-miterlimit="10" stroke-linecap="round"/>
<path d="M34.3901 45.65C38.8084 45.65 42.3901 42.0683 42.3901 37.65C42.3901 33.2317 38.8084 29.65 34.3901 29.65C29.9719 29.65 26.3901 33.2317 26.3901 37.65C26.3901 42.0683 29.9719 45.65 34.3901 45.65Z" fill="#DCA3FF" stroke="#523970" stroke-miterlimit="10" stroke-linecap="round" stroke-linejoin="round"/>
<path d="M30.1602 37.65H38.6202" stroke="#523970" stroke-miterlimit="10" stroke-linecap="round" stroke-linejoin="round"/>
<path d="M34.3901 41.88V33.42" stroke="#523970" stroke-miterlimit="10" stroke-linecap="round" stroke-linejoin="round"/>
<path d="M35.6402 11.17L29.4702 5H35.6402V11.17Z" stroke="#523970" stroke-miterlimit="10" stroke-linecap="round" stroke-linejoin="round"/>
</svg>
