<svg width="48" height="48" viewBox="0 0 48 48" fill="none" xmlns="http://www.w3.org/2000/svg">
<path d="M33.3902 6C33.9402 6 34.3902 6.45 34.3902 7V41C34.3902 41.55 33.9402 42 33.3902 42H7.4502C6.9002 42 6.4502 41.55 6.4502 41V7C6.4502 6.45 6.9002 6 7.4502 6H33.3902ZM33.3902 5H7.4502C6.3502 5 5.4502 5.9 5.4502 7V41C5.4502 42.1 6.3502 43 7.4502 43H33.3902C34.4902 43 35.3902 42.1 35.3902 41V7C35.3902 5.9 34.4902 5 33.3902 5Z" fill="#523970"/>
<path d="M16.4598 9.37H9.33984V16.49H16.4598V9.37Z" stroke="#523970" stroke-miterlimit="10" stroke-linecap="round" stroke-linejoin="round"/>
<path d="M20.5801 11.47H31.8201" stroke="#523970" stroke-miterlimit="10" stroke-linecap="round" stroke-linejoin="round"/>
<path d="M20.5801 13.9H29.3701" stroke="#523970" stroke-miterlimit="10" stroke-linecap="round" stroke-linejoin="round"/>
<path d="M16.4598 20.4399H9.33984V27.5599H16.4598V20.4399Z" stroke="#523970" stroke-miterlimit="10" stroke-linecap="round" stroke-linejoin="round"/>
<path d="M20.5801 22.55H31.8201" stroke="#523970" stroke-miterlimit="10" stroke-linecap="round" stroke-linejoin="round"/>
<path d="M20.5801 24.98H29.3701" stroke="#523970" stroke-miterlimit="10" stroke-linecap="round" stroke-linejoin="round"/>
<path d="M16.4598 31.52H9.33984V38.64H16.4598V31.52Z" stroke="#523970" stroke-miterlimit="10" stroke-linecap="round" stroke-linejoin="round"/>
<path d="M11.1499 13.24L12.4999 14.65L14.9699 10.86" stroke="#523970" stroke-miterlimit="10" stroke-linecap="round" stroke-linejoin="round"/>
<path d="M11.1499 24.49L12.4999 25.9L14.9699 22.1" stroke="#523970" stroke-miterlimit="10" stroke-linecap="round" stroke-linejoin="round"/>
<path d="M20.5801 33.58H24.8501" stroke="#523970" stroke-miterlimit="10" stroke-linecap="round"/>
<path d="M20.5801 36H23.3601" stroke="#523970" stroke-miterlimit="10" stroke-linecap="round"/>
<path d="M34.3901 45.65C38.8084 45.65 42.3901 42.0683 42.3901 37.65C42.3901 33.2317 38.8084 29.65 34.3901 29.65C29.9719 29.65 26.3901 33.2317 26.3901 37.65C26.3901 42.0683 29.9719 45.65 34.3901 45.65Z" fill="#DCA3FF" stroke="#523970" stroke-miterlimit="10" stroke-linecap="round" stroke-linejoin="round"/>
<path d="M30.1602 37.65H38.6202" stroke="#523970" stroke-miterlimit="10" stroke-linecap="round" stroke-linejoin="round"/>
<path d="M34.3901 41.88V33.42" stroke="#523970" stroke-miterlimit="10" stroke-linecap="round" stroke-linejoin="round"/>
</svg>
