<svg width="48" height="48" viewBox="0 0 48 48" fill="none" xmlns="http://www.w3.org/2000/svg">
<path d="M33.3902 6C33.9402 6 34.3902 6.45 34.3902 7V41C34.3902 41.55 33.9402 42 33.3902 42H7.4502C6.9002 42 6.4502 41.55 6.4502 41V7C6.4502 6.45 6.9002 6 7.4502 6H33.3902ZM33.3902 5H7.4502C6.3502 5 5.4502 5.9 5.4502 7V41C5.4502 42.1 6.3502 43 7.4502 43H33.3902C34.4902 43 35.3902 42.1 35.3902 41V7C35.3902 5.9 34.4902 5 33.3902 5Z" fill="#523970"/>
<path d="M13.6598 17.78C12.8598 17.78 12.2598 17.57 11.8498 17.14C11.4398 16.71 11.2498 16.1 11.2498 15.3V11.73H10.3098C9.97982 11.73 9.81982 11.58 9.81982 11.28C9.81982 10.99 9.97982 10.85 10.3098 10.85H11.2498V9.24004C11.2498 8.86004 11.4398 8.67004 11.8198 8.67004C12.1898 8.67004 12.3798 8.86004 12.3798 9.24004V10.85H14.1398C14.4698 10.85 14.6298 10.99 14.6298 11.28C14.6298 11.58 14.4698 11.73 14.1398 11.73H12.3798V15.19C12.3798 15.72 12.4898 16.13 12.7198 16.4C12.9398 16.68 13.3098 16.81 13.8098 16.81C13.9898 16.81 14.1398 16.79 14.2598 16.75C14.3798 16.71 14.4898 16.69 14.5798 16.69C14.6598 16.68 14.7298 16.71 14.7898 16.77C14.8498 16.84 14.8698 16.95 14.8698 17.11C14.8698 17.22 14.8498 17.32 14.8098 17.42C14.7698 17.51 14.6998 17.58 14.5898 17.62C14.4798 17.66 14.3298 17.69 14.1498 17.73C13.9798 17.76 13.8098 17.78 13.6598 17.78Z" fill="#523970"/>
<path d="M18.4897 13.66H30.3597" stroke="#523970" stroke-miterlimit="10" stroke-linecap="round"/>
<path d="M9.86963 18.99H30.3596" stroke="#523970" stroke-miterlimit="10" stroke-linecap="round"/>
<path d="M9.86963 24.3201H30.3596" stroke="#523970" stroke-miterlimit="10" stroke-linecap="round"/>
<path d="M9.86963 29.65H27.3596" stroke="#523970" stroke-miterlimit="10" stroke-linecap="round"/>
<path d="M9.86963 34.9801H23.0896" stroke="#523970" stroke-miterlimit="10" stroke-linecap="round"/>
<path d="M34.3901 45.65C38.8084 45.65 42.3901 42.0683 42.3901 37.65C42.3901 33.2317 38.8084 29.65 34.3901 29.65C29.9719 29.65 26.3901 33.2317 26.3901 37.65C26.3901 42.0683 29.9719 45.65 34.3901 45.65Z" fill="#DCA3FF" stroke="#523970" stroke-miterlimit="10" stroke-linecap="round" stroke-linejoin="round"/>
<path d="M30.1602 37.65H38.6202" stroke="#523970" stroke-miterlimit="10" stroke-linecap="round" stroke-linejoin="round"/>
<path d="M34.3901 41.88V33.42" stroke="#523970" stroke-miterlimit="10" stroke-linecap="round" stroke-linejoin="round"/>
</svg>
