<svg width="48" height="48" viewBox="0 0 48 48" fill="none" xmlns="http://www.w3.org/2000/svg">
<path d="M33.3902 6C33.9402 6 34.3902 6.45 34.3902 7V41C34.3902 41.55 33.9402 42 33.3902 42H7.4502C6.9002 42 6.4502 41.55 6.4502 41V7C6.4502 6.45 6.9002 6 7.4502 6H33.3902ZM33.3902 5H7.4502C6.3502 5 5.4502 5.9 5.4502 7V41C5.4502 42.1 6.3502 43 7.4502 43H33.3902C34.4902 43 35.3902 42.1 35.3902 41V7C35.3902 5.9 34.4902 5 33.3902 5Z" fill="#523970"/>
<path d="M16.0302 9.37H8.91016V16.49H16.0302V9.37Z" stroke="#523970" stroke-miterlimit="10" stroke-linejoin="round"/>
<path d="M20.1499 11.47H31.4299" stroke="#523970" stroke-miterlimit="10" stroke-linecap="round"/>
<path d="M20.1499 13.9H28.9399" stroke="#523970" stroke-miterlimit="10" stroke-linecap="round"/>
<path d="M16.0302 20.4399H8.91016V27.5599H16.0302V20.4399Z" stroke="#523970" stroke-miterlimit="10" stroke-linejoin="round"/>
<path d="M20.1499 22.55H31.4299" stroke="#523970" stroke-miterlimit="10" stroke-linecap="round"/>
<path d="M20.1499 24.98H28.9399" stroke="#523970" stroke-miterlimit="10" stroke-linecap="round"/>
<path d="M16.0302 31.52H8.91016V38.64H16.0302V31.52Z" stroke="#523970" stroke-miterlimit="10" stroke-linejoin="round"/>
<path d="M9.43018 21.8101L15.3702 22.1101L10.4602 23.8601L15.0902 24.8601L10.0202 26.0801L15.5902 26.3701" stroke="#523970" stroke-miterlimit="10" stroke-linejoin="round"/>
<path d="M20.4199 33.58H24.8499" stroke="#523970" stroke-miterlimit="10" stroke-linecap="round"/>
<path d="M20.4199 36H23.3599" stroke="#523970" stroke-miterlimit="10" stroke-linecap="round"/>
<path d="M34.3901 45.65C38.8084 45.65 42.3901 42.0683 42.3901 37.65C42.3901 33.2317 38.8084 29.65 34.3901 29.65C29.9719 29.65 26.3901 33.2317 26.3901 37.65C26.3901 42.0683 29.9719 45.65 34.3901 45.65Z" fill="#DCA3FF" stroke="#523970" stroke-miterlimit="10" stroke-linecap="round" stroke-linejoin="round"/>
<path d="M30.1602 37.65H38.6202" stroke="#523970" stroke-miterlimit="10" stroke-linecap="round" stroke-linejoin="round"/>
<path d="M34.3901 41.88V33.42" stroke="#523970" stroke-miterlimit="10" stroke-linecap="round" stroke-linejoin="round"/>
</svg>
