<svg width="48" height="48" viewBox="0 0 48 48" fill="none" xmlns="http://www.w3.org/2000/svg">
<path d="M33.3902 6C33.9402 6 34.3902 6.45 34.3902 7V41C34.3902 41.55 33.9402 42 33.3902 42H7.4502C6.9002 42 6.4502 41.55 6.4502 41V7C6.4502 6.45 6.9002 6 7.4502 6H33.3902ZM33.3902 5H7.4502C6.3502 5 5.4502 5.9 5.4502 7V41C5.4502 42.1 6.3502 43 7.4502 43H33.3902C34.4902 43 35.3902 42.1 35.3902 41V7C35.3902 5.9 34.4902 5 33.3902 5Z" fill="#523970"/>
<path d="M14.4698 22.02C13.5498 22.02 12.8598 21.78 12.4098 21.29C11.9598 20.8 11.7198 20.1 11.7198 19.19V15.11H10.6498C10.2798 15.11 10.0898 14.94 10.0898 14.6C10.0898 14.27 10.2798 14.1 10.6498 14.1H11.7198V12.26C11.7198 11.82 11.9398 11.6 12.3798 11.6C12.8098 11.6 13.0198 11.82 13.0198 12.26V14.1H15.0398C15.4098 14.1 15.5998 14.27 15.5998 14.6C15.5998 14.94 15.4098 15.11 15.0398 15.11H13.0198V19.06C13.0198 19.67 13.1498 20.13 13.3998 20.44C13.6598 20.75 14.0698 20.91 14.6498 20.91C14.8498 20.91 15.0198 20.89 15.1598 20.85C15.2998 20.81 15.4198 20.79 15.5298 20.79C15.6298 20.78 15.7098 20.81 15.7698 20.89C15.8298 20.97 15.8698 21.09 15.8698 21.27C15.8698 21.4 15.8498 21.52 15.7998 21.62C15.7498 21.73 15.6698 21.8 15.5498 21.84C15.4198 21.88 15.2498 21.92 15.0498 21.96C14.8498 22 14.6398 22.02 14.4698 22.02Z" fill="#523970"/>
<path d="M9.25977 25.3199H31.2598" stroke="#523970" stroke-miterlimit="10" stroke-linecap="round"/>
<path d="M34.3901 45.65C38.8084 45.65 42.3901 42.0683 42.3901 37.65C42.3901 33.2317 38.8084 29.65 34.3901 29.65C29.9719 29.65 26.3901 33.2317 26.3901 37.65C26.3901 42.0683 29.9719 45.65 34.3901 45.65Z" fill="#DCA3FF" stroke="#523970" stroke-miterlimit="10" stroke-linecap="round" stroke-linejoin="round"/>
<path d="M30.1602 37.65H38.6202" stroke="#523970" stroke-miterlimit="10" stroke-linecap="round" stroke-linejoin="round"/>
<path d="M34.3901 41.88V33.42" stroke="#523970" stroke-miterlimit="10" stroke-linecap="round" stroke-linejoin="round"/>
</svg>
