<svg width="48" height="48" viewBox="0 0 48 48" fill="none" xmlns="http://www.w3.org/2000/svg">
<path d="M33.3902 6C33.9402 6 34.3902 6.45 34.3902 7V41C34.3902 41.55 33.9402 42 33.3902 42H7.4502C6.9002 42 6.4502 41.55 6.4502 41V7C6.4502 6.45 6.9002 6 7.4502 6H33.3902ZM33.3902 5H7.4502C6.3502 5 5.4502 5.9 5.4502 7V41C5.4502 42.1 6.3502 43 7.4502 43H33.3902C34.4902 43 35.3902 42.1 35.3902 41V7C35.3902 5.9 34.4902 5 33.3902 5Z" fill="#523970"/>
<path d="M15.77 10.75V13.91L18.2 21.64L20.7 13.91V10.75H15.77Z" stroke="#523970" stroke-miterlimit="10" stroke-linecap="round" stroke-linejoin="round"/>
<path d="M8.56982 23.37H31.3898" stroke="#523970" stroke-miterlimit="10" stroke-linecap="round" stroke-linejoin="round"/>
<path d="M10.58 31.8C9.91002 31.8 9.40002 31.55 9.05002 31.04C8.70002 30.54 8.52002 29.82 8.52002 28.88C8.52002 27.94 8.70002 27.22 9.05002 26.73C9.41002 26.25 9.92002 26 10.58 26C11.25 26 11.76 26.25 12.11 26.74C12.46 27.23 12.63 27.95 12.63 28.88C12.63 29.81 12.45 30.54 12.1 31.04C11.76 31.55 11.25 31.8 10.58 31.8ZM10.58 30.96C10.94 30.96 11.21 30.79 11.38 30.46C11.55 30.12 11.64 29.6 11.64 28.88C11.64 28.16 11.55 27.65 11.38 27.32C11.21 27 10.94 26.84 10.58 26.84C10.22 26.84 9.96002 27 9.78002 27.32C9.60002 27.64 9.52002 28.16 9.52002 28.88C9.52002 29.6 9.61002 30.12 9.78002 30.46C9.96002 30.79 10.23 30.96 10.58 30.96Z" fill="#523970"/>
<path d="M26.0498 31.71C25.8598 31.71 25.7298 31.65 25.6498 31.52C25.5698 31.39 25.5798 31.24 25.6698 31.06L27.8998 26.87H25.4998C25.1998 26.87 25.0498 26.73 25.0498 26.45C25.0498 26.16 25.1998 26.02 25.4998 26.02H28.5998C28.7398 26.02 28.8598 26.06 28.9498 26.13C29.0398 26.21 29.0898 26.31 29.0898 26.45C29.0898 26.57 29.0698 26.67 29.0398 26.76C29.0098 26.85 28.9698 26.94 28.9098 27.04L26.6398 31.38C26.5198 31.6 26.3198 31.71 26.0498 31.71Z" fill="#523970"/>
<path d="M34.3901 45.65C38.8084 45.65 42.3901 42.0683 42.3901 37.65C42.3901 33.2317 38.8084 29.65 34.3901 29.65C29.9719 29.65 26.3901 33.2317 26.3901 37.65C26.3901 42.0683 29.9719 45.65 34.3901 45.65Z" fill="#DCA3FF" stroke="#523970" stroke-miterlimit="10" stroke-linecap="round" stroke-linejoin="round"/>
<path d="M30.1602 37.65H38.6202" stroke="#523970" stroke-miterlimit="10" stroke-linecap="round" stroke-linejoin="round"/>
<path d="M34.3901 41.88V33.42" stroke="#523970" stroke-miterlimit="10" stroke-linecap="round" stroke-linejoin="round"/>
</svg>
