<svg width="48" height="48" viewBox="0 0 48 48" fill="none" xmlns="http://www.w3.org/2000/svg">
<path d="M33.3902 6C33.9402 6 34.3902 6.45 34.3902 7V41C34.3902 41.55 33.9402 42 33.3902 42H7.4502C6.9002 42 6.4502 41.55 6.4502 41V7C6.4502 6.45 6.9002 6 7.4502 6H33.3902ZM33.3902 5H7.4502C6.3502 5 5.4502 5.9 5.4502 7V41C5.4502 42.1 6.3502 43 7.4502 43H33.3902C34.4902 43 35.3902 42.1 35.3902 41V7C35.3902 5.9 34.4902 5 33.3902 5Z" fill="#523970"/>
<path d="M17.4902 11.4199H31.7302" stroke="#523970" stroke-miterlimit="10" stroke-linecap="round"/>
<path d="M17.4902 13.85H27.2802" stroke="#523970" stroke-miterlimit="10" stroke-linecap="round"/>
<path d="M17.4902 22.5H31.7302" stroke="#523970" stroke-miterlimit="10" stroke-linecap="round"/>
<path d="M17.4902 24.9299H27.2802" stroke="#523970" stroke-miterlimit="10" stroke-linecap="round"/>
<path d="M11.8301 16.26C11.5101 16.26 11.1701 16.22 10.8201 16.13C10.4701 16.05 10.1701 15.92 9.91007 15.75C9.76007 15.65 9.67007 15.53 9.64007 15.4C9.61007 15.27 9.63007 15.15 9.68007 15.05C9.74007 14.94 9.83007 14.87 9.95007 14.84C10.0701 14.81 10.2101 14.83 10.3701 14.91C10.6201 15.04 10.8501 15.14 11.0801 15.19C11.3101 15.25 11.5401 15.28 11.7801 15.28C12.5901 15.28 12.9901 14.96 12.9901 14.33C12.9901 14.03 12.8901 13.81 12.6901 13.66C12.4901 13.51 12.2001 13.44 11.8101 13.44H11.2301C11.0601 13.44 10.9301 13.4 10.8501 13.31C10.7701 13.22 10.7201 13.11 10.7201 12.96C10.7201 12.81 10.7601 12.69 10.8501 12.61C10.9401 12.53 11.0601 12.48 11.2301 12.48H11.7001C12.0401 12.48 12.3001 12.4 12.5001 12.23C12.7001 12.06 12.8001 11.84 12.8001 11.54C12.8001 11.26 12.7101 11.05 12.5201 10.91C12.3401 10.77 12.0701 10.69 11.7201 10.69C11.5001 10.69 11.2901 10.72 11.0901 10.77C10.9001 10.82 10.6801 10.92 10.4501 11.05C10.3101 11.13 10.1901 11.16 10.0701 11.12C9.96007 11.08 9.87007 11.01 9.80007 10.9C9.74007 10.8 9.72007 10.68 9.74007 10.55C9.76007 10.42 9.85007 10.32 9.99007 10.23C10.5201 9.88997 11.1201 9.71997 11.8101 9.71997C12.4701 9.71997 12.9801 9.86997 13.3501 10.17C13.7201 10.47 13.9001 10.88 13.9001 11.41C13.9001 11.75 13.8101 12.05 13.6401 12.31C13.4701 12.57 13.2301 12.75 12.9301 12.87C13.3001 12.97 13.5801 13.16 13.7901 13.43C13.9901 13.7 14.1001 14.03 14.1001 14.42C14.1001 14.98 13.9001 15.43 13.4901 15.76C13.0801 16.09 12.5401 16.26 11.8301 16.26Z" fill="#523970"/>
<path d="M10.6602 27.6399C10.3302 27.6399 10.1602 27.48 10.1602 27.15C10.1602 26.84 10.3302 26.68 10.6602 26.68H11.6702V22.6L10.9102 23.0599C10.7702 23.1399 10.6302 23.17 10.5202 23.12C10.4002 23.08 10.3102 22.9999 10.2502 22.8899C10.1902 22.7799 10.1702 22.66 10.2002 22.53C10.2202 22.4 10.3102 22.2899 10.4502 22.2099L11.6902 21.4599C11.8102 21.3899 11.9302 21.33 12.0502 21.28C12.1702 21.23 12.2802 21.2 12.3802 21.2C12.5102 21.2 12.6102 21.2299 12.7002 21.2999C12.7802 21.3699 12.8302 21.4799 12.8302 21.6399V26.66H13.7502C14.0802 26.66 14.2402 26.8199 14.2402 27.1299C14.2402 27.4499 14.0702 27.62 13.7502 27.62H10.6602V27.6399Z" fill="#523970"/>
<path d="M10.4499 38.5299C10.2599 38.5299 10.1199 38.4899 10.0299 38.3999C9.93994 38.3099 9.89994 38.1899 9.89994 38.0199C9.89994 37.9199 9.92994 37.8199 9.97994 37.7199C10.0299 37.6199 10.1099 37.5199 10.2099 37.4099L12.0199 35.4799C12.2999 35.1899 12.4899 34.9299 12.6099 34.6899C12.7299 34.4499 12.7899 34.2099 12.7899 33.9699C12.7899 33.3599 12.4199 33.0499 11.6799 33.0499C11.4799 33.0499 11.2699 33.0799 11.0699 33.1299C10.8699 33.1899 10.6599 33.2899 10.4499 33.4199C10.3199 33.5099 10.1999 33.5399 10.0799 33.4999C9.95994 33.4599 9.87994 33.3899 9.81994 33.2799C9.75994 33.1699 9.73994 33.0499 9.75994 32.9199C9.77994 32.7899 9.85994 32.6899 9.98994 32.5999C10.2499 32.4299 10.5399 32.2899 10.8599 32.1999C11.1799 32.1099 11.4999 32.0699 11.8299 32.0699C12.5099 32.0699 13.0299 32.2199 13.3899 32.5299C13.7499 32.8399 13.9299 33.2699 13.9299 33.8399C13.9299 34.2199 13.8399 34.5899 13.6499 34.9499C13.4699 35.2999 13.1799 35.6799 12.7899 36.0899L11.3999 37.5499H13.7499C14.0799 37.5499 14.2499 37.7099 14.2499 38.0199C14.2499 38.3399 14.0799 38.5099 13.7499 38.5099H10.4499V38.5299Z" fill="#523970"/>
<path d="M17.4902 33.58H24.8502" stroke="#523970" stroke-miterlimit="10" stroke-linecap="round"/>
<path d="M17.4902 36H23.3602" stroke="#523970" stroke-miterlimit="10" stroke-linecap="round"/>
<path d="M34.3901 45.65C38.8084 45.65 42.3901 42.0683 42.3901 37.65C42.3901 33.2317 38.8084 29.65 34.3901 29.65C29.9719 29.65 26.3901 33.2317 26.3901 37.65C26.3901 42.0683 29.9719 45.65 34.3901 45.65Z" fill="#DCA3FF" stroke="#523970" stroke-miterlimit="10" stroke-linecap="round" stroke-linejoin="round"/>
<path d="M30.1602 37.65H38.6202" stroke="#523970" stroke-miterlimit="10" stroke-linecap="round" stroke-linejoin="round"/>
<path d="M34.3901 41.88V33.42" stroke="#523970" stroke-miterlimit="10" stroke-linecap="round" stroke-linejoin="round"/>
</svg>
