<svg width="48" height="48" viewBox="0 0 48 48" fill="none" xmlns="http://www.w3.org/2000/svg">
<path d="M26.05 5H8V43H35.64V14.59L26.05 5Z" stroke="#523970" stroke-linecap="round" stroke-linejoin="round"/>
<path d="M34.39 45.65C38.8083 45.65 42.39 42.0683 42.39 37.65C42.39 33.2317 38.8083 29.65 34.39 29.65C29.9717 29.65 26.39 33.2317 26.39 37.65C26.39 42.0683 29.9717 45.65 34.39 45.65Z" fill="#DCA3FF" stroke="#523970" stroke-linecap="round" stroke-linejoin="round"/>
<path d="M30.16 37.65H38.62" stroke="#523970" stroke-linecap="round" stroke-linejoin="round"/>
<path d="M34.39 41.88V33.42" stroke="#523970" stroke-linecap="round" stroke-linejoin="round"/>
<path d="M35.64 11.17L29.47 5H35.64V11.17Z" stroke="#523970" stroke-linecap="round" stroke-linejoin="round"/>
<path d="M21.61 23.08C21.33 23.73 21.05 24.37 20.77 25.02C20.28 26.19 19.77 27.35 19.31 28.53C18.93 29.51 18.18 29.96 17.2 29.98C16.18 30 15.44 29.48 15 28.54C14.45 27.35 13.9 26.17 13.35 24.98C12.54 23.22 11.74 21.45 10.92 19.69C10.33 18.43 10.68 17.46 11.95 16.87C13.04 16.37 14.19 16.83 14.68 18.01C15.45 19.88 16.97 23.62 16.97 23.62L17.21 24.18H17.37L17.61 23.71C17.61 23.71 18.94 20.57 19.6 19C19.76 18.62 19.91 18.23 20.1 17.86C20.49 17.11 21.13 16.68 21.97 16.71C22.83 16.74 23.46 17.19 23.81 17.99C24.58 19.79 25.35 21.6 26.12 23.4C26.23 23.66 26.47 24.15 26.47 24.15H26.63C26.91 23.47 27.28 22.78 27.56 22.1C28.11 20.74 28.63 19.37 29.19 18.02C29.67 16.84 30.67 16.39 31.71 16.84C32.9 17.37 33.31 18.39 32.76 19.58C31.36 22.6 29.95 25.62 28.55 28.63C28.13 29.54 27.38 29.99 26.42 29.98C25.48 29.98 24.77 29.52 24.37 28.62C23.68 27.04 22.96 25.47 22.25 23.9C22.12 23.62 21.97 23.35 21.83 23.08H21.62H21.61Z" stroke="#523970" stroke-linejoin="round"/>
</svg>
