<svg xmlns="http://www.w3.org/2000/svg" xmlns:xlink="http://www.w3.org/1999/xlink" viewBox="0 0 207.61 204.22"><defs><style>.cls-1{fill:none;}.cls-2,.cls-7{fill:#dcbe80;}.cls-3,.cls-4{fill:#c5932c;}.cls-4{fill-rule:evenodd;}.cls-5{fill:#d8b670;}.cls-6{clip-path:url(#clip-path);}.cls-7{font-size:12px;font-family:Nunito-Regular, Nunito;}</style><clipPath id="clip-path"><rect class="cls-1" x="79.71" y="77.33" width="45.91" height="26.96"/></clipPath></defs><g id="Layer_2" data-name="Layer 2"><g id="Layer_24" data-name="Layer 24"><polygon class="cls-2" points="0 102.11 11.76 107.62 0.77 114.54 13.12 118.56 3.06 126.78 15.81 129.24 6.84 138.63 19.81 139.5 12.07 149.94 25.04 149.2 18.64 160.51 31.42 158.19 26.44 170.19 38.85 166.36 35.34 178.86 47.21 173.58 45.22 186.41 56.36 179.75 55.92 192.72 66.19 184.78 67.3 197.72 76.56 188.6 79.19 201.33 87.29 191.18 91.42 203.5 98.27 192.46 103.81 204.22 109.34 192.46 116.2 203.5 120.32 191.18 128.43 201.33 131.06 188.6 140.31 197.72 141.42 184.78 151.7 192.72 151.25 179.75 162.4 186.41 160.41 173.57 172.27 178.86 168.76 166.35 181.17 170.19 176.19 158.19 188.98 160.5 182.58 149.2 195.53 149.93 187.81 139.5 200.77 138.63 191.8 129.23 204.56 126.78 194.5 118.56 206.84 114.54 195.84 107.62 207.61 102.11 195.84 96.6 206.84 89.68 194.5 85.66 204.56 77.43 191.8 74.98 200.76 65.57 187.8 64.71 195.53 54.28 182.56 55.02 188.97 43.71 176.18 46.02 181.17 34.03 168.76 37.85 172.26 25.35 160.4 30.64 162.39 17.81 151.24 24.47 151.69 11.49 141.42 19.44 140.31 6.49 131.06 15.61 128.42 2.89 120.31 13.03 116.2 0.72 109.34 11.76 103.81 0 98.27 11.76 91.42 0.72 87.29 13.04 79.18 2.89 76.55 15.61 67.29 6.49 66.19 19.44 55.91 11.49 56.36 24.47 45.22 17.81 47.21 30.64 35.34 25.36 38.85 37.87 26.44 34.03 31.42 46.02 18.64 43.72 25.04 55.02 12.07 54.28 19.81 64.72 6.84 65.58 15.81 74.98 3.05 77.45 13.12 85.66 0.77 89.68 11.76 96.6 0 102.11"/><path class="cls-3" d="M104.13,190.68c-49,0-88.88-39.77-88.88-88.65s39.87-88.66,88.88-88.66S193,53.15,193,102s-39.89,88.65-88.9,88.65Zm0-175.08C56.34,15.6,17.46,54.36,17.46,102s38.88,86.43,86.67,86.43S190.8,149.69,190.8,102,151.92,15.6,104.13,15.6Z"/><path class="cls-3" d="M104.13,156.31A54.29,54.29,0,1,1,158.55,102a54.42,54.42,0,0,1-54.42,54.28Zm0-106.37A52.09,52.09,0,1,0,156.36,102a52.22,52.22,0,0,0-52.23-52.09Z"/><path class="cls-2" d="M20.6,101.46a83.53,83.53,0,1,0,83.53-83.31A83.42,83.42,0,0,0,20.6,101.46Zm27,0a56.49,56.49,0,1,1,56.49,56.35A56.41,56.41,0,0,1,47.64,101.46Z"/><polygon class="cls-4" points="144.44 99.14 146.57 101.98 144.54 104.9 147.9 103.75 150.04 106.59 149.98 103.03 153.34 101.86 149.94 100.82 149.88 97.25 147.84 100.18 144.44 99.14"/><polygon class="cls-4" points="149.72 95.33 148.87 91.88 151.88 89.99 148.34 89.73 147.47 86.28 146.14 89.58 142.6 89.34 145.31 91.63 143.98 94.94 147 93.05 149.72 95.33"/><polygon class="cls-4" points="146.81 84.45 145.15 81.31 147.63 78.74 144.12 79.35 142.45 76.22 141.96 79.74 138.46 80.36 141.65 81.92 141.16 85.45 143.62 82.9 146.81 84.45"/><polygon class="cls-4" points="141.4 74.58 139.02 71.94 140.8 68.85 137.55 70.29 135.18 67.65 135.54 71.19 132.3 72.64 135.77 73.39 136.14 76.93 137.92 73.85 141.4 74.58"/><polygon class="cls-4" points="133.75 66.38 130.84 64.33 131.88 60.93 129.04 63.06 126.13 61.02 127.28 64.39 124.44 66.54 128 66.48 129.16 69.85 130.2 66.44 133.75 66.38"/><polygon class="cls-4" points="124.39 60.16 121.08 58.88 121.26 55.31 119.02 58.08 115.71 56.81 117.64 59.8 115.41 62.57 118.84 61.65 120.78 64.64 120.97 61.08 124.39 60.16"/><polygon class="cls-4" points="113.83 56.38 110.31 55.94 109.62 52.45 108.12 55.67 104.59 55.24 107.19 57.67 105.69 60.91 108.8 59.17 111.39 61.6 110.72 58.1 113.83 56.38"/><polygon class="cls-4" points="102.66 55.24 99.13 55.67 97.63 52.45 96.95 55.94 93.42 56.38 96.53 58.1 95.86 61.6 98.45 59.17 101.56 60.91 100.06 57.67 102.66 55.24"/><polygon class="cls-4" points="91.55 56.81 88.22 58.08 85.99 55.31 86.17 58.88 82.85 60.16 86.28 61.08 86.47 64.64 88.41 61.65 91.84 62.57 89.61 59.8 91.55 56.81"/><polygon class="cls-4" points="81.12 61.02 78.21 63.06 75.38 60.93 76.41 64.33 73.5 66.38 77.05 66.44 78.09 69.85 79.25 66.48 82.8 66.54 79.97 64.39 81.12 61.02"/><polygon class="cls-4" points="72.08 67.65 69.7 70.29 66.46 68.85 68.23 71.94 65.86 74.58 69.33 73.85 71.11 76.93 71.48 73.39 74.95 72.64 71.72 71.19 72.08 67.65"/><polygon class="cls-4" points="64.8 76.22 63.13 79.35 59.64 78.74 62.09 81.31 60.43 84.45 63.62 82.9 66.1 85.45 65.61 81.92 68.8 80.36 65.3 79.74 64.8 76.22"/><polygon class="cls-4" points="59.78 86.28 58.91 89.73 55.38 89.99 58.39 91.88 57.53 95.33 60.25 93.05 63.26 94.94 61.94 91.63 64.65 89.34 61.12 89.58 59.78 86.28"/><polygon class="cls-4" points="57.23 97.28 57.29 100.85 53.94 102.01 57.33 103.06 57.4 106.62 59.44 103.7 62.83 104.73 60.7 101.89 62.73 98.97 59.37 100.13 57.23 97.28"/><polygon class="cls-4" points="57.53 108.52 58.39 111.99 55.38 113.87 58.91 114.13 59.78 117.58 61.12 114.29 64.65 114.53 61.94 112.23 63.26 108.94 60.25 110.82 57.53 108.52"/><polygon class="cls-4" points="60.43 119.41 62.09 122.55 59.64 125.12 63.13 124.51 64.8 127.65 65.3 124.12 68.8 123.5 65.61 121.93 66.1 118.41 63.62 120.97 60.43 119.41"/><polygon class="cls-4" points="65.86 129.28 68.23 131.93 66.46 135.01 69.7 133.57 72.08 136.21 71.72 132.67 74.95 131.22 71.48 130.47 71.11 126.93 69.33 130.02 65.86 129.28"/><polygon class="cls-4" points="73.5 137.49 76.41 139.53 75.38 142.94 78.21 140.8 81.12 142.84 79.97 139.47 82.8 137.33 79.25 137.39 78.09 134.03 77.05 137.43 73.5 137.49"/><polygon class="cls-4" points="82.85 143.71 86.17 144.99 85.99 148.54 88.22 145.78 91.55 147.06 89.61 144.06 91.84 141.29 88.41 142.21 86.47 139.23 86.28 142.78 82.85 143.71"/><polygon class="cls-4" points="93.42 147.49 96.95 147.93 97.63 151.41 99.13 148.19 102.66 148.62 100.06 146.19 101.56 142.96 98.45 144.68 95.86 142.26 96.53 145.75 93.42 147.49"/><polygon class="cls-4" points="104.59 148.62 108.12 148.19 109.62 151.41 110.31 147.93 113.83 147.49 110.72 145.75 111.39 142.26 108.8 144.68 105.69 142.96 107.19 146.19 104.59 148.62"/><polygon class="cls-4" points="115.71 147.06 119.02 145.78 121.26 148.54 121.08 144.99 124.39 143.71 120.97 142.78 120.78 139.23 118.84 142.21 115.41 141.29 117.64 144.06 115.71 147.06"/><polygon class="cls-4" points="126.13 142.84 129.04 140.8 131.88 142.94 130.84 139.53 133.75 137.49 130.2 137.43 129.16 134.03 128 137.39 124.44 137.33 127.28 139.47 126.13 142.84"/><polygon class="cls-4" points="135.18 136.21 137.55 133.57 140.8 135.01 139.02 131.93 141.4 129.28 137.92 130.02 136.14 126.93 135.77 130.47 132.3 131.22 135.54 132.67 135.18 136.21"/><polygon class="cls-4" points="142.45 127.65 144.12 124.51 147.63 125.12 145.15 122.55 146.81 119.41 143.62 120.97 141.16 118.41 141.65 121.93 138.46 123.5 141.96 124.12 142.45 127.65"/><polygon class="cls-4" points="147.47 117.58 148.34 114.13 151.88 113.87 148.87 111.99 149.72 108.52 147 110.82 143.98 108.94 145.31 112.23 142.6 114.53 146.14 114.29 147.47 117.58"/><polygon class="cls-4" points="144.44 99.14 146.57 101.98 144.54 104.9 147.9 103.75 150.04 106.59 149.98 103.03 153.34 101.86 149.94 100.82 149.88 97.25 147.84 100.18 144.44 99.14"/><path class="cls-3" d="M174.34,98.76a7,7,0,0,0,.57,1.83A11.22,11.22,0,0,0,186.34,107c-4-2.21-7-7-10.37-10.28a6.76,6.76,0,0,1-2.4-4.12c-.1-.68-1-3.26-.1-2s1,2.41,1.92,3.55a10.82,10.82,0,0,0,11.05,3.65c-4.22-1.63-7.87-6.24-11.42-9-1.64-1.14-2.31-1.62-2.79-3.64-.19-.67-1.45-3.36-.38-2.12.86,1.16,1.24,2.4,2.4,3.55,3.26,3.08,6.91,3.65,11.33,2.7-4.42-1.25-8.55-5.57-12.29-8-1.64-1-2.6-1.44-3.26-3.35-.2-.58-1.55-2.8-.49-1.93s1.44,2.11,2.59,2.88a10.9,10.9,0,0,0,11.52,1.25c-4.7-.68-9-4.32-13.15-6.24-1.73-.87-2.59-1.25-3.46-3-.28-.57-1.92-2.79-.67-1.82,1.06.86,1.73,2,2.88,2.68a11.37,11.37,0,0,0,11.71.1c-2.87,0-4.8-1.15-7-2.39-2.4-1.45-5.38-2-8-3.09-2.28-.94-2.22-2.36-3.78-4.05.29.26.89.78,1.19,1.08a9.84,9.84,0,0,0,4.51,2.11,10.32,10.32,0,0,0,9.31-2.11c-4.89.39-9-2.12-13.54-3.08-.48-.09-3.55-.57-3.55-1,0,.48-2.12-2.6-2.5-3-.86-.86.77.48,1.73,1.15,4.14,2.78,10.08,1.63,13.35-1.73-4.23,1-8-1.05-12.19-1.54-1.83-.18-4.71,0-6-1.34-.68-.67-1.34-1.35-2-2-.09-.1-1-.68-.57-.58.29.1.67.58.86.68a11.44,11.44,0,0,0,14.6-2.12c-3.36,1-6.34-.09-9.9-.39-2.39-.18-5,.11-7.29-.18-1.16-.2-2.11-1.35-3.07-2-1.73-1.35,3.45,1,5.75.67a10.54,10.54,0,0,0,8.17-5c-3.08,1.43-6.14.67-9.79,1-4.23.29-6.72,1.24-10.08-.86-.49-.3-1.25-.2-1.35-.77-.09-.29.39.09.57.19a3.07,3.07,0,0,1,1.25.38,11.34,11.34,0,0,0,12.77-5.57c-3.84,2-10.08,2-14.3,2.89-2,.38-2.79.58-4.61-.29-.58-.29-3.45-1.16-1.83-1.06,1.44,0,2.6.58,4.13.48,4.71-.48,7.5-3.17,9.41-7-3.74,2.5-9.79,3-14,4.23-1.93.67-2.69,1-4.62.39-.57-.3-3.25-.78-1.82-.87s2.6.28,3.84-.1c4.51-1.15,7.11-4,8.55-8.17-2.79,2.5-5.95,2.5-9.13,4-1.53.67-5.47,3.55-7.1,3.16-1.34-.28-2.78-.67-4.22-1,6.15-.19,11.52-3.17,12.19-9.31-2.31,2.49-4.89,3-7.78,4.41-1.63.86-3.55,2.59-5.48,3.56a6.07,6.07,0,0,1-2.1.76c-1.16.2-2.88-.38-4.13-.57a13.45,13.45,0,0,0,6.23-2.4,11.81,11.81,0,0,0,4.52-8.36,16.28,16.28,0,0,1-4.52,4c-2.2,1.43-4.5,2.78-6.62,4.31-.63.56-2,2.05-3,2.19-.13,0-.41-.05-.91-.07h-.77a21.67,21.67,0,0,0-2.49-.1c5.95-1.44,9.69-5.19,9.69-11.72-1.83,3.17-4.8,4.23-7.4,6.53l-2.29,2.31c-2,2-3.56,3.26-7.49,3.26a13.68,13.68,0,0,0,7.49-6.52,10.49,10.49,0,0,0,.57-6.25c-.19.48-.38.86-.57,1.25-1.74,3.17-5.18,5.09-7.49,8,0,.09-.1.2-.2.29-.67,1-2.59,3.84-3.36,3.84a12.66,12.66,0,0,0-1.92.2,17.84,17.84,0,0,0-2.49.57,20.47,20.47,0,0,0,2.49-1.35c2.69-1.92,4.9-4.7,5.28-8a8.17,8.17,0,0,0,0-2.21,8.16,8.16,0,0,0-.49-2.11c-.75,2.69-2.39,4.13-4.31,6.24a2.46,2.46,0,0,0-.48.58c-1.82,2-3.07,4.41-4.71,6.53C85,34.33,83,34.52,81.3,35.11c4.8-3.08,8-8.55,5.38-14.31-.58,3.65-3.08,5.57-4.81,8.64-.47.77-2.68,6.91-3.93,6.91H78c-1.45.48-2.79,1.15-4.14,1.73A11.49,11.49,0,0,0,78.22,23c-.47,3.74-2.4,5.94-3.94,9.11-1,2.21-1.62,4.61-2.77,6.73C70.84,40.19,68,41.25,66.8,42c4.8-3.84,7.1-10.47,3.26-15.75,0,3.84-1.82,6.43-3.07,9.6-1,2.4-1.44,5-2.3,7.3-.29.86-3,2.21-3.75,2.88,4.61-4,4.61-11.13.86-15.65.49,3.55-.76,5.86-1.62,8.92-.68,2.41-.2,6.44-1.54,8.45A19.68,19.68,0,0,1,55,51.05c4.22-4.14,3.93-11.91-.48-15.76.76,3.37-.38,5.86-.77,9-.29,2.49.49,6.62-.67,8.73-.67,1.34-2.31,2.59-3.26,3.65C53.36,51.33,52.49,45,47.69,41c1.44,4,.19,9.12.39,13.73,0,.87.48,3.94-.2,4.32H48c-.78,1.06-1.64,2.21-2.51,3.36,2.12-5.86,1.06-11.52-4.22-14.88,1.73,3.84,1.24,9.41,2,13.73.38,2.4.57,3.75-.58,5.67-.38.66-1.64,3.54-1,1.53A11.24,11.24,0,0,0,35.88,54.5c2.4,4.22,2.89,11.53,4,16,.48,2-1,4.22-1.82,6.15C40,70.25,37.23,64.19,31.27,62c2.12,3,2.12,6.14,3.36,9.51.87,2.3,2.7,5.28,2.6,7.67C36.75,80.52,36.36,82,36,83.4c0-1.05.29-2.3.2-3.55a11.45,11.45,0,0,0-9-9.6c2.79,2.49,3,5.76,4.52,8.83,1.05,2.21,2.49,4.23,3.26,6.44.58,1.44-.39,4.21-.58,5.85,0-6.82-3.36-12.1-10-12.87C27.25,80.9,27.91,84,29.64,87c1.25,2,2.79,3.93,3.93,6.14.77,1.25.1,3.84.1,5.37-.38-1.15-.18-2.49-.67-3.55a11.24,11.24,0,0,0-10.75-7.49c3.07,2,4.22,4.9,6.24,7.68,1.24,1.74,4.9,4.33,5,6.44,0,1.72.08,3.26.18,4.89-1-6.33-5.66-11-12.48-10.36,3.17,1.72,4.61,4.41,7,7.1,1.15,1.35,5.37,3.94,5.66,5.76.2,1.54.48,3.07.67,4.61-.57-1-.67-2.3-1.34-3.26-2.68-3.94-7.1-6.24-12-5,3,1.14,4.61,3.26,7,5.56,1.82,1.83,5.57,3.17,6.72,5.38.77,1.44,1,3.55,1.34,5-2.3-5.67-8-9.41-14.4-7.31,4.13,1,6.82,4.61,10.38,6.63,1.33.77,3.93,1.92,4.8,3.17a28.14,28.14,0,0,1,1.62,4.42,11.37,11.37,0,0,0-15-5.19c3.56.48,5.28,2.31,8.15,3.93,2.22,1.35,6.25,1.93,7.88,3.85,1,1.15,1.54,3.17,2.21,4.51-3.74-5-9.89-7.49-15.55-4,3.74,0,5.76,2,8.74,3.37,2.4,1,6.42,1.25,8.25,3,1.06,1.14,2.11,3.45,3.17,5-3-3.27-5.48-5.48-10.18-5.57-1.63-.1-5.56.67-6.24,2.11-.19.38.68.1,1,.1a3.15,3.15,0,0,1,1.35.09c3.07.48,5.66,2.21,8.63,2.88,1.93.48,4.91.68,6.44,1.73,1.16.77,2.11,2.69,3.07,3.84-3-2.3-5.56-4-10-3.55-1.44.2-5.38,1.34-6,3,0,.1,1.73-.2,2.41-.1,3.17,0,5.85,1.43,8.93,1.73,1.53.19,3,.29,4.42.48.66.09,2.2,0,2.2.77,0-.58.57.48,1,.86.77.87,1.72,1.64,2.59,2.5-4.31-3.08-11.43-4.61-15.46,0-.58.67-1.24,1,0,.77,2.6-.77,5.09,0,7.69.37,3,.49,6.33-.09,9.31.3.67,0,.67.67,1.24,1,1.06.87,2.12,1.64,3.17,2.4-5.18-2.2-10.65-2.11-14.49,2.4-1.45,1.64,3.07-.18,5.28.1,4,.67,7.68-.67,11.52-.67,1.06,0,3.26,1.93,4.23,2.49a11.52,11.52,0,0,0-14.12,3.17c-1.15,1.44-1.15,1.64.57.87,2.31-1,5.19-.58,7.87-1.06,2.32-.38,5.77-2,8.08-1.63A21.36,21.36,0,0,1,75,165.89c-5.28-1-10.66.37-13.16,5.37a3.28,3.28,0,0,0-.57,1.34c0,.09,1.44-.86,1.93-1.06a13,13,0,0,1,3.93-1.14c3.46-.58,6.43-1.93,9.7-3,1.72-.59,3.55.57,5.28,1.24-5.38-.48-10.76,1.45-12.68,6.53-.1.39-.47,1.15-.38,1.45s1.34-1,1.72-1.26A9.48,9.48,0,0,1,74.58,174c3.36-.87,6.33-2.6,9.41-3.94,1.73-.68,3.64.19,5.47.67-5.86,0-10.37,2.4-12.09,7.78,0,.29-.49,1.06-.3,1.44.1.09,1.25-1.15,1.63-1.44a12.22,12.22,0,0,1,3.75-1.82c3.27-1.26,5.56-3.17,8.45-4.23a10.39,10.39,0,0,1,5.28-.67h.49c-.2,0-.29.09-.49.09a16,16,0,0,0-5.28,1.92c-2.49,1.44-4.51,3.55-4.8,6.44-.1.86-.86,3.17.29,1.63a12.55,12.55,0,0,1,4.51-3.36,14.38,14.38,0,0,0,1.54-1,33.31,33.31,0,0,0,3.74-2.69c1-.67,1.92-1.44,2.88-2.12.67-.48,3.75-.76,4.81-.66.38,0,.48.09,0,.18-.2.11-.39.11-.58.2a11.64,11.64,0,0,0-7.11,4.8,11.93,11.93,0,0,0-1.53,3.55,11.8,11.8,0,0,0-.2,2.69c0,.58,1-.95,1.73-1.92a1.63,1.63,0,0,1,.49-.38c1.62-1.53,3.64-2.6,5.37-4a15,15,0,0,0,1.83-1.64,16.65,16.65,0,0,1,3.35-3.07c1.15-.77,2.88-.58,4.42-.67,1.06-.2-1.06.38-2,.77a9.71,9.71,0,0,0-2.4,1.63,11.44,11.44,0,0,0-3.35,5.18,9,9,0,0,0-.29,5.09c.09-.09.19-.28.29-.38,1.43-2.88,3.83-4.61,6.23-7,3.08-3,4.13-5.37,7.58-6.33a13.2,13.2,0,0,1,1.95-.36l-.6.17a8.9,8.9,0,0,0-1.35.67.31.31,0,0,0-.18.1,11.1,11.1,0,0,0-5.29,12.38c0,.2,1-2.11,1.54-2.88,1.25-1.63,2.6-3.26,3.93-4.9a43.93,43.93,0,0,0,3.46-4.32c1.35-1.91,1.92-2,4-2.78a6,6,0,0,1,1.25-.38c.19-.09.48-.29.48-.2-.58.77-2.12,1.25-2.88,1.83a11.89,11.89,0,0,0-3.66,7.39c-.09,1.35,0,4.22,1,5.1.19.18.09-.88.19-1.26a12.68,12.68,0,0,1,1.63-3.17c2.22-3.07,3.75-6,5.67-9.31,1.24-2,2.81-2.45,4.92-3.32a2,2,0,0,0-.22.15,9,9,0,0,0-2.3,1.92c-1.82,2.41-4.8,9.61-1.53,12.68.19.19.19-1.15.28-1.64a10.55,10.55,0,0,1,.58-1.72c1.54-3.75,3.74-7.4,5.38-11.14.95-2,1.91-2.5,4-3.64,1.34-.68-1.73,2-2.21,3a12.92,12.92,0,0,0-1.44,7.19c.19,1.35,2,5.86,2,3.65.1-2.49,1.15-4,1.93-6,.87-2.31,1.43-4.61,2.1-6.91.48-1.92,2.31-5.48,4.71-5.58.48-.09-.58.68-1,1.06a8.92,8.92,0,0,0-2.21,3.94c-.67,2.88-.67,6,.68,8.35.19.38.47.77.77,1.25.28.28.57,1.35.76,1s-.19-2.21-.19-2.78c.1-1.73,1-3.28,1.43-4.9.78-2.5,1.07-5.28,1.64-8a7.62,7.62,0,0,1,3.65-4.8c.28-.2-.38.57-.67.87a3.72,3.72,0,0,0-.67,1c-1.93,3.56-1.93,9.23,1,12.3.28.38.66.66,1,1.06s-.09-1.16-.09-1.74a8.35,8.35,0,0,1,.47-4.12c1.44-4.71-.29-10.66,3.56-14.22.67-.67-1.35,3.47-1.26,5.68s1.63,8.25,4.51,8.54c.3.09-.18-.57-.28-.86a9,9,0,0,1-.38-2.7c-.2-3.64.19-7.68,0-11.42,0-.58-.3-2.11.1-2.49h-.1a26.58,26.58,0,0,1,2.5-3.28c.57-.57-.4,1-.59,1.64a9.25,9.25,0,0,0-.48,4,10.16,10.16,0,0,0,3.85,7.67c.47.48,2,2,1.24.39-1.05-2.3-.77-4.71-.86-7.4s-.87-5.28-1.25-8.06c-.19-1.44,2.6-6.72,1.73-3.84a11,11,0,0,0,5.48,12.77c1.15.58-.39-1.35-.68-2.21-1.25-3.17-1.25-7.77-2.11-10.95-.48-1.92-1.15-3.35-.28-5.09.18-.47.47-1.05.66-1.53s.29-1.35.29-1c.19.86-.38,2-.38,3a11.5,11.5,0,0,0,4.51,8.55,14.72,14.72,0,0,0,3.27,1.44c-2.31-3.46-2.69-7.49-4.23-11.24-.68-1.44-2.21-3.93-1.73-5.56a13.86,13.86,0,0,0,.68-2.12c.19-.48.09-1.91.37-1.44s-.09,2.11-.09,2.6c-.09,3.17,2.31,7,5.09,8.64.86.48,3.94,1.63,3.36,1.06a9.51,9.51,0,0,1-2.31-3.84,45.9,45.9,0,0,0-3.54-8.07,16,16,0,0,1-1.73-3.46c-.29-.95.66-3.65.86-4.6.09-.29-.09.57-.09.85v1.26a10.73,10.73,0,0,0,1.34,4,10.9,10.9,0,0,0,7.68,5.77c.39.1,1.15.58,1.05.19s-1.34-1.25-1.72-1.53a7.83,7.83,0,0,1-1.64-3c-1.15-2.88-2.87-5.09-4.61-7.78-.48-.68-1.72-2.2-1.53-3s-.19-3.94.19-4.23c.2-.19.1.47.2.67.09.49.09.87.19,1.35a7.24,7.24,0,0,0,1.05,2.87,13.48,13.48,0,0,0,5.19,4.71c1,.58,5.28,1.35,3.94.49-2.4-1.55-3.08-4-4.71-6.15s-3.65-4.23-5.28-6.53c-.87-1.15-.58-3.85-.67-5.19C174,96.74,174.15,98.19,174.34,98.76Zm-.87,3.65c-.48,1-2.2,1.92-3.06,2.5-3,2.21-5.29,5.28-8.84,6.53,5.57,1.15,9.5-1.63,11.42-6.44.3-.76.48-1.63.39-.09v1c-.09,1.26.19,3-.39,4s-2.3,1.72-3.26,2.21c-3.26,1.63-5.86,4.52-9.5,5.48,5.27,1.43,9.8-.39,12.19-5.19.19-.57.38-1.35.19,0,0,.29-.09.58-.09.86-.19,1.15-.19,2.89-.78,3.94s-2.49,1.54-3.55,2c-3.36,1.43-6.14,3.94-10,4.51,4.9,2.3,9.7.29,12.48-3.94,1.83-2.78-.57,3.94-1.06,4.61-.57,1-2.4,1.25-3.64,1.54-3.65,1-6.44,3.35-10.47,3.35a9.72,9.72,0,0,0,13-2.4c1.25-1.73-1.25,3.94-1.63,4.32-.67,1.07-2.5,1.16-3.84,1.35-3.56.67-7,2.79-10.75,2.21,4.22,3.17,9.31,2.69,13.05-1.06,2.12-2-1.72,3.85-1.91,4-.87,1.07-2.6,1-4.14,1.07-3.93.28-7.1,1.72-10.93,1.15,4.21,3.74,9.2,3.36,13.52-.1.2-.1.68-.77.4-.19-1,2.11-2.7,4.8-5.29,4.71-4.23,0-9,.85-12.77-.4,3.74,4.43,8.64,4.62,13.44,1.83.48-.29.29-.09,0,.29a30,30,0,0,1-3,3.17c-1.06,1-1.15.86-2.69.67-3.74-.38-9.22-.1-12.58-1.63,2.79,3.75,7.68,6,12.19,3.46,3-1.64-2.5,3.65-4.61,3.26-1.53-.38-3-.86-4.61-1.24-3-.58-5.85-.2-8.35-1.93a9.53,9.53,0,0,0,12.39,4.61c.77-.29,1.64-.87.09.29a4.67,4.67,0,0,1-.86.67c-1,.67-2.21,2.21-3.16,2.3s-2.6-.76-3.56-1.15c-3.26-1.44-7.3-1.53-10.28-3.74,1.73,4.8,6.53,7.21,11.72,5.95.67-.19.87-.28-.19.39-.29.1-.48.28-.77.38-1,.58-2.21,1.73-3.27,1.92s-2.68-1-3.64-1.54c-3.17-1.63-7.2-2-9.89-4.8,1.35,5.09,5.66,7.88,11,7.2.67,0,1.34-.28.19.29-.19.1-.48.19-.67.29a14.17,14.17,0,0,1-3.74,1.63c-1.16.1-2.6-1.05-3.56-1.73-2.69-1.91-5.66-2.77-8.17-4.89-.28-.39-.66-.68-1-1.06a9.16,9.16,0,0,0,1,3.36c1.74,3.36,5.29,5,9.7,5A22.22,22.22,0,0,1,122.3,169c-1.35.1-3.18-1.82-4.62-3.06-.38-.39-.76-.68-1.05-1-2.3-1.53-4.7-2.49-6.43-4.9.29,5.09,3.26,7.78,7.48,8.84a12.41,12.41,0,0,0,2.69.47,19.22,19.22,0,0,1-2.69.68,12.62,12.62,0,0,1-1.91.39c-2.59.37-4.8-3.27-6.62-5s-3.94-2.69-5-5.09c-.38,5.76,3.26,9.61,8.64,10.46a10,10,0,0,1-1.82.29c-4.61.39-5.1-1.05-7.1-3.55a14.34,14.34,0,0,1-1.16-1.34c-2.11-2.21-3.94-3.46-5.19-6.15-.76,5.57,1.93,8.84,6.35,10.66a8.1,8.1,0,0,0,1.62.67,9.31,9.31,0,0,1-1.62.1h-.1c-1.16-.1-2.4,0-3.56-.19-1.52-.29-2.11-1.73-2.78-3a11.35,11.35,0,0,0-1.25-1.83c-1.73-2.4-3.74-4.61-4.71-7.49-1.44,5.19.78,9.12,4.71,11.43a12.7,12.7,0,0,0,1.64.76c-.49,0-1.06-.1-1.64-.1-2-.09-4.12-.29-5-1.92-.1-.19-.2-.38-.29-.57-1.93-3.46-5.09-7.29-5.76-11.24-2.12,5.76.58,9.89,5.28,12.87-2.41-.48-5.47-.57-6.43-2.89-.67-1.42-1.16-3-1.73-4.4-1.06-2.79-3.07-4.72-3.07-8-2.79,5.47-.49,10.18,4.13,13.45-2.22-1.16-5.57-.77-6.34-3.56-1.06-3.94-3.55-8.45-3.17-12.86-3.46,5-1.73,9.7,2.11,13.63-1.34-.67-2.79-1.43-4.23-2.11-.38-.19-1-.09-1-.48-.67-2.12-.58-4.51-1.06-6.63-.66-2.68-1.72-4.89-1.25-8-3.74,4.6-2.59,9.5,1,13.73-1.34-.77-4.22-1.74-5-3.08-.86-1.53-.19-4.79-.39-6.72-.37-2.88-1.14-5.18-.47-8.07-4.32,4-3.65,9.42-.49,13.83-2-1.54-4.89-2.59-4.7-5.56.29-3.94-.19-9.22,1.06-12.68-4.9,3.65-4.42,8.26-2.4,13.35-1.64-1.53-4.22-3.08-3.94-5.48.48-3.84.58-9.6,2.4-13-5.09,3.17-5.47,7.78-3.65,13.15a21.8,21.8,0,0,1-3.27-4c-1-1.73,1-5,1.36-6.91.67-2.89.58-5.47,2.2-7.88-5.38,2.79-6.33,7.4-4.89,13.06-1.44-1.91-3.66-4.12-2.79-6.43,1.44-3.84,2.5-8.84,5.19-12.19C44,125.46,42.22,130,43,135.73c-1.26-2-3.18-4.42-2-6.63,1.92-3.64,3.26-8.83,6.43-11.62-5.86,1.15-8.07,5.86-7.59,11.81-1-2.2-2.77-5-1.43-7.1,2.39-3.56,4.32-8.06,7.77-10.85-6.14.87-8.35,4.71-9,10.65A44,44,0,0,1,36,117.3c-.28-1.83.87-2.69,2.22-4,2.58-2.78,3.93-6.43,7.1-8.35-6,0-9.32,4.22-9.89,9.89-.19-1.64-.48-3.18-.67-4.7-.1-.48-.48-1.06-.2-1.44,1.16-1.73,3.37-3,4.8-4.52,2.21-2.11,3.37-4.22,6.06-5.48-6.15-.37-9.61,2.89-11,8.46-.1-1.35-.95-4.8-.29-5.86,1-1.73,3.84-3,5.38-4.22,2.4-1.82,3.75-3.84,6.53-4.81-6.15-1.24-9.89,2.31-11.81,7.59.09-1.63-.39-4.6.38-6s4.32-2.59,5.76-3.56c2.4-1.53,4-3.44,7-4-5.47-1.83-10.27.86-12.48,5.86.29-1.64.1-4.23,1-5.57.87-1.54,4.61-2.22,6.15-3.08,2.59-1.33,4.32-3.07,7.39-3.36-5.57-2.4-10.09,0-13.06,4.71C36.84,83,37,80.81,38,79.27s4.62-1.73,6.34-2.3,3.27-1.83,5.19-2.31a8,8,0,0,1,1.53-.19c.29,0,1,.28,1,0-.09-.76-3.07-1.44-3.74-1.53-4.52-.78-6.92,1.72-9.61,4.42a20.19,20.19,0,0,1,2-4.9c1-1.54,5-1.45,6.72-1.93,1.92-.47,3.46-1.34,5.38-1.63a4.88,4.88,0,0,1,1.63-.1c.39,0,1.06.49,1,.2-.1-.87-2.88-1.83-3.54-2-4.23-1.25-7.6,1-10.29,3.65a23.56,23.56,0,0,1,2.6-4.71c1.25-1.53,5-1,7.1-1.34,1.83-.29,3.46-1.06,5.47-1.06a4.9,4.9,0,0,1,1.64.1c.29,0,1,.48,1,.2,0-.68-2.88-2.12-3.36-2.31-4-1.73-7.87.38-10.76,2.68,3.08-5.37,4.33-4.79,10.18-4.88,2.59-.11,5-.88,7.4-.11,1.34.48-1.44-2-2.3-2.49C56.71,54.79,53,56,49.71,57.86c.77-1,1.73-2,2.59-3,2.31-2.5,5.57-.87,8.93-.68,2.31.19,4.51-.28,6.53.68,1.16.57-1.35-2.12-2.12-2.6-3.55-2.31-7.58-1.63-11,.1,1-.86,1.91-1.63,2.78-2.5,3-2.7,6-.29,9.79.09,2.4.29,6.34,1.25,6.06.78-2.51-5-8.36-5-13-3.37,1.06-.76,3.75-3.74,5-3.64,2,.1,4.31,1.63,6.33,2.21,1.64.57,3.75.67,5.38,1.34a15.63,15.63,0,0,1,1.34.86c.38.2.67.87.87.58.29-.58-1.64-3.07-2-3.55-2.79-3-6.72-3.17-10.56-2.31C68,42,70,40.19,71.6,40c1.92-.1,4.61,2,6.34,2.78a50,50,0,0,1,5.18,1.92,11.35,11.35,0,0,1,1.35,1c.19.19.48,1,.67.67.48-.67-1.25-3.27-1.63-3.75-2.5-3.17-6.44-4-10.47-3.27,1.63-.77,3.46-2.2,5.28-2.39s4.42,2.49,6,3.36,3.45,1.53,5,2.59a12.83,12.83,0,0,1,1.25,1.06c.09.09.28.58.38.67s.19.19.29.09,0-1-.29-1.63a13.39,13.39,0,0,0-1.05-2.21,9.65,9.65,0,0,0-9.7-4.51c1.53-.57,3.07-1.15,4.7-1.64,2-.57,4.32,2.22,6.05,3.66a.44.44,0,0,0,.29.18c1.63,1.27,3.55,2,5,3.37a9.2,9.2,0,0,1,1,1.06c.77,1.24.29-1.06.09-1.73a7.93,7.93,0,0,0-1-2.5,13.24,13.24,0,0,0-1.06-1.44,9.6,9.6,0,0,0-4.22-2.6,23.11,23.11,0,0,0-3.74-.57,26.54,26.54,0,0,1,3.74-.86A4,4,0,0,0,92,33.09c1.53-.19,3,1,4.22,2.4,1,.95,1.73,2,2.51,2.69,1.62,1.44,3.82,2.4,4.7,4.51.28.58.38.38.48,0v-.77a3.81,3.81,0,0,1-.1-1A8.37,8.37,0,0,0,102,36.73a10.71,10.71,0,0,0-5.86-3.64c-.49-.1-1-.29-1.44-.39a9.26,9.26,0,0,0,1.44-.18c1.92-.4,4.32-.68,5.29.47.86.87,1.62,1.82,2.4,2.69a56.49,56.49,0,0,0,4,4.32,11.49,11.49,0,0,1,1.93,2.5c.19.38.09,1.35.47,1.15.68-.38.1-3.55,0-4-1-3.64-3.36-5.58-6.42-6.82-.68-.28-1.26-.48-1.83-.68.47,0,1.15-.09,1.83-.09,1.91-.1,4.22-.1,5.08,1.06,1.92,2.78,3.75,5.38,5.86,8.16.77,1,.77,2.2,1.44,3.08.19.28.57-1.64.57-2.31a9.55,9.55,0,0,0-4.61-8.55l-1.72-.86c-.29-.09-.87-.09-.67-.29.86-.67,2,.2,3.17.38,3,.49,3.74,1.82,4.69,3.93a21.12,21.12,0,0,0,1.07,2.12c.86,1.73,2.59,3.37,3.36,5.28a14.35,14.35,0,0,0,.38,2c.29.38.77-1.44.87-2a7.64,7.64,0,0,0-.39-4.41,10.37,10.37,0,0,0-4.32-5.38c-.48-.29-.77-.48-1-.58-.38-.38-.28-.47,0-.47a27.73,27.73,0,0,1,4.52,1.33c1.92.77,2.11,3.17,2.79,5.1,1,2.88,3.26,5.18,3.26,8.54,0,1.15,1-1.34,1.06-1.73,1.39-4.73-1.08-8.3-4.45-11,1.71,1.17,5.16.74,5.79,2.88,1,3.36,1.92,6.53,3,9.7.38,1.06.09,2.3.38,3.36.1.28,1.25-1.73,1.45-2.21a10,10,0,0,0,.37-4.51c-.67-3.55-5.47-7.3-2.11-5.76.68.39,3.08,1.34,3.37,1.63s.38,2.11.48,2.59c.57,3.94,2.49,7.78,1.82,11.72-.19,1.24,1.44-1.34,1.63-1.64a10.65,10.65,0,0,0,.11-8.06,10.55,10.55,0,0,0-2.13-3c-.28-.39-1.15-1.16-.76-1A16.85,16.85,0,0,1,141,42.78c.67.49,2.5,1.16,2.6,2.31.38,2.21,0,4.7.18,6.91.1,1.45.58,2.6.68,4,0,1.16-.68,3.28-.1,2.79a9.19,9.19,0,0,0,2.79-8.35A8,8,0,0,0,146,47.11c-.29-.39-.49-.68-.67-1s-.77-.77-.48-.68A46.48,46.48,0,0,1,149,48.74c1.25,1,.29,4.8.09,6.43-.18,2.88-.18,5.86-.57,8.45,0,.39,1.73-1.25,2.11-1.73a8,8,0,0,0,1.64-3.55c.47-2.21.38-4.8-.77-6.53-2-3.27,1.73.76,2.78,1.92s.48,2.3.19,3.84c-.58,2.78-.47,6.15-1.15,9a4.57,4.57,0,0,1-.77,2c-.38.68,2.31-1.44,2.88-2.21A10.38,10.38,0,0,0,157,57.77a9.12,9.12,0,0,0-.77-1.44c-.09-.39-.58-1.06-.29-.87a14.77,14.77,0,0,1,3.95,4.89c.19.87-1.06,3.37-1.26,4-1.06,2.88-1,6.82-2.69,9.22-.76,1.25,1.06-.09,1.73-.49a8.16,8.16,0,0,0,3.17-4.22,9.13,9.13,0,0,0,.58-4.32c-.1-1.24-1.34-4.23.19-1.83a3.7,3.7,0,0,1,.48.77c.57.87,1.73,2.12,1.92,3.08.1.19-.38,1.05-.47,1.34-.68,1.82-1.65,3.46-2.32,5.18-.77,2.4-1,4.72-2.68,6.63-.87,1,1.82-.48,2.21-.67a9.54,9.54,0,0,0,4.32-7c.19-1.25-.58-4.7-.11-3.84a28.1,28.1,0,0,1,2,4c.78,2.21-1.72,4.81-2.78,6.91-1,2.31-1.44,4.7-3.26,6.63-1.05,1.06,1,.1,1.72-.19,4.23-1.63,5.68-6,5.39-10.57-.2-1.73.76,1.35,1.33,3,1.35,3.75-2.78,6.73-4.42,10.09-.76,1.53-3.15,4.22-2.39,4.12,4.51-.29,7.59-4.7,8-9,.19-3.75,1.92,3.94.57,5.56-2.59,3.17-5.18,8.08-8.73,10,5.47,0,9-3.54,9.79-8.74.1-1,0-2.2.29-.18a4.46,4.46,0,0,1,.19,1.15c.19,1.15,1.06,3.07.57,4a12.2,12.2,0,0,1-2.77,2.59c-2.89,2.39-4.71,5.85-8.07,7.38,5.38.67,9.4-2.59,10.65-7.58.19-.77.19-1.54.39.1v1C173.47,99.63,174.05,101.45,173.47,102.41Z"/><path class="cls-3" d="M140.93,108.6H131v3.28c-6.79.57-18.37,1.42-27,1.42-9.78,0-20.61-.81-27-1.38V108.6H67l-11.5-1.81,11.74,10.89-11.49,7.51L66.92,127h3.6v1.33s18.29,2,33.46,2c13.53,0,33.45-2,33.45-2V127H141l11.14-1.76-11.48-7.51,11.74-10.89Z"/><path class="cls-3" d="M104,130.54c-15,0-33.3-2-33.48-2l-.22,0v-1.3H66.89l-11.76-1.85,11.75-7.69-12.1-11.22L67,108.36H77.2v3.33c7.08.63,17.4,1.38,26.78,1.38,8.67,0,20.41-.89,26.78-1.42v-3.29H140.9l12.29-1.93-12.1,11.22,11.75,7.69L141,127.19h-3.36v1.31l-.22,0c-.21,0-20.09,2-33.48,2Zm33.21-2.48v-1.35H141l10.52-1.66-11.22-7.34,11.38-10.56-10.75,1.7h-9.68v3.25H131c-6.32.54-18.25,1.44-27,1.44-9.49,0-20-.76-27-1.39l-.22,0v-3.29H67l-10.71-1.69,11.38,10.56-11.21,7.34,10.47,1.66h3.85v1.34c2.11.23,19.11,2,33.21,2,12.61,0,31-1.77,33.21-2Z"/><polygon class="cls-4" points="57.69 107.84 66.97 109.3 76.25 109.3 76.25 117.77 76.25 126.25 66.97 126.25 57.69 124.79 68.4 117.77 57.69 107.84"/><path class="cls-3" d="M67,126.49,57,124.93l11-7.19L56.94,107.48l10,1.57H76.5v17.44ZM76,126V109.54H66.94l-8.49-1.33L68.8,117.8l-10.45,6.84L67,126Z"/><polygon class="cls-4" points="57.69 107.84 66.97 109.3 76.25 109.3 71.23 112.06 76.25 126.25 66.97 126.25 57.69 124.79 68.4 117.77 57.69 107.84"/><path class="cls-5" d="M67,126.49,57,124.93l11-7.19L56.94,107.48l10,1.57h9.28l.13.47-4.86,2.65,5.08,14.32Zm9-.48-5-14.07,4.38-2.4H66.94l-8.49-1.33L68.8,117.8l-10.45,6.84L67,126Z"/><polygon class="cls-4" points="150.27 107.84 140.99 109.3 131.7 109.3 131.7 117.77 131.7 126.25 140.99 126.25 150.27 124.79 139.56 117.77 150.27 107.84"/><path class="cls-3" d="M131.46,126.49V109.05H141L151,107.48,140,117.74l11,7.19L141,126.49Zm18.15-1.85-10.45-6.84,10.36-9.59L141,109.54h-9V126h9l8.66-1.37Z"/><polygon class="cls-4" points="150.27 107.84 140.99 109.3 131.7 109.3 136.73 112.06 131.7 126.25 140.99 126.25 150.27 124.79 139.56 117.77 150.27 107.84"/><path class="cls-5" d="M131.36,126.49l5.08-14.32-4.85-2.65.11-.47H141L151,107.48,140,117.74l11,7.19L141,126.49Zm18.25-1.85-10.45-6.84,10.36-9.59L141,109.54h-8.34l4.39,2.4-5,14.07H141l8.66-1.37Z"/><path class="cls-4" d="M136.73,112.06S117,114,104,114c-15.12,0-32.75-2-32.75-2v15.58s17.63,2,32.75,2c13.5,0,32.75-2,32.75-2V112.06Z"/><path class="cls-2" d="M104,129.84c-15,0-32.61-1.93-32.78-2l-.21,0V111.79l.26,0c.18,0,17.79,2,32.73,2,12.89,0,32.54-1.93,32.73-2l.27,0v16.06l-.22,0c-.19,0-19.42,2-32.78,2Zm32.52-2.42V112.33c-2.41.23-20.43,1.92-32.52,1.92-14,0-30.23-1.68-32.51-1.91v15.08c2.07.23,18.47,1.93,32.51,1.93,12.56,0,30.34-1.71,32.52-1.93Z"/><polygon class="cls-2" points="130.74 80.09 130.43 81.06 129.41 81.06 130.24 81.65 129.92 82.63 130.74 82.02 131.57 82.63 131.25 81.65 132.07 81.06 131.06 81.06 130.74 80.09"/><polygon class="cls-2" points="127.9 80.09 127.58 81.06 126.57 81.06 127.39 81.65 127.08 82.63 127.9 82.02 128.72 82.63 128.41 81.65 129.23 81.06 128.21 81.06 127.9 80.09"/><polygon class="cls-2" points="125.14 80.09 124.82 81.06 123.81 81.06 124.63 81.65 124.32 82.63 125.14 82.02 125.96 82.63 125.65 81.65 126.48 81.06 125.46 81.06 125.14 80.09"/><polygon class="cls-2" points="122.3 80.09 121.98 81.06 120.97 81.06 121.78 81.65 121.47 82.63 122.3 82.02 123.12 82.63 122.81 81.65 123.63 81.06 122.61 81.06 122.3 80.09"/><polygon class="cls-2" points="119.5 80.09 119.18 81.06 118.16 81.06 118.99 81.65 118.67 82.63 119.5 82.02 120.31 82.63 120 81.65 120.82 81.06 119.81 81.06 119.5 80.09"/><polygon class="cls-2" points="116.65 80.09 116.33 81.06 115.32 81.06 116.14 81.65 115.82 82.63 116.65 82.02 117.47 82.63 117.16 81.65 117.98 81.06 116.96 81.06 116.65 80.09"/><polygon class="cls-2" points="113.89 80.09 113.58 81.06 112.56 81.06 113.39 81.65 113.07 82.63 113.89 82.02 114.71 82.63 114.4 81.65 115.22 81.06 114.21 81.06 113.89 80.09"/><polygon class="cls-2" points="111.05 80.09 110.73 81.06 109.72 81.06 110.54 81.65 110.23 82.63 111.05 82.02 111.87 82.63 111.55 81.65 112.38 81.06 111.36 81.06 111.05 80.09"/><polygon class="cls-2" points="108.17 80.09 107.86 81.06 106.84 81.06 107.67 81.65 107.35 82.63 108.17 82.02 108.99 82.63 108.68 81.65 109.51 81.06 108.49 81.06 108.17 80.09"/><polygon class="cls-2" points="105.33 80.09 105.01 81.06 104 81.06 104.82 81.65 104.51 82.63 105.33 82.02 106.15 82.63 105.84 81.65 106.66 81.06 105.64 81.06 105.33 80.09"/><polygon class="cls-2" points="102.57 80.09 102.26 81.06 101.24 81.06 102.07 81.65 101.75 82.63 102.57 82.02 103.39 82.63 103.08 81.65 103.9 81.06 102.89 81.06 102.57 80.09"/><polygon class="cls-2" points="99.72 80.09 99.41 81.06 98.4 81.06 99.22 81.65 98.91 82.63 99.72 82.02 100.55 82.63 100.24 81.65 101.05 81.06 100.04 81.06 99.72 80.09"/><polygon class="cls-2" points="96.92 80.09 96.61 81.06 95.59 81.06 96.42 81.65 96.1 82.63 96.92 82.02 97.75 82.63 97.44 81.65 98.25 81.06 97.24 81.06 96.92 80.09"/><polygon class="cls-2" points="94.08 80.09 93.77 81.06 92.75 81.06 93.57 81.65 93.25 82.63 94.08 82.02 94.9 82.63 94.59 81.65 95.41 81.06 94.39 81.06 94.08 80.09"/><polygon class="cls-2" points="91.32 80.09 91.01 81.06 90 81.06 90.81 81.65 90.5 82.63 91.32 82.02 92.14 82.63 91.83 81.65 92.65 81.06 91.64 81.06 91.32 80.09"/><polygon class="cls-2" points="88.48 80.09 88.16 81.06 87.15 81.06 87.97 81.65 87.65 82.63 88.48 82.02 89.3 82.63 88.98 81.65 89.8 81.06 88.79 81.06 88.48 80.09"/><polygon class="cls-2" points="85.64 80.09 85.33 81.06 84.31 81.06 85.14 81.65 84.82 82.63 85.64 82.02 86.46 82.63 86.15 81.65 86.97 81.06 85.95 81.06 85.64 80.09"/><polygon class="cls-2" points="82.8 80.09 82.49 81.06 81.47 81.06 82.29 81.65 81.97 82.63 82.8 82.02 83.62 82.63 83.31 81.65 84.13 81.06 83.11 81.06 82.8 80.09"/><polygon class="cls-2" points="80.04 80.09 79.73 81.06 78.71 81.06 79.53 81.65 79.22 82.63 80.04 82.02 80.87 82.63 80.55 81.65 81.37 81.06 80.36 81.06 80.04 80.09"/><polygon class="cls-2" points="77.19 80.09 76.88 81.06 75.87 81.06 76.69 81.65 76.38 82.63 77.19 82.02 78.02 82.63 77.71 81.65 78.52 81.06 77.51 81.06 77.19 80.09"/><polygon class="cls-2" points="130.74 96.94 130.43 97.91 129.41 97.91 130.24 98.51 129.92 99.47 130.74 98.88 131.57 99.47 131.25 98.51 132.07 97.91 131.06 97.91 130.74 96.94"/><polygon class="cls-2" points="127.9 96.94 127.58 97.91 126.57 97.91 127.39 98.51 127.08 99.47 127.9 98.88 128.72 99.47 128.41 98.51 129.23 97.91 128.21 97.91 127.9 96.94"/><polygon class="cls-2" points="125.14 96.94 124.82 97.91 123.81 97.91 124.63 98.51 124.32 99.47 125.14 98.88 125.96 99.47 125.65 98.51 126.48 97.91 125.46 97.91 125.14 96.94"/><polygon class="cls-2" points="122.3 96.94 121.98 97.91 120.97 97.91 121.78 98.51 121.47 99.47 122.3 98.88 123.12 99.47 122.81 98.51 123.63 97.91 122.61 97.91 122.3 96.94"/><polygon class="cls-2" points="119.5 96.94 119.18 97.91 118.16 97.91 118.99 98.51 118.67 99.47 119.5 98.88 120.31 99.47 120 98.51 120.82 97.91 119.81 97.91 119.5 96.94"/><polygon class="cls-2" points="116.65 96.94 116.33 97.91 115.32 97.91 116.14 98.51 115.82 99.47 116.65 98.88 117.47 99.47 117.16 98.51 117.98 97.91 116.96 97.91 116.65 96.94"/><polygon class="cls-2" points="113.89 96.94 113.58 97.91 112.56 97.91 113.39 98.51 113.07 99.47 113.89 98.88 114.71 99.47 114.4 98.51 115.22 97.91 114.21 97.91 113.89 96.94"/><polygon class="cls-2" points="111.05 96.94 110.73 97.91 109.72 97.91 110.54 98.51 110.23 99.47 111.05 98.88 111.87 99.47 111.55 98.51 112.38 97.91 111.36 97.91 111.05 96.94"/><polygon class="cls-2" points="108.17 96.94 107.86 97.91 106.84 97.91 107.67 98.51 107.35 99.47 108.17 98.88 108.99 99.47 108.68 98.51 109.51 97.91 108.49 97.91 108.17 96.94"/><polygon class="cls-2" points="105.33 96.94 105.01 97.91 104 97.91 104.82 98.51 104.51 99.47 105.33 98.88 106.15 99.47 105.84 98.51 106.66 97.91 105.64 97.91 105.33 96.94"/><polygon class="cls-2" points="102.57 96.94 102.26 97.91 101.24 97.91 102.07 98.51 101.75 99.47 102.57 98.88 103.39 99.47 103.08 98.51 103.9 97.91 102.89 97.91 102.57 96.94"/><polygon class="cls-2" points="99.72 96.94 99.41 97.91 98.4 97.91 99.22 98.51 98.91 99.47 99.72 98.88 100.55 99.47 100.24 98.51 101.05 97.91 100.04 97.91 99.72 96.94"/><polygon class="cls-2" points="96.92 96.94 96.61 97.91 95.59 97.91 96.42 98.51 96.1 99.47 96.92 98.88 97.75 99.47 97.44 98.51 98.25 97.91 97.24 97.91 96.92 96.94"/><polygon class="cls-2" points="94.08 96.94 93.77 97.91 92.75 97.91 93.57 98.51 93.25 99.47 94.08 98.88 94.9 99.47 94.59 98.51 95.41 97.91 94.39 97.91 94.08 96.94"/><polygon class="cls-2" points="91.32 96.94 91.01 97.91 90 97.91 90.81 98.51 90.5 99.47 91.32 98.88 92.14 99.47 91.83 98.51 92.65 97.91 91.64 97.91 91.32 96.94"/><polygon class="cls-2" points="88.48 96.94 88.16 97.91 87.15 97.91 87.97 98.51 87.65 99.47 88.48 98.88 89.3 99.47 88.98 98.51 89.8 97.91 88.79 97.91 88.48 96.94"/><polygon class="cls-2" points="85.64 96.94 85.33 97.91 84.31 97.91 85.14 98.51 84.82 99.47 85.64 98.88 86.46 99.47 86.15 98.51 86.97 97.91 85.95 97.91 85.64 96.94"/><polygon class="cls-2" points="82.8 96.94 82.49 97.91 81.47 97.91 82.29 98.51 81.97 99.47 82.8 98.88 83.62 99.47 83.31 98.51 84.13 97.91 83.11 97.91 82.8 96.94"/><polygon class="cls-2" points="80.04 96.94 79.73 97.91 78.71 97.91 79.53 98.51 79.22 99.47 80.04 98.88 80.87 99.47 80.55 98.51 81.37 97.91 80.36 97.91 80.04 96.94"/><polygon class="cls-2" points="77.19 96.94 76.88 97.91 75.87 97.91 76.69 98.51 76.38 99.47 77.19 98.88 78.02 99.47 77.71 98.51 78.52 97.91 77.51 97.91 77.19 96.94"/><g class="cls-6"><path class="cls-3" d="M92.64,103a1.47,1.47,0,0,1-.64-.14,1.16,1.16,0,0,1-.44-.38,1,1,0,0,1-.16-.53.84.84,0,0,1,.2-.59,1.13,1.13,0,0,1,.64-.32,6.39,6.39,0,0,1,1.22-.09h.23v-.22a.91.91,0,0,0-.18-.63.75.75,0,0,0-.58-.2,1.77,1.77,0,0,0-.5.07,2.34,2.34,0,0,0-.51.2.21.21,0,0,1-.2,0,.18.18,0,0,1-.12-.12.31.31,0,0,1,0-.19.24.24,0,0,1,.14-.14,2.58,2.58,0,0,1,1.19-.3,1.3,1.3,0,0,1,1,.33,1.35,1.35,0,0,1,.33,1v1.91c0,.2-.09.29-.27.29s-.27-.1-.27-.29v-.35a1.13,1.13,0,0,1-.41.48A1.2,1.2,0,0,1,92.64,103Zm.09-.43a.91.91,0,0,0,.69-.29,1.08,1.08,0,0,0,.27-.75v-.21h-.22a6.86,6.86,0,0,0-.9.05.86.86,0,0,0-.46.19.45.45,0,0,0-.13.35.64.64,0,0,0,.2.48A.79.79,0,0,0,92.73,102.6Z"/><path class="cls-3" d="M96.89,103a1.78,1.78,0,0,1-.89-.22,1.54,1.54,0,0,1-.58-.63,2.18,2.18,0,0,1-.2-1,1.81,1.81,0,0,1,.45-1.29,1.59,1.59,0,0,1,1.22-.46,1.75,1.75,0,0,1,.53.08,1.41,1.41,0,0,1,.5.26.22.22,0,0,1,.1.21.23.23,0,0,1-.12.19.19.19,0,0,1-.24,0,1.09,1.09,0,0,0-.37-.19,1.24,1.24,0,0,0-.37-.06,1,1,0,0,0-.82.34,1.43,1.43,0,0,0-.29,1,1.52,1.52,0,0,0,.29,1,1,1,0,0,0,.82.35,1.22,1.22,0,0,0,.37,0,1.35,1.35,0,0,0,.37-.2.2.2,0,0,1,.24,0,.21.21,0,0,1,.1.19.19.19,0,0,1-.1.2,1.39,1.39,0,0,1-.49.27A1.93,1.93,0,0,1,96.89,103Z"/><path class="cls-3" d="M99.89,103a1.39,1.39,0,0,1-.63-.14,1.09,1.09,0,0,1-.44-.38.9.9,0,0,1-.17-.53.84.84,0,0,1,.2-.59,1.17,1.17,0,0,1,.64-.32,6.54,6.54,0,0,1,1.22-.09h.23v-.22a.91.91,0,0,0-.18-.63.75.75,0,0,0-.58-.2,1.66,1.66,0,0,0-.49.07,2.41,2.41,0,0,0-.52.2.21.21,0,0,1-.2,0,.17.17,0,0,1-.11-.12.31.31,0,0,1,0-.19.22.22,0,0,1,.13-.14,3.28,3.28,0,0,1,.61-.23,3.15,3.15,0,0,1,.58-.07,1.33,1.33,0,0,1,1,.33,1.39,1.39,0,0,1,.32,1v1.91c0,.2-.09.29-.26.29s-.28-.1-.28-.29v-.35a1.06,1.06,0,0,1-.41.48A1.15,1.15,0,0,1,99.89,103Zm.09-.43a.91.91,0,0,0,.69-.29,1.08,1.08,0,0,0,.27-.75v-.21h-.22a6.86,6.86,0,0,0-.9.05.79.79,0,0,0-.45.19.45.45,0,0,0-.14.35.61.61,0,0,0,.21.48A.77.77,0,0,0,100,102.6Z"/><path class="cls-3" d="M104,103a1.44,1.44,0,0,1-.8-.22,1.41,1.41,0,0,1-.53-.62,2.22,2.22,0,0,1-.18-.94,2.33,2.33,0,0,1,.18-1,1.44,1.44,0,0,1,.53-.61,1.52,1.52,0,0,1,.8-.21,1.46,1.46,0,0,1,.71.17,1.07,1.07,0,0,1,.45.49v-1.9a.29.29,0,1,1,.58,0v4.48a.25.25,0,0,1-.29.29.25.25,0,0,1-.28-.29v-.37a1.17,1.17,0,0,1-.46.5A1.36,1.36,0,0,1,104,103Zm.12-.46a1,1,0,0,0,.77-.34,1.8,1.8,0,0,0,0-2,1,1,0,0,0-1.54,0,1.49,1.49,0,0,0-.28,1,1.51,1.51,0,0,0,.28,1A1,1,0,0,0,104.11,102.57Z"/><path class="cls-3" d="M108.48,103a1.7,1.7,0,0,1-1.28-.48,1.72,1.72,0,0,1-.47-1.29,2,2,0,0,1,.21-.93,1.54,1.54,0,0,1,.58-.63,1.62,1.62,0,0,1,.86-.22,1.38,1.38,0,0,1,1.09.44,1.81,1.81,0,0,1,.39,1.23c0,.15-.08.22-.24.22h-2.34a1.27,1.27,0,0,0,.34.89,1.15,1.15,0,0,0,.86.31,1.89,1.89,0,0,0,.47-.06,1.51,1.51,0,0,0,.47-.21.24.24,0,0,1,.27,0,.23.23,0,0,1,.11.2.28.28,0,0,1-.14.23,1.81,1.81,0,0,1-.56.26A2.27,2.27,0,0,1,108.48,103Zm-.09-3.13a1,1,0,0,0-.77.3,1.42,1.42,0,0,0-.33.8h2.08a1.23,1.23,0,0,0-.27-.81A.9.9,0,0,0,108.39,99.9Z"/><path class="cls-3" d="M111.13,103a.26.26,0,0,1-.29-.3V99.78a.26.26,0,0,1,.28-.29c.19,0,.28.1.28.29v.34a1.19,1.19,0,0,1,.43-.48,1.22,1.22,0,0,1,.64-.16,1,1,0,0,1,1,.69,1.22,1.22,0,0,1,1.16-.69q1.14,0,1.14,1.35v1.89a.25.25,0,0,1-.29.29c-.19,0-.28-.1-.28-.29v-1.86a1.18,1.18,0,0,0-.17-.7.62.62,0,0,0-.54-.22.83.83,0,0,0-.67.3,1.2,1.2,0,0,0-.24.79v1.69a.25.25,0,0,1-.29.29c-.19,0-.28-.1-.28-.29v-1.86a1.18,1.18,0,0,0-.17-.7.63.63,0,0,0-.55-.22.8.8,0,0,0-.66.3,1.15,1.15,0,0,0-.25.79v1.69C111.41,102.92,111.32,103,111.13,103Z"/><path class="cls-3" d="M117.73,104.28a.22.22,0,0,1-.22-.12.39.39,0,0,1,0-.28l.43-1-1.3-3a.31.31,0,0,1,0-.28.27.27,0,0,1,.26-.12.31.31,0,0,1,.29.23l1.06,2.6,1.07-2.6a.46.46,0,0,1,.12-.18.33.33,0,0,1,.19-.05.21.21,0,0,1,.21.12.34.34,0,0,1,0,.28L118,104.06a.7.7,0,0,1-.12.18A.36.36,0,0,1,117.73,104.28Z"/><path class="cls-3" d="M117.89,85.68a.91.91,0,1,1-.91-.91A.91.91,0,0,1,117.89,85.68Zm2.57-.91a.91.91,0,1,0,.91.91A.91.91,0,0,0,120.46,84.77Z"/><path class="cls-3" d="M95.05,86.59a.9.9,0,1,0,1.74-.46,8.7,8.7,0,1,0,0,4.43.9.9,0,1,0-1.73-.46,6.89,6.89,0,1,1,0-3.51Z"/><path class="cls-3" d="M84,87.45a.9.9,0,1,0,0,1.79h7.08a.9.9,0,1,0,0-1.79Z"/><path class="cls-3" d="M118.42,79.66a7.44,7.44,0,0,0-4.07,1.13V78.68a.64.64,0,1,0-.95-.56.63.63,0,0,0,.35.56v2.55a7.44,7.44,0,0,0-2.52,5.92v9a.9.9,0,1,0,1.79,0V93.61h10.8v2.52a.91.91,0,0,0,.9.9.9.9,0,0,0,.9-.9v-9C125.62,82.67,122.73,79.66,118.42,79.66Zm5.4,12.15H113V87.15c0-3.46,2.12-5.69,5.4-5.69s5.4,2.23,5.4,5.69Z"/><path class="cls-3" d="M103.63,95.23h-2.17V80.56a.9.9,0,1,0-1.79,0V96.13a.9.9,0,0,0,.89.9h3.07a.9.9,0,0,0,0-1.8Z"/><path class="cls-3" d="M107.57,79.66a.9.9,0,0,0-.9.9V96.13a.9.9,0,1,0,1.8,0V80.56A.9.9,0,0,0,107.57,79.66Z"/><path class="cls-3" d="M114,78.79a.73.73,0,1,0-.73-.73A.74.74,0,0,0,114,78.79Z"/></g><text class="cls-7" transform="translate(90.85 125.1)">2021</text></g></g></svg>