<svg width="238" height="26" viewBox="0 0 238 26" fill="none" xmlns="http://www.w3.org/2000/svg">
<path d="M213 1.00739C211.671 0.929934 210.365 1.37492 209.36 2.24738H205.62C205.415 1.81029 205.09 1.44061 204.683 1.18164C204.275 0.922674 203.803 0.785156 203.32 0.785156C202.837 0.785156 202.365 0.922674 201.957 1.18164C201.55 1.44061 201.225 1.81029 201.02 2.24738H36.17C35.9652 1.81029 35.6401 1.44061 35.2327 1.18164C34.8254 0.922674 34.3527 0.785156 33.87 0.785156C33.3873 0.785156 32.9146 0.922674 32.5073 1.18164C32.0999 1.44061 31.7748 1.81029 31.57 2.24738H27.83C26.8249 1.37492 25.5187 0.929934 24.19 1.00739C21.92 1.00739 0 3.33734 0 3.33734C0 3.33734 21.92 5.65735 24.19 5.65735C25.5208 5.73749 26.8292 5.28815 27.83 4.40735H31.57C31.7748 4.84443 32.0999 5.21412 32.5073 5.47308C32.9146 5.73205 33.3873 5.86957 33.87 5.86957C34.3527 5.86957 34.8254 5.73205 35.2327 5.47308C35.6401 5.21412 35.9652 4.84443 36.17 4.40735H201.06C201.265 4.84443 201.59 5.21412 201.997 5.47308C202.405 5.73205 202.877 5.86957 203.36 5.86957C203.843 5.86957 204.315 5.73205 204.723 5.47308C205.13 5.21412 205.455 4.84443 205.66 4.40735H209.4C210.401 5.28815 211.709 5.73749 213.04 5.65735C215.31 5.65735 237.23 3.33734 237.23 3.33734C237.23 3.33734 215.27 1.00739 213 1.00739Z" fill="#847B73"/>
<path d="M119.66 13.2973C118.975 12.7182 118.107 12.3995 117.21 12.3973C116.871 11.8633 116.494 11.3553 116.08 10.8773C115.428 10.1187 114.682 9.44652 113.86 8.87731C114.284 8.80557 114.718 8.81899 115.137 8.91686C115.556 9.01472 115.951 9.19507 116.3 9.44731C116.909 9.90557 117.459 10.4361 117.94 11.0273C117.487 10.4102 116.948 9.86127 116.34 9.39727C115.985 9.12977 115.58 8.93693 115.148 8.83037C114.717 8.72381 114.268 8.70575 113.83 8.77727H113.75C112.084 7.60915 110.226 6.74266 108.26 6.21727C105.392 5.38808 102.33 5.52871 99.5499 6.6173C98.0047 7.23552 96.62 8.19631 95.4999 9.42729C94.4399 10.6273 93.3999 12.4273 94.2599 14.1673C94.4202 14.4143 94.6118 14.6395 94.8299 14.8373C94.5501 15.3251 94.3413 15.8504 94.2099 16.3973C94.1067 16.8355 94.1034 17.2914 94.2003 17.7311C94.2973 18.1708 94.4919 18.5831 94.7699 18.9373C95.3835 19.5797 96.1855 20.0104 97.0599 20.1673C100.098 20.7592 103.245 20.385 106.06 19.0973C105.969 19.2467 105.892 19.4041 105.83 19.5673C105.549 20.1635 105.453 20.8306 105.557 21.4817C105.66 22.1328 105.958 22.7376 106.41 23.2173C107.222 24.0948 108.26 24.7315 109.41 25.0573C110.429 25.3726 111.506 25.4509 112.56 25.2862C113.614 25.1216 114.616 24.7183 115.49 24.1073C116.468 23.3838 117.268 22.4467 117.83 21.3673C118.432 20.2834 118.755 19.0669 118.77 17.8273C118.77 17.6473 118.77 17.4773 118.77 17.3073C118.77 17.0773 118.77 16.8473 118.71 16.6273C118.65 16.4073 118.71 16.4973 118.71 16.4373C118.513 15.0404 118.022 13.7011 117.27 12.5073C118.126 12.5222 118.953 12.8212 119.62 13.3573C120.223 13.8443 120.773 14.3941 121.26 14.9973C120.809 14.358 120.271 13.7856 119.66 13.2973V13.2973ZM117.12 13.1973C116.929 12.9816 116.726 12.7779 116.51 12.5873H116.75C116.88 12.7473 117 12.9673 117.12 13.1673V13.1973ZM115.75 11.1973C116.1 11.5926 116.414 12.0175 116.69 12.4673C116.596 12.4825 116.502 12.5025 116.41 12.5273C115.795 11.9995 115.124 11.5401 114.41 11.1573C113.483 10.6722 112.512 10.2771 111.51 9.97728C112.061 9.59187 112.659 9.27929 113.29 9.04729C114.2 9.64184 115.027 10.3547 115.75 11.1673V11.1973ZM94.5099 14.0773C93.7499 12.5973 94.6999 10.8473 95.7399 9.6873C96.8341 8.50555 98.1809 7.58603 99.6799 6.9973C102.389 5.95659 105.366 5.83707 108.15 6.65727C109.947 7.15358 111.653 7.93701 113.2 8.97728C112.549 9.22996 111.934 9.56611 111.37 9.97728C109.421 9.42015 107.395 9.18372 105.37 9.27727C102.345 9.43412 99.4403 10.5163 97.0499 12.3773C96.2329 13.0254 95.527 13.8022 94.9599 14.6773C94.7787 14.4914 94.627 14.279 94.5099 14.0473V14.0773ZM110.91 10.2573L110.79 10.3473C108.79 11.8073 106.54 13.7873 103.59 14.8773C102.088 15.4383 100.493 15.7097 98.8899 15.6773C97.6171 15.7389 96.3516 15.4519 95.2299 14.8473C95.7783 13.9903 96.472 13.2356 97.2799 12.6173C99.6152 10.8087 102.45 9.76147 105.4 9.6173C107.257 9.54212 109.114 9.74775 110.91 10.2273V10.2573ZM97.1399 19.9573C96.3234 19.8023 95.5754 19.3969 94.9999 18.7973C94.7552 18.4771 94.5858 18.1057 94.5044 17.711C94.4231 17.3162 94.4318 16.9082 94.5299 16.5173C94.6492 16.0169 94.8376 15.5356 95.0899 15.0873C96.256 15.7093 97.5703 15.9999 98.8899 15.9273C100.523 15.953 102.146 15.6644 103.67 15.0773C106.67 13.9373 108.87 11.9273 110.87 10.4573L111.08 10.2973C112.171 10.6027 113.227 11.0216 114.23 11.5473C114.816 11.8628 115.366 12.2417 115.87 12.6773C115.195 12.9329 114.554 13.2686 113.96 13.6773C112.11 14.8973 110.21 16.6073 107.88 17.9773C107.997 17.6936 108.097 17.403 108.18 17.1073C108.322 16.6908 108.347 16.2436 108.254 15.8136C108.161 15.3837 107.952 14.9874 107.65 14.6673C107.02 14.0573 105.91 14.0173 105.57 14.6673C105.23 15.3173 105.94 16.0573 106.35 15.8473C106.76 15.6373 106.47 15.3073 106.49 15.3673C106.51 15.4273 106.61 15.6373 106.3 15.7173C105.99 15.7973 105.54 15.2773 105.8 14.7873C106.06 14.2973 106.96 14.3373 107.44 14.8573C107.675 15.0977 107.838 15.3991 107.91 15.7273L107.81 15.6273C107.738 15.5497 107.65 15.4891 107.552 15.4499C107.454 15.4106 107.349 15.3937 107.243 15.4004C107.138 15.4071 107.035 15.4373 106.943 15.4886C106.851 15.54 106.771 15.6113 106.71 15.6973C106.57 16.0473 106.94 16.4173 107.14 16.2873C107.34 16.1573 107.2 16.0073 107.21 16.0373C107.22 16.0673 107.28 16.1873 107.12 16.2273C106.96 16.2673 106.72 16.0173 106.83 15.7573C106.94 15.4973 107.44 15.4773 107.71 15.7573C107.876 15.9258 107.972 16.1508 107.98 16.3873C107.973 16.6181 107.922 16.8457 107.83 17.0573C107.59 17.8073 106.83 18.1873 106.34 18.7873C103.479 20.1588 100.249 20.5591 97.1399 19.9273V19.9573ZM108.98 24.8073C108.817 24.7737 108.659 24.7199 108.51 24.6473C108.372 24.6016 108.238 24.5448 108.11 24.4773L107.77 24.3073C107.655 24.241 107.545 24.1675 107.44 24.0873C107.031 23.8099 106.684 23.4491 106.424 23.0286C106.164 22.6081 105.996 22.1374 105.93 21.6473C105.907 20.5954 106.262 19.5701 106.93 18.7573C106.305 19.6 105.981 20.6283 106.01 21.6773C106.087 22.3614 106.381 23.0028 106.85 23.5073C106.628 23.2114 106.474 22.8698 106.4 22.5073C106.253 21.706 106.429 20.8789 106.89 20.2073C106.493 20.9114 106.358 21.7333 106.51 22.5273C106.643 23.1595 106.998 23.7235 107.51 24.1173L107.62 24.1973L107.76 24.2773C107.32 24.0234 106.996 23.6069 106.86 23.1173C106.829 22.8122 106.89 22.505 107.034 22.2344C107.179 21.9639 107.4 21.7421 107.67 21.5973C107.438 21.7814 107.26 22.0239 107.152 22.2997C107.045 22.5756 107.013 22.875 107.06 23.1673C107.173 23.495 107.356 23.7944 107.596 24.0447C107.836 24.295 108.127 24.4904 108.45 24.6173C108.604 24.676 108.761 24.726 108.92 24.7673L108.6 24.6773C108.83 24.7668 109.068 24.837 109.31 24.8873C109.141 24.8584 108.974 24.8183 108.81 24.7673L108.98 24.8073ZM114.68 24.4873L114.43 24.6273L114.19 24.7373C114.273 24.7078 114.353 24.671 114.43 24.6273C114.252 24.7246 114.065 24.8018 113.87 24.8573C113.773 24.8981 113.672 24.9315 113.57 24.9573C113.35 25.0257 113.127 25.0792 112.9 25.1173H112.54C111.987 25.1853 111.425 25.119 110.903 24.9241C110.381 24.7291 109.913 24.4112 109.54 23.9973C109.276 23.5908 109.122 23.1225 109.094 22.6385C109.066 22.1545 109.165 21.6716 109.38 21.2373C109.198 21.6818 109.128 22.1644 109.177 22.6424C109.225 23.1203 109.391 23.5789 109.66 23.9773C110.019 24.4162 110.504 24.7339 111.05 24.8873C110.82 24.7933 110.607 24.6615 110.42 24.4973C110.146 24.2708 109.944 23.97 109.837 23.631C109.731 23.2921 109.725 22.9296 109.82 22.5873V22.5873C109.771 22.9369 109.813 23.2931 109.94 23.6222C110.068 23.9512 110.278 24.2421 110.55 24.4673C111.064 24.8663 111.699 25.078 112.35 25.0673C111.969 25.0721 111.596 24.9605 111.28 24.7473C111.177 24.6619 111.094 24.5549 111.038 24.4339C110.981 24.3129 110.951 24.1809 110.951 24.0473C110.951 23.9136 110.981 23.7816 111.038 23.6606C111.094 23.5396 111.177 23.4327 111.28 23.3473C111.196 23.444 111.134 23.5571 111.096 23.6794C111.059 23.8017 111.047 23.9306 111.062 24.0576C111.077 24.1846 111.118 24.3071 111.184 24.4173C111.249 24.5274 111.336 24.6228 111.44 24.6973C111.822 24.8789 112.237 24.9813 112.66 24.9985C113.082 25.0156 113.504 24.9472 113.9 24.7973C114.061 24.7452 114.215 24.6747 114.36 24.5873C114.36 24.5873 114.3 24.6373 114.12 24.7173C114.322 24.6396 114.519 24.5495 114.71 24.4473L114.83 24.3673L114.68 24.4873ZM114.75 23.5973C113.62 23.6873 113.47 23.0573 113.44 23.0173C113.41 22.9773 113.76 23.5973 114.85 23.4773C115.635 23.3254 116.37 22.9819 116.99 22.4773C116.364 23.0488 115.586 23.4273 114.75 23.5673V23.5973ZM115.68 23.0473C114.68 23.2473 114.48 22.7073 114.47 22.7373C114.655 22.8679 114.869 22.9516 115.094 22.9812C115.319 23.0109 115.547 22.9855 115.76 22.9073C116.382 22.7367 116.957 22.4254 117.44 21.9973C116.955 22.4886 116.347 22.8407 115.68 23.0173V23.0473ZM117.01 22.3073C117.01 22.3073 116.56 22.6873 116.2 22.5573C115.84 22.4273 115.93 22.0473 115.92 22.0073C115.994 22.1859 116.133 22.3291 116.31 22.4073C116.6 22.4873 117.06 22.2573 117.06 22.2773L117.01 22.3073ZM118.23 16.8073C118.39 17.5036 118.41 18.2248 118.288 18.9288C118.166 19.6328 117.905 20.3055 117.52 20.9073L117.4 21.0573C116.75 21.7173 116.4 21.6073 115.94 21.4273C115.65 21.3273 115.46 21.2973 115.01 21.7973C114.844 22.0218 114.653 22.2264 114.44 22.4073C114.179 22.5934 113.87 22.701 113.55 22.7173C113.09 22.7173 112.18 22.0573 111.78 22.0573C111.66 22.0573 111.88 22.5273 112.26 22.9673C112.57 23.3189 112.938 23.6133 113.35 23.8373C113.76 23.9512 114.189 23.9798 114.61 23.9213C115.032 23.8628 115.437 23.7185 115.8 23.4973C115.066 24.0399 114.182 24.3405 113.27 24.3573C112.14 24.2673 112.14 23.8073 112.03 23.1873C111.96 22.8073 111.86 22.5873 111.25 22.5673C111.004 22.5874 110.756 22.5874 110.51 22.5673C110.249 22.4878 110.024 22.322 109.87 22.0973C109.66 21.7773 109.66 20.4473 109.35 20.2373C109.04 20.0273 108.75 22.5773 108.84 22.8873C108.975 23.502 109.307 24.0559 109.785 24.4654C110.263 24.8749 110.862 25.1178 111.49 25.1573C110.961 25.1557 110.434 25.0919 109.92 24.9673C109.186 24.6902 108.549 24.2034 108.09 23.5673C107.6 22.7473 107.95 22.3773 108.4 21.7373C108.67 21.3573 108.8 21.0773 108.32 20.6773C108.103 20.5469 107.899 20.3963 107.71 20.2273C107.524 20.0019 107.422 19.7194 107.42 19.4273C107.497 19.0493 107.615 18.6805 107.77 18.3273C110.21 16.8973 112.16 15.0973 114.03 13.8273C114.634 13.4176 115.286 13.0818 115.97 12.8273C117.177 13.8262 117.981 15.2301 118.23 16.7773V16.8073Z" fill="#847B73"/>
<path d="M115.83 14.9873C116.308 14.379 116.855 13.8286 117.46 13.3472C118.131 12.8111 118.961 12.5122 119.82 12.4973C119.068 13.691 118.578 15.0303 118.38 16.4273C118.38 16.4873 118.38 16.5473 118.38 16.6173C118.38 16.6873 118.38 17.0673 118.32 17.2973C118.31 17.4704 118.31 17.6441 118.32 17.8173C118.345 19.0556 118.667 20.2697 119.26 21.3573C119.824 22.4377 120.628 23.3749 121.61 24.0972C122.484 24.7083 123.486 25.1116 124.54 25.2762C125.594 25.4408 126.671 25.3625 127.69 25.0473C128.839 24.7186 129.876 24.0824 130.69 23.2072C131.137 22.7244 131.43 22.1193 131.532 21.4692C131.633 20.8191 131.539 20.1534 131.26 19.5573C131.206 19.3905 131.129 19.2323 131.03 19.0872C133.845 20.373 136.992 20.7471 140.03 20.1572C140.91 19.9942 141.715 19.5566 142.33 18.9072C142.606 18.5522 142.799 18.1396 142.894 17.6999C142.99 17.2602 142.985 16.8048 142.88 16.3673C142.757 15.8195 142.551 15.2935 142.27 14.8073C142.488 14.6095 142.68 14.3842 142.84 14.1372C143.7 12.4372 142.66 10.5972 141.6 9.39723C140.477 8.165 139.089 7.20414 137.54 6.58723C134.76 5.49865 131.698 5.35808 128.83 6.18727C126.867 6.71257 125.012 7.57911 123.35 8.74726H123.27C122.832 8.67575 122.383 8.69381 121.952 8.80037C121.52 8.90692 121.115 9.09977 120.76 9.36726C120.148 9.82746 119.609 10.3769 119.16 10.9973C119.639 10.4075 120.186 9.87709 120.79 9.41725C121.141 9.16521 121.538 8.98505 121.958 8.88722C122.379 8.78939 122.814 8.77581 123.24 8.84724C122.419 9.42127 121.67 10.0928 121.01 10.8472C120.6 11.3255 120.225 11.8336 119.89 12.3673C118.99 12.3714 118.12 12.6897 117.43 13.2672C116.819 13.7626 116.28 14.3416 115.83 14.9873V14.9873ZM120.33 12.5372H120.58C120.364 12.7278 120.161 12.9315 119.97 13.1472C120.06 12.9672 120.21 12.7472 120.33 12.5372ZM123.77 9.01722C124.399 9.2534 124.997 9.56577 125.55 9.94728C124.546 10.2424 123.575 10.6377 122.65 11.1273C121.936 11.5101 121.265 11.9695 120.65 12.4973L120.36 12.4373C120.643 11.9895 120.96 11.5648 121.31 11.1672C122.031 10.3441 122.858 9.62103 123.77 9.01722ZM142.12 14.6073C141.553 13.7322 140.847 12.9553 140.03 12.3073C137.636 10.446 134.729 9.36397 131.7 9.20723C129.675 9.11491 127.649 9.35132 125.7 9.90724C125.139 9.49625 124.528 9.16008 123.88 8.90724C125.413 7.87256 127.101 7.08935 128.88 6.58723C131.664 5.76628 134.641 5.8858 137.35 6.92726C138.871 7.50675 140.24 8.42694 141.35 9.61726C142.35 10.7773 143.35 12.5273 142.58 14.0073C142.457 14.229 142.302 14.4312 142.12 14.6073V14.6073ZM131.68 9.60725C134.634 9.7494 137.472 10.7968 139.81 12.6073C140.601 13.2294 141.277 13.9839 141.81 14.8372C140.691 15.4401 139.43 15.727 138.16 15.6672C136.554 15.6997 134.956 15.4283 133.45 14.8673C130.51 13.7773 128.28 11.7972 126.26 10.3372L126.14 10.2473C127.943 9.75292 129.812 9.53708 131.68 9.60725V9.60725ZM130.74 18.7772C130.28 18.1772 129.5 17.7773 129.25 17.0473C129.165 16.8336 129.118 16.607 129.11 16.3773C129.113 16.1399 129.211 15.9134 129.38 15.7473C129.65 15.4773 130.14 15.5073 130.25 15.7473C130.36 15.9873 130.12 16.2872 129.97 16.2172C129.82 16.1472 129.9 16.0172 129.87 16.0272C129.84 16.0372 129.73 16.1672 129.94 16.2772C130.15 16.3872 130.52 16.0373 130.37 15.6873C130.22 15.3373 129.63 15.2973 129.28 15.6173L129.17 15.7172C129.25 15.3898 129.416 15.0895 129.65 14.8472C130.13 14.3272 131.07 14.3272 131.29 14.7772C131.51 15.2272 131.09 15.7772 130.78 15.7072C130.47 15.6372 130.63 15.3373 130.59 15.3573C130.55 15.3773 130.32 15.6372 130.74 15.8372C131.16 16.0372 131.84 15.3072 131.51 14.6572C131.18 14.0072 130.06 14.0272 129.44 14.6572C129.136 14.9762 128.926 15.3725 128.833 15.8029C128.739 16.2332 128.766 16.6811 128.91 17.0972C128.993 17.393 129.093 17.6835 129.21 17.9672C126.87 16.5972 124.98 14.8872 123.13 13.6672C122.533 13.2568 121.889 12.9209 121.21 12.6672C121.719 12.2337 122.272 11.8549 122.86 11.5372C123.878 10.9991 124.951 10.5733 126.06 10.2672L126.27 10.4273C128.27 11.8973 130.49 13.9073 133.47 15.0473C134.994 15.6351 136.617 15.9237 138.25 15.8972C139.57 15.9698 140.884 15.6793 142.05 15.0573C142.302 15.5056 142.491 15.9869 142.61 16.4873C142.708 16.8788 142.716 17.2876 142.633 17.6826C142.55 18.0777 142.378 18.4485 142.13 18.7672C141.562 19.371 140.816 19.7775 140 19.9273C136.871 20.5664 133.618 20.1625 130.74 18.7772V18.7772ZM128.28 24.7172C128.117 24.7706 127.95 24.8107 127.78 24.8372C128.026 24.7891 128.267 24.7189 128.5 24.6273C128.32 24.6873 128.2 24.7072 128.17 24.7172C128.333 24.6784 128.494 24.6283 128.65 24.5673C128.97 24.4464 129.262 24.2592 129.505 24.018C129.748 23.7767 129.937 23.4868 130.06 23.1672C130.092 22.8724 130.045 22.5743 129.924 22.3037C129.803 22.033 129.611 21.7996 129.37 21.6273C129.638 21.7735 129.858 21.9959 130 22.2663C130.142 22.5368 130.201 22.8432 130.17 23.1472C130.03 23.6324 129.713 24.0468 129.28 24.3073L129.41 24.2272L129.53 24.1472C130.058 23.7587 130.43 23.1951 130.58 22.5573C130.726 21.7633 130.591 20.9434 130.2 20.2373C130.661 20.9089 130.837 21.7359 130.69 22.5372C130.616 22.8998 130.462 23.2413 130.24 23.5372C130.71 23.0346 131.001 22.3917 131.07 21.7072C131.107 20.6588 130.786 19.629 130.16 18.7872V18.7872C130.832 19.5978 131.188 20.6246 131.16 21.6773C131.099 22.1675 130.933 22.6389 130.674 23.0598C130.416 23.4806 130.07 23.8412 129.66 24.1173C129.553 24.1998 129.439 24.2734 129.32 24.3372L128.99 24.5073C128.862 24.5748 128.728 24.6316 128.59 24.6773C128.441 24.7499 128.283 24.8036 128.12 24.8372L128.28 24.7172ZM122.28 24.3773L122.4 24.4572C122.591 24.5594 122.788 24.6496 122.99 24.7272C122.901 24.6959 122.817 24.6522 122.74 24.5972C122.891 24.6798 123.048 24.7501 123.21 24.8073C123.606 24.9572 124.028 25.0256 124.45 25.0084C124.873 24.9913 125.288 24.8888 125.67 24.7072C125.773 24.632 125.86 24.536 125.924 24.4255C125.988 24.315 126.029 24.1923 126.043 24.0653C126.057 23.9383 126.044 23.8097 126.006 23.6878C125.968 23.5659 125.904 23.4533 125.82 23.3573C125.924 23.4416 126.009 23.5483 126.067 23.6694C126.124 23.7905 126.154 23.923 126.154 24.0573C126.154 24.1915 126.124 24.324 126.067 24.4451C126.009 24.5663 125.924 24.6729 125.82 24.7573C125.504 24.9704 125.131 25.082 124.75 25.0772C125.401 25.0879 126.036 24.8762 126.55 24.4772C126.826 24.2555 127.037 23.9647 127.164 23.6345C127.29 23.3042 127.327 22.9463 127.27 22.5972V22.5972C127.368 22.9394 127.363 23.3027 127.256 23.6422C127.15 23.9816 126.946 24.2824 126.67 24.5073C126.486 24.6754 126.273 24.8076 126.04 24.8972C126.59 24.7463 127.079 24.4284 127.44 23.9873C127.708 23.5883 127.873 23.1293 127.92 22.6512C127.967 22.1731 127.895 21.6908 127.71 21.2473C127.932 21.6793 128.035 22.1626 128.009 22.6475C127.982 23.1325 127.827 23.6018 127.56 24.0073C127.186 24.4205 126.719 24.7379 126.197 24.9328C125.675 25.1277 125.113 25.1944 124.56 25.1273H124.21C123.983 25.0891 123.76 25.0356 123.54 24.9672L123.23 24.8673C123.037 24.8158 122.852 24.7384 122.68 24.6372C122.755 24.6834 122.836 24.7204 122.92 24.7473L122.68 24.6372L122.43 24.4973L122.28 24.3773ZM120.06 22.4572C120.68 22.9618 121.415 23.3053 122.2 23.4572C123.29 23.5772 123.57 23.0173 123.61 22.9973C123.65 22.9773 123.42 23.6672 122.3 23.5772C121.46 23.4315 120.681 23.0421 120.06 22.4572V22.4572ZM119.6 21.9672C120.089 22.3918 120.666 22.7026 121.29 22.8773C121.503 22.9555 121.731 22.9809 121.956 22.9512C122.181 22.9216 122.395 22.8379 122.58 22.7072C122.58 22.7072 122.37 23.2172 121.37 23.0172C120.713 22.8213 120.117 22.4597 119.64 21.9672H119.6ZM120.74 22.3773C120.827 22.3393 120.905 22.2843 120.971 22.2156C121.036 22.147 121.087 22.0659 121.12 21.9772C121.12 21.9772 121.12 22.4072 120.85 22.5272C120.58 22.6472 120.03 22.2572 120.04 22.2772C120.05 22.2972 120.49 22.4873 120.78 22.3773H120.74ZM121.08 12.7373C121.761 12.9919 122.409 13.3277 123.01 13.7373C124.89 15.0073 126.84 16.8073 129.28 18.2373C129.435 18.5905 129.553 18.9592 129.63 19.3372C129.628 19.6293 129.526 19.9118 129.34 20.1372C129.148 20.3015 128.944 20.4519 128.73 20.5872C128.25 20.9872 128.37 21.2672 128.64 21.6472C129.1 22.2872 129.45 22.6472 128.95 23.4772C128.499 24.1168 127.864 24.6049 127.13 24.8773C126.616 25.0019 126.089 25.0657 125.56 25.0673C126.188 25.0262 126.785 24.7827 127.263 24.3735C127.741 23.9642 128.073 23.4112 128.21 22.7973C128.3 22.4873 127.88 20.0272 127.7 20.1472C127.52 20.2672 127.39 21.6873 127.17 22.0073C127.021 22.2362 126.793 22.4032 126.53 22.4772C126.287 22.4974 126.043 22.4974 125.8 22.4772C125.19 22.4772 125.08 22.7172 125.02 23.0972C124.91 23.7172 124.91 24.1772 123.78 24.2672C122.868 24.2504 121.984 23.9498 121.25 23.4072C121.613 23.6285 122.018 23.7728 122.44 23.8313C122.861 23.8898 123.29 23.8612 123.7 23.7473C124.11 23.5252 124.476 23.2304 124.78 22.8773C125.17 22.4373 125.38 21.9772 125.27 21.9672C124.87 21.9672 123.95 22.6473 123.5 22.6273C123.18 22.611 122.871 22.5034 122.61 22.3173C122.395 22.139 122.203 21.934 122.04 21.7072C121.59 21.2072 121.4 21.2372 121.1 21.3372C120.61 21.5172 120.3 21.6272 119.64 20.9672C119.612 20.9116 119.575 20.861 119.53 20.8173C119.146 20.2148 118.885 19.5426 118.762 18.839C118.638 18.1355 118.655 17.4144 118.81 16.7172C119.066 15.1523 119.888 13.736 121.12 12.7373H121.08Z" fill="#847B73"/>
<path d="M83.3002 12.0873C84.4388 13.0877 85.8168 13.7767 87.3002 14.0873C89.8702 14.6973 93.3703 13.6373 96.5103 12.0273C98.0429 11.1759 99.6454 10.4567 101.3 9.87739C102.764 9.42785 104.28 9.17233 105.81 9.11738C107.295 8.99423 108.788 9.22023 110.17 9.77735C108.751 9.43263 107.285 9.32121 105.83 9.44739C104.341 9.56595 102.873 9.87166 101.46 10.3574C99.8552 10.9956 98.3007 11.7544 96.8102 12.6274C93.7202 14.3574 90.0402 15.6273 87.1202 15.0273C85.4395 14.731 83.8705 13.9845 82.5802 12.8674C80.3852 10.885 78.6746 8.42517 77.5802 5.67737C75.9002 0.607373 71.0103 1.52736 71.0103 0.787359C71.0103 0.517359 72.0102 -0.0726095 73.9602 0.00739051C75.1679 0.0850475 76.3198 0.543699 77.2502 1.31739C78.2908 2.25631 79.1104 3.41399 79.6502 4.70734C81.1302 8.24734 81.7402 10.8073 83.3002 12.0873Z" fill="#847B73"/>
<path d="M86.64 12.6073C87.7232 13.3809 89.0099 13.8191 90.34 13.8673C92.65 14.0273 95.52 12.6973 98.24 11.2573C100.757 9.89689 103.569 9.17247 106.43 9.14729C107.718 9.10065 109.002 9.32201 110.2 9.79732C108.969 9.48327 107.699 9.34853 106.43 9.39729C103.632 9.51952 100.905 10.3154 98.4801 11.7173C95.8201 13.2073 92.8801 14.7173 90.3201 14.5873C88.8458 14.5681 87.411 14.1084 86.2001 13.2673C85.2773 12.6418 84.4256 11.9176 83.66 11.1073C82.6849 9.91941 82.0522 8.48804 81.83 6.9673C81.47 4.5973 81.35 2.67734 80.46 1.75734C79.57 0.837339 78.62 0.507319 78.71 0.237319C78.8 -0.0326807 79.8201 -0.182676 81.2901 0.867324C82.7601 1.91732 83.19 4.56731 83.52 6.66731C83.91 9.70731 85.19 11.6173 86.64 12.6073Z" fill="#847B73"/>
<path d="M88.7204 12.3373C89.7236 13.0375 90.9169 13.4144 92.1404 13.4173C94.2704 13.4173 96.7804 12.0273 99.3004 10.8073C101.646 9.71803 104.204 9.16464 106.79 9.1873C107.955 9.18239 109.11 9.38907 110.2 9.79728C109.09 9.49323 107.942 9.34514 106.79 9.35728C104.241 9.3954 101.731 9.9964 99.4404 11.1173C96.9804 12.3573 94.4404 13.8973 92.1404 13.8973C90.8174 13.9183 89.5207 13.5268 88.4304 12.7773C87.5377 12.2723 86.8115 11.5182 86.3404 10.6073C85.8103 9.34499 85.6173 7.96661 85.7804 6.60728C85.9504 4.50728 86.1404 2.66727 85.3804 1.72727C84.6204 0.787274 83.7004 0.607276 83.7704 0.417276C83.8404 0.227276 84.7704 0.127306 85.9904 1.19731C87.2404 2.42731 87.0704 4.69729 86.9204 6.67729C86.7569 7.88474 86.8179 9.11201 87.1004 10.2973C87.3668 11.1557 87.9447 11.8833 88.7204 12.3373V12.3373Z" fill="#847B73"/>
<path d="M154.28 12.8873C152.979 13.9846 151.414 14.7224 149.74 15.0273C146.83 15.6273 143.15 14.3573 140.05 12.6373C138.566 11.7586 137.014 10.9996 135.41 10.3674C133.994 9.88248 132.522 9.57674 131.03 9.45734C129.574 9.33081 128.108 9.44572 126.69 9.79737C128.077 9.24562 129.574 9.02974 131.06 9.16736C132.592 9.2238 134.111 9.47585 135.58 9.91736C137.236 10.5027 138.841 11.2218 140.38 12.0674C143.51 13.6774 147 14.7374 149.57 14.0674C151.05 13.7458 152.425 13.0582 153.57 12.0674C155.25 10.8774 155.74 8.20734 157.2 4.70734C157.74 3.41399 158.559 2.25631 159.6 1.31739C160.53 0.543699 161.682 0.0850475 162.89 0.00739051C164.89 -0.0726095 165.89 0.517359 165.84 0.787359C165.84 1.53736 160.95 0.607373 159.27 5.67737C158.247 8.46584 156.529 10.9473 154.28 12.8873V12.8873Z" fill="#847B73"/>
<path d="M150.69 13.2672C149.473 14.0931 148.041 14.545 146.57 14.5672C144.01 14.6772 141.08 13.1972 138.42 11.6972C135.979 10.2953 133.234 9.50607 130.42 9.39716C129.151 9.3484 127.881 9.48314 126.65 9.79718C127.847 9.31613 129.132 9.09455 130.42 9.14716C133.285 9.16356 136.101 9.88482 138.62 11.2472C141.33 12.6872 144.2 14.0172 146.51 13.8572C147.837 13.8 149.121 13.3664 150.21 12.6072C151.73 11.7072 152.95 9.68718 153.33 6.66718C153.66 4.56718 153.98 2.01719 155.56 0.867191C157.14 -0.282809 158.12 0.0871861 158.14 0.237186C158.16 0.387186 157.23 0.797206 156.39 1.75721C155.55 2.71721 155.39 4.59717 155.02 6.96717C154.804 8.49309 154.182 9.93306 153.22 11.1371C152.485 11.966 151.633 12.6836 150.69 13.2672V13.2672Z" fill="#847B73"/>
<path d="M148.46 12.7773C147.365 13.5162 146.071 13.9034 144.75 13.8873C142.44 13.8873 139.92 12.3473 137.45 11.1073C135.158 9.99012 132.649 9.38932 130.1 9.34728C128.948 9.34107 127.801 9.49249 126.69 9.79729C127.765 9.38138 128.907 9.16778 130.06 9.16728C132.649 9.13561 135.212 9.6858 137.56 10.7773C140.08 11.9873 142.56 13.4273 144.71 13.3873C145.931 13.3816 147.123 13.0089 148.13 12.3173C148.922 11.8939 149.515 11.1752 149.78 10.3173C150.045 9.12586 150.096 7.89659 149.93 6.6873C149.78 4.6873 149.61 2.43726 150.86 1.20726C152.07 0.137262 153.08 0.347293 153.08 0.427293C153.08 0.507293 152.2 0.807291 151.47 1.73729C150.74 2.66729 150.9 4.5173 151.07 6.6173C151.232 7.97398 151.05 9.34968 150.54 10.6173C150.088 11.5362 149.361 12.2912 148.46 12.7773V12.7773Z" fill="#847B73"/>
</svg>
