<svg width="238" height="31" viewBox="0 0 238 31" fill="none" xmlns="http://www.w3.org/2000/svg">
<path d="M212.99 18.4901C211.662 18.419 210.358 18.8632 209.35 19.7301H205.65C205.442 19.2963 205.116 18.93 204.709 18.6737C204.302 18.4173 203.831 18.2813 203.35 18.2812C202.869 18.2813 202.398 18.4173 201.991 18.6737C201.584 18.93 201.258 19.2963 201.05 19.7301H36.16C35.9523 19.2963 35.6261 18.93 35.2191 18.6737C34.8122 18.4173 34.341 18.2813 33.86 18.2812C33.379 18.2813 32.9078 18.4173 32.5008 18.6737C32.0938 18.93 31.7677 19.2963 31.56 19.7301H27.83C26.8217 18.8632 25.5178 18.419 24.19 18.4901C21.91 18.4901 0 20.8201 0 20.8201C0 20.8201 21.91 23.1501 24.19 23.1501C25.5199 23.2237 26.8259 22.7752 27.83 21.9001H31.56C31.7648 22.3372 32.0899 22.7069 32.4973 22.9658C32.9046 23.2248 33.3773 23.3623 33.86 23.3623C34.3427 23.3623 34.8154 23.2248 35.2227 22.9658C35.6301 22.7069 35.9552 22.3372 36.16 21.9001H201.02C201.225 22.3372 201.55 22.7069 201.957 22.9658C202.365 23.2248 202.837 23.3623 203.32 23.3623C203.803 23.3623 204.275 23.2248 204.683 22.9658C205.09 22.7069 205.415 22.3372 205.62 21.9001H209.35C210.354 22.7752 211.66 23.2237 212.99 23.1501C215.26 23.1501 237.18 20.8201 237.18 20.8201C237.18 20.8201 215.26 18.4901 212.99 18.4901Z" fill="#847B73"/>
<path d="M118.59 19.03C118.415 18.4809 118.152 17.964 117.81 17.5C117.325 16.6748 116.667 15.965 115.88 15.42C115.703 15.2973 115.519 15.1838 115.33 15.08C113.882 14.1631 112.304 13.4687 110.65 13.02C107.491 12.1335 104.2 11.8153 100.93 12.08C98.3085 12.3402 95.7212 12.8731 93.2102 13.67C92.5002 13.79 90.0401 14.58 87.8601 15.07C87.0591 15.254 86.2417 15.3578 85.4201 15.38C84.665 15.403 83.915 15.2489 83.2301 14.93C80.9901 13.93 80.2301 13.5 80.4501 14.72C80.6689 15.586 81.1062 16.3814 81.7202 17.03C82.1867 17.5611 82.7647 17.9825 83.4129 18.2643C84.0612 18.5461 84.7636 18.6812 85.4702 18.66C87.2902 18.54 88.3802 18.11 89.3402 18.02C90.1124 17.9034 90.8979 17.9034 91.6701 18.02C92.9601 18.18 93.9702 18.41 95.1802 17.02C96.7494 15.2453 98.8569 14.0335 101.18 13.57C104.248 12.8754 107.436 12.9062 110.49 13.66C110.75 13.73 111.01 13.79 111.26 13.87H111.1H110.85H110.71H110.44H108.65H108.38H108.24H107.97H107.81H107.56H107.39H107.16H106.97H106.76H106.55H106.36H106.12H105.96L105.7 13.93H105.56L105.28 14H105.16L104.86 14.08H104.76L104.45 14.17H104.37L104.03 14.27H103.97L103.65 14.38L103.5 14.44L103.24 14.54L103.13 14.59L102.83 14.72H102.76L102.43 14.87L102.08 15.05C101.204 15.5195 100.371 16.0649 99.5902 16.68L99.2702 16.94L98.9702 17.19L98.6902 17.42H98.6302L98.3802 17.64C98.351 17.6641 98.3242 17.6909 98.3002 17.72L98.0802 17.91C98.0415 17.9519 97.9979 17.9889 97.9501 18.02C97.8984 18.0784 97.8415 18.1319 97.7802 18.18L97.6002 18.34L97.4902 18.44L97.2301 18.68L96.0602 19.76L95.8302 19.98L95.7001 20.09C95.6543 20.1308 95.611 20.1742 95.5702 20.22L95.3601 20.4L95.3002 20.45C94.8001 20.9095 94.2688 21.3339 93.7102 21.72V21.72C93.4602 21.92 93.2001 22.1 92.9501 22.27H92.8901L92.7102 22.38L92.5902 22.46L92.4801 22.53L92.3102 22.64H92.2402L92.0302 22.76C91.2215 23.1979 90.3616 23.5338 89.4702 23.76C89.4702 23.76 89.4702 23.76 89.4702 23.76H89.3601H89.3102H89.2301H89.1602C88.7302 23.85 88.4602 23.88 88.4002 23.89H88.3102C88.1696 23.211 88.2685 22.5043 88.5902 21.89C88.6732 21.8796 88.7572 21.8796 88.8402 21.89C89.435 21.9782 89.9967 22.2194 90.4702 22.59C90.0371 22.1448 89.4661 21.8594 88.8502 21.78C88.7839 21.7695 88.7164 21.7695 88.6502 21.78C88.7618 21.574 88.9071 21.3881 89.0802 21.23C89.2615 21.0559 89.4907 20.9401 89.7384 20.8973C89.9861 20.8545 90.241 20.8868 90.4702 20.99C90.2457 20.8441 89.9777 20.7804 89.7116 20.8095C89.4455 20.8387 89.1977 20.959 89.0101 21.15C88.8114 21.3286 88.6426 21.538 88.5101 21.77C88.0116 21.8638 87.5574 22.1176 87.2163 22.493C86.8751 22.8684 86.6658 23.3449 86.6202 23.85C85.215 23.7594 83.8485 23.3526 82.6225 22.66C81.3966 21.9674 80.3429 21.0068 79.5402 19.85C77.8102 17.3 77.8502 14.09 78.8402 12.46C79.8302 10.83 81.4701 10.88 81.4201 10.57C81.4201 10.48 81.0801 10.27 80.4201 10.31C79.9135 10.3527 79.4217 10.5022 78.977 10.7486C78.5323 10.9951 78.1448 11.333 77.8402 11.74C77.3591 12.3857 77.0184 13.1248 76.8402 13.91C76.8402 13.77 76.8402 13.63 76.7902 13.48C76.7402 13.33 76.7901 13.09 76.8601 12.88C76.9889 11.8662 77.3836 10.9045 78.0044 10.0926C78.6251 9.28071 79.4497 8.64759 80.3943 8.25756C81.3389 7.86752 82.37 7.73445 83.3827 7.87189C84.3954 8.00932 85.3537 8.41235 86.1602 9.04003C86.5697 9.91721 86.6374 10.9156 86.3502 11.84C86.2143 12.2746 85.9117 12.6376 85.5087 12.8494C85.1057 13.0612 84.6351 13.1046 84.2001 12.97C83.5701 12.81 83.2001 12.61 83.2001 12.64C83.4826 12.843 83.8019 12.9891 84.1401 13.07C84.6069 13.229 85.1178 13.1961 85.5603 12.9786C86.0029 12.7611 86.3409 12.3767 86.5002 11.91C86.7673 11.0981 86.7673 10.222 86.5002 9.41003C86.856 9.78258 87.1017 10.2464 87.2102 10.75C87.3745 11.7353 87.2458 12.7472 86.8402 13.66C87.416 12.7733 87.6173 11.6947 87.4002 10.66C87.2525 9.95614 86.8678 9.32426 86.3102 8.87003C86.152 8.51332 85.9505 8.17745 85.7102 7.87003C85.022 7.27854 84.1737 6.90478 83.2728 6.79618C82.372 6.68758 81.4591 6.84902 80.6502 7.26003C79.7899 7.42006 78.9795 7.7805 78.2846 8.31213C77.5896 8.84377 77.0297 9.53165 76.6502 10.32C76.5602 10.49 76.4802 10.66 76.4002 10.83C76.549 9.66491 76.9779 8.55319 77.6502 7.59003C78.5204 6.52375 79.6856 5.73765 81.0002 5.33003C81.2602 5.27003 80.4802 5.19003 79.2902 5.59003C78.5319 5.86603 77.8487 6.31536 77.2948 6.90218C76.741 7.48901 76.3319 8.19711 76.1002 8.97003C76.2301 8.09976 76.2803 7.21943 76.2502 6.34003C76.2502 5.66003 75.5102 6.61003 75.2502 8.34003C75.107 9.58624 75.178 10.8478 75.4602 12.07C75.4602 11.93 75.3901 11.77 75.3601 11.61C75.0945 9.83677 74.4719 8.13583 73.5302 6.61003C72.6602 5.39003 71.8802 4.86003 72.0402 5.44003C72.2472 6.18731 72.5858 6.89168 73.0402 7.52003C72.3456 6.88189 71.5276 6.39292 70.6367 6.08333C69.7457 5.77373 68.8008 5.65009 67.8601 5.72003C70.1401 6.47003 72.5901 7.53003 73.8601 9.53003C74.0801 9.85003 74.2701 10.17 74.4501 10.53C73.5658 9.273 72.2224 8.41448 70.7102 8.14003C69.1002 7.77003 68.0201 7.39003 67.9201 7.36003C66.3155 6.80215 64.815 5.98091 63.4801 4.93003C62.4394 4.13556 61.7274 2.9858 61.4801 1.70003C61.3401 0.700029 61.4802 0.0500293 61.3702 0.0300293C61.0946 0.558509 60.9898 1.15946 61.0702 1.75003C61.1435 2.46837 61.3664 3.16339 61.7247 3.79032C62.0829 4.41725 62.5685 4.96219 63.1502 5.39003C64.5811 6.40353 66.1786 7.15829 67.8702 7.62003C68.7967 7.92357 69.7379 8.18056 70.6902 8.39003C71.6599 8.56497 72.5701 8.98083 73.3372 9.59939C74.1043 10.218 74.7037 11.0194 75.0802 11.93C75.1602 12.1 75.2302 12.27 75.3002 12.44C75.1994 12.2706 75.0893 12.107 74.9702 11.95C73.6992 10.3196 71.8464 9.24447 69.8002 8.95003L66.9402 8.45003C65.3166 8.05136 63.753 7.43937 62.2902 6.63003C59.4302 5.22003 60.0802 2.26003 59.7502 2.27003C59.6202 2.27003 59.2101 2.84003 59.2301 4.02003C59.2891 4.77776 59.5429 5.50739 59.9669 6.13814C60.3909 6.7689 60.9708 7.27936 61.6502 7.62003C63.8002 8.76003 65.6502 8.62003 66.7902 8.94003C66.8902 8.94003 68.0401 9.16003 69.6701 9.40003C71.6274 9.62836 73.4198 10.607 74.6701 12.13C75.0544 12.6191 75.3894 13.145 75.6701 13.7C75.3255 13.1361 74.927 12.607 74.4801 12.12C73.766 11.3626 72.9064 10.757 71.9528 10.3394C70.9992 9.92189 69.9711 9.70102 68.9302 9.69003C67.1802 9.69003 66.1102 9.91003 66.0002 9.87003C64.3662 9.78699 62.7574 9.43213 61.2402 8.82003C60.7009 8.68176 60.1965 8.43246 59.7591 8.08807C59.3217 7.74368 58.961 7.31179 58.7001 6.82003C58.4401 6.08003 58.6002 5.37003 58.3502 5.27003C58.1002 5.17003 57.4802 5.65003 57.4602 7.03003C57.4402 8.41003 58.9702 9.92003 60.6202 10.47C63.0002 11.3 64.8202 10.63 66.0502 10.68C66.1602 10.68 67.3601 10.47 68.9201 10.42C69.8773 10.4007 70.8287 10.573 71.7182 10.9268C72.6078 11.2806 73.4177 11.8087 74.1002 12.48C74.2975 12.6768 74.4844 12.8837 74.6602 13.1C74.1044 12.606 73.4595 12.2225 72.7601 11.97C71.7639 11.6051 70.6961 11.4783 69.6421 11.5999C68.5881 11.7214 67.5772 12.0879 66.6902 12.67C64.8067 13.9619 63.5038 15.9396 63.0602 18.18C62.6874 19.5693 62.6634 21.0292 62.9902 22.43C62.9902 23.16 63.0602 24.16 63.1302 25.22C63.2269 26.2613 63.156 27.3113 62.9201 28.33C62.5971 29.2336 62.0208 30.0251 61.2601 30.61C61.0901 30.72 61.6601 30.61 62.4201 30.11C62.882 29.7604 63.2543 29.3061 63.5064 28.7846C63.7584 28.2631 63.8831 27.6891 63.8702 27.11C64.0229 27.8137 64.2862 28.4887 64.6502 29.11C64.9302 29.66 65.1602 28.72 64.8702 27.41C64.7072 26.7259 64.4864 26.0568 64.2102 25.41C65.1875 27.0032 66.7018 28.1948 68.4801 28.77C70.2707 29.471 72.2596 29.471 74.0502 28.77C74.8206 28.4083 75.4623 27.82 75.8894 27.0837C76.3165 26.3475 76.5086 25.4984 76.4402 24.65C76.3978 24.1014 76.2115 23.5737 75.9002 23.12C75.9002 22.89 75.8302 22.68 75.7902 22.5C75.6699 21.9528 75.4676 21.4268 75.1902 20.94C75.3893 21.4583 75.553 21.9895 75.6802 22.53C75.6802 22.65 75.6801 22.79 75.7601 22.93L75.5002 22.68C75.2381 22.4698 74.9326 22.3204 74.6057 22.2426C74.2789 22.1648 73.9388 22.1605 73.6101 22.23C73.0838 22.2527 72.5753 22.4271 72.1459 22.7323C71.7165 23.0375 71.3846 23.4604 71.1902 23.95C70.7302 25.72 71.9702 26.44 71.9402 26.21C71.9402 26.35 70.9401 25.63 71.3901 24.01C71.5885 23.575 71.9061 23.2051 72.3061 22.9431C72.7061 22.6812 73.1721 22.538 73.6502 22.53C74.0817 22.4556 74.5258 22.5248 74.9142 22.7272C75.3026 22.9295 75.6138 23.2537 75.8002 23.65C75.818 24.2131 75.7127 24.7733 75.4916 25.2915C75.2706 25.8096 74.939 26.2733 74.5202 26.65C73.6328 27.3181 72.5463 27.6676 71.4359 27.6422C70.3255 27.6168 69.256 27.218 68.4002 26.51C67.3304 25.6675 66.4934 24.5658 65.9684 23.3094C65.4434 22.0529 65.2478 20.6832 65.4002 19.33C65.4755 17.9697 65.9501 16.6618 66.7647 15.5697C67.5793 14.4777 68.6977 13.6499 69.9801 13.19C72.4901 12.25 74.5402 14.19 75.5902 15.67C75.8502 16.05 76.0802 16.43 76.2902 16.79V16.88C75.5562 15.7568 74.5149 14.8682 73.2902 14.32C72.3548 13.9722 71.3255 13.9722 70.3901 14.32C69.7701 14.56 69.4802 14.79 69.5202 14.9C69.5202 15.24 71.0802 14.61 72.7902 15.44C74.5002 16.27 75.5602 19.29 77.7902 22.1C79.2122 23.8804 81.2291 25.0878 83.4702 25.5C84.4108 25.6669 85.3648 25.7472 86.3202 25.74C86.355 26.0115 86.4256 26.2771 86.5302 26.53C87.1802 28.65 89.9402 30.07 92.7202 29.72C95.5002 29.37 98.0902 27.07 99.7202 24.34C100.56 22.97 101.18 21.52 101.91 20.22C102.632 18.9772 103.558 17.8649 104.65 16.93C106.501 15.3268 108.835 14.3872 111.28 14.26H111.79L112.43 14.36C112.769 14.4356 113.103 14.5325 113.43 14.65C110.15 13.92 106.31 15.35 105.07 17.87C104.76 18.52 107.83 15.77 112.07 15.95C111.542 16.1304 111.077 16.4594 110.731 16.8975C110.385 17.3357 110.173 17.8643 110.12 18.42C110.03 19.42 110.46 18.75 111.75 17.96C112.67 17.3669 113.764 17.1024 114.853 17.2095C115.942 17.3166 116.963 17.7891 117.75 18.55C117.81 18.63 117.87 18.7 117.92 18.78C118.22 19.71 118.05 20.35 118.2 20.36C118.35 20.37 118.38 20.1 118.4 19.6C118.44 19.6617 118.471 19.7292 118.49 19.8L118.55 20.14C118.55 20.14 118.55 20.04 118.55 19.93C118.597 20.0353 118.631 20.1462 118.65 20.26C118.65 20.46 118.73 20.67 118.76 20.87L118.65 20.36L118.82 20.92C118.86 20.2813 118.782 19.6406 118.59 19.03V19.03ZM75.5902 12.82C75.595 12.7301 75.595 12.64 75.5902 12.55L75.6802 12.93C75.6524 12.8916 75.6224 12.8548 75.5902 12.82V12.82ZM75.6602 15.49C75.0634 14.5963 74.2869 13.8368 73.3802 13.26C72.8599 12.9228 72.2684 12.7111 71.6523 12.6417C71.0362 12.5723 70.4124 12.647 69.8301 12.86C68.4862 13.3289 67.3131 14.1887 66.4614 15.329C65.6097 16.4694 65.1182 17.8383 65.0502 19.26C64.8903 20.6596 65.0955 22.0767 65.6457 23.3735C66.196 24.6703 67.0726 25.8025 68.1902 26.66C70.2802 28.26 73.1302 28.12 74.5802 26.74C74.9737 26.3851 75.291 25.9539 75.5128 25.4725C75.7345 24.9912 75.8561 24.4698 75.8702 23.94C75.9506 24.1753 75.9944 24.4215 76.0002 24.67C76.0478 25.4338 75.8619 26.1939 75.4671 26.8494C75.0724 27.505 74.4875 28.0249 73.7902 28.34C72.1097 28.9712 70.2531 28.9462 68.5902 28.27C64.9102 27.15 62.3802 22.62 63.5302 18.27C63.9459 16.1692 65.1614 14.3119 66.9201 13.09C67.7377 12.5477 68.6707 12.2038 69.6446 12.0857C70.6186 11.9677 71.6067 12.0787 72.5302 12.41C73.3629 12.7186 74.1149 13.2119 74.7297 13.8527C75.3446 14.4935 75.8062 15.2653 76.0802 16.11V16.11C75.9502 15.94 75.8102 15.72 75.6502 15.49H75.6602ZM76.3002 11.93C76.4249 11.4154 76.613 10.9183 76.8601 10.45C77.2305 9.70128 77.7705 9.04927 78.4371 8.54583C79.1038 8.0424 79.8786 7.70143 80.7001 7.55003C81.504 7.33606 82.3523 7.35705 83.1445 7.6105C83.9368 7.86395 84.6398 8.33924 85.1701 8.98003C85.2992 9.15035 85.4194 9.32726 85.5302 9.51003C84.8622 9.06932 84.1135 8.76551 83.3273 8.61617C82.5411 8.46683 81.7332 8.47494 80.9501 8.64003C79.7787 8.89527 78.7106 9.49563 77.8835 10.3637C77.0565 11.2317 76.5085 12.3276 76.3102 13.51C76.2802 13.02 76.2802 12.48 76.3002 11.93V11.93ZM89.8702 25.26L90.0402 25.2C90.0876 25.1741 90.1379 25.1539 90.1902 25.14H90.2502L90.3802 25.09H90.4602H90.5802H90.6802H90.7902L90.9102 25.04H91.0101L91.1302 24.99H91.2502L91.3601 24.93L91.4902 24.87L91.6002 24.82L91.7402 24.74H91.8402L92.0101 24.65H92.0802L92.2902 24.53C92.8467 24.1996 93.3781 23.8286 93.8802 23.42C94.0702 23.29 94.2502 23.15 94.4302 23.01L94.5101 22.95L94.6802 22.8L94.8802 22.63H94.9402C96.5702 21.23 98.2202 19.39 100.18 17.87L100.5 17.63L100.8 17.41H100.85L101.14 17.21H101.21L101.48 17.03H101.57L101.84 16.86L101.93 16.81L102.2 16.66H102.29L102.56 16.51H102.66L102.94 16.37H103.03L103.33 16.24H103.4L103.73 16.11C104.825 15.6913 105.962 15.3896 107.12 15.21C106.29 15.2151 105.463 15.3022 104.65 15.47C102.49 16.47 100.74 18.59 99.2502 20.82C97.8872 22.958 96.1413 24.8259 94.1002 26.33C93.2727 26.9288 92.2595 27.2142 91.2413 27.1354C90.223 27.0567 89.2657 26.6189 88.5402 25.9L88.3402 25.59C88.8589 25.5252 89.3708 25.4147 89.8702 25.26V25.26ZM88.1202 22.88C87.7917 23.4919 87.6857 24.1987 87.8202 24.88C87.3708 24.9148 86.9195 24.9148 86.4702 24.88C86.4907 24.407 86.6618 23.953 86.9587 23.5842C87.2555 23.2154 87.6625 22.9511 88.1202 22.83V22.88ZM104.47 16.79C103.349 17.7101 102.395 18.8162 101.65 20.06C100.9 21.39 100.29 22.82 99.4602 24.17C97.8602 26.86 95.4601 29.17 92.6701 29.44C89.8801 29.71 87.3201 28.44 86.6701 26.44C86.5721 26.2029 86.5049 25.9542 86.4702 25.7C87.0402 25.7 87.5802 25.7 88.0902 25.61C88.1626 25.7499 88.2462 25.8837 88.3402 26.01C89.0863 26.7874 90.088 27.2691 91.1611 27.3665C92.2342 27.4639 93.3063 27.1704 94.1802 26.54C96.2558 25.0308 98.0326 23.1488 99.4201 20.99C100.461 19.085 101.958 17.4672 103.776 16.2808C105.594 15.0943 107.677 14.3761 109.84 14.19H110.12C108.038 14.5044 106.083 15.3867 104.47 16.74V16.79Z" fill="#847B73"/>
<path d="M117.89 20.95C117.89 20.89 117.96 20.69 118.05 20.39L117.98 20.87C117.98 20.67 118.05 20.46 118.09 20.26L118.18 20.03C118.18 20.14 118.18 20.22 118.18 20.24C118.206 20.1278 118.226 20.0143 118.24 19.9C118.264 19.8307 118.294 19.7638 118.33 19.7C118.33 20.2 118.49 20.5 118.53 20.46C118.57 20.42 118.53 19.81 118.81 18.88C118.86 18.8 118.92 18.73 118.98 18.65C119.767 17.889 120.788 17.4166 121.877 17.3094C122.967 17.2023 124.06 17.4668 124.98 18.06C126.27 18.85 126.7 19.54 126.62 18.52C126.562 17.9587 126.342 17.4264 125.987 16.9879C125.632 16.5493 125.157 16.2235 124.62 16.05C128.82 15.87 131.89 18.62 131.62 17.97C130.38 15.45 126.54 14.02 123.27 14.75C123.597 14.6325 123.931 14.5356 124.27 14.46L124.9 14.36H125.41C127.858 14.4716 130.198 15.3972 132.06 16.99C133.16 17.9135 134.096 19.0155 134.83 20.25C135.57 21.55 136.18 23 137.02 24.37C138.64 27.1 141.14 29.44 144.02 29.75C146.9 30.06 149.55 28.68 150.21 26.56C150.307 26.3053 150.374 26.0402 150.41 25.77C151.369 25.7768 152.326 25.6965 153.27 25.53C155.509 25.1126 157.524 23.9063 158.95 22.13C161.2 19.32 162.24 16.31 163.95 15.47C165.66 14.63 167.19 15.27 167.22 14.93C167.22 14.82 166.97 14.59 166.35 14.35C165.415 14.0022 164.386 14.0022 163.45 14.35C162.225 14.8982 161.184 15.7868 160.45 16.91V16.82C160.66 16.46 160.89 16.08 161.16 15.7C162.16 14.26 164.26 12.28 166.77 13.22C168.05 13.6632 169.172 14.4712 169.999 15.5444C170.825 16.6177 171.319 17.9093 171.42 19.26C171.581 20.6139 171.39 21.9864 170.864 23.2444C170.338 24.5024 169.497 25.6032 168.42 26.44C167.566 27.1471 166.498 27.5456 165.389 27.571C164.281 27.5964 163.196 27.2473 162.31 26.58C161.89 26.2038 161.557 25.7404 161.334 25.2223C161.111 24.7042 161.004 24.1438 161.02 23.58C161.206 23.1837 161.518 22.8595 161.906 22.6571C162.295 22.4548 162.739 22.3855 163.17 22.46C163.648 22.4667 164.115 22.6095 164.515 22.8716C164.915 23.1337 165.233 23.5042 165.43 23.94C165.9 25.56 164.86 26.28 164.88 26.14C164.88 26.37 166.09 25.65 165.63 23.88C165.438 23.3889 165.106 22.9646 164.677 22.6591C164.247 22.3536 163.737 22.1801 163.21 22.16C162.881 22.0912 162.542 22.0958 162.215 22.1736C161.888 22.2514 161.583 22.4004 161.32 22.61L161.07 22.86C161.07 22.72 161.07 22.58 161.14 22.46C161.273 21.9212 161.437 21.3903 161.63 20.87C161.359 21.3589 161.161 21.8843 161.04 22.43C160.985 22.6329 160.948 22.8404 160.93 23.05C160.609 23.4997 160.419 24.0291 160.38 24.58C160.315 25.428 160.508 26.2759 160.935 27.0116C161.361 27.7472 162.001 28.336 162.77 28.7C164.564 29.4006 166.556 29.4006 168.35 28.7C170.124 28.1219 171.635 26.9307 172.61 25.34C172.337 25.9869 172.119 26.656 171.96 27.34C171.67 28.65 171.9 29.59 172.17 29.04C172.534 28.4187 172.797 27.7437 172.95 27.04C172.939 27.6198 173.066 28.194 173.32 28.7155C173.573 29.237 173.947 29.6909 174.41 30.04C175.16 30.56 175.73 30.65 175.56 30.54C174.799 29.955 174.223 29.1635 173.9 28.26C173.662 27.2789 173.578 26.2669 173.65 25.26C173.72 24.2 173.77 23.2 173.8 22.47C174.122 21.0686 174.098 19.6101 173.73 18.22C173.279 15.9829 171.977 14.0078 170.1 12.71C169.211 12.1277 168.199 11.7612 167.143 11.6397C166.087 11.5182 165.018 11.645 164.02 12.01C163.321 12.2625 162.676 12.646 162.12 13.14C162.296 12.9237 162.483 12.7168 162.68 12.52C163.363 11.8486 164.172 11.3205 165.062 10.9668C165.952 10.613 166.903 10.4407 167.86 10.46C169.42 10.46 170.62 10.77 170.73 10.72C171.96 10.72 173.73 11.34 176.16 10.51C177.81 9.96 179.32 8.51 179.32 7.07C179.32 5.63 178.59 5.21 178.44 5.31C178.29 5.41 178.35 6.12 178.08 6.86C177.819 7.35176 177.459 7.78365 177.021 8.12804C176.584 8.47243 176.079 8.72173 175.54 8.86C174.023 9.4721 172.414 9.82696 170.78 9.91C170.67 9.91 169.6 9.73 167.85 9.73C166.809 9.74156 165.781 9.96268 164.828 10.3802C163.874 10.7977 163.015 11.403 162.3 12.16C161.856 12.6471 161.461 13.1762 161.12 13.74C161.393 13.1807 161.729 12.654 162.12 12.17C163.371 10.6478 165.163 9.66934 167.12 9.44C168.75 9.2 169.9 9.01 170 8.98C171.18 8.66 173 8.8 175.14 7.66C175.834 7.32142 176.428 6.80757 176.863 6.1692C177.298 5.53083 177.559 4.79004 177.62 4.02C177.62 2.84 177.22 2.24 177.1 2.27C176.76 2.27 177.41 5.27 174.55 6.63C173.088 7.44095 171.524 8.05303 169.9 8.45L167.04 8.95C164.998 9.24689 163.149 10.3218 161.88 11.95C161.76 12.11 161.65 12.27 161.54 12.44C161.61 12.27 161.68 12.1 161.76 11.93C162.137 11.0193 162.736 10.2179 163.503 9.59936C164.27 8.9808 165.18 8.56494 166.15 8.39C167.102 8.18053 168.044 7.92354 168.97 7.62C170.65 7.14471 172.234 6.3799 173.65 5.36C174.229 4.92913 174.712 4.38343 175.07 3.75708C175.428 3.13073 175.653 2.43723 175.73 1.72C175.811 1.12832 175.702 0.526267 175.42 0C175.31 0 175.42 0.67 175.31 1.67C175.067 2.95752 174.354 4.10877 173.31 4.9C171.977 5.94837 170.481 6.76942 168.88 7.33C168.77 7.33 167.69 7.74 166.08 8.11C164.57 8.38279 163.229 9.24199 162.35 10.5C162.52 10.19 162.72 9.87 162.94 9.5C164.21 7.5 166.66 6.44 168.94 5.69C168 5.62006 167.055 5.7437 166.164 6.0533C165.273 6.36289 164.455 6.85186 163.76 7.49C164.219 6.86404 164.558 6.15891 164.76 5.41C164.92 4.83 164.15 5.36 163.27 6.58C162.328 8.10449 161.708 9.80631 161.45 11.58C161.45 11.74 161.37 11.9 161.34 12.04C161.622 10.8177 161.693 9.55621 161.55 8.31C161.28 6.56 160.55 5.61 160.55 6.31C160.524 7.1897 160.577 8.07 160.71 8.94C160.475 8.16745 160.063 7.4601 159.508 6.87359C158.952 6.28709 158.269 5.83743 157.51 5.56C156.32 5.16 155.51 5.24 155.81 5.3C157.121 5.70938 158.283 6.49533 159.15 7.56C159.837 8.52493 160.273 9.64503 160.42 10.82C160.353 10.6467 160.273 10.4767 160.18 10.31C159.799 9.52256 159.239 8.83548 158.544 8.30402C157.85 7.77255 157.04 7.41154 156.18 7.25C155.328 7.02564 154.429 7.0526 153.591 7.32761C152.754 7.60263 152.014 8.11396 151.46 8.8C151.217 9.10718 151.012 9.44301 150.85 9.8C150.241 10.2569 149.815 10.9166 149.65 11.66C149.433 12.6947 149.634 13.7733 150.21 14.66C149.804 13.7472 149.676 12.7353 149.84 11.75C149.949 11.2463 150.194 10.7825 150.55 10.41C150.283 11.2219 150.283 12.0981 150.55 12.91C150.627 13.1415 150.749 13.3554 150.909 13.5394C151.069 13.7234 151.264 13.8737 151.482 13.9816C151.701 14.0896 151.939 14.153 152.182 14.1681C152.426 14.1833 152.67 14.1499 152.9 14.07C153.239 13.9832 153.561 13.8377 153.85 13.64C153.85 13.64 153.52 13.81 152.85 13.97C152.415 14.1046 151.945 14.0612 151.542 13.8494C151.139 13.6375 150.836 13.2746 150.7 12.84C150.418 11.915 150.485 10.9184 150.89 10.04C151.697 9.41232 152.655 9.00929 153.668 8.87186C154.68 8.73443 155.711 8.86749 156.656 9.25753C157.601 9.64757 158.425 10.2807 159.046 11.0926C159.667 11.9044 160.061 12.8662 160.19 13.88C160.19 14.09 160.25 14.29 160.27 14.48L160.21 14.91C160.036 14.1234 159.695 13.3833 159.21 12.74C158.913 12.3261 158.53 11.9802 158.089 11.725C157.648 11.4699 157.157 11.3114 156.65 11.26C155.95 11.26 155.65 11.43 155.65 11.52C155.6 11.83 157.23 11.7 158.23 13.41C159.23 15.12 159.23 18.25 157.54 20.8C156.737 21.9563 155.683 22.9165 154.457 23.609C153.231 24.3016 151.865 24.7087 150.46 24.8C150.411 24.2959 150.201 23.8211 149.86 23.4463C149.52 23.0715 149.067 22.8168 148.57 22.72C148.434 22.4874 148.262 22.2781 148.06 22.1C147.873 21.909 147.625 21.7887 147.359 21.7595C147.093 21.7303 146.825 21.7941 146.6 21.94C146.829 21.8368 147.084 21.8045 147.332 21.8473C147.58 21.89 147.809 22.0059 147.99 22.18C148.163 22.3381 148.308 22.524 148.42 22.73C148.354 22.7203 148.286 22.7203 148.22 22.73C147.605 22.8131 147.036 23.098 146.6 23.54C147.074 23.1694 147.635 22.9282 148.23 22.84C148.313 22.8295 148.397 22.8295 148.48 22.84C148.802 23.4543 148.901 24.161 148.76 24.84H148.65C148.59 24.84 148.31 24.84 147.89 24.71H147.84H147.77H147.69H147.65H147.54C146.649 24.4821 145.79 24.1463 144.98 23.71V23.71L144.77 23.59H144.71L144.53 23.48L144.42 23.41L144.3 23.33L144.12 23.22H144.06C143.81 23.05 143.56 22.87 143.3 22.67C142.716 22.1841 142.164 21.6596 141.65 21.1L141.59 21.05L141.39 20.87L141.25 20.74L141.12 20.63L140.89 20.41L139.65 19.26L139.39 19.02L139.28 18.92L139.1 18.76L138.93 18.6L138.81 18.49L138.59 18.3L138.5 18.22L138.25 18H138.19L137.91 17.77L137.6 17.52L137.27 17.26C136.491 16.6425 135.658 16.0969 134.78 15.63L134.43 15.45L134.1 15.3H134.03L133.73 15.17L133.62 15.12L133.36 15.02L133.21 14.96L132.9 14.85H132.83L132.5 14.75H132.42L132.1 14.66H132L131.7 14.58H131.58L131.3 14.51H131.16L130.9 14.45H130.74H130.5H130.32H130.1H129.89H129.7H129.47H129.3H129.05H128.9H128.63H128.49H128.21H126.43H126.17H126.02H125.77H125.61C125.86 14.37 126.12 14.31 126.38 14.24C129.434 13.4862 132.622 13.4554 135.69 14.15C138.013 14.6135 140.121 15.8253 141.69 17.6C142.91 19 143.91 18.77 145.2 18.6C145.972 18.4835 146.758 18.4835 147.53 18.6C148.53 18.69 149.53 19.12 151.41 19.24C152.115 19.2604 152.816 19.1249 153.462 18.8431C154.109 18.5613 154.685 18.1403 155.15 17.61C155.772 16.9675 156.211 16.1697 156.42 15.3C156.59 14.08 155.88 14.49 153.64 15.51C152.956 15.8299 152.205 15.9841 151.45 15.96C150.632 15.9382 149.818 15.8343 149.02 15.65C146.84 15.16 144.37 14.37 143.66 14.25C141.149 13.4531 138.562 12.9202 135.94 12.66C132.67 12.3957 129.379 12.7139 126.22 13.6C124.575 14.0486 123.008 14.7431 121.57 15.66C121.378 15.7637 121.191 15.8772 121.01 16C120.223 16.545 119.565 17.2547 119.08 18.08C118.742 18.5464 118.479 19.0626 118.3 19.61C118.108 20.0266 117.974 20.4673 117.9 20.92L117.89 20.95ZM161.1 12.95C161.12 12.821 161.15 12.6939 161.19 12.57C161.169 12.659 161.152 12.7492 161.14 12.84C161.126 12.8685 161.116 12.8988 161.11 12.93L161.1 12.95ZM160.65 16.16C160.924 15.3152 161.386 14.5435 162.001 13.9027C162.615 13.2618 163.367 12.7686 164.2 12.46C165.125 12.1294 166.115 12.0187 167.09 12.1367C168.066 12.2548 169 12.5983 169.82 13.14C171.573 14.366 172.784 16.2219 173.2 18.32C174.36 22.62 171.82 27.15 168.15 28.32C166.484 28.9968 164.624 29.0218 162.94 28.39C162.246 28.0703 161.665 27.5495 161.27 26.895C160.876 26.2406 160.688 25.4828 160.73 24.72C160.741 24.472 160.784 24.2264 160.86 23.99C160.874 24.5198 160.996 25.0412 161.218 25.5225C161.439 26.0038 161.757 26.4351 162.15 26.79C163.6 28.17 166.46 28.31 168.54 26.71C169.66 25.8536 170.538 24.7219 171.09 23.425C171.642 22.1282 171.849 20.7105 171.69 19.31C171.43 16.31 169.47 13.66 166.91 12.96C166.327 12.7454 165.701 12.6697 165.083 12.7392C164.465 12.8086 163.872 13.0212 163.35 13.36C162.447 13.9251 161.671 14.6707 161.07 15.55C160.93 15.72 160.79 15.94 160.65 16.16ZM160.42 13.51C160.231 12.3238 159.686 11.2231 158.857 10.3535C158.029 9.48382 156.956 8.8863 155.78 8.64C154.999 8.47348 154.192 8.46467 153.407 8.61406C152.623 8.76346 151.876 9.06806 151.21 9.51C151.314 9.32282 151.434 9.14542 151.57 8.98C152.101 8.33921 152.804 7.86392 153.596 7.61047C154.388 7.35702 155.236 7.33603 156.04 7.55C156.86 7.70284 157.633 8.04447 158.298 8.54783C158.962 9.05119 159.501 9.70244 159.87 10.45C160.116 10.9199 160.307 11.4165 160.44 11.93C160.47 12.48 160.46 13.02 160.43 13.51H160.42ZM148.42 25.59C148.36 25.69 148.3 25.79 148.22 25.9C147.495 26.6188 146.537 27.0566 145.519 27.1354C144.501 27.2141 143.488 26.9287 142.66 26.33C140.621 24.8232 138.876 22.9557 137.51 20.82C136.02 18.59 134.28 16.51 132.11 15.47C131.279 15.0206 130.4 14.6651 129.49 14.41C130.648 14.5923 131.784 14.8939 132.88 15.31L133.2 15.44H133.28L133.57 15.57H133.66L133.95 15.71H134.04L134.32 15.86H134.41L134.68 16.01L134.77 16.06L135.04 16.23H135.12L135.4 16.41H135.47L135.75 16.61H135.8L136.1 16.83L136.41 17.07C138.41 18.59 140.02 20.43 141.65 21.83H141.71L141.91 22L142.08 22.15L142.16 22.21C142.34 22.35 142.52 22.49 142.71 22.62C143.214 23.0263 143.745 23.3972 144.3 23.73V23.73L144.65 24.26H144.72L144.9 24.35H144.99L145.13 24.43L145.24 24.48L145.37 24.54L145.49 24.6H145.6L145.72 24.65H145.83L145.94 24.7H146.05H146.15H146.27H146.35L146.49 24.75H146.55C146.602 24.7657 146.652 24.7857 146.7 24.81V24.81L146.87 24.87C147.371 25.1622 147.901 25.4034 148.45 25.59H148.42ZM150.24 24.79C149.791 24.8248 149.339 24.8248 148.89 24.79C149.025 24.1087 148.919 23.4018 148.59 22.79C149.047 22.9002 149.457 23.1538 149.759 23.5137C150.061 23.8736 150.241 24.3209 150.27 24.79H150.24ZM126.65 14.19H126.93C129.092 14.3759 131.174 15.0942 132.99 16.2807C134.807 17.4673 136.301 19.0852 137.34 20.99C138.728 23.1488 140.505 25.0308 142.58 26.54C143.454 27.1703 144.526 27.4638 145.599 27.3665C146.672 27.2691 147.674 26.7874 148.42 26.01C148.514 25.8836 148.598 25.7499 148.67 25.61C149.18 25.61 149.72 25.69 150.3 25.7C150.257 25.9535 150.186 26.2016 150.09 26.44C149.47 28.44 146.8 29.79 144.09 29.44C141.38 29.09 138.89 26.86 137.3 24.17C136.47 22.82 135.86 21.39 135.1 20.06C134.357 18.7945 133.395 17.6705 132.26 16.74C130.659 15.392 128.718 14.5099 126.65 14.19V14.19Z" fill="#847B73"/>
<path d="M121.73 20.8199C121.73 21.441 121.546 22.0481 121.201 22.5644C120.856 23.0808 120.366 23.4833 119.792 23.7209C119.218 23.9586 118.587 24.0208 117.978 23.8996C117.369 23.7784 116.809 23.4794 116.37 23.0402C115.931 22.6011 115.632 22.0416 115.511 21.4325C115.389 20.8234 115.452 20.1921 115.689 19.6183C115.927 19.0445 116.329 18.5541 116.846 18.2091C117.362 17.8641 117.969 17.6799 118.59 17.6799C119.422 17.6826 120.219 18.0142 120.808 18.6025C121.396 19.1908 121.728 19.988 121.73 20.8199V20.8199Z" fill="#847B73"/>
</svg>
