<?xml version="1.0" encoding="utf-8"?>
<!-- Generator: Adobe Illustrator 26.2.1, SVG Export Plug-In . SVG Version: 6.00 Build 0)  -->
<svg version="1.1" xmlns="http://www.w3.org/2000/svg" xmlns:xlink="http://www.w3.org/1999/xlink" x="0px" y="0px"
	 viewBox="0 0 48 48" style="enable-background:new 0 0 48 48;" xml:space="preserve">
<style type="text/css">
	.st0{fill:none;stroke:#FF6500;stroke-miterlimit:10;}
	.st1{fill:#FFFFFF;stroke:#1F252D;stroke-linecap:round;stroke-linejoin:round;stroke-miterlimit:10;}
	.st2{fill:#FFFFFF;}
	.st3{display:none;}
	.st4{display:inline;fill:#FFFFFF;}
	.st5{display:inline;}
	.st6{display:inline;fill:#FFFFFF;stroke:#1F252D;stroke-linejoin:round;stroke-miterlimit:10;}
	.st7{fill:none;stroke:#1F252D;stroke-linecap:round;stroke-miterlimit:10;}
	.st8{fill:none;stroke:#1F252D;stroke-linecap:round;stroke-linejoin:round;stroke-miterlimit:10;}
	.st9{fill:none;stroke:#1F252D;stroke-linejoin:round;stroke-miterlimit:10;}
	.st10{fill:none;stroke:#1F252D;stroke-miterlimit:10;}
	.st11{fill:#FFFFFF;stroke:#1F252D;stroke-miterlimit:10;}
</style>
<g id="guides_4_">
</g>
<g id="desc">
</g>
<g id="factory">
</g>
<g id="Warstwa_4">
	<g>
		<g>
			<polyline class="st8" points="20.8,25.6 31.9,25.6 31.9,36.7 			"/>
			<g>
				<rect x="15.2" y="31.2" class="st8" width="11.1" height="11.1"/>
				<line class="st8" x1="15.2" y1="31.2" x2="20.8" y2="25.6"/>
				<line class="st8" x1="31.9" y1="25.6" x2="26.3" y2="31.2"/>
				<line class="st8" x1="31.9" y1="36.7" x2="26.3" y2="42.3"/>
			</g>
		</g>
		<g>
			<polyline class="st8" points="11.3,5.7 22.4,5.7 22.4,16.8 			"/>
			<g>
				<rect x="5.7" y="11.2" class="st8" width="11.1" height="11.1"/>
				<line class="st8" x1="5.7" y1="11.2" x2="11.3" y2="5.7"/>
				<line class="st8" x1="22.4" y1="5.7" x2="16.8" y2="11.2"/>
				<line class="st8" x1="22.4" y1="16.8" x2="16.8" y2="22.4"/>
			</g>
		</g>
		<g>
			<path class="st8" d="M33.3,29.7h2.5c1.2,0,2.1,0.9,2.1,2.1v0c0,1.2-0.9,2.1-2.1,2.1h-2.5"/>
			<path class="st8" d="M38.3,24.6v2.8c0,1.2,0.9,2.1,2.1,2.1h0c1.2,0,2.1-0.9,2.1-2.1v-2.8c0-1.2-0.9-2.1-2.1-2.1h0
				C39.2,22.5,38.3,23.4,38.3,24.6z"/>
			<path class="st8" d="M38.3,15.4v2.8c0,1.2,0.9,2.1,2.1,2.1h0c1.2,0,2.1-0.9,2.1-2.1v-2.8c0-1.2-0.9-2.1-2.1-2.1h0
				C39.2,13.3,38.3,14.3,38.3,15.4z"/>
			<line class="st8" x1="36.2" y1="31.8" x2="40.4" y2="27.6"/>
			<line class="st8" x1="40.4" y1="24.4" x2="40.4" y2="18.5"/>
			<path class="st8" d="M33.1,12.8h2.8c1.2,0,2.1-0.9,2.1-2.1v0c0-1.2-0.9-2.1-2.1-2.1h-2.8C32,8.6,31,9.6,31,10.7v0
				C31,11.9,32,12.8,33.1,12.8z"/>
			<line class="st8" x1="40.3" y1="14.9" x2="36.2" y2="10.7"/>
			<line class="st8" x1="32.9" y1="10.7" x2="27" y2="10.7"/>
		</g>
		<path class="st8" d="M24,8.6h2.5c1.2,0,2.1,0.9,2.1,2.1v0c0,1.2-0.9,2.1-2.1,2.1H24"/>
	</g>
</g>
</svg>
