<svg width="53" height="64" viewBox="0 0 53 64" fill="none" xmlns="http://www.w3.org/2000/svg">
<g clip-path="url(#clip0_838_214868)">
<path d="M9.682 17.5301C9.53746 17.5306 9.39376 17.5082 9.25619 17.4639L7.67407 20.2364C7.90133 20.438 8.05622 20.7085 8.11502 21.0066L9.88071 21.0388C9.92747 20.7571 10.0354 20.4891 10.1969 20.2537C10.3585 20.0183 10.5696 19.8212 10.8156 19.6762L9.92991 17.5074C9.84816 17.5226 9.76516 17.5302 9.682 17.5301V17.5301Z" fill="#FDFDFD"/>
<path d="M11.0106 16.5322C10.92 16.8417 10.7238 17.1095 10.4561 17.2892L11.3398 19.4599C11.4922 19.4226 11.6485 19.4036 11.8054 19.4031C12.1834 19.4045 12.5529 19.5156 12.869 19.723L15.3292 17.5258C15.1731 17.3282 15.0731 17.0922 15.0397 16.8426L11.0106 16.5322Z" fill="#FDFDFD"/>
<path d="M13.7584 21.3588C13.7581 21.4353 13.7531 21.5118 13.7433 21.5877L15.1532 21.9662C15.2633 21.7139 15.4254 21.4876 15.6289 21.302C15.8324 21.1165 16.0726 20.9759 16.3341 20.8894V18.0507C16.1359 18.0403 15.9422 17.9874 15.7663 17.8955L13.2966 20.1021C13.5948 20.4529 13.7585 20.8984 13.7584 21.3588Z" fill="#FDFDFD"/>
<path d="M31.6594 25.5367C31.9229 25.5361 32.1838 25.5896 32.4259 25.6938L32.9633 24.6529C32.7558 24.483 32.6025 24.256 32.5224 24C32.5016 24 32.4807 24 32.4599 24.0114C31.7872 24.1441 31.1302 24.3464 30.4993 24.6151C30.4179 24.6491 30.3385 24.6908 30.2571 24.7286L30.7908 25.7373C31.0609 25.604 31.3582 25.5354 31.6594 25.5367V25.5367Z" fill="#FDFDFD"/>
<path d="M17.7023 16.1638C17.7294 16.2347 17.7516 16.3074 17.7685 16.3815H21.0255C21.0907 16.0704 21.261 15.7913 21.5078 15.5911C21.7545 15.3909 22.0627 15.2817 22.3805 15.2819V15.2819L22.9596 12.5586C22.8378 12.5043 22.7244 12.4329 22.6227 12.3467L17.7023 16.1638Z" fill="#FDFDFD"/>
<path d="M17.7686 16.9492C17.7206 17.1769 17.6161 17.3888 17.4646 17.5655C17.3131 17.7421 17.1196 17.8777 16.9019 17.9598V20.7985H16.9435C17.3261 20.7987 17.7 20.9119 18.0184 21.124L21.2659 17.4867C21.1482 17.3268 21.0663 17.1435 21.0256 16.9492H17.7686Z" fill="#FDFDFD"/>
<path d="M27.7211 26.1374C27.9293 25.8291 28.1747 25.5475 28.4516 25.2991C28.7761 25.0036 29.1359 24.7494 29.5227 24.5421L28.5613 22.7158C28.3537 22.7904 28.1348 22.8288 27.9141 22.8294C27.826 22.8291 27.7381 22.8221 27.6511 22.8086C27.6643 22.9637 27.6738 23.1189 27.6851 23.2741L27.7268 23.9043V23.9251V23.963C27.4002 25.3748 26.8839 26.7359 26.192 28.0091C26.1011 28.1662 26.0027 28.3232 25.9119 28.4784C26.3452 28.0053 26.7389 27.4962 27.1249 26.9796L27.7211 26.1374Z" fill="#FDFDFD"/>
<path d="M9.87126 24.9561C10.0209 24.9566 10.1701 24.9738 10.316 25.0072L10.9367 23.1147C10.6504 22.9716 10.4035 22.7605 10.2178 22.4999C10.032 22.2392 9.91304 21.937 9.87126 21.6196L8.10557 21.5742C8.03543 21.8812 7.86331 22.1554 7.61731 22.352L9.01964 25.1491C9.28517 25.021 9.57641 24.9549 9.87126 24.9561V24.9561Z" fill="#FDFDFD"/>
<path d="M30.3233 24.1844C30.9966 23.9375 31.6945 23.7636 32.405 23.6658H32.4655C32.4655 23.6393 32.4655 23.6147 32.4655 23.5901C32.4652 23.4882 32.4766 23.3866 32.4996 23.2873L29.553 21.9531C29.422 22.1534 29.256 22.3284 29.0629 22.4698L30.0337 24.3149C30.1302 24.262 30.2267 24.2241 30.3233 24.1844Z" fill="#FDFDFD"/>
<path d="M11.5612 25.9272L15.174 23.5578C15.0519 23.301 14.9874 23.0207 14.9847 22.7365C14.985 22.6605 14.99 22.5847 14.9999 22.5094L13.59 22.1309C13.4383 22.4797 13.1881 22.7767 12.8701 22.9854C12.5521 23.1942 12.1801 23.3056 11.7997 23.3061C11.6893 23.3056 11.5791 23.2954 11.4704 23.2758L10.844 25.2175C11.1405 25.3879 11.3877 25.6325 11.5612 25.9272V25.9272Z" fill="#FDFDFD"/>
<path d="M21.1674 21.2303C21.1764 20.9283 21.2838 20.6376 21.4735 20.4025C21.6632 20.1674 21.9246 20.0008 22.2178 19.9282L22.1477 18.0357C21.9867 18.0078 21.8317 17.9521 21.6898 17.8711L18.4423 21.4952C18.5542 21.6288 18.6472 21.7771 18.7186 21.9361L21.1674 21.2303Z" fill="#FDFDFD"/>
<path d="M14.9506 25.3589C15.1741 25.2543 15.4144 25.1902 15.6603 25.1697L15.8136 25.1564C16.14 25.0618 16.4421 24.8979 16.6993 24.6757C16.2304 24.6163 15.7992 24.3883 15.4862 24.0342L11.7731 26.4736C11.8065 26.6156 11.8237 26.761 11.8242 26.907C11.8241 27.0909 11.7973 27.2739 11.7448 27.4501L12.4412 27.6715L13.4764 27.98C13.8738 27.98 14.6251 28.1693 14.8011 28.0784C14.8294 28.0655 14.8566 28.0503 14.8825 28.033C14.7429 27.853 14.6164 27.6633 14.504 27.4653C14.451 27.3612 14.3999 27.2571 14.3507 27.1473L14.2882 26.9675L14.258 26.8767L14.2409 26.7764C14.179 26.4936 14.2143 26.1982 14.3412 25.938C14.4714 25.6804 14.6867 25.4757 14.9506 25.3589V25.3589Z" fill="#FDFDFD"/>
<path d="M24.5436 24.5194C24.2985 24.661 24.0238 24.7439 23.7412 24.7616C23.5168 24.7771 23.2941 24.8107 23.075 24.8619C22.9939 24.8885 22.9173 24.9274 22.848 24.9773C22.7652 25.0338 22.6873 25.0971 22.6152 25.1666C22.4527 25.3232 22.3003 25.4901 22.1591 25.6662L22.055 25.7911C22.052 25.8003 22.0482 25.8091 22.0436 25.8176C21.5402 26.7525 21.1617 28.2778 21.1769 29.7559C21.1939 31.4591 23.1697 30.3804 24.3468 29.5874C24.3998 29.5325 24.4547 29.4796 24.5058 29.4228C24.964 28.9052 25.3645 28.3391 25.6999 27.7347C26.0378 27.1233 26.3367 26.4912 26.5951 25.8422C26.8474 25.1962 27.0745 24.537 27.2764 23.8646L27.3161 23.2779C27.3275 23.1019 27.3388 22.9259 27.354 22.7499C27.0136 22.6466 26.7078 22.4527 26.4692 22.189C26.2305 21.9254 26.068 21.6018 25.9989 21.2529L23.9304 21.3494C23.9093 21.7012 23.7548 22.0318 23.4985 22.2737C23.2422 22.5156 22.9033 22.6507 22.5508 22.6515C22.4875 22.6502 22.4243 22.6451 22.3616 22.6363C21.8239 23.6163 21.4143 24.6613 21.1428 25.7457C21.2772 25.5564 21.4267 25.3672 21.5743 25.1779C21.7412 24.9726 21.9262 24.7826 22.1269 24.6102C22.237 24.5177 22.3547 24.4347 22.4789 24.3623C22.6169 24.2822 22.7682 24.2277 22.9255 24.2014C23.1896 24.1652 23.4569 24.1594 23.7223 24.1844C23.9314 24.2063 24.1428 24.1876 24.3449 24.1295C24.5384 24.0511 24.6994 23.9088 24.801 23.7264C24.9206 23.5167 25.017 23.2946 25.0887 23.064C25.1124 23.318 25.0919 23.5741 25.0281 23.821C24.9601 24.1064 24.7871 24.3557 24.5436 24.5194V24.5194Z" fill="#FDFDFD"/>
<path d="M7.60024 29.4773C8.07261 29.7728 8.5631 30.0382 9.06881 30.2721C9.34259 30.3983 9.61889 30.5245 9.89771 30.6506L10.087 30.6847C11.1732 30.8882 12.2333 31.2126 13.2474 31.6518C14.9336 32.0151 15.8401 32.9576 16.2754 33.7202C16.3591 33.8207 16.4309 33.9306 16.4892 34.0476C16.5564 34.1835 16.6017 34.3291 16.6236 34.4791C16.6423 34.5008 16.6657 34.518 16.692 34.5293C16.7182 34.5407 16.7468 34.5459 16.7754 34.5446C16.804 34.5433 16.8319 34.5356 16.8571 34.522C16.8823 34.5083 16.904 34.4891 16.9207 34.4659C17.5415 33.6086 18.904 31.2127 15.9404 29.8123C15.6982 29.6968 15.4749 29.5965 15.2705 29.5057C15.138 29.4659 15.0055 29.4262 14.8731 29.3902C14.4033 29.25 13.9437 29.078 13.4972 28.8755C13.0489 28.6713 12.6156 28.4354 12.2009 28.1696C12.0116 28.039 11.8091 27.9009 11.6331 27.7513C11.4435 28.1498 11.1242 28.4721 10.7276 28.6655C10.3311 28.859 9.88055 28.9122 9.44981 28.8163C9.01907 28.7205 8.63359 28.4814 8.3564 28.1381C8.07921 27.7947 7.92671 27.3675 7.92385 26.9262L5.58475 25.9648C5.35155 26.3531 4.99112 26.6487 4.5647 26.8013L4.64986 27.0152C4.78612 27.3464 4.92995 27.6719 5.07567 27.9974C5.22139 28.3229 5.37468 28.6484 5.53365 28.9436C5.68701 29.2377 5.88562 29.506 6.12221 29.7385C6.34729 29.9491 6.62635 30.0932 6.92841 30.1548C7.08359 30.1945 7.25202 30.2191 7.42992 30.2494L7.70054 30.2948L7.95603 30.3365C8.14528 30.363 8.35345 30.3951 8.55405 30.4254C8.4159 30.3554 8.27964 30.2835 8.14338 30.2078C7.88714 30.0701 7.63941 29.9172 7.40153 29.7498C7.27252 29.6622 7.15926 29.5535 7.06656 29.4281C6.97895 29.3027 6.90652 29.1674 6.85082 29.025C6.744 28.7513 6.6913 28.4595 6.69563 28.1658C6.89434 28.7071 7.15551 29.2199 7.60024 29.4773Z" fill="#FDFDFD"/>
<path d="M16.5895 8.49305C16.7769 8.25438 17.0374 8.08382 17.3311 8.00758C17.6248 7.93134 17.9354 7.95363 18.2152 8.07102L20.1569 5.26447C19.9706 5.08984 19.8196 4.88103 19.7121 4.64941L14.0044 6.31101C14.0164 6.39946 14.0228 6.48859 14.0233 6.57785C14.023 6.78213 13.9911 6.98513 13.9287 7.17966L16.5895 8.49305Z" fill="#FDFDFD"/>
<path d="M8.00147 26.347C8.10237 26.014 8.29056 25.7141 8.54651 25.4783L7.10822 22.6093C6.9933 22.6396 6.87506 22.6555 6.75622 22.6566C6.54756 22.6565 6.34169 22.6086 6.15441 22.5166L5.31226 23.6105C5.54283 23.8486 5.70885 24.1417 5.79462 24.4619C5.88038 24.7821 5.88307 25.1189 5.80241 25.4405L8.00147 26.347Z" fill="#FDFDFD"/>
<path d="M5.30847 18.4941L6.25471 19.9797C6.54917 19.8651 6.8743 19.8564 7.17446 19.9551L8.75658 17.1807C8.58769 17.032 8.45775 16.8442 8.37808 16.6338L5.96895 17.0123C5.96895 17.0123 5.96895 17.0123 5.96895 17.0274C5.96955 17.3048 5.91095 17.5791 5.79705 17.8321C5.68315 18.085 5.51658 18.3107 5.30847 18.4941V18.4941Z" fill="#FDFDFD"/>
<path d="M27.9142 18.9248C28.0772 18.9258 28.2393 18.9474 28.3968 18.9891L29.3052 16.8185C29.0283 16.6522 28.8182 16.3945 28.711 16.0898L23.7602 16.7579C23.7478 16.9298 23.7035 17.0979 23.6296 17.2537L26.5516 19.4925C26.9138 19.132 27.4032 18.9281 27.9142 18.9248V18.9248Z" fill="#FDFDFD"/>
<path d="M22.7098 18.0091L22.7799 19.9016C23.0183 19.9433 23.2418 20.0466 23.428 20.2013C23.6142 20.356 23.7568 20.5567 23.8415 20.7835L25.9649 20.6851C25.9909 20.4192 26.0715 20.1615 26.2015 19.9281L23.2776 17.7139C23.1139 17.8551 22.9195 17.9561 22.7098 18.0091V18.0091Z" fill="#FDFDFD"/>
<path d="M15.8344 15.4083C16.0003 15.3318 16.1798 15.2893 16.3624 15.2834L17.1667 10.6335C17.0171 10.5746 16.8793 10.4894 16.7598 10.3818L14.4472 12.0983C14.5459 12.3086 14.5895 12.5405 14.5739 12.7722C14.5584 13.0039 14.4842 13.2279 14.3583 13.4231L15.8344 15.4083Z" fill="#FDFDFD"/>
<path d="M23.5255 12.6793L22.9464 15.4007C23.1185 15.4771 23.2733 15.5879 23.4012 15.7262C23.529 15.8645 23.6274 16.0274 23.6902 16.205L28.6409 15.5369C28.6509 15.401 28.6802 15.2672 28.7279 15.1395L24.4907 12.3008C24.2303 12.5475 23.8842 12.6832 23.5255 12.6793Z" fill="#FDFDFD"/>
<path d="M18.8738 10.0459C18.756 10.2476 18.589 10.4162 18.3885 10.536C18.188 10.6558 17.9604 10.7229 17.7269 10.731L16.9226 15.3808C17.0972 15.4501 17.2562 15.5537 17.3901 15.6855L22.2802 11.9005C22.1882 11.7119 22.1403 11.5048 22.1402 11.2949C22.1404 11.2424 22.1436 11.19 22.1496 11.1379L18.8738 10.0459Z" fill="#FDFDFD"/>
<path d="M14.9905 26.6841L15.0113 26.7408L15.0529 26.8563C15.0889 26.9358 15.1324 27.0171 15.174 27.0985C15.2697 27.2615 15.3766 27.4177 15.4939 27.566C15.5355 27.6208 15.5809 27.6738 15.6244 27.7268C15.8913 27.7268 16.2281 27.8782 16.6767 28.3173C17.4352 29.0926 18.4601 29.5506 19.5438 29.5985C19.5911 29.5987 19.6369 29.5811 19.6719 29.5492C19.707 29.5173 19.7288 29.4735 19.733 29.4263C19.803 28.832 19.8712 28.3494 19.9507 27.9426C20.1399 26.3339 20.6111 24.2276 21.6539 22.3313C21.4789 22.1871 21.3424 22.0018 21.2565 21.792L18.8663 22.4809C18.8783 22.568 18.8846 22.6559 18.8852 22.7439C18.8845 23.1218 18.7744 23.4914 18.5682 23.8081C18.362 24.1248 18.0685 24.375 17.7232 24.5285C17.6488 24.6908 17.5548 24.8434 17.4431 24.9827C17.3307 25.1174 17.2037 25.2392 17.0646 25.3461C17.2539 25.4047 17.4299 25.4767 17.5775 25.5221C17.7555 25.5798 17.9411 25.6111 18.1282 25.6148C18.3143 25.6063 18.4969 25.5613 18.6657 25.4823C19.0176 25.2812 19.2921 24.9681 19.4454 24.5929C19.4095 24.8038 19.3371 25.0068 19.2315 25.1928C19.1239 25.3879 18.9777 25.5592 18.8019 25.6962C18.6121 25.831 18.3951 25.9228 18.166 25.9649C17.9373 25.9984 17.7045 25.994 17.4772 25.9517C17.2425 25.9063 17.0589 25.857 16.8659 25.823C16.6935 25.791 16.5189 25.772 16.3436 25.7662C15.9618 25.923 15.5586 26.0212 15.1475 26.0576V26.0349C15.0746 26.0925 15.0163 26.1664 14.9772 26.2507C14.9268 26.3707 14.9201 26.5047 14.9583 26.6292L14.9905 26.6841Z" fill="#FDFDFD"/>
<path d="M12.6967 8.42527L13.2247 11.2943C13.5513 11.3016 13.8646 11.425 14.1084 11.6425L16.4211 9.9279C16.3369 9.7464 16.293 9.54885 16.2924 9.3488C16.293 9.23191 16.3083 9.11557 16.3378 9.00247L13.6751 7.67773C13.4374 8.02523 13.0944 8.28726 12.6967 8.42527V8.42527Z" fill="#FDFDFD"/>
<path d="M28.1375 10.876L24.907 11.368C24.8981 11.5206 24.8648 11.6707 24.8086 11.8128L29.0402 14.6515C29.1904 14.5022 29.373 14.3895 29.5739 14.3222L29.3146 11.7692C29.0539 11.7473 28.8048 11.6516 28.5964 11.4935C28.3879 11.3353 28.2288 11.1212 28.1375 10.876V10.876Z" fill="#FDFDFD"/>
<path d="M24.6174 10.4451C24.7034 10.5553 24.7723 10.6778 24.8218 10.8084L28.0523 10.3145C28.0688 10.0104 28.1854 9.7202 28.3839 9.48918C28.5824 9.25815 28.8517 9.09921 29.1499 9.03707V6.26269C28.8813 6.22453 28.6236 6.13109 28.3929 5.98828L24.6174 10.4451Z" fill="#FDFDFD"/>
<path d="M23.3968 4.24316C23.3314 4.5475 23.1942 4.83181 22.9967 5.07244C22.7992 5.31306 22.5471 5.50304 22.2614 5.62657L23.4347 9.91304C23.4612 9.91304 23.4896 9.91304 23.518 9.91304C23.7488 9.91266 23.976 9.97059 24.1784 10.0815L27.9634 5.62468C27.6867 5.31201 27.5181 4.91847 27.4827 4.50243L23.3968 4.24316Z" fill="#FDFDFD"/>
<path d="M10.844 15.3952C10.9557 15.5663 11.0275 15.7603 11.0541 15.9629L15.0832 16.2752C15.141 16.0782 15.2418 15.8966 15.3784 15.7434L13.9571 13.8301C13.7305 13.9813 13.4641 14.0619 13.1916 14.0619C12.9192 14.0619 12.6528 13.9813 12.4261 13.8301L10.844 15.3952Z" fill="#FDFDFD"/>
<path d="M34.4433 22.3312L35.9989 20.3252C35.9 20.2067 35.8219 20.0723 35.768 19.9277L29.871 20.8626C29.871 20.8626 29.871 20.8778 29.871 20.8853C29.8705 21.0685 29.8444 21.2507 29.7935 21.4266L32.7287 22.7627C32.8568 22.5871 33.0245 22.4443 33.2182 22.3456C33.4119 22.247 33.626 22.1954 33.8434 22.1949C34.0512 22.1936 34.2565 22.2402 34.4433 22.3312Z" fill="#FDFDFD"/>
<path d="M4.28273 18.9566L4.22217 23.0406C4.44679 23.0771 4.66328 23.1527 4.86183 23.2639L5.70398 22.1701C5.47343 21.9038 5.35342 21.5595 5.36855 21.2077C5.38368 20.8558 5.5328 20.523 5.78536 20.2776L4.83912 18.792C4.66303 18.8746 4.47544 18.9302 4.28273 18.9566V18.9566Z" fill="#FDFDFD"/>
<path d="M52.77 33.8076C52.77 33.6486 52.6451 32.5907 50.448 30.0226C50.4366 30.0075 50.4253 29.9942 50.4158 29.9791L47.526 25.6434C47.516 25.6296 47.5072 25.615 47.4995 25.5999C47.4673 25.5355 46.7103 24.0272 47.8534 22.131C47.9366 21.7884 48.3379 19.8051 47.3784 17.0061C47.3594 16.9474 45.4367 11.1886 44.8273 9.65381C44.621 9.25071 39.64 -0.187104 25.2817 0.0172842H25.2514C25.083 0.00025182 8.13772 -0.677257 2.64952 11.6428C2.6459 11.6526 2.64147 11.6621 2.63627 11.6712C2.60978 11.7223 -0.0737612 16.8642 0.00193808 23.2153C0.00193808 23.2816 0.0530353 29.8882 4.45117 35.7057C4.64041 35.9801 9.14074 42.5187 8.68276 49.8104L14.3602 52.95C12.8727 48.5765 12.8235 39.8105 14.3602 38.0657C15.9669 36.2394 15.437 34.5173 14.8598 34.0006C14.5324 33.7073 14.2713 33.4329 14.0404 33.2001L13.7452 33.0108C13.1675 32.6531 12.551 32.3624 11.9075 32.1441C11.2584 31.9037 10.5828 31.7202 9.89963 31.5423C9.21644 31.3644 8.52568 31.23 7.81789 31.0729L7.54538 31.0086L7.28989 30.9461C7.11578 30.9045 6.9341 30.8629 6.74486 30.8004C6.54958 30.7385 6.36271 30.6527 6.18847 30.5449C6.01519 30.4337 5.85792 30.2994 5.72102 30.1456C5.46898 29.8481 5.2699 29.5094 5.13246 29.1445C4.99052 28.7963 4.88265 28.4575 4.77478 28.1112C4.66691 27.7649 4.57418 27.4167 4.48712 27.0684L4.43413 26.847C4.26356 26.8951 4.08714 26.9193 3.90992 26.9189C3.4149 26.9185 2.93857 26.7299 2.57739 26.3914C2.21622 26.0529 1.99721 25.5898 1.96473 25.0958C1.93224 24.6019 2.08872 24.114 2.40246 23.7311C2.7162 23.3483 3.16374 23.0989 3.65443 23.0337L3.71499 18.9478C3.44224 18.9038 3.18194 18.8025 2.9513 18.6504C2.72066 18.4983 2.52495 18.299 2.37711 18.0656C2.22928 17.8322 2.13269 17.5701 2.09373 17.2966C2.05478 17.0231 2.07436 16.7444 2.15116 16.4791C2.22797 16.2137 2.36025 15.9676 2.53926 15.7572C2.71827 15.5468 2.93993 15.3768 3.18956 15.2584C3.4392 15.1401 3.71112 15.0761 3.98733 15.0707C4.26354 15.0653 4.53775 15.1187 4.79181 15.2272L5.96326 13.312C5.58603 12.9892 5.34601 12.5348 5.29209 12.0413C5.23817 11.5478 5.37441 11.0523 5.67306 10.6557C5.9717 10.2591 6.4103 9.99126 6.89951 9.90673C7.38872 9.82221 7.89175 9.92735 8.30615 10.2007L10.5469 7.79728C10.3735 7.58156 10.248 7.33143 10.1787 7.0635C10.1095 6.79556 10.098 6.51596 10.145 6.24325C10.1921 5.97053 10.2966 5.71095 10.4517 5.48173C10.6068 5.25252 10.8088 5.05891 11.0445 4.91378C11.2801 4.76864 11.5439 4.67528 11.8184 4.63991C12.0929 4.60454 12.3717 4.62797 12.6365 4.70863C12.9012 4.78929 13.1457 4.92535 13.3538 5.10776C13.562 5.29018 13.7289 5.51478 13.8436 5.76665L19.5551 4.10505C19.5415 4.01738 19.5345 3.92881 19.5343 3.8401C19.5299 3.33399 19.7223 2.84598 20.071 2.4791C20.4197 2.11222 20.8973 1.89519 21.403 1.87382C21.9086 1.85246 22.4028 2.02843 22.7812 2.36458C23.1596 2.70074 23.3925 3.17078 23.4309 3.67545L27.5224 3.92905C27.579 3.66451 27.6899 3.4146 27.8481 3.19517C28.0063 2.97574 28.2084 2.79157 28.4415 2.65434C28.6747 2.5171 28.9338 2.4298 29.2024 2.39796C29.471 2.36611 29.7434 2.39042 30.0021 2.46935C30.2609 2.54828 30.5004 2.6801 30.7055 2.85646C30.9107 3.03282 31.0769 3.24987 31.1938 3.49386C31.3106 3.73785 31.3755 4.00345 31.3843 4.27382C31.3931 4.5442 31.3457 4.81346 31.2449 5.06454L34.1461 6.75263C34.3984 6.43636 34.7427 6.20632 35.1315 6.09437C35.5203 5.98241 35.9342 5.99407 36.3161 6.12772C36.6979 6.26138 37.0288 6.51043 37.2629 6.8404C37.4969 7.17036 37.6227 7.56494 37.6226 7.9695C37.622 8.25644 37.5573 8.53963 37.4334 8.79841L40.0015 10.5016C40.2027 10.2847 40.4506 10.1163 40.7265 10.0093C41.0024 9.90235 41.299 9.85951 41.5939 9.88407C41.8888 9.90863 42.1743 9.99994 42.4287 10.1511C42.6831 10.3023 42.8998 10.5093 43.0623 10.7566C43.2249 11.0038 43.3291 11.2848 43.3671 11.5783C43.405 11.8717 43.3757 12.17 43.2814 12.4505C43.187 12.731 43.0301 12.9863 42.8226 13.1972C42.615 13.4081 42.3621 13.569 42.0832 13.6678L42.7096 16.8358H42.8061C43.0676 16.8276 43.328 16.8721 43.572 16.9665C43.8159 17.061 44.0384 17.2035 44.2263 17.3855C44.4141 17.5676 44.5634 17.7856 44.6654 18.0265C44.7674 18.2674 44.82 18.5263 44.82 18.7879C44.82 19.0495 44.7674 19.3084 44.6654 19.5493C44.5634 19.7902 44.4141 20.0081 44.2263 20.1902C44.0384 20.3723 43.8159 20.5148 43.572 20.6092C43.328 20.7037 43.0676 20.7481 42.8061 20.74C42.5293 20.74 42.2556 20.6807 42.0037 20.5659L40.9061 22.2824C41.1453 22.4902 41.3303 22.7532 41.445 23.0485C41.5598 23.3439 41.6009 23.6628 41.5648 23.9776C41.5287 24.2924 41.4164 24.5937 41.2377 24.8554C41.0591 25.1171 40.8193 25.3313 40.5393 25.4796C40.2592 25.6279 39.9473 25.7057 39.6304 25.7064C39.3135 25.707 39.0012 25.6305 38.7206 25.4834C38.4399 25.3363 38.1993 25.123 38.0195 24.862C37.8398 24.6011 37.7263 24.3003 37.6888 23.9856L35.1813 23.9175C35.1087 24.2202 34.9363 24.4898 34.6919 24.6827C34.4474 24.8756 34.1452 24.9807 33.8339 24.981C33.7058 24.9815 33.5784 24.9637 33.4554 24.928L32.8971 26.0049C33.2015 26.2587 33.4215 26.5991 33.5278 26.9809C33.6342 27.3627 33.6219 27.7678 33.4925 28.1424C33.3631 28.5171 33.1228 28.8435 32.8035 29.0783C32.4843 29.3131 32.1011 29.4452 31.7049 29.4571C31.3088 29.469 30.9184 29.36 30.5856 29.1448C30.2528 28.9295 29.9934 28.6181 29.8418 28.2518C29.6903 27.8856 29.6537 27.482 29.737 27.0945C29.8203 26.707 30.0195 26.354 30.3082 26.0825L29.7404 25.0094C29.3998 25.2051 29.0823 25.4388 28.7942 25.7059C28.5553 25.9322 28.3444 26.1864 28.1659 26.4628C27.9653 26.7543 27.7647 27.0476 27.5603 27.3353C27.1426 27.9105 26.6941 28.4627 26.2166 28.9893C25.7396 29.5258 25.2102 30.0133 24.6364 30.4446C24.3433 30.6609 24.0318 30.8509 23.7053 31.0124C23.6296 31.0521 23.552 31.0862 23.4725 31.1184C23.0246 31.4646 22.5351 31.7532 22.0153 31.9775C19.2144 33.2455 20.066 35.0774 18.4839 36.2054C16.9586 37.2897 17.127 39.6516 17.1422 39.8276C17.1412 39.8351 17.1412 39.8427 17.1422 39.8503C20.0452 52.7703 30.0338 60.9893 34.1745 63.9189L34.3316 64.0059V55.1169C34.3264 54.8122 34.382 54.5095 34.4951 54.2265C34.6082 53.9435 34.7765 53.6859 34.9902 53.4686C35.9364 52.4429 37.721 51.9546 40.308 51.9962C41.7066 52.053 45.5843 51.9357 46.7292 50.7093L46.752 50.6866C46.7671 50.6734 48.1051 49.3941 47.6055 46.6008C47.5884 46.5156 47.2061 44.519 48.3151 43.164C48.4136 42.9558 48.8677 41.9131 48.3625 41.3472C48.3198 41.2995 48.2876 41.2433 48.2678 41.1824C48.248 41.1215 48.241 41.0572 48.2475 40.9935C48.2539 40.9298 48.2735 40.8681 48.305 40.8123C48.3365 40.7566 48.3793 40.708 48.4306 40.6697C48.4968 40.6205 50.0089 39.4793 48.9264 37.9862C48.8468 37.855 48.7939 37.7094 48.7708 37.5577C48.7478 37.406 48.755 37.2513 48.792 37.1024C48.8961 36.6671 49.2292 36.2886 49.7837 35.9783C49.8198 35.9576 49.8587 35.9423 49.8992 35.9328C50.641 35.7436 52.7473 34.9866 52.7189 33.923C52.7606 33.8587 52.7511 33.853 52.77 33.8076Z" fill="#FDFDFD"/>
<path d="M12.0703 8.53187C11.6739 8.53232 11.2869 8.41147 10.9613 8.18555L8.72815 10.5814C9.01014 10.92 9.16834 11.3445 9.17667 11.785L11.8943 12.1957C11.9608 12.0165 12.0638 11.853 12.1967 11.7155C12.3296 11.578 12.4895 11.4696 12.6664 11.3971L12.1384 8.52809L12.0703 8.53187Z" fill="#FDFDFD"/>
<path d="M8.4386 13.3535L9.27318 14.8258C9.46996 14.7636 9.67818 14.7463 9.88253 14.7751C10.0869 14.8039 10.2822 14.8782 10.4541 14.9924L12.0286 13.4368C11.8971 13.2328 11.8214 12.9978 11.8091 12.7555L9.10665 12.3467C8.9948 12.7439 8.76114 13.0961 8.4386 13.3535V13.3535Z" fill="#FDFDFD"/>
<path d="M7.22556 13.7779C6.95313 13.7783 6.68364 13.7216 6.43451 13.6113L5.27441 15.519C5.56532 15.7608 5.7802 16.0815 5.89326 16.4425L8.3005 16.064C8.30991 15.8791 8.3565 15.698 8.43746 15.5315C8.51842 15.3651 8.63211 15.2166 8.77172 15.095L7.94849 13.6378C7.71893 13.7311 7.47336 13.7787 7.22556 13.7779Z" fill="#FDFDFD"/>
<path d="M21.4872 5.7913C21.1889 5.79055 20.8948 5.72059 20.628 5.58691L18.6807 8.39536C18.9226 8.65112 19.058 8.98951 19.0592 9.3416C19.062 9.39392 19.062 9.44636 19.0592 9.49868L22.3313 10.5982C22.4663 10.3698 22.6631 10.1842 22.899 10.0626L21.7276 5.77805C21.6478 5.78747 21.5675 5.7919 21.4872 5.7913V5.7913Z" fill="#FDFDFD"/>
<path d="M39.7422 12.8105L37.0265 13.9782C37.044 14.0693 37.0529 14.1618 37.053 14.2545C37.0533 14.5101 36.9827 14.7607 36.8491 14.9785C36.7154 15.1964 36.524 15.3729 36.296 15.4884L36.9792 18.0546H37.0549C37.1995 18.0548 37.3433 18.0778 37.4807 18.1227L40.204 13.3499C40.0188 13.1994 39.8624 13.0167 39.7422 12.8105Z" fill="#FDFDFD"/>
<path d="M41.5325 13.7717C41.4966 13.7717 41.4625 13.7717 41.4266 13.7717C41.1733 13.7722 40.9225 13.7227 40.6885 13.626L37.9728 18.4007C38.1549 18.5618 38.2913 18.7681 38.3683 18.9987L40.8626 18.713C40.8756 18.3212 41.0061 17.9423 41.2373 17.6257C41.4685 17.3091 41.7897 17.0694 42.1589 16.9378L41.5325 13.7717Z" fill="#FDFDFD"/>
<path d="M39.6324 21.7887C39.9092 21.7896 40.1826 21.8489 40.4348 21.9628L41.5325 20.2482C41.2388 19.9926 41.028 19.6553 40.9269 19.2793L38.4326 19.5632C38.4012 19.9037 38.2448 20.2206 37.9935 20.4526L38.8849 21.9401C39.1215 21.8403 39.3756 21.7888 39.6324 21.7887Z" fill="#FDFDFD"/>
<path d="M29.7783 20.3028L35.6734 19.3679C35.6801 19.2322 35.7069 19.0983 35.7529 18.9705L31.0785 16.5254C30.9495 16.6831 30.7873 16.8104 30.6034 16.8981C30.4196 16.9857 30.2186 17.0317 30.0149 17.0326C29.9579 17.0326 29.901 17.0288 29.8446 17.0212L28.921 19.226C29.3274 19.4696 29.6319 19.8521 29.7783 20.3028V20.3028Z" fill="#FDFDFD"/>
<path d="M37.1212 9.27344C36.817 9.60919 36.4055 9.82865 35.9573 9.89417V12.8975C36.302 12.9717 36.6053 13.1748 36.8051 13.4653L39.5341 12.2901C39.4967 12.1403 39.4776 11.9865 39.4773 11.8321C39.4778 11.5317 39.5484 11.2355 39.6836 10.9672L37.1212 9.27344Z" fill="#FDFDFD"/>
<path d="M37.7115 23.4049C37.7918 22.9442 38.0349 22.5278 38.3966 22.2315L37.5071 20.744C37.3355 20.8046 37.1534 20.8301 36.9717 20.8191C36.7899 20.808 36.6123 20.7606 36.4492 20.6797L34.8955 22.6857C35.0533 22.8719 35.159 23.0965 35.2021 23.3367L37.7115 23.4049Z" fill="#FDFDFD"/>
<path d="M33.9739 8.92871L30.7983 10.1645C30.8104 10.2396 30.8167 10.3155 30.8172 10.3916C30.817 10.4909 30.8062 10.5898 30.785 10.6868L34.6968 13.2701C34.885 13.08 35.1243 12.9485 35.3857 12.8916V9.89388C35.0929 9.84969 34.8138 9.73994 34.5693 9.57282C34.3249 9.40569 34.1213 9.18551 33.9739 8.92871V8.92871Z" fill="#FDFDFD"/>
<path d="M30.9573 5.54883C30.6483 5.93666 30.2029 6.19186 29.712 6.26229V9.03667C29.8901 9.07364 30.059 9.14552 30.2091 9.24817C30.3591 9.35082 30.4874 9.48219 30.5864 9.6347L33.7619 8.39891C33.7292 8.25614 33.7127 8.11012 33.7127 7.96364C33.7131 7.71473 33.7607 7.46815 33.8528 7.23692L30.9573 5.54883Z" fill="#FDFDFD"/>
<path d="M35.6695 15.6379C35.4085 15.6379 35.1528 15.5639 34.9321 15.4246C34.7113 15.2852 34.5346 15.0862 34.4223 14.8506L31.3944 15.5887C31.3944 15.6057 31.3944 15.6208 31.3944 15.6379C31.3936 15.7691 31.3752 15.8996 31.3395 16.0258L36.0442 18.486C36.1538 18.3712 36.2817 18.2752 36.4227 18.2022L35.7376 15.636L35.6695 15.6379Z" fill="#FDFDFD"/>
<path d="M30.5485 11.209C30.3812 11.4381 30.1472 11.61 29.8785 11.701L30.1378 14.2597C30.3762 14.281 30.605 14.3637 30.802 14.4997C30.999 14.6356 31.1574 14.8203 31.2619 15.0356L34.2899 14.2975C34.2899 14.2824 34.2899 14.2691 34.2899 14.254C34.2896 14.0791 34.3223 13.9057 34.3864 13.743L30.5485 11.209Z" fill="#FDFDFD"/>
<path d="M3.90996 23.583C3.63613 23.5838 3.36867 23.6656 3.14136 23.8183C2.91405 23.971 2.73708 24.1876 2.63281 24.4408C2.52854 24.694 2.50165 24.9724 2.55552 25.2409C2.6094 25.5094 2.74164 25.7558 2.93552 25.9492C3.12941 26.1426 3.37625 26.2741 3.64487 26.3273C3.91349 26.3804 4.19183 26.3528 4.44474 26.2478C4.69765 26.1428 4.91378 25.9653 5.06583 25.7375C5.21789 25.5098 5.29904 25.2421 5.29904 24.9683C5.29904 24.7861 5.26308 24.6056 5.19323 24.4373C5.12337 24.269 5.02099 24.1161 4.89196 23.9874C4.76292 23.8587 4.60976 23.7568 4.44125 23.6874C4.27274 23.618 4.09219 23.5825 3.90996 23.583Z" fill="#E22D6E"/>
<path d="M6.75627 20.4541C6.59442 20.4534 6.43598 20.5007 6.30104 20.59C6.1661 20.6794 6.06072 20.8068 5.99826 20.9562C5.9358 21.1055 5.91907 21.27 5.95019 21.4288C5.9813 21.5877 6.05887 21.7337 6.17305 21.8484C6.28724 21.9631 6.4329 22.0414 6.5916 22.0732C6.75029 22.1051 6.91486 22.0891 7.06447 22.0273C7.21408 21.9656 7.34199 21.8608 7.43199 21.7263C7.522 21.5917 7.57004 21.4335 7.57004 21.2717C7.56955 21.0556 7.48377 20.8486 7.33138 20.6954C7.17898 20.5423 6.97229 20.4556 6.75627 20.4541V20.4541Z" fill="#E22D6E"/>
<path d="M4.0273 18.4083C4.302 18.4098 4.57095 18.3296 4.79996 18.1778C5.02896 18.0261 5.20769 17.8097 5.31342 17.5562C5.41915 17.3026 5.44711 17.0234 5.39374 16.7539C5.34038 16.4844 5.2081 16.2369 5.01371 16.0428C4.81933 15.8487 4.57162 15.7167 4.30208 15.6637C4.03253 15.6107 3.75331 15.6391 3.49991 15.7451C3.2465 15.8512 3.03036 16.0302 2.87895 16.2595C2.72754 16.4887 2.6477 16.7577 2.64957 17.0324C2.65205 17.3969 2.79806 17.7457 3.05595 18.0032C3.31385 18.2608 3.66284 18.4063 4.0273 18.4083V18.4083Z" fill="#E22D6E"/>
<path d="M7.22563 13.21C7.99071 13.21 8.61093 12.5898 8.61093 11.8248C8.61093 11.0597 7.99071 10.4395 7.22563 10.4395C6.46055 10.4395 5.84033 11.0597 5.84033 11.8248C5.84033 12.5898 6.46055 13.21 7.22563 13.21Z" fill="#E22D6E"/>
<path d="M12.0704 7.96395C12.8354 7.96395 13.4557 7.34374 13.4557 6.57866C13.4557 5.81358 12.8354 5.19336 12.0704 5.19336C11.3053 5.19336 10.6851 5.81358 10.6851 6.57866C10.6851 7.34374 11.3053 7.96395 12.0704 7.96395Z" fill="#E22D6E"/>
<path d="M17.6778 8.53223C17.5161 8.53223 17.358 8.58018 17.2236 8.67001C17.0891 8.75984 16.9843 8.88753 16.9225 9.03692C16.8606 9.1863 16.8444 9.35069 16.8759 9.50928C16.9075 9.66787 16.9853 9.81354 17.0997 9.92788C17.214 10.0422 17.3597 10.1201 17.5183 10.1516C17.6769 10.1832 17.8413 10.167 17.9906 10.1051C18.14 10.0432 18.2677 9.93843 18.3576 9.80399C18.4474 9.66954 18.4953 9.51148 18.4953 9.34978C18.4948 9.1331 18.4085 8.92545 18.2553 8.77223C18.1021 8.61902 17.8945 8.53273 17.6778 8.53223Z" fill="#E22D6E"/>
<path d="M23.5256 10.4756C23.3639 10.4756 23.2058 10.5235 23.0714 10.6134C22.9369 10.7032 22.8321 10.8309 22.7702 10.9803C22.7084 11.1297 22.6922 11.294 22.7237 11.4526C22.7553 11.6112 22.8331 11.7569 22.9475 11.8712C23.0618 11.9856 23.2075 12.0634 23.3661 12.095C23.5247 12.1265 23.689 12.1103 23.8384 12.0485C23.9878 11.9866 24.1155 11.8818 24.2053 11.7473C24.2952 11.6129 24.3431 11.4548 24.3431 11.2931C24.3426 11.0765 24.2563 10.8688 24.1031 10.7156C23.9499 10.5624 23.7422 10.4761 23.5256 10.4756V10.4756Z" fill="#E22D6E"/>
<path d="M29.4339 11.2103C29.8854 11.2103 30.2514 10.8443 30.2514 10.3927C30.2514 9.94123 29.8854 9.5752 29.4339 9.5752C28.9824 9.5752 28.6163 9.94123 28.6163 10.3927C28.6163 10.8443 28.9824 11.2103 29.4339 11.2103Z" fill="#E22D6E"/>
<path d="M30.0148 16.4554C30.4663 16.4554 30.8324 16.0894 30.8324 15.6379C30.8324 15.1863 30.4663 14.8203 30.0148 14.8203C29.5633 14.8203 29.1973 15.1863 29.1973 15.6379C29.1973 16.0894 29.5633 16.4554 30.0148 16.4554Z" fill="#E22D6E"/>
<path d="M35.6696 15.0726C36.1211 15.0726 36.4872 14.7066 36.4872 14.2551C36.4872 13.8035 36.1211 13.4375 35.6696 13.4375C35.2181 13.4375 34.8521 13.8035 34.8521 14.2551C34.8521 14.7066 35.2181 15.0726 35.6696 15.0726Z" fill="#E22D6E"/>
<path d="M35.6696 9.3497C36.4347 9.3497 37.0549 8.72948 37.0549 7.9644C37.0549 7.19932 36.4347 6.5791 35.6696 6.5791C34.9045 6.5791 34.2843 7.19932 34.2843 7.9644C34.2843 8.72948 34.9045 9.3497 35.6696 9.3497Z" fill="#E22D6E"/>
<path d="M41.4266 13.21C41.7005 13.21 41.9684 13.1288 42.1962 12.9766C42.424 12.8244 42.6016 12.608 42.7064 12.3549C42.8113 12.1018 42.8387 11.8232 42.7852 11.5545C42.7318 11.2858 42.5998 11.0389 42.4061 10.8452C42.2124 10.6515 41.9655 10.5195 41.6968 10.4661C41.4281 10.4126 41.1496 10.4401 40.8964 10.5449C40.6433 10.6498 40.4269 10.8273 40.2747 11.0551C40.1225 11.2829 40.0413 11.5508 40.0413 11.8248C40.0413 12.1922 40.1872 12.5445 40.447 12.8043C40.7068 13.0641 41.0592 13.21 41.4266 13.21V13.21Z" fill="#E22D6E"/>
<path d="M42.8118 17.3926C42.5377 17.3926 42.2698 17.4739 42.042 17.6262C41.8141 17.7785 41.6366 17.9949 41.5318 18.2482C41.427 18.5014 41.3997 18.7801 41.4533 19.0488C41.5069 19.3176 41.639 19.5644 41.8329 19.7581C42.0269 19.9518 42.2739 20.0836 42.5427 20.1368C42.8116 20.19 43.0902 20.1623 43.3433 20.0572C43.5963 19.952 43.8126 19.7742 43.9646 19.5461C44.1166 19.3181 44.1975 19.0501 44.1971 18.776C44.1971 18.5942 44.1613 18.4141 44.0916 18.2461C44.022 18.0782 43.9199 17.9256 43.7912 17.7971C43.6626 17.6686 43.5099 17.5668 43.3418 17.4973C43.1737 17.4279 42.9936 17.3923 42.8118 17.3926V17.3926Z" fill="#E22D6E"/>
<path d="M37.0549 18.6191C36.8932 18.6191 36.7351 18.6671 36.6007 18.7569C36.4662 18.8468 36.3614 18.9744 36.2995 19.1238C36.2377 19.2732 36.2215 19.4376 36.253 19.5962C36.2846 19.7548 36.3624 19.9005 36.4768 20.0148C36.5911 20.1291 36.7368 20.207 36.8954 20.2385C37.054 20.2701 37.2183 20.2539 37.3677 20.192C37.5171 20.1301 37.6448 20.0254 37.7346 19.8909C37.8245 19.7565 37.8724 19.5984 37.8724 19.4367C37.8719 19.22 37.7856 19.0124 37.6324 18.8591C37.4792 18.7059 37.2715 18.6196 37.0549 18.6191V18.6191Z" fill="#E22D6E"/>
<path d="M39.6325 25.127C40.3976 25.127 41.0178 24.5068 41.0178 23.7417C41.0178 22.9767 40.3976 22.3564 39.6325 22.3564C38.8674 22.3564 38.2472 22.9767 38.2472 23.7417C38.2472 24.5068 38.8674 25.127 39.6325 25.127Z" fill="#E22D6E"/>
<path d="M33.8395 22.7656C33.6778 22.7656 33.5198 22.8136 33.3853 22.9034C33.2509 22.9932 33.1461 23.1209 33.0842 23.2703C33.0223 23.4197 33.0061 23.5841 33.0377 23.7427C33.0692 23.9013 33.1471 24.0469 33.2614 24.1613C33.3758 24.2756 33.5214 24.3535 33.68 24.385C33.8386 24.4166 34.003 24.4004 34.1524 24.3385C34.3018 24.2766 34.4295 24.1718 34.5193 24.0374C34.6091 23.9029 34.6571 23.7449 34.6571 23.5832C34.6571 23.3663 34.5709 23.1584 34.4176 23.0051C34.2643 22.8518 34.0564 22.7656 33.8395 22.7656Z" fill="#E22D6E"/>
<path d="M27.9142 19.4932C27.6402 19.4932 27.3724 19.5744 27.1446 19.7266C26.9168 19.8788 26.7392 20.0952 26.6344 20.3483C26.5295 20.6015 26.5021 20.88 26.5555 21.1487C26.609 21.4174 26.7409 21.6643 26.9347 21.858C27.1284 22.0518 27.3753 22.1837 27.644 22.2371C27.9127 22.2906 28.1912 22.2632 28.4444 22.1583C28.6975 22.0535 28.9138 21.8759 29.0661 21.6481C29.2183 21.4203 29.2995 21.1524 29.2995 20.8785C29.2995 20.5111 29.1536 20.1587 28.8938 19.8989C28.634 19.6391 28.2816 19.4932 27.9142 19.4932V19.4932Z" fill="#E22D6E"/>
<path d="M22.3807 17.4837C22.8322 17.4837 23.1982 17.1177 23.1982 16.6662C23.1982 16.2147 22.8322 15.8486 22.3807 15.8486C21.9291 15.8486 21.5631 16.2147 21.5631 16.6662C21.5631 17.1177 21.9291 17.4837 22.3807 17.4837Z" fill="#E22D6E"/>
<path d="M22.551 22.0892C23.0025 22.0892 23.3685 21.7232 23.3685 21.2717C23.3685 20.8201 23.0025 20.4541 22.551 20.4541C22.0994 20.4541 21.7334 20.8201 21.7334 21.2717C21.7334 21.7232 22.0994 22.0892 22.551 22.0892Z" fill="#E22D6E"/>
<path d="M16.4117 17.4837C16.5735 17.4841 16.7318 17.4365 16.8665 17.3469C17.0011 17.2573 17.1062 17.1297 17.1684 16.9804C17.2306 16.831 17.247 16.6666 17.2157 16.5079C17.1844 16.3491 17.1066 16.2033 16.9924 16.0888C16.8781 15.9742 16.7325 15.8962 16.5738 15.8645C16.4152 15.8328 16.2507 15.8489 16.1012 15.9107C15.9517 15.9725 15.8239 16.0773 15.734 16.2118C15.6441 16.3463 15.5961 16.5044 15.5961 16.6662C15.5966 16.8825 15.6826 17.0899 15.8354 17.2431C15.9882 17.3962 16.1954 17.4827 16.4117 17.4837V17.4837Z" fill="#E22D6E"/>
<path d="M11.8053 19.9756C11.5313 19.9756 11.2634 20.0569 11.0355 20.2092C10.8077 20.3615 10.6301 20.578 10.5253 20.8312C10.4205 21.0844 10.3932 21.3631 10.4468 21.6318C10.5004 21.9006 10.6325 22.1474 10.8265 22.3411C11.0204 22.5348 11.2674 22.6666 11.5362 22.7198C11.8051 22.773 12.0837 22.7453 12.3368 22.6402C12.5899 22.535 12.8061 22.3572 12.9581 22.1291C13.1101 21.9011 13.191 21.6331 13.1906 21.359C13.1906 21.1772 13.1548 20.9971 13.0852 20.8291C13.0155 20.6612 12.9134 20.5086 12.7848 20.3801C12.6561 20.2516 12.5034 20.1498 12.3353 20.0803C12.1673 20.0109 11.9872 19.9753 11.8053 19.9756V19.9756Z" fill="#E22D6E"/>
<path d="M9.87126 25.5244C9.59719 25.5244 9.32928 25.6057 9.10143 25.758C8.87358 25.9103 8.69602 26.1268 8.59123 26.38C8.48644 26.6333 8.45911 26.9119 8.51272 27.1807C8.56632 27.4494 8.69845 27.6963 8.89238 27.8899C9.0863 28.0836 9.33332 28.2154 9.60216 28.2686C9.87101 28.3219 10.1496 28.2942 10.4027 28.189C10.6558 28.0839 10.872 27.906 11.024 27.678C11.176 27.4499 11.2569 27.1819 11.2566 26.9078C11.2566 26.726 11.2207 26.5459 11.1511 26.378C11.0814 26.21 10.9794 26.0574 10.8507 25.9289C10.722 25.8005 10.5693 25.6986 10.4012 25.6292C10.2332 25.5598 10.0531 25.5242 9.87126 25.5244V25.5244Z" fill="#E22D6E"/>
<path d="M16.9434 24.13C17.7085 24.13 18.3287 23.5098 18.3287 22.7447C18.3287 21.9796 17.7085 21.3594 16.9434 21.3594C16.1783 21.3594 15.5581 21.9796 15.5581 22.7447C15.5581 23.5098 16.1783 24.13 16.9434 24.13Z" fill="#E22D6E"/>
<path d="M31.6595 26.1055C31.3854 26.1055 31.1175 26.1868 30.8896 26.3391C30.6618 26.4914 30.4842 26.7078 30.3794 26.9611C30.2746 27.2143 30.2473 27.493 30.3009 27.7617C30.3545 28.0305 30.4867 28.2773 30.6806 28.471C30.8745 28.6647 31.1215 28.7964 31.3904 28.8497C31.6592 28.9029 31.9378 28.8752 32.1909 28.7701C32.444 28.6649 32.6602 28.4871 32.8122 28.259C32.9642 28.031 33.0451 27.7629 33.0448 27.4889C33.0448 27.307 33.0089 27.127 32.9393 26.959C32.8696 26.7911 32.7676 26.6385 32.6389 26.51C32.5102 26.3815 32.3575 26.2796 32.1895 26.2102C32.0214 26.1408 31.8413 26.1052 31.6595 26.1055Z" fill="#E22D6E"/>
<path d="M21.4873 5.22567C22.2524 5.22567 22.8726 4.60545 22.8726 3.84038C22.8726 3.0753 22.2524 2.45508 21.4873 2.45508C20.7223 2.45508 20.1021 3.0753 20.1021 3.84038C20.1021 4.60545 20.7223 5.22567 21.4873 5.22567Z" fill="#E22D6E"/>
<path d="M29.4339 5.71786C30.199 5.71786 30.8192 5.09764 30.8192 4.33256C30.8192 3.56748 30.199 2.94727 29.4339 2.94727C28.6688 2.94727 28.0486 3.56748 28.0486 4.33256C28.0486 5.09764 28.6688 5.71786 29.4339 5.71786Z" fill="#E22D6E"/>
<path d="M9.68205 16.9632C9.84375 16.9632 10.0018 16.9153 10.1363 16.8254C10.2707 16.7356 10.3755 16.6079 10.4374 16.4585C10.4993 16.3092 10.5154 16.1448 10.4839 15.9862C10.4524 15.8276 10.3745 15.6819 10.2602 15.5676C10.1458 15.4532 10.0001 15.3754 9.84155 15.3438C9.68296 15.3123 9.51858 15.3285 9.36919 15.3904C9.2198 15.4522 9.09212 15.557 9.00228 15.6915C8.91245 15.8259 8.8645 15.984 8.8645 16.1457C8.865 16.3624 8.9513 16.57 9.10451 16.7232C9.25772 16.8764 9.46538 16.9627 9.68205 16.9632V16.9632Z" fill="#E22D6E"/>
<path d="M13.1907 11.8604C13.0289 11.8596 12.8706 11.9069 12.7357 11.9962C12.6008 12.0855 12.4954 12.2128 12.4329 12.362C12.3704 12.5112 12.3535 12.6756 12.3845 12.8344C12.4155 12.9932 12.4928 13.1392 12.6068 13.254C12.7208 13.3688 12.8663 13.4472 13.0249 13.4792C13.1835 13.5113 13.348 13.4956 13.4976 13.4341C13.6472 13.3727 13.7753 13.2682 13.8655 13.1339C13.9557 12.9996 14.0041 12.8416 14.0045 12.6798C14.0045 12.4635 13.9189 12.2559 13.7665 12.1024C13.614 11.9489 13.4071 11.8619 13.1907 11.8604Z" fill="#E22D6E"/>
</g>
<defs>
<clipPath id="clip0_838_214868">
<rect width="52.77" height="64" fill="white"/>
</clipPath>
</defs>
</svg>
