<svg width="49" height="48" viewBox="0 0 49 48" fill="none" xmlns="http://www.w3.org/2000/svg">
<circle cx="24.9269" cy="24" r="20" fill="white"/>
<circle cx="24.9269" cy="24" r="23" stroke="#D9DCDD" stroke-width="2"/>
<g clip-path="url(#clip0_709_40)">
<path d="M28.4769 25C29.2269 25 29.8869 24.59 30.2269 23.97L33.8069 17.48C34.1769 16.82 33.6969 16 32.9369 16H18.1369L17.1969 14H13.9269V16H15.9269L19.5269 23.59L18.1769 26.03C17.4469 27.37 18.4069 29 19.9269 29H31.9269V27H19.9269L21.0269 25H28.4769ZM19.0869 18H31.2369L28.4769 23H21.4569L19.0869 18ZM19.9269 30C18.8269 30 17.9369 30.9 17.9369 32C17.9369 33.1 18.8269 34 19.9269 34C21.0269 34 21.9269 33.1 21.9269 32C21.9269 30.9 21.0269 30 19.9269 30ZM29.9269 30C28.8269 30 27.9369 30.9 27.9369 32C27.9369 33.1 28.8269 34 29.9269 34C31.0269 34 31.9269 33.1 31.9269 32C31.9269 30.9 31.0269 30 29.9269 30Z" fill="#1F252D"/>
</g>
<defs>
<clipPath id="clip0_709_40">
<rect width="24" height="24" fill="white" transform="translate(12.9269 12)"/>
</clipPath>
</defs>
</svg>
