<svg width="34" height="31" viewBox="0 0 34 31" fill="none" xmlns="http://www.w3.org/2000/svg">
<path d="M32.8669 5.11889C32.9601 5.26154 32.9625 5.4041 32.9625 5.56248L28.4861 22.7683L28.4859 22.7687C28.4388 22.9566 28.2483 23.105 27.9996 23.105H9.38409C9.13844 23.105 8.94665 22.9597 8.89835 22.7175L8.89832 22.7174L4.68959 1.94354L4.68065 1.89941H4.63563H1.18231C1.0328 1.89941 0.912572 1.84981 0.829863 1.76706C0.747151 1.68431 0.697637 1.56408 0.697637 1.41473C0.697637 1.26522 0.747235 1.14499 0.829985 1.06228C0.912739 0.979573 1.03297 0.930059 1.18231 0.930059H5.06691C5.31252 0.930059 5.5043 1.07527 5.55263 1.31738C5.55263 1.31741 5.55264 1.31745 5.55265 1.31748L6.25419 4.87868L6.26294 4.9231H6.30821H32.4779C32.6161 4.9231 32.7627 5.01597 32.8669 5.11889ZM27.5679 22.1895H27.6105L27.6212 22.1483L31.8299 6.01489L31.8479 5.94593H31.7767H6.52429H6.45686L6.47034 6.012L9.76178 22.1455L9.77076 22.1895H9.81573H27.5679ZM11.058 27.7998C11.058 26.2117 12.328 24.9413 13.9164 24.9413C15.5045 24.9413 16.7749 26.2117 16.7749 27.7998C16.7749 29.3878 15.5049 30.6582 13.9164 30.6582C12.3284 30.6582 11.058 29.3882 11.058 27.7998ZM12.0269 27.8001C12.0269 28.8558 12.8607 29.6897 13.9164 29.6897C14.9717 29.6897 15.806 28.8559 15.806 27.8001C15.806 26.7445 14.9721 25.9106 13.9164 25.9106C12.8608 25.9106 12.0269 26.7444 12.0269 27.8001ZM20.7164 27.7998C20.7164 26.2117 21.9865 24.9413 23.5749 24.9413C25.1633 24.9413 26.4334 26.2117 26.4334 27.7998C26.4334 29.3878 25.1634 30.6582 23.5749 30.6582C21.9869 30.6582 20.7164 29.3882 20.7164 27.7998ZM21.6854 27.8001C21.6854 28.8558 22.5192 29.6897 23.5749 29.6897C24.6306 29.6897 25.4645 28.8558 25.4645 27.8001C25.4645 26.7445 24.6306 25.9106 23.5749 25.9106C22.5193 25.9106 21.6854 26.7444 21.6854 27.8001Z" fill="#523970" stroke="#523970" stroke-width="0.110118"/>
</svg>
