<?xml version="1.0" encoding="UTF-8" standalone="no"?> <svg width="64" height="64" viewBox="0 0 64 64" fill="none" xmlns="http://www.w3.org/2000/svg">
<path d="M60 53.29H58.29V24.57C58.29 23.2439 57.7632 21.9721 56.8255 21.0345C55.8879 20.0968 54.6161 19.57 53.29 19.57H47.71V12.09C47.7235 11.9435 47.7045 11.7959 47.6543 11.6576C47.6042 11.5193 47.5242 11.3938 47.42 11.29L39.42 3.29C39.3266 3.19732 39.2157 3.12399 39.0939 3.07423C38.9721 3.02447 38.8416 2.99924 38.71 3H21.29C19.9639 3 18.6921 3.52679 17.7545 4.46447C16.8168 5.40215 16.29 6.67392 16.29 8V19.57H10.71C9.38392 19.57 8.11215 20.0968 7.17447 21.0345C6.23678 21.9721 5.71 23.2439 5.71 24.57V53.29H4C3.73478 53.29 3.48043 53.3954 3.29289 53.5829C3.10536 53.7704 3 54.0248 3 54.29C3.00265 56.0688 3.71044 57.774 4.96824 59.0318C6.22603 60.2896 7.93121 60.9974 9.71 61H54.29C56.0688 60.9974 57.774 60.2896 59.0318 59.0318C60.2896 57.774 60.9974 56.0688 61 54.29C61 54.0248 60.8946 53.7704 60.7071 53.5829C60.5196 53.3954 60.2652 53.29 60 53.29ZM39.71 6.41L44.3 11H39.71V6.41ZM18.29 8C18.29 7.20435 18.6061 6.44129 19.1687 5.87868C19.7313 5.31607 20.4944 5 21.29 5H37.71V12C37.71 12.2652 37.8154 12.5196 38.0029 12.7071C38.1904 12.8946 38.4448 13 38.71 13H45.71V38.43C45.71 39.2256 45.3939 39.9887 44.8313 40.5513C44.2687 41.1139 43.5056 41.43 42.71 41.43H21.29C20.4944 41.43 19.7313 41.1139 19.1687 40.5513C18.6061 39.9887 18.29 39.2256 18.29 38.43V8ZM7.71 24.57C7.71 23.7744 8.02607 23.0113 8.58868 22.4487C9.15129 21.8861 9.91435 21.57 10.71 21.57H16.29V38.43C16.29 39.7561 16.8168 41.0279 17.7545 41.9655C18.6921 42.9032 19.9639 43.43 21.29 43.43H42.71C44.0361 43.43 45.3079 42.9032 46.2455 41.9655C47.1832 41.0279 47.71 39.7561 47.71 38.43V21.57H53.29C54.0857 21.57 54.8487 21.8861 55.4113 22.4487C55.9739 23.0113 56.29 23.7744 56.29 24.57V53.29H7.71V24.57ZM54.29 59H9.71C8.63547 58.9976 7.59393 58.6286 6.75753 57.954C5.92112 57.2794 5.33993 56.3396 5.11 55.29H58.89C58.6601 56.3396 58.0789 57.2794 57.2425 57.954C56.4061 58.6286 55.3645 58.9976 54.29 59V59Z" fill="black"/>
<path d="M22.71 17H32C32.2652 17 32.5195 16.8946 32.7071 16.7071C32.8946 16.5196 33 16.2652 33 16C33 15.7348 32.8946 15.4804 32.7071 15.2929C32.5195 15.1054 32.2652 15 32 15H22.71C22.4447 15 22.1904 15.1054 22.0029 15.2929C21.8153 15.4804 21.71 15.7348 21.71 16C21.71 16.2652 21.8153 16.5196 22.0029 16.7071C22.1904 16.8946 22.4447 17 22.71 17Z" fill="black"/>
<path d="M22.71 21.57H41.71C41.9752 21.57 42.2295 21.4646 42.4171 21.2771C42.6046 21.0896 42.71 20.8352 42.71 20.57C42.71 20.3048 42.6046 20.0504 42.4171 19.8629C42.2295 19.6754 41.9752 19.57 41.71 19.57H22.71C22.4447 19.57 22.1904 19.6754 22.0029 19.8629C21.8153 20.0504 21.71 20.3048 21.71 20.57C21.71 20.8352 21.8153 21.0896 22.0029 21.2771C22.1904 21.4646 22.4447 21.57 22.71 21.57Z" fill="black"/>
<path d="M22.71 26.14H41.71C41.9752 26.14 42.2295 26.0346 42.4171 25.8471C42.6046 25.6596 42.71 25.4052 42.71 25.14C42.71 24.8748 42.6046 24.6204 42.4171 24.4329C42.2295 24.2454 41.9752 24.14 41.71 24.14H22.71C22.4447 24.14 22.1904 24.2454 22.0029 24.4329C21.8153 24.6204 21.71 24.8748 21.71 25.14C21.71 25.4052 21.8153 25.6596 22.0029 25.8471C22.1904 26.0346 22.4447 26.14 22.71 26.14Z" fill="black"/>
<path d="M22.71 30.71H41.71C41.9752 30.71 42.2295 30.6046 42.4171 30.4171C42.6046 30.2296 42.71 29.9752 42.71 29.71C42.71 29.4448 42.6046 29.1904 42.4171 29.0029C42.2295 28.8154 41.9752 28.71 41.71 28.71H22.71C22.4447 28.71 22.1904 28.8154 22.0029 29.0029C21.8153 29.1904 21.71 29.4448 21.71 29.71C21.71 29.9752 21.8153 30.2296 22.0029 30.4171C22.1904 30.6046 22.4447 30.71 22.71 30.71Z" fill="black"/>
<path d="M22.71 35.28H41.71C41.9752 35.28 42.2295 35.1746 42.4171 34.9871C42.6046 34.7996 42.71 34.5452 42.71 34.28C42.71 34.0148 42.6046 33.7604 42.4171 33.5729C42.2295 33.3854 41.9752 33.28 41.71 33.28H22.71C22.4447 33.28 22.1904 33.3854 22.0029 33.5729C21.8153 33.7604 21.71 34.0148 21.71 34.28C21.71 34.5452 21.8153 34.7996 22.0029 34.9871C22.1904 35.1746 22.4447 35.28 22.71 35.28Z" fill="black"/>
</svg>
