<svg id="Layer_2" data-name="Layer 2" xmlns="http://www.w3.org/2000/svg" viewBox="0 0 32 32"><defs><style>.cls-1{fill:none;stroke-linecap:round;stroke-dasharray:2 3;}.cls-1,.cls-2{stroke:#1F252D;stroke-width:1.5px;}.cls-2{fill:#fff;}</style></defs><rect class="cls-1" x="10.58" y="6.13" width="20" height="23" rx="2"/><rect class="cls-2" x="3.33" y="2.88" width="18.5" height="22.5" rx="1.25"/><path d="M9.3,19.22a.81.81,0,0,1-.81-.63L5.48,10a.62.62,0,0,1,0-.6.66.66,0,0,1,.59-.25.68.68,0,0,1,.47.14.84.84,0,0,1,.28.44L9.34,17l2.53-7.25a.8.8,0,0,1,.75-.61.59.59,0,0,1,.43.15,1.2,1.2,0,0,1,.29.48l2.51,7.32,2.53-7.37a1,1,0,0,1,.27-.43.73.73,0,0,1,.48-.15.58.58,0,0,1,.53.25.6.6,0,0,1,0,.6l-3,8.6a1.28,1.28,0,0,1-.31.46.75.75,0,0,1-.49.15.78.78,0,0,1-.51-.15,1,1,0,0,1-.29-.48l-2.49-7.14-2.52,7.16a1.15,1.15,0,0,1-.3.46A.68.68,0,0,1,9.3,19.22Z"/></svg>