<svg width="49" height="48" viewBox="0 0 49 48" fill="none" xmlns="http://www.w3.org/2000/svg">
<circle cx="24.9269" cy="24" r="20" fill="white"/>
<circle cx="24.9269" cy="24" r="23" stroke="#D9DCDD" stroke-width="2"/>
<g clip-path="url(#clip0_709_45)">
<path d="M24.9269 34C26.0269 34 26.9269 33.1 26.9269 32H22.9269C22.9269 33.1 23.8269 34 24.9269 34ZM30.9269 28V23C30.9269 19.93 29.2969 17.36 26.4269 16.68V16C26.4269 15.17 25.7569 14.5 24.9269 14.5C24.0969 14.5 23.4269 15.17 23.4269 16V16.68C20.5669 17.36 18.9269 19.92 18.9269 23V28L16.9269 30V31H32.9269V30L30.9269 28ZM28.9269 29H20.9269V23C20.9269 20.52 22.4369 18.5 24.9269 18.5C27.4169 18.5 28.9269 20.52 28.9269 23V29Z" fill="#1F252D"/>
</g>
<defs>
<clipPath id="clip0_709_45">
<rect width="24" height="24" fill="white" transform="translate(12.9269 12)"/>
</clipPath>
</defs>
</svg>
