<svg width="29" height="29" viewBox="0 0 29 29" fill="none" xmlns="http://www.w3.org/2000/svg">
<path d="M6.09375 12.6094C8.34375 17.0312 11.9688 20.6406 16.3906 22.9062L19.8281 19.4688C20.25 19.0469 20.875 18.9062 21.4219 19.0938C23.1719 19.6719 25.0625 19.9844 27 19.9844C27.8594 19.9844 28.5625 20.6875 28.5625 21.5469V27C28.5625 27.8594 27.8594 28.5625 27 28.5625C12.3281 28.5625 0.4375 16.6719 0.4375 2C0.4375 1.14062 1.14062 0.4375 2 0.4375H7.46875C8.32812 0.4375 9.03125 1.14062 9.03125 2C9.03125 3.95312 9.34375 5.82813 9.92188 7.57813C10.0937 8.125 9.96875 8.73438 9.53125 9.17188L6.09375 12.6094Z" fill="white"/>
</svg>
