<svg xmlns="http://www.w3.org/2000/svg" viewBox="0 0 48 48"><defs><style>.cls-1{fill:none;stroke:#1F252D;stroke-linejoin:round;}</style></defs><g id="Layer_52" data-name="Layer 52"><polygon class="cls-1" points="18.59 12.64 20.38 10.86 19.85 9.59 17.32 9.59 16.55 8.82 16.55 6.29 15.28 5.76 13.49 7.55 12.4 7.55 10.62 5.76 9.35 6.29 9.35 8.82 8.58 9.59 6.05 9.59 5.52 10.86 7.31 12.64 7.31 13.74 5.52 15.52 6.05 16.79 8.58 16.79 9.35 17.56 9.35 20.09 10.62 20.62 12.4 18.83 13.49 18.83 15.28 20.62 16.55 20.09 16.55 17.56 17.32 16.79 19.85 16.79 20.38 15.52 18.59 13.74 18.59 12.64"/><path class="cls-1" d="M15.47,13.19A2.52,2.52,0,1,1,13,10.67,2.52,2.52,0,0,1,15.47,13.19Z"/><polygon class="cls-1" points="40.26 27.05 42.34 25.7 41.79 23.85 39.31 23.86 37.92 21.59 39.05 19.39 37.65 18.06 35.51 19.31 33.17 18.04 33.05 15.57 31.17 15.12 29.95 17.27 27.29 17.34 25.94 15.26 24.09 15.8 24.1 18.28 21.83 19.67 19.63 18.54 18.3 19.94 19.55 22.08 18.28 24.42 15.81 24.54 15.36 26.42 17.51 27.65 17.58 30.31 15.5 31.65 16.05 33.5 18.52 33.49 19.91 35.76 18.78 37.96 20.18 39.29 22.32 38.05 24.66 39.31 24.78 41.79 26.66 42.24 27.89 40.09 30.55 40.02 31.89 42.1 33.74 41.55 33.73 39.07 36 37.68 38.2 38.81 39.53 37.41 38.29 35.27 39.56 32.93 42.03 32.81 42.48 30.93 40.33 29.7 40.26 27.05"/><circle class="cls-1" cx="28.92" cy="28.68" r="5.41"/></g></svg>