<svg width="96" height="97" viewBox="0 0 96 97" fill="none" xmlns="http://www.w3.org/2000/svg">
<path d="M10 87.0535H85" stroke="#FBF6F3" stroke-miterlimit="10" stroke-linecap="round" stroke-linejoin="round"/>
<path d="M17.52 87.0535V46.6535H29.66V32.1735L47 21.9335L63.16 32.3135V47.0535H76V87.0535" stroke="#FBF6F3" stroke-miterlimit="10" stroke-linecap="round" stroke-linejoin="round"/>
<path d="M36.5 87.0534V67.5134H46.2H55.9V87.0534" stroke="#FBF6F3" stroke-miterlimit="10" stroke-linecap="round" stroke-linejoin="round"/>
<path d="M46.76 87.0534V67.5134" stroke="#FBF6F3" stroke-miterlimit="10" stroke-linecap="round" stroke-linejoin="round"/>
<path d="M47 22.4335V10.9335H54.76V17.5935L47 17.6335" stroke="#FBF6F3" stroke-miterlimit="10" stroke-linecap="round" stroke-linejoin="round"/>
<path d="M47 47.0526C50.866 47.0526 54 43.9186 54 40.0526C54 36.1866 50.866 33.0526 47 33.0526C43.134 33.0526 40 36.1866 40 40.0526C40 43.9186 43.134 47.0526 47 47.0526Z" stroke="#FBF6F3" stroke-miterlimit="10" stroke-linecap="round" stroke-linejoin="round"/>
<path d="M46 35.0526V41.0726H50.88" stroke="#FBF6F3" stroke-miterlimit="10" stroke-linecap="round" stroke-linejoin="round"/>
<path d="M32 55.0526H24V63.0526H32V55.0526Z" stroke="#FBF6F3" stroke-miterlimit="10" stroke-linecap="round" stroke-linejoin="round"/>
<path d="M32 67.0526H24V75.0526H32V67.0526Z" stroke="#FBF6F3" stroke-miterlimit="10" stroke-linecap="round" stroke-linejoin="round"/>
<path d="M44 55.0526H36V63.0526H44V55.0526Z" stroke="#FBF6F3" stroke-miterlimit="10" stroke-linecap="round" stroke-linejoin="round"/>
<path d="M56 55.0526H48V63.0526H56V55.0526Z" stroke="#FBF6F3" stroke-miterlimit="10" stroke-linecap="round" stroke-linejoin="round"/>
<path d="M70 55.0526H62V63.0526H70V55.0526Z" stroke="#FBF6F3" stroke-miterlimit="10" stroke-linecap="round" stroke-linejoin="round"/>
<path d="M70 67.0526H62V75.0526H70V67.0526Z" stroke="#FBF6F3" stroke-miterlimit="10" stroke-linecap="round" stroke-linejoin="round"/>
</svg>
