<svg xmlns="http://www.w3.org/2000/svg" viewBox="0 0 32 32"><defs><style>.cls-1,.cls-2{fill:none;stroke:#1F252D;stroke-miterlimit:10;stroke-width:0.8px;}.cls-2{stroke-linecap:round;}</style></defs><g id="subject"><path d="M20.67,5.47A.53.53,0,0,1,21.2,6V26a.53.53,0,0,1-.53.53H6A.53.53,0,0,1,5.47,26V6A.53.53,0,0,1,6,5.47H20.67m0-.8H6A1.32,1.32,0,0,0,4.67,6V26A1.32,1.32,0,0,0,6,27.33H20.67A1.33,1.33,0,0,0,22,26V6a1.33,1.33,0,0,0-1.33-1.33Z"/><line class="cls-1" x1="7.67" y1="5.33" x2="7.67" y2="27.33"/><line class="cls-2" x1="5" y1="24.33" x2="7.67" y2="24.33"/><line class="cls-2" x1="5" y1="21.67" x2="7.67" y2="21.67"/><line class="cls-2" x1="5" y1="19" x2="7.67" y2="19"/><line class="cls-2" x1="5" y1="16.33" x2="7.67" y2="16.33"/><line class="cls-2" x1="5" y1="13.67" x2="7.67" y2="13.67"/><line class="cls-2" x1="5" y1="11" x2="7.67" y2="11"/><line class="cls-2" x1="5" y1="8.33" x2="7.67" y2="8.33"/><rect class="cls-1" x="9.54" y="8.67" width="9.14" height="5.33" rx="1.33"/><line class="cls-2" x1="11.44" y1="12.33" x2="16.78" y2="12.33"/><line class="cls-2" x1="11.67" y1="10.33" x2="17" y2="10.33"/><path class="cls-2" d="M21.67,6.33l6,1.24a1.34,1.34,0,0,1,1,1.6l-4.1,18.55a1.32,1.32,0,0,1-1.56,1L14.33,27"/><path class="cls-2" d="M21.69,9.77l2.91.7a1.33,1.33,0,0,1,1,1.65l-.72,2.64a1.34,1.34,0,0,1-1.59,1l-1.57-.37"/><line class="cls-2" x1="21.69" y1="11.33" x2="24.33" y2="12.33"/><line class="cls-2" x1="21.69" y1="13.37" x2="23.65" y2="14"/></g></svg>