<svg xmlns="http://www.w3.org/2000/svg" viewBox="0 0 32 32"><defs><style>.cls-1,.cls-2{fill:none;stroke:#1F252D;stroke-width:0.8px;}.cls-1{stroke-linecap:round;stroke-miterlimit:10;}.cls-2{stroke-linejoin:round;}</style></defs><g id="users"><line class="cls-1" x1="10" y1="28" x2="10" y2="25.33"/><line class="cls-1" x1="21.67" y1="28.33" x2="21.67" y2="25.67"/><path d="M20.67,17.47A4.53,4.53,0,0,1,25.2,22v5.33a.54.54,0,0,1-.53.54H7.33a.54.54,0,0,1-.53-.54V22a4.53,4.53,0,0,1,4.53-4.53H13l2.43,3a.79.79,0,0,0,1.24,0l2.43-3h1.62m0-.8h-2L16,20l-2.67-3.33h-2A5.33,5.33,0,0,0,6,22v5.33a1.34,1.34,0,0,0,1.33,1.34H24.67A1.34,1.34,0,0,0,26,27.33V22a5.33,5.33,0,0,0-5.33-5.33Z"/><path d="M16,4.13a5.2,5.2,0,1,1-5.2,5.2A5.21,5.21,0,0,1,16,4.13m0-.8a6,6,0,1,0,6,6,6,6,0,0,0-6-6Z"/><path d="M20.67,17.47A4.53,4.53,0,0,1,25.2,22v5.33a.54.54,0,0,1-.53.54H7.33a.54.54,0,0,1-.53-.54V22a4.53,4.53,0,0,1,4.53-4.53H13l2.43,3a.79.79,0,0,0,1.24,0l2.43-3h1.62m0-.8h-2L16,20l-2.67-3.33h-2A5.33,5.33,0,0,0,6,22v5.33a1.34,1.34,0,0,0,1.33,1.34H24.67A1.34,1.34,0,0,0,26,27.33V22a5.33,5.33,0,0,0-5.33-5.33Z"/><line class="cls-2" x1="13" y1="16.67" x2="13" y2="14"/><line class="cls-2" x1="19" y1="16.67" x2="19" y2="14"/><path class="cls-2" d="M19,4.33c0,.67-4.67,4-8.33,3"/><path class="cls-2" d="M16.67,6s3.33,3.33,5,2.33"/><path d="M20,23.47a.53.53,0,1,1-.53.53.53.53,0,0,1,.53-.53m0-.8A1.33,1.33,0,1,0,21.33,24,1.32,1.32,0,0,0,20,22.67Z"/><polyline class="cls-2" points="15.67 20.33 13.67 21.67 10.33 17"/><polyline class="cls-2" points="16.33 20.33 17.67 21.67 21.67 17"/></g></svg>