<?xml version="1.0" encoding="iso-8859-1"?>
<!-- Generator: Adobe Illustrator 17.1.0, SVG Export Plug-In . SVG Version: 6.00 Build 0)  -->
<!DOCTYPE svg PUBLIC "-//W3C//DTD SVG 1.1//EN" "http://www.w3.org/Graphics/SVG/1.1/DTD/svg11.dtd">
<svg version="1.1" id="Capa_1" xmlns="http://www.w3.org/2000/svg" xmlns:xlink="http://www.w3.org/1999/xlink" x="0px" y="0px"
	 viewBox="0 0 183.989 183.989" style="enable-background:new 0 0 183.989 183.989;" xml:space="preserve">
<path style="fill:#222221;" d="M2.5,154.883c-0.014,0-0.026,0-0.04,0H2.459c-0.004,0-0.009-0.001-0.011-0.001
	c-0.001,0-0.001,0-0.002,0c-0.315-0.006-0.617-0.071-0.894-0.185c-0.301-0.123-0.582-0.307-0.825-0.552H0.727
	c-0.001-0.003-0.003-0.004-0.006-0.007c-0.001-0.001-0.002-0.002-0.003-0.002c-0.002-0.003-0.007-0.001-0.005-0.006
	c-0.002-0.002-0.003-0.003-0.005-0.005l0,0c0,0,0,0-0.001,0c-0.011-0.012-0.021-0.023-0.032-0.035
	c-0.002-0.002-0.005-0.003-0.005-0.005c-0.212-0.228-0.374-0.485-0.485-0.758c0,0-0.001-0.001-0.001-0.003
	c-0.115-0.282-0.18-0.59-0.184-0.912c0-0.002,0-0.004,0-0.006c0-0.001,0-0.001,0-0.002c0-0.002,0-0.004,0-0.006
	c0-0.001,0-0.002,0-0.002c0-0.002,0-0.004,0-0.006c0-0.001,0-0.002,0-0.003c0-0.002,0-0.003,0-0.005v-0.001V31.606
	c0-1.381,1.119-2.5,2.5-2.5h178.989c1.381,0,2.5,1.119,2.5,2.5v120.777c0,1.381-1.119,2.5-2.5,2.5H2.507
	C2.505,154.883,2.503,154.883,2.5,154.883z M156.29,149.883h22.699V34.106H5v112.359l41.214-40.076
	c0.481-0.468,1.112-0.748,1.799-0.707c0.671,0.015,1.307,0.298,1.766,0.786l19.016,20.223l53.711-53.711
	c0.938-0.938,2.598-0.938,3.535,0l5.954,5.954c0.02,0.019,0.038,0.038,0.057,0.058l4.387,4.387l27.084-27.085h-12.959
	c-1.381,0-2.5-1.119-2.5-2.5s1.119-2.5,2.5-2.5h18.994c0.002,0,0.006,0,0.01,0c0.001,0,0.004,0,0.008,0c0.002,0,0.006,0,0.012,0l0,0
	c0.621,0.008,1.187,0.24,1.62,0.621c0.118,0.104,0.228,0.22,0.325,0.346c0.295,0.379,0.482,0.845,0.519,1.353
	c0,0.002,0.001,0.004,0.001,0.004c0.004,0.065,0.006,0.13,0.006,0.195v18.003c0,1.381-1.119,2.5-2.5,2.5s-2.5-1.119-2.5-2.5V59.83
	L156.29,70.596V149.883z M132.755,149.883h18.535V75.596l-13.085,13.085c-0.938,0.938-2.598,0.938-3.535,0l-1.915-1.915V149.883z
	 M109.221,149.883h18.534V81.766l-3.482-3.483l-15.052,15.052V149.883z M85.686,149.883h18.535V98.334l-18.555,18.555
	c0.013,0.103,0.02,0.207,0.02,0.313V149.883z M62.151,149.883h18.534V121.87l-10.18,10.18c-0.479,0.479-1.123,0.728-1.806,0.732
	c-0.677-0.011-1.32-0.295-1.783-0.787l-4.766-5.068V149.883z M38.616,149.883h18.535v-28.274l-9.274-9.863l-9.298,9.042
	c0.024,0.14,0.037,0.284,0.037,0.432V149.883z M8.657,149.883h24.959v-24.271L8.657,149.883z"/>
<g>
</g>
<g>
</g>
<g>
</g>
<g>
</g>
<g>
</g>
<g>
</g>
<g>
</g>
<g>
</g>
<g>
</g>
<g>
</g>
<g>
</g>
<g>
</g>
<g>
</g>
<g>
</g>
<g>
</g>
</svg>
