<?xml version="1.0" encoding="iso-8859-1"?>
<!-- Generator: Adobe Illustrator 19.0.0, SVG Export Plug-In . SVG Version: 6.00 Build 0)  -->
<svg version="1.1" id="Layer_1" xmlns="http://www.w3.org/2000/svg" xmlns:xlink="http://www.w3.org/1999/xlink" x="0px" y="0px"
	 viewBox="0 0 511.999 511.999" style="enable-background:new 0 0 511.999 511.999;" xml:space="preserve">
<g>
	<g>
		<path d="M468.587,96H341.333V64c0-11.733-10.347-21.333-23.147-21.333H193.813c-12.8,0-23.147,9.6-23.147,21.333v32H43.413
			C19.413,96,0,115.413,0,139.412v286.507c0,24,19.413,43.413,43.413,43.413h425.173c24,0,43.413-19.413,43.413-43.413V139.412
			C512,115.413,492.587,96,468.587,96z M193.707,64h124.48c1.067,0,1.707,0.427,1.813,0.107V96H192l-0.213-31.36
			C192.32,64.213,193.067,64,193.707,64z M468.587,448H43.413c-12.16,0-22.08-9.92-22.08-22.08v-195.52
			c45.76,49.28,151.787,71.787,182.293,77.44c4.907,28.907,32.427,48.427,61.333,43.52c22.4-3.84,39.893-21.44,43.52-43.84
			c29.76-7.04,136.32-35.093,182.187-86.72v205.12h0.001C490.667,438.08,480.747,448,468.587,448z M224,298.667
			c0-17.707,14.293-32,32-32c17.707,0,32,14.293,32,32c0,17.707-14.293,32-32,32C238.293,330.667,224,316.372,224,298.667z
			 M307.52,285.76c-7.04-28.48-35.84-45.867-64.32-38.827c-19.307,4.8-34.453,19.947-38.933,39.36
			C144.64,275.2,21.333,240.107,21.333,181.333v-41.92c0-12.16,9.92-22.08,22.08-22.08h425.173c12.16,0,22.08,9.92,22.08,22.08
			v31.254h0.001C490.667,229.547,367.467,271.359,307.52,285.76z"/>
	</g>
</g>
<g>
</g>
<g>
</g>
<g>
</g>
<g>
</g>
<g>
</g>
<g>
</g>
<g>
</g>
<g>
</g>
<g>
</g>
<g>
</g>
<g>
</g>
<g>
</g>
<g>
</g>
<g>
</g>
<g>
</g>
</svg>
