<svg xmlns="http://www.w3.org/2000/svg" viewBox="0 0 32 32"><defs><style>.cls-1{fill:none;stroke:#1F252D;stroke-linecap:round;stroke-miterlimit:10;stroke-width:0.8px;}</style></defs><g id="program"><path class="cls-1" d="M27.16,12.54,15,20.42a.66.66,0,0,1-.74,0l-9-6.14L2.82,12.56a.66.66,0,0,1,0-1.1L14.59,3.82a1.31,1.31,0,0,1,1.48,0l11.11,7.6A.66.66,0,0,1,27.16,12.54Z"/><path class="cls-1" d="M5.33,14.28v4.08a.65.65,0,0,0,.3.55l9,6a.67.67,0,0,0,.73,0l9.32-6a.65.65,0,0,0,.3-.56V14.16"/><path class="cls-1" d="M21.67,23h0A1.33,1.33,0,0,1,23,24.33v2a0,0,0,0,1,0,0H20.33a0,0,0,0,1,0,0v-2A1.33,1.33,0,0,1,21.67,23Z"/><polyline class="cls-1" points="14.65 11.23 21.59 16 21.67 23"/></g></svg>