<svg xmlns="http://www.w3.org/2000/svg" viewBox="0 0 32 32"><defs><style>.cls-1{fill:none;stroke:#1F252D;stroke-linecap:round;stroke-linejoin:round;stroke-width:0.8px;}</style></defs><g id="grades"><path d="M16,2.13A13.87,13.87,0,1,1,2.13,16,13.88,13.88,0,0,1,16,2.13m0-.8A14.67,14.67,0,1,0,30.67,16,14.67,14.67,0,0,0,16,1.33Z"/><path d="M16,4.8A11.2,11.2,0,1,1,4.8,16,11.21,11.21,0,0,1,16,4.8M16,4A12,12,0,1,0,28,16,12,12,0,0,0,16,4Z"/><path class="cls-1" d="M13.14,13l2.53-4,3,4h4.24a.17.17,0,0,1,.13.29l-2.74,3,2,4.67-6-2.67-6,3,2-5L8.94,13.51A.31.31,0,0,1,9.13,13c1.37,0,4,0,4,0"/></g></svg>