<?xml version="1.0" encoding="utf-8"?>
<!-- Svg Vector Icons : http://www.onlinewebfonts.com/icon -->
<!DOCTYPE svg PUBLIC "-//W3C//DTD SVG 1.1//EN" "http://www.w3.org/Graphics/SVG/1.1/DTD/svg11.dtd">
<svg version="1.1" xmlns="http://www.w3.org/2000/svg" xmlns:xlink="http://www.w3.org/1999/xlink" x="0px" y="0px" viewBox="0 0 1000 1000" enable-background="new 0 0 1000 1000" xml:space="preserve">
<metadata> Svg Vector Icons : http://www.onlinewebfonts.com/icon </metadata>
<g><path d="M378.2,806.3h446.2v-40.8H378.2V806.3z M378.2,540.8h446.2V500H378.2V540.8z M378.2,316.2h446.2v-40.8H378.2V316.2z M885.4,10H317.7c-33.6,0-61.2,27.4-61.2,61.2l0.4,224.5H114.6c-33.6,0-60.8,27.4-60.8,61.2v571.8c0,33.8,27.2,61.2,60.8,61.2H885c16.9,0,32.1-6.9,43.1-18.1c11.1-11.1,18-26.5,18-43.5V71.2C946.2,37.4,919,10,885.4,10z M905.3,908.4c0,8.5-7.4,22.3-11.8,28.8c-7.3,7.2-17.3,11.7-28.3,11.7l-730.3,0.3c-22.4,0-40.5-18.3-40.5-40.8v-531c0-22.5,18.1-40.8,40.5-40.8h122v449.1h40.5V91.6c0-22.5,18.1-40.8,40.5-40.8h527.2c22.4,0,40.5,18.3,40.5,40.8L905.3,908.4z"/></g>
</svg>