<svg width="34" height="24" viewBox="0 0 34 24" fill="none" xmlns="http://www.w3.org/2000/svg">
<path d="M13.6667 17L22.3167 12L13.6667 7.00001V17ZM32.9333 3.95001C33.15 4.73334 33.3 5.78334 33.4 7.11668C33.5167 8.45001 33.5667 9.60001 33.5667 10.6L33.6667 12C33.6667 15.65 33.4 18.3333 32.9333 20.05C32.5167 21.55 31.55 22.5167 30.05 22.9333C29.2667 23.15 27.8333 23.3 25.6333 23.4C23.4667 23.5167 21.4833 23.5667 19.65 23.5667L17 23.6667C10.0167 23.6667 5.66668 23.4 3.95001 22.9333C2.45001 22.5167 1.48334 21.55 1.06668 20.05C0.85001 19.2667 0.70001 18.2167 0.60001 16.8833C0.483344 15.55 0.433343 14.4 0.433343 13.4L0.333344 12C0.333344 8.35001 0.60001 5.66668 1.06668 3.95001C1.48334 2.45001 2.45001 1.48334 3.95001 1.06668C4.73334 0.85001 6.16668 0.70001 8.36668 0.60001C10.5333 0.483343 12.5167 0.433343 14.35 0.433343L17 0.333344C23.9833 0.333344 28.3333 0.60001 30.05 1.06668C31.55 1.48334 32.5167 2.45001 32.9333 3.95001Z" fill="white"/>
</svg>
