<svg width="33" height="33" viewBox="0 0 33 33" fill="none" xmlns="http://www.w3.org/2000/svg">
<path d="M10.0997 14.3666L3.33274 21.1336C2.20115 22.2652 1.56543 23.7999 1.56543 25.4002C1.56543 26.1926 1.7215 26.9773 2.02474 27.7094C2.32797 28.4414 2.77243 29.1066 3.33274 29.6669C3.89305 30.2272 4.55823 30.6717 5.2903 30.9749C6.02238 31.2782 6.80701 31.4342 7.59941 31.4342C9.19972 31.4342 10.7345 30.7985 11.8661 29.6669L18.633 22.9M22.8997 18.6333L29.6666 11.8664C30.7609 10.7272 31.3649 9.20438 31.349 7.62486C31.3331 6.04534 30.6985 4.53501 29.5816 3.41806C28.4646 2.30111 26.9543 1.66659 25.3748 1.6507C23.7953 1.6348 22.2725 2.2388 21.1333 3.33305L14.3663 10.1M10.0997 22.9L22.8997 10.1" stroke="#D155EF" stroke-width="2.13333"/>
</svg>
