<svg xmlns="http://www.w3.org/2000/svg" viewBox="0 0 32 32"><defs><style>.cls-1,.cls-2{fill:none;stroke-linecap:round;stroke-linejoin:round;stroke-width:0.8px;}.cls-1{stroke:#1d1d1b;}.cls-2{stroke:#1F252D;}</style></defs><g id="bookmark"><path class="cls-1" d="M11.17,15.41l1.5,3.73a.55.55,0,0,0,.17.23l8.63,8.09a.66.66,0,0,0,1,0l6.26-6.91a.67.67,0,0,0-.05-.94L20.22,12a.59.59,0,0,0-.23-.14l-3.93-1.36a.68.68,0,0,0-.69.16l-4.06,4.06A.66.66,0,0,0,11.17,15.41Z"/><circle class="cls-2" cx="15.67" cy="14.33" r="1.33"/><path class="cls-2" d="M15.67,14.33a19.08,19.08,0,0,1-4-4c-2.14-2.8-4.74-6-6.67-6-.71,0-.72.63-.67,1.34.15,1.89,3,2.89,6,4.66A31.24,31.24,0,0,1,15.67,14.33Z"/></g></svg>