<svg width="24" height="24" viewBox="0 0 24 24" fill="none" xmlns="http://www.w3.org/2000/svg">
<path d="M20.46 8.68984H3.54004V6.33984C3.54004 5.23484 4.43504 4.33984 5.54004 4.33984H18.455C19.56 4.33984 20.455 5.23484 20.455 6.33984V8.68984H20.46Z" stroke="black" stroke-miterlimit="10" stroke-linecap="round"/>
<path d="M3.54004 8.69043V20.2004C3.54004 20.7854 4.01504 21.2554 4.59504 21.2554H19.395C19.98 21.2554 20.45 20.7804 20.45 20.2004V8.69043" stroke="black" stroke-miterlimit="10" stroke-linecap="round"/>
<path d="M7.55469 4.34023C7.55469 3.46023 8.26969 2.74023 9.15469 2.74023C10.0347 2.74023 10.7547 3.45523 10.7547 4.34023C10.7547 5.22023 10.0397 5.94023 9.15469 5.94023" stroke="black" stroke-miterlimit="10" stroke-linecap="round"/>
<path d="M13.2646 4.34023C13.2646 3.46023 13.9796 2.74023 14.8646 2.74023C15.7446 2.74023 16.4646 3.45523 16.4646 4.34023C16.4646 5.22023 15.7496 5.94023 14.8646 5.94023" stroke="black" stroke-miterlimit="10" stroke-linecap="round"/>
<path d="M8.48973 10.5557H5.84473V13.2007H8.48973V10.5557Z" stroke="black" stroke-miterlimit="10" stroke-linecap="round" stroke-linejoin="round"/>
<path d="M13.3247 10.5557H10.6797V13.2007H13.3247V10.5557Z" stroke="black" stroke-miterlimit="10" stroke-linecap="round" stroke-linejoin="round"/>
<path d="M18.1596 10.5557H15.5146V13.2007H18.1596V10.5557Z" stroke="black" stroke-miterlimit="10" stroke-linecap="round" stroke-linejoin="round"/>
<path d="M8.48973 14.9756H5.84473V17.6206H8.48973V14.9756Z" stroke="black" stroke-miterlimit="10" stroke-linecap="round" stroke-linejoin="round"/>
<path d="M13.3247 14.9756H10.6797V17.6206H13.3247V14.9756Z" stroke="black" stroke-miterlimit="10" stroke-linecap="round" stroke-linejoin="round"/>
<path d="M18.1596 14.9756H15.5146V17.6206H18.1596V14.9756Z" stroke="black" stroke-miterlimit="10" stroke-linecap="round" stroke-linejoin="round"/>
</svg>
