<svg xmlns="http://www.w3.org/2000/svg" viewBox="0 0 32 32"><defs><style>.cls-1,.cls-2{fill:none;stroke:#1F252D;stroke-linecap:round;stroke-width:0.8px;}.cls-1{stroke-miterlimit:10;}.cls-2{stroke-linejoin:round;}</style></defs><g id="Layer_52" data-name="Layer 52"><path class="cls-1" d="M7.39,5.79H24.61a2.67,2.67,0,0,1,2.67,2.67v3.13a0,0,0,0,1,0,0H4.72a0,0,0,0,1,0,0V8.45A2.67,2.67,0,0,1,7.39,5.79Z"/><path class="cls-1" d="M4.72,11.59V26.93a1.41,1.41,0,0,0,1.41,1.41H25.87a1.41,1.41,0,0,0,1.41-1.41V11.59"/><path class="cls-1" d="M10.07,5.79A2.13,2.13,0,1,1,12.2,7.92"/><path class="cls-1" d="M17.68,5.79a2.13,2.13,0,1,1,2.13,2.13"/><rect class="cls-2" x="7.79" y="14.08" width="3.52" height="3.52"/><rect class="cls-2" x="14.24" y="14.08" width="3.52" height="3.52"/><rect class="cls-2" x="20.68" y="14.08" width="3.52" height="3.52"/><rect class="cls-2" x="7.79" y="19.96" width="3.52" height="3.52"/><rect class="cls-2" x="14.24" y="19.96" width="3.52" height="3.52"/><rect class="cls-2" x="20.68" y="19.96" width="3.52" height="3.52"/></g></svg>