<svg xmlns="http://www.w3.org/2000/svg" viewBox="0 0 32 32"><defs><style>.cls-1{fill:none;stroke:#1F252D;stroke-miterlimit:10;stroke-width:0.8px;}</style></defs><g id="chat"><path class="cls-1" d="M14.63,26.25c.24-.19,3.78,1.42,5.7,1.42,5.16,0,8.84-4,8.84-9.17a9.34,9.34,0,1,0-17.89,3.75c.26.81-.23,2.54-2.95,3.42C6.82,26.16,11.75,28.48,14.63,26.25Z"/><path class="cls-1" d="M14.49,18.85c-.2-.16-3.07,1.15-4.64,1.15a7.13,7.13,0,0,1-7.18-7.45,7.59,7.59,0,1,1,14.54,3c-.21.65.19,2.06,2.4,2.77C20.84,18.77,16.83,20.66,14.49,18.85Z"/></g></svg>