<svg width="80" height="80" viewBox="0 0 80 80" fill="none" xmlns="http://www.w3.org/2000/svg">
<path d="M75.5 40.0002C75.5 20.424 59.5761 4.50016 40 4.50016C20.4238 4.50016 4.49998 20.424 4.49998 40.0002C4.49998 59.5763 20.4238 75.5002 40 75.5002C59.5761 75.5002 75.5 59.5763 75.5 40.0002ZM3.83331 40.0002C3.83331 20.0263 20.0261 3.8335 40 3.8335C59.9738 3.8335 76.1666 20.0263 76.1666 40.0002C76.1666 59.974 59.9738 76.1668 40 76.1668C20.0261 76.1668 3.83331 59.974 3.83331 40.0002Z" fill="#A85CFF" stroke="#A85CFF"/>
<path d="M18.6499 38.5331C19.4499 39.3331 32.9166 51.7998 32.9166 51.7998L59.9499 26.6831" stroke="#A85CFF" stroke-miterlimit="10" stroke-linecap="round" stroke-linejoin="round"/>
</svg>
