<svg width="44" height="44" viewBox="0 0 44 44" fill="none" xmlns="http://www.w3.org/2000/svg">
<path d="M22 1C26.1534 1 30.2136 2.23163 33.667 4.53914C37.1204 6.84665 39.812 10.1264 41.4015 13.9636C42.9909 17.8009 43.4068 22.0233 42.5965 26.0969C41.7862 30.1705 39.7862 33.9123 36.8493 36.8492C33.9124 39.7861 30.1705 41.7862 26.0969 42.5965C22.0233 43.4068 17.8009 42.9909 13.9637 41.4015C10.1264 39.812 6.84666 37.1204 4.53915 33.667C2.23164 30.2135 1.00001 26.1534 1.00001 22C1.00001 16.4305 3.2125 11.089 7.15077 7.15076C11.089 3.21249 16.4305 1 22 1ZM22 0C17.6488 0 13.3953 1.29028 9.77746 3.70767C6.15958 6.12506 3.33979 9.56099 1.67466 13.581C0.00953233 17.6009 -0.426141 22.0244 0.422734 26.292C1.27161 30.5596 3.36691 34.4796 6.44366 37.5564C9.52042 40.6331 13.4404 42.7284 17.708 43.5773C21.9756 44.4261 26.3991 43.9905 30.419 42.3253C34.439 40.6602 37.875 37.8404 40.2923 34.2225C42.7097 30.6047 44 26.3512 44 22C44 16.1652 41.6822 10.5695 37.5564 6.44365C33.4306 2.31785 27.8348 0 22 0V0Z" fill="black"/>
<path d="M22 3V6" stroke="black" stroke-width="1.22" stroke-miterlimit="10" stroke-linecap="round"/>
<path d="M22 38V41" stroke="black" stroke-width="1.22" stroke-miterlimit="10" stroke-linecap="round"/>
<path d="M41 22H38" stroke="black" stroke-width="1.5" stroke-miterlimit="10" stroke-linecap="round"/>
<path d="M6 22H3" stroke="black" stroke-width="1.5" stroke-miterlimit="10" stroke-linecap="round"/>
<path d="M22 23C22.5523 23 23 22.5523 23 22C23 21.4477 22.5523 21 22 21C21.4477 21 21 21.4477 21 22C21 22.5523 21.4477 23 22 23Z" fill="black"/>
<path d="M22 10V22H30.02" stroke="black" stroke-miterlimit="10" stroke-linecap="round"/>
</svg>
