<svg xmlns="http://www.w3.org/2000/svg" viewBox="0 0 32 32"><defs><style>.cls-1,.cls-2{fill:none;stroke:#1F252D;stroke-width:0.8px;}.cls-1{stroke-linecap:round;stroke-linejoin:round;}.cls-2{stroke-miterlimit:10;}</style></defs><g id="cloud_reject" data-name="cloud/reject"><path class="cls-1" d="M27,20.87a5,5,0,0,0,3.11-4.79,7.33,7.33,0,0,0-9.34-7,7.33,7.33,0,0,0-14,3.05c0,.25,0,.49,0,.73a4,4,0,0,0-.7-.06,4.67,4.67,0,0,0-4.67,4.67,4.12,4.12,0,0,0,4.33,4.33H16.25"/><circle class="cls-2" cx="21.58" cy="22.42" r="5.33"/><line class="cls-1" x1="24.25" y1="19.75" x2="19.25" y2="24.75"/><line class="cls-1" x1="19.25" y1="19.75" x2="24.25" y2="24.75"/></g></svg>