<svg xmlns="http://www.w3.org/2000/svg" viewBox="0 0 32 32"><defs><style>.cls-1,.cls-2{fill:none;stroke:#1F252D;stroke-width:0.8px;}.cls-1{stroke-linecap:round;stroke-linejoin:round;}.cls-2{stroke-miterlimit:10;}</style></defs><g id="cloud_accept" data-name="cloud/accept"><path class="cls-1" d="M27.06,20.79A5,5,0,0,0,30.16,16a7.32,7.32,0,0,0-9.33-7A7.33,7.33,0,0,0,6.83,12a6,6,0,0,0,0,.73,4.17,4.17,0,0,0-.71-.06A4.66,4.66,0,0,0,1.5,17.33a4.12,4.12,0,0,0,4.33,4.34h10.5"/><circle class="cls-2" cx="21.67" cy="22.33" r="5.33"/><polyline class="cls-1" points="18.52 22.33 20.76 24.57 25 20.33"/></g></svg>