<svg width="48" height="48" viewBox="0 0 48 48" fill="none" xmlns="http://www.w3.org/2000/svg">
<path d="M9.50999 44.1992C15.04 29.2702 23.67 17.378 34.88 7.22942C34.96 7.15105 35.11 7.2784 35.02 7.36656C29.83 12.8327 25.04 18.6417 21.12 24.9698C17.28 31.4057 11 44.2776 9.68999 44.2776C9.58125 44.7261 9.5 44.5715 9.50999 44.1992Z" stroke="black" stroke-miterlimit="10"/>
<path d="M15.3299 31.2C12.5599 28.0947 13.1699 23.6376 14.3899 20.5617C15.8799 16.8098 20.0299 13.1266 19.8299 13.391C19.6299 13.6555 19.3499 15.7812 19.8299 17.1429C20.3099 18.5045 20.5399 15.2719 21.4999 12.9796C22.4599 10.6874 26.6399 7.48411 31.7899 5.06452C35.2999 3.4188 37.9199 3.13472 38.8599 3.69309C37.1799 4.20247 35.9799 5.61309 35.9799 5.61309L38.0399 5.26043C38.0399 5.26043 36.7799 12.6955 33.9099 17.7404C30.4499 23.8335 26.1999 30.0147 23.7299 30.5045C26.6999 30.3086 27.8299 30.0245 27.8299 30.0245C27.8299 30.0245 21.3499 35.3045 16.8499 32.4931" stroke="black" stroke-linecap="round" stroke-linejoin="round"/>
</svg>
