<svg xmlns="http://www.w3.org/2000/svg" viewBox="0 0 32 32"><defs><style>.cls-1{fill:none;}.cls-1,.cls-2{stroke:#1F252D;stroke-linecap:round;stroke-linejoin:round;stroke-width:0.8px;}.cls-2{fill:#fff;}</style></defs><g id="Layer_52" data-name="Layer 52"><path class="cls-1" d="M10.61,12.13H21.39a0,0,0,0,1,0,0V22.34a1.33,1.33,0,0,1-1.33,1.33H11.94a1.33,1.33,0,0,1-1.33-1.33V12.13A0,0,0,0,1,10.61,12.13Z"/><path class="cls-2" d="M10.4,9.67H21.6a.67.67,0,0,1,.67.67v2.09a0,0,0,0,1,0,0H9.73a0,0,0,0,1,0,0V10.33A.67.67,0,0,1,10.4,9.67Z"/><line class="cls-1" x1="13.67" y1="14.71" x2="13.67" y2="21.93"/><line class="cls-1" x1="16" y1="14.71" x2="16" y2="21.93"/><line class="cls-1" x1="18.4" y1="14.71" x2="18.4" y2="21.93"/><path class="cls-1" d="M14.66,9.67a1.34,1.34,0,0,1,2.68,0"/></g></svg>