<svg xmlns="http://www.w3.org/2000/svg" viewBox="0 0 32 32"><defs><style>.cls-1{fill:none;stroke:#1F252D;stroke-linecap:round;stroke-linejoin:round;stroke-width:0.8px;}</style></defs><g id="Download"><path class="cls-1" d="M18.22,23h4.5c4.05,0,7.66-1.62,7.66-5.67a7.32,7.32,0,0,0-9.33-7,7.33,7.33,0,0,0-14,3.05,5.85,5.85,0,0,0,0,.73A4.17,4.17,0,0,0,6.38,14a4.67,4.67,0,0,0-4.66,4.67A4.12,4.12,0,0,0,6.05,23h7.26"/><polyline class="cls-1" points="13.31 25.73 15.67 28.67 18.22 25.93 15.67 28.67 15.67 15"/></g></svg>