<svg id="Layer_53" data-name="Layer 53" xmlns="http://www.w3.org/2000/svg" viewBox="0 0 32 32"><defs><style>.cls-1{fill:none;stroke:#1F252D;stroke-linecap:round;stroke-linejoin:round;stroke-width:0.8px;}</style></defs><path class="cls-1" d="M16.85,13.67h-1a.15.15,0,0,1-.15-.15v-1a.15.15,0,0,1,.15-.15h1a.15.15,0,0,1,.15.15v1A.15.15,0,0,1,16.85,13.67Z"/><path class="cls-1" d="M16.85,17h-1a.15.15,0,0,1-.15-.15v-1a.14.14,0,0,1,.15-.15h1a.15.15,0,0,1,.15.15v1A.15.15,0,0,1,16.85,17Z"/><path class="cls-1" d="M16.85,20.33h-1a.14.14,0,0,1-.15-.15v-1a.15.15,0,0,1,.15-.15h1a.15.15,0,0,1,.15.15v1A.15.15,0,0,1,16.85,20.33Z"/><path class="cls-1" d="M11.59,12.47l4.2-5.13a.66.66,0,0,1,1.08,0l4.2,5.13"/><path class="cls-1" d="M21.26,19.89l-4.52,5.57a.51.51,0,0,1-.81,0l-4.52-5.57"/></svg>