<svg width="20" height="20" viewBox="0 0 20 20" fill="none" xmlns="http://www.w3.org/2000/svg">
<mask id="path-1-inside-1_3023_36521" fill="white">
<path d="M19.5 10C19.5 12.0962 18.8067 14.1336 17.528 15.7947C16.2494 17.4558 14.4572 18.6474 12.4308 19.1838C10.4043 19.7201 8.25733 19.5712 6.32435 18.7601C4.39137 17.9491 2.78092 16.5214 1.74391 14.6997C0.706891 12.8779 0.301543 10.7643 0.591013 8.68815C0.880483 6.61199 1.84851 4.68987 3.3443 3.22124C4.84008 1.75261 6.77961 0.819951 8.86072 0.568561C10.9418 0.317171 13.0477 0.761168 14.8501 1.83138L10 10H19.5Z"/>
</mask>
<path d="M19.5 10C19.5 12.0962 18.8067 14.1336 17.528 15.7947C16.2494 17.4558 14.4572 18.6474 12.4308 19.1838C10.4043 19.7201 8.25733 19.5712 6.32435 18.7601C4.39137 17.9491 2.78092 16.5214 1.74391 14.6997C0.706891 12.8779 0.301543 10.7643 0.591013 8.68815C0.880483 6.61199 1.84851 4.68987 3.3443 3.22124C4.84008 1.75261 6.77961 0.819951 8.86072 0.568561C10.9418 0.317171 13.0477 0.761168 14.8501 1.83138L10 10H19.5Z" stroke="black" stroke-width="2" stroke-linejoin="round" mask="url(#path-1-inside-1_3023_36521)"/>
</svg>
