<svg width="48" height="48" viewBox="0 0 48 48" fill="none" xmlns="http://www.w3.org/2000/svg">
<path d="M33.3741 2C33.3041 2 33.2341 2.01 33.1541 2.02L6.78409 7.82001C6.24409 7.94001 5.90409 8.46999 6.02409 9.00999L13.7541 44.17C13.8541 44.64 14.2741 44.96 14.7341 44.96C14.8041 44.96 14.8741 44.95 14.9541 44.94L41.3241 39.14C41.8641 39.02 42.2041 38.49 42.0841 37.95L34.3541 2.79001C34.2441 2.32001 33.8341 2 33.3741 2Z" stroke="#495151" stroke-width="1.33333"/>
<path d="M14.0767 19.3894L18.8033 12" stroke="#495151" stroke-width="1.33333" stroke-miterlimit="10" stroke-linecap="round"/>
<path d="M19.3385 18.6757C20.0421 18.6757 20.6125 18.1053 20.6125 17.4017C20.6125 16.6981 20.0421 16.1277 19.3385 16.1277C18.6349 16.1277 18.0645 16.6981 18.0645 17.4017C18.0645 18.1053 18.6349 18.6757 19.3385 18.6757Z" fill="black"/>
<path d="M13.274 14.79C13.9777 14.79 14.5481 14.2196 14.5481 13.516C14.5481 12.8123 13.9777 12.2419 13.274 12.2419C12.5704 12.2419 12 12.8123 12 13.516C12 14.2196 12.5704 14.79 13.274 14.79Z" fill="black"/>
<path d="M26.9048 9L28.5483 16.4658" stroke="black" stroke-width="0.75" stroke-miterlimit="10" stroke-linecap="round"/>
<path d="M24 13.5483L31.4658 11.9048" stroke="black" stroke-width="0.75" stroke-miterlimit="10" stroke-linecap="round"/>
<path d="M27.2364 22L23.3379 28.574" stroke="black" stroke-width="0.75" stroke-miterlimit="10" stroke-linecap="round"/>
<path d="M22 23.3376L28.574 27.2489" stroke="black" stroke-width="0.75" stroke-miterlimit="10" stroke-linecap="round"/>
<path d="M16 34.47L36.33 30" stroke="black" stroke-width="0.75" stroke-miterlimit="10" stroke-linecap="round"/>
<path d="M16.8599 38.3802L37.1899 33.9102" stroke="black" stroke-width="0.75" stroke-miterlimit="10" stroke-linecap="round"/>
<path d="M41 33.5H44L43.59 4H34" stroke="black" stroke-width="0.75" stroke-miterlimit="10" stroke-linejoin="round"/>
</svg>
