<svg width="32" height="32" viewBox="0 0 32 32" fill="none" xmlns="http://www.w3.org/2000/svg">
<path d="M11.9678 10.8333C12.8882 10.8333 13.6344 10.0871 13.6344 9.16667C13.6344 8.24619 12.8882 7.5 11.9678 7.5C11.0473 7.5 10.3011 8.24619 10.3011 9.16667C10.3011 10.0871 11.0473 10.8333 11.9678 10.8333Z" stroke="black" stroke-miterlimit="10"/>
<path d="M8 9.16669H10.8008" stroke="black" stroke-miterlimit="10"/>
<path d="M13.1344 9.16669H25" stroke="black" stroke-miterlimit="10"/>
<path d="M22.0909 17.1667C23.0113 17.1667 23.7575 16.4205 23.7575 15.5C23.7575 14.5795 23.0113 13.8333 22.0909 13.8333C21.1704 13.8333 20.4242 14.5795 20.4242 15.5C20.4242 16.4205 21.1704 17.1667 22.0909 17.1667Z" stroke="black" stroke-miterlimit="10"/>
<path d="M8 15.5H20.9354" stroke="black" stroke-miterlimit="10"/>
<path d="M23.2575 15.5H25" stroke="black" stroke-miterlimit="10"/>
<path d="M15.442 23.5C16.3625 23.5 17.1087 22.7538 17.1087 21.8334C17.1087 20.9129 16.3625 20.1667 15.442 20.1667C14.5215 20.1667 13.7753 20.9129 13.7753 21.8334C13.7753 22.7538 14.5215 23.5 15.442 23.5Z" stroke="black" stroke-miterlimit="10"/>
<path d="M8 21.8409H14.2753" stroke="black" stroke-miterlimit="10"/>
<path d="M16.6089 21.8409H25" stroke="black" stroke-miterlimit="10"/>
</svg>
