<svg xmlns="http://www.w3.org/2000/svg" viewBox="0 0 32 32"><defs><style>.cls-1{fill:#fff;stroke:#1F252D;stroke-linecap:round;stroke-linejoin:round;stroke-width:0.8px;}</style></defs><g id="Layer_52" data-name="Layer 52"><path class="cls-1" d="M29.66,8.38H13.94L12.6,6.14H9.33L8,8.38H6.11A.63.63,0,0,0,5.48,9V25.23a.63.63,0,0,0,.63.63H29.66a.63.63,0,0,0,.63-.63V9A.63.63,0,0,0,29.66,8.38Z"/><path class="cls-1" d="M29.45,25.86H6a.62.62,0,0,1-.6-.45L1.74,13a.63.63,0,0,1,.6-.81h23.5a.63.63,0,0,1,.6.46l3.61,12.37A.62.62,0,0,1,29.45,25.86Z"/></g></svg>