<svg width="33" height="32" viewBox="0 0 33 32" fill="none" xmlns="http://www.w3.org/2000/svg">
<circle cx="16.5" cy="16" r="16" fill="white" fill-opacity="0.75"/>
<path d="M19.7087 17.808C20.1661 17.808 20.3947 17.9993 20.3947 18.382C20.3947 18.7647 20.1661 18.956 19.7087 18.956H18.8127V20.342C18.8127 20.5753 18.7474 20.7573 18.6167 20.888C18.4861 21.0093 18.3134 21.07 18.0987 21.07C17.8934 21.07 17.7254 21.0093 17.5947 20.888C17.4641 20.7573 17.3987 20.5753 17.3987 20.342V18.956H13.4647C13.2594 18.956 13.1007 18.9 12.9887 18.788C12.8767 18.676 12.8207 18.5313 12.8207 18.354C12.8207 18.1673 12.8814 17.9853 13.0027 17.808L17.4687 11.382C17.6181 11.1673 17.8281 11.06 18.0987 11.06C18.2947 11.06 18.4627 11.1253 18.6027 11.256C18.7427 11.3773 18.8127 11.5547 18.8127 11.788V17.808H19.7087ZM17.3987 17.808V13.44L14.3747 17.808H17.3987Z" fill="#303838"/>
</svg>
