<svg width="24" height="24" viewBox="0 0 24 24" fill="none" xmlns="http://www.w3.org/2000/svg">
<path d="M4.76923 5.74927H9.89743C9.90212 5.74927 9.90504 5.75011 9.90689 5.75088C9.90826 5.75144 9.90938 5.7521 9.91026 5.75274V10.7287C9.90938 10.7293 9.90826 10.73 9.90689 10.7306C9.90504 10.7313 9.90212 10.7322 9.89743 10.7322H4.76923C4.76454 10.7322 4.76163 10.7313 4.75977 10.7306C4.75841 10.73 4.75728 10.7293 4.75641 10.7287V5.75274C4.75728 5.7521 4.75841 5.75144 4.75977 5.75088C4.76163 5.75011 4.76454 5.74927 4.76923 5.74927Z" stroke="#303838" stroke-miterlimit="10" stroke-linecap="round"/>
<path d="M13.1026 5.74927H18.2308C18.2355 5.74927 18.2384 5.75011 18.2402 5.75088C18.2416 5.75144 18.2427 5.7521 18.2436 5.75274V10.7287C18.2427 10.7293 18.2416 10.73 18.2402 10.7306C18.2384 10.7313 18.2355 10.7322 18.2308 10.7322H13.1026C13.0979 10.7322 13.095 10.7313 13.0931 10.7306C13.0918 10.73 13.0906 10.7293 13.0898 10.7287V5.75274C13.0906 5.7521 13.0918 5.75144 13.0931 5.75088C13.095 5.75011 13.0979 5.74927 13.1026 5.74927Z" stroke="#303838" stroke-miterlimit="10" stroke-linecap="round"/>
<path d="M13.1026 13.2678H18.2308C18.2355 13.2678 18.2384 13.2687 18.2402 13.2694C18.2416 13.27 18.2427 13.2707 18.2436 13.2713V18.2473C18.2427 18.2479 18.2416 18.2486 18.2402 18.2491C18.2384 18.2499 18.2355 18.2507 18.2308 18.2507H13.1026C13.0979 18.2507 13.095 18.2499 13.0931 18.2491C13.0918 18.2486 13.0906 18.2479 13.0898 18.2473V13.2713C13.0906 13.2707 13.0918 13.27 13.0931 13.2694C13.095 13.2687 13.0979 13.2678 13.1026 13.2678Z" stroke="#303838" stroke-miterlimit="10" stroke-linecap="round"/>
<path d="M4.76923 13.2678H9.89743C9.90212 13.2678 9.90504 13.2687 9.90689 13.2694C9.90826 13.27 9.90938 13.2707 9.91026 13.2713V18.2473C9.90938 18.2479 9.90826 18.2486 9.90689 18.2491C9.90504 18.2499 9.90212 18.2507 9.89743 18.2507H4.76923C4.76454 18.2507 4.76163 18.2499 4.75977 18.2491C4.75841 18.2486 4.75728 18.2479 4.75641 18.2473V13.2713C4.75728 13.2707 4.75841 13.27 4.75977 13.2694C4.76163 13.2687 4.76454 13.2678 4.76923 13.2678Z" stroke="#303838" stroke-miterlimit="10" stroke-linecap="round"/>
</svg>
