<svg width="32" height="32" viewBox="0 0 32 32" fill="none" xmlns="http://www.w3.org/2000/svg">
<path d="M13 25.5C13.2761 25.5 13.5 25.2761 13.5 25C13.5 24.7239 13.2761 24.5 13 24.5V25.5ZM6.5 18.5V23H7.5V18.5H6.5ZM9 25.5H13V24.5H9V25.5ZM6.5 23C6.5 24.3807 7.61929 25.5 9 25.5V24.5C8.17157 24.5 7.5 23.8284 7.5 23H6.5Z" fill="#303838"/>
<path d="M19 25.5C18.7239 25.5 18.5 25.2761 18.5 25C18.5 24.7239 18.7239 24.5 19 24.5V25.5ZM25.5 18.5V23H24.5V18.5H25.5ZM23 25.5H19V24.5H23V25.5ZM25.5 23C25.5 24.3807 24.3807 25.5 23 25.5V24.5C23.8284 24.5 24.5 23.8284 24.5 23H25.5Z" fill="#303838"/>
<path d="M13 6.5C13.2761 6.5 13.5 6.72386 13.5 7C13.5 7.27614 13.2761 7.5 13 7.5V6.5ZM6.5 13.5V9H7.5V13.5H6.5ZM9 6.5H13V7.5H9V6.5ZM6.5 9C6.5 7.61929 7.61929 6.5 9 6.5V7.5C8.17157 7.5 7.5 8.17157 7.5 9H6.5Z" fill="#303838"/>
<path d="M19 6.5C18.7239 6.5 18.5 6.72386 18.5 7C18.5 7.27614 18.7239 7.5 19 7.5V6.5ZM25.5 13.5V9H24.5V13.5H25.5ZM23 6.5H19V7.5H23V6.5ZM25.5 9C25.5 7.61929 24.3807 6.5 23 6.5V7.5C23.8284 7.5 24.5 8.17157 24.5 9H25.5Z" fill="#303838"/>
</svg>
