<?xml version="1.0" encoding="UTF-8"?><svg id="Warstwa_1" xmlns="http://www.w3.org/2000/svg" viewBox="0 0 32 32"><path d="M10.46,24.63c-1.43,0-2.57-.76-3.21-2.15l-2.98-6.47c-.61-1.34-1.22-2.67-1.84-4.01-.43-.93-.51-1.79-.24-2.55s.89-1.36,1.83-1.79c.8-.37,1.66-.41,2.43-.11,.8,.31,1.44,.97,1.81,1.85,.69,1.67,1.88,4.6,2.42,5.94l2.16-5.1c.15-.36,.3-.72,.48-1.06,.6-1.18,1.64-1.82,2.9-1.77,1.31,.05,2.31,.75,2.84,1.98l1.13,2.64c.48,1.12,.95,2.23,1.43,3.35,.17-.37,.35-.74,.5-1.11,.26-.65,.52-1.3,.77-1.95,.38-.97,.76-1.93,1.16-2.89,.38-.92,.98-1.56,1.75-1.87,.7-.28,1.47-.25,2.23,.08,.89,.39,1.51,1,1.8,1.76,.28,.75,.22,1.61-.18,2.48-1.13,2.44-2.27,4.88-3.4,7.33l-1.58,3.39c-.61,1.31-1.73,2.03-3.17,2.03h-.04c-1.43-.01-2.53-.75-3.11-2.06-.7-1.6-1.42-3.18-2.14-4.77l-.27-.59c-.16,.36-.31,.73-.47,1.09l-.4,.94c-.45,1.06-.9,2.13-1.32,3.2-.54,1.38-1.67,2.16-3.18,2.19-.03,0-.06,0-.09,0ZM5.36,8.87c-.24,0-.48,.06-.73,.17-.56,.26-.91,.58-1.05,.94-.13,.37-.07,.84,.19,1.4,.62,1.34,1.23,2.68,1.85,4.02l2.98,6.47c.4,.88,1,1.32,1.91,1.27,.92-.02,1.49-.41,1.82-1.24,.43-1.09,.88-2.16,1.34-3.24l.4-.94c.23-.55,.47-1.09,.7-1.63l.29-.67c.12-.27,.39-.45,.68-.45h.25c.31,.02,.55,.15,.68,.4l.16,.3c.12,.23,.25,.47,.36,.71l.36,.8c.72,1.59,1.45,3.19,2.15,4.79,.34,.79,.9,1.16,1.75,1.16h.03c.85,0,1.45-.38,1.81-1.16l1.58-3.4c1.14-2.44,2.27-4.88,3.4-7.32,.23-.5,.28-.95,.14-1.32-.18-.47-.64-.76-1-.92-.38-.17-.74-.19-1.06-.06-.39,.16-.7,.52-.92,1.05-.39,.95-.77,1.91-1.15,2.87-.26,.65-.52,1.31-.78,1.96-.18,.44-.39,.88-.59,1.33-.17,.37-.35,.74-.51,1.12-.12,.28-.38,.47-.7,.46h-.2c-.29,0-.55-.17-.67-.43,0,0-.29-.6-.42-.92-.54-1.25-1.08-2.51-1.61-3.76l-1.13-2.64c-.3-.69-.79-1.04-1.52-1.07-.68-.03-1.17,.29-1.51,.95-.16,.31-.29,.63-.42,.96l-2.81,6.52c-.13,.25-.38,.4-.65,.41h-.19c-.35,0-.58-.17-.71-.45l-.28-.66s-1.8-4.44-2.71-6.65c-.21-.5-.55-.86-.97-1.02-.17-.07-.35-.1-.53-.1Z"/></svg>