<svg width="48" height="48" viewBox="0 0 48 48" fill="none" xmlns="http://www.w3.org/2000/svg">
<path d="M19.5098 17.0098H35.9998" stroke="#495151" stroke-width="1.33333" stroke-miterlimit="10" stroke-linecap="round" stroke-linejoin="round"/>
<path d="M19.5098 20.0098H35.9998" stroke="#495151" stroke-width="1.33333" stroke-miterlimit="10" stroke-linecap="round" stroke-linejoin="round"/>
<path d="M19.5098 23.0098H35.9998" stroke="black" stroke-width="0.75" stroke-miterlimit="10" stroke-linecap="round" stroke-linejoin="round"/>
<path d="M19.5098 26.0098H35.9998" stroke="black" stroke-width="0.75" stroke-miterlimit="10" stroke-linecap="round" stroke-linejoin="round"/>
<path d="M19.5098 29.0098H35.9998" stroke="black" stroke-width="0.75" stroke-miterlimit="10" stroke-linecap="round" stroke-linejoin="round"/>
<path d="M19.5098 32.0098H35.9998" stroke="black" stroke-width="0.75" stroke-miterlimit="10" stroke-linecap="round" stroke-linejoin="round"/>
<path d="M11.2198 31.6396L8.24978 30.9496C7.42978 30.7596 6.89978 30.0496 7.04978 29.3796L11.9198 8.52961C12.0798 7.84961 12.8698 7.4596 13.6898 7.6496L16.6598 8.33961C17.4798 8.52961 18.0098 9.23961 17.8598 9.90961L12.9898 30.7596C12.8298 31.4296 12.0398 31.8296 11.2198 31.6396Z" stroke="black" stroke-width="0.75" stroke-miterlimit="10"/>
<path d="M7.15991 30.1299L7.99988 35.9999H8.63991L11.9999 31.4999" stroke="black" stroke-width="0.75" stroke-miterlimit="10"/>
<path d="M10.7002 13.2002L16.2402 14.5502" stroke="black" stroke-width="0.75" stroke-miterlimit="10"/>
<path d="M14.4702 7.59V7C14.4702 5.9 15.3702 5 16.4702 5H38.3002C39.4002 5 40.2902 5.87 40.3002 6.97C40.3802 13.89 40.3002 36.95 40.2802 42.01C40.2802 42.56 39.8302 43 39.2802 43H16.4702C15.3702 43 14.4702 42.1 14.4702 41V24.5" stroke="black" stroke-width="0.75" stroke-miterlimit="10" stroke-linecap="round"/>
</svg>
