<svg width="32" height="32" viewBox="0 0 32 32" fill="none" xmlns="http://www.w3.org/2000/svg">
<path d="M23.5614 12.0867C23.5614 15.8333 18.0947 24.8733 16.3281 27.6933C16.2664 27.78 16.1849 27.8507 16.0904 27.8995C15.9959 27.9482 15.8911 27.9737 15.7847 27.9737C15.6784 27.9737 15.5735 27.9482 15.479 27.8995C15.3845 27.8507 15.303 27.78 15.2414 27.6933C13.4747 24.8733 8.00139 15.8333 8.00139 12.0867C7.9621 9.98301 8.75939 7.94977 10.2181 6.43353C11.6769 4.91729 13.6778 4.04203 15.7814 4C16.8233 4.01994 17.851 4.24495 18.8059 4.66218C19.7608 5.0794 20.6242 5.68066 21.3466 6.43162C22.0691 7.18257 22.6366 8.06851 23.0166 9.03882C23.3966 10.0091 23.5817 11.0448 23.5614 12.0867V12.0867Z" stroke="#495151" stroke-miterlimit="10"/>
<path d="M15.6546 13.22C16.7592 13.22 17.6546 12.3245 17.6546 11.22C17.6546 10.1154 16.7592 9.21997 15.6546 9.21997C14.55 9.21997 13.6546 10.1154 13.6546 11.22C13.6546 12.3245 14.55 13.22 15.6546 13.22Z" stroke="#495151" stroke-miterlimit="10"/>
</svg>
