<svg xmlns="http://www.w3.org/2000/svg" viewBox="0 0 32 32"><defs><style>.cls-1{fill:none;stroke:#1F252D;stroke-linecap:round;stroke-linejoin:round;stroke-width:0.8px;}</style></defs><g id="locked"><path class="cls-1" d="M8.67,13.33V10.75C8.67,6.33,11.35,3,16,3h0c4.65,0,7.33,3.84,7.33,8.27v2.06"/><path d="M16,18.13a1.87,1.87,0,0,1,1,3.42l-.36.24v1.92a.52.52,0,0,1-.52.53h-.32a.52.52,0,0,1-.52-.53V21.79L15,21.55a1.87,1.87,0,0,1,1-3.42m0-.8a2.67,2.67,0,0,0-1.48,4.89v1.49A1.33,1.33,0,0,0,15.84,25h.32a1.33,1.33,0,0,0,1.32-1.33V22.22A2.67,2.67,0,0,0,16,17.33Z"/><path d="M23.67,14.13A1.87,1.87,0,0,1,25.53,16v9.67a1.86,1.86,0,0,1-1.86,1.86H8.33a1.86,1.86,0,0,1-1.86-1.86V16a1.87,1.87,0,0,1,1.86-1.87H23.67m0-.8H8.33A2.67,2.67,0,0,0,5.67,16v9.67a2.66,2.66,0,0,0,2.66,2.66H23.67a2.66,2.66,0,0,0,2.66-2.66V16a2.67,2.67,0,0,0-2.66-2.67Z"/></g></svg>