<svg xmlns="http://www.w3.org/2000/svg" viewBox="0 0 32 32"><defs><style>.cls-1,.cls-2{fill:none;stroke:#1F252D;stroke-miterlimit:10;stroke-width:0.8px;}.cls-2{stroke-linecap:round;}</style></defs><g id="curriculum"><path class="cls-1" d="M20.67,5.67H23A1.29,1.29,0,0,1,24.33,7V28.37A1.3,1.3,0,0,1,23,29.67H9a1.3,1.3,0,0,1-1.29-1.3V7A1.29,1.29,0,0,1,9,5.67h3"/><rect class="cls-1" x="11" y="9.67" width="10" height="8.67"/><line class="cls-2" x1="11" y1="21.67" x2="21" y2="21.67"/><line class="cls-2" x1="11" y1="23.67" x2="21" y2="23.67"/><path class="cls-1" d="M18.46,3.67a.66.66,0,0,1-.61-.43,2,2,0,0,0-3.7,0,.66.66,0,0,1-.61.43H12.33a.67.67,0,0,0-.66.66V7h8.66V4.33a.67.67,0,0,0-.66-.66Z"/></g></svg>