<svg xmlns="http://www.w3.org/2000/svg" viewBox="0 0 32 32"><defs><style>.cls-1,.cls-2{fill:none;stroke:#1F252D;stroke-width:0.8px;}.cls-1{stroke-miterlimit:10;}.cls-2{stroke-linecap:round;stroke-linejoin:round;}</style></defs><g id="class"><path class="cls-1" d="M27.67,7.67H4.33A.67.67,0,0,1,3.67,7V4.33a.67.67,0,0,1,.66-.66H27.67a.67.67,0,0,1,.66.66V7A.67.67,0,0,1,27.67,7.67Z"/><path class="cls-2" d="M5.33,7.67v7A1.34,1.34,0,0,0,6.67,16H25.33a1.34,1.34,0,0,0,1.34-1.33v-7"/><rect class="cls-2" x="13" y="10.33" width="6" height="2"/><polyline class="cls-2" points="11.67 16.33 11.67 28.67 9.34 28.67 9.34 16.33"/><polyline class="cls-2" points="22.33 16.33 22.33 28.67 20 28.67 20 16.33"/></g></svg>