<svg xmlns="http://www.w3.org/2000/svg" viewBox="0 0 32 32"><defs><style>.cls-1,.cls-2{fill:none;stroke:#1F252D;stroke-linecap:round;stroke-width:0.8px;}.cls-1{stroke-linejoin:round;}.cls-2{stroke-miterlimit:10;}</style></defs><g id="statistics"><path d="M26.1,6.13a.44.44,0,0,1,.43.44V19.43a.44.44,0,0,1-.43.44H5.9a.44.44,0,0,1-.43-.44V6.57a.44.44,0,0,1,.43-.44H26.1m0-.8H5.9A1.24,1.24,0,0,0,4.67,6.57V19.43A1.24,1.24,0,0,0,5.9,20.67H26.1a1.24,1.24,0,0,0,1.23-1.24V6.57A1.24,1.24,0,0,0,26.1,5.33Z"/><line class="cls-1" x1="3.33" y1="20.33" x2="28.67" y2="20.33"/><line class="cls-2" x1="16" y1="3.33" x2="16" y2="5.33"/><polyline class="cls-2" points="10.67 28.67 13.33 20.67 18.67 20.67 21.33 28.67"/><polyline class="cls-1" points="7.99 16.56 11.32 12.56 14.33 15 18.33 11 19.67 12.33 23 9 21.67 9"/><line class="cls-1" x1="23" y1="10.33" x2="23" y2="9"/></g></svg>