<svg xmlns="http://www.w3.org/2000/svg" viewBox="0 0 32 32"><defs><style>.cls-1,.cls-2{fill:none;stroke:#1F252D;stroke-miterlimit:10;stroke-width:0.8px;}.cls-2{stroke-linecap:round;}</style></defs><g id="homework"><path class="cls-1" d="M23.33,3.33h4a1.33,1.33,0,0,1,1.33,1.33v18a.67.67,0,0,1-.67.67H22.67a.67.67,0,0,1-.67-.67v-18A1.33,1.33,0,0,1,23.33,3.33Z"/><line class="cls-1" x1="22.33" y1="7" x2="28.33" y2="7"/><line class="cls-1" x1="22" y1="8.33" x2="28.33" y2="8.33"/><path class="cls-1" d="M22,22.88l2.74,4.78a.63.63,0,0,0,1.11,0l2.74-4.78"/><line class="cls-1" x1="24.17" y1="26.23" x2="26.67" y2="26.23"/><circle class="cls-1" cx="13" cy="10.33" r="3.33"/><path class="cls-1" d="M10.82,12.85,4.33,27.67C3.84,28.74,5.67,29,7,27l6-13.33"/><path class="cls-1" d="M15.1,12.85l6.48,14.82c.5,1.07-1.33,1.33-2.66-.67l-6-13.33"/><line class="cls-2" x1="18.32" y1="20.21" x2="20.98" y2="20.21"/><line class="cls-2" x1="10.06" y1="20.21" x2="15.86" y2="20.21"/><line class="cls-2" x1="5.46" y1="20.21" x2="7.33" y2="20.21"/><line class="cls-2" x1="13.15" y1="19.51" x2="13.15" y2="20.89"/><line class="cls-2" x1="13.13" y1="3.63" x2="13.13" y2="7"/><line class="cls-2" x1="11.81" y1="5.32" x2="14.45" y2="5.32"/></g></svg>