<svg xmlns="http://www.w3.org/2000/svg" viewBox="0 0 32 32"><defs><style>.cls-1{fill:none;stroke:#1F252D;stroke-linecap:round;stroke-linejoin:round;stroke-width:0.8px;}</style></defs><g id="Storage"><path class="cls-1" d="M25.8,22c2.61-.68,4.53-2.34,4.53-5.29A7.29,7.29,0,0,0,21,9.62,7.33,7.33,0,0,0,7,12.67a5.79,5.79,0,0,0,0,.72,5.51,5.51,0,0,0-.71-.06A4.67,4.67,0,0,0,1.67,18,4.11,4.11,0,0,0,6,22.33H17"/><ellipse class="cls-1" cx="21.33" cy="16.67" rx="4.33" ry="1.33"/><path class="cls-1" d="M25.67,23.67c0,.73-1.94,1.33-4.34,1.33S17,24.4,17,23.67"/><path class="cls-1" d="M25.67,27c0,.74-1.94,1.33-4.34,1.33S17,27.74,17,27"/><path class="cls-1" d="M25.67,19.67c0,.73-1.94,1.33-4.34,1.33S17,20.4,17,19.67"/><path class="cls-1" d="M17,16.67V27"/><path class="cls-1" d="M25.67,16.67V27"/></g></svg>