<svg xmlns="http://www.w3.org/2000/svg" viewBox="0 0 32 32"><defs><style>.cls-1,.cls-2{fill:none;stroke:#1F252D;stroke-miterlimit:10;stroke-width:0.8px;}.cls-2{stroke-linecap:round;}</style></defs><g id="user_forms" data-name="user forms"><rect class="cls-1" x="16.67" y="10" width="12" height="18.67" rx="0.67"/><rect class="cls-1" x="18.33" y="13" width="2.67" height="2.67" rx="0.67"/><line class="cls-2" x1="22.33" y1="13.67" x2="25.67" y2="13.67"/><line class="cls-2" x1="22.33" y1="15" x2="25.67" y2="15"/><rect class="cls-1" x="18.33" y="17.67" width="2.67" height="2.67" rx="0.67"/><line class="cls-2" x1="22.33" y1="18.33" x2="25.67" y2="18.33"/><line class="cls-2" x1="22.33" y1="19.67" x2="25.67" y2="19.67"/><rect class="cls-1" x="18.33" y="22.33" width="2.67" height="2.67" rx="0.67"/><line class="cls-2" x1="22.33" y1="23" x2="25.67" y2="23"/><line class="cls-2" x1="22.33" y1="24.33" x2="25.67" y2="24.33"/><path class="cls-2" d="M16.33,26.33h-12a.67.67,0,0,1-.66-.66V4.33a.67.67,0,0,1,.66-.66h16a.67.67,0,0,1,.67.66V9.82"/><polyline class="cls-2" points="3.67 3.9 5.67 7 18.89 7 20.74 3.9"/><rect class="cls-1" x="5.33" y="21.33" width="5" height="3.33" rx="0.67"/><path class="cls-1" d="M16.33,24.67H12.67A.67.67,0,0,1,12,24V22a.67.67,0,0,1,.67-.67h3.66"/></g></svg>