<svg xmlns="http://www.w3.org/2000/svg" viewBox="0 0 32 32"><defs><style>.cls-1,.cls-2{fill:none;stroke:#1F252D;stroke-width:0.8px;}.cls-1{stroke-linejoin:bevel;}.cls-2{stroke-miterlimit:10;}</style></defs><g id="my_library" data-name="my library"><path class="cls-1" d="M13.69,10.67,11.4,7.51a.67.67,0,0,1,.18-.93L15.43,4a.66.66,0,0,1,.92.17l9,13.2a.67.67,0,0,1-.17.93l-3.85,2.63a.67.67,0,0,1-.93-.17l-4.77-7"/><line class="cls-2" x1="18.65" y1="17.5" x2="23.05" y2="14.48"/><line class="cls-2" x1="19.13" y1="18.79" x2="24.35" y2="15.21"/><circle class="cls-2" cx="16.46" cy="9.3" r="1.33"/><path class="cls-2" d="M15.67,21.33l12.08.13a.68.68,0,0,1,.66.68l0,4.66a.66.66,0,0,1-.67.66l-12.37-.13"/><line class="cls-2" x1="24.03" y1="27.1" x2="24.08" y2="21.77"/><line class="cls-2" x1="25.36" y1="27.44" x2="25.42" y2="21.11"/><rect class="cls-2" x="3.58" y="10.67" width="6" height="17.33" rx="0.67"/><line class="cls-2" x1="3.92" y1="23.67" x2="9.25" y2="23.67"/><line class="cls-2" x1="3.58" y1="25" x2="9.92" y2="25"/><circle class="cls-2" cx="6.75" cy="15.67" r="1.33"/><path class="cls-2" d="M9.58,27.33a.67.67,0,0,0,.67.67h4.67a.67.67,0,0,0,.66-.67v-16a.67.67,0,0,0-.66-.66H10.25a1,1,0,0,0-.67,1"/><line class="cls-2" x1="9.92" y1="23.67" x2="15.25" y2="23.67"/><line class="cls-2" x1="9.58" y1="25" x2="15.92" y2="25"/><circle class="cls-2" cx="12.75" cy="15.67" r="1.33"/></g></svg>