<svg xmlns="http://www.w3.org/2000/svg" viewBox="0 0 32 32"><defs><style>.cls-1{fill:none;stroke:#1F252D;stroke-miterlimit:10;stroke-width:0.8px;}</style></defs><g id="my_classes" data-name="my classes"><rect class="cls-1" x="6.33" y="6.7" width="19.66" height="23.3" rx="1.43"/><path class="cls-1" d="M21.62,27.82H10a1.46,1.46,0,0,1-1.45-1.46v-5.1A1.45,1.45,0,0,1,10,19.81H21.62a1.45,1.45,0,0,1,1.46,1.45v5.1A1.46,1.46,0,0,1,21.62,27.82Z"/><line class="cls-1" x1="8.52" y1="21.99" x2="23.08" y2="21.99"/><rect class="cls-1" x="8.52" y="12.53" width="2.91" height="4.37" rx="1.46"/><rect class="cls-1" x="20.17" y="12.53" width="2.91" height="4.37" rx="1.46"/><line class="cls-1" x1="9.97" y1="6.7" x2="9.97" y2="12.53"/><line class="cls-1" x1="21.62" y1="7.07" x2="21.62" y2="12.89"/><path class="cls-1" d="M12.16,6.34a4,4,0,1,1,8,0"/><circle class="cls-1" cx="15.8" cy="11.07" r="2.18"/></g></svg>