<svg xmlns="http://www.w3.org/2000/svg" viewBox="0 0 32 32"><defs><style>.cls-1,.cls-2,.cls-3{fill:none;stroke:#1F252D;stroke-width:0.8px;}.cls-1,.cls-3{stroke-linecap:round;}.cls-1{stroke-linejoin:round;}.cls-2,.cls-3{stroke-miterlimit:10;}</style></defs><g id="create"><line class="cls-1" x1="12.67" y1="11.34" x2="23.67" y2="11.34"/><line class="cls-1" x1="12.67" y1="13.34" x2="23.67" y2="13.34"/><line class="cls-1" x1="12.67" y1="15.34" x2="23.67" y2="15.34"/><line class="cls-1" x1="12.67" y1="17.34" x2="23.67" y2="17.34"/><line class="cls-1" x1="12.67" y1="19.34" x2="23.67" y2="19.34"/><line class="cls-1" x1="12.67" y1="21.34" x2="23.67" y2="21.34"/><path class="cls-2" d="M7.15,21.09l-2-.46a1,1,0,0,1-.8-1.05L7.62,5.68A1,1,0,0,1,8.8,5.09l2,.46a.94.94,0,0,1,.8,1L8.33,20.5A1,1,0,0,1,7.15,21.09Z"/><polyline class="cls-2" points="4.44 20.09 4.33 23.67 5.43 24 7.67 21"/><line class="cls-2" x1="7.47" y1="7.47" x2="11.16" y2="8.37"/><line class="cls-2" x1="6.8" y1="8.8" x2="10.49" y2="9.7"/><line class="cls-2" x1="4.8" y1="16.8" x2="9" y2="17.67"/><line class="cls-2" x1="4.8" y1="18.13" x2="8.49" y2="19.03"/><path class="cls-3" d="M9.31,5.06V4.67a1.34,1.34,0,0,1,1.34-1.34H25.2a1.33,1.33,0,0,1,1.33,1.31c.06,4.62,0,20,0,23.37a.67.67,0,0,1-.67.66H10.65a1.34,1.34,0,0,1-1.34-1.34v-11"/></g></svg>