<svg xmlns="http://www.w3.org/2000/svg" viewBox="0 0 32 32"><defs><style>.cls-1,.cls-2{fill:none;stroke:#1F252D;stroke-linejoin:round;stroke-width:0.8px;}.cls-2{stroke-linecap:round;}</style></defs><g id="Explore"><path d="M16,1.8A14.2,14.2,0,1,1,1.8,16,14.22,14.22,0,0,1,16,1.8M16,1A15,15,0,1,0,31,16,15,15,0,0,0,16,1Z"/><polygon class="cls-1" points="11.89 20.11 7.77 7.77 20.11 11.89 24.23 24.23 11.89 20.11"/><path d="M16,14.25a1.78,1.78,0,1,1-1.23.52A1.73,1.73,0,0,1,16,14.25m0-.8a2.55,2.55,0,1,0,1.8.75,2.54,2.54,0,0,0-1.8-.75Z"/><line class="cls-2" x1="16.04" y1="7.27" x2="16.04" y2="4.36"/><line class="cls-2" x1="24.73" y1="16" x2="27.64" y2="16"/><line class="cls-2" x1="16" y1="24.73" x2="16" y2="27.64"/><line class="cls-2" x1="7.27" y1="16" x2="4.36" y2="16"/></g></svg>