<svg xmlns="http://www.w3.org/2000/svg" viewBox="0 0 32 32"><defs><style>.cls-1,.cls-2{fill:none;stroke:#1F252D;stroke-width:0.8px;}.cls-1{stroke-linecap:round;stroke-miterlimit:10;}.cls-2{stroke-linejoin:round;}</style></defs><g id="exams"><path d="M21.1,2.44l5.1,23.18L8.88,29.43,3.78,6.25,21.1,2.44m.11-.83-.15,0L3.48,5.49a.68.68,0,0,0-.51.8L8.13,29.73a.66.66,0,0,0,.65.52h.14L26.5,26.37a.66.66,0,0,0,.51-.79L21.86,2.14a.67.67,0,0,0-.65-.53Z"/><line class="cls-1" x1="2.64" y1="7.73" x2="4.57" y2="7.3"/><line class="cls-1" x1="2.93" y1="9.03" x2="4.86" y2="8.6"/><line class="cls-1" x1="3.21" y1="10.33" x2="5.15" y2="9.91"/><line class="cls-1" x1="3.5" y1="11.63" x2="5.43" y2="11.21"/><line class="cls-1" x1="3.79" y1="12.93" x2="5.72" y2="12.51"/><line class="cls-1" x1="4.07" y1="14.24" x2="6" y2="13.81"/><line class="cls-1" x1="4.36" y1="15.54" x2="6.29" y2="15.11"/><line class="cls-1" x1="4.65" y1="16.84" x2="6.58" y2="16.42"/><line class="cls-1" x1="4.93" y1="18.14" x2="6.86" y2="17.72"/><line class="cls-1" x1="5.22" y1="19.45" x2="7.15" y2="19.02"/><line class="cls-1" x1="5.51" y1="20.75" x2="7.44" y2="20.32"/><line class="cls-1" x1="5.79" y1="22.05" x2="7.72" y2="21.63"/><line class="cls-1" x1="6.08" y1="23.35" x2="8.01" y2="22.93"/><line class="cls-1" x1="6.36" y1="24.65" x2="8.29" y2="24.23"/><line class="cls-1" x1="6.65" y1="25.96" x2="8.58" y2="25.53"/><line class="cls-1" x1="6.94" y1="27.26" x2="8.87" y2="26.83"/><line class="cls-1" x1="7.22" y1="28.56" x2="9.15" y2="28.14"/><line class="cls-1" x1="8.56" y1="12.66" x2="11.03" y2="8.79"/><circle cx="11.31" cy="11.62" r="0.67"/><circle cx="8.14" cy="9.59" r="0.67"/><line class="cls-1" x1="17.76" y1="6.79" x2="18.62" y2="10.7"/><line class="cls-1" x1="16.24" y1="9.17" x2="20.14" y2="8.31"/><line class="cls-1" x1="12.11" y1="15.08" x2="10.07" y2="18.52"/><line class="cls-1" x1="9.37" y1="15.78" x2="12.81" y2="17.82"/><line class="cls-1" x1="17.46" y1="14.74" x2="21.37" y2="13.89"/><line class="cls-1" x1="17.74" y1="16" x2="21.64" y2="15.14"/><line class="cls-1" x1="10.22" y1="22.17" x2="23.77" y2="19.19"/><line class="cls-1" x1="10.79" y1="24.77" x2="24.35" y2="21.79"/><polyline class="cls-2" points="26.33 23 28.33 23 28.06 3.33 21.67 3.33"/></g></svg>