<svg xmlns="http://www.w3.org/2000/svg" viewBox="0 0 32 32"><defs><style>.cls-1{fill:none;stroke:#1F252D;stroke-linecap:round;stroke-miterlimit:10;stroke-width:0.8px;}</style></defs><g id="Library"><path d="M27.84,22.8l0,0,0,2.37-23.71,0,0-2.37H27.84m0-.8H4.16a.83.83,0,0,0-.83.83v2.34a.83.83,0,0,0,.83.83H27.84a.83.83,0,0,0,.83-.83V22.83a.83.83,0,0,0-.83-.83Z"/><path d="M7.53,26.47v1.06H6.47V26.47H7.53m.21-.8H6.26a.58.58,0,0,0-.59.59v1.48a.58.58,0,0,0,.59.59H7.74a.58.58,0,0,0,.59-.59V26.26a.58.58,0,0,0-.59-.59Z"/><path d="M26.2,26.47v1.06H25.13V26.47H26.2m.2-.8H24.93a.59.59,0,0,0-.6.59v1.48a.59.59,0,0,0,.6.59H26.4a.59.59,0,0,0,.6-.59V26.26a.59.59,0,0,0-.6-.59Z"/><path class="cls-1" d="M26.28,5.86H22.67v-1A.9.9,0,0,0,21.74,4H15.6a.9.9,0,0,0-.93.86v1H11.05a.69.69,0,0,0-.72.67V8h-4a.65.65,0,0,0-.66.62v12.4a.65.65,0,0,0,.66.62h20A.69.69,0,0,0,27,21V6.53A.69.69,0,0,0,26.28,5.86Z"/><line class="cls-1" x1="10.33" y1="7" x2="10.33" y2="21.67"/><line class="cls-1" x1="14.67" y1="4.67" x2="14.67" y2="21.67"/><line class="cls-1" x1="22.67" y1="4.67" x2="22.67" y2="21.67"/><line class="cls-1" x1="16.14" y1="17.33" x2="21.28" y2="17.33"/><line class="cls-1" x1="16.14" y1="19.33" x2="21.28" y2="19.33"/><line class="cls-1" x1="24.14" y1="17.33" x2="26" y2="17.33"/><line class="cls-1" x1="24.14" y1="19.33" x2="26" y2="19.33"/><line class="cls-1" x1="11.47" y1="17.33" x2="13.33" y2="17.33"/><line class="cls-1" x1="11.47" y1="19.33" x2="13.33" y2="19.33"/><line class="cls-1" x1="6.8" y1="17.33" x2="8.67" y2="17.33"/><line class="cls-1" x1="6.8" y1="19.33" x2="8.67" y2="19.33"/></g></svg>