<svg xmlns="http://www.w3.org/2000/svg" viewBox="0 0 32 32"><defs><style>.cls-1,.cls-2{fill:none;stroke:#1F252D;stroke-linejoin:round;stroke-width:0.8px;}.cls-2{stroke-linecap:round;}</style></defs><g id="user_s_activity" data-name="user&apos;s activity"><path d="M16.15,7.73a5.2,5.2,0,1,1-5.2,5.2,5.21,5.21,0,0,1,5.2-5.2m0-.8a6,6,0,1,0,6,6,6,6,0,0,0-6-6Z"/><path d="M20.81,21.06c2.5,0,4.54,1.58,4.54,3.53v4.33c0,.1-.21.28-.54.28H7.48C7.15,29.2,7,29,7,28.92V24.59c0-1.95,2-3.53,4.53-3.53h1.67l2.43,2.47a.8.8,0,0,0,.57.24.82.82,0,0,0,.57-.24l2.43-2.47h1.66m0-.8h-2L16.15,23l-2.67-2.71h-2c-3,0-5.33,1.94-5.33,4.33v4.33A1.22,1.22,0,0,0,7.48,30H24.81a1.23,1.23,0,0,0,1.34-1.08V24.59c0-2.39-2.39-4.33-5.34-4.33Z"/><line class="cls-1" x1="13.15" y1="20.26" x2="13.15" y2="17.59"/><line class="cls-1" x1="19.15" y1="20.26" x2="19.15" y2="17.59"/><path d="M20.15,27.06a.54.54,0,1,1-.54.53.53.53,0,0,1,.54-.53m0-.8a1.34,1.34,0,1,0,1.33,1.33,1.34,1.34,0,0,0-1.33-1.33Z"/><polyline class="cls-1" points="15.67 23 13.81 25.26 10.48 20.59"/><polyline class="cls-1" points="16.33 23 17.81 25.26 21.81 20.59"/><path class="cls-1" d="M12.33,9s6.49,3.86,8.91,1.93"/><path d="M16.67,2.8A1.2,1.2,0,1,1,15.47,4a1.2,1.2,0,0,1,1.2-1.2m0-.8a2,2,0,1,0,2,2,2,2,0,0,0-2-2Z"/><path d="M5.44,18.13a1.2,1.2,0,1,1-1.2,1.2,1.2,1.2,0,0,1,1.2-1.2m0-.8a2,2,0,1,0,2,2,2,2,0,0,0-2-2Z"/><path d="M5.44,8.8A1.2,1.2,0,1,1,4.24,10a1.2,1.2,0,0,1,1.2-1.2m0-.8a2,2,0,1,0,2,2,2,2,0,0,0-2-2Z"/><line class="cls-2" x1="5.44" y1="16.33" x2="5.44" y2="13.67"/><path d="M26.78,18.8a1.2,1.2,0,1,1-1.2,1.2,1.2,1.2,0,0,1,1.2-1.2m0-.8a2,2,0,1,0,2,2,2,2,0,0,0-2-2Z"/><path d="M26.78,9.47a1.2,1.2,0,1,1-1.2,1.2,1.2,1.2,0,0,1,1.2-1.2m0-.8a2,2,0,1,0,2,2,2,2,0,0,0-2-2Z"/><line class="cls-2" x1="26.78" y1="17" x2="26.78" y2="14.33"/><line class="cls-2" x1="8.56" y1="6.26" x2="11.22" y2="5"/><line class="cls-2" x1="20.62" y1="4.88" x2="23.16" y2="6.38"/></g></svg>