<svg xmlns="http://www.w3.org/2000/svg" viewBox="0 0 32 32"><defs><style>.cls-1{fill:none;stroke:#1F252D;stroke-linecap:round;stroke-linejoin:round;stroke-width:0.8px;}</style></defs><g id="raports"><path d="M25.87,2.13v27.4H6.13V2.13H25.87m.13-.8H6A.67.67,0,0,0,5.33,2V29.67a.67.67,0,0,0,.67.66H26a.67.67,0,0,0,.67-.66V2A.67.67,0,0,0,26,1.33Z"/><polyline class="cls-1" points="8 18.35 9.73 20.62 13.12 17.23"/><line class="cls-1" x1="15.16" y1="17.93" x2="24.17" y2="17.93"/><line class="cls-1" x1="15.16" y1="19.93" x2="24.17" y2="19.93"/><polyline class="cls-1" points="8 23.69 9.73 25.95 13.12 22.56"/><line class="cls-1" x1="15.16" y1="23.26" x2="24.17" y2="23.26"/><line class="cls-1" x1="15.16" y1="25.26" x2="24.17" y2="25.26"/><path class="cls-1" d="M15.33,10l5,.2a5,5,0,1,1-5-5.2Z"/><path class="cls-1" d="M17,8.66V4.43a4.25,4.25,0,0,1,4.23,4.23,2.09,2.09,0,0,1,0,.25Z"/></g></svg>