<svg width="32" height="32" viewBox="0 0 32 32" fill="none" xmlns="http://www.w3.org/2000/svg">
<path d="M16.7768 12H15.2243C15.101 12 15 11.8991 15 11.7758V10.2242C15 10.1009 15.101 10 15.2243 10H16.7757C16.899 10 17 10.1009 17 10.2242V11.7747C17.0011 11.8991 16.9002 12 16.7768 12Z" stroke="#606768" stroke-miterlimit="10" stroke-linecap="round" stroke-linejoin="round"/>
<path d="M16.7768 17H15.2243C15.101 17 15 16.8991 15 16.7758V15.2242C15 15.1009 15.101 15 15.2243 15H16.7757C16.899 15 17 15.1009 17 15.2242V16.7747C17.0011 16.8991 16.9002 17 16.7768 17Z" stroke="black" stroke-miterlimit="10" stroke-linecap="round" stroke-linejoin="round"/>
<path d="M16.7768 22H15.2243C15.101 22 15 21.8991 15 21.7758V20.2242C15 20.1009 15.101 20 15.2243 20H16.7757C16.899 20 17 20.1009 17 20.2242V21.7747C17.0011 21.8991 16.9002 22 16.7768 22Z" stroke="black" stroke-miterlimit="10" stroke-linecap="round" stroke-linejoin="round"/>
<path d="M8.89014 10.21L15.1901 2.51003C15.5901 1.96003 16.4101 1.96003 16.8101 2.51003L23.1101 10.21" stroke="#606768" stroke-miterlimit="10" stroke-linecap="round" stroke-linejoin="round"/>
<path d="M23.3899 21.33L16.6099 29.69C16.3099 30.1 15.6899 30.1 15.3899 29.69L8.60986 21.33" stroke="#606768" stroke-miterlimit="10" stroke-linecap="round" stroke-linejoin="round"/>
</svg>
