<svg width="32" height="32" viewBox="0 0 32 32" fill="none" xmlns="http://www.w3.org/2000/svg">
<circle cx="16" cy="16" r="16" fill="url(#paint0_linear_546_104)"/>
<path d="M18.7467 19.81C18.9707 19.81 19.1387 19.8613 19.2507 19.964C19.3627 20.0667 19.4187 20.2113 19.4187 20.398C19.4187 20.7993 19.1947 21 18.7467 21H14.0707C13.6134 21 13.3847 20.7993 13.3847 20.398C13.3847 20.2113 13.4407 20.0667 13.5527 19.964C13.6741 19.8613 13.8467 19.81 14.0707 19.81H15.6807V12.824L14.2387 13.734C14.1454 13.79 14.0521 13.818 13.9587 13.818C13.8001 13.818 13.6601 13.748 13.5387 13.608C13.4267 13.468 13.3707 13.3093 13.3707 13.132C13.3707 12.9173 13.4641 12.7493 13.6507 12.628L15.8067 11.256C16.0214 11.1253 16.2267 11.06 16.4227 11.06C16.6281 11.06 16.7961 11.1253 16.9267 11.256C17.0574 11.3867 17.1227 11.564 17.1227 11.788V19.81H18.7467Z" fill="#FDFDFD"/>
<defs>
<linearGradient id="paint0_linear_546_104" x1="4.47059" y1="16" x2="32.4858" y2="16.9014" gradientUnits="userSpaceOnUse">
<stop stop-color="#B372FF"/>
<stop offset="1" stop-color="#C695FF"/>
</linearGradient>
</defs>
</svg>
