<svg width="48" height="48" viewBox="0 0 48 48" fill="none" xmlns="http://www.w3.org/2000/svg">
<path d="M18.6999 13.767L18.7049 13.769C18.8089 13.326 19.1869 13 19.6599 13H33.1319C33.1489 13 33.1659 12.993 33.1829 12.994C32.8959 8.215 28.8869 6 25.3499 6H11.8779C11.4039 6 11.0259 6.335 10.9229 6.777L10.9179 6.775L5.02893 33.813L5.04193 33.814C5.02793 33.878 5.00293 33.939 5.00293 34.008C5.00293 34.561 5.44993 34.999 6.00293 34.999H14.0739L18.6999 13.767Z" fill="#1565C0"/>
<path d="M33.1831 12.994C33.2361 13.87 33.1781 14.823 32.9541 15.876C31.6731 21.871 27.0421 24.991 21.3191 24.991C21.3191 24.991 17.8491 24.991 17.0061 24.991C16.4851 24.991 16.2391 25.297 16.1261 25.531L14.3861 33.58L14.0811 35.009H14.0751L12.8121 40.805L12.8251 40.806C12.8111 40.87 12.7861 40.931 12.7861 41C12.7861 41.553 13.2331 42 13.7861 42H21.1191L21.1321 41.99C21.6041 41.983 21.9791 41.646 22.0771 41.202L22.0951 41.187L23.9071 32.771C23.9071 32.771 24.0331 31.968 24.8771 31.968C25.7211 31.968 29.0551 31.968 29.0551 31.968C34.7781 31.968 39.4561 28.862 40.7381 22.866C42.1801 16.106 37.3581 13.019 33.1831 12.994Z" fill="#039BE5"/>
<path d="M19.66 13C19.186 13 18.808 13.326 18.705 13.769L18.7 13.767L16.125 25.532C16.238 25.298 16.484 24.992 17.005 24.992C17.849 24.992 21.24 24.992 21.24 24.992C26.963 24.992 31.672 21.872 32.953 15.877C33.178 14.824 33.235 13.871 33.182 12.995C33.166 12.993 33.148 13 33.132 13H19.66Z" fill="#283593"/>
</svg>
