<svg width="48" height="48" viewBox="0 0 48 48" fill="none" xmlns="http://www.w3.org/2000/svg">
<mask id="path-1-inside-1_3023_36513" fill="white">
<path d="M43 24C43 28.1925 41.6133 32.2672 39.056 35.5895C36.4987 38.9117 32.9144 41.2948 28.8615 42.3675C24.8086 43.4402 20.5147 43.1423 16.6487 41.5202C12.7827 39.8981 9.56185 37.0429 7.48781 33.3993C5.41378 29.7558 4.60309 25.5286 5.18203 21.3763C5.76097 17.224 7.69703 13.3797 10.6886 10.4425C13.6802 7.50522 17.5592 5.6399 21.7214 5.13712C25.8837 4.63434 30.0953 5.52234 33.7002 7.66276L24 24H43Z"/>
</mask>
<path d="M43 24C43 28.1925 41.6133 32.2672 39.056 35.5895C36.4987 38.9117 32.9144 41.2948 28.8615 42.3675C24.8086 43.4402 20.5147 43.1423 16.6487 41.5202C12.7827 39.8981 9.56185 37.0429 7.48781 33.3993C5.41378 29.7558 4.60309 25.5286 5.18203 21.3763C5.76097 17.224 7.69703 13.3797 10.6886 10.4425C13.6802 7.50522 17.5592 5.6399 21.7214 5.13712C25.8837 4.63434 30.0953 5.52234 33.7002 7.66276L24 24H43Z" stroke="black" stroke-width="2" stroke-linejoin="round" mask="url(#path-1-inside-1_3023_36513)"/>
</svg>
