<svg xmlns="http://www.w3.org/2000/svg" viewBox="0 0 32 32"><defs><style>.cls-1{fill:none;stroke:#1F252D;stroke-linecap:round;stroke-linejoin:round;stroke-width:0.8px;}</style></defs><g id="Print"><path class="cls-1" d="M9.67,23H5a1.33,1.33,0,0,1-1.33-1.33V10.33A1.33,1.33,0,0,1,5,9H27a1.33,1.33,0,0,1,1.33,1.33V21.67A1.33,1.33,0,0,1,27,23H22.33"/><rect class="cls-1" x="9.67" y="17.67" width="12.67" height="10.67" rx="1.33"/><path class="cls-1" d="M9.67,9V4.33A1.33,1.33,0,0,1,11,3H21a1.33,1.33,0,0,1,1.33,1.33V9"/><line class="cls-1" x1="5.67" y1="11.67" x2="10" y2="11.67"/></g></svg>