<svg width="32" height="32" viewBox="0 0 32 32" fill="none" xmlns="http://www.w3.org/2000/svg">
<path d="M6.33997 29.4661C10.0266 19.5135 15.78 11.5853 23.2533 4.81959C23.3066 4.76735 23.4066 4.85224 23.3466 4.91102C19.8866 8.5551 16.6933 12.4278 14.08 16.6465C11.52 20.9371 7.3333 29.5184 6.45997 29.5184C6.38748 29.8174 6.33331 29.7143 6.33997 29.4661Z" stroke="black" stroke-miterlimit="10"/>
<path d="M10.22 20.8C8.3733 18.7298 8.77997 15.7584 9.5933 13.7077C10.5866 11.2065 13.3533 8.75101 13.22 8.92734C13.0866 9.10366 12.9 10.5208 13.22 11.4286C13.54 12.3363 13.6933 10.1812 14.3333 8.65305C14.9733 7.12489 17.76 4.98938 21.1933 3.37632C23.5333 2.27918 25.28 2.08979 25.9066 2.46203C24.7866 2.80162 23.9866 3.74203 23.9866 3.74203L25.36 3.50693C25.36 3.50693 24.52 8.46366 22.6066 11.8269C20.3 15.889 17.4666 20.0098 15.82 20.3363C17.8 20.2057 18.5533 20.0163 18.5533 20.0163C18.5533 20.0163 14.2333 23.5363 11.2333 21.662" stroke="black" stroke-linecap="round" stroke-linejoin="round"/>
</svg>
