<svg width="48" height="48" viewBox="0 0 48 48" fill="none" xmlns="http://www.w3.org/2000/svg">
<path d="M24 3C28.1534 3 32.2136 4.23163 35.667 6.53914C39.1204 8.84665 41.812 12.1264 43.4015 15.9636C44.9909 19.8009 45.4068 24.0233 44.5965 28.0969C43.7862 32.1705 41.7862 35.9123 38.8493 38.8492C35.9124 41.7861 32.1705 43.7862 28.0969 44.5965C24.0233 45.4068 19.8009 44.9909 15.9637 43.4015C12.1264 41.812 8.84666 39.1204 6.53915 35.667C4.23164 32.2135 3.00001 28.1534 3.00001 24C3.00001 18.4305 5.2125 13.089 9.15077 9.15076C13.089 5.21249 18.4305 3 24 3V3ZM24 2C19.6488 2 15.3953 3.29028 11.7775 5.70767C8.15958 8.12506 5.33979 11.561 3.67466 15.581C2.00953 19.6009 1.57386 24.0244 2.42273 28.292C3.27161 32.5596 5.36691 36.4796 8.44366 39.5564C11.5204 42.6331 15.4404 44.7284 19.708 45.5773C23.9756 46.4261 28.3991 45.9905 32.419 44.3253C36.439 42.6602 39.875 39.8404 42.2923 36.2225C44.7097 32.6047 46 28.3512 46 24C46 18.1652 43.6822 12.5695 39.5564 8.44365C35.4306 4.31785 29.8348 2 24 2V2Z" fill="black"/>
<path d="M24 5V8" stroke="black" stroke-width="1.22" stroke-miterlimit="10" stroke-linecap="round"/>
<path d="M24 40V43" stroke="black" stroke-width="1.22" stroke-miterlimit="10" stroke-linecap="round"/>
<path d="M43 24H40" stroke="black" stroke-width="1.5" stroke-miterlimit="10" stroke-linecap="round"/>
<path d="M8 24H5" stroke="black" stroke-width="1.5" stroke-miterlimit="10" stroke-linecap="round"/>
<path d="M26.5 34C26.5 35.3807 25.3807 36.5 24 36.5C22.6193 36.5 21.5 35.3807 21.5 34C21.5 32.6193 22.6193 31.5 24 31.5C25.3807 31.5 26.5 32.6193 26.5 34Z" stroke="black"/>
<path d="M20.8908 15.2921C20.7159 13.8059 21.8771 12.5 23.3736 12.5H24.6264C26.1229 12.5 27.2841 13.8059 27.1092 15.2921L25.7371 26.9553C25.6335 27.8361 24.8869 28.5 24 28.5C23.1131 28.5 22.3665 27.8361 22.2629 26.9553L20.8908 15.2921Z" stroke="black"/>
</svg>
