<svg xmlns="http://www.w3.org/2000/svg" viewBox="0 0 32 32"><defs><style>.cls-1{fill:none;stroke:#1F252D;stroke-linecap:round;stroke-linejoin:round;stroke-width:0.8px;}</style></defs><g id="school_building" data-name="school building"><line class="cls-1" x1="3.67" y1="28.33" x2="28.67" y2="28.33"/><polyline class="cls-1" points="6.17 28.33 6.17 14.87 10.22 14.87 10.22 10.04 16 6.63 21.39 10.08 21.39 15 25.67 15 25.67 28.33"/><polyline class="cls-1" points="12.5 28.33 12.5 21.82 15.73 21.82 18.97 21.82 18.97 28.33"/><line class="cls-1" x1="15.92" y1="28.33" x2="15.92" y2="21.82"/><polyline class="cls-1" points="16 6.8 16 2.96 18.59 2.96 18.59 5.18 16 5.2"/><circle class="cls-1" cx="16" cy="12.67" r="2.33"/><polyline class="cls-1" points="15.67 11 15.67 13 17.3 13"/><rect class="cls-1" x="8.33" y="17.67" width="2.67" height="2.67"/><rect class="cls-1" x="8.33" y="21.67" width="2.67" height="2.67"/><rect class="cls-1" x="12.33" y="17.67" width="2.67" height="2.67"/><rect class="cls-1" x="16.33" y="17.67" width="2.67" height="2.67"/><rect class="cls-1" x="21" y="17.67" width="2.67" height="2.67"/><rect class="cls-1" x="21" y="21.67" width="2.67" height="2.67"/></g></svg>