<svg xmlns="http://www.w3.org/2000/svg" viewBox="0 0 32 32"><defs><style>.cls-1{fill:none;stroke:#1F252D;stroke-linejoin:round;stroke-width:0.8px;}</style></defs><g id="Layer_52" data-name="Layer 52"><polygon class="cls-1" points="12.39 8.43 13.59 7.24 13.23 6.39 11.55 6.39 11.03 5.88 11.04 4.19 10.19 3.84 9 5.04 8.27 5.04 7.08 3.84 6.23 4.19 6.23 5.88 5.72 6.39 4.03 6.39 3.68 7.24 4.88 8.43 4.88 9.16 3.68 10.35 4.03 11.2 5.72 11.19 6.23 11.71 6.23 13.39 7.08 13.75 8.27 12.55 9 12.55 10.19 13.75 11.04 13.39 11.03 11.71 11.55 11.19 13.23 11.2 13.59 10.35 12.39 9.16 12.39 8.43"/><path class="cls-1" d="M10.32,8.79A1.69,1.69,0,1,1,7,8.79a1.69,1.69,0,0,1,3.37,0Z"/><polygon class="cls-1" points="26.84 18.03 28.23 17.14 27.86 15.9 26.21 15.91 25.28 14.39 26.04 12.93 25.1 12.04 23.68 12.87 22.12 12.03 22.04 10.38 20.78 10.08 19.96 11.51 18.19 11.56 17.3 10.17 16.06 10.54 16.07 12.19 14.56 13.12 13.09 12.36 12.2 13.3 13.03 14.72 12.19 16.28 10.54 16.36 10.24 17.61 11.67 18.43 11.72 20.21 10.33 21.1 10.7 22.34 12.35 22.33 13.28 23.84 12.52 25.31 13.46 26.2 14.88 25.36 16.44 26.21 16.52 27.86 17.77 28.16 18.59 26.73 20.37 26.68 21.26 28.07 22.5 27.7 22.49 26.05 24 25.12 25.47 25.88 26.36 24.94 25.52 23.51 26.37 21.96 28.02 21.88 28.32 20.62 26.89 19.8 26.84 18.03"/><circle class="cls-1" cx="19.28" cy="19.12" r="3.6"/></g></svg>