<svg xmlns="http://www.w3.org/2000/svg" viewBox="0 0 32 32"><defs><style>.cls-1{fill:none;stroke:#1F252D;stroke-linecap:round;stroke-linejoin:round;stroke-width:0.8px;}</style></defs><g id="Layer_52" data-name="Layer 52"><path class="cls-1" d="M16.62,4.89,19,12.33a.66.66,0,0,0,.62.44h7.82A.65.65,0,0,1,27.85,14l-6.32,4.59a.65.65,0,0,0-.24.73l2.42,7.44a.65.65,0,0,1-1,.72l-6.33-4.59a.63.63,0,0,0-.76,0L9.29,27.43a.65.65,0,0,1-1-.72l2.42-7.44a.65.65,0,0,0-.24-.73L4.15,14a.65.65,0,0,1,.38-1.18h7.82a.66.66,0,0,0,.62-.44l2.41-7.44A.65.65,0,0,1,16.62,4.89Z"/></g></svg>