<svg width="48" height="48" viewBox="0 0 48 48" fill="none" xmlns="http://www.w3.org/2000/svg">
<path d="M24 3C35.58 3 45 12.42 45 24C45 35.58 35.58 45 24 45C12.42 45 3 35.58 3 24C3 12.42 12.42 3 24 3ZM24 2C11.85 2 2 11.85 2 24C2 36.15 11.85 46 24 46C36.15 46 46 36.15 46 24C46 11.85 36.15 2 24 2Z" fill="black"/>
<path d="M24 7C33.37 7 41 14.63 41 24C41 33.37 33.37 41 24 41C14.63 41 7 33.37 7 24C7 14.63 14.63 7 24 7ZM24 6C14.06 6 6 14.06 6 24C6 33.94 14.06 42 24 42C33.94 42 42 33.94 42 24C42 14.06 33.94 6 24 6Z" fill="black"/>
<path d="M19.7862 19.4026L23.7137 13.4916L28.124 19.595L30.9032 19.6592L34.4923 19.7421C34.7222 19.7474 34.8359 20.0201 34.6821 20.1866L30.4579 24.6502L32 31.8127L23.7137 27.5L15.3186 31.8127L18.4611 24.3733L13.4703 20.0169C13.1469 19.7294 13.3493 19.1939 13.7792 19.2039C15.8291 19.2312 19.7862 19.4026 19.7862 19.4026Z" stroke="black" stroke-miterlimit="10" stroke-linecap="round" stroke-linejoin="round"/>
</svg>
