<svg width="32" height="32" viewBox="0 0 32 32" fill="none" xmlns="http://www.w3.org/2000/svg">
<circle cx="16" cy="16" r="16" fill="white" fill-opacity="0.75"/>
<path d="M17.4167 15.932C18.0141 16.1 18.4667 16.3893 18.7747 16.8C19.0827 17.2013 19.2367 17.71 19.2367 18.326C19.2367 19.1847 18.9334 19.8613 18.3267 20.356C17.7294 20.8507 16.9174 21.098 15.8907 21.098C15.2841 21.098 14.7007 21 14.1407 20.804C13.5901 20.608 13.1234 20.3373 12.7407 19.992C12.5541 19.8427 12.4607 19.656 12.4607 19.432C12.4607 19.264 12.5074 19.124 12.6007 19.012C12.6941 18.8907 12.8061 18.83 12.9367 18.83C13.0767 18.83 13.2354 18.8907 13.4127 19.012C13.8141 19.3107 14.2061 19.5393 14.5887 19.698C14.9807 19.8473 15.4007 19.922 15.8487 19.922C17.1741 19.922 17.8367 19.3573 17.8367 18.228C17.8367 17.6773 17.6594 17.2667 17.3047 16.996C16.9594 16.716 16.4321 16.576 15.7227 16.576H14.9527C14.7754 16.576 14.6354 16.52 14.5327 16.408C14.4301 16.2867 14.3787 16.1467 14.3787 15.988C14.3787 15.8387 14.4301 15.708 14.5327 15.596C14.6354 15.4747 14.7754 15.414 14.9527 15.414H15.4987C16.1801 15.414 16.6981 15.274 17.0527 14.994C17.4167 14.7047 17.5987 14.2847 17.5987 13.734C17.5987 13.2487 17.4494 12.8707 17.1507 12.6C16.8614 12.3293 16.4507 12.194 15.9187 12.194C15.1347 12.194 14.3507 12.4973 13.5667 13.104C13.3894 13.2253 13.2307 13.286 13.0907 13.286C12.9601 13.286 12.8481 13.23 12.7547 13.118C12.6614 12.9967 12.6147 12.852 12.6147 12.684C12.6147 12.46 12.7081 12.2733 12.8947 12.124C13.2774 11.7787 13.7394 11.508 14.2807 11.312C14.8314 11.116 15.3961 11.018 15.9747 11.018C16.8987 11.018 17.6314 11.2467 18.1727 11.704C18.7234 12.1613 18.9987 12.782 18.9987 13.566C18.9987 14.126 18.8587 14.616 18.5787 15.036C18.3081 15.4467 17.9207 15.7453 17.4167 15.932Z" fill="#303838"/>
</svg>
