<svg width="48" height="48" viewBox="0 0 48 48" fill="none" xmlns="http://www.w3.org/2000/svg">
<g clip-path="url(#clip0_1544_23507)">
<path d="M18.1955 3.48164C17.6018 3.51505 17.0433 3.78238 16.6348 4.22856C16.2264 4.67474 15.9992 5.26576 16 5.87983V6.55213C15.9979 6.94956 16.0919 7.34125 16.2734 7.69169C16.4549 8.04212 16.7182 8.34023 17.0395 8.55898C17.2489 8.7096 17.4195 8.91088 17.5363 9.14525C17.6532 9.37963 17.7127 9.63997 17.7097 9.90357V37.8891C17.7097 39.5098 18.333 41.0642 19.4425 42.2102C20.552 43.3562 22.0567 44 23.6257 44H25.3743C26.9433 44 28.448 43.3562 29.5575 42.2102C30.667 41.0642 31.2903 39.5098 31.2903 37.8891V9.89354C31.2873 9.62994 31.3468 9.36959 31.4637 9.13522C31.5805 8.90085 31.7511 8.69957 31.9605 8.54895C32.2818 8.3302 32.5451 8.03209 32.7266 7.68165C32.9081 7.33121 33.0021 6.93953 33 6.5421V5.87983C33.0003 5.25746 32.7664 4.65933 32.3477 4.21182C31.9289 3.76431 31.3582 3.50248 30.756 3.48164C28.7683 3.17551 26.7622 3.01457 24.7526 3C22.5586 3.001 20.3675 3.16195 18.1955 3.48164V3.48164Z" stroke="black" stroke-miterlimit="10"/>
<g filter="url(#filter0_d_1544_23507)">
<path d="M19.5044 37.219L19.5048 37.2091V37.1992V18.3585C19.7821 18.5167 20.1052 18.6536 20.4569 18.7707C21.5154 19.123 22.9462 19.3318 24.5045 19.3318C26.0757 19.3318 27.5047 19.1231 28.5584 18.7705C28.9044 18.6547 29.222 18.5194 29.4952 18.3633V37.1992V37.2091L29.4956 37.219C29.5491 38.5716 29.1148 39.8851 28.2998 40.8729C27.489 41.8555 26.3712 42.433 25.1948 42.5H23.8052C22.6288 42.433 21.511 41.8555 20.7002 40.8729C19.8852 39.8851 19.4509 38.5716 19.5044 37.219Z" stroke="black" shape-rendering="crispEdges"/>
</g>
<path d="M29.5 16C29.5 16.0756 29.4594 16.2123 29.2418 16.3993C29.0258 16.585 28.684 16.7749 28.2182 16.9443C27.2907 17.2816 25.9762 17.5 24.5 17.5C23.0238 17.5 21.7093 17.2816 20.7818 16.9443C20.316 16.7749 19.9742 16.585 19.7582 16.3993C19.5406 16.2123 19.5 16.0756 19.5 16C19.5 15.9244 19.5406 15.7877 19.7582 15.6007C19.9742 15.415 20.316 15.2251 20.7818 15.0557C21.7093 14.7184 23.0238 14.5 24.5 14.5C25.9762 14.5 27.2907 14.7184 28.2182 15.0557C28.684 15.2251 29.0258 15.415 29.2418 15.6007C29.4594 15.7877 29.5 15.9244 29.5 16Z" stroke="black"/>
</g>
<defs>
<filter id="filter0_d_1544_23507" x="15" y="17" width="19" height="34" filterUnits="userSpaceOnUse" color-interpolation-filters="sRGB">
<feFlood flood-opacity="0" result="BackgroundImageFix"/>
<feColorMatrix in="SourceAlpha" type="matrix" values="0 0 0 0 0 0 0 0 0 0 0 0 0 0 0 0 0 0 127 0" result="hardAlpha"/>
<feOffset dy="4"/>
<feGaussianBlur stdDeviation="2"/>
<feComposite in2="hardAlpha" operator="out"/>
<feColorMatrix type="matrix" values="0 0 0 0 0 0 0 0 0 0 0 0 0 0 0 0 0 0 0.25 0"/>
<feBlend mode="normal" in2="BackgroundImageFix" result="effect1_dropShadow_1544_23507"/>
<feBlend mode="normal" in="SourceGraphic" in2="effect1_dropShadow_1544_23507" result="shape"/>
</filter>
<clipPath id="clip0_1544_23507">
<rect width="48" height="48" fill="white"/>
</clipPath>
</defs>
</svg>
