<svg width="33" height="32" viewBox="0 0 33 32" fill="none" xmlns="http://www.w3.org/2000/svg">
<circle cx="16.5" cy="16" r="16" fill="url(#paint0_linear_535_273)"/>
<path d="M19.3447 19.81C19.5687 19.81 19.7367 19.8613 19.8487 19.964C19.9701 20.0667 20.0307 20.2113 20.0307 20.398C20.0307 20.7993 19.8021 21 19.3447 21H13.9407C13.7354 21 13.5721 20.944 13.4507 20.832C13.3387 20.7107 13.2827 20.5613 13.2827 20.384C13.2827 20.1693 13.3667 19.9733 13.5347 19.796L16.8247 16.198C17.2634 15.722 17.5807 15.288 17.7767 14.896C17.9727 14.504 18.0707 14.1167 18.0707 13.734C18.0707 13.2393 17.9261 12.8613 17.6367 12.6C17.3567 12.3293 16.9554 12.194 16.4327 12.194C15.6394 12.194 14.8507 12.4973 14.0667 13.104C13.9641 13.1693 13.8754 13.2207 13.8007 13.258C13.7354 13.286 13.6654 13.3 13.5907 13.3C13.4601 13.3 13.3481 13.2393 13.2547 13.118C13.1614 12.9967 13.1147 12.852 13.1147 12.684C13.1147 12.4507 13.2081 12.264 13.3947 12.124C13.7867 11.788 14.2581 11.522 14.8087 11.326C15.3594 11.1207 15.9147 11.018 16.4747 11.018C17.3987 11.018 18.1314 11.256 18.6727 11.732C19.2234 12.1987 19.4987 12.8333 19.4987 13.636C19.4987 14.2053 19.3727 14.7467 19.1207 15.26C18.8781 15.7733 18.4674 16.3473 17.8887 16.982L15.2427 19.81H19.3447Z" fill="#FDFDFD"/>
<defs>
<linearGradient id="paint0_linear_535_273" x1="4.97059" y1="16" x2="32.9858" y2="16.9014" gradientUnits="userSpaceOnUse">
<stop stop-color="#B372FF"/>
<stop offset="1" stop-color="#C695FF"/>
</linearGradient>
</defs>
</svg>
