<svg xmlns="http://www.w3.org/2000/svg" viewBox="0 0 32 32"><defs><style>.cls-1{fill:none;stroke:#1F252D;stroke-linecap:round;stroke-linejoin:round;stroke-width:0.8px;}</style></defs><g id="unlocked_open" data-name="unlocked/open"><path class="cls-1" d="M11.23,4.6a7.19,7.19,0,0,1,4.91-1.73h0c4.65,0,7.34,3.85,7.34,8.27v2.07"/><path d="M16.14,18A1.87,1.87,0,0,1,18,19.87a1.84,1.84,0,0,1-.83,1.55l-.35.24v1.93a.53.53,0,0,1-.53.52H16a.53.53,0,0,1-.53-.52V21.66l-.35-.24a1.86,1.86,0,0,1,1-3.41m0-.8a2.67,2.67,0,0,0-1.48,4.88v1.5A1.33,1.33,0,0,0,16,24.91h.31a1.33,1.33,0,0,0,1.33-1.32v-1.5a2.67,2.67,0,0,0-1.49-4.88Z"/><path d="M23.81,14a1.87,1.87,0,0,1,1.87,1.86v9.67a1.87,1.87,0,0,1-1.87,1.87H8.48a1.87,1.87,0,0,1-1.87-1.87V15.87A1.87,1.87,0,0,1,8.48,14H23.81m0-.8H8.48a2.66,2.66,0,0,0-2.67,2.66v9.67a2.67,2.67,0,0,0,2.67,2.67H23.81a2.68,2.68,0,0,0,2.67-2.67V15.87a2.67,2.67,0,0,0-2.67-2.66Z"/></g></svg>