<svg xmlns="http://www.w3.org/2000/svg" viewBox="0 0 32 32"><defs><style>.cls-1,.cls-2{fill:none;stroke-linejoin:round;stroke-width:0.8px;}.cls-1{stroke:#1F252D;}.cls-2{stroke:#fff;stroke-linecap:round;}</style></defs><g id="confirmation_about_signed_it_with_avatar" data-name="confirmation about signed it with avatar"><path d="M21.1,17.4a4.54,4.54,0,0,1,4.53,4.54v5.33a.53.53,0,0,1-.53.53H7.76a.53.53,0,0,1-.53-.53V21.94a4.54,4.54,0,0,1,4.53-4.54h1.62l2.42,3a.83.83,0,0,0,.63.3.79.79,0,0,0,.62-.3l2.43-3H21.1m0-.8h-2l-2.67,3.34L13.76,16.6h-2a5.34,5.34,0,0,0-5.33,5.34v5.33A1.33,1.33,0,0,0,7.76,28.6H25.1a1.33,1.33,0,0,0,1.33-1.33V21.94A5.34,5.34,0,0,0,21.1,16.6Z"/><line class="cls-1" x1="13.43" y1="16.6" x2="13.43" y2="13.94"/><line class="cls-1" x1="19.43" y1="16.6" x2="19.43" y2="13.94"/><path class="cls-1" d="M19.43,4.27c0,.67-4.67,4-8.33,3"/><path class="cls-1" d="M17.1,5.94s3.33,3.33,5,2.33"/><path d="M20.43,23.4a.54.54,0,1,1-.53.54.54.54,0,0,1,.53-.54m0-.8a1.34,1.34,0,1,0,1.33,1.34,1.33,1.33,0,0,0-1.33-1.34Z"/><path d="M16.43,4.07a5.2,5.2,0,1,1-5.2,5.2,5.2,5.2,0,0,1,5.2-5.2m0-.8a6,6,0,1,0,6,6,6,6,0,0,0-6-6Z"/><path d="M21.1,17.4a4.54,4.54,0,0,1,4.53,4.54v5.33a.53.53,0,0,1-.53.53H7.76a.53.53,0,0,1-.53-.53V21.94a4.54,4.54,0,0,1,4.53-4.54h1.62l2.42,3a.83.83,0,0,0,.63.3.79.79,0,0,0,.62-.3l2.43-3H21.1m0-.8h-2l-2.67,3.34L13.76,16.6h-2a5.34,5.34,0,0,0-5.33,5.34v5.33A1.33,1.33,0,0,0,7.76,28.6H25.1a1.33,1.33,0,0,0,1.33-1.33V21.94A5.34,5.34,0,0,0,21.1,16.6Z"/><polyline class="cls-1" points="16.1 20.27 14.1 21.6 10.76 16.94"/><polyline class="cls-1" points="16.76 20.27 18.1 21.6 22.1 16.94"/><circle cx="22.26" cy="25.08" r="5"/><polyline class="cls-2" points="20.03 24.84 21.67 26.49 24.49 23.67"/></g></svg>