<svg xmlns="http://www.w3.org/2000/svg" viewBox="0 0 32 32"><defs><style>.cls-1,.cls-2,.cls-3{fill:none;stroke-width:0.8px;}.cls-1,.cls-2{stroke:#1F252D;}.cls-1,.cls-3{stroke-linejoin:round;}.cls-2{stroke-miterlimit:10;}.cls-3{stroke:#fff;stroke-linecap:round;}</style></defs><g id="Layer_36" data-name="Layer 36"><path d="M21.65,17.83A4.21,4.21,0,0,1,25.86,22v5a.45.45,0,0,1-.45.45H9.14A.45.45,0,0,1,8.69,27V22a4.2,4.2,0,0,1,4.2-4.2h1.49l2.27,2.83a.8.8,0,0,0,1.25,0l2.26-2.83h1.49m0-.8H19.78l-2.51,3.13L14.77,17H12.89a5,5,0,0,0-5,5v5a1.25,1.25,0,0,0,1.25,1.25H25.41A1.25,1.25,0,0,0,26.66,27V22a5,5,0,0,0-5-5Z"/><path d="M17.27,5.31A4.77,4.77,0,0,1,19.69,6a4.83,4.83,0,1,1-4.58-.14,4.77,4.77,0,0,1,2.16-.51m0-.8a5.56,5.56,0,0,0-2.51.59,5.66,5.66,0,1,0,2.51-.59Z"/><path d="M21.65,17.83A4.21,4.21,0,0,1,25.86,22v5a.45.45,0,0,1-.45.45H9.14A.45.45,0,0,1,8.69,27V22a4.2,4.2,0,0,1,4.2-4.2h1.49l2.27,2.83a.8.8,0,0,0,1.25,0l2.26-2.83h1.49m0-.8H19.78l-2.51,3.13L14.77,17H12.89a5,5,0,0,0-5,5v5a1.25,1.25,0,0,0,1.25,1.25H25.41A1.25,1.25,0,0,0,26.66,27V22a5,5,0,0,0-5-5Z"/><line class="cls-1" x1="14.46" y1="17.03" x2="14.46" y2="14.52"/><line class="cls-1" x1="20.09" y1="17.03" x2="20.09" y2="14.52"/><path class="cls-1" d="M20.09,5.45c0,.62-4.38,3.75-7.82,2.82"/><path class="cls-1" d="M17.9,7S21,10.14,22.59,9.2"/><polyline class="cls-1" points="16.96 20.47 15.08 21.72 11.95 17.34"/><polyline class="cls-1" points="17.59 20.47 18.84 21.72 22.59 17.34"/><path class="cls-2" d="M19.69,5.51a11.34,11.34,0,0,1,2.5-1.25C24,4,28.83,5.38,26.57,9.89c-.63,1.25-1.25,3.13-.63,4.38s-1.88-.43-2.5-.84-.85-3.29-.85-3.29"/><circle cx="24.07" cy="25.53" r="4.69"/><polyline class="cls-3" points="21.97 25.31 23.52 26.86 26.16 24.21"/></g></svg>