<?xml version="1.0" encoding="utf-8"?>
<!-- Generator: Adobe Illustrator 23.1.0, SVG Export Plug-In . SVG Version: 6.00 Build 0)  -->
<svg version="1.1" id="Warstwa_1" xmlns="http://www.w3.org/2000/svg" xmlns:xlink="http://www.w3.org/1999/xlink" x="0px" y="0px"
	 viewBox="0 0 543.5 470.3" style="enable-background:new 0 0 543.5 470.3;" xml:space="preserve">
<style type="text/css">
	.st0{fill:#752CAF;}
</style>
<g>
	<path class="st0" d="M423.5,56.9c-33-21.2-70-36.2-110.6-40.4c89.5,34.5,164.5,98,213.5,179.2c-4.6-26.2-13.9-47.8-23.1-63.5
		C479.8,104,453,78.7,423.5,56.9z"/>
	<path class="st0" d="M514,272.9c5.4-4,9.5-9.5,12.1-17.4C473,135,362.3,45.4,229.1,22c-14.4,3.2-28.4,7.5-41.9,12.9
		C335.4,45.5,460.5,140.9,514,272.9z"/>
	<path class="st0" d="M159.5,79.4c139.2,0,259,85,310.2,205.7c6.6-0.8,12.6-1.7,18.2-2.7C435,153,307.8,61.4,159.5,61.4
		c-8.4,0-16.7,0.4-24.9,1c-9.6,6.4-18.7,13.5-27.3,21C124.3,80.8,141.7,79.4,159.5,79.4z"/>
	<path class="st0" d="M159.5,107.1c-30.1,0-59.1,4.4-86.6,12.4c-6.2,7.9-11.9,16.1-17.2,24.7c32.3-12.4,67.3-19.2,103.8-19.2
		c124.2,0,230.4,78.2,272.1,187.9c4.7-7.3,8.2-14.8,10.2-22.2C393.6,182.6,285.2,107.1,159.5,107.1z"/>
	<path class="st0" d="M159.5,152.8c-44.8,0-87,11.3-124,31.1c-3.5,8.5-6.5,17.2-9.1,26.2c38.4-24.9,84-39.4,133.1-39.4
		c112.6,0,207.7,76.2,236.5,179.8c5.2-4,10.2-8.3,15-12.8C377.4,230.6,277.4,152.8,159.5,152.8z"/>
	<path class="st0" d="M159.5,198.4c-54,0-103.3,19.8-141.4,52.4c-0.2,1.4-0.4,2.8-0.6,4.2c-0.1,0.7-0.2,1.4-0.2,2.1
		c-0.1,2-0.2,4-0.2,6c0,4.3,0.4,8.2,1,12c36.2-36.3,86.2-58.7,141.4-58.7c95.4,0,175.3,67.2,195.1,156.7c5.4-1.8,11.1-4.1,16.8-7
		C348.6,270.1,262.3,198.4,159.5,198.4z"/>
	<path class="st0" d="M159.5,244.1c-51.5,0-97.7,22.8-129.2,58.8c3.7,4.6,8,8.7,12.8,12.5c28.3-32.7,70-53.5,116.5-53.5
		c68.7,0,127,45.2,146.8,107.4c6,3.2,12.7,5.6,20.3,6.6C308.5,300.5,240.5,244.1,159.5,244.1z"/>
	<path class="st0" d="M159.5,289.7c-36.8,0-69.9,15.9-93,41.1c5.1,3,10.5,6,15.9,9.1c19.7-19.9,47-32.3,77.1-32.3
		c59.8,0,108.5,48.7,108.5,108.5c0,13.1-2.4,25.5-6.7,37.1l19.1-0.2c3.6-11.7,5.5-24.1,5.5-37C285.9,346.4,229.2,289.7,159.5,289.7z
		"/>
	<path class="st0" d="M159.5,335.4c-27.6,0-52,13.9-66.5,35.1c3.4,5.4,7.5,10.3,11.9,14.7c10.8-19,31.2-31.8,54.6-31.8
		c34.7,0,62.9,28.2,62.9,62.8c0,14.1-4.7,27-12.6,37.5l21.2-0.2c5.9-11.2,9.2-23.9,9.2-37.4C240.3,371.6,204,335.4,159.5,335.4z"/>
	<path class="st0" d="M159.5,381c-13.7,0-25.5,8-31.3,19.5c5,1.9,10.1,3,15,3c1.4,0,3.1,0,4.8,0c3.1-2.8,7.1-4.5,11.5-4.5
		c4.2,0,8,1.6,11,4.1c6.8-0.5,13.7-1.4,19.9-3.2C184.6,388.8,173,381,159.5,381z"/>
</g>
</svg>
