<?xml version="1.0" encoding="utf-8"?>
<!-- Generator: Adobe Illustrator 23.1.0, SVG Export Plug-In . SVG Version: 6.00 Build 0)  -->
<svg version="1.1" id="Warstwa_1" xmlns="http://www.w3.org/2000/svg" xmlns:xlink="http://www.w3.org/1999/xlink" x="0px" y="0px"
	 viewBox="0 0 1341.5 302.5" style="enable-background:new 0 0 1341.5 302.5;" xml:space="preserve">
<style type="text/css">
	.st0{fill:#752CAF;}
</style>
<g>
	<g>
		<path class="st0" d="M451.6,79.9H511c29.4,0,47.4,15.3,47.4,40.2c0,16.5-7.3,28.4-21.4,34.3c15.7,5.1,23.7,16.9,23.7,34.3
			c0,25.5-17.8,40.4-48.6,40.4h-60.4V79.9z M477.8,103v40.6h31.6c14.3,0,22.2-7.6,22.2-20.8c0-12.9-8.2-19.8-22.9-19.8H477.8z
			 M477.8,165.7v40.4H511c14.7,0,22.9-7.1,22.9-20.6c0-12.7-8.4-19.8-22.9-19.8H477.8z"/>
		<path class="st0" d="M639.8,151h-9.2c-18,0-29.2,9.6-29.2,29.2v49h-24.9V128.5H600l1.4,14.7c4.3-10,13.9-16.7,27.3-16.7
			c3.5,0,6.9,0.4,11,1.4L639.8,151L639.8,151z"/>
		<path class="st0" d="M645.5,200.4c0-18.6,13.5-30.2,37.4-32l30.2-2.2v-2.2c0-13.7-8.2-19.2-20.8-19.2c-14.7,0-22.9,6.1-22.9,16.7
			h-21.2c0-21.8,18-36.1,45.3-36.1c27.2,0,43.9,14.7,43.9,42.7v61.2h-21.8l-1.8-14.9c-4.3,10.4-18,17.6-33.7,17.6
			C658.5,231.8,645.5,219.4,645.5,200.4z M713.2,188.3V183l-21,1.6c-15.5,1.4-21.4,6.5-21.4,14.7c0,9.2,6.1,13.7,17.3,13.7
			C703.4,213,713.2,203.8,713.2,188.3z"/>
		<path class="st0" d="M752.7,93c0-8.4,6.7-14.9,15.3-14.9c8.2,0,14.9,6.5,14.9,14.9s-6.7,15.1-14.9,15.1
			C759.4,108.1,752.7,101.4,752.7,93z M755.6,128.3h24.9v100.8h-24.9V128.3z"/>
		<path class="st0" d="M799.9,229.1V128.3H823l2,13.1c6.3-10.2,18.6-16.1,32.3-16.1c25.3,0,38.4,15.7,38.4,41.9v62.1h-24.9V173
			c0-16.9-8.4-25.1-21.2-25.1c-15.3,0-24.7,10.6-24.7,27v54.3H799.9z"/>
		<path class="st0" d="M910.1,156.1c0-44.9,28.2-75.5,69.4-75.5c31.4,0,56.1,19,62.1,48h-15.7c-6.1-21-24.1-33.9-46.9-33.9
			c-32.1,0-53.5,24.5-53.5,61.5c0,36.7,21.4,61.2,53.5,61.2c23.1,0,41.4-12.5,47.8-32h15.7c-6.7,27.6-32.2,46.1-63.7,46.1
			C937.8,231.4,910.1,201,910.1,156.1z"/>
		<path class="st0" d="M1102.8,127.7c29,0,50.2,21.8,50.2,52c0,30-21.2,51.9-50.2,51.9s-50.2-21.8-50.2-51.9
			C1052.6,149.5,1073.8,127.7,1102.8,127.7z M1102.8,218.9c21,0,35.9-16.1,35.9-39.4c0-22.9-14.9-39.2-35.9-39.2
			c-21.2,0-35.9,16.3-35.9,39.2C1066.8,202.8,1081.5,218.9,1102.8,218.9z"/>
		<path class="st0" d="M1220.5,141.8h-7.8c-18.2,0-29.8,12.2-29.8,31v56.3h-14.1v-98.8h13.3l1,15.3c3.9-10.6,14.3-17.6,28.2-17.6
			c3.1,0,5.7,0.2,9.2,1V141.8z"/>
		<path class="st0" d="M1222.2,179.7c0-30.8,19.2-52,47.4-52c26.7,0,44.9,19,44.9,47v6.9h-78.6c1,24.1,13.7,38,34.9,38
			c16.1,0,26.5-6.9,30.2-20h13.5c-5.3,20.8-20.6,32-43.9,32C1241.6,231.6,1222.2,210.8,1222.2,179.7z M1236.2,171.4h64.1
			c0-19-12.2-31.6-30.8-31.6C1250.9,139.7,1238.7,152,1236.2,171.4z"/>
	</g>
	<g>
		<path class="st0" d="M274.9,42.6c-20.1-13-42.7-22.1-67.5-24.6C262,39,307.8,77.7,337.6,127.2c-2.8-16-8.5-29.1-14.1-38.7
			C309.3,71.3,292.9,55.8,274.9,42.6z"/>
		<path class="st0" d="M330.1,174.2c3.3-2.5,5.8-5.8,7.4-10.6C305.1,90.1,237.6,35.5,156.3,21.2c-8.8,1.9-17.3,4.6-25.6,7.8
			C221.2,35.6,297.4,93.8,330.1,174.2z"/>
		<path class="st0" d="M113.9,56.2c84.9,0,158,51.8,189.2,125.5c4-0.5,7.7-1,11.1-1.6c-32.3-79-109.9-134.8-200.3-134.8
			c-5.1,0-10.2,0.2-15.2,0.6c-5.8,3.9-11.4,8.2-16.7,12.8C92.4,57.1,103.1,56.2,113.9,56.2z"/>
		<path class="st0" d="M113.9,73.1c-18.3,0-36,2.7-52.8,7.6c-3.8,4.8-7.3,9.8-10.5,15.1c19.7-7.5,41-11.7,63.3-11.7
			c75.7,0,140.5,47.7,166,114.6c2.8-4.5,5-9,6.2-13.5C256.7,119.2,190.6,73.1,113.9,73.1z"/>
		<path class="st0" d="M113.9,101c-27.3,0-53.1,6.9-75.6,19c-2.1,5.2-4,10.5-5.5,16c23.4-15.2,51.3-24,81.2-24
			c68.7,0,126.6,46.5,144.2,109.6c3.2-2.4,6.2-5,9.1-7.8C246.8,148.5,185.8,101,113.9,101z"/>
		<path class="st0" d="M113.9,128.8c-32.9,0-63,12.1-86.2,32c-0.1,0.9-0.3,1.7-0.4,2.6c0,0.5-0.1,0.9-0.1,1.3c0,1.2-0.1,2.4-0.1,3.6
			c0,2.6,0.2,5,0.6,7.3c22.1-22.1,52.6-35.8,86.2-35.8c58.2,0,106.9,41,119,95.6c3.3-1.1,6.8-2.5,10.2-4.3
			C229.3,172.5,176.6,128.8,113.9,128.8z"/>
		<path class="st0" d="M113.9,156.7c-31.4,0-59.6,13.9-78.8,35.9c2.2,2.8,4.9,5.3,7.8,7.7c17.2-19.9,42.7-32.6,71-32.6
			c41.9,0,77.5,27.6,89.6,65.5c3.6,2,7.8,3.4,12.4,4C204.8,191.1,163.3,156.7,113.9,156.7z"/>
		<path class="st0" d="M113.9,184.5c-22.5,0-42.6,9.7-56.7,25.1c3.1,1.8,6.4,3.6,9.7,5.5c12-12.1,28.6-19.7,47-19.7
			c36.5,0,66.2,29.7,66.2,66.2c0,8-1.5,15.6-4.1,22.7l11.6-0.1c2.2-7.1,3.4-14.7,3.4-22.6C191,219.1,156.4,184.5,113.9,184.5z"/>
		<path class="st0" d="M113.9,212.4c-16.8,0-31.7,8.5-40.6,21.4c2.1,3.3,4.5,6.3,7.3,9c6.6-11.6,19-19.4,33.3-19.4
			c21.1,0,38.3,17.2,38.3,38.3c0,8.6-2.9,16.5-7.7,22.9l13-0.1c3.6-6.8,5.6-14.6,5.6-22.8C163.2,234.5,141.1,212.4,113.9,212.4z"/>
		<path class="st0" d="M113.9,240.2c-8.4,0-15.5,4.9-19.1,11.9c3.1,1.2,6.2,1.8,9.1,1.8c0.9,0,1.9,0,2.9,0c1.9-1.7,4.3-2.8,7-2.8
			c2.6,0,4.9,1,6.7,2.5c4.1-0.3,8.3-0.8,12.1-1.9C129.2,244.9,122.1,240.2,113.9,240.2z"/>
	</g>
</g>
</svg>
