<?xml version="1.0" encoding="utf-8"?>
<!-- Generator: Adobe Illustrator 23.1.0, SVG Export Plug-In . SVG Version: 6.00 Build 0)  -->
<svg version="1.1" id="Warstwa_1" xmlns="http://www.w3.org/2000/svg" xmlns:xlink="http://www.w3.org/1999/xlink" x="0px" y="0px"
	 viewBox="0 0 1329.8 380.7" style="enable-background:new 0 0 1329.8 380.7;" xml:space="preserve">
<style type="text/css">
	.st0{fill:#752CAF;}
</style>
<g>
	<g>
		<path class="st0" d="M445.8,18.7h59.4c29.4,0,47.4,15.3,47.4,40.2c0,16.5-7.3,28.4-21.4,34.3c15.7,5.1,23.7,16.9,23.7,34.3
			c0,25.5-17.8,40.4-48.6,40.4h-60.4V18.7z M471.9,41.8v40.6h31.6c14.3,0,22.2-7.5,22.2-20.8c0-12.9-8.2-19.8-22.9-19.8H471.9z
			 M471.9,104.5v40.4h33.3c14.7,0,22.9-7.1,22.9-20.6c0-12.7-8.4-19.8-22.9-19.8L471.9,104.5L471.9,104.5z"/>
		<path class="st0" d="M634,89.8h-9.2c-18,0-29.2,9.6-29.2,29.2v49h-24.9V67.3h23.5l1.4,14.7c4.3-10,13.9-16.7,27.3-16.7
			c3.5,0,6.9,0.4,11,1.4L634,89.8L634,89.8z"/>
		<path class="st0" d="M639.6,139.2c0-18.6,13.5-30.2,37.4-32l30.2-2.2v-2.2c0-13.7-8.2-19.2-20.8-19.2c-14.7,0-22.9,6.1-22.9,16.7
			h-21.2c0-21.8,18-36.1,45.3-36.1c27.2,0,43.9,14.7,43.9,42.7v61.2h-21.8l-1.8-14.9c-4.3,10.4-18,17.5-33.7,17.5
			C652.7,170.6,639.6,158.1,639.6,139.2z M707.4,127.1v-5.3l-21,1.6c-15.5,1.4-21.4,6.5-21.4,14.7c0,9.2,6.1,13.7,17.3,13.7
			C697.6,151.8,707.4,142.6,707.4,127.1z"/>
		<path class="st0" d="M746.8,31.8c0-8.4,6.7-14.9,15.3-14.9c8.2,0,14.9,6.5,14.9,14.9s-6.7,15.1-14.9,15.1
			C753.6,46.9,746.8,40.1,746.8,31.8z M749.7,67.1h24.9v100.8h-24.9V67.1z"/>
		<path class="st0" d="M794,167.9V67.1h23.1l2,13.1c6.3-10.2,18.6-16.1,32.3-16.1c25.3,0,38.4,15.7,38.4,41.9v62.1h-24.9v-56.1
			c0-16.9-8.4-25.1-21.2-25.1c-15.3,0-24.7,10.6-24.7,27v54.3H794z"/>
		<path class="st0" d="M904.2,94.9c0-44.9,28.2-75.5,69.4-75.5c31.4,0,56.1,19,62.1,48h-15.7c-6.1-21-24.1-33.9-46.9-33.9
			c-32.1,0-53.5,24.5-53.5,61.4c0,36.8,21.4,61.2,53.5,61.2c23.1,0,41.4-12.5,47.8-32h15.7c-6.7,27.6-32.3,46.1-63.7,46.1
			C932,170.2,904.2,139.8,904.2,94.9z"/>
		<path class="st0" d="M1096.9,66.5c29,0,50.2,21.8,50.2,52c0,30-21.2,51.9-50.2,51.9s-50.2-21.8-50.2-51.9
			C1046.7,88.3,1067.9,66.5,1096.9,66.5z M1096.9,157.7c21,0,35.9-16.1,35.9-39.4c0-22.9-14.9-39.2-35.9-39.2
			c-21.2,0-35.9,16.3-35.9,39.2C1061,141.6,1075.7,157.7,1096.9,157.7z"/>
		<path class="st0" d="M1214.6,80.6h-7.8c-18.2,0-29.8,12.2-29.8,31v56.3H1163V69.1h13.3l1,15.3c3.9-10.6,14.3-17.5,28.2-17.5
			c3.1,0,5.7,0.2,9.2,1V80.6z"/>
		<path class="st0" d="M1216.3,118.5c0-30.8,19.2-52,47.4-52c26.7,0,44.9,19,44.9,47v6.9H1230c1,24.1,13.7,38,34.9,38
			c16.1,0,26.5-6.9,30.2-20h13.5c-5.3,20.8-20.6,32-43.9,32C1235.7,170.4,1216.3,149.6,1216.3,118.5z M1230.4,110.2h64.1
			c0-19-12.2-31.6-30.8-31.6C1245.1,78.5,1232.8,90.8,1230.4,110.2z"/>
	</g>
	<g>
		<path class="st0" d="M436.7,333.1l35.5-97.2h14.7l35.6,97.2h-13.8l-8.7-24.2H459l-8.6,24.2H436.7z M463,297.5H496L481,256.9
			c-0.7-1.9-1.3-4.2-1.6-5.6c-0.3,1.3-0.9,3.6-1.6,5.6L463,297.5z"/>
		<path class="st0" d="M556.2,265.5c16.5,0,28.1,9.4,30.4,24H574c-2.2-8.3-8.9-12.8-17.3-12.8c-12,0-20.2,9.1-20.2,23.4
			c0,14.1,7.7,23.2,19.6,23.2c9,0,15.7-4.7,18-12.5h12.6c-2.5,14.2-14.8,23.8-30.6,23.8c-19.3,0-32.1-13.7-32.1-34.4
			C524,279.7,537,265.5,556.2,265.5z"/>
		<path class="st0" d="M593.3,314.8c0-12.1,9-19.6,24.5-20.8l20.7-1.6v-1.9c0-11-6.6-14.9-15.5-14.9c-10.6,0-16.7,4.7-16.7,12.6h-11
			c0-13.7,11.3-22.7,28.2-22.7c16.3,0,27.3,8.6,27.3,26.3v41.3h-10.8l-1.3-10.6c-3.4,7.5-12.4,12.2-23,12.2
			C601.7,334.7,593.3,326.8,593.3,314.8z M638.6,304.7v-3.5l-16.8,1.3c-11.2,1.1-15.7,5.4-15.7,11.8c0,7,5.1,10.5,13.3,10.5
			C631.4,324.9,638.6,317.1,638.6,304.7z"/>
		<path class="st0" d="M660.8,300.4c0-20.2,11.7-34.9,31.2-34.9c10.1,0,18.5,4.4,23,12.5v-43.8h12.5v98.9h-11.3l-1.1-12
			c-4.3,9-13.2,13.6-23.7,13.6C672.4,334.7,660.8,320.5,660.8,300.4z M714.9,300c0-13.4-7.9-23.1-20.8-23.1s-20.4,9.7-20.4,23.1
			c0,13.6,7.5,23.2,20.4,23.2C706.9,323.3,714.9,313.7,714.9,300z"/>
		<path class="st0" d="M738.1,300.3c0-20.6,13-34.8,32.1-34.8c18.7,0,30.9,12.9,30.9,32.4v4.7l-50.8,0.1
			c0.9,13.8,8.2,21.5,20.7,21.5c9.8,0,16.3-4,18.4-11.6h11.8c-3.2,14.1-14.2,22-30.5,22C751.4,334.7,738.1,320.7,738.1,300.3z
			 M750.6,294.2h37.9c0-10.9-7.1-18.2-18.3-18.2C759.2,276.1,752.2,282.7,750.6,294.2z"/>
		<path class="st0" d="M812,333.1v-65.7h11.3l1.2,8.6c3.4-6.2,10.3-10.5,19.6-10.5c10.2,0,17.5,5.1,20.8,13.3
			c3.1-8.2,11-13.3,21.2-13.3c15.1,0,24.2,9.4,24.2,24.6v43h-12.4v-39.9c0-10.3-5.8-16.3-14.7-16.3c-9.5,0-15.9,6.7-15.9,17.2v39
			H855v-40c0-10.3-5.7-16-14.5-16c-9.5,0-15.9,6.6-15.9,17.1v39L812,333.1L812,333.1z"/>
		<path class="st0" d="M915.8,352.2h8.5c6.1,0,10.9-0.9,14-9.3l2.3-6.3l-26.5-69.2h13.3l19.1,53l19.5-53h13l-31,80.5
			c-4.4,11.3-11,16-21.1,16c-4.2,0-7.7-0.5-11-1.3L915.8,352.2L915.8,352.2z"/>
	</g>
	<g>
		<path class="st0" d="M269,44.2c-20.1-13-42.7-22.1-67.5-24.6c54.6,21,100.4,59.8,130.2,109.3c-2.8-16-8.5-29.1-14.1-38.7
			C303.4,72.9,287,57.5,269,44.2z"/>
		<path class="st0" d="M324.2,175.9c3.3-2.5,5.8-5.8,7.4-10.6C299.3,91.8,231.7,37.2,150.5,22.9c-8.8,1.9-17.3,4.6-25.6,7.8
			C215.3,37.2,291.6,95.4,324.2,175.9z"/>
		<path class="st0" d="M108,57.9c84.9,0,158,51.8,189.2,125.5c4-0.5,7.7-1,11.1-1.6C276.1,102.7,198.5,46.9,108,46.9
			c-5.1,0-10.2,0.2-15.2,0.6c-5.8,3.9-11.4,8.2-16.7,12.8C86.6,58.7,97.2,57.9,108,57.9z"/>
		<path class="st0" d="M108,74.8c-18.3,0-36,2.7-52.8,7.6c-3.8,4.8-7.3,9.8-10.5,15.1c19.7-7.5,41-11.7,63.3-11.7
			c75.7,0,140.5,47.7,166,114.6c2.8-4.5,5-9,6.2-13.5C250.8,120.8,184.7,74.8,108,74.8z"/>
		<path class="st0" d="M108,102.6c-27.3,0-53.1,6.9-75.6,19c-2.1,5.2-4,10.5-5.5,16c23.4-15.2,51.3-24,81.2-24
			c68.7,0,126.6,46.5,144.2,109.6c3.2-2.4,6.2-5,9.1-7.8C241,150.1,179.9,102.6,108,102.6z"/>
		<path class="st0" d="M108,130.5c-32.9,0-63,12.1-86.2,32c-0.1,0.9-0.3,1.7-0.4,2.6c0,0.5-0.1,0.9-0.1,1.3c0,1.2-0.1,2.4-0.1,3.6
			c0,2.6,0.2,5,0.6,7.3c22.1-22.1,52.6-35.8,86.2-35.8c58.2,0,106.9,41,119,95.6c3.3-1.1,6.8-2.5,10.2-4.3
			C223.4,174.2,170.7,130.5,108,130.5z"/>
		<path class="st0" d="M108,158.3c-31.4,0-59.6,13.9-78.8,35.9c2.2,2.8,4.9,5.3,7.8,7.7c17.2-19.9,42.7-32.6,71-32.6
			c41.9,0,77.5,27.6,89.6,65.5c3.6,2,7.8,3.4,12.4,4C198.9,192.7,157.5,158.3,108,158.3z"/>
		<path class="st0" d="M108,186.2c-22.5,0-42.6,9.7-56.7,25.1c3.1,1.8,6.4,3.6,9.7,5.5c12-12.1,28.6-19.7,47-19.7
			c36.5,0,66.2,29.7,66.2,66.2c0,8-1.5,15.6-4.1,22.7l11.6-0.1c2.2-7.1,3.4-14.7,3.4-22.6C185.1,220.7,150.5,186.2,108,186.2z"/>
		<path class="st0" d="M108,214c-16.8,0-31.7,8.5-40.6,21.4c2.1,3.3,4.5,6.3,7.3,9c6.6-11.6,19-19.4,33.3-19.4
			c21.1,0,38.3,17.2,38.3,38.3c0,8.6-2.9,16.5-7.7,22.9l13-0.1c3.6-6.8,5.6-14.6,5.6-22.8C157.3,236.1,135.2,214,108,214z"/>
		<path class="st0" d="M108,241.8c-8.4,0-15.5,4.9-19.1,11.9c3.1,1.2,6.2,1.8,9.1,1.8c0.9,0,1.9,0,2.9,0c1.9-1.7,4.3-2.8,7-2.8
			c2.6,0,4.9,1,6.7,2.5c4.1-0.3,8.3-0.9,12.1-1.9C123.3,246.5,116.3,241.8,108,241.8z"/>
	</g>
</g>
</svg>
