<svg width="1288" height="319" viewBox="0 0 1288 319" fill="none" xmlns="http://www.w3.org/2000/svg">
<g clip-path="url(#clip0_22_1135)">
<path d="M424.87 2.75H484.27C513.66 2.75 531.63 18.06 531.63 42.96C531.63 59.5 524.28 71.34 510.2 77.26C525.92 82.36 533.88 94.2 533.88 111.56C533.88 137.08 516.12 151.98 485.29 151.98H424.87V2.75ZM451 25.82V66.44H482.64C496.93 66.44 504.89 58.89 504.89 45.62C504.89 32.76 496.73 25.82 482.03 25.82H451ZM451 88.49V128.91H484.27C498.97 128.91 507.13 121.77 507.13 108.29C507.13 95.63 498.76 88.49 484.27 88.49H451Z" fill="#752CAF"/>
<path d="M613.06 73.7898H603.87C585.91 73.7898 574.68 83.3798 574.68 102.98V151.97H549.78V51.3398H573.26L574.69 66.0398C578.98 56.0398 588.57 49.2998 602.04 49.2998C605.51 49.2998 608.98 49.7098 613.06 50.7298V73.7898Z" fill="#752CAF"/>
<path d="M618.69 123.19C618.69 104.61 632.16 92.9798 656.05 91.1398L686.26 88.8898V86.6498C686.26 72.9698 678.09 67.4598 665.44 67.4598C650.74 67.4598 642.58 73.5898 642.58 84.1998H621.35C621.35 62.3598 639.31 48.0698 666.67 48.0698C693.82 48.0698 710.56 62.7698 710.56 90.7298V151.97H688.72L686.88 137.07C682.59 147.48 668.92 154.62 653.2 154.62C631.76 154.63 618.69 142.18 618.69 123.19ZM686.47 111.15V105.84L665.44 107.47C649.93 108.9 644.01 114 644.01 122.17C644.01 131.35 650.13 135.85 661.36 135.85C676.67 135.85 686.47 126.66 686.47 111.15Z" fill="#752CAF"/>
<path d="M725.94 15.8199C725.94 7.44992 732.68 0.919922 741.25 0.919922C749.42 0.919922 756.15 7.44992 756.15 15.8199C756.15 24.1899 749.41 30.9299 741.25 30.9299C732.68 30.9199 725.94 24.1899 725.94 15.8199ZM728.8 51.1299H753.7V151.97H728.8V51.1299Z" fill="#752CAF"/>
<path d="M773.13 151.98V51.1301H796.2L798.24 64.1901C804.57 53.9801 816.82 48.0601 830.5 48.0601C855.81 48.0601 868.88 63.7801 868.88 89.9101V151.97H843.97V95.83C843.97 78.89 835.6 70.7201 822.74 70.7201C807.43 70.7201 798.04 81.3301 798.04 97.6701V151.97H773.13V151.98Z" fill="#752CAF"/>
<path d="M883.3 78.8899C883.3 33.9799 911.47 3.35986 952.7 3.35986C984.14 3.35986 1008.84 22.3499 1014.76 51.3299H999.04C992.92 30.2999 974.95 17.4399 952.09 17.4399C920.04 17.4399 898.61 41.9399 898.61 78.8799C898.61 115.63 920.04 140.12 952.09 140.12C975.16 140.12 993.53 127.67 999.86 108.07H1015.58C1008.84 135.63 983.33 154.2 951.89 154.2C911.07 154.22 883.3 123.8 883.3 78.8899Z" fill="#752CAF"/>
<path d="M1076 50.52C1104.99 50.52 1126.22 72.36 1126.22 102.57C1126.22 132.58 1104.99 154.42 1076 154.42C1047.01 154.42 1025.78 132.58 1025.78 102.57C1025.79 72.36 1047.01 50.52 1076 50.52ZM1076 141.77C1097.03 141.77 1111.93 125.64 1111.93 102.37C1111.93 79.51 1097.03 63.18 1076 63.18C1054.77 63.18 1040.07 79.51 1040.07 102.37C1040.07 125.64 1054.77 141.77 1076 141.77Z" fill="#752CAF"/>
<path d="M1193.72 64.6099H1185.96C1167.79 64.6099 1156.15 76.86 1156.15 95.64V151.98H1142.07V53.1799H1155.34L1156.36 68.4899C1160.24 57.8799 1170.65 50.9399 1184.53 50.9399C1187.59 50.9399 1190.25 51.1399 1193.72 51.9599V64.6099Z" fill="#752CAF"/>
<path d="M1195.4 102.57C1195.4 71.75 1214.59 50.52 1242.76 50.52C1269.5 50.52 1287.67 69.5 1287.67 97.47V104.41H1209.08C1210.1 128.5 1222.76 142.38 1243.99 142.38C1260.12 142.38 1270.53 135.44 1274.2 122.37H1287.67C1282.36 143.19 1267.05 154.42 1243.78 154.42C1214.79 154.42 1195.4 133.6 1195.4 102.57ZM1209.48 94.2H1273.58C1273.58 75.22 1261.33 62.56 1242.76 62.56C1224.18 62.56 1211.93 74.81 1209.48 94.2Z" fill="#752CAF"/>
<path d="M450.57 218.209C469.12 218.209 481.08 228.559 482.15 245.359H468.84C468.17 235.679 461.31 230.039 450.43 230.039C438.2 230.039 430.27 236.219 430.27 245.759C430.27 253.549 434.71 258.259 443.85 260.409L459.84 264.169C475.7 267.799 483.76 276.399 483.76 290.099C483.76 307.569 470.19 318.729 449.49 318.729C429.73 318.729 416.56 308.379 415.76 291.719H429.2C429.47 300.989 437.26 306.9 449.49 306.9C462.39 306.9 470.59 300.849 470.59 291.179C470.59 283.519 466.42 278.679 457.15 276.539L441.16 272.909C425.3 269.279 417.1 260.139 417.1 246.169C417.11 229.499 430.55 218.209 450.57 218.209Z" fill="#752CAF"/>
<path d="M524.94 249.66C544.56 249.66 559.08 263.91 559.08 284.2C559.08 304.49 544.57 318.74 524.94 318.74C505.18 318.74 490.67 304.49 490.67 284.2C490.67 263.9 505.18 249.66 524.94 249.66ZM524.94 307.45C537.57 307.45 546.44 297.91 546.44 284.2C546.44 270.49 537.57 260.95 524.94 260.95C512.17 260.95 503.44 270.49 503.44 284.2C503.44 297.9 512.17 307.45 524.94 307.45Z" fill="#752CAF"/>
<path d="M569.74 317.12V218.2H582.37V317.12H569.74Z" fill="#752CAF"/>
<path d="M654.83 251.41V317.13H643.54L642.2 307.19C638.44 314.04 629.7 318.75 620.02 318.75C604.7 318.75 596.1 308.4 596.1 292.27V251.42H608.73V288.11C608.73 302.22 614.78 307.6 624.45 307.6C636.01 307.6 642.32 300.2 642.32 286.09V251.42H654.83V251.41Z" fill="#752CAF"/>
<path d="M674.92 317.12V262.02H662.02V251.41H674.92V230.85H687.55V251.41H700.45V262.02H687.55V317.12H674.92Z" fill="#752CAF"/>
<path d="M705.43 227.49C705.43 222.78 709.19 219.16 713.76 219.16C718.33 219.16 722.09 222.79 722.09 227.49C722.09 232.06 718.33 235.82 713.76 235.82C709.19 235.81 705.43 232.05 705.43 227.49ZM707.58 251.41H720.21V317.13H707.58V251.41Z" fill="#752CAF"/>
<path d="M764.41 249.66C784.03 249.66 798.55 263.91 798.55 284.2C798.55 304.49 784.04 318.74 764.41 318.74C744.65 318.74 730.14 304.49 730.14 284.2C730.14 263.9 744.65 249.66 764.41 249.66ZM764.41 307.45C777.04 307.45 785.91 297.91 785.91 284.2C785.91 270.49 777.04 260.95 764.41 260.95C751.64 260.95 742.91 270.49 742.91 284.2C742.9 297.9 751.64 307.45 764.41 307.45Z" fill="#752CAF"/>
<path d="M808.92 317.12V251.4H820.34L821.68 261.479C825.85 253.949 834.18 249.52 843.45 249.52C860.79 249.52 868.72 260.13 868.72 276.93V317.12H856.09V279.76C856.09 266.45 849.91 261.08 840.23 261.08C828.4 261.08 821.55 269.55 821.55 282.31V317.12H808.92Z" fill="#752CAF"/>
<path d="M890.06 298.039C890.06 304.759 895.17 308.789 903.5 308.789C912.37 308.789 917.48 305.159 917.48 299.109C917.48 294.679 915.33 291.99 908.48 290.24L896.92 287.549C885.23 284.729 879.72 278.95 879.72 269.27C879.72 257.17 889.93 249.52 904.45 249.52C918.83 249.52 928.24 257.58 928.51 270.08H916.42C916.15 263.49 911.72 259.33 904.06 259.33C896.13 259.33 891.7 262.82 891.7 268.87C891.7 273.3 894.93 276.26 901.38 277.87L912.94 280.69C924.1 283.38 929.6 288.489 929.6 298.299C929.6 310.799 918.85 318.729 903.26 318.729C887.81 318.729 877.99 310.53 877.99 298.03H890.06V298.039Z" fill="#752CAF"/>
<path d="M248.12 28.2199C228.03 15.2599 205.42 6.13986 180.66 3.60986C235.22 24.6199 281.01 63.3999 310.85 112.87C308.03 96.8899 302.37 83.7499 296.76 74.1599C282.51 56.9199 266.15 41.4999 248.12 28.2199Z" fill="#752CAF"/>
<path d="M303.32 159.91C306.62 157.46 309.13 154.13 310.7 149.3C278.36 75.8099 210.85 21.2099 129.58 6.8999C120.77 8.8399 112.24 11.4899 104.01 14.7399C194.41 21.2299 270.68 79.4499 303.32 159.91Z" fill="#752CAF"/>
<path d="M87.14 41.9C172.06 41.9 245.11 93.71 276.34 167.38C280.35 166.86 284.05 166.36 287.45 165.75C255.18 86.78 177.58 30.98 87.14 30.98C82.03 30.98 76.98 31.22 71.95 31.57C66.11 35.5 60.54 39.78 55.27 44.39C65.66 42.76 76.3 41.9 87.14 41.9Z" fill="#752CAF"/>
<path d="M87.1401 58.8101C68.8001 58.8101 51.0901 61.4901 34.3201 66.3901C30.5301 71.2001 27.04 76.2301 23.8 81.4601C43.49 73.9201 64.8301 69.7401 87.1301 69.7401C162.86 69.7401 227.63 117.42 253.1 184.31C255.95 179.85 258.08 175.29 259.31 170.76C229.91 104.88 163.82 58.8101 87.1401 58.8101Z" fill="#752CAF"/>
<path d="M87.14 86.6597C59.81 86.6597 34.06 93.5397 11.51 105.63C9.39998 110.82 7.55998 116.15 5.97998 121.6C29.38 106.44 57.24 97.5897 87.14 97.5897C155.81 97.5897 213.78 144.08 231.35 207.22C234.53 204.8 237.59 202.18 240.48 199.4C220.06 134.15 159.04 86.6597 87.14 86.6597Z" fill="#752CAF"/>
<path d="M87.1401 114.5C54.2301 114.5 24.1101 126.56 0.890106 146.45C0.780106 147.31 0.6301 148.15 0.5401 149.01C0.4901 149.46 0.440094 149.86 0.440094 150.31C0.390094 151.5 0.340088 152.75 0.340088 153.94C0.340088 156.56 0.580094 158.96 0.940094 161.25C23.0101 139.14 53.5101 125.44 87.1401 125.44C145.31 125.44 194.07 166.43 206.11 221.03C209.42 219.96 212.86 218.5 216.33 216.74C202.49 158.2 149.84 114.5 87.1401 114.5Z" fill="#752CAF"/>
<path d="M87.1401 142.35C55.7301 142.35 27.5801 156.29 8.33008 178.22C10.5701 181.02 13.1901 183.54 16.1201 185.88C33.3701 165.96 58.7801 153.28 87.1401 153.28C129.03 153.28 164.59 180.84 176.7 218.77C180.33 220.72 184.47 222.18 189.08 222.81C178.01 176.73 136.56 142.35 87.1401 142.35Z" fill="#752CAF"/>
<path d="M87.1402 170.19C64.6802 170.19 44.5001 179.9 30.4001 195.27C33.5401 197.09 36.7901 198.91 40.1101 200.81C52.1101 188.66 68.7602 181.12 87.1402 181.12C123.63 181.12 153.31 210.8 153.31 247.29C153.31 255.26 151.82 262.86 149.23 269.94L160.86 269.85C163.05 262.71 164.24 255.14 164.24 247.29C164.24 204.78 129.65 170.19 87.1402 170.19Z" fill="#752CAF"/>
<path d="M87.1401 198.03C70.3201 198.03 55.4501 206.52 46.5601 219.43C48.6301 222.7 51.1001 225.72 53.8401 228.38C60.4401 216.8 72.8801 208.96 87.1401 208.96C108.28 208.96 125.47 226.15 125.47 247.29C125.47 255.88 122.6 263.79 117.8 270.19L130.76 270.09C134.34 263.27 136.39 255.52 136.39 247.29C136.4 220.13 114.3 198.03 87.1401 198.03Z" fill="#752CAF"/>
<path d="M87.1401 225.87C78.7801 225.87 71.6001 230.73 68.0801 237.74C71.1501 238.9 74.2401 239.55 77.2201 239.55C78.1001 239.55 79.0801 239.56 80.1101 239.57C81.9701 237.87 84.4301 236.8 87.1401 236.8C89.7201 236.8 92.0501 237.77 93.8801 239.32C98.0201 239.04 102.22 238.47 106.02 237.4C102.43 230.58 95.3601 225.87 87.1401 225.87Z" fill="#752CAF"/>
</g>
<defs>
<clipPath id="clip0_22_1135">
<rect width="1288" height="319" fill="white"/>
</clipPath>
</defs>
</svg>
