<svg width="1323" height="329" viewBox="0 0 1323 329" fill="none" xmlns="http://www.w3.org/2000/svg">
<g clip-path="url(#clip0_39_24623)">
<path d="M436.59 2.16724H497.604C527.793 2.16724 546.251 17.8933 546.251 43.4699C546.251 60.4594 538.701 72.6211 524.239 78.702C540.386 83.9406 548.562 96.1023 548.562 113.934C548.562 140.148 530.32 155.452 498.652 155.452H436.59V2.16724ZM463.43 25.8539V67.5777H495.93C510.608 67.5777 518.784 59.8225 518.784 46.1919C518.784 32.9825 510.403 25.8539 495.303 25.8539H463.43ZM463.43 90.2269V131.745H497.604C512.703 131.745 521.085 124.411 521.085 110.565C521.085 97.5609 512.488 90.2269 497.604 90.2269H463.43Z" fill="#752CAF"/>
<path d="M629.894 75.1377H620.454C602.006 75.1377 590.471 84.9883 590.471 105.121V155.442H564.894V52.0674H589.012L590.481 67.1668C594.887 56.8951 604.738 49.9719 618.574 49.9719C622.138 49.9719 625.703 50.3931 629.894 51.4408V75.1377Z" fill="#752CAF"/>
<path d="M635.677 125.88C635.677 106.795 649.513 94.8491 674.052 92.9591L705.083 90.648V88.3471C705.083 74.2954 696.691 68.6357 683.697 68.6357C668.598 68.6357 660.216 74.9322 660.216 85.8305H638.409C638.409 63.3971 656.857 48.7188 684.961 48.7188C712.848 48.7188 730.043 63.8182 730.043 92.538V155.442H707.61L705.72 140.137C701.313 150.83 687.272 158.164 671.125 158.164C649.092 158.164 635.677 145.376 635.677 125.88ZM705.288 113.503V108.048L683.687 109.723C667.755 111.191 661.675 116.43 661.675 124.822C661.675 134.252 667.961 138.874 679.496 138.874C695.232 138.874 705.288 129.444 705.288 113.503Z" fill="#752CAF"/>
<path d="M745.841 15.5823C745.841 6.98481 752.764 0.277344 761.567 0.277344C769.959 0.277344 776.872 6.98481 776.872 15.5823C776.872 24.1797 769.949 31.1028 761.567 31.1028C752.764 31.1028 745.841 24.1797 745.841 15.5823ZM748.779 51.862H774.355V155.442H748.779V51.862Z" fill="#752CAF"/>
<path d="M794.313 155.442V51.8619H818.01L820.106 65.2768C826.608 54.7893 839.191 48.7085 853.242 48.7085C879.24 48.7085 892.665 64.8556 892.665 91.6957V155.442H867.078V97.7766C867.078 80.3763 858.481 71.9842 845.272 71.9842C829.546 71.9842 819.9 82.8826 819.9 99.6666V155.442H794.313Z" fill="#752CAF"/>
<path d="M907.477 80.3764C907.477 34.246 936.413 2.79395 978.773 2.79395C1011.07 2.79395 1036.44 22.3 1042.52 52.0675H1026.37C1020.09 30.466 1001.63 17.2565 978.147 17.2565C945.226 17.2565 923.213 42.4223 923.213 80.3661C923.213 118.115 945.226 143.27 978.147 143.27C1001.84 143.27 1020.71 130.482 1027.21 110.349H1043.36C1036.44 138.658 1010.24 157.733 977.941 157.733C935.991 157.743 907.477 126.507 907.477 80.3764Z" fill="#752CAF"/>
<path d="M1105.41 51.2251C1135.19 51.2251 1157 73.6586 1157 104.69C1157 135.515 1135.19 157.948 1105.41 157.948C1075.64 157.948 1053.83 135.515 1053.83 104.69C1053.83 73.6689 1075.64 51.2251 1105.41 51.2251ZM1105.41 144.955C1127.02 144.955 1142.32 128.386 1142.32 104.484C1142.32 81.0029 1127.02 64.2291 1105.41 64.2291C1083.61 64.2291 1068.51 81.0029 1068.51 104.484C1068.51 128.397 1083.61 144.955 1105.41 144.955Z" fill="#752CAF"/>
<path d="M1226.33 65.6979H1218.36C1199.7 65.6979 1187.74 78.2808 1187.74 97.5711V155.442H1173.28V53.9574H1186.91L1187.96 69.6834C1191.94 58.7851 1202.64 51.6565 1216.89 51.6565C1220.04 51.6565 1222.77 51.8619 1226.33 52.7042V65.6979Z" fill="#752CAF"/>
<path d="M1228.05 104.7C1228.05 73.0422 1247.76 51.2354 1276.69 51.2354C1304.16 51.2354 1322.83 70.7311 1322.83 99.4612V106.59H1242.1C1243.15 131.334 1256.15 145.592 1277.96 145.592C1294.53 145.592 1305.22 138.463 1308.99 125.038H1322.83C1317.37 146.424 1301.64 157.959 1277.74 157.959C1247.97 157.959 1228.05 136.573 1228.05 104.7ZM1242.52 96.1023H1308.36C1308.36 76.6065 1295.78 63.6025 1276.71 63.6025C1257.62 63.6025 1245.04 76.1854 1242.52 96.1023Z" fill="#752CAF"/>
<path d="M254.698 28.309C234.062 14.9968 210.838 5.62902 185.405 3.03027C241.447 24.6112 288.482 64.445 319.133 115.259C316.236 98.845 310.422 85.348 304.66 75.4974C290.012 57.7889 273.208 41.9499 254.698 28.309Z" fill="#752CAF"/>
<path d="M311.388 163.578C314.777 161.061 317.356 157.641 318.968 152.679C285.749 77.1922 216.405 21.1085 132.926 6.40967C123.877 8.40239 115.115 11.1244 106.662 14.4627C199.528 21.1291 277.861 80.9311 311.388 163.578Z" fill="#752CAF"/>
<path d="M89.3332 42.3608C176.561 42.3608 251.596 95.5787 283.674 171.251C287.793 170.716 291.594 170.203 295.086 169.576C261.94 88.4603 182.231 31.144 89.3332 31.144C84.0843 31.144 78.8971 31.3906 73.7304 31.7501C67.7317 35.7869 62.0104 40.1832 56.5972 44.9184C67.2695 43.2442 78.1986 42.3608 89.3332 42.3608Z" fill="#752CAF"/>
<path d="M89.3332 59.7302C70.4948 59.7302 52.3035 62.4831 35.0778 67.5162C31.1848 72.4569 27.6 77.6236 24.272 82.9957C44.497 75.2508 66.4169 70.9572 89.3229 70.9572C167.111 70.9572 233.641 119.933 259.803 188.641C262.73 184.059 264.918 179.375 266.182 174.722C235.993 107.052 168.107 59.7302 89.3332 59.7302Z" fill="#752CAF"/>
<path d="M89.3332 88.3372C61.2605 88.3372 34.8108 95.4041 11.648 107.823C9.48071 113.154 7.59071 118.629 5.96777 124.227C30.0036 108.655 58.6207 99.5642 89.3332 99.5642C159.869 99.5642 219.415 147.317 237.462 212.173C240.728 209.687 243.872 206.996 246.84 204.141C225.865 137.118 163.187 88.3372 89.3332 88.3372Z" fill="#752CAF"/>
<path d="M89.3332 116.934C55.5289 116.934 24.5905 129.321 0.739494 149.752C0.626505 150.635 0.472422 151.498 0.379977 152.381C0.328618 152.844 0.277253 153.254 0.277253 153.717C0.225894 154.939 0.174561 156.223 0.174561 157.445C0.174561 160.137 0.421057 162.602 0.79084 164.954C23.4606 142.243 54.7894 128.171 89.3332 128.171C149.084 128.171 199.169 170.275 211.536 226.358C214.936 225.259 218.47 223.76 222.034 221.952C207.818 161.821 153.737 116.934 89.3332 116.934Z" fill="#752CAF"/>
<path d="M89.3332 145.53C57.0696 145.53 28.1547 159.849 8.38159 182.375C10.6825 185.251 13.3737 187.839 16.3833 190.243C34.102 169.782 60.2025 156.757 89.3332 156.757C132.361 156.757 168.888 185.066 181.327 224.027C185.055 226.03 189.308 227.529 194.043 228.176C182.672 180.855 140.106 145.53 89.3332 145.53Z" fill="#752CAF"/>
<path d="M89.3334 174.137C66.263 174.137 45.5347 184.111 31.0515 199.898C34.2768 201.768 37.6151 203.637 41.0254 205.589C53.3515 193.109 70.4539 185.364 89.3334 185.364C126.815 185.364 157.301 215.85 157.301 253.332C157.301 261.519 155.771 269.325 153.111 276.598L165.057 276.505C167.306 269.171 168.528 261.395 168.528 253.332C168.528 209.657 133.009 174.137 89.3334 174.137Z" fill="#752CAF"/>
<path d="M89.3333 202.733C72.0563 202.733 56.7822 211.454 47.6506 224.715C49.7769 228.074 52.314 231.176 55.1285 233.908C61.9078 222.013 74.6858 213.96 89.3333 213.96C111.048 213.96 128.705 231.618 128.705 253.332C128.705 262.155 125.757 270.28 120.826 276.854L134.139 276.752C137.816 269.746 139.922 261.786 139.922 253.332C139.932 225.434 117.231 202.733 89.3333 202.733Z" fill="#752CAF"/>
<path d="M89.3333 231.33C80.7461 231.33 73.371 236.322 69.7554 243.523C72.9088 244.714 76.0827 245.382 79.1437 245.382C80.0476 245.382 81.0543 245.392 82.1123 245.402C84.0228 243.656 86.5497 242.557 89.3333 242.557C91.9834 242.557 94.3767 243.553 96.2564 245.146C100.509 244.858 104.823 244.272 108.726 243.173C105.039 236.168 97.7767 231.33 89.3333 231.33Z" fill="#752CAF"/>
<path d="M434.556 326.395V226.05H495.765V238.541H448.156V269.911H491.04V281.99H448.156V313.771H495.765V326.405H434.556V326.395Z" fill="#752CAF"/>
<path d="M500.193 292.673C500.193 271.852 512.262 256.588 532.395 256.588C542.8 256.588 551.551 261.169 556.132 269.5V224.253H569.044V326.405H557.386L556.276 314.048C551.839 323.344 542.677 328.069 531.85 328.069C512.128 328.059 500.193 313.35 500.193 292.673ZM555.978 292.252C555.978 278.374 547.792 268.38 534.469 268.38C521.147 268.38 513.371 278.374 513.371 292.252C513.371 306.273 521.147 316.267 534.469 316.267C547.792 316.267 555.978 306.416 555.978 292.252Z" fill="#752CAF"/>
<path d="M642.035 258.53V326.395H630.377L628.99 316.123C625.107 323.2 616.078 328.059 606.094 328.059C590.276 328.059 581.391 317.376 581.391 300.716V258.519H594.436V296.412C594.436 310.987 600.681 316.534 610.675 316.534C622.611 316.534 629.134 308.902 629.134 294.327V258.519H642.035V258.53Z" fill="#752CAF"/>
</g>
<defs>
<clipPath id="clip0_39_24623">
<rect width="1323" height="328.696" fill="white"/>
</clipPath>
</defs>
</svg>
