<?xml version="1.0" encoding="utf-8"?>
<!-- Generator: Adobe Illustrator 23.1.0, SVG Export Plug-In . SVG Version: 6.00 Build 0)  -->
<svg version="1.1" id="Warstwa_1" xmlns="http://www.w3.org/2000/svg" xmlns:xlink="http://www.w3.org/1999/xlink" x="0px" y="0px"
	 viewBox="0 0 1323.1 346" style="enable-background:new 0 0 1323.1 346;" xml:space="preserve">
<style type="text/css">
	.st0{fill:#752CAF;}
</style>
<g>
	<g>
		<path class="st0" d="M442.4,15.9h59.4c29.4,0,47.4,15.3,47.4,40.2c0,16.5-7.3,28.4-21.4,34.3c15.7,5.1,23.7,16.9,23.7,34.3
			c0,25.5-17.8,40.4-48.6,40.4h-60.4V15.9z M468.5,39v40.6h31.6c14.3,0,22.3-7.5,22.3-20.8c0-12.9-8.2-19.8-22.9-19.8H468.5z
			 M468.5,101.7v40.4h33.3c14.7,0,22.9-7.1,22.9-20.6c0-12.7-8.4-19.8-22.9-19.8H468.5z"/>
		<path class="st0" d="M630.6,87h-9.2c-18,0-29.2,9.6-29.2,29.2v49h-24.9V64.5h23.5l1.4,14.7c4.3-10,13.9-16.7,27.3-16.7
			c3.5,0,6.9,0.4,11,1.4L630.6,87L630.6,87z"/>
		<path class="st0" d="M636.2,136.4c0-18.6,13.5-30.2,37.4-32l30.2-2.2v-2.2c0-13.7-8.2-19.2-20.8-19.2c-14.7,0-22.9,6.1-22.9,16.7
			h-21.2c0-21.8,18-36.1,45.3-36.1c27.2,0,43.9,14.7,43.9,42.7v61.2h-21.8l-1.8-14.9c-4.3,10.4-18,17.5-33.7,17.5
			C649.3,167.8,636.2,155.3,636.2,136.4z M704,124.3V119l-21,1.6c-15.5,1.4-21.4,6.5-21.4,14.7c0,9.2,6.1,13.7,17.3,13.7
			C694.2,149,704,139.8,704,124.3z"/>
		<path class="st0" d="M743.5,29c0-8.4,6.7-14.9,15.3-14.9c8.2,0,14.9,6.5,14.9,14.9s-6.7,15.1-14.9,15.1
			C750.2,44.1,743.5,37.4,743.5,29z M746.3,64.3h24.9v100.8h-24.9V64.3z"/>
		<path class="st0" d="M790.7,165.1V64.3h23.1l2,13.1c6.3-10.2,18.6-16.1,32.3-16.1c25.3,0,38.4,15.7,38.4,41.9v62.1h-24.9V109
			c0-16.9-8.4-25.1-21.2-25.1c-15.3,0-24.7,10.6-24.7,27v54.3L790.7,165.1L790.7,165.1z"/>
		<path class="st0" d="M900.8,92.1c0-44.9,28.2-75.5,69.4-75.5c31.4,0,56.1,19,62.1,48h-15.7c-6.1-21-24.1-33.9-46.9-33.9
			c-32.1,0-53.5,24.5-53.5,61.4c0,36.8,21.4,61.2,53.5,61.2c23.1,0,41.4-12.5,47.8-32h15.7c-6.7,27.6-32.2,46.1-63.7,46.1
			C928.6,167.4,900.8,137,900.8,92.1z"/>
		<path class="st0" d="M1093.5,63.7c29,0,50.2,21.8,50.2,52c0,30-21.2,51.9-50.2,51.9s-50.2-21.8-50.2-51.9
			C1043.3,85.5,1064.6,63.7,1093.5,63.7z M1093.5,154.9c21,0,35.9-16.1,35.9-39.4c0-22.9-14.9-39.2-35.9-39.2
			c-21.2,0-35.9,16.3-35.9,39.2C1057.6,138.8,1072.3,154.9,1093.5,154.9z"/>
		<path class="st0" d="M1211.3,77.8h-7.8c-18.2,0-29.8,12.2-29.8,31v56.3h-14.1V66.3h13.3l1,15.3c3.9-10.6,14.3-17.5,28.2-17.5
			c3.1,0,5.7,0.2,9.2,1V77.8z"/>
		<path class="st0" d="M1212.9,115.7c0-30.8,19.2-52,47.4-52c26.7,0,44.9,19,44.9,47v6.9h-78.6c1,24.1,13.7,38,34.9,38
			c16.1,0,26.5-6.9,30.2-20h13.5c-5.3,20.8-20.6,32-43.9,32C1232.3,167.6,1212.9,146.8,1212.9,115.7z M1227,107.4h64.1
			c0-19-12.2-31.6-30.8-31.6C1241.7,75.7,1229.5,88,1227,107.4z"/>
	</g>
	<g>
		<path class="st0" d="M468.1,231.4c18.5,0,30.5,10.4,31.6,27.1h-13.3c-0.7-9.7-7.5-15.3-18.4-15.3c-12.2,0-20.2,6.2-20.2,15.7
			c0,7.8,4.4,12.5,13.6,14.7l16,3.8c15.9,3.6,23.9,12.2,23.9,25.9c0,17.5-13.6,28.6-34.3,28.6c-19.8,0-32.9-10.3-33.7-27h13.4
			c0.3,9.3,8.1,15.2,20.3,15.2c12.9,0,21.1-6,21.1-15.7c0-7.7-4.2-12.5-13.4-14.6l-16-3.6c-15.9-3.6-24.1-12.8-24.1-26.7
			C434.7,242.7,448.1,231.4,468.1,231.4z"/>
		<path class="st0" d="M508.6,297.5c0-20.6,13-34.8,32.1-34.8c18.7,0,30.9,12.9,30.9,32.4v4.7l-50.8,0.1
			c0.9,13.8,8.2,21.5,20.7,21.5c9.8,0,16.3-4,18.4-11.6h11.8c-3.2,14.1-14.2,22-30.5,22C521.9,331.9,508.6,317.9,508.6,297.5z
			 M521,291.5h37.9c0-10.9-7.1-18.2-18.3-18.2C529.7,273.3,522.7,279.9,521,291.5z"/>
		<path class="st0" d="M582.5,330.3v-65.7h11.4l1.3,10.1c4.2-7.5,12.5-12,21.8-12c17.3,0,25.3,10.6,25.3,27.4v40.2h-12.6v-37.4
			c0-13.3-6.2-18.7-15.9-18.7c-11.8,0-18.7,8.5-18.7,21.2v34.8H582.5z"/>
		<path class="st0" d="M660.9,330.3v-55.1H648v-10.6h12.9V244h12.6v20.6h12.9v10.6h-12.9v55.1H660.9z"/>
		<path class="st0" d="M691.4,240.7c0-4.7,3.8-8.3,8.3-8.3s8.3,3.6,8.3,8.3c0,4.6-3.8,8.3-8.3,8.3S691.4,245.2,691.4,240.7z
			 M693.6,264.6h12.6v65.7h-12.6V264.6z"/>
		<path class="st0" d="M720.4,330.3v-65.7h11.4l1.3,10.1c4.2-7.5,12.5-12,21.8-12c17.3,0,25.3,10.6,25.3,27.4v40.2h-12.6v-37.4
			c0-13.3-6.2-18.7-15.9-18.7c-11.8,0-18.7,8.5-18.7,21.2v34.8H720.4z"/>
		<path class="st0" d="M790,297.5c0-20.6,13-34.8,32.1-34.8c18.7,0,30.9,12.9,30.9,32.4v4.7l-50.8,0.1c0.9,13.8,8.2,21.5,20.7,21.5
			c9.8,0,16.3-4,18.4-11.6h11.8c-3.2,14.1-14.2,22-30.5,22C803.3,331.9,790,317.9,790,297.5z M802.5,291.5h37.9
			c0-10.9-7.1-18.2-18.3-18.2C811.1,273.3,804.1,279.9,802.5,291.5z"/>
		<path class="st0" d="M864.2,330.3v-98.9h12.6v98.9H864.2z"/>
	</g>
	<g>
		<path class="st0" d="M265.7,41.4c-20.1-13-42.7-22.1-67.5-24.6c54.6,21,100.4,59.8,130.2,109.3c-2.8-16-8.5-29.1-14.1-38.7
			C300.1,70.1,283.7,54.6,265.7,41.4z"/>
		<path class="st0" d="M320.9,173.1c3.3-2.5,5.8-5.8,7.4-10.6C295.9,89,228.4,34.4,147.1,20c-8.8,1.9-17.3,4.6-25.6,7.8
			C212,34.4,288.2,92.6,320.9,173.1z"/>
		<path class="st0" d="M104.7,55.1c84.9,0,158,51.8,189.2,125.5c4-0.5,7.7-1,11.1-1.6c-32.3-79-109.9-134.8-200.3-134.8
			c-5.1,0-10.2,0.2-15.2,0.6c-5.8,3.9-11.4,8.2-16.7,12.8C83.2,55.9,93.8,55.1,104.7,55.1z"/>
		<path class="st0" d="M104.7,72c-18.3,0-36,2.7-52.8,7.6c-3.8,4.8-7.3,9.8-10.5,15.1c19.7-7.5,41-11.7,63.3-11.7
			c75.7,0,140.5,47.7,166,114.6c2.8-4.5,5-9,6.2-13.5C247.5,118,181.4,72,104.7,72z"/>
		<path class="st0" d="M104.7,99.8c-27.3,0-53.1,6.9-75.6,19c-2.1,5.2-4,10.5-5.5,16c23.4-15.2,51.3-24,81.2-24
			c68.7,0,126.6,46.5,144.2,109.6c3.2-2.4,6.2-5,9.1-7.8C237.6,147.3,176.6,99.8,104.7,99.8z"/>
		<path class="st0" d="M104.7,127.7c-32.9,0-63,12.1-86.2,32c-0.1,0.9-0.3,1.7-0.4,2.6c0,0.5-0.1,0.9-0.1,1.3c0,1.2-0.1,2.4-0.1,3.6
			c0,2.6,0.2,5,0.6,7.3c22.1-22.1,52.6-35.8,86.2-35.8c58.2,0,106.9,41,119,95.6c3.3-1.1,6.8-2.5,10.2-4.3
			C220,171.3,167.4,127.7,104.7,127.7z"/>
		<path class="st0" d="M104.7,155.5c-31.4,0-59.6,13.9-78.8,35.9c2.2,2.8,4.9,5.3,7.8,7.7c17.2-19.9,42.7-32.6,71-32.6
			c41.9,0,77.5,27.6,89.6,65.5c3.6,2,7.8,3.4,12.4,4C195.6,189.9,154.1,155.5,104.7,155.5z"/>
		<path class="st0" d="M104.7,183.3c-22.5,0-42.6,9.7-56.7,25.1c3.1,1.8,6.4,3.6,9.7,5.5c12-12.1,28.6-19.7,47-19.7
			c36.5,0,66.2,29.7,66.2,66.2c0,8-1.5,15.6-4.1,22.7l11.6-0.1c2.2-7.1,3.4-14.7,3.4-22.6C181.8,217.9,147.2,183.3,104.7,183.3z"/>
		<path class="st0" d="M104.7,211.2c-16.8,0-31.7,8.5-40.6,21.4c2.1,3.3,4.5,6.3,7.3,9c6.6-11.6,19-19.4,33.3-19.4
			c21.1,0,38.3,17.2,38.3,38.3c0,8.6-2.9,16.5-7.7,22.9l13-0.1c3.6-6.8,5.6-14.6,5.6-22.8C153.9,233.3,131.8,211.2,104.7,211.2z"/>
		<path class="st0" d="M104.7,239c-8.4,0-15.5,4.9-19.1,11.9c3.1,1.2,6.2,1.8,9.1,1.8c0.9,0,1.9,0,2.9,0c1.9-1.7,4.3-2.8,7-2.8
			c2.6,0,4.9,1,6.7,2.5c4.1-0.3,8.3-0.8,12.1-1.9C120,243.7,112.9,239,104.7,239z"/>
	</g>
</g>
</svg>
