<svg width="119" height="119" viewBox="0 0 119 119" fill="none" xmlns="http://www.w3.org/2000/svg">
<path d="M58.7999 110.4C87.1873 110.4 110.2 87.3874 110.2 59C110.2 30.6125 87.1873 7.59998 58.7999 7.59998C30.4125 7.59998 7.3999 30.6125 7.3999 59C7.3999 87.3874 30.4125 110.4 58.7999 110.4Z" fill="url(#paint0_linear)"/>
<path d="M58.7999 13.5C83.8999 13.5 104.2 33.9 104.2 58.9C104.2 84 83.7999 104.3 58.7999 104.3C33.7999 104.3 13.3999 84 13.3999 59C13.3999 33.9 33.7999 13.5 58.7999 13.5ZM58.7999 7.5C30.3999 7.5 7.3999 30.6 7.3999 59C7.3999 87.4 30.3999 110.4 58.7999 110.4C87.1999 110.4 110.2 87.4 110.2 59C110.2 30.6 87.1999 7.5 58.7999 7.5Z" fill="url(#paint1_linear)"/>
<path d="M57.0998 50.1C57.0998 51.7 55.7998 53 54.1998 53C52.5998 53 51.2998 51.7 51.2998 50.1C51.2998 48.5 52.5998 47.2 54.1998 47.2C55.7998 47.2 57.0998 48.5 57.0998 50.1ZM65.3998 47.2C63.7998 47.2 62.4998 48.5 62.4998 50.1C62.4998 51.7 63.7998 53 65.3998 53C66.9998 53 68.2998 51.7 68.2998 50.1C68.2998 48.5 66.9998 47.2 65.3998 47.2Z" fill="#16A3A6"/>
<path d="M58.8 30.7C53.7 30.7 49.3 32 45.6 34.3V27.5C46.3 27.2 46.7 26.5 46.7 25.7C46.7 24.6 45.8 23.6 44.6 23.6C43.5 23.6 42.5 24.5 42.5 25.7C42.5 26.5 43 27.2 43.6 27.5V35.7C38.5 39.9 35.5 46.6 35.5 54.8V83.8C35.5 85.4 36.8 86.7 38.4 86.7C40 86.7 41.3 85.4 41.3 83.8V75.7H76.2V83.8C76.2 85.4 77.5 86.7 79.1 86.7C80.7 86.7 82 85.4 82 83.8V54.8C82.1 40.4 72.7 30.7 58.8 30.7ZM76.3 69.9H41.4V54.8C41.4 43.6 48.2 36.4 58.8 36.4C69.4 36.4 76.2 43.6 76.2 54.8V69.9H76.3Z" fill="url(#paint2_linear)"/>
<path d="M44.6998 27.9C46.0253 27.9 47.0998 26.8255 47.0998 25.5C47.0998 24.1745 46.0253 23.1 44.6998 23.1C43.3743 23.1 42.2998 24.1745 42.2998 25.5C42.2998 26.8255 43.3743 27.9 44.6998 27.9Z" fill="#EFCC1A"/>
<defs>
<linearGradient id="paint0_linear" x1="25.7658" y1="19.5569" x2="91.8862" y2="98.3561" gradientUnits="userSpaceOnUse">
<stop offset="0.0473856" stop-color="white"/>
<stop offset="0.4119" stop-color="#FAF4F2"/>
<stop offset="1" stop-color="#CFD1DE"/>
</linearGradient>
<linearGradient id="paint1_linear" x1="25.7658" y1="19.5569" x2="91.8862" y2="98.3561" gradientUnits="userSpaceOnUse">
<stop offset="0.0687236" stop-color="#16A3A6"/>
<stop offset="0.9444" stop-color="#65458B"/>
</linearGradient>
<linearGradient id="paint2_linear" x1="34.3155" y1="31.4665" x2="69.4266" y2="79.911" gradientUnits="userSpaceOnUse">
<stop offset="0.0687236" stop-color="#16A3A6"/>
<stop offset="0.9444" stop-color="#65458B"/>
</linearGradient>
</defs>
</svg>
