<svg width="376" height="221" viewBox="0 0 376 221" fill="none" xmlns="http://www.w3.org/2000/svg">
<g clip-path="url(#clip0)">
<path d="M105.89 210.47C103.97 210.47 102.24 210.09 100.72 209.34C99.2 208.59 98 207.56 97.11 206.25C96.22 204.94 95.78 203.48 95.78 201.86C95.78 199.82 96.31 198.2 97.37 197.01C98.43 195.82 100.18 194.96 102.62 194.44C105.06 193.92 108.4 193.66 112.64 193.66H114.49V191.87C114.49 189.48 114 187.76 113.02 186.7C112.04 185.64 110.47 185.11 108.31 185.11C106.96 185.11 105.61 185.28 104.24 185.63C102.87 185.98 101.46 186.53 100 187.3C99.34 187.65 98.8 187.71 98.35 187.5C97.91 187.29 97.6 186.94 97.43 186.46C97.26 185.98 97.26 185.48 97.43 184.96C97.6 184.44 97.98 184.05 98.56 183.78C100.21 182.93 101.88 182.32 103.55 181.93C105.22 181.55 106.81 181.35 108.31 181.35C111.93 181.35 114.61 182.24 116.36 184.01C118.11 185.78 118.99 188.53 118.99 192.27V207.92C118.99 209.54 118.28 210.34 116.85 210.34C115.35 210.34 114.6 209.53 114.6 207.92V205.09C113.87 206.74 112.74 208.05 111.22 209.02C109.71 209.99 107.93 210.47 105.89 210.47ZM106.64 206.95C108.95 206.95 110.83 206.15 112.3 204.55C113.76 202.95 114.49 200.92 114.49 198.46V196.73H112.7C109.58 196.73 107.13 196.87 105.34 197.16C103.55 197.45 102.3 197.95 101.59 198.66C100.88 199.37 100.52 200.34 100.52 201.58C100.52 203.16 101.07 204.45 102.17 205.45C103.26 206.45 104.76 206.95 106.64 206.95Z" fill="#8D5CC6"/>
<path d="M140.7 210.47C137.89 210.47 135.46 209.86 133.43 208.65C131.39 207.44 129.82 205.73 128.72 203.51C127.62 201.3 127.07 198.71 127.07 195.75C127.07 191.29 128.28 187.77 130.71 185.21C133.13 182.65 136.46 181.37 140.7 181.37C142.08 181.37 143.53 181.59 145.03 182.03C146.53 182.47 147.9 183.19 149.13 184.2C149.78 184.66 150.06 185.24 149.97 185.93C149.87 186.62 149.55 187.14 148.99 187.49C148.43 187.84 147.79 187.76 147.06 187.26C146.02 186.49 144.99 185.95 143.97 185.64C142.95 185.33 141.96 185.18 141 185.18C138.08 185.18 135.82 186.09 134.25 187.92C132.67 189.75 131.88 192.38 131.88 195.8C131.88 199.15 132.67 201.8 134.25 203.74C135.83 205.68 138.08 206.66 141 206.66C141.96 206.66 142.95 206.51 143.97 206.2C144.99 205.89 146.02 205.35 147.06 204.58C147.79 204.08 148.43 204.01 148.97 204.38C149.51 204.75 149.81 205.27 149.86 205.97C149.92 206.66 149.64 207.22 149.02 207.64C147.79 208.64 146.44 209.36 144.98 209.8C143.51 210.25 142.09 210.47 140.7 210.47Z" fill="#8D5CC6"/>
<path d="M165.29 210.47C163.37 210.47 161.64 210.09 160.12 209.34C158.6 208.59 157.4 207.56 156.51 206.25C155.62 204.94 155.18 203.48 155.18 201.86C155.18 199.82 155.71 198.2 156.77 197.01C157.83 195.82 159.58 194.96 162.02 194.44C164.46 193.92 167.8 193.66 172.04 193.66H173.89V191.87C173.89 189.48 173.4 187.76 172.42 186.7C171.44 185.64 169.87 185.11 167.71 185.11C166.36 185.11 165.01 185.28 163.64 185.63C162.27 185.98 160.86 186.53 159.4 187.3C158.74 187.65 158.2 187.71 157.75 187.5C157.31 187.29 157 186.94 156.83 186.46C156.66 185.98 156.66 185.48 156.83 184.96C157 184.44 157.38 184.05 157.96 183.78C159.61 182.93 161.28 182.32 162.95 181.93C164.62 181.55 166.21 181.35 167.71 181.35C171.33 181.35 174.01 182.24 175.76 184.01C177.51 185.78 178.39 188.53 178.39 192.27V207.92C178.39 209.54 177.68 210.34 176.25 210.34C174.75 210.34 174 209.53 174 207.92V205.09C173.27 206.74 172.14 208.05 170.62 209.02C169.11 209.99 167.33 210.47 165.29 210.47ZM166.05 206.95C168.36 206.95 170.24 206.15 171.71 204.55C173.17 202.95 173.9 200.92 173.9 198.46V196.73H172.11C168.99 196.73 166.54 196.87 164.75 197.16C162.96 197.45 161.71 197.95 161 198.66C160.29 199.37 159.93 200.34 159.93 201.58C159.93 203.16 160.48 204.45 161.58 205.45C162.67 206.45 164.16 206.95 166.05 206.95Z" fill="#8D5CC6"/>
<path d="M198.89 210.47C196.39 210.47 194.2 209.87 192.34 208.68C190.47 207.49 189.03 205.8 188.01 203.63C186.99 201.46 186.48 198.89 186.48 195.92C186.48 192.92 186.99 190.33 188.01 188.16C189.03 185.99 190.47 184.31 192.34 183.14C194.21 181.97 196.39 181.38 198.89 181.38C201.08 181.38 203.02 181.86 204.69 182.82C206.36 183.78 207.61 185.11 208.41 186.8V171.21C208.41 169.63 209.2 168.84 210.78 168.84C212.32 168.84 213.09 169.63 213.09 171.21V207.93C213.09 209.55 212.32 210.35 210.78 210.35C209.24 210.35 208.47 209.54 208.47 207.93V204.93C207.62 206.66 206.36 208.02 204.69 209C203.02 209.98 201.09 210.47 198.89 210.47ZM199.88 206.72C202.5 206.72 204.59 205.79 206.17 203.92C207.75 202.05 208.54 199.39 208.54 195.92C208.54 192.42 207.75 189.74 206.17 187.9C204.59 186.05 202.49 185.13 199.88 185.13C197.22 185.13 195.12 186.05 193.56 187.9C192 189.75 191.22 192.42 191.22 195.92C191.22 199.38 192 202.05 193.56 203.92C195.11 205.79 197.22 206.72 199.88 206.72Z" fill="#8D5CC6"/>
<path d="M235.67 210.47C231.24 210.47 227.74 209.17 225.16 206.57C222.58 203.97 221.29 200.44 221.29 195.98C221.29 193.09 221.87 190.54 223.02 188.33C224.17 186.12 225.76 184.4 227.78 183.19C229.8 181.98 232.14 181.37 234.79 181.37C238.6 181.37 241.58 182.59 243.74 185.04C245.9 187.48 246.97 190.84 246.97 195.11C246.97 196.3 246.3 196.9 244.95 196.9H225.84C225.99 200.09 226.92 202.53 228.61 204.2C230.3 205.87 232.65 206.71 235.65 206.71C236.92 206.71 238.21 206.55 239.52 206.22C240.83 205.89 242.1 205.31 243.33 204.46C244.22 203.88 244.96 203.77 245.55 204.11C246.15 204.46 246.45 204.99 246.47 205.7C246.49 206.41 246.09 207.04 245.29 207.58C244.02 208.5 242.51 209.22 240.76 209.72C239.02 210.22 237.32 210.47 235.67 210.47ZM234.92 184.84C232.26 184.84 230.17 185.67 228.63 187.32C227.09 188.98 226.19 191.15 225.92 193.84H242.95C242.83 190.99 242.09 188.78 240.73 187.2C239.35 185.63 237.42 184.84 234.92 184.84Z" fill="#8D5CC6"/>
<path d="M257.32 210.36C255.78 210.36 255.01 209.55 255.01 207.94V183.87C255.01 182.29 255.76 181.5 257.26 181.5C258.8 181.5 259.57 182.29 259.57 183.87V186.64C260.42 184.95 261.59 183.65 263.09 182.74C264.59 181.84 266.34 181.38 268.34 181.38C272.73 181.38 275.54 183.28 276.77 187.09C277.62 185.32 278.87 183.92 280.52 182.9C282.17 181.88 284.08 181.37 286.24 181.37C292.47 181.37 295.59 185.06 295.59 192.45V207.92C295.59 209.54 294.8 210.34 293.22 210.34C291.68 210.34 290.91 209.53 290.91 207.92V192.68C290.91 190.1 290.46 188.21 289.55 186.99C288.64 185.78 287.15 185.17 285.08 185.17C282.81 185.17 281 185.98 279.65 187.59C278.3 189.21 277.63 191.36 277.63 194.06V207.92C277.63 209.54 276.84 210.34 275.26 210.34C273.72 210.34 272.95 209.53 272.95 207.92V192.68C272.95 190.1 272.5 188.21 271.59 186.99C270.68 185.78 269.19 185.17 267.12 185.17C264.81 185.17 262.99 185.98 261.66 187.59C260.33 189.21 259.67 191.36 259.67 194.06V207.92C259.68 209.55 258.89 210.36 257.32 210.36Z" fill="#8D5CC6"/>
<path d="M311.41 220.75C310.52 220.75 309.93 220.41 309.62 219.74C309.31 219.07 309.33 218.31 309.68 217.46L313.2 209.49L302.58 184.78C302.19 183.9 302.18 183.13 302.55 182.47C302.92 181.82 303.62 181.49 304.66 181.49C305.74 181.49 306.53 182.11 307.03 183.34L315.75 204.64L324.52 183.34C324.83 182.65 325.16 182.17 325.5 181.9C325.85 181.63 326.35 181.5 327 181.5C327.89 181.5 328.48 181.83 328.79 182.48C329.1 183.13 329.08 183.89 328.73 184.73L313.95 218.91C313.64 219.6 313.31 220.08 312.94 220.35C312.57 220.61 312.06 220.75 311.41 220.75Z" fill="#8D5CC6"/>
<path d="M312.72 68.41C312.72 72.52 309.39 75.85 305.28 75.85C301.17 75.85 297.84 72.52 297.84 68.41C297.84 64.3 301.17 60.97 305.28 60.97C309.38 60.97 312.72 64.3 312.72 68.41ZM333.74 60.97C329.63 60.97 326.3 64.3 326.3 68.41C326.3 72.52 329.63 75.85 333.74 75.85C337.85 75.85 341.18 72.52 341.18 68.41C341.18 64.3 337.86 60.97 333.74 60.97Z" fill="#16A3A6"/>
<path d="M125.64 75.81C126.67 79.74 130.7 82.08 134.63 81.05C138.56 80.02 140.9 75.99 139.87 72.06C131.66 40.88 103.39 19.1 71.11 19.1C31.9 19.11 0 51 0 90.21C0 129.42 31.9 161.31 71.1 161.31C103.38 161.31 131.66 139.53 139.86 108.35C140.89 104.42 138.55 100.4 134.62 99.36C130.69 98.33 126.67 100.67 125.63 104.6C119.12 129.32 96.7 146.59 71.09 146.59C40 146.59 14.7 121.29 14.7 90.2C14.7 59.11 40 33.81 71.09 33.81C96.7 33.82 119.13 51.09 125.64 75.81Z" fill="url(#paint0_linear)"/>
<path d="M35.14 82.85C31.08 82.85 27.78 86.14 27.78 90.21C27.78 94.28 31.07 97.57 35.14 97.57H93.17C97.23 97.57 100.53 94.28 100.53 90.21C100.53 86.14 97.24 82.85 93.17 82.85H35.14Z" fill="url(#paint1_linear)"/>
<path d="M317.06 19.11C304.19 19.11 292.87 22.41 283.68 28.36V11.07C285.34 10.19 286.49 8.45999 286.49 6.43999C286.49 3.52999 284.13 1.17999 281.23 1.17999C278.32 1.17999 275.97 3.53999 275.97 6.43999C275.97 8.45999 277.12 10.19 278.78 11.07V31.94C265.75 42.7 258.13 59.61 258.13 80.41V153.96C258.13 158.02 261.42 161.32 265.49 161.32C269.56 161.32 272.85 158.03 272.85 153.96V133.3H361.31V153.96C361.31 158.02 364.6 161.32 368.67 161.32C372.73 161.32 376.03 158.03 376.03 153.96V80.4C376 43.74 352.31 19.11 317.06 19.11ZM361.29 118.59H272.83V80.4C272.83 52.1 290.19 33.82 317.06 33.82C343.93 33.82 361.29 52.11 361.29 80.4V118.59Z" fill="url(#paint2_linear)"/>
<path d="M195.9 146.6H178.18V26.46C178.18 22.4 174.89 19.1 170.82 19.1C166.76 19.1 163.46 22.39 163.46 26.46V153.95C163.46 158.01 166.75 161.31 170.82 161.31H195.89C199.95 161.31 203.25 158.02 203.25 153.95C203.25 149.89 199.96 146.6 195.9 146.6Z" fill="url(#paint3_linear)"/>
<path d="M228.2 19.11C224.14 19.11 220.84 22.4 220.84 26.47V153.96C220.84 158.02 224.13 161.32 228.2 161.32C232.26 161.32 235.56 158.03 235.56 153.96V26.46C235.55 22.4 232.26 19.11 228.2 19.11Z" fill="url(#paint4_linear)"/>
<path d="M281.22 11.98C284.528 11.98 287.21 9.29819 287.21 5.99C287.21 2.68181 284.528 0 281.22 0C277.912 0 275.23 2.68181 275.23 5.99C275.23 9.29819 277.912 11.98 281.22 11.98Z" fill="#EFCC1A"/>
</g>
<defs>
<linearGradient id="paint0_linear" x1="54.0546" y1="77.47" x2="252.409" y2="225.496" gradientUnits="userSpaceOnUse">
<stop offset="0.0687" stop-color="#16A3A6"/>
<stop offset="0.9444" stop-color="#65458B"/>
</linearGradient>
<linearGradient id="paint1_linear" x1="51.5612" y1="80.8112" x2="249.916" y2="228.837" gradientUnits="userSpaceOnUse">
<stop offset="0.0687" stop-color="#16A3A6"/>
<stop offset="0.9444" stop-color="#65458B"/>
</linearGradient>
<linearGradient id="paint2_linear" x1="136.157" y1="-32.5471" x2="334.511" y2="115.479" gradientUnits="userSpaceOnUse">
<stop offset="0.0687" stop-color="#16A3A6"/>
<stop offset="0.9444" stop-color="#65458B"/>
</linearGradient>
<linearGradient id="paint3_linear" x1="89.7175" y1="29.6817" x2="288.072" y2="177.707" gradientUnits="userSpaceOnUse">
<stop offset="0.0687" stop-color="#16A3A6"/>
<stop offset="0.9444" stop-color="#65458B"/>
</linearGradient>
<linearGradient id="paint4_linear" x1="110.24" y1="2.18228" x2="308.594" y2="150.208" gradientUnits="userSpaceOnUse">
<stop offset="0.0687" stop-color="#16A3A6"/>
<stop offset="0.9444" stop-color="#65458B"/>
</linearGradient>
<clipPath id="clip0">
<rect width="376" height="220.75" fill="white"/>
</clipPath>
</defs>
</svg>
