<svg width="488" height="105" viewBox="0 0 488 105" fill="none" xmlns="http://www.w3.org/2000/svg">
<g clip-path="url(#clip0)">
<path d="M203.469 44.5108C203.469 47.1835 201.302 49.3505 198.63 49.3505C195.957 49.3505 193.79 47.1835 193.79 44.5108C193.79 41.8382 195.957 39.6711 198.63 39.6711C201.302 39.6711 203.469 41.8382 203.469 44.5108ZM217.151 39.6711C214.478 39.6711 212.311 41.8382 212.311 44.5108C212.311 47.1835 214.478 49.3505 217.151 49.3505C219.823 49.3505 221.99 47.1835 221.99 44.5108C221.99 41.8382 219.823 39.6711 217.151 39.6711Z" fill="#16A3A6"/>
<path d="M272.96 89.5851C271.038 89.5851 269.333 89.2095 267.816 88.4582C266.3 87.707 265.1 86.6813 264.234 85.381C263.367 84.0808 262.919 82.6217 262.919 81.0181C262.919 78.9955 263.439 77.3775 264.494 76.1928C265.548 75.0082 267.282 74.1558 269.723 73.6357C272.15 73.1156 275.473 72.8556 279.692 72.8556H281.527V71.0786C281.527 68.7093 281.035 66.9902 280.067 65.9355C279.099 64.8809 277.525 64.3608 275.387 64.3608C274.043 64.3608 272.699 64.5342 271.341 64.8809C269.983 65.2276 268.568 65.7766 267.123 66.5423C266.473 66.889 265.924 66.9613 265.49 66.7446C265.043 66.5279 264.739 66.1956 264.566 65.7044C264.393 65.2276 264.393 64.722 264.566 64.2164C264.739 63.6963 265.115 63.3062 265.693 63.0462C267.34 62.2083 269.001 61.587 270.662 61.2114C272.324 60.8358 273.913 60.6335 275.401 60.6335C278.998 60.6335 281.671 61.5148 283.419 63.2773C285.167 65.0398 286.034 67.7703 286.034 71.4831V87.0424C286.034 88.646 285.326 89.4551 283.91 89.4551C282.422 89.4551 281.671 88.646 281.671 87.0424V84.2253C280.949 85.8722 279.822 87.1725 278.305 88.1259C276.788 89.0794 274.982 89.5851 272.96 89.5851ZM273.696 86.0889C275.993 86.0889 277.871 85.2944 279.331 83.7052C280.79 82.116 281.512 80.0935 281.512 77.652V75.9328H279.735C276.629 75.9328 274.187 76.0773 272.411 76.3662C270.634 76.6551 269.391 77.1463 268.683 77.8542C267.975 78.5621 267.614 79.5301 267.614 80.758C267.614 82.3328 268.163 83.6041 269.247 84.6009C270.345 85.5833 271.818 86.0889 273.696 86.0889Z" fill="#8D5CC6"/>
<path d="M306.433 89.585C303.645 89.585 301.232 88.9783 299.195 87.7792C297.158 86.5801 295.612 84.8754 294.514 82.665C293.416 80.4691 292.882 77.8831 292.882 74.9359C292.882 70.5007 294.081 67.0046 296.494 64.4619C298.906 61.9193 302.215 60.6479 306.433 60.6479C307.805 60.6479 309.25 60.8647 310.738 61.3125C312.226 61.7604 313.584 62.4683 314.812 63.4651C315.462 63.9274 315.737 64.5053 315.65 65.1843C315.563 65.8633 315.231 66.3834 314.668 66.7301C314.119 67.0768 313.469 67.0046 312.746 66.4989C311.706 65.7332 310.695 65.1987 309.669 64.8953C308.658 64.5919 307.675 64.433 306.708 64.433C303.804 64.433 301.55 65.3432 299.99 67.1635C298.415 68.9838 297.635 71.5987 297.635 75.0081C297.635 78.3454 298.415 80.9747 299.99 82.9106C301.564 84.8465 303.804 85.8144 306.708 85.8144C307.661 85.8144 308.643 85.6555 309.669 85.3521C310.68 85.0487 311.706 84.5142 312.746 83.7485C313.469 83.2573 314.104 83.1851 314.639 83.5463C315.173 83.9074 315.477 84.442 315.535 85.121C315.592 85.8 315.318 86.3634 314.697 86.7823C313.469 87.7792 312.125 88.5015 310.68 88.9349C309.236 89.3683 307.82 89.585 306.433 89.585Z" fill="#8D5CC6"/>
<path d="M329.751 89.5851C327.829 89.5851 326.124 89.2095 324.607 88.4582C323.091 87.707 321.891 86.6813 321.025 85.381C320.158 84.0808 319.71 82.6217 319.71 81.0181C319.71 78.9955 320.23 77.3775 321.285 76.1928C322.339 75.0082 324.073 74.1558 326.514 73.6357C328.942 73.1156 332.264 72.8556 336.483 72.8556H338.318V71.0786C338.318 68.7093 337.826 66.9902 336.858 65.9355C335.89 64.8809 334.316 64.3608 332.178 64.3608C330.834 64.3608 329.49 64.5342 328.132 64.8809C326.774 65.2276 325.359 65.7766 323.914 66.5423C323.264 66.889 322.715 66.9613 322.282 66.7446C321.834 66.5279 321.53 66.1956 321.357 65.7044C321.184 65.2276 321.184 64.722 321.357 64.2164C321.53 63.6963 321.906 63.3062 322.484 63.0462C324.131 62.2083 325.792 61.587 327.453 61.2114C329.115 60.8358 330.704 60.6335 332.192 60.6335C335.789 60.6335 338.462 61.5148 340.21 63.2773C341.958 65.0398 342.825 67.7703 342.825 71.4831V87.0424C342.825 88.646 342.117 89.4551 340.701 89.4551C339.213 89.4551 338.462 88.646 338.462 87.0424V84.2253C337.74 85.8722 336.613 87.1725 335.096 88.1259C333.579 89.0794 331.788 89.5851 329.751 89.5851ZM330.502 86.0889C332.799 86.0889 334.677 85.2944 336.136 83.7052C337.595 82.116 338.318 80.0935 338.318 77.652V75.9328H336.541C333.434 75.9328 330.993 76.0773 329.216 76.3662C327.439 76.6551 326.197 77.1463 325.489 77.8542C324.781 78.5621 324.42 79.5301 324.42 80.758C324.42 82.3328 324.969 83.6041 326.052 84.6009C327.136 85.5833 328.624 86.0889 330.502 86.0889Z" fill="#8D5CC6"/>
<path d="M362.025 89.585C359.54 89.585 357.358 88.9927 355.509 87.8081C353.645 86.6234 352.215 84.9476 351.204 82.7806C350.193 80.6135 349.687 78.0564 349.687 75.1093C349.687 72.1188 350.193 69.5472 351.204 67.3802C352.215 65.2132 353.66 63.5518 355.509 62.3816C357.373 61.2114 359.54 60.6335 362.025 60.6335C364.206 60.6335 366.128 61.1103 367.803 62.0637C369.465 63.0172 370.707 64.3464 371.502 66.0222V50.5351C371.502 48.9604 372.282 48.1803 373.857 48.1803C375.388 48.1803 376.154 48.9604 376.154 50.5351V87.0568C376.154 88.6604 375.388 89.4695 373.857 89.4695C372.325 89.4695 371.56 88.6604 371.56 87.0568V84.0808C370.722 85.8 369.465 87.158 367.803 88.1259C366.128 89.1083 364.206 89.585 362.025 89.585ZM363.007 85.8577C365.607 85.8577 367.702 84.9332 369.263 83.0695C370.837 81.2203 371.617 78.5621 371.617 75.1093C371.617 71.6276 370.837 68.9694 369.263 67.1202C367.688 65.2854 365.607 64.3608 363.007 64.3608C360.363 64.3608 358.268 65.2854 356.723 67.1202C355.177 68.9549 354.397 71.6131 354.397 75.1093C354.397 78.5621 355.177 81.2059 356.723 83.0695C358.268 84.9332 360.363 85.8577 363.007 85.8577Z" fill="#8D5CC6"/>
<path d="M397.463 89.585C393.056 89.585 389.575 88.2993 387.018 85.7133C384.446 83.1273 383.175 79.6167 383.175 75.1815C383.175 72.3066 383.753 69.7784 384.894 67.568C386.035 65.3721 387.624 63.6673 389.633 62.4538C391.641 61.2547 393.967 60.6479 396.61 60.6479C400.395 60.6479 403.372 61.8615 405.51 64.2886C407.648 66.7156 408.731 70.0673 408.731 74.3147C408.731 75.4993 408.067 76.0917 406.723 76.0917H387.711C387.87 79.27 388.78 81.6971 390.47 83.3584C392.161 85.0198 394.487 85.8577 397.477 85.8577C398.749 85.8577 400.02 85.6988 401.32 85.3666C402.62 85.0343 403.877 84.4564 405.105 83.6185C405.986 83.0406 406.723 82.925 407.316 83.2718C407.908 83.6185 408.211 84.1386 408.24 84.8465C408.255 85.5544 407.865 86.1756 407.055 86.7101C405.799 87.6347 404.282 88.3426 402.548 88.8338C400.8 89.3394 399.11 89.585 397.463 89.585ZM396.712 64.0863C394.068 64.0863 391.987 64.9098 390.456 66.5567C388.925 68.2037 388.029 70.3707 387.754 73.0434H404.701C404.585 70.2118 403.848 68.0159 402.49 66.4411C401.132 64.8809 399.196 64.0863 396.712 64.0863Z" fill="#8D5CC6"/>
<path d="M417.847 89.4694C416.315 89.4694 415.55 88.6604 415.55 87.0568V63.1183C415.55 61.5436 416.301 60.7635 417.789 60.7635C419.32 60.7635 420.086 61.5436 420.086 63.1183V65.8777C420.924 64.1874 422.094 62.9016 423.582 62.0059C425.07 61.1102 426.818 60.6624 428.812 60.6624C433.175 60.6624 435.978 62.5549 437.191 66.3544C438.029 64.5919 439.272 63.205 440.919 62.1937C442.565 61.1824 444.458 60.6768 446.611 60.6768C452.808 60.6768 455.914 64.3463 455.914 71.6998V87.0857C455.914 88.6893 455.134 89.4983 453.56 89.4983C452.028 89.4983 451.262 88.6893 451.262 87.0857V71.902C451.262 69.3305 450.815 67.4524 449.919 66.2388C449.023 65.0398 447.535 64.433 445.469 64.433C443.216 64.433 441.41 65.242 440.066 66.8456C438.723 68.4492 438.058 70.6018 438.058 73.2745V87.0568C438.058 88.6604 437.278 89.4694 435.703 89.4694C434.172 89.4694 433.406 88.6604 433.406 87.0568V71.902C433.406 69.3305 432.958 67.4524 432.063 66.2388C431.167 65.0398 429.679 64.433 427.613 64.433C425.316 64.433 423.51 65.242 422.181 66.8456C420.852 68.4492 420.202 70.6018 420.202 73.2745V87.0568C420.202 88.6748 419.422 89.4694 417.847 89.4694Z" fill="#8D5CC6"/>
<path d="M470.506 99.8134C469.625 99.8134 469.033 99.4811 468.729 98.8021C468.426 98.1375 468.44 97.3719 468.787 96.5339L472.283 88.6026L461.723 64.0285C461.332 63.1472 461.332 62.3815 461.694 61.7314C462.055 61.0813 462.763 60.749 463.788 60.749C464.858 60.749 465.652 61.3558 466.143 62.5838L474.811 83.7773L483.537 62.5838C483.841 61.8903 484.173 61.4136 484.52 61.1535C484.866 60.879 485.358 60.749 486.008 60.749C486.889 60.749 487.481 61.0813 487.785 61.7314C488.088 62.3815 488.074 63.1328 487.727 63.9707L473.02 97.9642C472.717 98.6576 472.384 99.1344 472.009 99.3944C471.662 99.6834 471.156 99.8134 470.506 99.8134Z" fill="#8D5CC6"/>
<path d="M81.7404 49.3217C82.4194 51.8788 85.0343 53.4102 87.5914 52.7312C90.1485 52.0522 91.6799 49.4373 91.0009 46.8802C85.67 26.5968 67.2647 12.4388 46.2589 12.4388C20.7602 12.4388 0 33.1846 0 58.6977C0 84.2109 20.7602 104.957 46.2589 104.957C67.2647 104.957 85.6555 90.7842 91.0009 70.5008C91.6799 67.9437 90.1485 65.3289 87.5914 64.6499C85.0343 63.9708 82.4194 65.5022 81.7404 68.0593C77.5075 84.1387 62.9161 95.3783 46.2589 95.3783C26.0333 95.3783 9.56383 78.9234 9.56383 58.6833C9.56383 38.4432 26.0188 21.9882 46.2589 21.9882C62.9161 22.0027 77.5075 33.2423 81.7404 49.3217Z" fill="url(#paint0_linear)"/>
<path d="M22.8693 53.9158C20.2255 53.9158 18.0874 56.0539 18.0874 58.6977C18.0874 61.3415 20.2255 63.4796 22.8693 63.4796H60.619C63.2628 63.4796 65.4009 61.3415 65.4009 58.6977C65.4009 56.0539 63.2628 53.9158 60.619 53.9158H22.8693Z" fill="url(#paint1_linear)"/>
<path d="M206.287 12.4388C197.908 12.4388 190.554 14.577 184.559 18.4487V7.20905C185.642 6.63118 186.393 5.50432 186.393 4.18966C186.393 2.29712 184.862 0.765747 182.97 0.765747C181.077 0.765747 179.546 2.29712 179.546 4.18966C179.546 5.50432 180.297 6.63118 181.38 7.20905V20.7891C172.9 27.7814 167.945 38.7899 167.945 52.3267V100.189C167.945 102.833 170.083 104.971 172.727 104.971C175.371 104.971 177.509 102.833 177.509 100.189V86.7536H235.065V100.189C235.065 102.833 237.203 104.971 239.847 104.971C242.491 104.971 244.629 102.833 244.629 100.189V52.3122C244.643 28.4604 229.228 12.4388 206.287 12.4388ZM235.065 77.1608H177.509V52.3122C177.509 33.9069 188.806 22.0027 206.287 22.0027C223.768 22.0027 235.065 33.9069 235.065 52.3122V77.1608Z" fill="url(#paint2_linear)"/>
<path d="M127.465 95.3928H115.936V17.2208C115.936 14.577 113.798 12.4388 111.154 12.4388C108.51 12.4388 106.372 14.577 106.372 17.2208V100.175C106.372 102.818 108.51 104.957 111.154 104.957H127.465C130.108 104.957 132.246 102.818 132.246 100.175C132.246 97.5309 130.108 95.3928 127.465 95.3928Z" fill="url(#paint3_linear)"/>
<path d="M148.47 12.4388C145.827 12.4388 143.688 14.577 143.688 17.2208V100.175C143.688 102.818 145.827 104.957 148.47 104.957C151.114 104.957 153.252 102.818 153.252 100.175V17.2208C153.267 14.577 151.114 12.4388 148.47 12.4388Z" fill="url(#paint4_linear)"/>
<path d="M182.97 7.80131C185.124 7.80131 186.87 6.05493 186.87 3.90066C186.87 1.74638 185.124 0 182.97 0C180.815 0 179.069 1.74638 179.069 3.90066C179.069 6.05493 180.815 7.80131 182.97 7.80131Z" fill="#EFCC1A"/>
</g>
<defs>
<linearGradient id="paint0_linear" x1="35.1705" y1="50.4057" x2="164.229" y2="146.718" gradientUnits="userSpaceOnUse">
<stop offset="0.0687" stop-color="#16A3A6"/>
<stop offset="0.9444" stop-color="#65458B"/>
</linearGradient>
<linearGradient id="paint1_linear" x1="33.548" y1="52.5796" x2="162.607" y2="148.892" gradientUnits="userSpaceOnUse">
<stop offset="0.0687" stop-color="#16A3A6"/>
<stop offset="0.9444" stop-color="#65458B"/>
</linearGradient>
<linearGradient id="paint2_linear" x1="88.59" y1="-21.1766" x2="217.649" y2="75.1358" gradientUnits="userSpaceOnUse">
<stop offset="0.0687" stop-color="#16A3A6"/>
<stop offset="0.9444" stop-color="#65458B"/>
</linearGradient>
<linearGradient id="paint3_linear" x1="58.3742" y1="19.3124" x2="187.433" y2="115.625" gradientUnits="userSpaceOnUse">
<stop offset="0.0687" stop-color="#16A3A6"/>
<stop offset="0.9444" stop-color="#65458B"/>
</linearGradient>
<linearGradient id="paint4_linear" x1="71.7268" y1="1.41992" x2="200.786" y2="97.7325" gradientUnits="userSpaceOnUse">
<stop offset="0.0687" stop-color="#16A3A6"/>
<stop offset="0.9444" stop-color="#65458B"/>
</linearGradient>
<clipPath id="clip0">
<rect width="488" height="105" fill="white"/>
</clipPath>
</defs>
</svg>
