<svg width="100" height="50" viewBox="0 0 224 110" fill="none" xmlns="http://www.w3.org/2000/svg">
<g clip-path="url(#clip0)">
<path d="M81.9626 103.659C81.0286 103.664 80.1056 103.456 79.2638 103.051C78.4821 102.671 77.8126 102.095 77.3207 101.378C76.849 100.686 76.5995 99.8673 76.6055 99.0302C76.5588 98.0559 76.8655 97.0975 77.4691 96.3314C78.2783 95.5758 79.3102 95.1024 80.4108 94.982C82.3107 94.673 84.2347 94.5375 86.1592 94.5771H87.1308V93.2277C87.233 92.0237 86.9134 90.8216 86.2267 89.8273C85.8504 89.4444 85.3936 89.1501 84.8895 88.9657C84.3853 88.7813 83.8465 88.7115 83.312 88.7612C81.5305 88.767 79.7848 89.2618 78.2652 90.1916C78.153 90.2653 78.0217 90.3046 77.8874 90.3046C77.7531 90.3046 77.6218 90.2653 77.5096 90.1916C77.4172 90.1204 77.3432 90.0282 77.2939 89.9225C77.2446 89.8168 77.2214 89.7009 77.2262 89.5844C77.2238 89.4644 77.2555 89.3461 77.3176 89.2434C77.3797 89.1407 77.4696 89.0577 77.577 89.0041C79.2548 87.9753 81.182 87.4247 83.1501 87.4118C83.8691 87.3447 84.5941 87.4302 85.2778 87.6628C85.9615 87.8953 86.5883 88.2696 87.1173 88.7612C88.0939 89.985 88.5755 91.5309 88.4667 93.0928V102.781C88.4667 103.254 88.2508 103.497 87.819 103.497C87.7234 103.508 87.6264 103.498 87.5357 103.465C87.445 103.433 87.363 103.38 87.2963 103.311C87.2295 103.242 87.1798 103.158 87.1511 103.066C87.1224 102.974 87.1154 102.877 87.1308 102.781V100.488C86.7099 101.454 86.0036 102.268 85.1067 102.822C84.1629 103.402 83.0699 103.693 81.9626 103.659ZM82.057 102.431C82.9782 102.452 83.8848 102.198 84.6614 101.702C85.4104 101.208 86.0193 100.53 86.4291 99.7318C86.8707 98.8535 87.093 97.8811 87.0768 96.8981V95.6971H86.1727C84.5087 95.6713 82.8449 95.7615 81.1934 95.967C80.2961 96.0384 79.4408 96.3768 78.7375 96.9386C78.4954 97.2038 78.3086 97.5146 78.1881 97.8529C78.0676 98.1912 78.0158 98.5502 78.0358 98.9087C78.0225 99.3856 78.1134 99.8597 78.3022 100.298C78.491 100.736 78.7731 101.128 79.1288 101.446C79.9421 102.138 80.9907 102.491 82.057 102.431Z" fill="#fff"/>
<path d="M103.242 103.66C101.888 103.701 100.551 103.344 99.3965 102.634C98.3188 101.926 97.4665 100.924 96.9406 99.7463C96.3379 98.393 96.0429 96.9228 96.077 95.4417C95.9544 93.326 96.6392 91.2426 97.9932 89.6123C98.6566 88.8908 99.4709 88.3244 100.378 87.9536C101.286 87.5827 102.263 87.4165 103.242 87.4668C104.098 87.4748 104.946 87.6253 105.752 87.9121C106.615 88.2074 107.397 88.7021 108.033 89.3559C108.123 89.4223 108.188 89.5162 108.22 89.6233C108.252 89.7305 108.248 89.8451 108.208 89.9497C108.175 90.0552 108.119 90.1522 108.045 90.2338C107.97 90.3154 107.878 90.3796 107.776 90.422C107.648 90.4589 107.511 90.4568 107.384 90.416C107.257 90.3751 107.144 90.2974 107.061 90.1926C106.508 89.6787 105.85 89.2918 105.131 89.0591C104.507 88.8596 103.857 88.755 103.202 88.7487C102.409 88.6994 101.615 88.8318 100.88 89.1358C100.146 89.4398 99.491 89.9074 98.9647 90.5029C97.8813 91.9278 97.3494 93.6961 97.4669 95.4822C97.3612 97.3003 97.8907 99.0987 98.9647 100.569C99.4769 101.188 100.127 101.677 100.863 101.998C101.599 102.319 102.4 102.463 103.202 102.418C103.857 102.412 104.507 102.307 105.131 102.108C105.848 101.865 106.505 101.474 107.061 100.961C107.144 100.856 107.257 100.778 107.384 100.737C107.511 100.697 107.648 100.694 107.776 100.731C107.878 100.771 107.97 100.832 108.044 100.912C108.119 100.991 108.175 101.086 108.208 101.19C108.244 101.297 108.247 101.413 108.216 101.521C108.184 101.63 108.12 101.726 108.033 101.797C107.393 102.447 106.613 102.941 105.752 103.241C104.945 103.519 104.096 103.661 103.242 103.66Z" fill="#fff"/>
<path d="M119.651 103.662C118.717 103.667 117.794 103.459 116.953 103.055C116.176 102.667 115.508 102.092 115.009 101.382C114.526 100.615 114.282 99.7214 114.308 98.8153C114.335 97.9092 114.63 97.0315 115.158 96.2943C115.973 95.5393 117.009 95.0663 118.113 94.9449C120.013 94.6359 121.937 94.5004 123.861 94.5401H124.833V93.1907C124.932 91.9849 124.608 90.7823 123.915 89.7902C123.54 89.4057 123.084 89.1104 122.579 88.9259C122.075 88.7414 121.535 88.6724 121.001 88.7242C119.248 88.7612 117.537 89.2692 116.048 90.195C115.939 90.2693 115.81 90.309 115.677 90.309C115.545 90.309 115.416 90.2693 115.306 90.195C115.212 90.1245 115.136 90.0327 115.085 89.9271C115.033 89.8216 115.007 89.7053 115.009 89.5878C115.008 89.4663 115.042 89.3471 115.106 89.2442C115.171 89.1414 115.264 89.0592 115.374 89.0075C116.211 88.4802 117.12 88.0758 118.073 87.8066C118.991 87.5522 119.94 87.4206 120.893 87.4152C121.612 87.3507 122.336 87.4374 123.019 87.6698C123.703 87.9022 124.33 88.2752 124.86 88.7646C125.808 90 126.26 91.5447 126.128 93.0962V102.785C126.128 103.257 125.913 103.5 125.481 103.5C125.049 103.5 124.806 103.257 124.806 102.785V100.491C124.377 101.448 123.678 102.259 122.795 102.825C121.85 103.403 120.758 103.693 119.651 103.662ZM119.759 102.434C120.68 102.453 121.586 102.2 122.364 101.705C123.118 101.214 123.731 100.535 124.145 99.7353C124.586 98.8569 124.809 97.8845 124.793 96.9015V95.7005H123.875C122.215 95.6746 120.556 95.7648 118.909 95.9704C118.012 96.0418 117.157 96.3802 116.453 96.942C116.211 97.2072 116.024 97.518 115.904 97.8563C115.783 98.1946 115.732 98.5536 115.752 98.9121C115.739 99.3876 115.829 99.8602 116.016 100.298C116.202 100.736 116.48 101.128 116.831 101.449C117.646 102.138 118.693 102.49 119.759 102.434Z" fill="#fff"/>
<path d="M140.743 103.661C139.445 103.694 138.166 103.352 137.059 102.676C135.994 101.989 135.151 101.01 134.63 99.8556C134.035 98.5048 133.745 97.0399 133.78 95.5645C133.662 93.4314 134.329 91.329 135.655 89.6542C136.283 88.9296 137.067 88.3566 137.948 87.978C138.829 87.5995 139.785 87.4251 140.743 87.4681C141.946 87.4394 143.133 87.7479 144.17 88.3587C145.128 88.9364 145.886 89.7934 146.343 90.8146V81.099C146.343 80.6132 146.572 80.3838 147.017 80.3838C147.463 80.3838 147.705 80.6132 147.705 81.099V102.892C147.721 102.987 147.714 103.084 147.685 103.176C147.656 103.268 147.607 103.352 147.54 103.421C147.473 103.491 147.391 103.543 147.301 103.576C147.21 103.608 147.113 103.619 147.017 103.607C146.572 103.607 146.343 103.364 146.343 102.892V100.328C145.888 101.347 145.129 102.2 144.17 102.77C143.133 103.381 141.946 103.69 140.743 103.661ZM140.743 102.406C141.509 102.429 142.27 102.28 142.971 101.969C143.672 101.659 144.294 101.195 144.791 100.611C145.768 99.112 146.288 97.3609 146.288 95.5713C146.288 93.7816 145.768 92.0305 144.791 90.5313C144.27 89.9662 143.638 89.5151 142.934 89.2066C142.231 88.8981 141.47 88.7388 140.702 88.7388C139.934 88.7388 139.174 88.8981 138.47 89.2066C137.766 89.5151 137.134 89.9662 136.613 90.5313C135.62 92.0242 135.089 93.7777 135.089 95.5713C135.089 97.3648 135.62 99.1183 136.613 100.611C137.121 101.21 137.761 101.684 138.481 101.995C139.202 102.306 139.985 102.447 140.77 102.406H140.743Z" fill="#fff"/>
<path d="M162.953 103.659C161.934 103.712 160.915 103.548 159.964 103.178C159.013 102.808 158.15 102.241 157.434 101.513C156.02 99.8902 155.294 97.7796 155.41 95.6298C155.38 94.1477 155.694 92.6787 156.328 91.3387C156.901 90.1518 157.804 89.1552 158.929 88.4684C160.054 87.7815 161.353 87.4335 162.67 87.4659C163.557 87.4198 164.443 87.5756 165.261 87.9215C166.079 88.2674 166.808 88.7945 167.393 89.463C168.597 91.0417 169.196 92.9999 169.08 94.9821C169.08 95.5488 168.837 95.8322 168.365 95.8322H156.8C156.727 97.602 157.319 99.3352 158.46 100.69C159.034 101.274 159.725 101.728 160.488 102.024C161.252 102.319 162.069 102.449 162.886 102.404C163.707 102.405 164.525 102.292 165.315 102.066C166.13 101.804 166.89 101.392 167.555 100.852C167.653 100.756 167.774 100.687 167.906 100.652C168.039 100.616 168.178 100.615 168.311 100.65C168.416 100.69 168.511 100.755 168.586 100.839C168.661 100.924 168.715 101.026 168.742 101.135C168.755 101.275 168.729 101.416 168.667 101.542C168.605 101.668 168.51 101.775 168.392 101.851C167.669 102.456 166.834 102.915 165.936 103.2C164.973 103.512 163.966 103.667 162.953 103.659ZM162.63 88.7074C161.873 88.6709 161.118 88.802 160.418 89.0913C159.719 89.3806 159.091 89.8208 158.581 90.3806C157.569 91.5755 156.972 93.0674 156.881 94.6312H167.852C167.888 93.0745 167.414 91.5486 166.502 90.2862C166.026 89.7375 165.427 89.3087 164.755 89.0344C164.082 88.7601 163.354 88.6481 162.63 88.7074Z" fill="#fff"/>
<path d="M177.365 103.607C176.919 103.607 176.69 103.364 176.69 102.892V88.2506C176.69 87.7783 176.919 87.5354 177.365 87.5354C177.81 87.5354 178.012 87.7783 178.012 88.2506V90.585C178.435 89.6314 179.129 88.8239 180.009 88.2641C180.913 87.7208 181.951 87.4447 183.005 87.4679C184.064 87.3537 185.129 87.6251 186.004 88.2323C186.878 88.8396 187.505 89.742 187.768 90.774C188.199 89.7799 188.918 88.9383 189.833 88.3585C190.817 87.75 191.956 87.4406 193.112 87.4679C196.54 87.4679 198.253 89.465 198.253 93.4323V102.878C198.253 103.35 198.024 103.593 197.579 103.593C197.483 103.605 197.386 103.594 197.295 103.562C197.205 103.53 197.123 103.477 197.056 103.408C196.989 103.338 196.939 103.254 196.911 103.162C196.882 103.07 196.875 102.973 196.89 102.878V93.5672C196.991 92.2802 196.679 90.9945 196 89.8969C195.633 89.4847 195.174 89.1648 194.661 88.9632C194.148 88.7616 193.594 88.6839 193.045 88.7364C192.373 88.7064 191.704 88.8292 191.086 89.0957C190.469 89.3622 189.921 89.7653 189.482 90.2747C188.539 91.4376 188.058 92.9081 188.133 94.4038V102.892C188.133 103.364 187.917 103.607 187.458 103.607C186.999 103.607 186.783 103.364 186.783 102.892V93.5672C186.884 92.2802 186.572 90.9945 185.893 89.8969C185.523 89.4845 185.062 89.1646 184.547 88.9631C184.031 88.7615 183.475 88.6839 182.924 88.7364C182.253 88.7093 181.584 88.8335 180.968 89.0998C180.351 89.3661 179.802 89.7676 179.362 90.2747C178.444 91.4671 178.002 92.9578 178.12 94.4578V102.946C178.129 103.043 178.115 103.141 178.078 103.232C178.042 103.323 177.985 103.404 177.911 103.469C177.837 103.533 177.749 103.579 177.654 103.603C177.559 103.627 177.46 103.628 177.365 103.607Z" fill="#fff"/>
<path d="M209.912 109.434C209.792 109.447 209.671 109.42 209.568 109.356C209.465 109.293 209.387 109.196 209.345 109.083C209.26 108.838 209.26 108.572 209.345 108.327L211.45 103.496L205.095 88.653C205.039 88.5278 205.01 88.3922 205.01 88.255C205.01 88.1177 205.039 87.9821 205.095 87.8569C205.158 87.7433 205.253 87.6507 205.368 87.5907C205.483 87.5307 205.613 87.5059 205.743 87.5195C205.821 87.5146 205.899 87.5251 205.973 87.5506C206.047 87.5761 206.116 87.616 206.174 87.668C206.293 87.7843 206.389 87.9215 206.458 88.0728L212.22 101.999L218.022 88.0728C218.081 87.9157 218.173 87.773 218.292 87.6545C218.426 87.5505 218.595 87.5022 218.764 87.5195C218.883 87.5052 219.003 87.5305 219.105 87.5916C219.208 87.6526 219.287 87.7459 219.331 87.8569C219.416 88.1062 219.416 88.3768 219.331 88.626L210.722 108.867C210.66 109.041 210.559 109.198 210.425 109.326C210.271 109.419 210.09 109.457 209.912 109.434Z" fill="#fff"/>
<path d="M188.106 74.9051C183.194 74.9051 180.091 72.3412 180.091 67.9557C180.091 63.5701 183.302 61.0198 188.106 61.0198H204.299C202.261 50.0222 192.154 23.3176 186.352 18.5138C179.74 25.0313 169.592 52.4781 166.705 66.5658C165.423 72.5436 163.601 75.6473 158.905 75.6473C153.777 75.6473 151.861 72.4492 151.861 68.7113C151.861 62.72 155.491 50.8723 160.403 38.5928C166.489 23.2097 176.097 0.890625 186.244 0.890625C196.391 0.890625 206.148 23.2097 212.139 38.5928C216.835 50.8723 220.465 62.4097 220.465 68.4954C220.465 72.3412 218.751 74.9051 213.515 74.9051H188.106Z" fill="#fff"/>
<path d="M87.8322 48.2261C87.8322 58.0497 94.3363 61.99 103.31 61.99H118.625C119.568 61.9863 120.501 62.1703 121.372 62.5313C122.242 62.8923 123.032 63.423 123.696 64.0925C124.359 64.762 124.882 65.5569 125.235 66.4307C125.588 67.3046 125.763 68.24 125.75 69.1823C125.772 70.083 125.604 70.9783 125.258 71.8104C124.913 72.6425 124.396 73.3929 123.743 74.0133C123.09 74.6337 122.313 75.1103 121.464 75.4124C120.616 75.7145 119.713 75.8354 118.814 75.7673H103.31C86.9686 75.7673 74.4731 67.3336 74.4731 49.7104V6.74562C74.4731 5.86337 74.6481 4.98988 74.9882 4.1758C75.3282 3.36172 75.8265 2.62324 76.4541 2.00317C77.0817 1.3831 77.8262 0.893784 78.6443 0.563586C79.4624 0.233388 80.338 0.0688777 81.2201 0.0795933C82.9721 0.114518 84.6418 0.829711 85.8759 2.07383C87.1099 3.31796 87.8115 4.99339 87.8322 6.74562V48.2261Z" fill="#fff"/>
<path d="M19.0128 48.226C19.0128 58.0496 25.5169 61.9899 34.4904 61.9899H62.1396C63.0587 61.9637 63.9734 62.1256 64.8277 62.4658C65.6819 62.806 66.4576 63.3171 67.1071 63.9679C67.7566 64.6187 68.2663 65.3954 68.6048 66.2503C68.9433 67.1052 69.1035 68.0202 69.0755 68.9393C69.13 69.8594 68.9871 70.7807 68.6564 71.6411C68.3256 72.5015 67.8146 73.2812 67.1577 73.9279C66.5008 74.5746 65.7132 75.0732 64.8477 75.3905C63.9822 75.7077 63.0588 75.8362 62.1396 75.7672H34.4904C18.1492 75.7672 5.65381 67.3335 5.65381 49.7103V26.9865C5.65381 9.44431 18.1492 0.956595 34.4904 0.956595H62.1396C63.0588 0.887624 63.9822 1.01607 64.8477 1.33331C65.7132 1.65054 66.5008 2.14924 67.1577 2.79592C67.8146 3.4426 68.3256 4.22231 68.6564 5.08273C68.9871 5.94314 69.13 6.86436 69.0755 7.78455C69.1035 8.70359 68.9433 9.61864 68.6048 10.4735C68.2663 11.3284 67.7566 12.1051 67.1071 12.7559C66.4576 13.4067 65.6819 13.9178 64.8277 14.258C63.9734 14.5982 63.0587 14.7601 62.1396 14.7339H34.4904C25.5169 14.7339 19.0128 18.6877 19.0128 28.5113V48.226ZM9.44562 38.4968C9.53985 36.6986 10.2966 34.999 11.5699 33.7257C12.8432 32.4524 14.5428 31.6957 16.341 31.6014H41.9796C42.8922 31.5338 43.8089 31.6603 44.6691 31.9727C45.5293 32.285 46.3135 32.7761 46.9701 33.4136C47.6267 34.0511 48.1408 34.8205 48.4784 35.6711C48.8161 36.5217 48.9696 37.4342 48.929 38.3484C48.9183 40.2071 48.1706 41.9855 46.85 43.2935C45.5294 44.6014 43.7438 45.332 41.8851 45.3248H16.341C14.5528 45.235 12.8605 44.4887 11.5882 43.2289C10.3159 41.969 9.55299 40.2841 9.44562 38.4968Z" fill="#fff"/>
<path d="M131.715 25.9088C131.793 24.1346 132.553 22.4591 133.837 21.2313C135.12 20.0036 136.827 19.3184 138.603 19.3184C140.379 19.3184 142.087 20.0036 143.37 21.2313C144.653 22.4591 145.414 24.1346 145.492 25.9088V68.8197C145.533 69.75 145.386 70.6789 145.058 71.5506C144.73 72.4223 144.23 73.2185 143.586 73.8914C142.942 74.5642 142.169 75.0997 141.312 75.4656C140.456 75.8314 139.535 76.0201 138.603 76.0201C137.672 76.0201 136.751 75.8314 135.894 75.4656C135.038 75.0997 134.265 74.5642 133.621 73.8914C132.977 73.2185 132.476 72.4223 132.149 71.5506C131.821 70.6789 131.674 69.75 131.715 68.8197V25.9088Z" fill="#fff"/>
<path d="M138.259 15.0846C142.276 15.0846 145.532 11.8282 145.532 7.81134C145.532 3.79443 142.276 0.538086 138.259 0.538086C134.242 0.538086 130.986 3.79443 130.986 7.81134C130.986 11.8282 134.242 15.0846 138.259 15.0846Z" fill="#fff"/>
</g>
<defs>
<clipPath id="clip0">
<rect width="224" height="109.301" fill="white"/>
</clipPath>
</defs>
</svg>
