<svg width="321" height="123" viewBox="0 0 321 123" fill="none" xmlns="http://www.w3.org/2000/svg">
<g clip-path="url(#clip0_81_6864)">
<path d="M17.9456 116.883H59.6912C61.4826 116.883 63.0305 115.662 63.4626 113.933C64.1227 111.319 65.0027 109.261 69.1984 109.261C86.8537 110.349 86.5237 110.411 87.9851 94.2215C89.313 93.0477 90.1459 91.6392 88.8337 90.1055C88.0323 88.564 92.0787 88.1884 90.248 85.5748C86.1701 78.7436 100.423 81.0519 97.4531 74.0642C94.0823 67.319 87.1994 61.8728 90.7902 53.8208C90.9473 38.6246 79.8057 17.9822 64.5862 12.7942C42.4445 4.35884 12.7048 13.0681 7.40117 39.994C5.30329 54.5955 8.98048 63.8369 12.642 72.6635C14.8577 78.008 17.0734 83.2038 18.0006 89.3543C19.022 96.0995 17.8513 101.256 13.8834 110.865C12.697 113.737 14.8263 116.891 17.9377 116.891L17.9456 116.883Z" fill="#D155EF"/>
<path d="M68.8288 19.7039C63.9416 16.566 58.4337 14.3516 52.415 13.7412C65.6938 18.8353 76.8354 28.2332 84.0955 40.2211C83.4119 36.3477 82.029 33.1629 80.6697 30.8389C77.2047 26.6603 73.221 22.9278 68.8367 19.7039H68.8288Z" fill="#F6F6F6"/>
<path d="M82.2567 51.6141C83.0581 51.0194 83.671 50.2134 84.056 49.0396C76.183 31.2299 59.7614 17.9977 39.9847 14.5312C37.8396 15.0008 35.7653 15.6424 33.7617 16.4327C55.762 18.0056 74.3208 32.1141 82.2567 51.6141Z" fill="#F6F6F6"/>
<path d="M29.6526 23.0218C50.3171 23.0218 68.0902 35.5732 75.6882 53.4299C76.6625 53.3047 77.5661 53.1795 78.3911 53.0308C70.5417 33.8908 51.6529 20.3691 29.6526 20.3691C28.4111 20.3691 27.1775 20.4317 25.9597 20.51C24.5375 21.4646 23.186 22.4975 21.8975 23.6165C24.4275 23.2253 27.0125 23.014 29.6526 23.014V23.0218Z" fill="#F6F6F6"/>
<path d="M29.6527 27.1143C25.1898 27.1143 20.884 27.7637 16.7983 28.9531C15.879 30.1191 15.0225 31.3398 14.2368 32.6074C19.0297 30.7764 24.2234 29.7669 29.6449 29.7669C48.0701 29.7669 63.8318 41.3167 70.0311 57.5301C70.7226 56.4503 71.2412 55.347 71.5397 54.2436C64.3896 38.2727 48.3058 27.1143 29.6449 27.1143H29.6527Z" fill="#F6F6F6"/>
<path d="M29.6525 33.8672C23.0053 33.8672 16.7352 35.5339 11.2508 38.4605C10.7401 39.7203 10.2922 41.0115 9.90723 42.3339C15.6037 38.6561 22.3767 36.5121 29.6525 36.5121C46.3649 36.5121 60.4686 47.7801 64.743 63.078C65.513 62.4911 66.2594 61.8573 66.9666 61.1844C62.0008 45.37 47.1506 33.8594 29.6525 33.8594V33.8672Z" fill="#F6F6F6"/>
<path d="M29.6525 40.6123C21.646 40.6123 14.3152 43.531 8.6658 48.3591C8.64223 48.5704 8.60294 48.7738 8.57937 48.9773C8.56366 49.0868 8.5558 49.1807 8.5558 49.2903C8.54008 49.5798 8.53223 49.885 8.53223 50.1745C8.53223 50.8083 8.58723 51.3874 8.68151 51.9429C14.0559 46.5828 21.4731 43.265 29.6604 43.265C43.8191 43.265 55.6757 53.1949 58.6143 66.4271C59.4236 66.1688 60.2565 65.8167 61.1051 65.3863C57.7343 51.1996 44.927 40.6123 29.6682 40.6123H29.6525Z" fill="#F6F6F6"/>
<path d="M29.6527 47.3574C22.0076 47.3574 15.1639 50.7378 10.4731 56.051C11.0153 56.7318 11.6517 57.3422 12.3667 57.9056C16.5625 53.0775 22.7462 50.0101 29.6448 50.0101C39.8357 50.0101 48.4944 56.6849 51.4408 65.8793C52.3208 66.3488 53.3344 66.7087 54.4502 66.8574C51.7551 55.6911 41.6743 47.3574 29.6448 47.3574H29.6527Z" fill="#F6F6F6"/>
<path d="M29.6528 54.1104C24.1921 54.1104 19.2813 56.4657 15.8477 60.1904C16.6098 60.6286 17.4034 61.0746 18.2127 61.5363C21.1356 58.5941 25.1821 56.763 29.6528 56.763C38.5315 56.763 45.7523 63.9542 45.7523 72.7965C45.7523 74.7293 45.3909 76.5682 44.7623 78.2897L47.5909 78.2662C48.1252 76.5369 48.4159 74.698 48.4159 72.7965C48.4159 62.491 40.0008 54.1104 29.6528 54.1104Z" fill="#F6F6F6"/>
<path d="M29.6529 60.8555C25.5593 60.8555 21.945 62.9134 19.7764 66.0435C20.2792 66.8338 20.8842 67.5693 21.5521 68.211C23.155 65.4018 26.1879 63.5082 29.6529 63.5082C34.7994 63.5082 38.9795 67.6711 38.9795 72.7965C38.9795 74.8779 38.2802 76.7951 37.1173 78.3444L40.2681 78.3209C41.1402 76.6699 41.6352 74.7918 41.6352 72.7965C41.6352 66.2156 36.2609 60.8633 29.6529 60.8633V60.8555Z" fill="#F6F6F6"/>
<path d="M29.6524 67.6006C27.6173 67.6006 25.873 68.7822 25.0166 70.4802C25.763 70.7619 26.5173 70.9184 27.2402 70.9184C27.4523 70.9184 27.6959 70.9184 27.9474 70.9184C28.4031 70.5037 29.0002 70.2455 29.6602 70.2455C30.3202 70.2455 30.8545 70.4802 31.3024 70.8558C32.3081 70.7854 33.3296 70.6524 34.2567 70.3863C33.3846 68.7352 31.6638 67.5928 29.6602 67.5928L29.6524 67.6006Z" fill="#F6F6F6"/>
</g>
<g clip-path="url(#clip1_81_6864)">
<path d="M124.779 116.883H166.135C167.909 116.883 169.443 115.662 169.871 113.933C170.525 111.319 171.397 109.261 175.553 109.261C193.043 110.349 192.716 110.411 194.164 94.2215C195.48 93.0477 196.305 91.6392 195.005 90.1055C194.211 88.564 198.22 88.1884 196.406 85.5748C192.366 78.7436 206.486 81.0519 203.544 74.0642C200.205 67.319 193.386 61.8728 196.943 53.8208C197.099 38.6246 186.061 17.9822 170.984 12.7942C149.049 4.35884 119.588 13.0681 114.333 39.994C112.255 54.5955 115.898 63.8369 119.525 72.6635C121.72 78.008 123.915 83.2038 124.834 89.3543C125.846 96.0995 124.686 101.256 120.755 110.865C119.58 113.737 121.689 116.891 124.772 116.891L124.779 116.883Z" fill="#ED9E20"/>
<path d="M175.187 19.7039C170.346 16.566 164.889 14.3516 158.927 13.7412C172.081 18.8353 183.119 28.2332 190.311 40.2211C189.634 36.3477 188.264 33.1629 186.917 30.8389C183.485 26.6603 179.538 22.9278 175.195 19.7039H175.187Z" fill="#F6F6F6"/>
<path d="M188.49 51.6141C189.284 51.0194 189.891 50.2134 190.272 49.0396C182.473 31.2299 166.205 17.9977 146.613 14.5312C144.488 15.0008 142.433 15.6424 140.448 16.4327C162.243 18.0056 180.628 32.1141 188.49 51.6141Z" fill="#F6F6F6"/>
<path d="M136.377 23.0218C156.848 23.0218 174.455 35.5732 181.982 53.4299C182.948 53.3047 183.843 53.1795 184.66 53.0308C176.884 33.8908 158.172 20.3691 136.377 20.3691C135.147 20.3691 133.925 20.4317 132.719 20.51C131.31 21.4646 129.971 22.4975 128.694 23.6165C131.201 23.2253 133.762 23.014 136.377 23.014V23.0218Z" fill="#F6F6F6"/>
<path d="M136.377 27.1143C131.956 27.1143 127.691 27.7637 123.643 28.9531C122.732 30.1191 121.884 31.3398 121.105 32.6074C125.854 30.7764 130.999 29.7669 136.37 29.7669C154.623 29.7669 170.237 41.3167 176.378 57.5301C177.063 56.4503 177.577 55.347 177.873 54.2436C170.79 38.2727 154.856 27.1143 136.37 27.1143H136.377Z" fill="#F6F6F6"/>
<path d="M136.377 33.8672C129.792 33.8672 123.581 35.5339 118.147 38.4605C117.641 39.7203 117.198 41.0115 116.816 42.3339C122.46 38.6561 129.169 36.5121 136.377 36.5121C152.933 36.5121 166.905 47.7801 171.14 63.078C171.902 62.4911 172.642 61.8573 173.342 61.1844C168.423 45.37 153.712 33.8594 136.377 33.8594V33.8672Z" fill="#F6F6F6"/>
<path d="M136.377 40.6123C128.445 40.6123 121.183 43.531 115.586 48.3591C115.563 48.5704 115.524 48.7738 115.501 48.9773C115.485 49.0868 115.477 49.1807 115.477 49.2903C115.462 49.5798 115.454 49.885 115.454 50.1745C115.454 50.8083 115.509 51.3874 115.602 51.9429C120.926 46.5828 128.274 43.265 136.385 43.265C150.411 43.265 162.157 53.1949 165.068 66.4271C165.87 66.1688 166.695 65.8167 167.536 65.3863C164.196 51.1996 151.509 40.6123 136.393 40.6123H136.377Z" fill="#F6F6F6"/>
<path d="M136.377 47.3574C128.804 47.3574 122.024 50.7378 117.377 56.051C117.914 56.7318 118.545 57.3422 119.253 57.9056C123.409 53.0775 129.535 50.0101 136.369 50.0101C146.465 50.0101 155.043 56.6849 157.962 65.8793C158.834 66.3488 159.838 66.7087 160.943 66.8574C158.273 55.6911 148.286 47.3574 136.369 47.3574H136.377Z" fill="#F6F6F6"/>
<path d="M136.377 54.1104C130.968 54.1104 126.103 56.4657 122.701 60.1904C123.456 60.6286 124.242 61.0746 125.044 61.5363C127.94 58.5941 131.948 56.763 136.377 56.763C145.173 56.763 152.326 63.9542 152.326 72.7965C152.326 74.7293 151.968 76.5682 151.346 78.2897L154.148 78.2662C154.677 76.5369 154.965 74.698 154.965 72.7965C154.965 62.491 146.629 54.1104 136.377 54.1104Z" fill="#F6F6F6"/>
<path d="M136.377 60.8555C132.322 60.8555 128.741 62.9134 126.593 66.0435C127.091 66.8338 127.69 67.5693 128.352 68.211C129.94 65.4018 132.944 63.5082 136.377 63.5082C141.475 63.5082 145.616 67.6711 145.616 72.7965C145.616 74.8779 144.924 76.7951 143.772 78.3444L146.893 78.3209C147.757 76.6699 148.247 74.7918 148.247 72.7965C148.247 66.2156 142.923 60.8633 136.377 60.8633V60.8555Z" fill="#F6F6F6"/>
<path d="M136.378 67.6006C134.362 67.6006 132.634 68.7822 131.785 70.4802C132.525 70.7619 133.272 70.9184 133.988 70.9184C134.198 70.9184 134.439 70.9184 134.689 70.9184C135.14 70.5037 135.732 70.2455 136.385 70.2455C137.039 70.2455 137.569 70.4802 138.012 70.8558C139.009 70.7854 140.02 70.6524 140.939 70.3863C140.075 68.7352 138.37 67.5928 136.385 67.5928L136.378 67.6006Z" fill="#F6F6F6"/>
</g>
<g clip-path="url(#clip2_81_6864)">
<path d="M230.946 116.883H272.691C274.483 116.883 276.03 115.662 276.463 113.933C277.123 111.319 278.003 109.261 282.198 109.261C299.854 110.349 299.524 110.411 300.985 94.2215C302.313 93.0477 303.146 91.6392 301.834 90.1055C301.032 88.564 305.079 88.1884 303.248 85.5748C299.17 78.7436 313.423 81.0519 310.453 74.0642C307.082 67.319 300.199 61.8728 303.79 53.8208C303.947 38.6246 292.806 17.9822 277.586 12.7942C255.445 4.35884 225.705 13.0681 220.401 39.994C218.303 54.5955 221.98 63.8369 225.642 72.6635C227.858 78.008 230.073 83.2038 231.001 89.3543C232.022 96.0995 230.851 101.256 226.883 110.865C225.697 113.737 227.826 116.891 230.938 116.891L230.946 116.883Z" fill="#29BAED"/>
<path d="M281.829 19.7039C276.942 16.566 271.434 14.3516 265.415 13.7412C278.694 18.8353 289.835 28.2332 297.095 40.2211C296.412 36.3477 295.029 33.1629 293.67 30.8389C290.205 26.6603 286.221 22.9278 281.837 19.7039H281.829Z" fill="#F6F6F6"/>
<path d="M295.257 51.6141C296.058 51.0194 296.671 50.2134 297.056 49.0396C289.183 31.2299 272.761 17.9977 252.985 14.5312C250.84 15.0008 248.765 15.6424 246.762 16.4327C268.762 18.0056 287.321 32.1141 295.257 51.6141Z" fill="#F6F6F6"/>
<path d="M242.653 23.0218C263.317 23.0218 281.09 35.5732 288.688 53.4299C289.662 53.3047 290.566 53.1795 291.391 53.0308C283.542 33.8908 264.653 20.3691 242.653 20.3691C241.411 20.3691 240.178 20.4317 238.96 20.51C237.537 21.4646 236.186 22.4975 234.897 23.6165C237.427 23.2253 240.013 23.014 242.653 23.014V23.0218Z" fill="#F6F6F6"/>
<path d="M242.653 27.1143C238.19 27.1143 233.884 27.7637 229.798 28.9531C228.879 30.1191 228.023 31.3398 227.237 32.6074C232.03 30.7764 237.223 29.7669 242.645 29.7669C261.07 29.7669 276.832 41.3167 283.031 57.5301C283.723 56.4503 284.241 55.347 284.54 54.2436C277.39 38.2727 261.306 27.1143 242.645 27.1143H242.653Z" fill="#F6F6F6"/>
<path d="M242.652 33.8672C236.005 33.8672 229.735 35.5339 224.251 38.4605C223.74 39.7203 223.292 41.0115 222.907 42.3339C228.604 38.6561 235.377 36.5121 242.652 36.5121C259.365 36.5121 273.469 47.7801 277.743 63.078C278.513 62.4911 279.259 61.8573 279.967 61.1844C275.001 45.37 260.151 33.8594 242.652 33.8594V33.8672Z" fill="#F6F6F6"/>
<path d="M242.653 40.6123C234.646 40.6123 227.315 43.531 221.666 48.3591C221.642 48.5704 221.603 48.7738 221.579 48.9773C221.564 49.0868 221.556 49.1807 221.556 49.2903C221.54 49.5798 221.532 49.885 221.532 50.1745C221.532 50.8083 221.587 51.3874 221.682 51.9429C227.056 46.5828 234.473 43.265 242.66 43.265C256.819 43.265 268.676 53.1949 271.614 66.4271C272.424 66.1688 273.256 65.8167 274.105 65.3863C270.734 51.1996 257.927 40.6123 242.668 40.6123H242.653Z" fill="#F6F6F6"/>
<path d="M242.653 47.3574C235.008 47.3574 228.164 50.7378 223.473 56.051C224.015 56.7318 224.652 57.3422 225.367 57.9056C229.563 53.0775 235.746 50.0101 242.645 50.0101C252.836 50.0101 261.494 56.6849 264.441 65.8793C265.321 66.3488 266.334 66.7087 267.45 66.8574C264.755 55.6911 254.674 47.3574 242.645 47.3574H242.653Z" fill="#F6F6F6"/>
<path d="M242.653 54.1104C237.192 54.1104 232.281 56.4657 228.848 60.1904C229.61 60.6286 230.403 61.0746 231.213 61.5363C234.136 58.5941 238.182 56.763 242.653 56.763C251.532 56.763 258.752 63.9542 258.752 72.7965C258.752 74.7293 258.391 76.5682 257.762 78.2897L260.591 78.2662C261.125 76.5369 261.416 74.698 261.416 72.7965C261.416 62.491 253.001 54.1104 242.653 54.1104Z" fill="#F6F6F6"/>
<path d="M242.653 60.8555C238.559 60.8555 234.945 62.9134 232.776 66.0435C233.279 66.8338 233.884 67.5693 234.552 68.211C236.155 65.4018 239.188 63.5082 242.653 63.5082C247.799 63.5082 251.979 67.6711 251.979 72.7965C251.979 74.8779 251.28 76.7951 250.117 78.3444L253.268 78.3209C254.14 76.6699 254.635 74.7918 254.635 72.7965C254.635 66.2156 249.261 60.8633 242.653 60.8633V60.8555Z" fill="#F6F6F6"/>
<path d="M242.652 67.6006C240.617 67.6006 238.873 68.7822 238.017 70.4802C238.763 70.7619 239.517 70.9184 240.24 70.9184C240.452 70.9184 240.696 70.9184 240.947 70.9184C241.403 70.5037 242 70.2455 242.66 70.2455C243.32 70.2455 243.855 70.4802 244.302 70.8558C245.308 70.7854 246.33 70.6524 247.257 70.3863C246.385 68.7352 244.664 67.5928 242.66 67.5928L242.652 67.6006Z" fill="#F6F6F6"/>
</g>
<defs>
<clipPath id="clip0_81_6864">
<rect width="107" height="122" fill="white" transform="translate(0.180176 0.955078)"/>
</clipPath>
<clipPath id="clip1_81_6864">
<rect width="106" height="122" fill="white" transform="translate(107.18 0.955078)"/>
</clipPath>
<clipPath id="clip2_81_6864">
<rect width="107" height="122" fill="white" transform="translate(213.18 0.955078)"/>
</clipPath>
</defs>
</svg>
