<svg width="215" height="123" viewBox="0 0 215 123" fill="none" xmlns="http://www.w3.org/2000/svg">
<g clip-path="url(#clip0_81_6894)">
<path d="M17.9456 116.883H59.6912C61.4826 116.883 63.0305 115.662 63.4626 113.933C64.1227 111.319 65.0027 109.261 69.1984 109.261C86.8537 110.349 86.5237 110.411 87.9851 94.2215C89.313 93.0477 90.1459 91.6392 88.8337 90.1055C88.0323 88.564 92.0787 88.1884 90.248 85.5748C86.1701 78.7436 100.423 81.0519 97.4531 74.0642C94.0823 67.319 87.1994 61.8728 90.7902 53.8208C90.9473 38.6246 79.8057 17.9822 64.5862 12.7942C42.4445 4.35884 12.7048 13.0681 7.40117 39.994C5.30329 54.5955 8.98048 63.8369 12.642 72.6635C14.8577 78.008 17.0734 83.2038 18.0006 89.3543C19.022 96.0995 17.8513 101.256 13.8834 110.865C12.697 113.737 14.8263 116.891 17.9377 116.891L17.9456 116.883Z" fill="#D155EF"/>
<path d="M68.8288 19.7039C63.9416 16.566 58.4337 14.3516 52.415 13.7412C65.6938 18.8353 76.8354 28.2332 84.0955 40.2211C83.4119 36.3477 82.029 33.1629 80.6697 30.8389C77.2047 26.6603 73.221 22.9278 68.8367 19.7039H68.8288Z" fill="#F6F6F6"/>
<path d="M82.2567 51.6141C83.0581 51.0194 83.671 50.2134 84.056 49.0396C76.183 31.2299 59.7614 17.9977 39.9847 14.5312C37.8396 15.0008 35.7653 15.6424 33.7617 16.4327C55.762 18.0056 74.3208 32.1141 82.2567 51.6141Z" fill="#F6F6F6"/>
<path d="M29.6526 23.0218C50.3171 23.0218 68.0902 35.5732 75.6882 53.4299C76.6625 53.3047 77.5661 53.1795 78.3911 53.0308C70.5417 33.8908 51.6529 20.3691 29.6526 20.3691C28.4111 20.3691 27.1775 20.4317 25.9597 20.51C24.5375 21.4646 23.186 22.4975 21.8975 23.6165C24.4275 23.2253 27.0125 23.014 29.6526 23.014V23.0218Z" fill="#F6F6F6"/>
<path d="M29.6527 27.1143C25.1898 27.1143 20.884 27.7637 16.7983 28.9531C15.879 30.1191 15.0225 31.3398 14.2368 32.6074C19.0297 30.7764 24.2234 29.7669 29.6449 29.7669C48.0701 29.7669 63.8318 41.3167 70.0311 57.5301C70.7226 56.4503 71.2412 55.347 71.5397 54.2436C64.3896 38.2727 48.3058 27.1143 29.6449 27.1143H29.6527Z" fill="#F6F6F6"/>
<path d="M29.6525 33.8672C23.0053 33.8672 16.7352 35.5339 11.2508 38.4605C10.7401 39.7203 10.2922 41.0115 9.90723 42.3339C15.6037 38.6561 22.3767 36.5121 29.6525 36.5121C46.3649 36.5121 60.4686 47.7801 64.743 63.078C65.513 62.4911 66.2594 61.8573 66.9666 61.1844C62.0008 45.37 47.1506 33.8594 29.6525 33.8594V33.8672Z" fill="#F6F6F6"/>
<path d="M29.6525 40.6123C21.646 40.6123 14.3152 43.531 8.6658 48.3591C8.64223 48.5704 8.60294 48.7738 8.57937 48.9773C8.56366 49.0868 8.5558 49.1807 8.5558 49.2903C8.54008 49.5798 8.53223 49.885 8.53223 50.1745C8.53223 50.8083 8.58723 51.3874 8.68151 51.9429C14.0559 46.5828 21.4731 43.265 29.6604 43.265C43.8191 43.265 55.6757 53.1949 58.6143 66.4271C59.4236 66.1688 60.2565 65.8167 61.1051 65.3863C57.7343 51.1996 44.927 40.6123 29.6682 40.6123H29.6525Z" fill="#F6F6F6"/>
<path d="M29.6527 47.3574C22.0076 47.3574 15.1639 50.7378 10.4731 56.051C11.0153 56.7318 11.6517 57.3422 12.3667 57.9056C16.5625 53.0775 22.7462 50.0101 29.6448 50.0101C39.8357 50.0101 48.4944 56.6849 51.4408 65.8793C52.3208 66.3488 53.3344 66.7087 54.4502 66.8574C51.7551 55.6911 41.6743 47.3574 29.6448 47.3574H29.6527Z" fill="#F6F6F6"/>
<path d="M29.6528 54.1104C24.1921 54.1104 19.2813 56.4657 15.8477 60.1904C16.6098 60.6286 17.4034 61.0746 18.2127 61.5363C21.1356 58.5941 25.1821 56.763 29.6528 56.763C38.5315 56.763 45.7523 63.9542 45.7523 72.7965C45.7523 74.7293 45.3909 76.5682 44.7623 78.2897L47.5909 78.2662C48.1252 76.5369 48.4159 74.698 48.4159 72.7965C48.4159 62.491 40.0008 54.1104 29.6528 54.1104Z" fill="#F6F6F6"/>
<path d="M29.6529 60.8555C25.5593 60.8555 21.945 62.9134 19.7764 66.0435C20.2792 66.8338 20.8842 67.5693 21.5521 68.211C23.155 65.4018 26.1879 63.5082 29.6529 63.5082C34.7994 63.5082 38.9795 67.6711 38.9795 72.7965C38.9795 74.8779 38.2802 76.7951 37.1173 78.3444L40.2681 78.3209C41.1402 76.6699 41.6352 74.7918 41.6352 72.7965C41.6352 66.2156 36.2609 60.8633 29.6529 60.8633V60.8555Z" fill="#F6F6F6"/>
<path d="M29.6524 67.6006C27.6173 67.6006 25.873 68.7822 25.0166 70.4802C25.763 70.7619 26.5173 70.9184 27.2402 70.9184C27.4523 70.9184 27.6959 70.9184 27.9474 70.9184C28.4031 70.5037 29.0002 70.2455 29.6602 70.2455C30.3202 70.2455 30.8545 70.4802 31.3024 70.8558C32.3081 70.7854 33.3296 70.6524 34.2567 70.3863C33.3846 68.7352 31.6638 67.5928 29.6602 67.5928L29.6524 67.6006Z" fill="#F6F6F6"/>
</g>
<g clip-path="url(#clip1_81_6894)">
<path d="M196.415 116.883H154.669C152.878 116.883 151.33 115.662 150.898 113.933C150.238 111.319 149.358 109.261 145.162 109.261C127.507 110.349 127.837 110.411 126.375 94.2215C125.047 93.0477 124.214 91.6392 125.527 90.1055C126.328 88.564 122.282 88.1884 124.112 85.5748C128.19 78.7436 113.937 81.0519 116.907 74.0642C120.278 67.319 127.161 61.8728 123.57 53.8208C123.413 38.6246 134.555 17.9822 149.774 12.7942C171.916 4.35884 201.656 13.0681 206.959 39.994C209.057 54.5955 205.38 63.8369 201.718 72.6635C199.503 78.008 197.287 83.2038 196.36 89.3543C195.338 96.0995 196.509 101.256 200.477 110.865C201.663 113.737 199.534 116.891 196.423 116.891L196.415 116.883Z" fill="#29BAED"/>
<path d="M145.532 19.7039C150.419 16.566 155.927 14.3516 161.945 13.7412C148.667 18.8353 137.525 28.2332 130.265 40.2211C130.948 36.3477 132.331 33.1629 133.691 30.8389C137.156 26.6603 141.139 22.9278 145.524 19.7039H145.532Z" fill="#F6F6F6"/>
<path d="M132.104 51.6141C131.302 51.0194 130.689 50.2134 130.304 49.0396C138.177 31.2299 154.599 17.9977 174.376 14.5312C176.521 15.0008 178.595 15.6424 180.599 16.4327C158.598 18.0056 140.04 32.1141 132.104 51.6141Z" fill="#F6F6F6"/>
<path d="M184.708 23.0218C164.043 23.0218 146.27 35.5732 138.672 53.4299C137.698 53.3047 136.794 53.1795 135.969 53.0308C143.819 33.8908 162.707 20.3691 184.708 20.3691C185.949 20.3691 187.183 20.4317 188.401 20.51C189.823 21.4646 191.174 22.4975 192.463 23.6165C189.933 23.2253 187.348 23.014 184.708 23.014V23.0218Z" fill="#F6F6F6"/>
<path d="M184.708 27.1143C189.171 27.1143 193.476 27.7637 197.562 28.9531C198.481 30.1191 199.338 31.3398 200.124 32.6074C195.331 30.7764 190.137 29.7669 184.715 29.7669C166.29 29.7669 150.529 41.3167 144.329 57.5301C143.638 56.4503 143.119 55.347 142.821 54.2436C149.971 38.2727 166.055 27.1143 184.715 27.1143H184.708Z" fill="#F6F6F6"/>
<path d="M184.708 33.8672C191.355 33.8672 197.625 35.5339 203.11 38.4605C203.62 39.7203 204.068 41.0115 204.453 42.3339C198.757 38.6561 191.984 36.5121 184.708 36.5121C167.995 36.5121 153.892 47.7801 149.617 63.078C148.847 62.4911 148.101 61.8573 147.394 61.1844C152.36 45.37 167.21 33.8594 184.708 33.8594V33.8672Z" fill="#F6F6F6"/>
<path d="M184.708 40.6123C192.714 40.6123 200.045 43.531 205.695 48.3591C205.718 48.5704 205.757 48.7738 205.781 48.9773C205.797 49.0868 205.805 49.1807 205.805 49.2903C205.82 49.5798 205.828 49.885 205.828 50.1745C205.828 50.8083 205.773 51.3874 205.679 51.9429C200.304 46.5828 192.887 43.265 184.7 43.265C170.541 43.265 158.685 53.1949 155.746 66.4271C154.937 66.1688 154.104 65.8167 153.255 65.3863C156.626 51.1996 169.433 40.6123 184.692 40.6123H184.708Z" fill="#F6F6F6"/>
<path d="M184.708 47.3574C192.353 47.3574 199.196 50.7378 203.887 56.051C203.345 56.7318 202.709 57.3422 201.994 57.9056C197.798 53.0775 191.614 50.0101 184.716 50.0101C174.525 50.0101 165.866 56.6849 162.92 65.8793C162.04 66.3488 161.026 66.7087 159.91 66.8574C162.605 55.6911 172.686 47.3574 184.716 47.3574H184.708Z" fill="#F6F6F6"/>
<path d="M184.708 54.1104C190.168 54.1104 195.079 56.4657 198.513 60.1904C197.751 60.6286 196.957 61.0746 196.148 61.5363C193.225 58.5941 189.178 56.763 184.708 56.763C175.829 56.763 168.608 63.9542 168.608 72.7965C168.608 74.7293 168.969 76.5682 169.598 78.2897L166.769 78.2662C166.235 76.5369 165.944 74.698 165.944 72.7965C165.944 62.491 174.36 54.1104 184.708 54.1104Z" fill="#F6F6F6"/>
<path d="M184.707 60.8555C188.801 60.8555 192.415 62.9134 194.584 66.0435C194.081 66.8338 193.476 67.5693 192.808 68.211C191.205 65.4018 188.172 63.5082 184.707 63.5082C179.561 63.5082 175.381 67.6711 175.381 72.7965C175.381 74.8779 176.08 76.7951 177.243 78.3444L174.092 78.3209C173.22 76.6699 172.725 74.7918 172.725 72.7965C172.725 66.2156 178.099 60.8633 184.707 60.8633V60.8555Z" fill="#F6F6F6"/>
<path d="M184.708 67.6006C186.743 67.6006 188.487 68.7822 189.344 70.4802C188.597 70.7619 187.843 70.9184 187.12 70.9184C186.908 70.9184 186.664 70.9184 186.413 70.9184C185.957 70.5037 185.36 70.2455 184.7 70.2455C184.04 70.2455 183.506 70.4802 183.058 70.8558C182.052 70.7854 181.031 70.6524 180.104 70.3863C180.976 68.7352 182.697 67.5928 184.7 67.5928L184.708 67.6006Z" fill="#F6F6F6"/>
</g>
<defs>
<clipPath id="clip0_81_6894">
<rect width="107" height="122" fill="white" transform="translate(0.180176 0.955078)"/>
</clipPath>
<clipPath id="clip1_81_6894">
<rect width="107" height="122" fill="white" transform="matrix(-1 0 0 1 214.18 0.955078)"/>
</clipPath>
</defs>
</svg>
