<svg width="137" height="156" viewBox="0 0 137 156" fill="none" xmlns="http://www.w3.org/2000/svg">
<g clip-path="url(#clip0_22_5198)">
<path d="M22.6102 148.15H75.7402C78.0202 148.15 79.9902 146.59 80.5402 144.38C81.3802 141.04 82.5002 138.41 87.8402 138.41C110.31 139.8 109.89 139.88 111.75 119.19C113.44 117.69 114.5 115.89 112.83 113.93C111.81 111.96 116.96 111.48 114.63 108.14C109.44 99.4101 127.58 102.36 123.8 93.4301C119.51 84.8101 110.75 77.8501 115.32 67.5601C115.52 48.1401 101.34 21.7601 81.9702 15.1301C53.7902 4.35012 15.9402 15.4801 9.19017 49.8901C6.52017 68.5501 11.2002 80.3601 15.8602 91.6401C18.6802 98.4701 21.5002 105.11 22.6802 112.97C23.9802 121.59 22.4902 128.18 17.4402 140.46C15.9302 144.13 18.6402 148.16 22.6002 148.16L22.6102 148.15Z" fill="#29BAED"/>
<path d="M87.37 23.9598C81.15 19.9498 74.14 17.1198 66.48 16.3398C83.38 22.8498 97.56 34.8598 106.8 50.1798C105.93 45.2298 104.17 41.1598 102.44 38.1898C98.03 32.8498 92.96 28.0798 87.38 23.9598H87.37Z" fill="#F6F6F6"/>
<path d="M104.46 64.7401C105.48 63.9801 106.26 62.9501 106.75 61.4501C96.7302 38.6901 75.8302 21.7801 50.6602 17.3501C47.9302 17.9501 45.2902 18.7701 42.7402 19.7801C70.7402 21.7901 94.3602 39.8201 104.46 64.7401Z" fill="#F6F6F6"/>
<path d="M37.5101 28.2001C63.8101 28.2001 86.4301 44.2401 96.1001 67.0601C97.3401 66.9001 98.4901 66.7401 99.5401 66.5501C89.5501 42.0901 65.5101 24.8101 37.5101 24.8101C35.9301 24.8101 34.3601 24.8901 32.8101 24.9901C31.0001 26.2101 29.2801 27.5301 27.6401 28.9601C30.8601 28.4601 34.1501 28.1901 37.5101 28.1901V28.2001Z" fill="#F6F6F6"/>
<path d="M37.5101 33.4302C31.8301 33.4302 26.3501 34.2602 21.1501 35.7802C19.9801 37.2702 18.8901 38.8302 17.8901 40.4502C23.9901 38.1102 30.6001 36.8202 37.5001 36.8202C60.9501 36.8202 81.0101 51.5802 88.9001 72.3002C89.7801 70.9202 90.4401 69.5102 90.8201 68.1002C81.7201 47.6902 61.2501 33.4302 37.5001 33.4302H37.5101Z" fill="#F6F6F6"/>
<path d="M37.5099 42.0598C29.0499 42.0598 21.0699 44.1898 14.0899 47.9298C13.4399 49.5398 12.8699 51.1898 12.3799 52.8798C19.6299 48.1798 28.2499 45.4398 37.5099 45.4398C58.7799 45.4398 76.7299 59.8398 82.1699 79.3898C83.1499 78.6398 84.0999 77.8298 84.9999 76.9698C78.6799 56.7598 59.7799 42.0498 37.5099 42.0498V42.0598Z" fill="#F6F6F6"/>
<path d="M37.5099 50.6802C27.3199 50.6802 17.9899 54.4102 10.7999 60.5802C10.7699 60.8502 10.7199 61.1102 10.6899 61.3702C10.6699 61.5102 10.6599 61.6302 10.6599 61.7702C10.6399 62.1402 10.6299 62.5302 10.6299 62.9002C10.6299 63.7102 10.6999 64.4502 10.8199 65.1602C17.6599 58.3102 27.0999 54.0702 37.5199 54.0702C55.5399 54.0702 70.6299 66.7602 74.3699 83.6702C75.3999 83.3402 76.4599 82.8902 77.5399 82.3402C73.2499 64.2102 56.9499 50.6802 37.5299 50.6802H37.5099Z" fill="#F6F6F6"/>
<path d="M37.5101 59.2998C27.7801 59.2998 19.0701 63.6198 13.1001 70.4098C13.7901 71.2798 14.6001 72.0598 15.5101 72.7798C20.8501 66.6098 28.7201 62.6898 37.5001 62.6898C50.4701 62.6898 61.4901 71.2198 65.2401 82.9698C66.3601 83.5698 67.6501 84.0298 69.0701 84.2198C65.6401 69.9498 52.8101 59.2998 37.5001 59.2998H37.5101Z" fill="#F6F6F6"/>
<path d="M37.5099 67.9302C30.5599 67.9302 24.3099 70.9402 19.9399 75.7002C20.9099 76.2602 21.9199 76.8302 22.9499 77.4202C26.6699 73.6602 31.8199 71.3202 37.5099 71.3202C48.8099 71.3202 57.9999 80.5102 57.9999 91.8102C57.9999 94.2802 57.5399 96.6302 56.7399 98.8302L60.3399 98.8002C61.0199 96.5902 61.3899 94.2402 61.3899 91.8102C61.3899 78.6402 50.6799 67.9302 37.5099 67.9302Z" fill="#F6F6F6"/>
<path d="M37.5099 76.5498C32.2999 76.5498 27.6999 79.1798 24.9399 83.1798C25.5799 84.1898 26.3499 85.1298 27.1999 85.9498C29.2399 82.3598 33.0999 79.9398 37.5099 79.9398C44.0599 79.9398 49.3799 85.2598 49.3799 91.8098C49.3799 94.4698 48.4899 96.9198 47.0099 98.8998L51.0199 98.8698C52.1299 96.7598 52.7599 94.3598 52.7599 91.8098C52.7599 83.3998 45.9199 76.5598 37.5099 76.5598V76.5498Z" fill="#F6F6F6"/>
<path d="M37.5099 85.1702C34.9199 85.1702 32.6999 86.6802 31.6099 88.8502C32.5599 89.2102 33.5199 89.4102 34.4399 89.4102C34.7099 89.4102 35.0199 89.4102 35.3399 89.4102C35.9199 88.8802 36.6799 88.5502 37.5199 88.5502C38.3599 88.5502 39.0399 88.8502 39.6099 89.3302C40.8899 89.2402 42.1899 89.0702 43.3699 88.7302C42.2599 86.6202 40.0699 85.1602 37.5199 85.1602L37.5099 85.1702Z" fill="#F6F6F6"/>
</g>
<defs>
<clipPath id="clip0_22_5198">
<rect width="136.18" height="155.91" fill="white"/>
</clipPath>
</defs>
</svg>
