<svg width="33" height="37" viewBox="0 0 33 37" fill="none" xmlns="http://www.w3.org/2000/svg">
<path d="M5.14775 16.2422H6.10558C7.85805 20.2759 11.8455 23.096 16.4998 23.096C21.1541 23.096 25.1415 20.2759 26.894 16.2422H27.8518C28.4762 16.2422 28.987 15.7282 28.987 15.0999V8.24609C28.987 7.61783 28.4762 7.1038 27.8518 7.1038H26.894C25.1415 3.07005 21.1541 0.25 16.4998 0.25C11.8455 0.25 7.85805 3.07005 6.10558 7.1038H5.14775C4.52339 7.1038 4.01255 7.61783 4.01255 8.24609V15.0999C4.01255 15.7282 4.52339 16.2422 5.14775 16.2422ZM7.98576 9.95954C7.98576 8.38174 9.51119 7.1038 11.3914 7.1038H21.6082C23.4884 7.1038 25.0138 8.38174 25.0138 9.95954V11.673C25.0138 15.4569 21.963 18.5268 18.2026 18.5268H14.797C11.0366 18.5268 7.98576 15.4569 7.98576 11.673V9.95954ZM13.0942 15.0999L13.9456 12.5297L16.4998 11.673L13.9456 10.8163L13.0942 8.24609L12.2428 10.8163L9.68857 11.673L12.2428 12.5297L13.0942 15.0999ZM23.8502 23.1959C21.7288 24.5738 19.2101 25.3806 16.4998 25.3806C13.7895 25.3806 11.2708 24.5738 9.14934 23.1959C4.3602 23.7028 0.606934 27.7366 0.606934 32.6913V33.3767C0.606934 35.2686 2.13236 36.8036 4.01255 36.8036H9.68857V32.2344C9.68857 30.9707 10.7032 29.9498 11.959 29.9498H21.0406C22.2964 29.9498 23.311 30.9707 23.311 32.2344V36.8036H28.987C30.8672 36.8036 32.3926 35.2686 32.3926 33.3767V32.6913C32.3926 27.7366 28.6394 23.7028 23.8502 23.1959ZM19.9054 32.2344C19.281 32.2344 18.7702 32.7484 18.7702 33.3767C18.7702 34.0049 19.281 34.519 19.9054 34.519C20.5298 34.519 21.0406 34.0049 21.0406 33.3767C21.0406 32.7484 20.5298 32.2344 19.9054 32.2344ZM13.0942 32.2344C12.4698 32.2344 11.959 32.7484 11.959 33.3767V36.8036H14.2294V33.3767C14.2294 32.7484 13.7185 32.2344 13.0942 32.2344Z" fill="white"/>
</svg>
