<?xml version="1.0" encoding="utf-8"?>
<!-- Generator: Adobe Illustrator 25.0.1, SVG Export Plug-In . SVG Version: 6.00 Build 0)  -->
<svg version="1.1" id="Warstwa_1" xmlns="http://www.w3.org/2000/svg" xmlns:xlink="http://www.w3.org/1999/xlink" x="0px" y="0px"
	 viewBox="0 0 314 212.3" style="enable-background:new 0 0 314 212.3;" xml:space="preserve">
<style type="text/css">
	.st0{clip-path:url(#SVGID_2_);}
	.st1{fill:#F0F7F7;}
	.st2{fill:#15A3A5;}
	.st3{fill:url(#SVGID_3_);}
	.st4{fill:url(#SVGID_4_);}
	.st5{fill:url(#SVGID_5_);}
	.st6{fill:url(#SVGID_6_);}
	.st7{fill:url(#SVGID_7_);}
	.st8{fill:#C4B1D9;}
	.st9{fill:#CBBFD9;}
	.st10{fill:#FFFFFF;}
	.st11{fill:#EDBD1D;}
	.st12{fill:#9A5FDE;}
	.st13{fill:#6C419D;}
	.st14{fill:#B681F2;}
	.st15{fill:#9BDEDE;}
	.st16{fill:#BFBFD9;}
	.st17{fill:#F0E0A8;}
	.st18{fill:#B0D9D9;}
	.st19{fill:#6BB3B3;}
	.st20{fill:#CCA6F7;}
	.st21{fill:#DAF5F5;}
	.st22{fill:url(#SVGID_8_);}
	.st23{fill:#A8CFCF;}
	.st24{fill:#2B1710;}
	.st25{fill:#FF8762;}
	.st26{fill:#E8D4FF;}
	.st27{fill:none;}
	.st28{fill:#E0B3A8;}
	.st29{fill:#FF7E57;}
	.st30{fill:#421A70;}
	.st31{fill:#D4D4D4;}
	.st32{fill:#592A8F;}
	.st33{fill:#2A458F;}
	.st34{fill:#A6FFFF;}
	.st35{fill:#74D3D3;}
	.st36{clip-path:url(#SVGID_10_);}
	.st37{fill:url(#SVGID_11_);stroke:#EBF2F2;stroke-miterlimit:10;}
	.st38{fill:url(#SVGID_12_);stroke:#EBF2F2;stroke-miterlimit:10;}
	.st39{fill:url(#SVGID_13_);stroke:#EBF2F2;stroke-miterlimit:10;}
	.st40{fill:url(#SVGID_14_);stroke:#EBF2F2;stroke-miterlimit:10;}
	.st41{fill:url(#SVGID_15_);stroke:#EBF2F2;stroke-miterlimit:10;}
	.st42{fill:url(#SVGID_16_);}
	.st43{clip-path:url(#SVGID_18_);}
	.st44{fill:#693E2F;}
	.st45{fill:#E0C9C0;}
	.st46{fill:#D1D1D1;}
	.st47{fill:#9A68D4;}
	.st48{fill:#AB7EDE;}
</style>
<g>
	<defs>
		<rect id="SVGID_1_" x="1" y="0" width="306.4" height="203.7"/>
	</defs>
	<clipPath id="SVGID_2_">
		<use xlink:href="#SVGID_1_"  style="overflow:visible;"/>
	</clipPath>
	<g class="st0">
		<path class="st1" d="M190.7,0.1c-55.8,3-79.5,35.3-89.3,59.3c-3.7,9-10,15.7-16.4,20.5c-8.4,6.3-18.4,10.1-28.8,11.5
			c-66.9,8.9-56,99.2-30.8,106.8h266.8C340.3,80.6,265-3.8,190.7,0.1z"/>
		<path class="st1" d="M62.7,20.2c-38.6,0.2-48.9,38.1-28,59.3C63.7,109,143.2,19.7,62.7,20.2L62.7,20.2z"/>
		<path class="st2" d="M38.4,156.2C38.4,156.2,38.5,156.2,38.4,156.2c0.1-0.1,0.2-0.2,0.1-0.3C30.6,143,13.7,130.7,6.8,131
			c-0.1,0-0.2,0.1-0.2,0.2c0,0.1,0.1,0.2,0.2,0.2c6.8-0.2,23.5,11.9,31.4,24.7C38.2,156.2,38.4,156.2,38.4,156.2z"/>
		<path class="st2" d="M6.9,129.9c0.4,0.8,1.4,1.2,1.4,1.2s0.5-1,0.1-1.8C8.1,128.4,7,128,7,128S6.6,129,6.9,129.9z"/>
		<path class="st2" d="M17.1,134c0.1,0.9,1,1.5,1,1.5s0.7-0.8,0.6-1.7c-0.1-0.9-1-1.6-1-1.6S16.9,133.1,17.1,134z"/>
		<path class="st2" d="M11.4,133.4c-0.8,0.5-1,1.6-1,1.6s1.1,0.3,1.8-0.1s1-1.6,1-1.6S12.2,132.9,11.4,133.4z"/>
		<path class="st2" d="M21.2,139.6c-0.8,0.5-1,1.6-1,1.6s1.1,0.3,1.8-0.1c0.8-0.5,1-1.6,1-1.6S22,139.2,21.2,139.6z"/>
		
			<linearGradient id="SVGID_3_" gradientUnits="userSpaceOnUse" x1="81.8918" y1="129.7482" x2="45.5018" y2="175.3982" gradientTransform="matrix(1 0 0 -1 0 321.2756)">
			<stop  offset="0" style="stop-color:#53BFC0"/>
			<stop  offset="1" style="stop-color:#95DDDE"/>
		</linearGradient>
		<path class="st3" d="M79.7,198c3.4-14.7-3-15.2-1.9-19.7c1.1-4.5,2.8-11.5-1.7-15.2c-4.6-3.7-6.6-7.4-6-10.6s2.1-14.7-3.7-18.3
			c-5.8-3.6-8.4-5.5-9.2-11.2s-0.4-14.6-6.9-17c-6.4-2.3-8.4-5.5-9.2-11.2c-0.8-5.7-8.1-14.4-25.3-16.4c-3.8,11.2-3,17,1.7,23.8
			c3.1,4.6,4.1,9.4,3,14.6c-1.7,7.7,2.3,13.3,6.9,17.6c4.6,4.3,5.3,6.8,4.2,12.6c-1.1,5.8-2.2,12.8,4.3,17c6.5,4.3,8.5,9.3,8.1,16.9
			c-0.4,7.7-0.5,8.9-0.5,8.9s3.5,8.2,9.3,10.6L79.7,198L79.7,198z"/>
		<path class="st2" d="M67.3,197.4c-0.3,0-0.6-0.2-0.6-0.5c-0.2-0.6-16.2-64.2-41.3-108.1c-0.2-0.3-0.1-0.7,0.2-0.9
			c0.3-0.2,0.7-0.1,0.9,0.2c25.2,44,41.3,107.7,41.5,108.4c0.1,0.3-0.1,0.7-0.5,0.8C67.3,197.3,67.3,197.4,67.3,197.4L67.3,197.4z"
			/>
		
			<linearGradient id="SVGID_4_" gradientUnits="userSpaceOnUse" x1="48.8741" y1="114.8834" x2="25.7441" y2="157.1434" gradientTransform="matrix(1 0 0 -1 0 321.2756)">
			<stop  offset="0" style="stop-color:#83DDDE"/>
			<stop  offset="1" style="stop-color:#BBF1F2"/>
		</linearGradient>
		<path class="st4" d="M34.2,199.9h20.4c0,0,0.4-3.1-1.8-7.3s-2.7-3.7-2.1-8c0.5-4.2,0.5-7.4-3.7-12.8c-4.2-5.3-5.9-3.7-6.9-7.4
			c-1.1-3.7-0.5-6.9-6.9-9.6c-6.4-2.7-6.9-1.6-11.2-6.4c-4.2-4.8-5.9-6.9-20.7-6.9c-1.1,8.5,1.6,16.5,9,20.7c7.4,4.2,8,6.4,8.5,10.6
			c0.5,4.2,2.1,6.4,5.9,9c3.7,2.7,3.2,4.8,4.2,10.6C29.9,198.4,34.2,199.9,34.2,199.9L34.2,199.9z"/>
		<path class="st2" d="M44.8,198.4c-0.2,0-0.5-0.2-0.5-0.4c0-0.2-5.6-22.5-34.4-48.7c-0.2-0.2-0.2-0.5,0-0.8c0.2-0.2,0.5-0.2,0.7,0
			c29,26.4,34.7,49,34.7,49.2c0.1,0.3-0.1,0.6-0.4,0.6C44.9,198.3,44.9,198.3,44.8,198.4L44.8,198.4z"/>
		<path class="st2" d="M38.9,196.3C38.9,196.3,38.9,196.2,38.9,196.3c0.2-0.1,0.2-0.2,0.1-0.3c-7.9-12.9-24.9-25.2-31.8-24.9
			c-0.1,0-0.2,0.1-0.2,0.2s0.1,0.2,0.2,0.2c6.8-0.2,23.5,11.9,31.4,24.7C38.7,196.3,38.8,196.3,38.9,196.3z"/>
		<path class="st2" d="M7.4,169.9c0.4,0.8,1.4,1.2,1.4,1.2s0.5-1,0.1-1.8c-0.4-0.8-1.4-1.2-1.4-1.2S7,169.1,7.4,169.9z"/>
		<path class="st2" d="M17.5,174.1c0.1,0.9,1,1.6,1,1.6s0.7-0.8,0.6-1.7c-0.1-0.9-1-1.5-1-1.5S17.4,173.2,17.5,174.1z"/>
		<path class="st2" d="M11.9,173.5c-0.8,0.5-1,1.6-1,1.6s1.1,0.3,1.9-0.1c0.8-0.5,1-1.6,1-1.6S12.6,173,11.9,173.5z"/>
		<path class="st2" d="M21.6,179.7c-0.8,0.5-1,1.6-1,1.6s1.1,0.3,1.9-0.1c0.8-0.5,1-1.6,1-1.6S22.4,179.2,21.6,179.7z"/>
		<path class="st2" d="M281.5,173.2C281.5,173.2,281.5,173.2,281.5,173.2c-0.1-0.1-0.1-0.2-0.1-0.2c6-9.7,18.7-18.9,23.8-18.7
			c0.1,0,0.2,0.1,0.2,0.2c0,0.1-0.1,0.2-0.2,0.2c-5.1-0.2-17.6,9-23.5,18.6C281.6,173.2,281.5,173.3,281.5,173.2L281.5,173.2z"/>
		<path class="st2" d="M305.1,153.5c-0.3,0.6-1.1,0.9-1.1,0.9s-0.4-0.8-0.1-1.4c0.3-0.6,1.1-0.9,1.1-0.9S305.4,152.9,305.1,153.5z"
			/>
		<path class="st2" d="M297.5,156.6c-0.1,0.7-0.8,1.2-0.8,1.2s-0.5-0.6-0.5-1.3c0.1-0.7,0.8-1.2,0.8-1.2S297.6,155.9,297.5,156.6z"
			/>
		<path class="st2" d="M301.8,156.1c0.6,0.4,0.7,1.2,0.7,1.2s-0.8,0.2-1.4-0.1s-0.7-1.2-0.7-1.2S301.2,155.8,301.8,156.1z"/>
		<path class="st2" d="M294.4,160.8c0.6,0.4,0.7,1.2,0.7,1.2s-0.8,0.2-1.4-0.1c-0.6-0.4-0.7-1.2-0.7-1.2S293.9,160.5,294.4,160.8z"
			/>
		
			<linearGradient id="SVGID_5_" gradientUnits="userSpaceOnUse" x1="285.4278" y1="141.6616" x2="301.1778" y2="150.4516" gradientTransform="matrix(1 0 0 -1 0 321.2756)">
			<stop  offset="0" style="stop-color:#53BFC0"/>
			<stop  offset="1" style="stop-color:#95DDDE"/>
		</linearGradient>
		<path class="st5" d="M281.2,191.8l-13.3-1.5c0,0,0.1-1.5,1.4-3.4c1.4-1.9,4.9-1.7,5-3.8c0.1-2.1,0.3-3.7,2.8-5.9
			c2.5-2.2,3.1-1.3,3.9-3.1c0.8-1.7,0.8-3.3,4.1-4.1c3.3-0.8,3.5-0.2,5.9-2.2c2.4-2,3.4-2.9,10.6-1.7c-0.1,4.2-2.1,7.9-6,9.4
			c-4,1.5-4.4,2.5-5,4.5c-0.6,2-1.5,2.9-3.5,3.9c-2,1-1.9,2.1-2.9,4.8C283.4,191.5,281.2,191.8,281.2,191.8L281.2,191.8z"/>
		<path class="st2" d="M276.2,190.3c0.1,0,0.2,0,0.3-0.2c0-0.1,4.5-10.5,20.6-21c0.1-0.1,0.2-0.2,0.1-0.4c-0.1-0.1-0.2-0.2-0.4-0.1
			c-16.2,10.6-20.7,21.1-20.8,21.2C275.9,190.1,276,190.2,276.2,190.3C276.1,190.3,276.2,190.3,276.2,190.3L276.2,190.3z"/>
		
			<linearGradient id="SVGID_6_" gradientUnits="userSpaceOnUse" x1="272.6073" y1="126.8539" x2="282.0973" y2="167.8339" gradientTransform="matrix(1 0 0 -1 0 321.2756)">
			<stop  offset="0" style="stop-color:#53BFC0"/>
			<stop  offset="1" style="stop-color:#95DDDE"/>
		</linearGradient>
		<path class="st6" d="M265.4,197.9c-1.5-5.8,1-6,0.5-7.8c-0.5-1.8-1.3-4.5,0.5-6c1.8-1.5,2.5-3,2.3-4.3c-0.2-1.3-1-5.8,1.3-7.3
			c2.3-1.5,3.3-2.3,3.5-4.5c0.2-2.3,0-5.8,2.5-6.8c2.5-1,3.3-2.3,3.5-4.5c0.2-2.3,3-5.8,9.8-6.8c1.6,4.4,1.4,6.6-0.4,9.4
			c-1.2,1.8-1.5,3.8-1,5.8c0.8,3-0.8,5.3-2.5,7c-1.8,1.8-2,2.8-1.5,5c0.5,2.3,1,5-1.5,6.8c-2.5,1.8-3.3,3.8-3,6.8
			c0.2,3,0.3,3.5,0.3,3.5s-1.3,3.3-3.6,4.3L265.4,197.9L265.4,197.9z"/>
		<path class="st2" d="M270.3,197.5c0.1,0,0.2-0.1,0.2-0.2c0.1-0.2,5.6-25.5,15-43.1c0.1-0.1,0-0.3-0.1-0.3c-0.1-0.1-0.3,0-0.3,0.1
			c-9.5,17.7-15,43-15.1,43.2C270,197.4,270.1,197.5,270.3,197.5C270.2,197.5,270.3,197.5,270.3,197.5L270.3,197.5z"/>
		
			<linearGradient id="SVGID_7_" gradientUnits="userSpaceOnUse" x1="274.6205" y1="123.8945" x2="298.7306" y2="146.7345" gradientTransform="matrix(1 0 0 -1 0 321.2756)">
			<stop  offset="0" style="stop-color:#83DDDE"/>
			<stop  offset="1" style="stop-color:#BBF1F2"/>
		</linearGradient>
		<path class="st7" d="M282.2,198.2l-8.6-1.4c0,0,0-1.3,1.2-3c1.2-1.6,1.4-1.4,1.4-3.2c0.1-1.8,0.3-3.2,2.4-5.1s2.7-1.2,3.4-2.7
			c0.7-1.5,0.7-2.9,3.6-3.6s3-0.2,5.1-1.9c2.1-1.7,2.9-2.5,9.2-1.5c-0.1,3.7-1.8,6.9-5.2,8.1c-3.4,1.3-3.8,2.2-4.3,3.9
			c-0.5,1.8-1.3,2.6-3.1,3.4s-1.7,1.8-2.5,4.2C284.1,197.9,282.2,198.3,282.2,198.2L282.2,198.2z"/>
		<path class="st2" d="M277.8,196.9c0.1,0,0.2,0,0.2-0.1c0-0.1,3.9-9.1,17.8-18.2c0.1-0.1,0.1-0.2,0.1-0.3c-0.1-0.1-0.2-0.1-0.3-0.1
			c-14,9.2-18,18.3-18,18.4C277.6,196.7,277.6,196.8,277.8,196.9C277.8,196.9,277.8,196.9,277.8,196.9L277.8,196.9z"/>
		<path class="st8" d="M79.3,102.4h-4c-0.1,0-0.1-0.1-0.1-0.1v-4c0-0.1,0-0.1,0.1-0.1h4c0.1,0,0.1,0,0.1,0.1v4
			C79.4,102.4,79.4,102.4,79.3,102.4z M75.5,102.2h3.7v-3.7h-3.7V102.2z"/>
		<path class="st8" d="M79.3,112.2h-4c-0.1,0-0.1,0-0.1-0.1v-4c0-0.1,0-0.1,0.1-0.1h4c0.1,0,0.1,0.1,0.1,0.1v4
			C79.4,112.1,79.4,112.2,79.3,112.2z M75.5,111.9h3.7v-3.7h-3.7V111.9z"/>
		<path class="st8" d="M71.9,112.2h-4c-0.1,0-0.1,0-0.1-0.1v-4c0-0.1,0-0.1,0.1-0.1h4c0.1,0,0.1,0.1,0.1,0.1v4
			C72,112.1,72,112.2,71.9,112.2z M68.1,111.9h3.7v-3.7h-3.7V111.9z"/>
		<path class="st8" d="M86.7,112.2h-4c-0.1,0-0.1,0-0.1-0.1v-4c0-0.1,0-0.1,0.1-0.1h4c0.1,0,0.1,0.1,0.1,0.1v4
			C86.8,112.1,86.8,112.2,86.7,112.2z M82.8,111.9h3.7v-3.7h-3.7V111.9z"/>
		<path class="st8" d="M77.3,108.2c-0.1,0-0.1-0.1-0.1-0.1v-5.8c0-0.1,0-0.1,0.1-0.1s0.1,0,0.1,0.1v5.8
			C77.4,108.1,77.3,108.2,77.3,108.2z"/>
		<path class="st8" d="M84.8,108.2c-0.1,0-0.1,0-0.1-0.1v-3H70v2.9c0,0.1,0,0.1-0.1,0.1s-0.1-0.1-0.1-0.1v-3c0-0.1,0.1-0.1,0.1-0.1
			h14.8c0.1,0,0.1,0.1,0.1,0.1v3.1C84.9,108.2,84.8,108.2,84.8,108.2L84.8,108.2z"/>
		<path class="st8" d="M223,33.5h-17.1c-0.1,0-0.1,0-0.1-0.1v-13c0-0.1,0.1-0.1,0.1-0.1H223c0.1,0,0.1,0.1,0.1,0.1v13
			C223.1,33.5,223,33.5,223,33.5z M205.9,33.3h16.9V20.5h-16.9V33.3z"/>
		<path class="st8" d="M223.5,35h-18.2c-0.1,0-0.1,0-0.1-0.1v-1.5c0-0.1,0.1-0.1,0.1-0.1h18.2c0.1,0,0.1,0,0.1,0.1v1.5
			C223.6,34.9,223.6,35,223.5,35z M205.4,34.7h18v-1.2h-18V34.7z"/>
		<path class="st8" d="M214.4,37.6c-0.5,0-0.9-0.4-0.9-0.9c0-0.5,0.4-0.9,0.9-0.9s0.9,0.4,0.9,0.9C215.3,37.2,214.9,37.6,214.4,37.6
			z M214.4,36.1c-0.4,0-0.6,0.3-0.6,0.6c0,0.3,0.3,0.6,0.6,0.6s0.6-0.3,0.6-0.6C215,36.4,214.7,36.1,214.4,36.1z"/>
		<path class="st8" d="M214.4,36.1c-0.1,0-0.1-0.1-0.1-0.1v-1c0-0.1,0.1-0.1,0.1-0.1c0.1,0,0.1,0,0.1,0.1v1
			C214.5,36,214.4,36.1,214.4,36.1z"/>
		<path class="st8" d="M210.2,32.3h-2.5c-0.1,0-0.1-0.1-0.1-0.1V26c0-0.1,0.1-0.1,0.1-0.1h2.5c0.1,0,0.1,0,0.1,0.1v6.2
			C210.3,32.2,210.3,32.3,210.2,32.3z M207.8,32h2.3v-5.9h-2.3V32z"/>
		<path class="st8" d="M215.2,32.3h-2.5c-0.1,0-0.1-0.1-0.1-0.1v-8.6c0-0.1,0.1-0.1,0.1-0.1h2.5c0.1,0,0.1,0,0.1,0.1v8.6
			C215.3,32.2,215.3,32.3,215.2,32.3z M212.8,32h2.3v-8.4h-2.3V32z"/>
		<path class="st8" d="M220.4,32.3h-2.5c-0.1,0-0.1-0.1-0.1-0.1V21.7c0-0.1,0-0.1,0.1-0.1h2.5c0.1,0,0.1,0.1,0.1,0.1v10.4
			C220.6,32.2,220.5,32.3,220.4,32.3z M218.1,32h2.3V21.8h-2.3V32z"/>
		<path class="st8" d="M43.4,45.5C43.4,45.5,43.3,45.5,43.4,45.5l-2.2-2.4h-7.5c-0.5,0-0.9-0.4-0.9-0.9v-4.8c0-0.5,0.4-0.9,0.9-0.9
			h8.9c0.5,0,0.9,0.4,0.9,0.9v8C43.5,45.4,43.5,45.5,43.4,45.5C43.4,45.5,43.4,45.5,43.4,45.5L43.4,45.5z M33.7,36.7
			c-0.4,0-0.7,0.3-0.7,0.7v4.8c0,0.4,0.3,0.7,0.7,0.7h7.5c0,0,0.1,0,0.1,0l2,2.1v-7.7c0-0.4-0.3-0.7-0.7-0.7H33.7z"/>
		<path class="st8" d="M35.6,40.5c-0.4,0-0.8-0.3-0.8-0.8s0.3-0.8,0.8-0.8s0.8,0.3,0.8,0.8S36,40.5,35.6,40.5z M35.6,39.2
			c-0.3,0-0.5,0.2-0.5,0.5c0,0.3,0.2,0.5,0.5,0.5c0.3,0,0.5-0.2,0.5-0.5C36.1,39.4,35.9,39.2,35.6,39.2z"/>
		<path class="st8" d="M38.2,40.5c-0.4,0-0.8-0.3-0.8-0.8s0.3-0.8,0.8-0.8s0.8,0.3,0.8,0.8S38.6,40.5,38.2,40.5z M38.2,39.2
			c-0.3,0-0.5,0.2-0.5,0.5c0,0.3,0.2,0.5,0.5,0.5c0.3,0,0.5-0.2,0.5-0.5C38.7,39.4,38.5,39.2,38.2,39.2z"/>
		<path class="st8" d="M40.8,40.5c-0.4,0-0.8-0.3-0.8-0.8s0.3-0.8,0.8-0.8s0.8,0.3,0.8,0.8S41.3,40.5,40.8,40.5z M40.8,39.2
			c-0.3,0-0.5,0.2-0.5,0.5c0,0.3,0.2,0.5,0.5,0.5s0.5-0.2,0.5-0.5C41.4,39.4,41.1,39.2,40.8,39.2z"/>
		<path class="st8" d="M299.5,74.1c-3.6,0-6.5-2.9-6.5-6.5s2.9-6.5,6.5-6.5s6.5,2.9,6.5,6.5S303.1,74.1,299.5,74.1z M299.5,61.5
			c-3.4,0-6.2,2.8-6.2,6.2s2.8,6.2,6.2,6.2s6.2-2.8,6.2-6.2S303,61.5,299.5,61.5L299.5,61.5z"/>
		<path class="st8" d="M299.5,74.1c-1.6,0-2.8-2.8-2.8-6.5c0-3.6,1.2-6.5,2.8-6.5s2.8,2.8,2.8,6.5C302.3,71.3,301.1,74.1,299.5,74.1
			z M299.5,61.5c-1.4,0-2.5,2.8-2.5,6.2s1.1,6.2,2.5,6.2s2.5-2.8,2.5-6.2S300.9,61.5,299.5,61.5L299.5,61.5z"/>
		<path class="st8" d="M299.5,65c-2,0-3.9-0.4-5.1-1.1c0,0,0,0-0.1-0.1c0,0,0-0.1,0-0.1c1.2-1.6,3.1-2.5,5.1-2.5s3.9,0.9,5.1,2.5
			c0,0,0,0.1,0,0.1c0,0,0,0.1-0.1,0.1C303.4,64.6,301.5,65,299.5,65z M294.7,63.8c1.2,0.6,3,1,4.9,1s3.7-0.3,4.9-1
			c-1.2-1.5-3-2.3-4.9-2.3S295.9,62.3,294.7,63.8z"/>
		<path class="st8" d="M299.5,74.1c-1.9,0-3.8-0.9-5-2.4c0,0,0-0.1,0-0.1c0,0,0-0.1,0.1-0.1c1.2-0.6,3-1,5-1s3.7,0.4,5,1
			c0,0,0.1,0.1,0.1,0.1c0,0,0,0.1,0,0.1C303.3,73.3,301.5,74.1,299.5,74.1z M294.8,71.7c1.2,1.4,2.9,2.2,4.7,2.2s3.5-0.8,4.7-2.2
			c-1.2-0.6-2.9-0.9-4.7-0.9S296,71.2,294.8,71.7z"/>
		<path class="st8" d="M299.5,74.1c-0.1,0-0.1,0-0.1-0.1V61.3c0-0.1,0-0.1,0.1-0.1s0.1,0,0.1,0.1V74
			C299.6,74.1,299.6,74.1,299.5,74.1z"/>
		<path class="st8" d="M305.9,67.8h-12.7c-0.1,0-0.1-0.1-0.1-0.1s0-0.1,0.1-0.1h12.7c0.1,0,0.1,0.1,0.1,0.1S305.9,67.8,305.9,67.8z"
			/>
		<path class="st8" d="M190.3,74.5h-10.8c-0.1,0-0.1,0-0.1-0.1v-7.6c0-0.1,0.1-0.1,0.1-0.1h10.8c0.1,0,0.1,0.1,0.1,0.1v7.6
			C190.5,74.5,190.4,74.5,190.3,74.5z M179.6,74.3h10.6v-7.3h-10.6V74.3z"/>
		<path class="st8" d="M190.3,70.2h-4.6c-0.1,0-0.1,0-0.1-0.1c0-0.1,0.1-0.1,0.1-0.1h4.4v-3h-10.6v3h4.5c0.1,0,0.1,0,0.1,0.1
			c0,0.1-0.1,0.1-0.1,0.1h-4.6c-0.1,0-0.1,0-0.1-0.1v-3.3c0-0.1,0.1-0.1,0.1-0.1h10.8c0.1,0,0.1,0.1,0.1,0.1v3.3
			C190.4,70.1,190.4,70.2,190.3,70.2L190.3,70.2z"/>
		<path class="st8" d="M185.6,71.3h-1.2c-0.1,0-0.1-0.1-0.1-0.1v-2c0-0.1,0.1-0.1,0.1-0.1h1.2c0.1,0,0.1,0.1,0.1,0.1v2
			C185.7,71.3,185.6,71.3,185.6,71.3z M184.5,71.1h0.9v-1.8h-0.9V71.1z"/>
		<path class="st8" d="M182.2,66.9h-1.7c-0.1,0-0.1-0.1-0.1-0.1v-0.6c0-0.1,0.1-0.1,0.1-0.1h1.7c0.1,0,0.1,0.1,0.1,0.1v0.6
			C182.3,66.8,182.3,66.9,182.2,66.9z M180.7,66.6h1.4v-0.4h-1.4V66.6z"/>
		<path class="st8" d="M189.4,66.9h-1.7c-0.1,0-0.1-0.1-0.1-0.1v-0.6c0-0.1,0.1-0.1,0.1-0.1h1.7c0.1,0,0.1,0.1,0.1,0.1v0.6
			C189.5,66.8,189.4,66.9,189.4,66.9z M187.8,66.6h1.4v-0.4h-1.4V66.6z"/>
		<path class="st8" d="M188.1,66c-0.1,0-0.1-0.1-0.1-0.1v-1.5c0-0.4-0.3-0.7-0.7-0.7h-4.7c-0.4,0-0.7,0.3-0.7,0.7v1.5
			c0,0.1,0,0.1-0.1,0.1c-0.1,0-0.1-0.1-0.1-0.1v-1.5c0-0.5,0.4-0.9,0.9-0.9h4.7c0.5,0,0.9,0.4,0.9,0.9v1.5
			C188.2,65.9,188.2,66,188.1,66L188.1,66z"/>
		<path class="st8" d="M286.3,129h-10.9c-0.1,0-0.1-0.1-0.1-0.1V122c0-0.1,0.1-0.1,0.1-0.1h10.9c0.1,0,0.1,0.1,0.1,0.1v6.9
			C286.4,129,286.3,129,286.3,129z M275.5,128.8h10.7v-6.7h-10.7V128.8z"/>
		<path class="st8" d="M280.8,125.3C280.8,125.3,280.8,125.3,280.8,125.3l-5.5-3.2c0,0-0.1-0.1,0-0.1c0,0,0.1-0.1,0.1-0.1h10.9
			c0.1,0,0.1,0,0.1,0.1c0,0.1,0,0.1-0.1,0.1L280.8,125.3C280.9,125.3,280.8,125.3,280.8,125.3z M275.8,122.1l5,2.9l5-2.9H275.8z"/>
		<path class="st8" d="M268.5,161.4L268.5,161.4c-1,0-2-0.1-3-0.2c-0.1,0-0.2-0.2-0.2-0.3c0-0.1,0.1-0.2,0.3-0.2
			c0.9,0.2,1.9,0.2,2.9,0.2c0.1,0,0.2,0.1,0.2,0.2S268.6,161.4,268.5,161.4L268.5,161.4z M271.4,161.2c-0.1,0-0.2-0.1-0.2-0.2
			c0-0.1,0.1-0.3,0.2-0.3c1-0.1,1.9-0.4,2.8-0.7c0.1,0,0.3,0,0.3,0.2c0,0.1,0,0.3-0.2,0.3C273.4,160.8,272.4,161,271.4,161.2
			C271.4,161.2,271.4,161.2,271.4,161.2L271.4,161.2z M262.7,160.5C262.7,160.5,262.7,160.5,262.7,160.5c-1-0.3-1.9-0.7-2.8-1.1
			c-0.1-0.1-0.2-0.2-0.1-0.3c0.1-0.1,0.2-0.2,0.3-0.1c0.9,0.4,1.8,0.8,2.7,1.1c0.1,0,0.2,0.2,0.2,0.3
			C262.9,160.4,262.8,160.5,262.7,160.5L262.7,160.5z M277,159.4c-0.1,0-0.2-0.1-0.2-0.1c-0.1-0.1,0-0.3,0.1-0.3
			c0.9-0.4,1.7-0.9,2.5-1.5c0.1-0.1,0.3-0.1,0.3,0c0.1,0.1,0.1,0.3,0,0.3c-0.8,0.6-1.6,1.1-2.5,1.6C277,159.3,277,159.4,277,159.4
			L277,159.4z M257.5,157.8c0,0-0.1,0-0.1-0.1c-0.8-0.6-1.6-1.2-2.3-1.9c-0.1-0.1-0.1-0.2,0-0.4c0.1-0.1,0.2-0.1,0.4,0
			c0.7,0.7,1.4,1.3,2.2,1.9c0.1,0.1,0.1,0.2,0,0.3C257.7,157.8,257.6,157.8,257.5,157.8L257.5,157.8z M281.7,155.9
			c-0.1,0-0.1,0-0.2-0.1c-0.1-0.1-0.1-0.2,0-0.3c0.7-0.7,1.3-1.4,1.9-2.2c0.1-0.1,0.2-0.1,0.3,0c0.1,0.1,0.1,0.2,0,0.3
			c-0.6,0.8-1.2,1.6-1.9,2.3C281.8,155.9,281.7,155.9,281.7,155.9L281.7,155.9z M253.4,153.7c-0.1,0-0.1,0-0.2-0.1
			c-0.6-0.8-1.1-1.6-1.6-2.5c-0.1-0.1,0-0.3,0.1-0.3s0.3,0,0.3,0.1c0.4,0.9,0.9,1.7,1.5,2.5c0.1,0.1,0.1,0.3-0.1,0.3
			C253.5,153.7,253.4,153.7,253.4,153.7L253.4,153.7z M285.1,151.2c0,0-0.1,0-0.1,0c-0.1-0.1-0.2-0.2-0.1-0.3
			c0.4-0.9,0.8-1.8,1.1-2.7c0-0.1,0.2-0.2,0.3-0.2c0.1,0,0.2,0.2,0.2,0.3c-0.3,0.9-0.7,1.9-1.1,2.7
			C285.3,151.1,285.2,151.2,285.1,151.2L285.1,151.2z M250.7,148.5c-0.1,0-0.2-0.1-0.2-0.2c-0.3-0.9-0.5-1.9-0.7-2.9
			c0-0.1,0.1-0.3,0.2-0.3c0.1,0,0.3,0.1,0.3,0.2c0.2,1,0.4,1.9,0.7,2.8C251,148.3,250.9,148.5,250.7,148.5
			C250.8,148.5,250.7,148.5,250.7,148.5L250.7,148.5z M286.9,145.6C286.9,145.6,286.9,145.6,286.9,145.6c-0.2,0-0.3-0.1-0.2-0.3
			c0.1-0.9,0.2-1.9,0.2-2.9v-0.1c0-0.1,0.1-0.2,0.2-0.2c0.1,0,0.2,0.1,0.2,0.2v0.1c0,1-0.1,2-0.2,3
			C287.1,145.5,287,145.6,286.9,145.6L286.9,145.6z M249.8,142.7c-0.1,0-0.2-0.1-0.2-0.2h0.2l-0.2,0c0-1,0.1-2,0.2-2.9
			c0-0.1,0.2-0.2,0.3-0.2c0.1,0,0.2,0.1,0.2,0.3c-0.1,0.9-0.2,1.9-0.2,2.9C250,142.6,249.9,142.7,249.8,142.7L249.8,142.7z
			 M286.9,139.7c-0.1,0-0.2-0.1-0.2-0.2c-0.2-0.9-0.4-1.9-0.7-2.8c0-0.1,0-0.3,0.2-0.3c0.1,0,0.3,0,0.3,0.2c0.3,0.9,0.5,1.9,0.7,2.9
			C287.2,139.6,287.1,139.7,286.9,139.7C287,139.7,286.9,139.7,286.9,139.7L286.9,139.7z M250.7,137C250.7,137,250.6,137,250.7,137
			c-0.2-0.1-0.3-0.2-0.2-0.3c0.3-0.9,0.7-1.9,1.1-2.8c0.1-0.1,0.2-0.2,0.3-0.1c0.1,0.1,0.2,0.2,0.1,0.3c-0.4,0.9-0.8,1.8-1.1,2.7
			C250.9,136.9,250.8,137,250.7,137L250.7,137z M285.1,134.2c-0.1,0-0.2-0.1-0.2-0.1c-0.4-0.9-0.9-1.7-1.5-2.5
			c-0.1-0.1-0.1-0.3,0-0.3c0.1-0.1,0.3-0.1,0.3,0.1c0.6,0.8,1.1,1.6,1.6,2.5c0.1,0.1,0,0.3-0.1,0.3
			C285.1,134.2,285.1,134.2,285.1,134.2L285.1,134.2z M253.3,131.8c0,0-0.1,0-0.1,0c-0.1-0.1-0.1-0.2-0.1-0.3
			c0.6-0.8,1.2-1.6,1.9-2.3c0.1-0.1,0.2-0.1,0.4,0c0.1,0.1,0.1,0.2,0,0.4c-0.7,0.7-1.3,1.4-1.9,2.2
			C253.5,131.7,253.4,131.8,253.3,131.8L253.3,131.8z M257.5,127.6c-0.1,0-0.2,0-0.2-0.1c-0.1-0.1-0.1-0.3,0-0.3
			c0.8-0.6,1.7-1.1,2.5-1.6c0.1-0.1,0.3,0,0.3,0.1c0.1,0.1,0,0.3-0.1,0.3c-0.9,0.4-1.7,1-2.5,1.5
			C257.5,127.6,257.5,127.6,257.5,127.6L257.5,127.6z M262.6,125c-0.1,0-0.2-0.1-0.2-0.2c0-0.1,0-0.3,0.2-0.3
			c0.9-0.3,1.9-0.5,2.9-0.7c0.1,0,0.3,0.1,0.3,0.2c0,0.1-0.1,0.3-0.2,0.3C264.6,124.4,263.6,124.6,262.6,125
			C262.7,124.9,262.7,124.9,262.6,125L262.6,125z M271.3,124.2C271.3,124.2,271.3,124.2,271.3,124.2c-1-0.1-1.9-0.2-2.9-0.2h-0.1
			c-0.1,0-0.2-0.1-0.2-0.2c0-0.1,0.1-0.2,0.2-0.2h0.1c1,0,2,0.1,2.9,0.2c0.1,0,0.2,0.2,0.2,0.3C271.5,124.1,271.5,124.2,271.3,124.2
			L271.3,124.2z"/>
		<path class="st8" d="M127.5,155h-1.6c-0.1,0-0.1,0-0.1-0.1V154c-0.6-0.1-1.1-0.4-1.5-0.7l-0.7,0.7c0,0-0.1,0.1-0.2,0l-1.1-1.1
			c0,0-0.1-0.1,0-0.2l0.7-0.7c-0.3-0.5-0.5-1-0.6-1.5h-1c-0.1,0-0.1,0-0.1-0.1v-1.6c0-0.1,0.1-0.1,0.1-0.1h1.1
			c0.1-0.5,0.3-1,0.6-1.5l-0.7-0.7c0,0-0.1-0.1,0-0.2l1.1-1.1c0,0,0.1,0,0.2,0l0.7,0.7c0.5-0.3,1-0.6,1.5-0.7v-1
			c0-0.1,0-0.1,0.1-0.1h1.6c0.1,0,0.1,0.1,0.1,0.1v0.9c0.6,0.1,1.1,0.3,1.6,0.6l0.6-0.6c0,0,0.1,0,0.2,0l1.1,1.1c0,0,0,0.1,0,0.1
			s0,0.1,0,0.1l-0.6,0.6c0.3,0.5,0.6,1.1,0.7,1.7h0.8c0.1,0,0.1,0.1,0.1,0.1v1.6c0,0.1,0,0.1-0.1,0.1h-0.7c-0.1,0.6-0.4,1.2-0.7,1.7
			l0.5,0.5c0,0,0,0.1,0,0.1s0,0.1,0,0.1L130,154c0,0-0.1,0-0.2,0l-0.6-0.6c-0.5,0.3-1.1,0.5-1.7,0.6v0.9
			C127.6,155,127.5,155.1,127.5,155L127.5,155z M126,154.8h1.3V154c0-0.1,0-0.1,0.1-0.1c0.6-0.1,1.2-0.3,1.8-0.7c0.1,0,0.1,0,0.2,0
			l0.5,0.6l0.9-0.9l-0.5-0.5c0,0-0.1-0.1,0-0.1c0.4-0.5,0.6-1.1,0.8-1.8c0-0.1,0.1-0.1,0.1-0.1h0.7V149h-0.7c-0.1,0-0.1,0-0.1-0.1
			c-0.1-0.6-0.4-1.2-0.8-1.8c0-0.1,0-0.1,0-0.2l0.5-0.5l-0.9-0.9l-0.6,0.6c0,0-0.1,0.1-0.2,0c-0.5-0.3-1.1-0.6-1.7-0.7
			c-0.1,0-0.1-0.1-0.1-0.1v-0.9H126v0.9c0,0.1,0,0.1-0.1,0.1c-0.6,0.1-1.1,0.4-1.6,0.7c0,0-0.1,0-0.1,0l-0.7-0.7l-0.9,0.9l0.7,0.7
			c0,0,0,0.1,0,0.2c-0.3,0.5-0.5,1-0.6,1.6c0,0.1-0.1,0.1-0.1,0.1h-1v1.3h1c0.1,0,0.1,0,0.1,0.1c0.1,0.6,0.3,1.1,0.6,1.6
			c0,0.1,0,0.1,0,0.2l-0.7,0.7l0.9,0.9l0.7-0.7c0,0,0.1-0.1,0.2,0c0.5,0.4,1,0.6,1.6,0.7c0.1,0,0.1,0.1,0.1,0.1L126,154.8L126,154.8
			z M126.8,152.3c-1.5,0-2.7-1.2-2.7-2.7c0-1.5,1.2-2.7,2.7-2.7c1.3,0,2.4,0.9,2.7,2.3v0.8c-0.1,0.5-0.3,1-0.6,1.4l-0.2,0.2
			C128.1,152.1,127.5,152.3,126.8,152.3z M126.8,147.2c-1.3,0-2.4,1.1-2.4,2.4c0,1.4,1.1,2.5,2.4,2.5c0.6,0,1.2-0.2,1.6-0.6l0.2-0.2
			c0.3-0.3,0.5-0.8,0.6-1.2v-0.8C129.1,148,128.1,147.2,126.8,147.2L126.8,147.2z"/>
		<path class="st8" d="M119.2,155C119.2,155,119.2,155,119.2,155c-0.1,0-0.1,0-0.1-0.1l-0.2-0.8c-0.2,0-0.3,0-0.5-0.1l-0.4,0.7
			c0,0,0,0-0.1,0.1c0,0-0.1,0-0.1,0l-0.7-0.4c-0.1,0-0.1-0.1,0-0.2l0.4-0.8c-0.1-0.1-0.2-0.2-0.3-0.4l-0.8,0.2c0,0-0.1,0-0.1,0
			c0,0-0.1,0-0.1-0.1l-0.2-0.8c0-0.1,0-0.1,0.1-0.1l0.8-0.3c0-0.2,0-0.3,0-0.5l-0.8-0.4c-0.1,0-0.1-0.1-0.1-0.2l0.4-0.7
			c0,0,0-0.1,0.1-0.1c0,0,0.1,0,0.1,0l0.7,0.4c0.1-0.1,0.2-0.2,0.4-0.3l-0.2-0.8c0,0,0-0.1,0-0.1c0,0,0-0.1,0.1-0.1l0.8-0.2
			c0,0,0.1,0,0.1,0c0,0,0,0,0.1,0.1l0.2,0.7c0.2,0,0.4,0,0.6,0l0.3-0.7c0,0,0-0.1,0.1-0.1c0,0,0.1,0,0.1,0l0.7,0.4
			c0.1,0,0.1,0.1,0,0.2l-0.3,0.6c0.2,0.1,0.3,0.3,0.4,0.4l0.7-0.2c0,0,0.1,0,0.1,0c0,0,0.1,0,0.1,0.1l0.2,0.8c0,0.1,0,0.1-0.1,0.2
			l-0.7,0.2c0,0.2,0,0.4-0.1,0.6l0.6,0.3c0.1,0,0.1,0.1,0.1,0.2l-0.4,0.7c0,0.1-0.1,0.1-0.2,0.1l-0.6-0.3c-0.1,0.1-0.3,0.3-0.5,0.3
			l0.2,0.7c0,0.1,0,0.1-0.1,0.2L119.2,155C119.2,155,119.2,155,119.2,155L119.2,155z M119,154c0,0,0.1,0,0.1,0.1l0.2,0.7l0.5-0.2
			l-0.2-0.7c0-0.1,0-0.1,0.1-0.1c0.2-0.1,0.4-0.2,0.5-0.4c0,0,0.1-0.1,0.1,0l0.6,0.3l0.3-0.5l-0.6-0.3c-0.1,0-0.1-0.1-0.1-0.1
			c0.1-0.2,0.1-0.5,0.1-0.7c0-0.1,0-0.1,0.1-0.1l0.6-0.2l-0.2-0.5l-0.7,0.2c-0.1,0-0.1,0-0.1-0.1c-0.1-0.2-0.3-0.4-0.5-0.5
			c-0.1,0-0.1-0.1,0-0.1l0.3-0.6l-0.5-0.3l-0.3,0.6c0,0-0.1,0.1-0.1,0.1c-0.2,0-0.4-0.1-0.7,0c-0.1,0-0.1,0-0.1-0.1l-0.2-0.7
			l-0.5,0.2l0.2,0.8c0,0,0,0.1-0.1,0.1c-0.2,0.1-0.3,0.2-0.5,0.4c0,0-0.1,0.1-0.2,0l-0.7-0.4l-0.3,0.5l0.7,0.4c0,0,0.1,0.1,0.1,0.1
			c0,0.2-0.1,0.4,0,0.6c0,0.1,0,0.1-0.1,0.1l-0.8,0.2l0.2,0.5l0.8-0.2c0.1,0,0.1,0,0.1,0.1c0.1,0.2,0.2,0.3,0.4,0.5
			c0,0,0.1,0.1,0,0.1l-0.4,0.7l0.5,0.3l0.4-0.7c0-0.1,0.1-0.1,0.1-0.1C118.6,153.9,118.8,154,119,154L119,154z M118.9,153
			c-0.1,0-0.3,0-0.4-0.1c-0.2-0.1-0.3-0.3-0.4-0.5c-0.1-0.2,0-0.4,0.1-0.6c0.1-0.2,0.3-0.3,0.5-0.4c0.4-0.1,0.9,0.1,1,0.5
			c0.1,0.2,0,0.4-0.1,0.6c-0.1,0.2-0.3,0.3-0.5,0.4C119.1,153,119,153,118.9,153L118.9,153z M118.9,151.6c-0.1,0-0.1,0-0.2,0
			c-0.2,0-0.3,0.1-0.3,0.3s-0.1,0.3,0,0.4c0,0.2,0.2,0.3,0.3,0.3c0.1,0.1,0.3,0.1,0.4,0s0.3-0.1,0.3-0.3c0.1-0.1,0.1-0.3,0-0.4
			C119.4,151.7,119.1,151.6,118.9,151.6L118.9,151.6z"/>
		<path class="st8" d="M137.9,186.6c0-0.1,0.1-0.2,0.2-0.2c1,0,1.9-0.1,2.9-0.2c0.1,0,0.3,0.1,0.3,0.2c0,0.1-0.1,0.3-0.2,0.3
			c-1,0.2-1.9,0.2-2.9,0.2h0C138,186.8,137.9,186.7,137.9,186.6L137.9,186.6z M135.2,186.6c-1-0.1-2-0.4-2.9-0.7
			c-0.1,0-0.2-0.2-0.2-0.3c0-0.1,0.2-0.2,0.3-0.2c0.9,0.3,1.9,0.5,2.8,0.7c0.1,0,0.2,0.1,0.2,0.3
			C135.5,186.5,135.4,186.6,135.2,186.6C135.2,186.6,135.2,186.6,135.2,186.6L135.2,186.6z M143.7,185.8c0-0.1,0-0.3,0.2-0.3
			c0.9-0.3,1.8-0.7,2.7-1.1c0.1-0.1,0.3,0,0.3,0.1c0.1,0.1,0,0.3-0.1,0.3c-0.9,0.4-1.8,0.8-2.7,1.1c0,0-0.1,0-0.1,0
			C143.8,185.9,143.7,185.9,143.7,185.8L143.7,185.8z M129.6,184.8c-0.9-0.4-1.7-1-2.5-1.5c-0.1-0.1-0.1-0.2,0-0.3
			c0.1-0.1,0.2-0.1,0.3,0c0.8,0.6,1.6,1.1,2.5,1.5c0.1,0.1,0.2,0.2,0.1,0.3c0,0.1-0.1,0.1-0.2,0.1
			C129.7,184.8,129.6,184.8,129.6,184.8L129.6,184.8z M149,183.2c-0.1-0.1-0.1-0.3,0-0.3c0.8-0.6,1.5-1.2,2.2-1.9
			c0.1-0.1,0.2-0.1,0.3,0c0.1,0.1,0.1,0.2,0,0.4c-0.7,0.7-1.5,1.3-2.3,1.9c0,0-0.1,0.1-0.1,0.1C149.1,183.3,149,183.2,149,183.2
			L149,183.2z M124.8,181.3c-0.7-0.7-1.3-1.5-1.9-2.3c-0.1-0.1-0.1-0.3,0.1-0.3s0.3-0.1,0.3,0.1c0.6,0.8,1.2,1.5,1.9,2.2
			c0.1,0.1,0.1,0.2,0,0.4c-0.1,0.1-0.1,0.1-0.2,0.1C124.9,181.3,124.8,181.3,124.8,181.3L124.8,181.3z M153.1,179.1
			c-0.1-0.1-0.1-0.2,0-0.3c0.6-0.8,1.1-1.6,1.5-2.5c0.1-0.1,0.2-0.2,0.3-0.1c0.1,0.1,0.2,0.2,0.1,0.3c-0.4,0.9-1,1.7-1.6,2.5
			c-0.1,0.1-0.1,0.1-0.2,0.1C153.2,179.1,153.2,179.1,153.1,179.1L153.1,179.1z M121.3,176.5c-0.5-0.9-0.8-1.8-1.1-2.7
			c0-0.1,0-0.3,0.2-0.3c0.1,0,0.3,0,0.3,0.2c0.3,0.9,0.7,1.8,1.1,2.7c0.1,0.1,0,0.3-0.1,0.3c0,0-0.1,0-0.1,0
			C121.5,176.6,121.4,176.6,121.3,176.5L121.3,176.5z M155.9,173.9c-0.1,0-0.2-0.2-0.2-0.3c0.3-0.9,0.5-1.9,0.7-2.8
			c0-0.1,0.2-0.2,0.3-0.2c0.1,0,0.2,0.1,0.2,0.3c-0.2,1-0.4,1.9-0.7,2.9C156.1,173.9,156.1,174,155.9,173.9
			C155.9,174,155.9,174,155.9,173.9L155.9,173.9z M119.5,170.9c-0.2-1-0.2-2-0.2-3v-0.1c0-0.1,0.1-0.2,0.2-0.2
			c0.1,0,0.2,0.1,0.2,0.2v0.1c0,1,0.1,1.9,0.2,2.9c0,0.1-0.1,0.3-0.2,0.3c0,0,0,0,0,0C119.6,171.1,119.5,171,119.5,170.9
			L119.5,170.9z M156.6,167.9c0-0.9-0.1-1.9-0.2-2.9c0-0.1,0.1-0.3,0.2-0.3c0.1,0,0.3,0.1,0.3,0.2c0.1,1,0.2,1.9,0.2,2.9l-0.2,0h0.2
			c0,0.1-0.1,0.2-0.2,0.2S156.6,168,156.6,167.9L156.6,167.9z M119.7,165.1c-0.1,0-0.2-0.1-0.2-0.3c0.2-1,0.4-1.9,0.7-2.9
			c0-0.1,0.2-0.2,0.3-0.2c0.1,0,0.2,0.2,0.2,0.3c-0.3,0.9-0.5,1.9-0.7,2.8C120,165.1,119.9,165.2,119.7,165.1
			C119.8,165.2,119.7,165.2,119.7,165.1L119.7,165.1z M155.8,162.2c-0.3-0.9-0.7-1.8-1.1-2.7c-0.1-0.1,0-0.3,0.1-0.3
			c0.1-0.1,0.3,0,0.3,0.1c0.4,0.9,0.8,1.8,1.1,2.8c0,0.1,0,0.3-0.2,0.3c0,0-0.1,0-0.1,0C155.9,162.4,155.8,162.3,155.8,162.2
			L155.8,162.2z M121.5,159.6c-0.1-0.1-0.2-0.2-0.1-0.3c0.4-0.9,1-1.7,1.6-2.5c0.1-0.1,0.2-0.1,0.3-0.1s0.1,0.2,0,0.3
			c-0.6,0.8-1.1,1.6-1.5,2.5C121.8,159.5,121.7,159.6,121.5,159.6C121.5,159.6,121.5,159.6,121.5,159.6L121.5,159.6z M153.1,157.1
			c-0.6-0.8-1.2-1.5-1.9-2.2c-0.1-0.1-0.1-0.2,0-0.4c0.1-0.1,0.2-0.1,0.3,0c0.7,0.7,1.3,1.5,1.9,2.3c0.1,0.1,0.1,0.3,0,0.3
			c0,0-0.1,0-0.1,0C153.3,157.2,153.2,157.1,153.1,157.1L153.1,157.1z M149.1,153c-0.8-0.6-1.6-1.1-2.5-1.5
			c-0.1-0.1-0.2-0.2-0.1-0.3s0.2-0.2,0.3-0.1c0.9,0.4,1.7,1,2.5,1.6c0.1,0.1,0.1,0.2,0,0.3c0,0.1-0.1,0.1-0.2,0.1
			C149.1,153,149.1,153,149.1,153L149.1,153z M143.9,150.4c-0.9-0.3-1.9-0.5-2.8-0.7c-0.1,0-0.2-0.1-0.2-0.3c0-0.1,0.2-0.2,0.3-0.2
			c1,0.2,1.9,0.4,2.9,0.7c0.1,0,0.2,0.2,0.2,0.3C144.2,150.3,144.1,150.4,143.9,150.4C144,150.4,144,150.4,143.9,150.4L143.9,150.4z
			 M135.1,149.5c0-0.1,0.1-0.3,0.2-0.3c0.9-0.1,1.9-0.2,2.9-0.2h0.1c0.1,0,0.2,0.1,0.2,0.2s-0.1,0.2-0.2,0.2h-0.1
			c-0.9,0-1.9,0.1-2.8,0.2c0,0,0,0,0,0C135.2,149.7,135.1,149.6,135.1,149.5L135.1,149.5z"/>
		<g>
			<path class="st9" d="M122,19.8H77.7c-1.4,0-2.5,1.1-2.5,2.5v37.4c0,1.4,1.1,2.5,2.5,2.5H122c1.4,0,2.5-1.1,2.5-2.5V22.3
				C124.5,21,123.4,19.8,122,19.8z"/>
		</g>
		<path class="st10" d="M127.7,17.1H78.4v42.4h49.3V17.1z"/>
		<path class="st11" d="M101.4,32.2c0.2,0.8,0.4,1.5,0.4,2.4c0,4.3-3.5,7.9-7.9,7.9c-4.3,0-7.8-3.5-7.8-7.9c0-2.8,1.5-5.2,3.7-6.6
			l-1.5-2.4c-3,1.9-5,5.2-5,9.1c0,5.9,4.8,10.7,10.7,10.7c5.9,0,10.7-4.8,10.7-10.7c0-1.1-0.2-2.2-0.5-3.2L101.4,32.2L101.4,32.2z"
			/>
		<path class="st12" d="M93.9,23.9c-2.1,0-4.1,0.6-5.7,1.6l1.5,2.4c1.2-0.8,2.7-1.2,4.2-1.2c3.5,0,6.5,2.3,7.5,5.5l2.7-0.9
			C102.7,27,98.7,23.9,93.9,23.9L93.9,23.9z"/>
		<path class="st13" d="M102,24.8c-1.9-1.6-4.2-2.5-6.4-2.8l-0.4,3.1c1.7,0.2,3.4,0.9,4.9,2.1c3.3,2.7,4.3,7.2,2.8,10.9l2.9,1.1
			C107.8,34.3,106.4,28.4,102,24.8L102,24.8z"/>
		<path class="st14" d="M117.4,20h-0.7c-0.2,0-0.4,0.2-0.4,0.4v8.8c0,0.2,0.2,0.4,0.4,0.4h0.7c0.2,0,0.4-0.2,0.4-0.4v-8.8
			C117.9,20.2,117.7,20,117.4,20z"/>
		<path class="st14" d="M120.4,26h-0.7c-0.2,0-0.4,0.2-0.4,0.4v2.8c0,0.2,0.2,0.4,0.4,0.4h0.7c0.2,0,0.4-0.2,0.4-0.4v-2.8
			C120.9,26.2,120.7,26,120.4,26z"/>
		<path class="st14" d="M123.4,23h-0.7c-0.2,0-0.4,0.2-0.4,0.4v5.9c0,0.2,0.2,0.4,0.4,0.4h0.7c0.2,0,0.4-0.2,0.4-0.4v-5.9
			C123.9,23.1,123.7,23,123.4,23z"/>
		<path class="st11" d="M86.2,49.4h-1c-0.3,0-0.6,0.3-0.6,0.6v1c0,0.3,0.3,0.6,0.6,0.6h1c0.3,0,0.6-0.3,0.6-0.6v-1
			C86.8,49.7,86.5,49.4,86.2,49.4z"/>
		<path class="st14" d="M119.9,49.4H89.3c-0.3,0-0.6,0.3-0.6,0.6v1c0,0.3,0.3,0.6,0.6,0.6h30.6c0.3,0,0.6-0.3,0.6-0.6v-1
			C120.5,49.7,120.2,49.4,119.9,49.4z"/>
		<path class="st13" d="M86.2,53.5h-1c-0.3,0-0.6,0.3-0.6,0.6v1c0,0.3,0.3,0.6,0.6,0.6h1c0.3,0,0.6-0.3,0.6-0.6v-1
			C86.8,53.8,86.5,53.5,86.2,53.5z"/>
		<path class="st14" d="M119.9,53.5H89.3c-0.3,0-0.6,0.3-0.6,0.6v1c0,0.3,0.3,0.6,0.6,0.6h30.6c0.3,0,0.6-0.3,0.6-0.6v-1
			C120.5,53.8,120.2,53.5,119.9,53.5z"/>
		<path class="st11" d="M284,41.4c-3.8,2.3-9.1,4.7-13.3,5.5l5.2,1.8c-7.9,8.2-31.3,28.2-70.8,28.8l0.1,3.4
			c16.2-0.2,31.5-3.7,45.6-10.4c10.7-5.1,20.6-12,27.9-19.7l3,4.8C281.5,51.3,282.6,45.6,284,41.4L284,41.4z"/>
		<path class="st15" d="M280.4,63.5h-7.1c-1.4,0-2.5,1.1-2.5,2.5v35.7c0,1.4,1.1,2.5,2.5,2.5h7.1c1.4,0,2.5-1.1,2.5-2.5V65.9
			C282.9,64.6,281.8,63.5,280.4,63.5z"/>
		<path class="st15" d="M256.4,75h-7.1c-1.4,0-2.5,1.1-2.5,2.5v24.2c0,1.4,1.1,2.5,2.5,2.5h7.1c1.4,0,2.5-1.1,2.5-2.5V77.5
			C258.9,76.1,257.8,75,256.4,75z"/>
		<path class="st15" d="M231.4,82.2h-7.1c-1.4,0-2.5,1.1-2.5,2.5v17c0,1.4,1.1,2.5,2.5,2.5h7.1c1.4,0,2.5-1.1,2.5-2.5v-17
			C233.9,83.3,232.8,82.2,231.4,82.2z"/>
		<g>
			<path class="st16" d="M219.1,48.5c0,0.6-0.5,1.2-1.2,1.2c-0.6,0-1.1-0.5-1.1-1.2s0.5-1.1,1.1-1.1
				C218.6,47.3,219.1,47.9,219.1,48.5z"/>
		</g>
		<g>
			<path class="st16" d="M224.5,48.5c0,0.6-0.5,1.2-1.1,1.2c-0.6,0-1.2-0.5-1.2-1.2s0.5-1.1,1.2-1.1C224,47.3,224.5,47.9,224.5,48.5
				z"/>
		</g>
		<g>
			<path class="st16" d="M229.9,48.5c0,0.6-0.5,1.2-1.1,1.2c-0.6,0-1.2-0.5-1.2-1.2s0.5-1.1,1.2-1.1
				C229.4,47.3,229.9,47.9,229.9,48.5z"/>
		</g>
		<g>
			<path class="st16" d="M235.3,48.5c0,0.6-0.5,1.2-1.1,1.2s-1.1-0.5-1.1-1.2s0.5-1.1,1.1-1.1S235.3,47.9,235.3,48.5z"/>
		</g>
		<g>
			<path class="st16" d="M219.1,53.9c0,0.6-0.5,1.1-1.2,1.1c-0.6,0-1.1-0.5-1.1-1.1c0-0.6,0.5-1.2,1.1-1.2
				C218.6,52.8,219.1,53.3,219.1,53.9z"/>
		</g>
		<g>
			<path class="st16" d="M224.5,53.9c0,0.6-0.5,1.1-1.1,1.1c-0.6,0-1.2-0.5-1.2-1.1c0-0.6,0.5-1.2,1.2-1.2
				C224,52.8,224.5,53.3,224.5,53.9z"/>
		</g>
		<g>
			<path class="st16" d="M229.9,53.9c0,0.6-0.5,1.1-1.1,1.1c-0.6,0-1.2-0.5-1.2-1.1c0-0.6,0.5-1.2,1.2-1.2
				C229.4,52.8,229.9,53.3,229.9,53.9z"/>
		</g>
		<g>
			<path class="st16" d="M235.3,53.9c0,0.6-0.5,1.1-1.1,1.1s-1.1-0.5-1.1-1.1c0-0.6,0.5-1.2,1.1-1.2S235.3,53.3,235.3,53.9z"/>
		</g>
		<path class="st17" d="M48.2,64.4l-5.8,11.7h12L48.2,64.4z"/>
		<g>
			<path class="st18" d="M66.9,33.7l-1.2-1.2l-1.7,1.7l-1.7-1.7l-1.2,1.2l1.7,1.7l-1.7,1.7l1.2,1.2l1.7-1.7l1.7,1.7l1.2-1.2
				l-1.7-1.7L66.9,33.7z"/>
		</g>
		<path class="st18" d="M258.7,31.9c0.5-2.2-0.8-4.4-3.1-5c-2.2-0.5-4.4,0.8-5,3.1c-0.5,2.2,0.8,4.4,3.1,5
			C256,35.5,258.2,34.1,258.7,31.9z"/>
		<path class="st11" d="M176.4,21.6v1.6h7.1v7.5h2v-9.1H176.4z"/>
		<path class="st18" d="M182.4,24.1h-9.1v9.1h9.1V24.1z"/>
		<path class="st17" d="M302.6,106.2l0.9,2.7c0,0.2,0.2,0.3,0.4,0.3h2.9c0.4,0,0.5,0.5,0.2,0.7l-2.3,1.7c-0.1,0.1-0.2,0.3-0.1,0.4
			l0.9,2.7c0.1,0.4-0.3,0.7-0.6,0.4l-2.3-1.7c-0.1-0.1-0.3-0.1-0.5,0l-2.3,1.7c-0.3,0.2-0.7-0.1-0.6-0.4l0.9-2.7
			c0-0.2,0-0.3-0.1-0.4l-2.3-1.7c-0.3-0.2-0.1-0.7,0.2-0.7h2.9c0.2,0,0.3-0.1,0.4-0.3l0.9-2.7C302,105.8,302.5,105.8,302.6,106.2
			L302.6,106.2z"/>
		<path class="st19" d="M95.6,195.5H63.5l-5.9-42.8h32.1L95.6,195.5z"/>
		<path class="st15" d="M47.6,152.7l-10.8,32.2c-2.1,6.3-8.1,10.6-14.8,10.6h41.4c6.7,0,12.6-4.3,14.8-10.6L89,152.7H47.6z"/>
		<path class="st12" d="M45.9,157.9h41.4l1.7-5.2H47.6L45.9,157.9z"/>
		<g>
			<path class="st16" d="M51.7,156.4h-2.2l0.9-2.8h2.2L51.7,156.4z"/>
		</g>
		<path class="st20" d="M52.9,149.1c-1.4,0-2.5,1.1-2.5,2.5v3.5c0,0.3,0.2,0.5,0.5,0.5c0.3,0,0.5-0.2,0.5-0.5v-3.5
			c0-0.8,0.7-1.5,1.5-1.5c0.8,0,1.5,0.7,1.5,1.5v1.1h1v-1.1C55.4,150.3,54.3,149.1,52.9,149.1L52.9,149.1z"/>
		<g>
			<path class="st16" d="M59.6,156.4h-2.2l0.9-2.8h2.2L59.6,156.4z"/>
		</g>
		<path class="st20" d="M60.8,149.1c-1.4,0-2.5,1.1-2.5,2.5v3.5c0,0.3,0.2,0.5,0.5,0.5c0.3,0,0.5-0.2,0.5-0.5v-3.5
			c0-0.8,0.7-1.5,1.5-1.5s1.5,0.7,1.5,1.5v1.1h1v-1.1C63.3,150.3,62.2,149.1,60.8,149.1L60.8,149.1z"/>
		<g>
			<path class="st16" d="M67.5,156.4h-2.2l0.9-2.8h2.2L67.5,156.4z"/>
		</g>
		<path class="st20" d="M68.7,149.1c-1.4,0-2.5,1.1-2.5,2.5v3.5c0,0.3,0.2,0.5,0.5,0.5s0.5-0.2,0.5-0.5v-3.5c0-0.8,0.7-1.5,1.5-1.5
			s1.5,0.7,1.5,1.5v1.1h1v-1.1C71.2,150.3,70.1,149.1,68.7,149.1L68.7,149.1z"/>
		<g>
			<path class="st16" d="M75.4,156.4h-2.2l0.9-2.8h2.2L75.4,156.4z"/>
		</g>
		<path class="st20" d="M76.6,149.1c-1.4,0-2.5,1.1-2.5,2.5v3.5c0,0.3,0.2,0.5,0.5,0.5s0.5-0.2,0.5-0.5v-3.5c0-0.8,0.7-1.5,1.5-1.5
			s1.5,0.7,1.5,1.5v1.1h1v-1.1C79.1,150.3,78,149.1,76.6,149.1L76.6,149.1z"/>
		<g>
			<path class="st16" d="M83.3,156.4h-2.2l0.9-2.8h2.2L83.3,156.4z"/>
		</g>
		<path class="st20" d="M84.5,149.1c-1.4,0-2.5,1.1-2.5,2.5v3.5c0,0.3,0.2,0.5,0.5,0.5s0.5-0.2,0.5-0.5v-3.5c0-0.8,0.7-1.5,1.5-1.5
			s1.5,0.7,1.5,1.5v1.1h1v-1.1C87,150.3,85.9,149.1,84.5,149.1L84.5,149.1z"/>
		<path class="st21" d="M54.3,166.4H48l2.4-6.9h6.4L54.3,166.4z"/>
		<path class="st21" d="M51,176.4h-6.4l2.4-7h6.4L51,176.4z"/>
		<path class="st21" d="M47.5,186.8h-6.4l2.4-6.9h6.4L47.5,186.8z"/>
		<path class="st21" d="M64.8,166.4h-6.4l2.4-6.9h6.4L64.8,166.4z"/>
		<g>
			<path class="st16" d="M58.4,187.5H52l2.4-6.9h6.4L58.4,187.5z"/>
		</g>
		<g>
			<path class="st16" d="M72.4,177.1h-6.4l2.4-6.9h6.4L72.4,177.1z"/>
		</g>
		<path class="st11" d="M61.5,176.4h-6.4l2.4-7h6.4L61.5,176.4z"/>
		<path class="st21" d="M58,186.8h-6.4l2.4-6.9h6.4L58,186.8z"/>
		<path class="st21" d="M75.3,166.4h-6.4l2.4-6.9h6.4L75.3,166.4z"/>
		<path class="st21" d="M72,176.4h-6.4l2.4-7h6.4L72,176.4z"/>
		<path class="st11" d="M68.4,186.8H62l2.4-6.9h6.4L68.4,186.8z"/>
		
			<linearGradient id="SVGID_8_" gradientUnits="userSpaceOnUse" x1="87.6071" y1="125.6379" x2="111.7073" y2="148.4779" gradientTransform="matrix(1 0 0 -1 0 321.2756)">
			<stop  offset="0" style="stop-color:#83DDDE"/>
			<stop  offset="1" style="stop-color:#BBF1F2"/>
		</linearGradient>
		<path class="st22" d="M95.2,196.5l-8.6-1.4c0,0,0.1-1.3,1.2-3c1.2-1.6,1.4-1.4,1.4-3.2c0.1-1.8,0.3-3.2,2.4-5.1
			c2.2-1.9,2.7-1.2,3.4-2.7c0.7-1.5,0.7-2.9,3.6-3.6c2.9-0.7,3-0.2,5.2-1.9c2.1-1.7,2.9-2.5,9.2-1.5c-0.1,3.7-1.8,6.9-5.2,8.1
			c-3.4,1.3-3.8,2.2-4.3,3.9s-1.3,2.6-3.1,3.4c-1.8,0.9-1.7,1.8-2.5,4.2C97.1,196.2,95.2,196.5,95.2,196.5L95.2,196.5z"/>
		<path class="st2" d="M90.8,195.1c0.1,0,0.2,0,0.2-0.1c0-0.1,3.9-9.1,17.8-18.2c0.1-0.1,0.1-0.2,0.1-0.3c-0.1-0.1-0.2-0.1-0.3-0.1
			c-14.1,9.2-18,18.3-18,18.4C90.6,194.9,90.6,195.1,90.8,195.1C90.8,195.1,90.8,195.1,90.8,195.1L90.8,195.1z"/>
		<path class="st23" d="M299.6,203.7H17.1v-2.8c0-3.1,2.5-5.5,5.5-5.5h271.5c3,0,5.5,2.5,5.5,5.5L299.6,203.7L299.6,203.7z"/>
		<path class="st24" d="M90.3,116.3c-1-0.7-3.3-1-4.4,0.7c-1.2,1.6-9.2,11.2-3.8,12.9c5.4,1.7,9.7-0.8,10.1-2.7c0.5-1.9,0-4.2-1-6.4
			C90.1,118.6,90.3,116.3,90.3,116.3L90.3,116.3z"/>
		<path class="st25" d="M99.9,172.6c0.3-0.5,0.6-1.6,0.5-3c-0.1-0.6-0.2-1.2-0.3-2c-0.1-0.4-0.1-0.8-0.2-1.2l2.6,0.7
			c0,0.5-0.1,0.9-0.1,1.3c-0.1,0.9-0.1,1.7,0.1,2.6c0,0.3,0.1,0.5,0.2,0.6c0.2,0.4,1.7,1.9,2.4,3.1c0.1,0.2,1.6,0.4,1.4,0.8
			c-0.1,0.1-2.8,0.3-3.1,0c-0.3-0.3-1-1-1.8-1.2c-0.1,0-0.1,1.3-0.1,1.3h-1.2c0,0-0.1-1.2-0.2-1.5
			C100.1,173.7,99.7,173.2,99.9,172.6L99.9,172.6z"/>
		<path class="st24" d="M105.1,174.7c-0.5,0.1-1,0.2-1.2,0.1c-0.2-0.1-1.9-2.2-3.8-2.7c-0.1,0.2-0.2,0.4-0.2,0.6
			c-0.3,0.5,0.1,1.1,0.2,1.4c0.1,0.4,0.2,1.5,0.2,1.5h1.2c0,0,0-1.3,0-1.3c0.8,0.2,1.5,0.9,1.8,1.2c0.3,0.3,3,0.1,3.2,0
			C106.7,175.1,105.3,174.9,105.1,174.7L105.1,174.7z"/>
		<path class="st25" d="M101.8,155.7c0.4-0.4,1-1.3,1.3-2.8c0.1-0.6,0.2-1.2,0.3-2c0.1-0.4,0.1-0.8,0.2-1.2l2.3,1.4
			c-0.2,0.4-0.3,0.9-0.5,1.2c-0.3,0.8-0.5,1.6-0.6,2.5c0,0.3,0,0.5,0,0.6c0.1,0.5,1.1,2.3,1.4,3.7c0,0.2,1.4,0.8,1.1,1.1
			c-0.2,0-2.8-0.5-3-0.9c-0.2-0.4-0.7-1.3-1.4-1.6c-0.1,0-0.4,1.2-0.4,1.2l-1.1-0.3c0,0,0.2-1.2,0.2-1.5
			C101.6,156.8,101.4,156.1,101.8,155.7L101.8,155.7z"/>
		<path class="st24" d="M106.2,159.1c-0.5-0.1-1-0.1-1.2-0.3c-0.2-0.2-1.2-2.6-2.8-3.7c-0.1,0.2-0.3,0.4-0.4,0.5
			c-0.4,0.4-0.2,1.1-0.2,1.4c-0.1,0.3-0.2,1.5-0.2,1.5l1.1,0.3c0,0,0.4-1.2,0.4-1.2c0.7,0.4,1.2,1.3,1.4,1.7c0.2,0.4,2.9,0.9,3,0.9
			C107.6,160,106.3,159.4,106.2,159.1L106.2,159.1z"/>
		<path class="st26" d="M91.7,125c3.7,1.7,3,10.1,13.5,1.8l1.1,1.6c-1.7,3.2-5.6,7.6-10.3,7.4c-4.7-0.2-7.1-3-7.1-3L91.7,125
			L91.7,125z"/>
		<path class="st10" d="M90.1,124.8l1.6,0.2c0.2,2.2,2.2,4.7,2.3,5.9c0.1,1.2-1.5,3.1-2.2,4.3c-0.7,1.2-0.7,2.2-0.7,2.2h-6.9
			c0-0.3-1.7-8-1.5-9.9c0.2-1.9,2.7-2.6,2.7-2.6S88,125.1,90.1,124.8L90.1,124.8z"/>
		<path class="st24" d="M87.8,122.3c-1.7,0.3-2.6-1.2-2.1-2.5c-0.1-2.5,0.9-4.9,4.6-3.6c1.8,0.2,2.6,2.7,1,3.3
			C89.3,121.4,87.8,122.3,87.8,122.3L87.8,122.3z"/>
		<path class="st25" d="M89.3,123.3c-0.1,0.7-0.1,0.8,0.8,1.5c0,3.1-4.6,0.6-4.5,0.1c0-0.1,0.8-0.2,1.1-0.8c0.3-0.5,0.5-1.9,0.3-3.7
			c0.7,0.2,0.9-0.4,1-1.3c0-1,0.5-2.5,2.4-2.3c0.7,0.9,1.1,1.4,1,2.5c-0.1,1.1,0.1,1.9-0.1,2.5C91.2,122.3,90.6,123.3,89.3,123.3
			L89.3,123.3z"/>
		<rect x="89.9" y="120.4" class="st27" width="1" height="1"/>
		<path class="st25" d="M86.1,120.8c0,0.3,0.3,0.6,0.6,0.6s0.6-0.3,0.6-0.6s-0.3-0.6-0.6-0.6S86.1,120.4,86.1,120.8z"/>
		<g>
			<path class="st28" d="M86.8,121.1C86.8,121.1,86.8,121.1,86.8,121.1C86.8,121,86.8,121,86.8,121.1c0-0.1-0.1-0.1-0.1-0.2
				s0-0.1,0.1-0.1s0.1,0,0.1,0c0,0,0,0,0,0c0,0,0,0,0,0c0-0.1-0.1-0.2-0.2-0.3c-0.1-0.1-0.3,0-0.4,0.1c0,0,0,0,0,0c0,0,0,0,0.1,0
				c0.1-0.1,0.2-0.1,0.3-0.1c0.1,0,0.2,0.1,0.2,0.2c0,0-0.1,0-0.2,0c-0.1,0-0.1,0.1-0.1,0.2C86.7,121,86.7,121,86.8,121.1
				C86.8,121.1,86.8,121.1,86.8,121.1L86.8,121.1z"/>
		</g>
		<g>
			<path class="st28" d="M89.2,123.3C89.2,123.3,89.2,123.3,89.2,123.3c-1-0.3-1.7-1.1-2-2.1c0,0,0,0,0,0c0,0,0,0,0,0
				C87.5,122.2,88.2,122.9,89.2,123.3C89.2,123.2,89.2,123.2,89.2,123.3C89.2,123.3,89.2,123.3,89.2,123.3L89.2,123.3z"/>
		</g>
		<path class="st24" d="M88.2,119.1C88.2,119.1,88.2,119.1,88.2,119.1C88.2,119.1,88.2,119.1,88.2,119.1c0.3-0.5,1-0.9,1.3-0.3
			c0,0,0,0,0,0.1c0,0,0,0-0.1,0C89.3,118.8,88.7,118.8,88.2,119.1C88.2,119.1,88.2,119.1,88.2,119.1L88.2,119.1z"/>
		<path class="st24" d="M91.2,119.2C91.2,119.2,91.2,119.2,91.2,119.2c0,0-0.2-0.2-0.7-0.2c0,0,0,0,0,0c0,0,0,0,0,0
			C90.8,118.4,91.3,119.1,91.2,119.2C91.3,119.1,91.3,119.1,91.2,119.2C91.3,119.2,91.3,119.2,91.2,119.2L91.2,119.2z"/>
		<path class="st24" d="M90.4,121.1C90.4,121.1,90.4,121.1,90.4,121.1C90.4,121.1,90.4,121.1,90.4,121.1c0.2-0.2,0.4-0.4,0.4-0.5
			c0,0-0.1,0-0.2,0c-0.1,0-0.3,0-0.4-0.1c-0.2-0.1,0-0.9,0.2-1.3c0,0,0,0,0.1,0c0,0,0,0,0,0.1c-0.2,0.5-0.3,1.2-0.2,1.2
			c0.1,0,0.2,0,0.3,0.1c0.2,0,0.2,0,0.2,0.1S90.6,120.9,90.4,121.1C90.4,121.1,90.4,121.1,90.4,121.1L90.4,121.1z"/>
		<path class="st24" d="M89,120.3c0.1,0,0.2-0.2,0.2-0.4c0-0.2-0.1-0.4-0.2-0.4c-0.1,0-0.2,0.2-0.2,0.4
			C88.8,120.1,88.9,120.3,89,120.3z"/>
		<g>
			<path class="st28" d="M89,120.4c-0.1,0-0.2,0-0.3-0.3c0,0,0,0,0,0c0,0,0,0,0,0C88.8,120.4,88.9,120.4,89,120.4
				C89,120.4,89,120.4,89,120.4C89,120.4,89,120.4,89,120.4C89,120.4,89,120.4,89,120.4L89,120.4z"/>
		</g>
		<path class="st24" d="M90.7,120.3c0.1,0,0.2-0.2,0.2-0.4s-0.1-0.4-0.2-0.4s-0.2,0.2-0.2,0.4S90.6,120.3,90.7,120.3z"/>
		<g>
			<path class="st28" d="M90.7,120.5c-0.1,0-0.2,0-0.3-0.3c0,0,0,0,0,0c0,0,0,0,0,0C90.5,120.4,90.6,120.4,90.7,120.5
				C90.7,120.4,90.7,120.4,90.7,120.5C90.7,120.5,90.7,120.5,90.7,120.5C90.7,120.5,90.7,120.5,90.7,120.5L90.7,120.5z"/>
		</g>
		<path class="st29" d="M88.7,120.8c-0.1,0.1-0.2,0.2-0.1,0.2C88.6,121,88.7,120.9,88.7,120.8c0.2-0.1,0.2-0.2,0.2-0.2
			C88.9,120.6,88.8,120.7,88.7,120.8z"/>
		<path class="st29" d="M89,120.8c-0.1,0.1-0.2,0.2-0.1,0.2C88.9,121,88.9,121,89,120.8c0.1-0.1,0.2-0.2,0.2-0.2
			C89.1,120.6,89.1,120.7,89,120.8z"/>
		<path class="st29" d="M89.2,120.8c-0.1,0.1-0.1,0.2-0.1,0.2C89.1,121.1,89.2,121,89.2,120.8c0.2-0.1,0.2-0.2,0.2-0.2
			C89.4,120.6,89.3,120.7,89.2,120.8z"/>
		<path class="st10" d="M87.1,121.5c0,0.1-0.1,0.3-0.3,0.3s-0.3-0.1-0.3-0.3c0-0.2,0.1-0.3,0.3-0.3S87.1,121.4,87.1,121.5z"/>
		<g>
			<path class="st28" d="M89.4,121.6c0.7-0.2,1.4-0.1,1.4,0.1C90.4,121.8,89.6,121.7,89.4,121.6z"/>
		</g>
		<g>
			<path class="st28" d="M90.1,122.4c-0.1,0-0.3,0-0.4-0.1c0,0,0,0,0,0c0,0,0,0,0,0c0.2,0.2,0.7,0,0.7,0c0,0,0,0,0.1,0
				c0,0,0,0,0,0.1C90.5,122.4,90.3,122.4,90.1,122.4L90.1,122.4z"/>
		</g>
		<g>
			<path class="st28" d="M90.8,121.7c-0.3,0.7-0.8,0.7-1.4-0.1C89.9,121.8,90.4,121.8,90.8,121.7z"/>
		</g>
		<path class="st24" d="M90.2,121.8c-0.3,0-0.7-0.1-1-0.2c0,0,0,0,0,0c0,0,0,0,0,0c0.4,0.2,1.3,0.2,1.4,0.1c0,0,0,0,0.1,0s0,0,0,0.1
			C90.7,121.8,90.5,121.8,90.2,121.8z"/>
		<path class="st30" d="M91.4,137.9c0,0,2.2,1.9,2.5,1.9c0.4,0,8.4-6.5,11.2-6.3c2.8,0.3,3.9,3.4,3.2,7.4c-0.6,4-2.6,14.4-2.6,14.4
			l-5.6-1.5c0,0,2.6-12,1.9-11.6c-0.7,0.4-6.3,4.8-6.3,4.8l-8.1-1.1l0.4-7.4l1.9-0.9L91.4,137.9L91.4,137.9z"/>
		<g>
			<path class="st31" d="M105.8,153.5C105.8,153.5,105.8,153.5,105.8,153.5c0.1-0.1,0.1-0.2,0-0.2l-4.2-1.2c0,0-0.1,0-0.1,0.1
				s0,0.1,0.1,0.1L105.8,153.5L105.8,153.5L105.8,153.5z"/>
		</g>
		<path class="st32" d="M84.6,137.9c0,0-3,5.2-1.5,8.9c1.6,3.8,11.3,4.2,12.3,6.4c0.9,2.2,3.7,17.1,3.7,17.1h6.4
			c0,0-1.2-15.9-3.5-20.2c-2.4-4.3-9.1-7.5-10.1-8.2c-1-0.7-1.9-4.4-1.9-4.4L84.6,137.9L84.6,137.9z"/>
		<path class="st24" d="M84.2,137.9h7.2v-0.7h-7.2V137.9z"/>
		<path class="st33" d="M87.8,137h-0.3v1h0.3V137z"/>
		<path class="st33" d="M85.4,137H85v1h0.3V137z"/>
		<g>
			<path class="st31" d="M85.2,142.7C85.2,142.7,85.2,142.7,85.2,142.7c1.6-0.4,2.4-2.1,2-4.4c0-0.1-0.1-0.1-0.1-0.1
				c-0.1,0-0.1,0.1-0.1,0.1c0.4,2.2-0.4,3.8-1.9,4.2C85.1,142.6,85.1,142.6,85.2,142.7C85.1,142.7,85.1,142.7,85.2,142.7L85.2,142.7
				z"/>
		</g>
		<g>
			<path class="st31" d="M100.9,168.8C100.9,168.8,100.9,168.8,100.9,168.8c0.1,0,0.1-0.1,0.1-0.1c-0.1-0.6-2.7-14.2-4-16.8
				c-0.9-1.7-4.3-2.6-7.2-3.3c-1.6-0.4-3-0.8-3.6-1.2c-1.7-1.2-1.5-5.4-0.8-8.8c0-0.1,0-0.1-0.1-0.1c0,0-0.1,0-0.1,0.1
				c-0.8,3.5-1,7.8,0.8,9c0.6,0.4,2,0.8,3.7,1.2c2.8,0.7,6.2,1.6,7,3.3C98.1,154.5,100.8,168.5,100.9,168.8
				C100.8,168.7,100.8,168.8,100.9,168.8z"/>
		</g>
		<g>
			<path class="st31" d="M105.1,169.1C105.1,169.1,105.2,169,105.1,169.1c0.1-0.1,0-0.2,0-0.2l-6,0c0,0-0.1,0-0.1,0.1s0,0.1,0.1,0.1
				L105.1,169.1z"/>
		</g>
		<path class="st25" d="M79.9,133c0,0-1,3.2-0.9,6.1c0.1,2.9,1.4,6.8,1.4,7.2c0.1,1.2,1,1.8,1.8,1.7c0.7-0.1,1.2-0.2,1.2,0
			c0.1,0.2,0.6,0.6,0.8,0.6c0.3,0.2,0.4,0.1,0.4,0.1c0.2,0.1,0.4-0.1,0.4-0.1s0-0.6-0.1-0.7s-0.2-0.5-0.2-0.5s0.3,0.3,0.3,0.4
			c0,0.2,0,0.6,0.2,0.7c0.2-0.4,0.1-0.8,0.1-1c0-0.2-0.5-0.9-0.9-1c-0.4-0.1-2,0-2.2-0.2s0.4-7.4,0.5-8c0.1-0.7,1.5-4.5,1.5-4.5
			L79.9,133L79.9,133z"/>
		<g>
			<path class="st28" d="M84.6,147.3C84.6,147.3,84.6,147.3,84.6,147.3l-0.3-0.3c0,0,0,0,0-0.1c0,0,0,0,0.1,0L84.6,147.3
				C84.6,147.2,84.6,147.3,84.6,147.3C84.6,147.3,84.6,147.3,84.6,147.3L84.6,147.3z"/>
		</g>
		<g>
			<path class="st28" d="M84.5,148.5c0,0-0.1-0.6-0.1-0.6c0,0-0.2-0.3-0.3-0.5c0,0,0-0.1,0-0.1c0,0,0.1,0,0.1,0
				c0.1,0.1,0.3,0.5,0.3,0.6C84.5,148,84.6,148.5,84.5,148.5L84.5,148.5L84.5,148.5z"/>
		</g>
		<g>
			<path class="st28" d="M84.1,148.5C84.1,148.5,84.1,148.5,84.1,148.5c0,0-0.2-0.4-0.2-0.4c0,0-0.2-0.2-0.3-0.4c0,0,0-0.1,0-0.1
				c0,0,0.1,0,0.1,0c0.1,0.1,0.3,0.4,0.4,0.5C84,148.1,84.1,148.4,84.1,148.5C84.2,148.5,84.2,148.5,84.1,148.5
				C84.1,148.5,84.1,148.5,84.1,148.5L84.1,148.5z"/>
		</g>
		<path class="st26" d="M83.9,125.8c2.2,1.6,1.9,5,0.8,7.7c-1.1,2.7-2,5.5-2,10.7c-2.1,0.4-3,0.1-3,0.1s-1.7-4.8-0.7-9.5
			C80,130.2,82.1,125.8,83.9,125.8L83.9,125.8z"/>
		<path class="st24" d="M90.7,116.7c-0.3,1.5-2.8,1.6-3.2,1.6C87.7,116.7,89.9,116.4,90.7,116.7z"/>
		<path class="st34" d="M111.9,124.9H99.6l-2.1,9.1h12.3L111.9,124.9z"/>
		<path class="st35" d="M112.5,124.9h-12.3L98,134h12.3L112.5,124.9z"/>
		<path class="st34" d="M105.4,130.1h-1.3v-0.5c0-0.5,0.4-0.9,0.9-0.9h1.3v0.5C106.3,129.7,105.9,130.1,105.4,130.1z"/>
		<path class="st35" d="M110.3,133.9H93.2v0.8h17.1V133.9z"/>
		<path class="st25" d="M112.3,129.9c0.9-0.6,1.3-2.9-0.2-3.4c-0.1,0.1-0.1,0.7-0.1,0.7s-2.2,0.2-2.3,0.9c-0.3,0.4,0,0.8,0,0.8
			c0,0.4,0.9,0.7,0.9,0.7s-0.6-0.1-0.6,0.2C110,129.9,111.6,130.1,112.3,129.9L112.3,129.9z"/>
		<g>
			<path class="st28" d="M110.3,128.2c0.5,0,1.3-0.1,1.8-0.3c0,0,0,0,0,0c0,0,0,0,0,0c-0.8,0.4-2.3,0.3-2.3,0.3c0,0,0,0,0,0
				c0,0,0,0,0,0C109.8,128.2,110,128.2,110.3,128.2L110.3,128.2z"/>
		</g>
		<g>
			<path class="st28" d="M111.5,129.1C111.5,129.1,111.5,129.1,111.5,129.1C111.5,129.1,111.5,129.1,111.5,129.1c0,0-0.9,0-1.8-0.3
				c0,0,0,0,0,0c0,0,0,0,0,0C110.6,129.1,111.4,129.1,111.5,129.1L111.5,129.1z"/>
		</g>
		<g>
			<path class="st28" d="M111.1,129.5C111.1,129.5,111.2,129.5,111.1,129.5C111.2,129.5,111.2,129.5,111.1,129.5
				C111.2,129.5,111.2,129.5,111.1,129.5c0.1-0.1-0.2,0-0.5-0.1c0,0,0,0,0,0c0,0,0,0,0,0C110.8,129.5,111,129.5,111.1,129.5
				L111.1,129.5z"/>
		</g>
	</g>
</g>
<g>
	<defs>
		<rect id="SVGID_9_" x="97" y="28" width="158" height="158"/>
	</defs>
	<clipPath id="SVGID_10_">
		<use xlink:href="#SVGID_9_"  style="overflow:visible;"/>
	</clipPath>
	<g class="st36">
		
			<radialGradient id="SVGID_11_" cx="-152.0015" cy="456.4977" r="1" gradientTransform="matrix(77.06 0 0 -77.06 11857.1553 35245.1641)" gradientUnits="userSpaceOnUse">
			<stop  offset="0" style="stop-color:#CCA4FC"/>
			<stop  offset="1" style="stop-color:#674690"/>
		</radialGradient>
		<path class="st37" d="M171.3,105.5L112,86.3c-4.1-1.3-6.2-6-4.4-10c5.7-12.9,14.7-24.1,26.2-32.4c11.5-8.3,24.9-13.4,38.9-14.9
			c4.3-0.4,8.1,2.9,8.1,7.3v62.3C180.8,103.6,176,107.1,171.3,105.5L171.3,105.5z"/>
		
			<radialGradient id="SVGID_12_" cx="-151.3063" cy="455.8792" r="1" gradientTransform="matrix(57.17 0 0 -57.17 8783.3555 26185.2539)" gradientUnits="userSpaceOnUse">
			<stop  offset="0" style="stop-color:#B171FC"/>
			<stop  offset="1" style="stop-color:#674690"/>
		</radialGradient>
		<path class="st38" d="M174.9,116.8l-23.5,32.3c-2.6,3.6-7.8,4.1-11,0.9c-6.7-6.5-11.7-14.6-14.6-23.5c-2.9-8.9-3.6-18.4-2-27.6
			c0.8-4.4,5.2-7.1,9.5-5.7l38,12.3C176,107.1,177.9,112.8,174.9,116.8L174.9,116.8z"/>
		
			<radialGradient id="SVGID_13_" cx="-151.167" cy="455.7553" r="1" gradientTransform="matrix(54.36 0 0 -54.36 8397.1953 24932.5586)" gradientUnits="userSpaceOnUse">
			<stop  offset="0" style="stop-color:#A458FC"/>
			<stop  offset="1" style="stop-color:#674690"/>
		</radialGradient>
		<path class="st39" d="M186.8,116.8l34.8,47.9c2.6,3.5,1.5,8.5-2.3,10.7c-11.6,6.7-24.9,10.3-38.4,10.3c-13.5,0-26.8-3.6-38.4-10.3
			c-3.8-2.2-4.8-7.1-2.3-10.7l34.8-47.9C177.9,112.8,183.8,112.8,186.8,116.8L186.8,116.8z"/>
		
			<radialGradient id="SVGID_14_" cx="-150.7143" cy="455.3526" r="1" gradientTransform="matrix(46.87 0 0 -46.87 7293.126 21460.6641)" gradientUnits="userSpaceOnUse">
			<stop  offset="0" style="stop-color:#B171FC"/>
			<stop  offset="1" style="stop-color:#674690"/>
		</radialGradient>
		<path class="st40" d="M190.4,105.5l43.2-14.1c4.2-1.4,8.6,1.2,9.4,5.6c1.9,10.3,1.3,21.1-2,31.2s-9,19.2-16.6,26.4
			c-3.2,3-8.3,2.5-10.9-1l-26.7-36.8C183.9,112.8,185.7,107.1,190.4,105.5L190.4,105.5z"/>
		
			<radialGradient id="SVGID_15_" cx="-149.3795" cy="454.1652" r="1" gradientTransform="matrix(33.33 0 0 -33.33 5177.7661 15213.8945)" gradientUnits="userSpaceOnUse">
			<stop  offset="0" style="stop-color:#BF8BFC"/>
			<stop  offset="1" style="stop-color:#674690"/>
		</radialGradient>
		<path class="st41" d="M180.8,98.6l0-24.7c0-4.6,4.2-8.1,8.7-7.2c5.9,1.2,11.5,3.7,16.5,7.3c4.9,3.6,9,8.2,12,13.4
			c2.3,4,0.3,9.1-4.1,10.5l-23.5,7.7C185.7,107.1,180.8,103.6,180.8,98.6L180.8,98.6z"/>
		
			<radialGradient id="SVGID_16_" cx="-148.7761" cy="453.6284" r="1" gradientTransform="matrix(29.48 0 0 -29.48 4562.7661 13476.5732)" gradientUnits="userSpaceOnUse">
			<stop  offset="0" style="stop-color:#EDD687"/>
			<stop  offset="0.63" style="stop-color:#EDBD1D"/>
			<stop  offset="1" style="stop-color:#D1A615"/>
		</radialGradient>
		<path class="st42" d="M180.8,127.4c10.3,0,18.7-8.4,18.7-18.7c0-10.3-8.4-18.7-18.7-18.7c-10.3,0-18.7,8.4-18.7,18.7
			C162.1,119,170.5,127.4,180.8,127.4z"/>
		<path class="st30" d="M178.5,105.1c0.2,0,0.4,0.1,0.5,0.2c0.1,0.1,0.2,0.3,0.2,0.4s-0.1,0.4-0.2,0.6l-3.8,6.9
			c-0.2,0.3-0.4,0.4-0.7,0.4c-0.2,0-0.4-0.1-0.5-0.2c-0.1-0.1-0.2-0.3-0.2-0.5c0-0.1,0-0.3,0.1-0.4l3.4-6.2h-3.6
			c-0.5,0-0.7-0.2-0.7-0.6c0-0.4,0.2-0.6,0.7-0.6H178.5z M181.1,113.6c-0.3,0-0.5-0.1-0.6-0.3c-0.2-0.2-0.3-0.4-0.3-0.6
			c0-0.3,0.1-0.5,0.3-0.6c0.2-0.2,0.4-0.3,0.6-0.3s0.5,0.1,0.6,0.3c0.2,0.2,0.3,0.4,0.3,0.6c0,0.3-0.1,0.5-0.3,0.6
			C181.6,113.5,181.4,113.6,181.1,113.6z M188.6,112.3c0.5,0,0.7,0.2,0.7,0.6c0,0.4-0.2,0.6-0.7,0.6h-4.1c-0.5,0-0.7-0.2-0.7-0.6
			c0-0.4,0.2-0.6,0.7-0.6h1.2v-5.5l-1.2,0.7c-0.1,0.1-0.2,0.1-0.3,0.1c-0.2,0-0.3-0.1-0.4-0.2c-0.1-0.1-0.2-0.3-0.2-0.5
			c0-0.2,0.1-0.4,0.3-0.5l1.9-1.2c0.2-0.1,0.5-0.2,0.7-0.2c0.2,0,0.4,0.1,0.5,0.2c0.1,0.1,0.2,0.3,0.2,0.6v6.5H188.6z"/>
	</g>
</g>
<g>
	<defs>
		<rect id="SVGID_17_" x="222" y="122" width="36.4" height="72.6"/>
	</defs>
	<clipPath id="SVGID_18_">
		<use xlink:href="#SVGID_17_"  style="overflow:visible;"/>
	</clipPath>
	<g class="st43">
		<path class="st24" d="M245.7,125.1c0,0.8-0.7,1.5-1.5,1.5c-0.8,0-1.5-0.7-1.5-1.5s0.7-1.5,1.5-1.5
			C245,123.6,245.7,124.2,245.7,125.1L245.7,125.1z"/>
		<path class="st25" d="M230.2,137.3c-3.4,0-5.8-1.3-5.8-1.7s0-2.6-0.2-2.9c-0.1-0.2-1.3-0.3-1.4-0.4c-0.1-0.1-0.3-0.5-0.3-0.5
			c-0.3,0.1-0.7,0.4-0.4,0.9c0.2,0.4,0.8,0.7,0.8,0.7l-0.1,3.2c-0.2,1.5,4.8,5.3,7.2,5.5C231.9,141.6,230.2,137.3,230.2,137.3
			L230.2,137.3z"/>
		<path class="st10" d="M231.7,137.4c-0.2-0.8-1.4-1.3-2.1,0c-0.7,1.3-1.1,4.2-0.3,5c0.8,0.7,1.7,0,1.8-0.4
			C231.3,141.7,231.7,137.4,231.7,137.4L231.7,137.4z"/>
		<path class="st26" d="M240.9,132.7c-2.8,1.4-5.5,4.8-10.1,4.6c-1.6,2.1-1,4.2-0.3,5c2.4,1.1,7.8,0.1,10.2-1.5
			C242.8,139.5,243.6,136.5,240.9,132.7L240.9,132.7z"/>
		<path class="st25" d="M252.9,188.5l-0.4,2.7c0.6,1.5,0.3,3.4,0.3,3.4l-11.1,0c1.2-2.2,6.4-2.4,6.9-3.5c0.5-1.1,0.8-4.3,0.8-4.3
			L252.9,188.5L252.9,188.5z"/>
		<path class="st24" d="M250.4,191.4c0-0.4-0.3-1.8-1.3-2.2c-0.1,0.8-0.3,1.5-0.5,2c-0.5,1.1-5.8,1.3-6.9,3.5l11.1,0
			c0,0,0.2-1.9-0.3-3.4C252.4,191.2,250.4,192.1,250.4,191.4L250.4,191.4z"/>
		<path class="st44" d="M241.9,194.2c-0.1,0.1-0.2,0.3-0.3,0.4l11.1,0c0,0,0-0.2,0-0.4L241.9,194.2L241.9,194.2z"/>
		<path class="st44" d="M249.4,191.7C249.4,191.7,249.3,191.6,249.4,191.7c-0.1,0-0.2-0.5-0.6-0.6c-0.1-0.1-0.3-0.1-0.4,0
			c0,0-0.1,0-0.1,0s0-0.1,0-0.1c0.2-0.1,0.4-0.1,0.5,0C249.3,191.1,249.4,191.6,249.4,191.7C249.5,191.6,249.4,191.6,249.4,191.7
			L249.4,191.7L249.4,191.7z"/>
		<path class="st44" d="M248.4,192.4C248.4,192.4,248.3,192.4,248.4,192.4c-0.1,0-0.2-0.5-0.6-0.6c-0.1-0.1-0.3-0.1-0.4,0
			c0,0-0.1,0-0.1,0c0,0,0-0.1,0-0.1c0.2-0.1,0.4-0.1,0.5,0C248.2,191.8,248.4,192.3,248.4,192.4
			C248.4,192.3,248.4,192.4,248.4,192.4L248.4,192.4L248.4,192.4z"/>
		<path class="st44" d="M246.6,192.9C246.6,192.9,246.6,192.9,246.6,192.9c-0.1,0-0.2-0.5-0.6-0.6c-0.1-0.1-0.3-0.1-0.4,0
			c0,0-0.1,0-0.1,0c0,0,0-0.1,0-0.1c0.2-0.1,0.4-0.1,0.5,0C246.5,192.3,246.7,192.8,246.6,192.9
			C246.7,192.8,246.7,192.9,246.6,192.9L246.6,192.9L246.6,192.9z"/>
		<path class="st25" d="M239.5,188.5l-0.4,2.7c0.6,1.5,0.3,3.4,0.3,3.4h-11.1c1.2-2.2,6.4-2.4,7-3.5c0.6-1.1,0.8-4.3,0.8-4.3
			L239.5,188.5L239.5,188.5z"/>
		<path class="st24" d="M237,191.3c0-0.4-0.3-1.8-1.3-2.2c-0.1,0.8-0.3,1.5-0.5,2c-0.6,1.1-5.8,1.2-7,3.5h11.1c0,0,0.2-1.9-0.3-3.4
			C239.1,191.2,237.1,192.1,237,191.3L237,191.3z"/>
		<path class="st44" d="M228.6,194.2c-0.1,0.1-0.2,0.3-0.3,0.4h11.1c0,0,0-0.2,0-0.4L228.6,194.2L228.6,194.2z"/>
		<path class="st44" d="M236.1,191.6C236.1,191.6,236,191.6,236.1,191.6c-0.1,0-0.2-0.5-0.6-0.6c-0.1-0.1-0.3-0.1-0.4,0
			c0,0-0.1,0-0.1,0s0-0.1,0-0.1c0.2-0.1,0.4-0.1,0.5,0C235.9,191.1,236.1,191.5,236.1,191.6C236.1,191.6,236.1,191.6,236.1,191.6
			L236.1,191.6z"/>
		<path class="st44" d="M235,192.4C235,192.4,235,192.4,235,192.4c-0.1,0-0.2-0.5-0.5-0.6c-0.1-0.1-0.3-0.1-0.4,0c0,0-0.1,0-0.1,0
			c0,0,0-0.1,0-0.1c0.2-0.1,0.4-0.1,0.5,0C234.9,191.8,235.1,192.3,235,192.4C235.1,192.3,235.1,192.4,235,192.4L235,192.4z"/>
		<path class="st44" d="M233.3,192.9C233.3,192.9,233.2,192.9,233.3,192.9c-0.1,0-0.2-0.5-0.5-0.6c-0.1-0.1-0.3-0.1-0.4,0
			c0,0-0.1,0-0.1,0c0,0,0-0.1,0-0.1c0.2-0.1,0.4-0.1,0.5,0C233.2,192.3,233.3,192.8,233.3,192.9
			C233.4,192.8,233.4,192.9,233.3,192.9L233.3,192.9z"/>
		<path class="st32" d="M234.5,190.8h5.6l4.5-20l2.5,20h5.7c0.1-8.2,3.1-33,0.2-40.6h-14.9C236.4,167.2,234.5,190.8,234.5,190.8
			L234.5,190.8z"/>
		<path class="st10" d="M248.7,131.9l-3.6-0.1c-1.8,0.1-4.3,1-4.3,1c-0.5,1-1.9,8.5-2.8,17.4h14.9c0.7-9.2-0.8-16.8-0.8-16.8
			C250.8,132.3,248.7,131.9,248.7,131.9L248.7,131.9z"/>
		<path class="st24" d="M243.5,124.9c-0.5-1,0-2.7,1.1-2.5c1.2,0.2,4.1,0.5,4.4,1.8c0.2,0.8-0.1,2.9-0.4,3.7
			c-0.2,0.7-1.8,1.1-1.8,1.1L243.5,124.9L243.5,124.9z"/>
		<path class="st25" d="M248.7,131.9c-0.8-0.8-0.5-3.2-0.5-3.2l0.1-1.1c-0.5,0.4-0.8-0.3-0.7-0.7s0.2-1.4,0.2-1.4s-0.7,0.3-0.7-0.6
			c-0.4,0.2-2,0.8-3.6,0c-0.1,0.7,0,1.6,0,2.5c0.1,1.9-0.1,3.2,1.6,3.5c0,0.4,0,0.6-0.1,0.8C245.6,132.5,248.4,132,248.7,131.9
			L248.7,131.9z"/>
		<rect x="243.1" y="126.6" class="st27" width="2" height="2"/>
		<path class="st24" d="M244.4,126.7c0,0.2-0.1,0.4-0.2,0.4c-0.1,0-0.2-0.2-0.2-0.4c0-0.2,0.1-0.4,0.2-0.4
			C244.3,126.3,244.4,126.5,244.4,126.7z"/>
		<path class="st24" d="M246.2,126.8c0,0.2-0.1,0.4-0.2,0.4s-0.2-0.2-0.2-0.4c0-0.2,0.1-0.4,0.2-0.4S246.2,126.6,246.2,126.8z"/>
		<g>
			<path class="st28" d="M245.9,127.4C245.9,127.4,245.9,127.4,245.9,127.4C245.9,127.4,245.9,127.4,245.9,127.4
				C245.9,127.4,245.9,127.4,245.9,127.4c0.2-0.1,0.4-0.2,0.4-0.4c0,0,0,0,0,0c0,0,0,0,0,0C246.4,127.2,246.2,127.4,245.9,127.4
				L245.9,127.4z"/>
		</g>
		<path class="st24" d="M244.6,128c-0.3,0-0.9,0-1-0.1c0,0,0,0,0,0c0-0.1,0.1-0.2,0.5-0.6c0.2-0.2,0.5-0.6,0.6-0.6
			c0.1-0.2,0.1-0.5-0.1-0.8c0,0,0,0,0-0.1c0,0,0,0,0,0c0.1,0.3,0.1,0.6,0.1,0.8c0,0.1-0.2,0.3-0.6,0.7c-0.2,0.2-0.4,0.4-0.4,0.5
			C243.8,127.9,244.2,127.9,244.6,128C244.6,127.9,244.6,128,244.6,128C244.6,128,244.6,128,244.6,128L244.6,128z"/>
		<path class="st29" d="M245.6,128c-0.1,0.2-0.2,0.3-0.3,0.3S245.4,128.1,245.6,128c0-0.2,0.1-0.4,0.2-0.3
			C245.8,127.6,245.8,127.8,245.6,128L245.6,128z"/>
		<path class="st29" d="M246,128c-0.1,0.2-0.2,0.3-0.3,0.3s0-0.2,0.2-0.3c0.1-0.2,0.2-0.3,0.3-0.3C246.2,127.6,246.1,127.8,246,128
			L246,128z"/>
		<path class="st29" d="M246.4,128c-0.1,0.2-0.2,0.3-0.3,0.3s0-0.2,0.2-0.3c0.1-0.2,0.2-0.3,0.3-0.3
			C246.6,127.6,246.5,127.8,246.4,128L246.4,128z"/>
		<g>
			<path class="st28" d="M244.8,129.6c-0.1,0-0.3,0-0.4-0.1c0,0,0,0,0-0.1c0,0,0,0,0.1,0c0.3,0.1,0.6,0.1,0.6,0.1c0,0,0,0,0.1,0
				c0,0,0,0,0,0.1C245.1,129.6,245,129.6,244.8,129.6L244.8,129.6z"/>
		</g>
		<path class="st25" d="M249.5,128c0,0.4-0.3,0.7-0.7,0.7s-0.7-0.3-0.7-0.7c0-0.4,0.3-0.7,0.7-0.7S249.5,127.6,249.5,128z"/>
		<g>
			<path class="st28" d="M248.6,128.4C248.6,128.4,248.6,128.4,248.6,128.4C248.6,128.3,248.6,128.3,248.6,128.4
				c0-0.1,0.1-0.2,0.1-0.2c0-0.1,0-0.1-0.1-0.1c0,0-0.1,0-0.2,0c0,0,0,0-0.1,0c0,0,0,0,0,0c0-0.2,0.1-0.3,0.3-0.4
				c0.2-0.1,0.4,0,0.5,0.1c0,0,0,0,0,0.1c0,0-0.1,0-0.1,0c-0.1-0.1-0.3-0.1-0.4-0.1c-0.1,0-0.2,0.1-0.2,0.2c0.1,0,0.1,0,0.2,0
				c0.1,0.1,0.1,0.1,0.1,0.2C248.8,128.2,248.8,128.3,248.6,128.4C248.7,128.4,248.7,128.4,248.6,128.4L248.6,128.4z"/>
		</g>
		<path class="st24" d="M246.7,126.1c0,0-0.6-0.2-1.2-0.2c0,0,0,0,0,0c0,0,0,0,0,0C246.2,125.4,246.7,126,246.7,126.1
			C246.7,126,246.7,126,246.7,126.1C246.7,126,246.7,126,246.7,126.1L246.7,126.1z"/>
		<path class="st24" d="M243.6,126C243.6,126,243.5,126,243.6,126C243.5,126,243.5,126,243.6,126c0.2-0.5,0.7-0.4,0.8-0.2
			c0,0,0,0,0,0c0,0,0,0,0,0C244.3,125.9,243.9,125.9,243.6,126L243.6,126z"/>
		<g>
			<path class="st28" d="M245.3,130.9c1.4-0.1,2.4-0.9,2.8-2.2c0,0,0-0.1,0-0.1c0,0-0.1,0-0.1,0c-0.4,1.3-1.4,2.1-2.7,2.2
				C245.3,130.8,245.2,130.8,245.3,130.9C245.2,130.9,245.3,130.9,245.3,130.9L245.3,130.9z"/>
		</g>
		<path class="st24" d="M244.8,128.7c-0.2,0-0.5,0-0.8-0.1c0,0,0,0,0,0c0,0,0,0,0,0c0.9,0.2,1.9,0,2-0.2c0,0,0,0,0.1,0
			c0,0,0,0,0,0.1C246,128.6,245.4,128.7,244.8,128.7L244.8,128.7z"/>
		<g>
			<path class="st45" d="M244.6,170C244.6,170,244.6,170,244.6,170l-0.8-13.3l-1.1-0.3c0,0-0.1,0-0.1-0.1l0.2-3.5c0,0,0-0.1,0.1-0.1
				c0,0,0.1,0,0.1,0.1l-0.2,3.4l1.1,0.3c0,0,0.1,0,0.1,0.1L244.6,170C244.7,169.9,244.7,170,244.6,170L244.6,170z"/>
		</g>
		<g>
			<path class="st45" d="M239.8,189.8h-4.9c0,0-0.1,0-0.1-0.1s0-0.1,0.1-0.1h4.9C239.8,189.7,239.9,189.8,239.8,189.8
				C239.9,189.8,239.9,189.8,239.8,189.8z"/>
		</g>
		<g>
			<path class="st45" d="M252.2,189.9h-4.8c0,0-0.1,0-0.1-0.1s0-0.1,0.1-0.1h4.8C252.2,189.8,252.3,189.9,252.2,189.9
				C252.3,189.9,252.2,189.9,252.2,189.9z"/>
		</g>
		<g>
			<path class="st45" d="M251.9,155.3c-0.7-0.1-2.8-0.6-2.9-4.2c0,0,0-0.1,0.1-0.1c0,0,0.1,0,0.1,0.1c0.1,2.4,1.1,3.9,2.8,4
				C252,155.1,252,155.2,251.9,155.3C252,155.2,252,155.3,251.9,155.3L251.9,155.3z"/>
		</g>
		<g>
			<path class="st45" d="M252.1,189.2C252,189.2,252,189.2,252.1,189.2c-0.1-0.4,0.9-32.3-0.1-37.6c0,0,0-0.1,0-0.1
				c0,0,0.1,0,0.1,0.1C253.1,156.9,252.1,188.8,252.1,189.2C252.1,189.2,252.1,189.2,252.1,189.2L252.1,189.2z"/>
		</g>
		<path class="st24" d="M245.3,123.5c0,0.8-0.7,1.5-1.5,1.5c-0.8,0-1.5-0.7-1.5-1.5s0.7-1.5,1.5-1.5
			C244.6,122,245.3,122.7,245.3,123.5z"/>
		<path class="st24" d="M253.4,149.6h-15.5v0.9h15.5V149.6z"/>
		<path class="st24" d="M239.1,149.4h-0.5v1.3h0.5V149.4z"/>
		<path class="st24" d="M247.5,149.4H247v1.3h0.5V149.4z"/>
		<g>
			<path class="st46" d="M247.1,134.5C247.1,134.5,247.1,134.5,247.1,134.5l-1.3-2l-1.9,1.3c0,0-0.1,0-0.1,0c0,0,0,0,0-0.1l1.9-1.3
				c0,0,0,0,0,0c0,0,0,0,0,0L247.1,134.5c1.3-0.7,2-1.8,2-1.8c0,0,0,0,0.1,0c0,0,0,0,0,0.1C249.1,132.7,248.4,133.8,247.1,134.5
				C247.1,134.5,247.1,134.5,247.1,134.5L247.1,134.5z"/>
		</g>
		<path class="st47" d="M245.8,132.5c0,0-1.3,0.9-1.3,0.9c-0.2,0.7,0.1,2,0.1,2c0.8-0.1,1.2,0.2,1.2,0.2c0.7-0.4,0.9-1.6,0.9-1.6
			L245.8,132.5L245.8,132.5z"/>
		<path class="st48" d="M244.6,135.4c-1.2,1.4-1.8,5.2-1.5,7.4c0.3,2.2-1.1,4.7-1.1,4.7l1.7,4.3c0,0,3.1-3.6,3.3-3.8
			c0.8-2.1-1.1-4.6-1.4-6.7s0.3-5.9,0.3-5.9C245.4,135.1,244.6,135.4,244.6,135.4L244.6,135.4z"/>
		<path class="st25" d="M253,146.7c-0.9,1.7-4.5,3.4-4.8,3.3c-0.3-0.1-0.8-1.2-1.4-1.2c-0.6,0-2.3,0.7-2.1,1.1s1.3-0.3,1.7-0.2
			c-1.4,0.6-2,1.3-1.8,1.5c0.2,0.2,0.4,0.2,0.4,0.2c0.4,0.4,1.4,0.1,1.9,0.2c0.5,0.1,1.4,0.9,2.2,1c0.8,0.1,1.4-0.7,1.5-0.7
			s7.1-2.4,7.7-4.8c0.5-2.3-3-4.9-3-4.9L253,146.7L253,146.7z"/>
		<path class="st10" d="M256.4,142.6c0.8-0.2,1.4,0.9,1.2,1.7c-0.1,0.7-4.4,3-5.2,2.7s-1-1.2-0.1-1.7
			C253.2,144.7,256.4,142.6,256.4,142.6L256.4,142.6z"/>
		<path class="st26" d="M252.1,133.3c-2.2,1.2-3.4,7.8-2,9.1c1.3,1.3,2.3,3.6,2.3,3.6c1-0.1,4.3-1.8,4.4-2.9
			C255.3,140.4,254.6,134.3,252.1,133.3L252.1,133.3z"/>
		<g>
			<path class="st28" d="M247.4,150.1L247.4,150.1c0,0-0.3-0.2-0.7-0.4c0,0,0,0,0-0.1c0,0,0,0,0.1,0
				C247.1,149.7,247.4,150,247.4,150.1C247.5,150,247.5,150.1,247.4,150.1C247.4,150.1,247.4,150.1,247.4,150.1L247.4,150.1z"/>
		</g>
		<g>
			<path class="st28" d="M245.3,151.2C245.3,151.2,245.3,151.2,245.3,151.2C245.2,151.2,245.2,151.2,245.3,151.2
				c0.4-0.4,1.1-0.8,1.5-0.8c0.4,0.1,0.6,0.2,0.6,0.2c0,0,0,0.1,0,0.1c0,0,0,0-0.1,0c0,0-0.2-0.1-0.6-0.2
				C246.4,150.5,245.8,150.9,245.3,151.2C245.3,151.2,245.3,151.2,245.3,151.2L245.3,151.2z"/>
		</g>
	</g>
</g>
</svg>
