<svg width="260" height="162" viewBox="0 0 260 162" fill="none" xmlns="http://www.w3.org/2000/svg">
<path d="M106.042 1.11255C163.923 -4.26317 194.279 10.5545 201.942 29.3498C204.815 36.3993 192.686 57.3114 197.712 61.0724C204.283 65.9854 202.995 71.4793 211.12 72.5623C263.413 79.533 254.885 150.166 235.221 156.112H26.6875C-4.86943 63.14 48.1517 6.48826 106.042 1.11255Z" fill="#F0F7F7"/>
<path d="M231.827 124.774C231.827 124.774 231.797 124.764 231.778 124.754C231.679 124.705 231.64 124.577 231.699 124.478C238.388 112.161 253.449 99.9332 259.803 99.8052C259.911 99.8052 260.01 99.8938 260.01 100.002C260.01 100.11 259.921 100.209 259.813 100.209C253.557 100.337 238.683 112.457 232.053 124.675C232.004 124.754 231.916 124.793 231.827 124.774Z" fill="#15A3A5"/>
<path d="M259.646 98.8107C259.351 99.6082 258.387 99.9824 258.387 99.9824C258.387 99.9824 257.905 99.0667 258.2 98.2791C258.495 97.4914 259.459 97.1074 259.459 97.1074C259.459 97.1074 259.941 98.0231 259.646 98.8107Z" fill="#15A3A5"/>
<path d="M250.488 103.172C250.429 104.019 249.622 104.659 249.622 104.659C249.622 104.659 248.904 103.921 248.953 103.074C249.012 102.227 249.819 101.587 249.819 101.587C249.819 101.587 250.537 102.326 250.488 103.172Z" fill="#15A3A5"/>
<path d="M255.662 102.306C256.409 102.7 256.655 103.704 256.655 103.704C256.655 103.704 255.691 104.058 254.944 103.665C254.196 103.271 253.95 102.267 253.95 102.267C253.95 102.267 254.914 101.912 255.662 102.306Z" fill="#15A3A5"/>
<path d="M246.946 108.587C247.694 108.981 247.94 109.986 247.94 109.986C247.94 109.986 246.976 110.34 246.228 109.946C245.481 109.552 245.235 108.548 245.235 108.548C245.235 108.548 246.199 108.194 246.946 108.587Z" fill="#15A3A5"/>
<path d="M232.771 147.704L216.324 146.788C216.324 146.788 216.294 144.898 217.848 142.456C219.403 140.015 223.839 139.985 223.79 137.376C223.741 134.767 223.947 132.837 226.859 129.893C229.771 126.949 230.637 128.013 231.512 125.827C232.397 123.641 232.279 121.682 236.303 120.481C240.326 119.28 240.582 119.959 243.464 117.33C246.346 114.701 247.438 113.52 256.449 114.475C256.547 119.693 254.432 124.35 249.661 126.447C244.89 128.544 244.428 129.795 243.838 132.335C243.247 134.875 242.146 136.057 239.726 137.435C237.306 138.804 237.493 140.123 236.47 143.598C235.457 147.074 232.781 147.704 232.781 147.704H232.771Z" fill="url(#paint0_linear_1692_86338)"/>
<path d="M226.436 146.119C226.584 146.139 226.721 146.05 226.771 145.902C226.82 145.774 231.62 132.65 250.684 118.659C250.832 118.551 250.861 118.354 250.753 118.206C250.645 118.059 250.448 118.029 250.3 118.138C231.059 132.256 226.21 145.558 226.161 145.686C226.102 145.853 226.19 146.04 226.357 146.099C226.377 146.099 226.407 146.109 226.436 146.119Z" fill="#15A3A5"/>
<path d="M213.658 156.289C211.415 149.27 214.494 148.787 213.756 146.66C213.019 144.524 211.907 141.176 213.973 139.197C216.039 137.218 216.865 135.308 216.471 133.782C216.078 132.246 214.848 126.733 217.524 124.715C220.209 122.706 221.39 121.712 221.547 118.906C221.705 116.1 221.164 111.787 224.184 110.379C227.213 108.971 228.049 107.376 228.207 104.57C228.364 101.764 231.532 97.2452 239.814 95.5518C242.116 100.859 241.959 103.665 239.982 107.189C238.664 109.539 238.382 111.935 239.136 114.377C240.267 118.039 238.565 120.934 236.519 123.218C234.473 125.502 234.227 126.762 235.004 129.509C235.771 132.266 236.578 135.633 233.607 137.967C230.637 140.3 229.84 142.83 230.351 146.532C230.863 150.234 230.961 150.845 230.961 150.845C230.961 150.845 229.574 154.96 226.859 156.358L213.668 156.299L213.658 156.289Z" fill="url(#paint1_linear_1692_86338)"/>
<path d="M219.658 155.492C219.796 155.492 219.924 155.374 219.944 155.236C219.993 154.921 225.157 123.375 235.575 101.046C235.644 100.888 235.575 100.701 235.427 100.632C235.27 100.563 235.083 100.632 235.014 100.78C224.557 123.188 219.383 154.813 219.334 155.128C219.304 155.295 219.422 155.453 219.59 155.482C219.609 155.482 219.639 155.482 219.658 155.482V155.492Z" fill="#15A3A5"/>
<path d="M234.385 155.521L223.711 154.389C223.711 154.389 223.682 152.745 225.03 150.628C226.377 148.511 226.633 148.826 226.584 146.562C226.545 144.297 226.722 142.624 229.24 140.074C231.768 137.514 232.516 138.449 233.283 136.549C234.05 134.659 233.942 132.945 237.434 131.912C240.926 130.878 241.152 131.459 243.641 129.184C246.14 126.91 247.094 125.876 254.904 126.703C254.993 131.232 253.153 135.269 249.012 137.09C244.871 138.912 244.477 139.995 243.956 142.2C243.444 144.406 242.49 145.43 240.385 146.621C238.29 147.812 238.447 148.954 237.562 151.967C236.677 154.98 234.365 155.521 234.365 155.521H234.385Z" fill="url(#paint2_linear_1692_86338)"/>
<path d="M228.886 154.143C229.014 154.153 229.132 154.084 229.181 153.956C229.22 153.838 233.381 142.456 249.917 130.327C250.045 130.238 250.065 130.061 249.976 129.933C249.888 129.805 249.711 129.785 249.583 129.874C232.889 142.122 228.689 153.651 228.65 153.769C228.601 153.917 228.679 154.074 228.817 154.123C228.837 154.123 228.856 154.133 228.886 154.133V154.143Z" fill="#15A3A5"/>
<path d="M27.8678 124.783C27.8678 124.783 27.8973 124.783 27.9072 124.764C27.9859 124.714 28.0055 124.616 27.9564 124.537C22.0542 114.947 9.43341 105.801 4.32805 105.978C4.23951 105.978 4.17065 106.057 4.17065 106.145C4.17065 106.234 4.24935 106.303 4.33788 106.303C9.36456 106.136 21.8181 115.203 27.6809 124.714C27.7203 124.773 27.799 124.803 27.8678 124.783Z" fill="#15A3A5"/>
<path d="M4.41662 105.171C4.69205 105.791 5.479 106.057 5.479 106.057C5.479 106.057 5.8233 105.309 5.54786 104.679C5.27243 104.058 4.48547 103.792 4.48547 103.792C4.48547 103.792 4.14118 104.541 4.41662 105.171Z" fill="#15A3A5"/>
<path d="M11.9517 108.272C12.0304 108.952 12.7091 109.424 12.7091 109.424C12.7091 109.424 13.2501 108.804 13.1715 108.125C13.0928 107.445 12.414 106.973 12.414 106.973C12.414 106.973 11.873 107.593 11.9517 108.272Z" fill="#15A3A5"/>
<path d="M7.76121 107.8C7.18083 108.154 7.02344 108.961 7.02344 108.961C7.02344 108.961 7.81039 109.208 8.40061 108.853C8.99082 108.499 9.13838 107.691 9.13838 107.691C9.13838 107.691 8.35142 107.445 7.76121 107.8Z" fill="#15A3A5"/>
<path d="M15.0307 112.457C14.4504 112.811 14.293 113.618 14.293 113.618C14.293 113.618 15.0799 113.865 15.6701 113.51C16.2505 113.156 16.4079 112.348 16.4079 112.348C16.4079 112.348 15.621 112.102 15.0307 112.457Z" fill="#15A3A5"/>
<path d="M58.5492 155.876C61.0675 144.898 56.3162 144.573 57.1721 141.226C58.018 137.888 59.287 132.63 55.8933 129.893C52.4995 127.146 50.9945 124.35 51.3978 121.968C51.8011 119.585 52.9619 111.019 48.6238 108.312C44.2857 105.594 42.3478 104.236 41.7477 99.9823C41.1477 95.7388 41.4231 89.093 36.6424 87.3405C31.8518 85.5879 30.3664 83.2644 29.7664 79.0111C29.1663 74.7676 23.7658 68.2892 10.9385 66.7729C8.10544 75.1516 8.70549 79.3951 12.1779 84.5049C14.4863 87.9115 15.2241 91.5216 14.3912 95.3351C13.1419 101.055 16.1029 105.24 19.5163 108.45C22.9297 111.669 23.4511 113.55 22.6346 117.832C21.8181 122.125 21.0213 127.353 25.8513 130.533C30.6812 133.704 32.2158 137.455 31.9108 143.146C31.6059 148.836 31.537 149.781 31.537 149.781C31.537 149.781 34.1733 155.876 38.4917 157.638L58.5591 155.856L58.5492 155.876Z" fill="url(#paint3_linear_1692_86338)"/>
<path d="M49.3025 155.443C49.0861 155.443 48.8893 155.305 48.8303 155.088C48.7123 154.616 36.7997 107.268 18.08 74.6198C17.9522 74.3934 18.0309 74.1078 18.2571 73.97C18.4834 73.842 18.7686 73.9208 18.9064 74.1472C37.6949 106.904 49.6369 154.379 49.755 154.862C49.814 155.118 49.6664 155.374 49.4107 155.433C49.3812 155.433 49.3418 155.443 49.3123 155.443H49.3025Z" fill="#15A3A5"/>
<path d="M24.7004 157.294H39.8493C39.8493 157.294 40.1346 155 38.5508 151.829C36.9671 148.659 36.5736 149.053 36.9671 145.892C37.3605 142.722 37.3605 140.349 34.193 136.391C31.0256 132.434 29.8451 133.615 29.0483 130.848C28.2614 128.072 28.6549 125.699 23.9036 123.72C19.1524 121.741 18.7589 122.529 15.5914 118.965C12.4239 115.401 11.2435 113.815 0.157258 113.815C-0.629697 120.156 1.34753 126.093 6.88572 129.263C12.4239 132.434 12.8174 134.019 13.2207 137.179C13.624 140.34 14.8045 141.935 17.5686 143.914C20.3426 145.892 19.9393 147.478 20.7361 151.829C21.5231 156.181 24.6906 157.294 24.6906 157.294H24.7004Z" fill="url(#paint4_linear_1692_86338)"/>
<path d="M32.6092 156.181C32.4321 156.181 32.2649 156.063 32.2256 155.876C32.1862 155.709 28.0252 139.119 6.62985 119.644C6.47246 119.496 6.45279 119.25 6.60034 119.083C6.74789 118.925 6.99382 118.906 7.16105 119.053C28.763 138.705 32.9535 155.522 32.9928 155.689C33.042 155.906 32.9141 156.112 32.6977 156.161C32.6682 156.161 32.6387 156.171 32.6092 156.171V156.181Z" fill="#15A3A5"/>
<path d="M28.1828 154.606C28.1828 154.606 28.2123 154.606 28.2221 154.586C28.3008 154.537 28.3205 154.438 28.2713 154.36C22.3691 144.77 9.74836 135.623 4.64299 135.801C4.55445 135.801 4.4856 135.879 4.4856 135.968C4.4856 136.057 4.56429 136.126 4.65282 136.126C9.6795 135.958 22.1331 145.026 27.9959 154.537C28.0352 154.596 28.1139 154.625 28.1828 154.606Z" fill="#15A3A5"/>
<path d="M4.73156 135.003C5.00699 135.623 5.79395 135.889 5.79395 135.889C5.79395 135.889 6.13824 135.141 5.8628 134.511C5.58737 133.891 4.80042 133.625 4.80042 133.625C4.80042 133.625 4.45612 134.373 4.73156 135.003Z" fill="#15A3A5"/>
<path d="M12.2666 138.095C12.3453 138.774 13.0241 139.247 13.0241 139.247C13.0241 139.247 13.5651 138.626 13.4864 137.947C13.4077 137.268 12.7289 136.795 12.7289 136.795C12.7289 136.795 12.1879 137.415 12.2666 138.095Z" fill="#15A3A5"/>
<path d="M8.07615 137.632C7.49577 137.986 7.33838 138.794 7.33838 138.794C7.33838 138.794 8.12533 139.04 8.71555 138.685C9.29593 138.331 9.45332 137.524 9.45332 137.524C9.45332 137.524 8.66636 137.277 8.07615 137.632Z" fill="#15A3A5"/>
<path d="M15.3457 142.289C14.7653 142.643 14.6079 143.451 14.6079 143.451C14.6079 143.451 15.3949 143.697 15.9851 143.342C16.5753 142.988 16.7229 142.181 16.7229 142.181C16.7229 142.181 15.9359 141.934 15.3457 142.289Z" fill="#15A3A5"/>
<path d="M92.4867 26.6718L97.7987 19.7602C97.7987 19.7602 108.56 20.4592 110.616 17.4464C112.682 14.4337 114.699 7.82725 112.289 6.01566C109.878 4.19422 88.611 3.47548 86.0436 6.44886C83.4761 9.42225 79.502 17.5154 82.2465 19.0316C84.991 20.5478 92.8015 19.7109 92.8015 19.7109L92.4867 26.6718Z" fill="#E8D4FF"/>
<path d="M201.175 57.7641H196.975C196.896 57.7641 196.827 57.6952 196.827 57.6164V53.4123C196.827 53.3336 196.896 53.2646 196.975 53.2646H201.175C201.254 53.2646 201.323 53.3336 201.323 53.4123V57.6164C201.323 57.6952 201.254 57.7641 201.175 57.7641ZM197.122 57.4687H201.028V53.56H197.122V57.4687Z" fill="#C4B1D9"/>
<path d="M198.765 56.8287C198.765 56.8287 198.686 56.809 198.657 56.7795L197.506 55.5586C197.447 55.4995 197.457 55.4109 197.506 55.3519C197.565 55.2928 197.654 55.3026 197.713 55.3519L198.745 56.4447L200.614 53.9636C200.664 53.8947 200.752 53.8849 200.821 53.9341C200.89 53.9833 200.9 54.0719 200.851 54.1408L198.873 56.7598C198.873 56.7598 198.804 56.8189 198.765 56.8189V56.8287Z" fill="#C4B1D9"/>
<path d="M125.854 23.6293H121.653C121.575 23.6293 121.506 23.5604 121.506 23.4817V19.2776C121.506 19.1988 121.575 19.1299 121.653 19.1299H125.854C125.932 19.1299 126.001 19.1988 126.001 19.2776V23.4817C126.001 23.5604 125.932 23.6293 125.854 23.6293ZM121.801 23.334H125.706V19.4253H121.801V23.334Z" fill="#C4B1D9"/>
<path d="M123.454 22.6939C123.454 22.6939 123.375 22.6742 123.345 22.6447L122.194 21.4239C122.135 21.3648 122.145 21.2762 122.194 21.2171C122.253 21.158 122.342 21.1679 122.401 21.2171L123.434 22.31L125.303 19.8289C125.352 19.7599 125.441 19.7501 125.51 19.7993C125.578 19.8486 125.588 19.9372 125.539 20.0061L123.562 22.625C123.562 22.625 123.493 22.6841 123.454 22.6841V22.6939Z" fill="#C4B1D9"/>
<path d="M94.5623 142.88H90.3619C90.2832 142.88 90.2144 142.811 90.2144 142.732V138.528C90.2144 138.449 90.2832 138.38 90.3619 138.38H94.5623C94.641 138.38 94.7098 138.449 94.7098 138.528V142.732C94.7098 142.811 94.641 142.88 94.5623 142.88ZM90.5095 142.584H94.4147V138.676H90.5095V142.584Z" fill="#C4B1D9"/>
<path d="M92.1621 141.944C92.1621 141.944 92.0834 141.925 92.0539 141.895L90.903 140.674C90.8439 140.615 90.8538 140.527 90.903 140.468C90.962 140.409 91.0505 140.418 91.1095 140.468L92.1424 141.56L94.0114 139.079C94.0606 139.01 94.1491 139.001 94.218 139.05C94.2869 139.099 94.2967 139.188 94.2475 139.257L92.2703 141.876C92.2703 141.876 92.2014 141.935 92.1621 141.935V141.944Z" fill="#C4B1D9"/>
<path d="M38.7182 36.3107C38.7182 36.3107 38.6788 36.3107 38.6592 36.3009L37.3902 35.6314L36.1212 36.3009C36.1212 36.3009 36.0229 36.3206 35.9835 36.291C35.9442 36.2615 35.9245 36.2123 35.9343 36.163L36.1802 34.7453L35.1572 33.741C35.1572 33.741 35.108 33.6623 35.1277 33.613C35.1474 33.5638 35.1867 33.5343 35.2261 33.5244L36.6426 33.3177L37.282 32.0279C37.3213 31.9393 37.4689 31.9393 37.5082 32.0279L38.1476 33.3177L39.5642 33.5244C39.5642 33.5244 39.6527 33.5638 39.6625 33.613C39.6822 33.6623 39.6625 33.7115 39.633 33.741L38.61 34.7453L38.8559 36.163C38.8559 36.163 38.8461 36.2615 38.8067 36.291C38.787 36.3107 38.7575 36.3107 38.728 36.3107H38.7182ZM37.3902 35.3557C37.3902 35.3557 37.4295 35.3557 37.4492 35.3656L38.5509 35.9464L38.3444 34.7157C38.3444 34.7157 38.3444 34.637 38.3837 34.6074L39.2789 33.741L38.0493 33.5638C38.0493 33.5638 37.9706 33.5343 37.9509 33.4949L37.4 32.3725L36.8492 33.4949C36.8492 33.4949 36.7901 33.554 36.7508 33.5638L35.5212 33.741L36.4163 34.6074C36.4163 34.6074 36.4557 34.6764 36.4557 34.7157L36.2491 35.9464L37.3508 35.3656C37.3508 35.3656 37.3902 35.3557 37.4099 35.3557H37.3902Z" fill="#C4B1D9"/>
<path d="M190.069 32.8447H71.2488V121.593H190.069V32.8447Z" fill="white"/>
<path d="M104.026 54.968H80.8989C80.3382 54.968 79.8955 54.5151 79.8955 53.9637C79.8955 53.4124 80.348 52.9595 80.8989 52.9595H104.026C104.586 52.9595 105.029 53.4124 105.029 53.9637C105.029 54.5151 104.576 54.968 104.026 54.968Z" fill="#9ABCBC"/>
<path d="M117.109 54.968H108.688C108.137 54.968 107.685 54.5151 107.685 53.9637C107.685 53.4124 108.137 52.9595 108.688 52.9595H117.109C117.669 52.9595 118.112 53.4124 118.112 53.9637C118.112 54.5151 117.659 54.968 117.109 54.968Z" fill="#9ABCBC"/>
<path d="M92.9688 60.511H80.8989C80.3382 60.511 79.8955 60.0581 79.8955 59.5067C79.8955 58.9553 80.348 58.5024 80.8989 58.5024H92.9688C93.5295 58.5024 93.9722 58.9553 93.9722 59.5067C93.9722 60.0581 93.5197 60.511 92.9688 60.511Z" fill="#9ABCBC"/>
<path d="M113.705 60.511H98.1135C97.5528 60.511 97.1101 60.0581 97.1101 59.5067C97.1101 58.9553 97.5626 58.5024 98.1135 58.5024H113.705C114.266 58.5024 114.708 58.9553 114.708 59.5067C114.708 60.0581 114.256 60.511 113.705 60.511Z" fill="#9ABCBC"/>
<path d="M103.839 65.7292H80.8989C80.3382 65.7292 79.8955 65.2763 79.8955 64.725C79.8955 64.1736 80.348 63.7207 80.8989 63.7207H103.839C104.399 63.7207 104.842 64.1736 104.842 64.725C104.842 65.2763 104.389 65.7292 103.839 65.7292Z" fill="#9ABCBC"/>
<path d="M166.598 78.7453H143.471C142.911 78.7453 142.468 78.2924 142.468 77.7411C142.468 77.1897 142.921 76.7368 143.471 76.7368H166.598C167.159 76.7368 167.601 77.1897 167.601 77.7411C167.601 78.2924 167.149 78.7453 166.598 78.7453Z" fill="#9ABCBC"/>
<path d="M179.671 78.7453H171.251C170.69 78.7453 170.248 78.2924 170.248 77.7411C170.248 77.1897 170.7 76.7368 171.251 76.7368H179.671C180.232 76.7368 180.675 77.1897 180.675 77.7411C180.675 78.2924 180.222 78.7453 179.671 78.7453Z" fill="#9ABCBC"/>
<path d="M155.532 84.2785H143.462C142.901 84.2785 142.458 83.8256 142.458 83.2743C142.458 82.7229 142.911 82.27 143.462 82.27H155.532C156.092 82.27 156.535 82.7229 156.535 83.2743C156.535 83.8256 156.082 84.2785 155.532 84.2785Z" fill="#9ABCBC"/>
<path d="M176.278 84.2785H160.686C160.125 84.2785 159.683 83.8256 159.683 83.2743C159.683 82.7229 160.135 82.27 160.686 82.27H176.278C176.838 82.27 177.281 82.7229 177.281 83.2743C177.281 83.8256 176.828 84.2785 176.278 84.2785Z" fill="#9ABCBC"/>
<path d="M166.411 89.5066H143.471C142.911 89.5066 142.468 89.0537 142.468 88.5023C142.468 87.9509 142.921 87.498 143.471 87.498H166.411C166.972 87.498 167.414 87.9509 167.414 88.5023C167.414 89.0537 166.962 89.5066 166.411 89.5066Z" fill="#9ABCBC"/>
<path d="M166.598 98.7121H143.471C142.911 98.7121 142.468 98.2592 142.468 97.7079C142.468 97.1565 142.921 96.7036 143.471 96.7036H166.598C167.159 96.7036 167.601 97.1565 167.601 97.7079C167.601 98.2592 167.149 98.7121 166.598 98.7121Z" fill="#9ABCBC"/>
<path d="M179.671 98.7121H171.251C170.69 98.7121 170.248 98.2592 170.248 97.7079C170.248 97.1565 170.7 96.7036 171.251 96.7036H179.671C180.232 96.7036 180.675 97.1565 180.675 97.7079C180.675 98.2592 180.222 98.7121 179.671 98.7121Z" fill="#9ABCBC"/>
<path d="M155.532 104.245H143.462C142.901 104.245 142.458 103.792 142.458 103.241C142.458 102.69 142.911 102.237 143.462 102.237H155.532C156.092 102.237 156.535 102.69 156.535 103.241C156.535 103.792 156.082 104.245 155.532 104.245Z" fill="#9ABCBC"/>
<path d="M176.278 104.245H160.686C160.125 104.245 159.683 103.792 159.683 103.241C159.683 102.69 160.135 102.237 160.686 102.237H176.278C176.838 102.237 177.281 102.69 177.281 103.241C177.281 103.792 176.828 104.245 176.278 104.245Z" fill="#9ABCBC"/>
<path d="M166.411 109.473H143.471C142.911 109.473 142.468 109.02 142.468 108.469C142.468 107.918 142.921 107.465 143.471 107.465H166.411C166.972 107.465 167.414 107.918 167.414 108.469C167.414 109.02 166.962 109.473 166.411 109.473Z" fill="#9ABCBC"/>
<path d="M81.9512 106.737C81.9512 106.737 81.4299 102.592 82.7185 103.379C85.8958 105.329 89.3978 103.3 89.7617 102.572C91.9652 98.1708 90.952 85.4995 96.8935 85.4995C102.835 85.4995 100.12 97.0484 103.347 99.5985C106.573 102.148 110.98 90.4223 115.731 90.4223C120.482 90.4223 121.673 99.2539 125.745 99.2539C129.818 99.2539 131.175 95.1778 135.415 94.4984V106.756L81.9611 106.727L81.9512 106.737Z" fill="#91EBEB"/>
<path d="M80.8396 84.2096C80.7511 84.2096 80.6626 84.1801 80.5839 84.1112C80.4363 83.9734 80.4167 83.7371 80.5642 83.5795L81.9414 82.083C82.0102 82.0042 82.1086 81.9648 82.2168 81.9648C82.325 81.9648 82.4234 82.0141 82.4922 82.083L83.7415 83.4614C83.8793 83.6189 83.8694 83.8552 83.712 83.993C83.5546 84.1309 83.3185 84.121 83.1808 83.9635L82.207 82.8903L81.1151 84.0915C81.0364 84.1703 80.938 84.2096 80.8396 84.2096Z" fill="#1F1312"/>
<path d="M138.927 105.585C138.927 105.496 138.956 105.407 139.025 105.329C139.163 105.181 139.399 105.161 139.556 105.309L141.052 106.687C141.13 106.756 141.17 106.855 141.17 106.963C141.17 107.071 141.12 107.17 141.052 107.239L139.674 108.489C139.517 108.627 139.281 108.617 139.143 108.46C139.005 108.302 139.015 108.066 139.173 107.928L140.245 106.953L139.045 105.86C138.966 105.782 138.927 105.683 138.927 105.585Z" fill="#1F1312"/>
<path d="M96.9525 106.776C96.8443 106.776 96.7656 106.697 96.7656 106.589V82.398C96.7656 82.2897 96.8443 82.2109 96.9525 82.2109C97.0607 82.2109 97.1394 82.2897 97.1394 82.398V106.589C97.1394 106.697 97.0607 106.776 96.9525 106.776Z" fill="#1F1312"/>
<path d="M115.564 106.776C115.456 106.776 115.377 106.697 115.377 106.589V82.398C115.377 82.2897 115.456 82.2109 115.564 82.2109C115.672 82.2109 115.751 82.2897 115.751 82.398V106.589C115.751 106.697 115.672 106.776 115.564 106.776Z" fill="#1F1312"/>
<path d="M135.425 106.776C135.316 106.776 135.238 106.697 135.238 106.589V82.398C135.238 82.2897 135.316 82.2109 135.425 82.2109C135.533 82.2109 135.612 82.2897 135.612 82.398V106.589C135.612 106.697 135.533 106.776 135.425 106.776Z" fill="#1F1312"/>
<path d="M82.148 109.897C81.9414 109.897 81.7742 109.729 81.7742 109.523V83.2643C81.7742 83.0575 81.9414 82.8901 82.148 82.8901C82.3546 82.8901 82.5218 83.0575 82.5218 83.2643V109.523C82.5218 109.729 82.3546 109.897 82.148 109.897Z" fill="#1F1312"/>
<path d="M140.235 107.268H79.5215C79.3149 107.268 79.1477 107.101 79.1477 106.894C79.1477 106.687 79.3149 106.52 79.5215 106.52H140.235C140.442 106.52 140.609 106.687 140.609 106.894C140.609 107.101 140.442 107.268 140.235 107.268Z" fill="#1F1312"/>
<path d="M97.6509 84.7904C97.6509 84.4359 97.3656 84.1504 97.0115 84.1504C96.6573 84.1504 96.3721 84.4359 96.3721 84.7904C96.3721 85.1448 96.6573 85.4303 97.0115 85.4303C97.3656 85.4303 97.6509 85.1448 97.6509 84.7904Z" fill="white"/>
<path d="M97.0115 85.6075C96.559 85.6075 96.1951 85.2432 96.1951 84.7903C96.1951 84.3374 96.559 83.9731 97.0115 83.9731C97.464 83.9731 97.828 84.3374 97.828 84.7903C97.828 85.2432 97.464 85.6075 97.0115 85.6075ZM97.0115 84.3374C96.7558 84.3374 96.5492 84.5442 96.5492 84.8002C96.5492 85.0562 96.7558 85.2629 97.0115 85.2629C97.2673 85.2629 97.4739 85.0562 97.4739 84.8002C97.4739 84.5442 97.2673 84.3374 97.0115 84.3374Z" fill="#1F1312"/>
<path d="M115.515 90.8651C115.868 90.8651 116.154 90.5786 116.154 90.2252C116.154 89.8717 115.868 89.5852 115.515 89.5852C115.162 89.5852 114.875 89.8717 114.875 90.2252C114.875 90.5786 115.162 90.8651 115.515 90.8651Z" fill="white"/>
<path d="M115.515 91.0326C115.062 91.0326 114.698 90.6683 114.698 90.2154C114.698 89.7625 115.062 89.3982 115.515 89.3982C115.967 89.3982 116.331 89.7625 116.331 90.2154C116.331 90.6683 115.967 91.0326 115.515 91.0326ZM115.515 89.7625C115.259 89.7625 115.053 89.9692 115.053 90.2252C115.053 90.4812 115.259 90.688 115.515 90.688C115.771 90.688 115.977 90.4812 115.977 90.2252C115.977 89.9692 115.771 89.7625 115.515 89.7625Z" fill="#1F1312"/>
<path d="M135.887 94.4097C135.887 94.0553 135.602 93.7698 135.248 93.7698C134.894 93.7698 134.608 94.0553 134.608 94.4097C134.608 94.7642 134.894 95.0497 135.248 95.0497C135.602 95.0497 135.887 94.7642 135.887 94.4097Z" fill="white"/>
<path d="M135.258 95.2269C134.815 95.2269 134.441 94.8626 134.441 94.4097C134.441 93.9568 134.805 93.5925 135.258 93.5925C135.71 93.5925 136.074 93.9568 136.074 94.4097C136.074 94.8626 135.71 95.2269 135.258 95.2269ZM135.258 93.9568C135.002 93.9568 134.795 94.1636 134.795 94.4196C134.795 94.6756 135.002 94.8823 135.258 94.8823C135.513 94.8823 135.72 94.6756 135.72 94.4196C135.72 94.1636 135.513 93.9568 135.258 93.9568Z" fill="#1F1312"/>
<path d="M159.83 58.2765C159.663 58.1091 160.115 48.9921 160.332 44.7388C167.237 45.0538 172.746 50.7545 172.746 57.7449C172.746 64.7352 166.923 70.7608 159.742 70.7608C152.561 70.7608 147.023 65.2177 146.747 58.2765H159.83Z" fill="#1DCECE"/>
<path d="M158.266 43.0747C158.463 43.0747 158.66 43.0747 158.856 43.0944C158.63 47.3477 158.178 56.4648 158.355 56.6321H145.272C145.272 56.4549 145.262 56.2777 145.262 56.1005C145.262 48.9132 151.085 43.0846 158.266 43.0846V43.0747Z" fill="#F7D15E"/>
<path d="M146.747 58.2764H159.83L156.289 70.2979C150.947 68.8309 146.973 64.0361 146.747 58.2764Z" fill="#9ABCBC"/>
<path d="M170.985 51.2073L159.82 58.2765C159.653 58.1091 160.106 48.9921 160.322 44.7388C164.877 44.9455 168.821 47.4955 170.976 51.2073H170.985Z" fill="#91EBEB"/>
<path d="M167.257 48.4996C167.257 48.4996 167.316 48.4898 167.346 48.4701L170.267 45.861H177.832C177.901 45.861 177.96 45.8019 177.96 45.733C177.96 45.6641 177.901 45.605 177.832 45.605H170.218C170.218 45.605 170.159 45.6148 170.13 45.6345L167.169 48.283C167.119 48.3322 167.11 48.411 167.169 48.4602C167.198 48.4898 167.228 48.4996 167.267 48.4996H167.257Z" fill="#262946"/>
<path d="M170.975 44.7286H178.274C178.383 44.7286 178.461 44.64 178.461 44.5416C178.461 44.4431 178.373 44.3545 178.274 44.3545H170.975C170.867 44.3545 170.789 44.4431 170.789 44.5416C170.789 44.64 170.877 44.7286 170.975 44.7286Z" fill="#262946"/>
<path d="M173.887 43.1534H178.038C178.146 43.1534 178.225 43.0648 178.225 42.9664C178.225 42.8679 178.137 42.7793 178.038 42.7793H173.887C173.779 42.7793 173.7 42.8679 173.7 42.9664C173.7 43.0648 173.789 43.1534 173.887 43.1534Z" fill="#262946"/>
<path d="M167.257 64.2524C167.257 64.2524 167.316 64.2623 167.346 64.282L170.267 66.8911H177.832C177.901 66.8911 177.96 66.9501 177.96 67.0191C177.96 67.088 177.901 67.1471 177.832 67.1471H170.218C170.218 67.1471 170.159 67.1372 170.13 67.1175L167.169 64.469C167.119 64.4198 167.11 64.3411 167.169 64.2918C167.198 64.2623 167.228 64.2524 167.267 64.2524H167.257Z" fill="#262946"/>
<path d="M170.975 68.0332H178.274C178.383 68.0332 178.461 68.1218 178.461 68.2203C178.461 68.3187 178.373 68.4073 178.274 68.4073H170.975C170.867 68.4073 170.789 68.3187 170.789 68.2203C170.789 68.1218 170.877 68.0332 170.975 68.0332Z" fill="#262946"/>
<path d="M173.887 69.6084H178.038C178.146 69.6084 178.225 69.697 178.225 69.7955C178.225 69.8939 178.137 69.9825 178.038 69.9825H173.887C173.779 69.9825 173.7 69.8939 173.7 69.7955C173.7 69.697 173.789 69.6084 173.887 69.6084Z" fill="#262946"/>
<path d="M151.931 47.7511C151.931 47.7511 152 47.7412 152.03 47.7117C152.079 47.6624 152.069 47.5837 152.03 47.5345L149.069 44.886C149.069 44.886 149.02 44.8564 148.98 44.8564H141.366C141.298 44.8564 141.239 44.9155 141.239 44.9844C141.239 45.0534 141.298 45.1124 141.366 45.1124H148.931L151.853 47.7215C151.853 47.7215 151.912 47.7511 151.941 47.7511H151.931Z" fill="#262946"/>
<path d="M140.933 43.9703H148.232C148.341 43.9703 148.419 43.8817 148.419 43.7833C148.419 43.6848 148.331 43.5962 148.232 43.5962H140.933C140.825 43.5962 140.747 43.6848 140.747 43.7833C140.747 43.8817 140.835 43.9703 140.933 43.9703Z" fill="#262946"/>
<path d="M144.012 42.3951H148.164C148.272 42.3951 148.35 42.3065 148.35 42.2081C148.35 42.1096 148.262 42.021 148.164 42.021H144.012C143.904 42.021 143.825 42.1096 143.825 42.2081C143.825 42.3065 143.914 42.3951 144.012 42.3951Z" fill="#262946"/>
<path d="M152.246 65.04C152.246 65.04 152.315 65.0499 152.344 65.0794C152.394 65.1287 152.384 65.2074 152.344 65.2566L149.383 67.9051C149.383 67.9051 149.334 67.9347 149.295 67.9347H141.681C141.612 67.9347 141.553 67.8756 141.553 67.8067C141.553 67.7377 141.612 67.6787 141.681 67.6787H149.246L152.167 65.0696C152.167 65.0696 152.226 65.04 152.256 65.04H152.246Z" fill="#262946"/>
<path d="M141.238 68.811H148.537C148.646 68.811 148.724 68.8996 148.724 68.9981C148.724 69.0966 148.636 69.1852 148.537 69.1852H141.238C141.13 69.1852 141.052 69.0966 141.052 68.9981C141.052 68.8996 141.14 68.811 141.238 68.811Z" fill="#262946"/>
<path d="M144.317 70.3862H148.468C148.577 70.3862 148.655 70.4748 148.655 70.5733C148.655 70.6718 148.567 70.7604 148.468 70.7604H144.317C144.209 70.7604 144.13 70.6718 144.13 70.5733C144.13 70.4748 144.219 70.3862 144.317 70.3862Z" fill="#262946"/>
<path d="M102.471 47.3571H81.2528C80.6823 47.3571 80.22 46.8944 80.22 46.3233C80.22 45.7523 80.6823 45.2896 81.2528 45.2896H102.471C103.042 45.2896 103.504 45.7523 103.504 46.3233C103.504 46.8944 103.042 47.3571 102.471 47.3571Z" fill="#1DCECE"/>
<path d="M109.406 74.5705H79.3249C78.7543 74.5705 78.292 74.1078 78.292 73.5367C78.292 72.9657 78.7543 72.5029 79.3249 72.5029H109.406C109.977 72.5029 110.439 72.9657 110.439 73.5367C110.439 74.1078 109.977 74.5705 109.406 74.5705Z" fill="#1DCECE"/>
<path d="M139.202 31.7324H114.925V34.0658H139.202V31.7324Z" fill="#288D8F"/>
<path d="M109.75 67.4716C109.75 67.4716 111.088 59.9692 114.935 57.3798C117.187 55.8538 121.712 55.3418 121.712 55.3418C121.712 55.3418 127.988 63.809 126.69 65.8372C125.391 67.8654 116.931 72.9261 116.931 72.9261L109.76 67.4716H109.75Z" fill="#FD926D"/>
<path d="M112.003 63.6023C111.6 63.1298 111.482 62.4406 111.757 61.84C113.469 58.1971 115.358 53.6287 115.407 52.6146C115.456 51.7187 116.213 51.0196 117.118 51.0689C118.014 51.1181 118.712 51.8762 118.663 52.782C118.555 54.9087 115.613 61.3182 114.708 63.2381C114.325 64.0552 113.351 64.3998 112.544 64.0159C112.328 63.9174 112.151 63.7796 112.003 63.6122V63.6023Z" fill="#FD926D"/>
<path d="M117.443 62.4505C117.315 62.3815 117.187 62.2831 117.079 62.1748C116.44 61.5348 116.44 60.501 117.079 59.8709C117.128 59.8217 121.751 55.1942 123.758 52.7919L125.844 50.2911C126.424 49.6019 127.447 49.5035 128.136 50.0843C128.824 50.6652 128.923 51.6892 128.342 52.3784L126.257 54.8792C124.152 57.3997 119.568 61.9877 119.381 62.1846C118.859 62.7064 118.063 62.8049 117.443 62.4603V62.4505Z" fill="#FD926D"/>
<path d="M120.374 63.4647C120.217 63.3761 120.069 63.2579 119.942 63.1201C119.351 62.4408 119.41 61.4168 120.089 60.8162C123.08 58.1776 128.175 53.4714 129.1 52.0733C129.601 51.325 130.615 51.1183 131.362 51.6204C132.11 52.1225 132.316 53.1366 131.815 53.8849C130.339 56.1002 123.07 62.5392 122.243 63.2678C121.712 63.7404 120.965 63.7995 120.374 63.4745V63.4647Z" fill="#FD926D"/>
<path d="M122.971 64.6656C122.765 64.5573 122.588 64.3899 122.44 64.193C121.919 63.4644 122.076 62.4405 122.814 61.9186C122.873 61.8793 128.923 57.5078 130.831 55.4993C131.451 54.8495 132.484 54.8298 133.133 55.4501C133.782 56.0703 133.812 57.1041 133.182 57.7539C131.067 59.9692 124.968 64.3801 124.713 64.5671C124.181 64.9511 123.503 64.9708 122.971 64.6656Z" fill="#FD926D"/>
<path d="M123.857 66.7135C123.581 66.5658 123.355 66.3295 123.198 66.0341C122.784 65.2366 123.099 64.2521 123.906 63.8386C123.965 63.809 129.601 60.9144 131.569 59.6345C132.326 59.1422 133.33 59.3588 133.821 60.1169C134.313 60.875 134.097 61.8793 133.339 62.3716C131.234 63.7401 125.617 66.6249 125.381 66.743C124.88 66.999 124.309 66.9695 123.847 66.7135H123.857Z" fill="#FD926D"/>
<path d="M115.918 67.0876C115.918 67.0876 115.918 67.0778 115.908 67.068C115.869 67.0089 115.889 66.9203 115.948 66.8809C120.483 64.006 118.328 59.6542 118.24 59.477C118.21 59.4081 118.24 59.3293 118.299 59.2899C118.368 59.2604 118.446 59.2899 118.486 59.349C118.505 59.3982 120.847 64.1044 116.105 67.1073C116.046 67.1467 115.977 67.127 115.928 67.0778L115.918 67.0876Z" fill="#3B211B"/>
<path d="M126.306 64.6656C126.306 64.6656 126.286 64.6459 126.277 64.636C126.237 64.577 122.745 59.1914 121.299 57.37C121.25 57.3109 121.26 57.2223 121.319 57.1829C121.378 57.1337 121.456 57.1435 121.506 57.2026C122.962 59.0339 126.463 64.4391 126.493 64.4883C126.532 64.5474 126.513 64.636 126.454 64.6754C126.404 64.705 126.336 64.705 126.296 64.6754L126.306 64.6656Z" fill="#3B211B"/>
<path d="M125.362 63.2084C125.362 63.2084 125.332 63.1789 125.313 63.169C125.283 63.1198 125.313 63.0509 125.352 63.0214L129.69 60.6682C129.739 60.6387 129.808 60.6682 129.838 60.7076C129.867 60.7569 129.838 60.8258 129.798 60.8553L125.46 63.2084C125.46 63.2084 125.391 63.2281 125.362 63.2084Z" fill="#3B211B"/>
<path d="M123.906 60.6977C123.906 60.6977 123.876 60.678 123.866 60.6583C123.837 60.6091 123.847 60.5402 123.896 60.5106L127.811 57.8818C127.86 57.8523 127.929 57.8622 127.959 57.9114C127.988 57.9606 127.978 58.0295 127.929 58.0591L124.014 60.6879C124.014 60.6879 123.935 60.7075 123.906 60.6879V60.6977Z" fill="#3B211B"/>
<path d="M122.283 58.4532C122.283 58.4532 122.253 58.4336 122.243 58.4237C122.204 58.3745 122.214 58.3056 122.263 58.276L124.801 56.3955C124.801 56.3955 124.919 56.366 124.948 56.4152C124.988 56.4644 124.978 56.5333 124.929 56.5629L122.391 58.4434C122.391 58.4434 122.312 58.4729 122.273 58.4434L122.283 58.4532Z" fill="#3B211B"/>
<path d="M96.0477 89.9889C109.347 89.7428 120.256 75.0334 122.529 71.745L109.19 62.5098C105.039 68.4664 98.7135 73.6944 95.7821 73.7535C94.6902 72.2569 93.2736 68.0529 92.7621 64.6364L76.7083 66.9895C77.3575 71.4693 80.2889 86.3263 90.7849 89.3096C92.5752 89.8215 94.3262 90.0283 96.0477 89.9988V89.9889Z" fill="#D2AEFC"/>
<path d="M84.2632 83.0771C92.1622 81.9547 97.0512 79.9954 97.0512 79.9954C97.0512 79.9954 88.9849 49.5822 83.1909 43.3696C79.2758 49.8382 85.4043 71.282 84.2632 83.0672V83.0771Z" fill="#D2AEFC"/>
<path d="M56.9067 34.0656C56.8477 33.4158 58.638 34.5481 62.0022 34.4004C65.3665 34.2527 67.7273 33.9967 67.8159 34.2035C67.9044 34.4102 67.5896 35.9757 67.5896 35.9757L58.7265 36.8717L56.9067 34.0558V34.0656Z" fill="#3B211B"/>
<path d="M67.7469 35.4738C66.8517 35.2867 66.3205 35.2079 66.3205 35.2079L58.5494 35.1587C58.3133 35.2276 58.0969 35.2965 57.8706 35.3654C59.779 39.8846 61.7168 44.4037 64.5302 48.9032C66.9403 44.709 67.1567 39.8255 67.7567 35.4738H67.7469Z" fill="#D2AEFC"/>
<path d="M65.9368 37.1373L65.3269 39.0769L65.9565 45.5651C65.9565 45.5651 65.1204 48.1348 64.5302 48.8929L62.612 45.6537L63.8121 39.2344L62.425 37.1668L63.6252 36.2019L64.5302 35.8081L66.1041 36.9305L65.9368 37.1373Z" fill="#3B211B"/>
<path d="M46.6269 82.6931L83.0138 82.4272C83.0138 82.4272 84.3811 118.206 83.7712 156.791L64.0777 157.047L64.2449 123.533L61.5397 156.516L38.1082 156.476C38.1082 156.476 42.5446 90.5105 46.6269 82.6931Z" fill="#794DAB"/>
<path d="M42.7217 104.856L80.6332 100.602L55.795 94.9019L43.2332 100.701L42.7217 104.856Z" fill="#3B211B"/>
<path d="M64.2549 123.631C64.1958 123.631 64.1565 123.582 64.1565 123.523L65.514 98.4464C65.514 98.3971 65.5632 98.3479 65.6124 98.3479C65.6714 98.3479 65.7107 98.3971 65.7107 98.4562L64.3532 123.533C64.3532 123.582 64.304 123.631 64.2549 123.631Z" fill="#3B211B"/>
<path d="M64.5205 119.408C64.5205 119.408 64.4713 119.398 64.4516 119.378C64.4123 119.339 64.4123 119.27 64.4516 119.24L68.2782 115.538L69.5767 98.5054C69.5767 98.4463 69.6259 98.4069 69.6849 98.4168C69.7439 98.4168 69.7833 98.466 69.7734 98.5251L68.4651 115.597C68.4651 115.597 68.4553 115.647 68.4356 115.666L64.5795 119.388C64.5795 119.388 64.5303 119.418 64.5107 119.418L64.5205 119.408Z" fill="#3B211B"/>
<path d="M42.3479 156.092C42.2888 156.092 42.2495 156.043 42.2593 155.984L46.6072 98.9287C46.6072 98.8697 46.6663 98.8303 46.7155 98.8401C46.7745 98.8401 46.8138 98.8894 46.804 98.9484L42.4561 156.004C42.4561 156.053 42.4069 156.092 42.3577 156.092H42.3479Z" fill="#3B211B"/>
<path d="M83.4466 108.44C83.4466 108.44 83.3974 108.43 83.3777 108.41C83.3384 108.371 79.5512 104.531 78.3511 97.9639C78.3511 97.9048 78.3806 97.8555 78.4298 97.8457C78.4298 97.8457 78.4396 97.8457 78.4494 97.8457C78.4986 97.8457 78.538 97.8752 78.5478 97.9245C79.7282 104.423 83.4761 108.233 83.5155 108.262C83.5548 108.302 83.5548 108.361 83.5155 108.4C83.4958 108.42 83.4663 108.43 83.4466 108.43V108.44Z" fill="#3B211B"/>
<path d="M45.8104 109.877C45.8104 109.877 45.7317 109.857 45.7219 109.818C45.7022 109.769 45.7219 109.71 45.7711 109.68C45.8694 109.641 55.2539 105.23 56.5622 96.9695C56.5622 96.9104 56.6212 96.8711 56.6802 96.8809C56.7393 96.8809 56.7688 96.94 56.7688 96.999C55.4408 105.368 45.958 109.818 45.8596 109.857C45.8498 109.857 45.8301 109.857 45.8203 109.857L45.8104 109.877Z" fill="#3B211B"/>
<path d="M41.7773 43.5371C40.2821 44.8466 39.6919 45.713 39.6919 45.713C39.6919 45.713 42.338 59.2409 43.3807 68.1118C50.0305 60.4617 46.1744 50.8721 41.7872 43.547L41.7773 43.5371Z" fill="#D2AEFC"/>
<path d="M26.4712 109.119C25.4187 85.4502 32.9636 59.3298 33.2882 58.2271L46.0074 61.9487L39.6429 60.0879L46.0074 61.9487C45.9385 62.1948 38.7576 87.0944 39.7117 108.528L26.4712 109.119Z" fill="#FD926D"/>
<path d="M26.8252 102.099C26.8252 102.099 26.0186 106.894 26.4908 110.35C26.963 113.815 30.3272 115.637 34.2226 115.43C38.118 115.223 39.446 115.351 40.5379 113.5C41.62 111.659 37.941 100.307 37.941 100.307L26.8252 102.099Z" fill="#FD926D"/>
<path d="M32.5405 104.078C32.6782 104.009 32.8356 103.96 33.0028 103.93C33.9472 103.773 34.8325 104.403 34.9997 105.338C35.0096 105.407 36.19 112.25 37.0557 115.46L37.941 118.787C38.1869 119.713 37.6459 120.658 36.7212 120.904C35.7965 121.15 34.8522 120.599 34.6063 119.683L33.7209 116.356C32.8258 112.988 31.6552 106.215 31.606 105.929C31.4683 105.151 31.8814 104.403 32.5602 104.078H32.5405Z" fill="#FD926D"/>
<path d="M37.2818 103.231C37.4294 103.172 37.5868 103.143 37.754 103.133C38.7082 103.064 39.5345 103.783 39.6033 104.738C39.6033 104.806 40.0952 111.728 40.6264 115.016L41.1772 118.423C41.3248 119.368 40.6952 120.254 39.7509 120.402C38.8065 120.56 37.9212 119.91 37.7737 118.974L37.2228 115.568C36.6621 112.122 36.1801 105.269 36.1604 104.974C36.1014 104.186 36.5834 103.487 37.2916 103.231H37.2818Z" fill="#FD926D"/>
<path d="M28.9304 103.34C29.0681 103.271 29.2255 103.221 29.3927 103.192C30.3371 103.034 31.2224 103.664 31.3896 104.6C31.3995 104.669 32.5799 111.511 33.4456 114.721L34.3309 118.049C34.5768 118.974 34.0358 119.92 33.1111 120.166C32.1864 120.412 31.2421 119.861 30.9962 118.945L30.1108 115.617C29.2157 112.25 28.0451 105.476 27.9959 105.191C27.8582 104.413 28.2713 103.664 28.9501 103.34H28.9304Z" fill="#FD926D"/>
<path d="M29.2253 118.945C30.1795 118.807 30.8189 117.921 30.6812 116.976L30.1697 113.569C30.0221 112.545 29.8746 111.177 29.7467 109.769C28.704 110.409 27.7006 110.291 26.53 110.645C26.6382 111.689 26.6284 113.274 26.7464 114.071L27.258 117.478C27.3957 118.423 28.281 119.073 29.2253 118.935V118.945Z" fill="#FD926D"/>
<path d="M38.2163 102.099C41.5314 104.738 43.5774 109.188 43.5971 111.374C43.6168 113.559 41.01 116.395 40.3017 116.277C39.5935 116.159 38.659 114.012 38.659 114.012L38.2163 102.099Z" fill="#FD926D"/>
<path d="M40.3215 111.186C40.3215 111.186 40.351 111.137 40.3707 111.137C40.4002 111.137 40.4396 111.157 40.4396 111.186C40.6757 112.437 40.715 115.971 40.715 116.011C40.715 116.04 40.6855 116.07 40.656 116.07C40.6166 116.07 40.597 116.04 40.597 116.011C40.597 115.971 40.5478 112.447 40.3215 111.206V111.186Z" fill="#3B211B"/>
<path d="M36.7703 112.87C36.7703 112.87 36.7801 112.841 36.7998 112.831C36.8293 112.811 36.8686 112.821 36.8883 112.85L37.8523 114.268C37.8523 114.268 37.8622 114.337 37.8327 114.357C37.8031 114.377 37.7638 114.367 37.7441 114.337L36.7801 112.919C36.7801 112.919 36.7703 112.89 36.7703 112.87Z" fill="#3B211B"/>
<path d="M36.8393 114.19C36.8393 114.19 36.8393 114.17 36.859 114.16L37.6951 113.146C37.6951 113.146 37.7541 113.116 37.7837 113.146C37.8132 113.166 37.823 113.205 37.7837 113.235L36.9475 114.249C36.9475 114.249 36.8885 114.278 36.859 114.249C36.8393 114.229 36.8295 114.209 36.8393 114.19Z" fill="#3B211B"/>
<path d="M33.1504 112.841C33.1504 112.841 33.1701 112.801 33.1897 112.791C33.2193 112.781 33.2586 112.791 33.2684 112.821L33.8291 114.071C33.8291 114.071 33.8291 114.14 33.7996 114.15C33.7701 114.16 33.7308 114.15 33.7209 114.12L33.1602 112.87C33.1602 112.87 33.1602 112.841 33.1602 112.831L33.1504 112.841Z" fill="#3B211B"/>
<path d="M32.9143 113.953C32.9143 113.953 32.9241 113.924 32.934 113.914L33.898 113.067C33.898 113.067 33.9669 113.047 33.9865 113.067C34.0062 113.097 34.0062 113.136 33.9865 113.156L33.0225 114.002C33.0225 114.002 32.9537 114.022 32.934 114.002C32.9241 113.983 32.9143 113.963 32.9143 113.953Z" fill="#3B211B"/>
<path d="M29.3237 112.092C29.3237 112.092 29.3434 112.063 29.3532 112.053C29.3828 112.033 29.4221 112.053 29.4418 112.082L30.2287 113.549C30.2287 113.549 30.2287 113.618 30.1992 113.638C30.1697 113.658 30.1304 113.638 30.1107 113.608L29.3237 112.141C29.3237 112.141 29.3237 112.112 29.3237 112.102V112.092Z" fill="#3B211B"/>
<path d="M29.1467 113.412C29.1467 113.412 29.1467 113.392 29.1664 113.382L30.0615 112.378C30.0615 112.378 30.1205 112.348 30.15 112.378C30.1796 112.398 30.1796 112.437 30.15 112.466L29.2549 113.471C29.2549 113.471 29.1959 113.5 29.1664 113.471C29.1467 113.451 29.1368 113.431 29.1467 113.412Z" fill="#3B211B"/>
<path d="M34.0652 116.71C34.0652 116.71 34.0947 116.641 34.134 116.641C34.1832 116.641 34.2226 116.671 34.2226 116.71L34.4783 118.925C34.4783 118.925 34.4488 119.014 34.4095 119.014C34.3603 119.014 34.3209 118.984 34.3209 118.945L34.0652 116.73V116.71Z" fill="#3B211B"/>
<path d="M37.5376 116.769C37.5376 116.769 37.5671 116.7 37.6065 116.7C37.6556 116.7 37.695 116.73 37.695 116.769L38.0196 119.605C38.0196 119.605 37.9901 119.693 37.9508 119.693C37.9016 119.693 37.8622 119.664 37.8622 119.624L37.5376 116.789V116.769Z" fill="#3B211B"/>
<path d="M30.4846 116.208C30.4846 116.208 30.524 116.139 30.5633 116.139C30.6125 116.139 30.6518 116.168 30.6518 116.218L30.7601 117.832C30.7601 117.832 30.7305 117.921 30.6814 117.921C30.6322 117.921 30.5928 117.891 30.5928 117.842L30.4846 116.228C30.4846 116.228 30.4846 116.218 30.4846 116.208Z" fill="#3B211B"/>
<path d="M82.8073 62.165C82.1974 54.899 80.9678 50.6752 83.1811 43.3796C82.9155 43.1039 82.6597 42.8184 82.3941 42.5624C77.7511 38.0236 70.7275 36.1135 67.7469 35.4735C67.1567 39.8155 66.9305 44.6989 64.5204 48.903C61.707 44.4035 59.7692 39.8844 57.8608 35.3652C49.1354 38.0432 44.2268 41.4006 41.7676 43.547C46.1549 50.8721 50.0109 60.4716 43.3612 68.1118C43.5776 69.9431 43.7251 71.5873 43.7645 72.8574C44.0301 81.0293 42.8201 100.868 42.8201 100.868L84.5681 101.282C84.9812 85.1644 83.1516 65.2566 83.1516 65.2566C83.2893 65.2369 82.6499 62.1946 82.7876 62.1749L82.8073 62.165Z" fill="#16A3A6"/>
<path d="M64.6483 51.2562C64.6483 51.2562 64.5991 51.2464 64.5892 51.2267C61.6185 47.062 55.9229 36.5567 55.8639 36.4582C55.8442 36.4287 55.8639 36.3795 55.8934 36.3598C55.9229 36.3401 55.9721 36.3598 55.9918 36.3893C56.0508 36.4976 61.6677 46.8552 64.6483 51.0691C65.1991 50.3209 69.488 44.2363 69.2716 36.2613C69.2716 36.2219 69.3011 36.1924 69.3405 36.1924C69.3405 36.1924 69.4093 36.2219 69.4093 36.2613C69.6454 44.7876 64.7466 51.1774 64.6974 51.2464C64.6876 51.266 64.6679 51.2759 64.6384 51.2759L64.6483 51.2562Z" fill="#3B211B"/>
<path d="M63.7137 94.5869C63.7137 94.5869 63.6842 94.5869 63.6744 94.5869C63.6449 94.5672 63.6252 94.5279 63.6449 94.4885C65.3467 91.5348 70.8947 80.2517 70.9537 80.1434C70.9734 80.104 71.0128 80.0942 71.0521 80.1138C71.0914 80.1335 71.1013 80.1729 71.0816 80.2123C71.0226 80.3305 65.4746 91.6037 63.7728 94.5672C63.7629 94.5869 63.7334 94.6066 63.7137 94.6066V94.5869Z" fill="#3B211B"/>
<path d="M70.5995 88.8961C70.5995 88.8961 70.5799 88.8961 70.57 88.8961C70.5307 88.8862 70.511 88.8468 70.5307 88.8075L72.3308 83.6779C72.3308 83.6779 72.3899 83.6287 72.4194 83.6385C72.4587 83.6484 72.4784 83.6877 72.4587 83.7271L70.6586 88.8567C70.6586 88.8567 70.6192 88.9059 70.5897 88.9059L70.5995 88.8961Z" fill="#3B211B"/>
<path d="M82.5613 59.9993C82.5613 59.9993 82.5416 59.9993 82.5318 59.9993C82.4924 59.9796 82.4826 59.9402 82.5023 59.9008C83.0925 58.6504 83.1318 56.1496 83.1318 56.13C83.1318 56.0906 83.1613 56.061 83.2007 56.061C83.2007 56.061 83.2695 56.0906 83.2695 56.13C83.2695 56.2383 83.2302 58.6898 82.6203 59.9599C82.6105 59.9894 82.581 59.9993 82.5613 59.9993Z" fill="#3B211B"/>
<path d="M82.8662 51.2759C82.8662 51.2759 82.7973 51.2562 82.7973 51.2168C82.6203 50.183 84.1352 46.1857 84.204 46.0183C84.2139 45.9789 84.263 45.9592 84.2926 45.9789C84.3319 45.9888 84.3516 46.038 84.3319 46.0675C84.3122 46.1069 82.758 50.1928 82.9351 51.1873C82.9351 51.2266 82.9154 51.266 82.876 51.266C82.876 51.266 82.876 51.266 82.8662 51.266V51.2759Z" fill="#3B211B"/>
<path d="M69.3307 24.3282L69.311 24.151L70.3734 24.0132L70.3931 24.1806L69.3307 24.3282Z" fill="#3B211B"/>
<path d="M67.5108 26.268C67.5108 26.268 69.1437 24.3678 70.6488 24.801C72.1538 25.2342 72.5572 28.3947 71.0128 29.1134C69.4782 29.8322 67.501 28.7196 67.501 28.7196V26.2779L67.5108 26.268Z" fill="#FD6238"/>
<path d="M70.511 28.4342C70.511 28.4342 70.4618 28.4243 70.452 28.3948C70.4323 28.3652 70.452 28.3259 70.4815 28.3062C70.5208 28.2865 71.3865 27.8237 71.0422 26.7801C70.8946 26.337 70.7077 26.0811 70.452 25.9629C70.1274 25.8054 69.6552 25.8743 68.8977 26.1795C68.8682 26.1894 68.8289 26.1795 68.8092 26.1401C68.7994 26.1106 68.8092 26.0712 68.8486 26.0515C69.6552 25.7266 70.1372 25.6675 70.511 25.8448C70.8061 25.9826 71.0127 26.2681 71.1701 26.7407C71.5439 27.8927 70.5504 28.4243 70.5405 28.4243C70.5405 28.4243 70.5208 28.4243 70.511 28.4243V28.4342Z" fill="#3B211B"/>
<path d="M69.3208 17.4363C70.1471 18.5686 69.9897 21.1088 69.5175 23.3634C69.0453 25.618 68.7207 19.0609 68.7207 19.0609L67.137 17.2197L69.3306 17.4363H69.3208Z" fill="#FDDCC2"/>
<path d="M66.7829 32.4706L67.078 35.2077C67.078 35.2077 62.2383 36.8716 57.6051 36.6747L57.2214 28.4536L62.4645 32.0374L66.7829 32.4706Z" fill="#FD926D"/>
<path d="M66.9107 33.9178L66.7829 32.4705L62.4645 32.0373L60.7135 30.8361L59.6216 30.8164C61.7365 33.9867 65.868 33.9769 66.9107 33.9178Z" fill="#3B211B"/>
<path d="M69.3404 18.5587C69.7929 19.7598 69.3109 21.5813 69.7044 24.0722C70.0979 26.5632 71.2291 31.8109 66.4189 32.9431C61.6086 34.0655 57.3984 30.0879 57.3984 30.0879L55.2835 22.2212C54.2998 18.5685 56.5819 15.5853 60.2708 14.7287C60.3593 14.709 60.438 14.6893 60.5265 14.6696C67.7469 13.242 69.3503 18.5488 69.3503 18.5488L69.3404 18.5587Z" fill="#FD926D"/>
<path d="M55.1557 25.5097L53.749 19.5826L57.7822 18.3125C57.7822 18.3125 57.6445 20.4195 57.6936 22.9498C57.7428 25.4801 58.1953 26.5041 58.1953 26.5041L55.1557 25.5097Z" fill="#FDDCC2"/>
<path d="M65.1598 27.1341C65.1598 27.1341 65.1008 27.1243 65.091 27.0947C65.0614 27.0553 65.0713 27.0061 65.1106 26.9766C65.4549 26.7403 65.7894 26.1692 65.7795 25.5293C65.7795 25.1748 65.5926 24.9582 65.327 24.6333C65.1401 24.4167 64.9139 24.141 64.6778 23.7374C64.6581 23.698 64.668 23.6389 64.7073 23.6192C64.7467 23.5995 64.8057 23.6094 64.8254 23.6488C65.0516 24.0327 65.2779 24.3084 65.4549 24.525C65.7402 24.8696 65.9369 25.1059 65.9468 25.5293C65.9566 26.2579 65.573 26.8683 65.209 27.1243C65.1992 27.1341 65.1795 27.144 65.1598 27.144V27.1341Z" fill="#3B211B"/>
<path d="M62.366 24.6925C62.366 24.279 62.2184 23.9541 62.0512 23.9541C61.884 23.9541 61.7561 24.2889 61.7659 24.7024C61.7659 25.1159 61.9135 25.4408 62.0807 25.4408C62.2479 25.4408 62.3758 25.106 62.366 24.6925Z" fill="#3B211B"/>
<path d="M68.0322 24.3776C68.0322 23.9641 67.8847 23.6392 67.7174 23.6392C67.5502 23.6392 67.4223 23.9739 67.4322 24.3874C67.4322 24.8009 67.5797 25.1259 67.747 25.1259C67.9142 25.1259 68.0421 24.7911 68.0322 24.3776Z" fill="#3B211B"/>
<path d="M63.0056 23.1567C62.9958 23.3043 62.8482 23.393 62.7105 23.452C62.0318 23.7671 61.294 23.9542 60.5562 23.9935C60.4283 23.9935 60.2906 23.9935 60.1627 23.9542C59.9562 23.8655 59.8184 23.6194 59.8578 23.4028C59.8971 23.2157 60.0349 23.0681 60.1922 22.9794C60.3496 22.8908 60.5365 22.8416 60.7136 22.7924C61.3924 22.6348 62.14 22.497 62.7498 22.8219C62.8777 22.8908 63.0154 23.009 62.9958 23.1567H63.0056Z" fill="#FBBD91"/>
<path d="M68.7502 23.4029C68.3174 23.462 67.7469 23.2946 67.4321 23.3241C67.1567 23.3536 66.6058 23.5309 66.5271 23.1174C66.5369 22.8417 66.7534 22.6251 66.9894 22.5168C67.1763 22.438 67.3928 22.4085 67.5993 22.3789C68.0617 22.3199 68.8093 22.2214 69.1634 22.6251C69.2519 22.7235 69.3011 22.8614 69.2618 22.9894C69.1929 23.2552 68.9962 23.3635 68.7502 23.4029Z" fill="#FBBD91"/>
<path d="M61.7758 25.9921C61.7758 25.9921 61.6971 25.9921 61.6479 25.9921C61.6085 25.9921 61.5889 25.9625 61.5889 25.9232C61.5889 25.8838 61.6184 25.8542 61.6577 25.8641C62.2381 25.8936 62.5234 25.6081 62.5332 25.6081C62.5529 25.5786 62.6021 25.5786 62.6217 25.6081C62.6513 25.6376 62.6513 25.677 62.6217 25.6967C62.6119 25.7065 62.3365 25.9822 61.7758 25.9921Z" fill="#3B211B"/>
<path d="M68.0222 25.4214C67.4911 25.4312 67.2353 25.2343 67.2254 25.2245C67.1959 25.2048 67.1959 25.1654 67.2156 25.1359C67.2353 25.1063 67.2746 25.1063 67.3041 25.126C67.3041 25.126 67.5402 25.3032 68.0222 25.2934C68.0616 25.2934 68.0911 25.3229 68.0911 25.3525C68.0911 25.3919 68.0616 25.4214 68.0321 25.4214H68.0222Z" fill="#3B211B"/>
<path d="M64.0581 35.9066C61.53 36.2315 57.6641 35.306 56.828 34.4199L56.1099 36.0051C56.1099 36.0051 59.297 42.1487 59.9463 42.0503C60.5955 41.9518 62.858 36.3004 64.0188 36.0149C65.1795 35.7392 67.983 40.475 68.288 40.5537C68.5929 40.6325 68.0027 34.6858 67.747 34.5676C67.4912 34.4495 67.983 35.4143 64.0679 35.9165L64.0581 35.9066Z" fill="#3B211B"/>
<path d="M64.2253 35.7392C61.6972 36.0641 57.7427 34.9515 56.9066 34.0654L56.1196 35.9755C56.1196 35.9755 59.3757 41.7844 60.0249 41.6859C60.6741 41.5875 63.0252 36.2807 64.1859 35.9952C65.3467 35.7195 68.0617 40.1106 68.3568 40.1894C68.6617 40.2682 68.0715 34.3214 67.8157 34.2033C67.56 34.0851 68.1404 35.2371 64.2253 35.7392Z" fill="#D2AEFC"/>
<path d="M54.1523 20.4492C53.0998 19.4744 51.3094 18.0862 53.3063 16.5404C55.3032 14.9947 55.8541 16.5404 57.1034 14.3547C58.3527 12.169 61.2546 10.1309 63.3892 11.6472C65.5337 13.1634 69.6258 10.8792 70.8653 12.5431C72.1047 14.207 71.4063 16.2845 70.3046 17.2198C69.2028 18.1551 65.9763 18.6376 62.6022 18.352C59.238 18.0665 56.5722 21.2663 56.5722 21.2663L54.1425 20.4492H54.1523Z" fill="#FDDCC2"/>
<path d="M66.0746 19.2481C65.0614 19.2678 64.0678 19.1201 63.1038 18.9724C61.9627 18.805 60.8905 18.6377 59.9166 18.7755L59.897 18.6081C60.9003 18.4703 61.9824 18.6377 63.1333 18.805C64.5203 19.0118 65.9565 19.2284 67.4026 18.9429C70.0192 18.4309 71.3767 16.1959 71.3078 14.8569H71.4849C71.5537 16.255 70.1569 18.5786 67.4419 19.1102C66.9894 19.1989 66.5369 19.2382 66.0942 19.2481H66.0746Z" fill="#FDDCC2"/>
<path d="M56.7591 20.1437C56.7591 20.1437 56.7394 20.1437 56.7296 20.1437C56.7001 20.1339 56.6804 20.0945 56.7001 20.0551C57.8018 17.4952 59.5134 16.5304 62.4252 16.8257C64.6876 17.0522 69.5373 16.3335 70.5111 14.6892C70.7669 14.2659 70.7177 13.7933 70.3832 13.301C70.3636 13.2715 70.3734 13.2321 70.4029 13.2124C70.4324 13.1927 70.4718 13.2025 70.4914 13.2321C70.8652 13.7637 70.9046 14.2757 70.6292 14.7582C69.6356 16.4418 64.7073 17.19 62.4153 16.9636C59.5724 16.6682 57.9002 17.6134 56.8279 20.1142C56.8181 20.1339 56.7984 20.1536 56.7689 20.1536L56.7591 20.1437Z" fill="white"/>
<path d="M59.9461 17.0428C59.9461 17.0428 59.8969 17.033 59.8871 17.0034C59.8674 16.9739 59.8871 16.9345 59.9166 16.9148C60.5363 16.6293 61.9135 16.4028 63.3693 16.1764C64.658 15.9696 65.986 15.753 66.7336 15.497C67.5894 15.2017 68.1894 14.5716 68.219 13.9217C68.2386 13.4787 67.9829 13.0947 67.4812 12.8683C67.4517 12.8486 67.432 12.819 67.4517 12.7797C67.4713 12.7501 67.5009 12.7304 67.5402 12.7501C68.0911 13.0061 68.3763 13.4295 68.3567 13.9316C68.3173 14.6306 67.6878 15.3001 66.7828 15.6152C66.0253 15.881 64.6875 16.0976 63.3989 16.3044C62.0118 16.5308 60.5757 16.7573 59.9756 17.033C59.9756 17.033 59.9559 17.033 59.9461 17.033V17.0428Z" fill="white"/>
<path d="M60.133 31.9388C60.133 31.9388 60.1133 31.9388 60.1035 31.9388C60.0445 31.8994 58.5788 31.0625 57.9295 30.3832C57.9 30.3536 57.9098 30.3142 57.9295 30.2946C57.959 30.2749 57.9984 30.2749 58.018 30.2946C58.6476 30.9542 60.1428 31.8206 60.1625 31.8206C60.192 31.8403 60.2018 31.8797 60.1822 31.9092C60.1723 31.9289 60.1527 31.9388 60.1231 31.9388H60.133Z" fill="#3B211B"/>
<path d="M68.2485 38.693C68.1993 38.4272 68.0124 38.2401 67.8255 38.2697C67.6386 38.2992 67.5206 38.5453 67.5698 38.8112C67.619 39.077 67.8059 39.2641 67.9928 39.2345C68.1797 39.205 68.2977 38.9589 68.2485 38.693Z" fill="#3F3247"/>
<path d="M60.3987 40.0122C60.3987 39.7464 60.1725 39.5298 59.897 39.5298C59.6216 39.5298 59.415 39.7562 59.415 40.0319C59.415 40.3076 59.6413 40.5143 59.9167 40.5143C60.1823 40.5143 60.3987 40.2879 60.3987 40.0122Z" fill="#3F3247"/>
<path d="M59.7396 40.2681C59.7396 40.2681 59.7199 40.2681 59.7101 40.2583C59.6904 40.2386 59.6904 40.2189 59.7101 40.1992L60.0544 39.8349C60.0544 39.8349 60.0937 39.8152 60.1134 39.8349C60.1331 39.8546 60.1331 39.8743 60.1134 39.894L59.7691 40.2583C59.7691 40.2583 59.7494 40.2681 59.7396 40.2681Z" fill="#3B211B"/>
<path d="M60.0938 40.268C60.0938 40.268 60.1135 40.268 60.1233 40.2581C60.143 40.2384 60.143 40.2089 60.1233 40.1991L59.7593 39.8545C59.7593 39.8545 59.7101 39.8348 59.7003 39.8545C59.6806 39.8741 59.6806 39.9037 59.7003 39.9135L60.0643 40.2581C60.0643 40.2581 60.0839 40.268 60.0938 40.268Z" fill="#3B211B"/>
<path d="M65.6909 32.323C65.6909 32.323 65.6614 32.323 65.6418 32.3033C65.6123 32.2738 65.6123 32.2344 65.6418 32.2147C65.6713 32.1852 66.3008 31.5452 65.868 31.0037C65.8483 30.9742 65.8483 30.9348 65.8778 30.9151C65.9074 30.8954 65.9467 30.8954 65.9664 30.9249C66.4681 31.5551 65.7303 32.3033 65.7303 32.3132C65.7205 32.323 65.7008 32.3329 65.6811 32.3329L65.6909 32.323Z" fill="#3B211B"/>
<path d="M64.4221 28.4733C64.6582 28.5324 64.9041 28.5718 65.1304 28.6604C65.5435 28.8278 65.7894 29.1822 65.6419 29.6351C65.4648 30.1963 64.9336 30.3834 64.4024 30.4326C63.4876 30.5015 61.6776 30.4326 61.4218 29.3003C61.2153 28.4241 61.7661 27.3214 62.8187 27.5872C63.4187 27.7447 63.7925 28.3059 64.4221 28.4733Z" fill="white"/>
<path d="M61.884 26.8981C60.6839 26.9178 59.6805 25.7954 59.6608 24.3875C59.6313 22.9796 60.5953 21.8178 61.7954 21.7981C62.9955 21.7784 63.9989 22.9008 64.0186 24.3087C64.0481 25.7167 63.0841 26.8785 61.884 26.8981ZM61.7954 21.9753C60.6937 21.995 59.8084 23.078 59.8379 24.3875C59.8576 25.697 60.7822 26.7505 61.884 26.7308C62.9857 26.7111 63.871 25.6281 63.8415 24.3186C63.812 23.0091 62.8972 21.9556 61.7954 21.9753Z" fill="#3B211B"/>
<path d="M68.3075 26.7702C67.1074 26.7899 66.1041 25.6675 66.0844 24.2596C66.0549 22.8517 67.0189 21.6899 68.219 21.6702C69.4191 21.6505 70.4225 22.7729 70.4422 24.1808C70.4717 25.5887 69.5077 26.7505 68.3075 26.7702ZM68.219 21.8474C67.1173 21.8671 66.232 22.9501 66.2615 24.2596C66.2811 25.569 67.2058 26.6225 68.3075 26.6028C69.4093 26.5831 70.2946 25.5001 70.2651 24.1907C70.2454 22.8812 69.3207 21.8277 68.219 21.8474Z" fill="#3B211B"/>
<path d="M63.9695 24.6038L63.8711 24.4561C65.2679 23.5109 66.2024 24.2887 66.2123 24.2986L66.0942 24.4266C66.0942 24.4266 65.2483 23.7275 63.9596 24.5939L63.9695 24.6038Z" fill="#3B211B"/>
<path d="M55.0867 25.3521L55.0769 25.1749L59.7298 24.7417L59.7494 24.9189L55.0867 25.3521Z" fill="#3B211B"/>
<path d="M57.8313 26.455C57.8313 26.455 56.1295 24.6138 54.6441 25.1061C53.1587 25.5984 52.8735 28.7687 54.4375 29.4283C56.0016 30.088 57.9395 28.9065 57.9395 28.9065L57.8411 26.4648L57.8313 26.455Z" fill="#FD926D"/>
<path d="M54.9196 28.7292C54.9196 28.7292 54.8999 28.7292 54.8901 28.7292C54.8802 28.7292 53.867 28.2369 54.2015 27.0653C54.3392 26.5828 54.5359 26.2875 54.831 26.1398C55.195 25.9527 55.677 25.9921 56.4935 26.2875C56.523 26.2973 56.5427 26.3367 56.5328 26.3662C56.523 26.3958 56.4836 26.4155 56.4541 26.4056C55.677 26.1299 55.2147 26.0807 54.8901 26.2481C54.6343 26.3761 54.4572 26.6518 54.3294 27.0948C54.0244 28.1581 54.9097 28.5815 54.9491 28.6012C54.9786 28.6209 54.9983 28.6504 54.9786 28.6898C54.9688 28.7095 54.9491 28.7292 54.9196 28.7292Z" fill="#3B211B"/>
<path d="M83.368 67.1468C83.004 67.1862 82.6302 67.2354 82.2859 67.2453C80.7907 67.3044 79.2463 66.9499 77.8298 66.6644L77.1805 66.5364C73.9934 65.8866 70.698 65.2171 67.2747 65.1088C63.6351 64.9808 60.1036 65.4928 56.7 65.985C53.6801 66.4183 50.8274 66.8219 47.9845 66.8219C47.4041 66.8219 46.8237 66.8022 46.2335 66.7727C45.6728 66.753 45.0826 66.7333 44.4826 66.7333C44.1579 67.1961 43.8136 67.6588 43.4202 68.1117C43.6366 69.943 43.7841 71.5872 43.8235 72.8573C43.8235 72.9754 43.8235 73.1034 43.8333 73.2314C44.5317 73.2314 45.2597 73.2314 46.0073 73.2708C46.6565 73.2905 47.3058 73.3102 47.9452 73.32C51.27 73.3397 54.4966 72.8671 57.6247 72.4241C60.9004 71.9515 63.999 71.4986 67.0583 71.6069C69.9405 71.7054 72.8326 72.2862 75.8919 72.9164L76.551 73.0542C78.1937 73.389 80.2398 73.8025 82.3744 73.7631C82.4039 73.7631 82.4334 73.7631 82.4531 73.7631C82.9351 73.7532 83.3975 73.6942 83.8598 73.6449C83.6729 70.8882 83.5057 68.6434 83.3778 67.1764L83.368 67.1468Z" fill="#E8D4FF"/>
<path d="M57.5953 60.0185C55.6279 60.2056 53.5818 60.4025 51.5947 60.4419C51.1718 60.4419 50.8176 60.4419 50.4241 60.4419C49.2732 60.4419 48.083 60.4419 46.9025 60.6093C46.8829 60.6093 46.8632 60.6093 46.8435 60.6093C46.7845 61.0326 46.7058 61.456 46.6074 61.8793C46.755 61.8498 46.9025 61.8203 47.0599 61.8006C48.1617 61.6529 49.3126 61.6529 50.4241 61.643C50.8176 61.643 51.2111 61.643 51.6046 61.643C53.6408 61.6037 55.6967 61.4068 57.6936 61.2197C61.6973 60.8357 65.8386 60.4419 69.7439 61.3575C70.1472 61.456 70.5604 61.5643 70.9637 61.6726C71.7408 61.8892 72.5474 62.1058 73.3836 62.2239C74.2787 62.3519 75.1837 62.3716 76.0494 62.3815L82.8565 62.5488C82.8073 62.1452 82.6893 61.6726 82.6303 61.2689L76.069 61.1705C75.2329 61.1606 74.3771 61.1409 73.5606 61.0228C72.8032 60.9145 72.0654 60.7176 71.2883 60.501C70.8653 60.3828 70.4522 60.2745 70.0292 60.176C65.9272 59.2112 61.6874 59.6148 57.5854 60.0087L57.5953 60.0185Z" fill="#E8D4FF"/>
<path d="M41.1773 43.9604C40.1838 45.201 26.0973 51.2462 26.353 103.103C26.353 103.103 39.8395 103.428 40.4986 100.543C40.7445 99.4603 45.0826 65.4436 46.5778 61.8303C46.5778 61.8303 43.9415 57.9905 44.1677 57.508C44.394 57.0256 41.1773 43.9604 41.1773 43.9604Z" fill="#D2AEFC"/>
<path d="M45.1415 53.6388C45.1415 53.6388 45.1022 53.6388 45.0924 53.6191C41.4527 49.8777 37.5966 49.2082 37.5573 49.1984C37.5179 49.1984 37.4884 49.159 37.4982 49.1196C37.4982 49.0802 37.5474 49.0605 37.5769 49.0605C37.6163 49.0605 41.5215 49.7497 45.1907 53.5206C45.2202 53.5502 45.2202 53.5895 45.1907 53.6191C45.1809 53.6289 45.1612 53.6388 45.1415 53.6388Z" fill="#3B211B"/>
<path d="M83.181 65.3257C83.181 65.3257 83.1122 65.2962 83.1122 65.2667C82.5318 61.1807 81.9613 55.9035 81.9514 55.8444C81.9514 55.805 81.9711 55.7656 82.0104 55.7656C82.0498 55.7656 82.0793 55.7952 82.0793 55.8247C82.0793 55.8739 82.6597 61.1512 83.2401 65.2371C83.2401 65.2765 83.2204 65.3159 83.181 65.3159V65.3257Z" fill="#3B211B"/>
<path d="M145.134 156.25L128.057 134.846V122.263H139.202V119.93H114.925V122.263H126.06V135.289L110.134 156.437L111.728 157.638L126.06 138.607V156.211H128.057V138.046L143.57 157.501L145.134 156.25Z" fill="#288D8F"/>
<path d="M95.6641 10.3478C95.851 10.3478 96.0281 10.3182 96.2052 10.2296C96.3822 10.1508 96.5199 10.0327 96.6675 9.9244C96.7954 9.82594 96.9134 9.72748 97.0511 9.66841C97.4053 9.51088 97.8184 9.62903 98.2611 9.74718C98.6644 9.86532 99.0874 9.98347 99.5202 9.89486C99.7268 9.85548 99.9235 9.76687 100.101 9.6881C100.327 9.5798 100.553 9.48134 100.76 9.49119C100.986 9.49119 101.202 9.61918 101.429 9.74718C101.694 9.89486 101.979 10.0524 102.314 10.0524C102.786 10.0524 103.14 9.74718 103.475 9.46165C103.75 9.22536 104.016 8.98906 104.321 8.95953C104.704 8.92014 105.058 9.16628 105.442 9.42227C105.895 9.73733 106.377 10.0622 106.937 9.90471C107.272 9.80625 107.508 9.56995 107.724 9.33366C107.842 9.21551 107.95 9.09736 108.069 9.00875C108.236 8.88076 108.541 8.85122 108.718 8.93983C108.816 8.98906 108.826 9.05798 108.826 9.10721C108.826 9.21551 108.914 9.31397 109.023 9.31397C109.131 9.31397 109.219 9.22536 109.219 9.11706C109.219 8.89061 109.101 8.69369 108.895 8.58539C108.58 8.42786 108.118 8.46724 107.823 8.69369C107.675 8.802 107.557 8.92999 107.429 9.05798C107.232 9.26474 107.055 9.45181 106.819 9.52073C106.436 9.62903 106.062 9.3632 105.658 9.08752C105.235 8.79215 104.793 8.48694 104.271 8.55585C103.839 8.60508 103.524 8.89061 103.209 9.15644C102.914 9.41243 102.639 9.64872 102.314 9.64872C102.088 9.64872 101.861 9.52073 101.625 9.39273C101.36 9.24505 101.094 9.09736 100.77 9.08752C100.455 9.08752 100.189 9.19582 99.9235 9.31397C99.7563 9.39273 99.5891 9.46165 99.4317 9.50104C99.0972 9.56995 98.7431 9.46165 98.3595 9.3632C97.8774 9.22536 97.3758 9.08752 96.8839 9.30412C96.7068 9.38289 96.5593 9.50104 96.4117 9.60934C96.2839 9.70779 96.1658 9.80625 96.0379 9.86532C95.4969 10.1115 94.8477 9.73733 94.2771 9.41243C93.3623 8.89061 92.595 8.84138 92.113 9.28443C92.0343 9.3632 92.0245 9.48134 92.1032 9.56996C92.1819 9.64872 92.2999 9.65857 92.3884 9.5798C92.8704 9.13675 93.7361 9.56011 94.0902 9.76687C94.5624 10.0327 95.1133 10.3576 95.674 10.3576L95.6641 10.3478Z" fill="white"/>
<path d="M88.562 9.99336C89.044 9.99336 89.6047 9.84567 90.3523 9.58969C90.4605 9.5503 90.5097 9.442 90.4802 9.3337C90.4408 9.2254 90.3326 9.17617 90.2244 9.20571C89.2014 9.5503 88.5915 9.68814 88.0505 9.51092C87.9423 9.47154 87.834 9.53061 87.7947 9.63891C87.7554 9.74722 87.8144 9.85552 87.9226 9.8949C88.1292 9.96382 88.3357 9.99336 88.562 9.99336Z" fill="white"/>
<path d="M107.046 12.4349C107.134 12.4349 107.232 12.4251 107.321 12.3956C107.409 12.3759 107.498 12.3365 107.587 12.2971C107.655 12.2676 107.724 12.238 107.803 12.2183C107.99 12.1691 108.196 12.2183 108.423 12.2676C108.629 12.3168 108.836 12.366 109.062 12.3365C109.17 12.3365 109.259 12.2282 109.249 12.1199C109.249 12.0116 109.151 11.9328 109.033 11.9328C108.865 11.9427 108.688 11.9033 108.511 11.8639C108.255 11.8048 107.99 11.7457 107.714 11.8147C107.616 11.8344 107.528 11.8737 107.439 11.9131C107.37 11.9427 107.301 11.9722 107.232 11.9919C106.977 12.0608 106.691 11.9623 106.396 11.854C106.19 11.7753 105.983 11.7064 105.757 11.6768C105.354 11.6276 104.98 11.7359 104.606 11.8344C104.527 11.854 104.458 11.8737 104.38 11.8934C103.868 12.0313 103.514 12.0116 103.258 11.854C103.17 11.795 103.042 11.8245 102.983 11.9131C102.924 12.0017 102.953 12.1297 103.042 12.1888C103.396 12.4152 103.868 12.4448 104.478 12.2774C104.557 12.2577 104.635 12.238 104.704 12.2085C105.049 12.11 105.373 12.0214 105.688 12.0608C105.865 12.0805 106.052 12.1494 106.249 12.2183C106.504 12.3069 106.76 12.4054 107.036 12.4054L107.046 12.4349Z" fill="white"/>
<path d="M95.7921 12.5628C95.7921 12.5628 95.8806 12.5628 95.9298 12.5628C96.1266 12.5431 96.3036 12.4939 96.4807 12.4446C96.5496 12.4249 96.6184 12.4053 96.6774 12.3856C97.307 12.228 97.9661 12.2674 98.6645 12.3166C99.4318 12.3659 100.219 12.4151 100.966 12.1788C101.075 12.1493 101.134 12.0311 101.094 11.9228C101.065 11.8145 100.947 11.7554 100.838 11.7948C100.16 12.0114 99.4416 11.972 98.6842 11.913C97.9857 11.8637 97.2676 11.8145 96.5692 11.9917C96.5004 12.0114 96.4315 12.0311 96.3528 12.0508C96.1856 12.1 96.038 12.1394 95.8806 12.1591C95.6249 12.1788 95.3593 12.1197 95.1035 12.0508L93.5296 11.6668C93.3427 11.6275 93.0673 11.5585 92.8214 11.6865C92.7131 11.7456 92.6345 11.8244 92.5754 11.8933C92.5361 11.9327 92.5066 11.972 92.4672 12.0016C92.2311 12.1788 91.8672 12.0311 91.759 11.9819C91.6606 11.9425 91.5721 11.8834 91.4737 11.8342C91.277 11.7259 91.0802 11.6176 90.854 11.5684C90.4015 11.4601 89.9686 11.5979 89.5457 11.7259C89.3883 11.7751 89.221 11.8244 89.0636 11.8637C88.4636 11.9917 87.8537 11.913 87.2045 11.8244C86.5257 11.7358 85.8273 11.6373 85.1485 11.8047C85.0403 11.8342 84.9715 11.9425 85.001 12.0508C85.0305 12.1591 85.1387 12.228 85.2371 12.1985C85.847 12.0508 86.4765 12.1394 87.1454 12.228C87.8045 12.3166 88.4734 12.4053 89.1423 12.2674C89.3194 12.228 89.4866 12.1788 89.6637 12.1197C90.0473 12.0016 90.4113 11.8933 90.7654 11.972C90.9425 12.0114 91.1097 12.1099 91.2868 12.2083C91.3852 12.2674 91.4934 12.3166 91.6016 12.3659C92.0344 12.5628 92.4377 12.5529 92.723 12.3363C92.782 12.2871 92.8312 12.2379 92.8902 12.1788C92.9394 12.1197 92.9886 12.0705 93.0378 12.0508C93.146 11.9917 93.3034 12.0311 93.4608 12.0705L95.0347 12.4545C95.2708 12.5136 95.5265 12.5726 95.8019 12.5726L95.7921 12.5628Z" fill="white"/>
<path d="M93.8148 15.0343C93.8148 15.0343 93.9132 15.0146 93.9427 14.985C94.0214 14.9161 94.0312 14.7881 93.9624 14.6995C93.7066 14.4041 93.3328 14.2072 92.9492 14.158C92.5655 14.0989 92.1917 14.1875 91.8376 14.2663C91.4736 14.3451 91.1392 14.4238 90.8146 14.3549C90.5686 14.3057 90.3227 14.1777 90.0669 14.0497C89.6341 13.8233 89.1915 13.587 88.6898 13.7346C88.5029 13.7937 88.3455 13.8922 88.1979 13.9808C88.0405 14.0792 87.9028 14.1679 87.7454 14.1974C87.4995 14.2368 87.2536 14.0989 86.988 13.9512C86.7421 13.8134 86.4863 13.6657 86.1912 13.6362C85.8961 13.6067 85.6305 13.6953 85.3649 13.774C85.0796 13.8626 84.814 13.9414 84.5779 13.8528C84.4796 13.8134 84.3615 13.8626 84.3222 13.9611C84.2828 14.0596 84.332 14.1777 84.4304 14.2171C84.7944 14.3549 85.1386 14.2466 85.4829 14.1482C85.719 14.0792 85.9453 14.0005 86.1518 14.03C86.3683 14.0497 86.5748 14.1679 86.8011 14.2958C87.1159 14.4731 87.4306 14.6503 87.8241 14.5912C88.0602 14.5518 88.2471 14.4337 88.4242 14.3155C88.5521 14.2269 88.6799 14.1482 88.8078 14.1088C89.1521 14.0103 89.5062 14.1974 89.8899 14.3943C90.1653 14.5321 90.4408 14.6798 90.7555 14.7389C91.1588 14.8177 91.5622 14.7389 91.9458 14.6503C92.2803 14.5715 92.6049 14.5026 92.9197 14.5518C93.2148 14.5912 93.4902 14.7389 93.6869 14.9653C93.7263 15.0146 93.7853 15.0343 93.8345 15.0343H93.8148Z" fill="white"/>
<path d="M106.957 14.9852C107.38 14.9852 107.803 14.936 108.216 14.8473C108.324 14.8276 108.393 14.7193 108.364 14.611C108.344 14.5027 108.236 14.4338 108.128 14.4634C107.124 14.6898 106.032 14.611 105.068 14.2566L104.95 14.2172C104.645 14.0991 104.301 13.9711 103.947 14.0302C103.711 14.0695 103.514 14.1778 103.327 14.2861C103.121 14.3944 102.934 14.5126 102.737 14.5027C102.599 14.5027 102.452 14.4338 102.314 14.3747L101.163 13.8726C101.025 13.8135 100.858 13.7446 100.671 13.7446C100.415 13.7446 100.209 13.9022 100.051 14.0203C99.6678 14.296 99.294 14.552 98.9005 14.5224C98.6841 14.5126 98.4775 14.4141 98.2611 14.3157C98.1136 14.2468 97.966 14.1778 97.8086 14.1286C97.1791 13.9317 96.461 14.0892 95.979 14.5323C95.9003 14.611 95.8904 14.7292 95.9691 14.8178C96.0478 14.8966 96.1659 14.9064 96.2544 14.8276C96.638 14.4831 97.2086 14.3551 97.7004 14.5126C97.8283 14.552 97.966 14.611 98.1037 14.68C98.3497 14.7883 98.5956 14.9064 98.8809 14.9261C99.4121 14.9655 99.8449 14.6701 100.288 14.3452C100.435 14.2369 100.563 14.1581 100.681 14.1483C100.779 14.1385 100.897 14.1975 100.996 14.2369L102.157 14.739C102.324 14.808 102.511 14.8966 102.727 14.9064C103.022 14.9163 103.288 14.7784 103.524 14.6406C103.691 14.5421 103.858 14.4535 104.016 14.4338C104.271 14.3944 104.537 14.4929 104.813 14.5914L104.931 14.6406C105.57 14.8769 106.268 14.995 106.957 14.995V14.9852Z" fill="white"/>
<path d="M172.54 24.9977C172.491 24.9977 172.441 24.9781 172.402 24.9288L170.818 22.812H164.523C164.06 22.812 163.687 22.4379 163.687 21.9751V16.6782C163.687 16.2154 164.06 15.8413 164.523 15.8413H173.002C173.464 15.8413 173.838 16.2154 173.838 16.6782V21.9751C173.838 22.4379 173.464 22.812 173.002 22.812H172.776L172.707 24.8304C172.707 24.8993 172.658 24.9682 172.589 24.9879C172.569 24.9879 172.559 24.9879 172.54 24.9879V24.9977ZM164.523 16.1761C164.247 16.1761 164.021 16.4025 164.021 16.6782V21.9751C164.021 22.2508 164.247 22.4773 164.523 22.4773H170.907C170.956 22.4773 171.005 22.5068 171.045 22.5462L172.392 24.3479L172.451 22.6446C172.451 22.556 172.53 22.4773 172.618 22.4773H173.012C173.287 22.4773 173.514 22.2508 173.514 21.9751V16.6782C173.514 16.4025 173.287 16.1761 173.012 16.1761H164.533H164.523Z" fill="#C4B1D9"/>
<path d="M163.795 19.0806H161.877C161.827 19.0806 161.778 19.1102 161.739 19.1496L160.44 20.8824L160.391 19.2382C160.391 19.1496 160.313 19.0806 160.224 19.0806H159.86C159.585 19.0806 159.358 18.8542 159.358 18.5785V13.4785C159.358 13.2028 159.585 12.9764 159.86 12.9764H168.044C168.32 12.9764 168.546 13.2028 168.546 13.4785V15.9891H168.881V13.4785C168.881 13.0157 168.507 12.6416 168.044 12.6416H159.86C159.398 12.6416 159.024 13.0157 159.024 13.4785V18.5785C159.024 19.0413 159.398 19.4154 159.86 19.4154H160.057L160.116 21.3747C160.116 21.4436 160.165 21.5125 160.234 21.5322C160.254 21.5322 160.263 21.5322 160.283 21.5322C160.332 21.5322 160.381 21.5125 160.421 21.4633L161.955 19.4154H163.795V19.0806Z" fill="#C4B1D9"/>
<path d="M257.373 162H11.6272V159.263C11.6272 156.299 14.0274 153.897 16.9883 153.897H252.003C254.963 153.897 257.364 156.299 257.364 159.263V162H257.373Z" fill="#A8CFCF"/>
<path d="M201.175 116.149C196.178 125.788 187.551 134.363 184.836 141.925C182.121 149.496 181.983 154.064 181.983 154.064H239.205C239.205 154.064 234.591 124.803 218.704 112.713C218.409 112.486 218.016 112.427 217.652 112.535L201.165 116.139L201.175 116.149Z" fill="#A289BE"/>
<path d="M219.846 67.8267C219.846 67.8267 220.19 66.468 217.918 65.2176C215.655 63.9672 201.401 64.0854 196.532 66.0151C191.663 67.9449 182.731 71.1151 181.826 76.097C180.921 81.0789 183.528 86.0608 183.075 87.8724C182.623 89.684 178.885 93.4253 179.229 97.3833C179.573 101.351 184.324 103.724 185.338 106.786C186.351 109.848 184.206 113.806 184.206 113.806C184.206 113.806 185.229 114.377 186.361 113.688C187.492 113.008 189.302 110.399 188.623 107.908C188.623 107.908 190.551 110.744 189.528 113.343C189.528 113.343 190.325 114.022 192.361 113.225C194.397 112.427 194.624 111.295 197.683 111.975C200.742 112.654 205.72 111.975 205.72 111.975L219.865 67.807L219.846 67.8267Z" fill="#832E18"/>
<path d="M190.886 73.1532C187.944 75.3094 187.826 79.0409 187.266 81.0789C186.695 83.1169 187.039 87.4195 186.921 87.7641C186.803 88.1087 184.088 90.3732 184.088 91.7319C184.088 93.0906 186.469 95.9261 186.469 95.9261C186.469 95.9261 187.01 104.128 190.295 105.88C192.971 107.308 197.112 107.032 200.614 106.234C200.614 106.234 203.674 113.254 201.519 117.902C201.519 117.902 205.031 120.058 217.701 112.575C217.701 112.575 213.058 103.744 213.511 101.814C213.963 99.8841 229.968 87.1635 220.869 74.8565C209.891 60.0191 190.886 73.1532 190.886 73.1532Z" fill="#FF946C"/>
<path d="M202.759 120.363C210.874 120.363 218.35 114.652 218.429 114.583C218.468 114.554 218.478 114.485 218.449 114.446C218.419 114.406 218.35 114.396 218.311 114.426C218.223 114.495 209.566 121.101 200.831 120.048C200.782 120.048 200.723 120.077 200.723 120.136C200.723 120.195 200.752 120.245 200.811 120.245C201.46 120.323 202.119 120.363 202.759 120.363Z" fill="#1F1312"/>
<path d="M213.127 134.422C213.127 134.422 213.127 134.422 213.137 134.422C213.186 134.422 213.225 134.363 213.216 134.314C212.478 129.234 210.874 120.688 210.865 120.599C210.855 120.55 210.805 120.51 210.746 120.52C210.697 120.53 210.658 120.579 210.668 120.638C210.687 120.727 212.281 129.263 213.019 134.344C213.019 134.393 213.068 134.432 213.117 134.432L213.127 134.422Z" fill="#1F1312"/>
<path d="M193.542 154.232C193.591 154.232 193.63 154.192 193.64 154.143L194.821 142.683C194.821 142.634 194.791 142.584 194.732 142.574C194.683 142.574 194.634 142.604 194.624 142.663L193.443 154.123C193.443 154.173 193.473 154.222 193.532 154.232C193.532 154.232 193.532 154.232 193.542 154.232Z" fill="#1F1312"/>
<path d="M228.65 138.38C228.65 138.38 228.709 138.361 228.728 138.331C228.758 138.282 228.748 138.223 228.699 138.193C228.64 138.154 222.462 134.225 213.127 134.639C203.792 135.062 199.326 137.199 199.286 137.218C199.237 137.238 199.218 137.297 199.237 137.346C199.257 137.396 199.316 137.415 199.365 137.396C199.405 137.376 203.851 135.259 213.137 134.836C222.413 134.412 228.542 138.311 228.601 138.351C228.62 138.361 228.64 138.37 228.65 138.37V138.38Z" fill="#1F1312"/>
<path d="M231.07 154.311C231.129 154.311 231.168 154.261 231.168 154.212C231.03 149.969 230.597 145.962 230.597 145.922C230.597 145.873 230.548 145.824 230.489 145.834C230.44 145.834 230.391 145.883 230.401 145.942C230.401 145.981 230.834 149.988 230.971 154.222C230.971 154.271 231.02 154.32 231.07 154.32V154.311Z" fill="#1F1312"/>
<path d="M217.229 110.005L218.704 112.723L202.66 124.862C201.431 125.798 199.67 124.823 199.808 123.287L199.886 118.433L201.175 116.08L217.229 110.005Z" fill="#F9EEEA"/>
<path d="M190.345 88.4827C190.741 88.4827 191.063 87.5878 191.063 86.484C191.063 85.3802 190.741 84.4854 190.345 84.4854C189.948 84.4854 189.626 85.3802 189.626 86.484C189.626 87.5878 189.948 88.4827 190.345 88.4827Z" fill="#1F1312"/>
<path d="M192.843 84.249C192.843 84.249 192.764 84.249 192.725 84.2391C192.499 84.1997 192.282 84.0816 192.066 83.9831C191.309 83.6385 190.472 83.4613 189.646 83.4909C188.987 83.5106 187.807 83.5204 188.072 82.5063C188.643 80.3206 192.184 82.0239 193.197 82.8017C193.787 83.2546 193.64 84.308 192.833 84.249H192.843Z" fill="#1F1312"/>
<path d="M196.512 73.8325C196.68 78.1645 197.191 82.5852 199.65 85.726C202.11 88.8667 205.248 92.0961 205.248 94.3901C205.248 96.6842 204.992 96.8515 204.146 99.9923C203.3 103.133 204.913 105.772 206.772 108.233C208.641 110.695 207.362 114.859 207.362 114.859C207.362 114.859 209.31 114.603 209.989 113.589C210.668 112.565 211.514 109.424 209.822 107.219C208.12 105.014 207.53 103.478 207.53 102.464C207.53 102.464 208.464 104.078 209.31 105.181C210.156 106.284 212.369 109.001 212.281 110.36C212.192 111.718 211.435 113.077 211.435 113.077C211.435 113.077 214.317 113.668 215.852 112.309C217.376 110.95 216.619 109.247 222.128 110.183C227.646 111.118 230.784 108.735 233.076 105.338C233.076 105.338 233.755 103.133 230.951 99.313C228.148 95.4929 225.944 95.2959 225.944 92.4013C225.944 89.5166 234.207 79.1491 223.141 69.8351C218.783 66.1627 212.871 66.271 207.018 68.3878C201.165 70.5046 196.493 73.8226 196.493 73.8226L196.512 73.8325Z" fill="#832E18"/>
<path d="M196.513 73.8323C196.513 73.8323 195.627 74.1277 193.079 74.1277C190.522 74.1277 187.108 75.0335 187.108 75.0335L192.952 69.4116L205.336 66.3496L211.868 66.4382L215.685 68.8209L196.503 73.8323H196.513Z" fill="#832E18"/>
<path d="M209.664 68.6043H209.684C212.133 67.9939 219.767 67.9249 219.846 67.9249C219.905 67.9249 219.944 67.8757 219.944 67.8265C219.944 67.7674 219.895 67.728 219.846 67.728C219.767 67.728 212.114 67.7871 209.635 68.4074C209.586 68.4172 209.546 68.4763 209.566 68.5255C209.576 68.5747 209.615 68.6043 209.664 68.6043Z" fill="#1F1312"/>
<path d="M183.705 99.7459C183.705 99.7459 183.754 99.7459 183.774 99.7262C183.813 99.6868 183.823 99.6277 183.783 99.5883C183.764 99.5686 182.101 97.6192 181.855 94.636C181.698 92.6964 182.996 90.9931 184.049 89.6246C184.62 88.8763 185.121 88.2265 185.249 87.7047C185.623 86.1097 185.446 83.5892 184.738 80.606C183.862 76.904 185.711 75.6536 186.548 75.2795C187.856 74.7084 193.04 74.098 195.076 74.098C197.112 74.098 197.683 73.1627 197.703 73.1134C197.732 73.0642 197.722 73.0051 197.673 72.9756C197.624 72.9461 197.565 72.9559 197.535 73.0051C197.535 73.0051 196.935 73.8912 195.076 73.8912C193.217 73.8912 187.876 74.4721 186.469 75.0924C185.584 75.4764 183.636 76.7957 184.541 80.6453C185.239 83.5892 185.416 86.0801 185.052 87.6456C184.934 88.1379 184.452 88.768 183.892 89.4966C182.819 90.8946 181.491 92.6275 181.659 94.6458C181.914 97.698 183.616 99.6966 183.636 99.7163C183.656 99.736 183.685 99.7459 183.715 99.7459H183.705Z" fill="#1F1312"/>
<path d="M200.054 71.44C200.054 71.44 200.083 71.44 200.093 71.4301C201.204 70.8788 205.798 69.6973 205.848 69.6776C205.897 69.6677 205.936 69.6087 205.916 69.5594C205.897 69.5102 205.848 69.4708 205.798 69.4905C205.611 69.5398 201.136 70.6917 200.004 71.2529C199.955 71.2824 199.936 71.3317 199.965 71.3809C199.985 71.4203 200.014 71.44 200.054 71.44Z" fill="#1F1312"/>
<path d="M215.95 109.257C215.95 109.257 216.039 109.227 216.048 109.178C216.55 106.53 213.786 103.743 211.946 101.902C211.563 101.518 211.209 101.164 210.933 100.849C209.969 99.7855 210.136 99.244 210.422 98.2496C210.609 97.6195 210.835 96.8319 210.874 95.6504C210.953 92.9133 209.035 89.8513 204.48 85.3814C200.732 81.709 201.057 77.5836 201.706 73.6651C201.706 73.6159 201.677 73.5568 201.627 73.5469C201.568 73.5371 201.519 73.5765 201.509 73.6257C200.85 77.5935 200.526 81.7779 204.342 85.5192C208.858 89.9399 210.756 92.9625 210.677 95.6405C210.648 96.7925 210.422 97.5703 210.235 98.1905C209.93 99.2145 209.753 99.8348 210.786 100.977C211.071 101.292 211.425 101.646 211.809 102.03C213.609 103.842 216.334 106.579 215.852 109.129C215.842 109.178 215.881 109.237 215.93 109.247C215.93 109.247 215.94 109.247 215.95 109.247V109.257Z" fill="#1F1312"/>
<path d="M222.679 107.79C222.679 107.79 222.757 107.76 222.777 107.721C224.174 103.536 223.495 100.396 220.918 99.1059C219.924 98.6136 218.862 98.3773 217.927 98.1705C215.999 97.757 214.612 97.4518 214.75 95.3448C214.78 94.9018 214.819 94.4883 214.849 94.0846C215.075 91.505 215.242 89.6344 213.255 87.3502C212.448 86.4149 211.366 85.5189 210.314 84.6426C208.425 83.0673 206.467 81.4428 206.035 79.5721C206.025 79.5229 205.976 79.4835 205.917 79.5032C205.867 79.5131 205.828 79.5721 205.848 79.6214C206.29 81.5511 208.277 83.2052 210.196 84.8002C211.238 85.6666 212.311 86.5625 213.117 87.4782C215.045 89.7033 214.888 91.5346 214.662 94.0649C214.622 94.4686 214.593 94.8919 214.563 95.335C214.406 97.6093 216.019 97.9638 217.888 98.3675C218.813 98.5644 219.865 98.8007 220.839 99.2831C224.361 101.045 223.239 105.722 222.6 107.662C222.58 107.711 222.61 107.77 222.659 107.79C222.669 107.79 222.679 107.79 222.689 107.79H222.679Z" fill="#1F1312"/>
<path d="M203.497 104.295L201.687 109.168L201.588 109.129C201.126 107.406 200.614 106.224 200.614 106.224C199.168 106.549 197.408 106.776 195.647 106.874C200.713 105.693 203.497 104.305 203.497 104.305V104.295Z" fill="#1F1312"/>
<path d="M193.748 97.7179C195.007 95.6405 194.624 100.337 192.017 101.075C191.063 101.351 190.246 101.44 189.607 101.449C188.731 101.469 187.993 100.8 187.905 99.9233C187.905 99.9135 187.905 99.9036 187.905 99.8839C187.826 99.1357 189.39 100.101 190.187 100.11C191.968 100.13 192.912 99.0864 193.748 97.7081V97.7179Z" fill="white"/>
<path d="M219.708 84.0621C219.354 84.0621 218.321 83.6782 218.085 83.4517V86.4842C218.085 86.878 217.77 87.1931 217.376 87.1931H209.045C208.651 87.2029 208.336 86.8878 208.336 86.494V83.7175C208.494 83.7963 208.681 83.8357 208.868 83.8357C209.576 83.8357 210.146 83.2548 210.146 82.5459C210.146 81.837 209.566 81.266 208.858 81.266C208.661 81.266 208.484 81.3054 208.317 81.3841V78.1548C208.317 77.7609 208.631 77.4459 209.015 77.4459H212.419C211.996 77.6625 211.701 78.1055 211.701 78.6175C211.701 79.3461 212.291 79.9368 213.029 79.9368C213.756 79.9368 214.347 79.3461 214.347 78.6077C214.347 78.0957 214.052 77.6526 213.619 77.436H217.347C217.74 77.436 218.055 77.7511 218.055 78.1351V81.6204C218.291 81.3841 218.941 80.6457 219.295 80.6457C220.003 80.6457 221.134 81.7583 221.134 82.4672C221.134 83.176 220.396 84.0523 219.688 84.0523L219.708 84.0621Z" fill="#D2AEFC"/>
<path d="M224.469 76.6382C224.469 76.9927 224.331 77.3176 224.095 77.544H227.125C227.518 77.544 227.833 77.8591 227.833 78.2529V86.5922C227.843 86.986 227.528 87.3011 227.135 87.3011H224.361C224.439 87.1435 224.479 86.9565 224.479 86.7694C224.479 86.0605 223.898 85.4895 223.19 85.4895C222.482 85.4895 221.911 86.0704 221.911 86.7792C221.911 86.9762 221.951 87.1534 222.029 87.3208H218.803C218.409 87.3208 218.095 87.0057 218.095 86.6217V83.2151C218.311 83.6385 218.754 83.9339 219.265 83.9339C219.993 83.9339 220.583 83.3431 220.583 82.6047C220.583 81.8761 219.993 81.2854 219.255 81.2854C218.744 81.2854 218.301 81.5808 218.085 82.014V78.2825C218.085 77.8886 218.4 77.5736 218.783 77.5736H222.265C222.029 77.3373 221.892 77.0124 221.892 76.6579C221.892 75.9491 222.462 75.3682 223.17 75.3682C223.879 75.3682 224.459 75.9392 224.459 76.6481L224.469 76.6382Z" fill="#794DAB"/>
<path d="M211.73 78.6073C211.73 78.243 211.868 77.9181 212.094 77.6719L209.005 77.731C208.602 77.731 208.277 77.4258 208.268 77.0221L208.11 68.5253C208.11 68.1217 208.415 67.7968 208.818 67.7869L211.642 67.7377C211.563 67.9051 211.524 68.0921 211.533 68.289C211.543 69.0176 212.143 69.5887 212.871 69.5788C213.599 69.569 214.17 68.9684 214.16 68.2398C214.16 68.0429 214.111 67.8558 214.032 67.6885L217.317 67.6294C217.721 67.6294 218.045 67.9346 218.055 68.3383L218.124 71.8039C217.888 71.3707 217.436 71.0754 216.914 71.0852C216.167 71.0951 215.576 71.7153 215.586 72.4636C215.596 73.2119 216.216 73.8026 216.963 73.7928C217.485 73.7829 217.927 73.4777 218.144 73.0346L218.213 76.8351C218.213 77.2387 217.908 77.5636 217.504 77.5735L213.953 77.6424C214.189 77.8787 214.347 78.2036 214.357 78.558C214.366 79.2866 213.796 79.8774 213.068 79.897C212.34 79.9069 211.75 79.3358 211.73 78.6073Z" fill="#E8D4FF"/>
<path d="M221.124 67.0192C221.508 67.0192 221.862 67.157 222.118 67.413L222.059 64.1147C222.059 63.6913 222.393 63.3369 222.816 63.327L231.896 63.1597C232.319 63.1597 232.673 63.4944 232.683 63.9178L232.742 66.9404C232.565 66.8616 232.358 66.8222 232.152 66.8222C231.374 66.8321 230.765 67.4721 230.774 68.2499C230.784 69.0277 231.424 69.6381 232.201 69.6282C232.407 69.6282 232.604 69.5692 232.781 69.4904L232.85 73.0053C232.85 73.4287 232.516 73.7831 232.093 73.7929L228.384 73.8619C228.846 73.6157 229.161 73.1234 229.151 72.5721C229.132 71.7746 228.482 71.1445 227.686 71.1543C226.889 71.174 226.259 71.8238 226.269 72.6213C226.279 73.1825 226.613 73.6551 227.076 73.8816L223.013 73.9603C222.59 73.9603 222.236 73.6256 222.226 73.2022L222.157 69.4018C221.911 69.6578 221.567 69.8252 221.174 69.8252C220.396 69.835 219.767 69.2246 219.747 68.4468C219.737 67.669 220.347 67.0388 221.124 67.0192Z" fill="#F7D15E"/>
<path d="M206.389 95.4336C206.487 94.9512 206.408 94.4096 206.123 94.0454C205.907 93.7697 205.956 93.366 206.231 93.1396C206.517 92.923 206.91 92.9722 207.136 93.2479C207.638 93.8878 207.815 94.7542 207.677 95.5714C207.244 95.4631 206.822 95.3942 206.389 95.4336Z" fill="#FFBD67"/>
<path d="M200.24 89.0341C200.24 89.0341 202.621 84.3082 205.926 84.4361C209.231 84.5641 211.651 90.826 208.867 93.0806C206.074 95.3353 201.46 94.0553 201.46 94.0553L200.25 89.0341H200.24Z" fill="#FF946C"/>
<path d="M202.464 90.2847C202.464 90.2847 202.513 90.2847 202.523 90.265C202.562 90.2256 202.572 90.1665 202.532 90.1271C202.532 90.1271 202.375 89.881 202.552 88.8669C202.729 87.843 203.988 86.307 205.641 86.1101C206.093 86.0609 206.556 86.2381 207.008 86.6516C207.923 87.4885 208.503 89.0146 208.484 89.9204C208.484 89.9795 208.523 90.0188 208.582 90.0188C208.631 90.0188 208.68 89.9795 208.68 89.9204C208.71 88.9752 208.1 87.3704 207.146 86.5039C206.664 86.0609 206.133 85.8541 205.621 85.9132C203.88 86.12 202.542 87.7445 202.355 88.8275C202.168 89.9302 202.336 90.2059 202.375 90.2453C202.395 90.265 202.424 90.2847 202.454 90.2847H202.464Z" fill="#1F1312"/>
<path d="M203.683 92.1945C203.683 92.1945 203.762 92.165 203.782 92.1256C204.067 91.1312 203.752 90.6488 203.428 90.4125C202.916 90.0285 202.1 90.0974 201.982 90.1762C201.932 90.2057 201.923 90.2648 201.952 90.314C201.982 90.3534 202.041 90.3731 202.08 90.3436C202.178 90.3042 202.946 90.2353 203.378 90.6291C203.703 90.9245 203.772 91.4069 203.585 92.0665C203.565 92.1158 203.595 92.1748 203.654 92.1847C203.654 92.1847 203.674 92.1847 203.683 92.1847V92.1945Z" fill="#1F1312"/>
<path d="M202.542 88.4924C202.542 88.4924 203.693 89.0635 203.388 90.4813C203.388 90.4813 202.513 90.4025 202.473 90.176C202.434 89.9496 202.395 88.9158 202.552 88.4924H202.542Z" fill="#1F1312"/>
<path d="M205.946 92.3521C207.205 92.2339 208.012 90.9835 208.051 90.9245C208.081 90.8752 208.071 90.8162 208.021 90.7866C207.972 90.7571 207.913 90.7669 207.884 90.8162C207.884 90.826 207.087 92.037 205.926 92.1453C205.877 92.1453 205.828 92.1946 205.838 92.2536C205.838 92.3029 205.887 92.3422 205.936 92.3422L205.946 92.3521Z" fill="#1F1312"/>
<path d="M203.211 92.7359C203.457 92.4799 203.87 92.4799 204.116 92.7359C204.372 92.9821 204.372 93.3956 204.116 93.6417C203.9 93.8682 203.29 94.6558 203.398 95.2958C203.457 95.6601 203.762 95.985 204.303 96.2508C204.844 96.5167 205.582 96.7136 206.074 96.113C206.231 95.9259 206.33 95.6798 206.379 95.4336C206.812 95.3943 207.235 95.473 207.667 95.5715C207.579 96.0638 207.382 96.5363 207.067 96.9302C206.595 97.5012 205.966 97.7966 205.247 97.7966C204.765 97.7966 204.254 97.6686 203.733 97.4028C202.808 96.94 202.267 96.3001 202.139 95.5026C201.903 94.1045 203.074 92.8639 203.211 92.7359Z" fill="#FFBD67"/>
<g style="mix-blend-mode:multiply">
<path d="M189.872 19.6025L188.731 18.4702L187.108 20.1046L185.485 18.4702L184.344 19.6025L185.977 21.2368L184.344 22.8614L185.485 23.9936L187.108 22.3691L188.731 23.9936L189.872 22.8614L188.239 21.2368L189.872 19.6025Z" fill="#CBBFD9"/>
</g>
<path d="M156.112 129.775V131.331H163.027V138.626H164.946V129.775H156.112Z" fill="#F7D15E"/>
<g style="mix-blend-mode:multiply">
<path d="M161.935 132.246H153.092V141.098H161.935V132.246Z" fill="#CBBFD9"/>
</g>
<g style="mix-blend-mode:multiply">
<path d="M110.089 129.96C110.597 127.806 109.264 125.648 107.112 125.139C104.96 124.631 102.804 125.965 102.296 128.119C101.788 130.273 103.121 132.431 105.273 132.939C107.425 133.448 109.581 132.114 110.089 129.96Z" fill="#CBBFD9"/>
</g>
<defs>
<linearGradient id="paint0_linear_1692_86338" x1="237.122" y1="132.409" x2="255.927" y2="120.509" gradientUnits="userSpaceOnUse">
<stop stop-color="#53BFC0"/>
<stop offset="1" stop-color="#95DDDE"/>
</linearGradient>
<linearGradient id="paint1_linear_1692_86338" x1="222.316" y1="151.54" x2="231.269" y2="100.371" gradientUnits="userSpaceOnUse">
<stop stop-color="#53BFC0"/>
<stop offset="1" stop-color="#95DDDE"/>
</linearGradient>
<linearGradient id="paint2_linear_1692_86338" x1="225" y1="155.051" x2="253.18" y2="125.275" gradientUnits="userSpaceOnUse">
<stop stop-color="#83DDDE"/>
<stop offset="1" stop-color="#BBF1F2"/>
</linearGradient>
<linearGradient id="paint3_linear_1692_86338" x1="60.192" y1="151.091" x2="33.0817" y2="117.117" gradientUnits="userSpaceOnUse">
<stop stop-color="#53BFC0"/>
<stop offset="1" stop-color="#95DDDE"/>
</linearGradient>
<linearGradient id="paint4_linear_1692_86338" x1="35.6292" y1="162.157" x2="18.3912" y2="130.694" gradientUnits="userSpaceOnUse">
<stop stop-color="#83DDDE"/>
<stop offset="1" stop-color="#BBF1F2"/>
</linearGradient>
</defs>
</svg>
