<svg width="305" height="196" viewBox="0 0 305 196" fill="none" xmlns="http://www.w3.org/2000/svg">
<path d="M58.5971 23.2411C22.1987 23.4603 12.4743 59.0995 32.2158 79.1368C59.5277 106.855 134.499 22.7819 58.5971 23.2411V23.2411Z" fill="#F0F7F7"/>
<path d="M179.399 4.29975C109.509 -2.16018 104.417 37.5595 95.1628 60.1954C91.6913 68.6799 85.7521 74.9624 79.677 79.4917C71.7511 85.409 62.3405 89.0303 52.522 90.3348C-10.6132 98.7358 -0.313713 183.769 23.4221 190.928H275.199C337.216 73.1361 249.289 10.7701 179.399 4.29975Z" fill="#F0F7F7"/>
<path d="M39.2423 146.304C39.2423 146.304 39.2841 146.294 39.2946 146.283C39.3991 146.221 39.4305 146.074 39.3678 145.97C31.055 132.508 13.2897 119.661 6.0958 119.901C5.97033 119.901 5.87622 120.005 5.87622 120.13C5.87622 120.256 5.98078 120.35 6.10626 120.35C13.1852 120.109 30.7309 132.842 38.9704 146.2C39.0227 146.294 39.1377 146.325 39.2318 146.294L39.2423 146.304Z" fill="#15A3A5"/>
<path d="M6.22131 118.773C6.60819 119.65 7.70611 120.015 7.70611 120.015C7.70611 120.015 8.1871 118.961 7.81067 118.085C7.42378 117.208 6.32587 116.843 6.32587 116.843C6.32587 116.843 5.84488 117.897 6.22131 118.773Z" fill="#15A3A5"/>
<path d="M16.824 123.125C16.9391 124.075 17.8906 124.743 17.8906 124.743C17.8906 124.743 18.6539 123.866 18.5493 122.916C18.4343 121.967 17.4828 121.299 17.4828 121.299C17.4828 121.299 16.7195 122.175 16.824 123.125Z" fill="#15A3A5"/>
<path d="M10.9265 122.468C10.1005 122.959 9.89136 124.107 9.89136 124.107C9.89136 124.107 10.9997 124.451 11.8258 123.95C12.6518 123.449 12.8609 122.312 12.8609 122.312C12.8609 122.312 11.7526 121.967 10.9265 122.468Z" fill="#15A3A5"/>
<path d="M21.1633 129C20.3373 129.491 20.1282 130.639 20.1282 130.639C20.1282 130.639 21.2365 130.983 22.0626 130.482C22.8886 129.992 23.0978 128.844 23.0978 128.844C23.0978 128.844 21.9894 128.5 21.1633 129Z" fill="#15A3A5"/>
<path d="M82.4477 189.968C85.9924 174.554 79.3108 174.095 80.5028 169.399C81.6948 164.703 83.4724 157.335 78.6939 153.484C73.9154 149.633 71.7927 145.699 72.3574 142.359C72.922 139.019 74.5636 126.987 68.4572 123.177C62.3402 119.368 59.6216 117.448 58.7746 111.489C57.9277 105.53 58.3145 96.2002 51.5807 93.7373C44.8364 91.2744 42.7451 88.0079 41.8981 82.0489C41.0512 76.0899 33.4494 67.0001 15.3809 64.8711C11.3971 76.6326 12.2441 82.602 17.1272 89.7716C20.3825 94.5513 21.4212 99.6232 20.2431 104.987C18.4865 113.023 22.6585 118.888 27.458 123.407C32.2574 127.926 32.9998 130.566 31.8496 136.588C30.6994 142.609 29.5806 149.967 36.3772 154.423C43.1738 158.879 45.3383 164.139 44.9096 172.133C44.4808 180.127 44.3867 181.453 44.3867 181.453C44.3867 181.453 48.1092 190.01 54.1843 192.483L82.4477 189.979V189.968Z" fill="url(#paint0_linear_1692_90029)"/>
<path d="M69.4295 189.363C69.1263 189.363 68.844 189.165 68.7603 188.862C68.593 188.194 51.8211 121.706 25.4608 75.8705C25.2726 75.547 25.3876 75.1504 25.7117 74.9626C26.0359 74.7747 26.4332 74.8895 26.6214 75.213C53.0759 121.215 69.8896 187.881 70.0569 188.549C70.151 188.904 69.9314 189.269 69.5759 189.352C69.5236 189.363 69.4818 189.373 69.4295 189.373V189.363Z" fill="#15A3A5"/>
<path d="M34.7775 191.962H56.1084C56.1084 191.962 56.5057 188.737 54.2785 184.281C52.0513 179.835 51.4971 180.388 52.0513 175.943C52.6055 171.497 52.6055 168.157 48.1511 162.595C43.6967 157.032 42.0237 158.702 40.9049 154.809C39.7861 150.917 40.3507 147.577 33.6587 144.801C26.9771 142.025 26.4125 143.131 21.9581 138.133C17.5037 133.123 15.8307 130.9 0.229868 130.9C-0.888957 139.802 1.90288 148.141 9.70328 152.587C17.5037 157.032 18.0579 159.255 18.6225 163.711C19.1871 168.168 20.8497 170.38 24.7499 173.166C28.6501 175.942 28.0959 178.176 29.2043 184.291C30.3231 190.407 34.7775 191.972 34.7775 191.972V191.962Z" fill="url(#paint1_linear_1692_90029)"/>
<path d="M45.9239 190.396C45.673 190.396 45.4429 190.229 45.3802 189.968C45.3279 189.739 39.4724 166.435 9.33731 139.093C9.10727 138.884 9.09681 138.539 9.29548 138.31C9.50461 138.08 9.84966 138.07 10.0797 138.268C40.4971 165.872 46.4049 189.478 46.4572 189.708C46.5304 190.01 46.3422 190.302 46.0494 190.375C46.0076 190.375 45.9657 190.386 45.9239 190.386V190.396Z" fill="#15A3A5"/>
<path d="M39.692 188.195C39.692 188.195 39.7338 188.184 39.7443 188.174C39.8488 188.111 39.8802 187.965 39.8175 187.861C31.5047 174.398 13.7394 161.551 6.54551 161.791C6.42003 161.791 6.32593 161.896 6.32593 162.021C6.32593 162.146 6.43049 162.24 6.55597 162.24C13.6349 162 31.1806 174.732 39.4201 188.09C39.4724 188.184 39.5874 188.216 39.6815 188.184L39.692 188.195Z" fill="#15A3A5"/>
<path d="M6.67102 160.664C7.0579 161.541 8.15581 161.906 8.15581 161.906C8.15581 161.906 8.6368 160.852 8.26038 159.975C7.87349 159.099 6.77558 158.733 6.77558 158.733C6.77558 158.733 6.29459 159.787 6.67102 160.664Z" fill="#15A3A5"/>
<path d="M17.2736 165.016C17.3886 165.965 18.3402 166.633 18.3402 166.633C18.3402 166.633 19.1035 165.757 18.9989 164.807C18.8839 163.857 17.9324 163.189 17.9324 163.189C17.9324 163.189 17.1586 164.066 17.2736 165.016Z" fill="#15A3A5"/>
<path d="M11.3762 164.359C10.5502 164.849 10.3411 165.997 10.3411 165.997C10.3411 165.997 11.4494 166.342 12.2755 165.841C13.1015 165.35 13.3107 164.202 13.3107 164.202C13.3107 164.202 12.2023 163.858 11.3762 164.359Z" fill="#15A3A5"/>
<path d="M21.6026 170.891C20.7765 171.382 20.5674 172.53 20.5674 172.53C20.5674 172.53 21.6758 172.874 22.5018 172.373C23.3278 171.872 23.537 170.735 23.537 170.735C23.537 170.735 22.4286 170.39 21.6026 170.891Z" fill="#15A3A5"/>
<path d="M271.101 156.322C271.101 156.322 271.059 156.312 271.048 156.301C270.944 156.239 270.902 156.093 270.975 155.988C279.424 142.307 297.482 129.251 304.78 129.502C304.906 129.502 305.01 129.616 305 129.742C305 129.867 304.885 129.971 304.759 129.961C297.565 129.721 279.737 142.661 271.362 156.228C271.31 156.322 271.195 156.354 271.101 156.333V156.322Z" fill="#15A3A5"/>
<path d="M304.655 128.343C304.268 129.23 303.139 129.606 303.139 129.606C303.139 129.606 302.647 128.531 303.034 127.644C303.421 126.757 304.55 126.381 304.55 126.381C304.55 126.381 305.042 127.456 304.655 128.343Z" fill="#15A3A5"/>
<path d="M293.885 132.768C293.77 133.728 292.797 134.406 292.797 134.406C292.797 134.406 292.013 133.519 292.128 132.549C292.243 131.589 293.216 130.91 293.216 130.91C293.216 130.91 294 131.797 293.885 132.768Z" fill="#15A3A5"/>
<path d="M299.876 132.1C300.713 132.601 300.932 133.759 300.932 133.759C300.932 133.759 299.803 134.104 298.966 133.603C298.13 133.102 297.91 131.944 297.91 131.944C297.91 131.944 299.04 131.599 299.876 132.1V132.1Z" fill="#15A3A5"/>
<path d="M289.472 138.737C290.309 139.238 290.528 140.396 290.528 140.396C290.528 140.396 289.399 140.741 288.563 140.24C287.726 139.739 287.507 138.58 287.507 138.58C287.507 138.58 288.636 138.236 289.472 138.737Z" fill="#15A3A5"/>
<path d="M270.745 182.632L251.913 180.555C251.913 180.555 251.997 178.384 253.931 175.692C255.876 172.999 260.958 173.239 261.062 170.244C261.167 167.259 261.522 165.057 265.046 161.864C268.57 158.671 269.501 159.954 270.64 157.502C271.791 155.06 271.78 152.795 276.475 151.678C281.17 150.551 281.421 151.344 284.892 148.527C288.364 145.698 289.702 144.415 299.97 146.064C299.761 152.044 297.032 157.241 291.427 159.349C285.812 161.457 285.216 162.855 284.369 165.725C283.522 168.595 282.195 169.889 279.33 171.298C276.465 172.717 276.6 174.241 275.21 178.155C273.83 182.068 270.724 182.621 270.724 182.621L270.745 182.632Z" fill="url(#paint2_linear_1692_90029)"/>
<path d="M263.572 180.43C263.739 180.461 263.906 180.367 263.969 180.211C264.032 180.065 270.368 165.339 293.121 150.52C293.289 150.405 293.341 150.176 293.226 150.009C293.111 149.842 292.881 149.789 292.714 149.904C269.741 164.859 263.342 179.783 263.279 179.929C263.195 180.117 263.289 180.336 263.478 180.409C263.509 180.419 263.53 180.43 263.561 180.43H263.572Z" fill="#15A3A5"/>
<path d="M248.264 191.262C246.131 183.091 249.686 182.725 248.975 180.242C248.264 177.758 247.197 173.844 249.686 171.705C252.175 169.576 253.252 167.437 252.896 165.662C252.541 163.888 251.474 157.491 254.674 155.352C257.884 153.223 259.306 152.148 259.661 148.954C260.017 145.75 259.661 140.783 263.227 139.353C266.792 137.923 267.859 136.149 268.215 132.956C268.57 129.752 272.491 124.784 282.111 123.354C284.422 129.574 284.066 132.778 281.578 136.681C279.919 139.29 279.445 142.014 280.156 144.853C281.222 149.121 279.089 152.315 276.59 154.809C274.101 157.293 273.735 158.722 274.457 161.916C275.168 165.12 275.879 169.023 272.324 171.517C268.758 174.001 267.692 176.85 268.047 181.118C268.403 185.387 268.476 186.086 268.476 186.086C268.476 186.086 266.625 190.719 263.415 192.139L248.274 191.252L248.264 191.262Z" fill="url(#paint3_linear_1692_90029)"/>
<path d="M255.207 190.729C255.374 190.729 255.521 190.615 255.552 190.448C255.625 190.093 263.53 154.297 276.893 129.397C276.987 129.219 276.925 129.01 276.747 128.917C276.569 128.823 276.36 128.885 276.266 129.063C262.861 154.057 254.935 189.936 254.862 190.302C254.82 190.489 254.945 190.688 255.134 190.729C255.155 190.729 255.186 190.729 255.207 190.729V190.729Z" fill="#15A3A5"/>
<path d="M272.104 191.68L259.923 189.718C259.923 189.718 259.996 187.839 261.679 185.502C263.363 183.164 263.635 183.529 263.718 180.941C263.812 178.353 264.116 176.443 267.179 173.678C270.243 170.912 271.038 172.018 272.031 169.9C273.024 167.781 273.014 165.819 277.092 164.849C281.17 163.878 281.379 164.557 284.39 162.115C287.402 159.662 288.562 158.545 297.471 159.986C297.283 165.172 294.93 169.681 290.058 171.507C285.195 173.333 284.662 174.554 283.941 177.038C283.209 179.532 282.048 180.649 279.57 181.88C277.081 183.112 277.196 184.437 275.994 187.829C274.791 191.221 272.104 191.701 272.104 191.701V191.68Z" fill="url(#paint4_linear_1692_90029)"/>
<path d="M265.883 189.77C266.029 189.791 266.175 189.718 266.228 189.572C266.28 189.446 271.78 176.673 291.521 163.815C291.668 163.722 291.71 163.523 291.616 163.367C291.521 163.221 291.323 163.179 291.166 163.273C271.236 176.245 265.684 189.186 265.632 189.321C265.558 189.488 265.632 189.676 265.809 189.739C265.83 189.739 265.862 189.76 265.883 189.76V189.77Z" fill="#15A3A5"/>
<path d="M143.669 24.7226C99.6693 29.7632 86.5153 77.8109 97.829 103.797C109.143 129.772 119.62 139.373 122.161 145.875C124.712 152.366 124.419 190.208 124.419 190.208H190.346C187.513 183.435 188.653 169.314 190.346 169.033C209.868 169.033 215.808 167.906 217.512 159.713C219.206 151.521 214.961 126.391 221.757 123.855C228.554 121.319 232.789 120.463 230.812 118.209C228.836 115.955 215.253 95.3331 217.23 89.969C219.206 84.6048 220.91 80.3678 220.91 76.1307C220.91 71.8937 202.8 17.96 143.669 24.733V24.7226Z" fill="url(#paint5_linear_1692_90029)"/>
<path d="M153.007 46.6175C151.167 31.6104 121.858 32.7793 127.337 58.1076C120.707 53.6723 115.396 61.8333 118.972 66.9157C107.48 64.4736 99.1151 86.619 118.888 92.3066C110.743 96.3663 114.287 105.581 119.996 106.009C112.217 115.965 120.948 133.039 138.818 128.478C138.169 133.414 146.942 138.225 153.08 129.47L153.007 46.6175V46.6175Z" fill="#AFC1F2"/>
<path d="M161.874 46.6175C163.714 31.6104 193.023 32.7793 187.544 58.1076C194.174 53.6723 199.485 61.8333 195.909 66.9157C207.401 64.4736 215.766 86.619 195.993 92.3066C204.138 96.3663 200.594 105.581 194.885 106.009C202.664 115.965 193.933 133.039 176.063 128.478C176.711 133.414 167.939 138.225 161.801 129.47L161.874 46.6175Z" fill="#AFC1F2"/>
<path d="M129.533 70.7558C129.428 70.7558 129.323 70.6932 129.261 70.5993C129.177 70.4532 129.24 70.2653 129.386 70.1922C131.059 69.2947 132.084 67.531 132.136 65.4543C132.199 63.0644 130.955 60.7893 128.895 59.537C128.748 59.4535 128.707 59.2657 128.79 59.1196C128.874 58.9735 129.062 58.9317 129.208 59.0152C131.457 60.3823 132.816 62.8557 132.743 65.4647C132.68 67.7606 131.53 69.7226 129.669 70.7245C129.627 70.7454 129.574 70.7558 129.522 70.7558H129.533Z" fill="#627595"/>
<path d="M133.255 62.9707C132.669 62.9707 132.147 62.8872 131.728 62.762C131.571 62.7203 131.477 62.5428 131.519 62.3863C131.561 62.2298 131.739 62.1358 131.896 62.1776C132.293 62.2924 135.806 63.1899 137.657 59.5999C137.73 59.4538 137.918 59.3911 138.065 59.4642C138.211 59.5373 138.274 59.7251 138.201 59.8712C136.956 62.2924 134.897 62.9707 133.255 62.9707V62.9707Z" fill="#627595"/>
<path d="M140.784 91.5132C140.721 91.5132 140.648 91.4924 140.595 91.4402C134.071 86.1282 134.625 79.1987 137.908 75.0034C141.003 71.0481 147.047 68.8043 153.007 73.2501C153.143 73.3545 153.174 73.5423 153.07 73.678C152.965 73.8137 152.777 73.8345 152.641 73.7406C147.016 69.5453 141.306 71.6534 138.389 75.3791C135.284 79.3448 134.771 85.9195 140.982 90.9706C141.108 91.0749 141.129 91.2732 141.024 91.3985C140.961 91.4715 140.878 91.5132 140.784 91.5132V91.5132Z" fill="#627595"/>
<path d="M139.361 128.009C139.236 128.009 139.11 127.925 139.069 127.8C139.016 127.643 139.1 127.466 139.267 127.414C145.311 125.421 147.423 118.46 146.346 112.908C145.332 107.669 141.244 102.263 132.826 102.795C132.659 102.806 132.513 102.68 132.502 102.513C132.492 102.346 132.617 102.2 132.784 102.19C141.599 101.637 145.876 107.293 146.932 112.793C148.061 118.595 145.813 125.89 139.445 127.988C139.414 127.988 139.382 127.998 139.351 127.998L139.361 128.009Z" fill="#627595"/>
<path d="M144.067 107.146C143.92 107.146 143.795 107.042 143.763 106.896C143.732 106.729 143.847 106.572 144.014 106.541C146.074 106.186 147.109 104.85 147.601 103.807C148.532 101.834 148.396 99.2566 147.256 97.2424C147.172 97.0963 147.224 96.9085 147.371 96.825C147.517 96.7415 147.705 96.7937 147.789 96.9398C149.033 99.1209 149.169 101.918 148.155 104.057C147.36 105.727 145.928 106.823 144.119 107.136C144.098 107.136 144.088 107.136 144.067 107.136V107.146Z" fill="#627595"/>
<path d="M177.496 64.2854C177.496 64.2854 177.464 64.2854 177.443 64.2854C174.422 64.275 171.692 63.0853 170.323 61.1755C170.229 61.0398 170.26 60.852 170.396 60.7476C170.532 60.6537 170.72 60.685 170.825 60.8207C172.079 62.5739 174.62 63.6593 177.454 63.6697C181.072 63.701 184.418 61.9478 186.645 58.9109C186.75 58.7752 186.938 58.7439 187.074 58.8483C187.21 58.9422 187.241 59.1405 187.136 59.2761C184.805 62.4591 181.291 64.2854 177.496 64.2854V64.2854Z" fill="#627595"/>
<path d="M191.183 98.6409C191.131 98.6409 191.078 98.6305 191.026 98.5992C185.965 95.5727 183.267 90.3547 183.623 84.26C184.02 77.4557 188.213 70.954 193.797 68.4494C193.954 68.3763 194.132 68.4494 194.194 68.6059C194.268 68.7624 194.194 68.9399 194.037 69.0025C188.642 71.4132 184.606 77.7062 184.219 84.2913C183.874 90.146 186.467 95.1657 191.329 98.0774C191.476 98.1609 191.517 98.3487 191.434 98.4948C191.382 98.5888 191.277 98.6409 191.172 98.6409H191.183Z" fill="#627595"/>
<path d="M175.101 87.35C175.101 87.35 175.091 87.35 175.08 87.35C174.913 87.35 174.787 87.1934 174.787 87.0265C174.902 84.9914 176.304 83.3947 178.374 82.9668C180.319 82.5598 182.849 83.2695 184.114 85.7741C184.188 85.9203 184.125 86.1081 183.978 86.1812C183.832 86.2542 183.644 86.1916 183.571 86.0455C182.452 83.8226 180.214 83.1964 178.499 83.5513C177.077 83.8539 175.509 84.9288 175.394 87.0473C175.394 87.2143 175.247 87.3396 175.091 87.3396L175.101 87.35Z" fill="#627595"/>
<path d="M175.655 127.58C175.572 127.58 175.477 127.539 175.415 127.466C171.222 122.279 170.709 115.756 174.139 111.237C174.244 111.102 174.432 111.081 174.568 111.175C174.704 111.279 174.725 111.467 174.631 111.603C171.368 115.892 171.881 122.112 175.896 127.079C176 127.215 175.979 127.403 175.854 127.507C175.802 127.549 175.728 127.57 175.666 127.57L175.655 127.58Z" fill="#627595"/>
<path d="M77.7739 71.9884H120.028C118.825 65.9667 110.607 69.8176 110.607 69.8176C115.437 51.2623 94.1903 61.8653 90.081 69.5776C89.6 64.0361 80.1788 67.1669 77.7634 71.9884H77.7739Z" fill="#D3E4E4"/>
<path d="M242.22 68.6905H284.474C283.272 62.6689 275.053 66.5198 275.053 66.5198C279.884 47.9644 258.637 58.5675 254.527 66.2798C254.046 60.7382 244.625 63.869 242.21 68.6905H242.22Z" fill="#D3E4E4"/>
<path d="M112.844 75.6721C110.492 75.6721 108.578 73.7623 108.578 71.4142C108.578 69.0661 110.492 67.1562 112.844 67.1562C115.197 67.1562 117.11 69.0661 117.11 71.4142C117.11 73.7623 115.197 75.6721 112.844 75.6721ZM112.844 67.3232C110.586 67.3232 108.735 69.16 108.735 71.4246C108.735 73.6892 110.575 75.526 112.844 75.526C115.113 75.526 116.954 73.6892 116.954 71.4246C116.954 69.16 115.113 67.3232 112.844 67.3232Z" fill="#B9CCEB"/>
<path d="M112.844 75.6721C111.809 75.6721 111.004 73.804 111.004 71.4142C111.004 69.0243 111.809 67.1562 112.844 67.1562C113.879 67.1562 114.685 69.0243 114.685 71.4142C114.685 73.804 113.879 75.6721 112.844 75.6721ZM112.844 67.3232C111.914 67.3232 111.161 69.16 111.161 71.4246C111.161 73.6892 111.914 75.526 112.844 75.526C113.775 75.526 114.528 73.6892 114.528 71.4246C114.528 69.16 113.775 67.3232 112.844 67.3232Z" fill="#B9CCEB"/>
<path d="M112.844 69.64C111.516 69.64 110.293 69.3896 109.488 68.9408C109.467 68.9304 109.457 68.9095 109.446 68.8886C109.446 68.8678 109.446 68.8469 109.457 68.826C110.272 67.7615 111.506 67.1562 112.834 67.1562C114.162 67.1562 115.406 67.7615 116.211 68.826C116.222 68.8469 116.232 68.8678 116.222 68.8886C116.222 68.9095 116.201 68.9304 116.18 68.9408C115.364 69.3896 114.141 69.64 112.823 69.64H112.844ZM109.645 68.8469C110.429 69.2539 111.59 69.4835 112.844 69.4835C114.099 69.4835 115.26 69.2539 116.044 68.8469C115.26 67.8763 114.099 67.3128 112.844 67.3128C111.59 67.3128 110.429 67.8659 109.645 68.8469Z" fill="#B9CCEB"/>
<path d="M112.844 75.6723C111.569 75.6723 110.366 75.1087 109.55 74.1173C109.54 74.0964 109.53 74.0756 109.53 74.0547C109.53 74.0338 109.55 74.0129 109.571 74.0025C110.377 73.5851 111.569 73.3555 112.844 73.3555C114.12 73.3555 115.301 73.5955 116.117 74.0025C116.138 74.0129 116.148 74.0338 116.159 74.0547C116.159 74.0756 116.159 74.1069 116.138 74.1173C115.322 75.1087 114.12 75.6723 112.844 75.6723ZM109.739 74.0964C110.523 75.0044 111.652 75.5157 112.844 75.5157C114.036 75.5157 115.176 74.9939 115.95 74.0964C115.165 73.7207 114.036 73.5016 112.844 73.5016C111.652 73.5016 110.523 73.7207 109.739 74.0964Z" fill="#B9CCEB"/>
<path d="M112.844 75.6721C112.844 75.6721 112.761 75.6408 112.761 75.5886V67.2397C112.761 67.2397 112.792 67.1562 112.844 67.1562C112.897 67.1562 112.928 67.1876 112.928 67.2397V75.5886C112.928 75.5886 112.897 75.6721 112.844 75.6721Z" fill="#B9CCEB"/>
<path d="M117.037 71.498H108.672C108.672 71.498 108.589 71.4667 108.589 71.4145C108.589 71.3624 108.62 71.3311 108.672 71.3311H117.037C117.037 71.3311 117.121 71.3624 117.121 71.4145C117.121 71.4667 117.09 71.498 117.037 71.498Z" fill="#B9CCEB"/>
<path d="M57.6454 66.7913H55.0209C55.0209 66.7913 54.9373 66.76 54.9373 66.7078V64.0884C54.9373 64.0884 54.9686 64.0049 55.0209 64.0049H57.6454C57.6454 64.0049 57.7291 64.0362 57.7291 64.0884V66.7078C57.7291 66.7078 57.6977 66.7913 57.6454 66.7913ZM55.1046 66.6348H57.5722V64.1719H55.1046V66.6348Z" fill="#D0B9EB"/>
<path d="M57.6454 73.22H55.0209C55.0209 73.22 54.9373 73.1887 54.9373 73.1365V70.5171C54.9373 70.5171 54.9686 70.4336 55.0209 70.4336H57.6454C57.6454 70.4336 57.7291 70.4649 57.7291 70.5171V73.1365C57.7291 73.1365 57.6977 73.22 57.6454 73.22ZM55.1046 73.0635H57.5722V70.6006H55.1046V73.0635Z" fill="#D0B9EB"/>
<path d="M52.7624 73.22H50.1379C50.1379 73.22 50.0542 73.1887 50.0542 73.1365V70.5171C50.0542 70.5171 50.0856 70.4336 50.1379 70.4336H52.7624C52.7624 70.4336 52.846 70.4649 52.846 70.5171V73.1365C52.846 73.1365 52.8147 73.22 52.7624 73.22ZM50.2215 73.0635H52.6892V70.6006H50.2215V73.0635Z" fill="#D0B9EB"/>
<path d="M62.5182 73.22H59.8937C59.8937 73.22 59.8101 73.1887 59.8101 73.1365V70.5171C59.8101 70.5171 59.8414 70.4336 59.8937 70.4336H62.5182C62.5182 70.4336 62.6019 70.4649 62.6019 70.5171V73.1365C62.6019 73.1365 62.5705 73.22 62.5182 73.22ZM59.9774 73.0635H62.445V70.6006H59.9774V73.0635Z" fill="#D0B9EB"/>
<path d="M56.286 70.6002C56.286 70.6002 56.2024 70.5689 56.2024 70.5167V66.7075C56.2024 66.7075 56.2338 66.624 56.286 66.624C56.3383 66.624 56.3697 66.6553 56.3697 66.7075V70.5167C56.3697 70.5167 56.3383 70.6002 56.286 70.6002Z" fill="#D0B9EB"/>
<path d="M61.232 70.6421C61.232 70.6421 61.1483 70.6108 61.1483 70.5586V68.5862H51.5076V70.5169C51.5076 70.5169 51.4763 70.6004 51.424 70.6004C51.3717 70.6004 51.3403 70.5691 51.3403 70.5169V68.5132C51.3403 68.5132 51.3717 68.4297 51.424 68.4297H61.2215C61.2215 68.4297 61.3052 68.461 61.3052 68.5132V70.5586C61.3052 70.5586 61.2738 70.6421 61.2215 70.6421H61.232Z" fill="#D0B9EB"/>
<path d="M226.107 24.18H223.483C223.483 24.18 223.399 24.1487 223.399 24.0965V21.477C223.399 21.477 223.43 21.3936 223.483 21.3936H226.107C226.107 21.3936 226.191 21.4249 226.191 21.477V24.0965C226.191 24.0965 226.159 24.18 226.107 24.18ZM223.566 24.0234H226.034V21.5605H223.566V24.0234Z" fill="#D0B9EB"/>
<path d="M226.107 30.6194H223.483C223.483 30.6194 223.399 30.5881 223.399 30.536V27.9165C223.399 27.9165 223.43 27.833 223.483 27.833H226.107C226.107 27.833 226.191 27.8643 226.191 27.9165V30.536C226.191 30.536 226.159 30.6194 226.107 30.6194V30.6194ZM223.566 30.4629H226.034V28H223.566V30.4629Z" fill="#D0B9EB"/>
<path d="M221.235 30.6194H218.61C218.61 30.6194 218.526 30.5881 218.526 30.536V27.9165C218.526 27.9165 218.558 27.833 218.61 27.833H221.235C221.235 27.833 221.318 27.8643 221.318 27.9165V30.536C221.318 30.536 221.287 30.6194 221.235 30.6194V30.6194ZM218.694 30.4629H221.161V28H218.694V30.4629Z" fill="#D0B9EB"/>
<path d="M230.98 30.6194H228.355C228.355 30.6194 228.272 30.5881 228.272 30.536V27.9165C228.272 27.9165 228.303 27.833 228.355 27.833H230.98C230.98 27.833 231.064 27.8643 231.064 27.9165V30.536C231.064 30.536 231.032 30.6194 230.98 30.6194V30.6194ZM228.439 30.4629H230.907V28H228.439V30.4629Z" fill="#D0B9EB"/>
<path d="M224.748 27.9888C224.748 27.9888 224.664 27.9575 224.664 27.9054V24.0962C224.664 24.0962 224.696 24.0127 224.748 24.0127C224.8 24.0127 224.832 24.044 224.832 24.0962V27.9054C224.832 27.9054 224.8 27.9888 224.748 27.9888Z" fill="#D0B9EB"/>
<path d="M229.694 28.0308C229.694 28.0308 229.61 27.9995 229.61 27.9473V25.9749H219.969V27.9056C219.969 27.9056 219.938 27.9891 219.886 27.9891C219.833 27.9891 219.802 27.9578 219.802 27.9056V25.9018C219.802 25.9018 219.833 25.8184 219.886 25.8184H229.683C229.683 25.8184 229.767 25.8497 229.767 25.9018V27.9473C229.767 27.9473 229.735 28.0308 229.683 28.0308H229.694Z" fill="#D0B9EB"/>
<path d="M112.416 35.3884H101.102C101.102 35.3884 101.018 35.3571 101.018 35.3049V26.7056C101.018 26.7056 101.05 26.6221 101.102 26.6221H112.416C112.416 26.6221 112.499 26.6534 112.499 26.7056V35.3049C112.499 35.3049 112.468 35.3884 112.416 35.3884V35.3884ZM101.175 35.2318H112.332V26.789H101.175V35.2318Z" fill="#D0B9EB"/>
<path d="M112.771 36.3696H100.746C100.746 36.3696 100.663 36.3383 100.663 36.2862V35.3052C100.663 35.3052 100.694 35.2217 100.746 35.2217H112.771C112.771 35.2217 112.855 35.253 112.855 35.3052V36.2862C112.855 36.2862 112.824 36.3696 112.771 36.3696ZM100.82 36.2131H112.688V35.3887H100.82V36.2131Z" fill="#D0B9EB"/>
<path d="M106.759 38.0806C106.445 38.0806 106.184 37.8301 106.184 37.5066C106.184 37.1831 106.435 36.9326 106.759 36.9326C107.083 36.9326 107.334 37.1831 107.334 37.5066C107.334 37.8301 107.083 38.0806 106.759 38.0806ZM106.759 37.0996C106.529 37.0996 106.341 37.2874 106.341 37.517C106.341 37.7466 106.529 37.9345 106.759 37.9345C106.989 37.9345 107.177 37.7466 107.177 37.517C107.177 37.2874 106.989 37.0996 106.759 37.0996Z" fill="#D0B9EB"/>
<path d="M106.759 37.0685C106.759 37.0685 106.675 37.0372 106.686 36.985V36.3171C106.686 36.3171 106.717 36.2336 106.769 36.2441C106.811 36.2441 106.853 36.2754 106.843 36.3276V36.9955C106.843 36.9955 106.801 37.0685 106.759 37.0685Z" fill="#D0B9EB"/>
<path d="M104.009 34.574H102.346C102.346 34.574 102.263 34.5427 102.263 34.4905V30.4204C102.263 30.4204 102.294 30.3369 102.346 30.3369H104.009C104.009 30.3369 104.093 30.3682 104.093 30.4204V34.4905C104.093 34.4905 104.061 34.574 104.009 34.574ZM102.43 34.4174H103.936V30.5039H102.43V34.4174Z" fill="#D0B9EB"/>
<path d="M107.282 34.5741H105.619C105.619 34.5741 105.535 34.5428 105.535 34.4906V28.7925C105.535 28.7925 105.567 28.709 105.619 28.709H107.282C107.282 28.709 107.365 28.7403 107.365 28.7925V34.4906C107.365 34.4906 107.334 34.5741 107.282 34.5741ZM105.703 34.4175H107.208V28.876H105.703V34.4175Z" fill="#D0B9EB"/>
<path d="M110.753 34.5746H109.091C109.091 34.5746 109.007 34.5433 109.007 34.4911V27.6138C109.007 27.6138 109.038 27.5303 109.091 27.5303H110.753C110.753 27.5303 110.837 27.5616 110.837 27.6138V34.4911C110.837 34.4911 110.806 34.5746 110.753 34.5746ZM109.174 34.4181H110.68V27.6973H109.174V34.4181Z" fill="#D0B9EB"/>
<path d="M13.4467 115.537C11.6169 115.537 10.1321 114.055 10.1321 112.229C10.1321 110.403 11.6169 108.921 13.4467 108.921C13.4676 108.921 13.4886 108.921 13.499 108.942C13.5095 108.952 13.5199 108.973 13.5199 108.994L13.4781 112.198H16.6777C16.6777 112.198 16.7196 112.198 16.73 112.219C16.7405 112.229 16.7509 112.25 16.7509 112.271C16.73 114.066 15.2348 115.537 13.4363 115.537H13.4467ZM13.3631 109.067C11.6587 109.109 10.2889 110.507 10.2889 112.219C10.2889 113.93 11.711 115.37 13.4467 115.37C15.1825 115.37 16.5418 114.014 16.6045 112.344H13.4049C13.4049 112.344 13.3631 112.344 13.3526 112.323C13.3422 112.313 13.3317 112.292 13.3317 112.271L13.3735 109.067H13.3631Z" fill="#D0B9EB"/>
<path d="M17.3052 111.78H14.0219C14.0219 111.78 13.9801 111.78 13.9696 111.76C13.9592 111.749 13.9487 111.728 13.9487 111.707L13.9906 108.43C13.9906 108.43 14.0219 108.347 14.0742 108.357C15.9145 108.357 17.3993 109.839 17.3993 111.666C17.3993 111.666 17.3993 111.686 17.3993 111.697V111.718C17.3993 111.718 17.3679 111.791 17.3157 111.791L17.3052 111.78ZM14.1056 111.624H17.232C17.2111 109.923 15.8413 108.535 14.1369 108.503L14.0951 111.624H14.1056Z" fill="#D0B9EB"/>
<path d="M284.265 82.3825C284.265 82.3825 284.223 82.3825 284.213 82.3616L282.791 80.8379H277.855C277.51 80.8379 277.239 80.5666 277.239 80.2222V77.0601C277.239 76.7157 277.51 76.4443 277.855 76.4443H283.732C284.077 76.4443 284.349 76.7157 284.349 77.0601V82.3094C284.349 82.3094 284.328 82.372 284.297 82.3825C284.297 82.3825 284.276 82.3825 284.265 82.3825V82.3825ZM277.845 76.6009C277.594 76.6009 277.385 76.8096 277.385 77.0601V80.2222C277.385 80.4727 277.594 80.6814 277.845 80.6814H282.812C282.812 80.6814 282.854 80.6814 282.864 80.7023L284.181 82.1111V77.0601C284.181 76.8096 283.972 76.6009 283.721 76.6009H277.845V76.6009Z" fill="#D0B9EB"/>
<path d="M279.121 79.0738C278.849 79.0738 278.629 78.8546 278.629 78.5833C278.629 78.3119 278.849 78.0928 279.121 78.0928C279.392 78.0928 279.612 78.3119 279.612 78.5833C279.612 78.8546 279.392 79.0738 279.121 79.0738ZM279.121 78.2493C278.932 78.2493 278.786 78.3954 278.786 78.5833C278.786 78.7711 278.932 78.9172 279.121 78.9172C279.309 78.9172 279.455 78.7711 279.455 78.5833C279.455 78.3954 279.309 78.2493 279.121 78.2493Z" fill="#D0B9EB"/>
<path d="M280.846 79.0738C280.574 79.0738 280.354 78.8546 280.354 78.5833C280.354 78.3119 280.574 78.0928 280.846 78.0928C281.118 78.0928 281.337 78.3119 281.337 78.5833C281.337 78.8546 281.118 79.0738 280.846 79.0738ZM280.846 78.2493C280.658 78.2493 280.511 78.3954 280.511 78.5833C280.511 78.7711 280.658 78.9172 280.846 78.9172C281.034 78.9172 281.181 78.7711 281.181 78.5833C281.181 78.3954 281.034 78.2493 280.846 78.2493Z" fill="#D0B9EB"/>
<path d="M282.582 79.0738C282.31 79.0738 282.09 78.8546 282.09 78.5833C282.09 78.3119 282.31 78.0928 282.582 78.0928C282.854 78.0928 283.073 78.3119 283.073 78.5833C283.073 78.8546 282.854 79.0738 282.582 79.0738ZM282.582 78.2493C282.394 78.2493 282.247 78.3954 282.247 78.5833C282.247 78.7711 282.394 78.9172 282.582 78.9172C282.77 78.9172 282.916 78.7711 282.916 78.5833C282.916 78.3954 282.77 78.2493 282.582 78.2493Z" fill="#D0B9EB"/>
<path d="M70.5486 26.1637H63.3546C63.3546 26.1637 63.271 26.1324 63.271 26.0802V21.5405C63.271 21.5405 63.3024 21.457 63.3546 21.457H70.5486C70.5486 21.457 70.6322 21.4883 70.6322 21.5405V26.0802C70.6322 26.0802 70.6009 26.1637 70.5486 26.1637ZM63.4278 26.0072H70.4649V21.624H63.4278V26.0072Z" fill="#D0B9EB"/>
<path d="M66.9414 23.7324C66.9414 23.7324 66.91 23.7324 66.8996 23.722L63.3131 21.6139C63.3131 21.6139 63.2713 21.5617 63.2817 21.5304C63.2817 21.4991 63.3235 21.4678 63.3549 21.4678H70.5488C70.5488 21.4678 70.6116 21.4886 70.622 21.5304C70.622 21.5617 70.622 21.6034 70.5907 21.6139L66.9832 23.722C66.9832 23.722 66.9623 23.7324 66.9414 23.7324V23.7324ZM63.6372 21.6243L66.9414 23.5654L70.2561 21.6243H63.6372Z" fill="#D0B9EB"/>
<path d="M26.7263 55.7187H20.4943C20.4943 55.7187 20.4106 55.6874 20.4106 55.6352V47.6099C20.4106 47.6099 20.442 47.5264 20.4943 47.5264H25.3669C25.3669 47.5264 25.4088 47.5264 25.4192 47.5472L26.7785 48.81C26.7785 48.81 26.7994 48.8413 26.7994 48.8726V55.6352C26.7994 55.6352 26.7681 55.7187 26.7158 55.7187H26.7263ZM20.5675 55.5621H26.6426V48.9144L25.3251 47.7038H20.5675V55.5726V55.5621Z" fill="#D0B9EB"/>
<path d="M26.7263 48.9564H25.3774C25.3774 48.9564 25.3042 48.9042 25.3042 48.8625V47.6206C25.3042 47.6206 25.3251 47.5371 25.3669 47.5371C25.4192 47.5371 25.4506 47.5684 25.4506 47.6102V48.779L26.7367 48.7894C26.7785 48.7894 26.8099 48.8207 26.8099 48.8729C26.8099 48.9147 26.7785 48.946 26.7263 48.946V48.9564Z" fill="#D0B9EB"/>
<path d="M23.4011 48.873H21.0275C21.0275 48.873 20.9438 48.8417 20.9438 48.7895C20.9438 48.7374 20.9752 48.7061 21.0275 48.7061H23.4011C23.4011 48.7061 23.4847 48.7374 23.4847 48.7895C23.4847 48.8417 23.4534 48.873 23.4011 48.873Z" fill="#D0B9EB"/>
<path d="M25.9211 49.9687H21.038C21.038 49.9687 20.9543 49.9374 20.9543 49.8852C20.9543 49.8331 20.9857 49.8018 21.038 49.8018H25.9211C25.9211 49.8018 26.0047 49.8331 26.0047 49.8852C26.0047 49.9374 25.9734 49.9687 25.9211 49.9687Z" fill="#D0B9EB"/>
<path d="M25.9211 51.6904H21.038C21.038 51.6904 20.9543 51.6591 20.9543 51.6069C20.9543 51.5547 20.9857 51.5234 21.038 51.5234H25.9211C25.9211 51.5234 26.0047 51.5547 26.0047 51.6069C26.0047 51.6591 25.9734 51.6904 25.9211 51.6904Z" fill="#D0B9EB"/>
<path d="M25.9211 53.4228H21.038C21.038 53.4228 20.9543 53.3915 20.9543 53.3393C20.9543 53.2872 20.9857 53.2559 21.038 53.2559H25.9211C25.9211 53.2559 26.0047 53.2872 26.0047 53.3393C26.0047 53.3915 25.9734 53.4228 25.9211 53.4228Z" fill="#D0B9EB"/>
<path d="M135.127 20.1628H134.102C134.102 20.1628 134.018 20.1315 134.018 20.0793V19.474C133.652 19.3905 133.307 19.234 133.004 19.0148L132.554 19.4636C132.554 19.4636 132.471 19.4949 132.439 19.4636L131.718 18.7435C131.718 18.7435 131.687 18.66 131.718 18.6287L132.199 18.1486C132.011 17.846 131.875 17.512 131.812 17.1572H131.111C131.111 17.1572 131.028 17.1259 131.028 17.0737V16.051C131.028 16.051 131.059 15.9675 131.111 15.9675H131.812C131.885 15.6231 132.021 15.2892 132.209 14.9865L131.718 14.496C131.718 14.496 131.687 14.4125 131.718 14.3812L132.439 13.6611C132.439 13.6611 132.523 13.6298 132.554 13.6611L133.025 14.1308C133.328 13.922 133.663 13.7759 134.018 13.682V13.0454C134.018 13.0454 134.05 12.9619 134.102 12.9619H135.127C135.127 12.9619 135.21 12.9932 135.21 13.0454V13.6403C135.597 13.7029 135.953 13.8385 136.287 14.0473L136.674 13.6507C136.674 13.6507 136.758 13.6194 136.789 13.6507L137.511 14.3708C137.511 14.3708 137.532 14.4021 137.532 14.423C137.532 14.4438 137.532 14.4647 137.511 14.4751L137.145 14.8404C137.375 15.1744 137.542 15.5501 137.626 15.9362H138.128C138.128 15.9362 138.211 15.9675 138.211 16.0197V17.0424C138.211 17.0424 138.18 17.1259 138.128 17.1259H137.636C137.563 17.5225 137.396 17.9086 137.166 18.2426L137.521 18.5974C137.521 18.5974 137.542 18.6287 137.542 18.6496C137.542 18.6705 137.542 18.6913 137.521 18.7018L136.8 19.4218C136.8 19.4218 136.716 19.4532 136.685 19.4218L136.319 19.0566C135.984 19.2653 135.618 19.4114 135.221 19.474V20.0376C135.221 20.0376 135.189 20.1211 135.137 20.1211L135.127 20.1628ZM134.175 20.0063H135.043V19.4532C135.043 19.4532 135.074 19.3801 135.106 19.3801C135.524 19.3175 135.911 19.1714 136.256 18.9418C136.287 18.9209 136.329 18.9209 136.35 18.9418L136.706 19.2966L137.323 18.6809L136.977 18.3365C136.977 18.3365 136.946 18.2634 136.977 18.2321C137.228 17.8877 137.396 17.4807 137.469 17.0633C137.469 17.0215 137.511 17.0007 137.542 17.0007H138.023V16.1345H137.542C137.542 16.1345 137.469 16.1032 137.469 16.0719C137.396 15.6544 137.218 15.2579 136.967 14.9135C136.946 14.8822 136.946 14.8404 136.967 14.8091L137.323 14.4543L136.706 13.8385L136.329 14.2142C136.329 14.2142 136.266 14.2456 136.235 14.2142C135.89 13.9846 135.503 13.849 135.095 13.7864C135.054 13.7864 135.033 13.7446 135.033 13.7133V13.1289H134.165V13.7446C134.165 13.7446 134.144 13.8177 134.102 13.8177C133.715 13.9012 133.37 14.0577 133.046 14.2873C133.015 14.3082 132.973 14.3082 132.941 14.2873L132.481 13.8281L131.864 14.4438L132.345 14.9239C132.345 14.9239 132.377 14.9865 132.345 15.0178C132.136 15.3309 131.99 15.6857 131.927 16.051C131.927 16.0927 131.885 16.1136 131.854 16.1136H131.164V16.9798H131.843C131.843 16.9798 131.917 17.0111 131.917 17.0424C131.979 17.4181 132.126 17.7729 132.335 18.0965C132.356 18.1278 132.356 18.1695 132.335 18.1904L131.864 18.66L132.481 19.2757L132.931 18.827C132.931 18.827 133.004 18.7957 133.035 18.827C133.36 19.067 133.715 19.2236 134.112 19.3175C134.144 19.3175 134.175 19.3592 134.175 19.3905V19.975V20.0063ZM134.708 18.3782C133.726 18.3782 132.931 17.5851 132.931 16.6041C132.931 15.6231 133.726 14.83 134.708 14.83C135.587 14.83 136.319 15.4561 136.465 16.3223V16.8754C136.413 17.2198 136.266 17.5225 136.047 17.7729L135.89 17.9295C135.566 18.2113 135.148 18.3678 134.719 18.3678L134.708 18.3782ZM134.708 14.9865C133.82 14.9865 133.088 15.7066 133.088 16.6041C133.088 17.5016 133.809 18.2217 134.708 18.2217C135.106 18.2217 135.482 18.0756 135.775 17.8147L135.921 17.6686C136.12 17.439 136.256 17.1677 136.298 16.865V16.3328C136.172 15.5605 135.503 14.9865 134.698 14.9865H134.708Z" fill="#D0B9EB"/>
<path d="M129.69 20.1629C129.69 20.1629 129.669 20.1629 129.648 20.1629C129.627 20.1629 129.616 20.1316 129.606 20.1211L129.449 19.6202C129.334 19.6202 129.219 19.6098 129.104 19.5785L128.853 20.0481C128.853 20.0481 128.822 20.0794 128.811 20.0898C128.79 20.0898 128.769 20.0898 128.748 20.0898L128.278 19.8394C128.278 19.8394 128.226 19.7767 128.247 19.735L128.508 19.2445C128.435 19.1714 128.362 19.088 128.309 18.994L127.766 19.161C127.766 19.161 127.724 19.161 127.703 19.161C127.682 19.161 127.671 19.1297 127.661 19.1193L127.504 18.6079C127.504 18.6079 127.504 18.5244 127.556 18.514L128.1 18.347C128.1 18.2426 128.1 18.1383 128.132 18.0339L127.63 17.773C127.63 17.773 127.577 17.7104 127.598 17.6687L127.849 17.199C127.849 17.199 127.881 17.1677 127.891 17.1573C127.912 17.1573 127.933 17.1573 127.954 17.1573L128.445 17.4182C128.518 17.3347 128.602 17.2616 128.696 17.199L128.539 16.6877C128.539 16.6877 128.539 16.6459 128.539 16.625C128.539 16.6042 128.571 16.5937 128.581 16.5833L129.094 16.4268C129.094 16.4268 129.135 16.4268 129.156 16.4268C129.177 16.4268 129.188 16.4581 129.198 16.4685L129.355 16.959C129.48 16.9486 129.606 16.959 129.721 16.9799L129.951 16.5416C129.951 16.5416 129.982 16.5102 129.993 16.4998C130.014 16.4998 130.035 16.4998 130.055 16.4998L130.526 16.7503C130.526 16.7503 130.578 16.8129 130.557 16.8546L130.338 17.2721C130.442 17.3556 130.526 17.4599 130.599 17.5747L131.038 17.4391C131.038 17.4391 131.08 17.4391 131.101 17.4391C131.122 17.4391 131.132 17.4704 131.143 17.4808L131.3 17.9922C131.3 17.9922 131.3 18.0757 131.248 18.0861L130.808 18.2218C130.808 18.3574 130.808 18.4931 130.767 18.6183L131.174 18.8375C131.174 18.8375 131.227 18.9001 131.206 18.9419L130.955 19.4115C130.955 19.4115 130.892 19.4637 130.85 19.4428L130.421 19.2236C130.338 19.3176 130.233 19.3906 130.118 19.4532L130.265 19.9228C130.265 19.9228 130.265 20.0063 130.212 20.0168L129.7 20.1733C129.7 20.1733 129.69 20.1733 129.679 20.1733L129.69 20.1629ZM129.522 19.4532C129.522 19.4532 129.585 19.4741 129.595 19.5054L129.742 19.9855L130.097 19.8707L129.951 19.4115C129.951 19.4115 129.951 19.3384 129.993 19.3176C130.129 19.2445 130.244 19.161 130.348 19.0462C130.369 19.0149 130.411 19.0149 130.442 19.0253L130.85 19.2445L131.028 18.9105L130.631 18.7018C130.631 18.7018 130.578 18.6496 130.589 18.6079C130.631 18.4618 130.651 18.3053 130.641 18.1487C130.641 18.107 130.662 18.0757 130.693 18.0652L131.122 17.9296L131.007 17.5747L130.578 17.7104C130.578 17.7104 130.505 17.7104 130.484 17.6791C130.411 17.5434 130.306 17.4286 130.181 17.3347C130.15 17.3138 130.139 17.2721 130.16 17.2408L130.369 16.8338L130.035 16.6564L129.815 17.0738C129.815 17.0738 129.763 17.126 129.731 17.1155C129.585 17.0842 129.439 17.0738 129.292 17.0947C129.25 17.0947 129.219 17.0738 129.209 17.0425L129.062 16.5729L128.707 16.6877L128.863 17.1886C128.863 17.1886 128.863 17.2616 128.832 17.2825C128.717 17.3556 128.613 17.4495 128.529 17.5539C128.508 17.5852 128.466 17.5956 128.435 17.5747L127.964 17.3243L127.786 17.6582L128.278 17.9087C128.278 17.9087 128.33 17.9609 128.32 18.0026C128.288 18.1278 128.278 18.2635 128.288 18.3887C128.288 18.4305 128.267 18.4618 128.236 18.4722L127.703 18.6392L127.818 18.994L128.341 18.8271C128.341 18.8271 128.414 18.8271 128.435 18.8688C128.497 18.9836 128.581 19.088 128.686 19.1819C128.717 19.2028 128.717 19.2445 128.707 19.2758L128.456 19.7559L128.79 19.9333L129.031 19.4741C129.031 19.4741 129.083 19.4219 129.125 19.4323C129.261 19.4741 129.397 19.495 129.543 19.4845L129.522 19.4532ZM129.459 18.8062C129.376 18.8062 129.282 18.7853 129.209 18.7436C129.083 18.681 128.989 18.5662 128.947 18.42C128.905 18.2739 128.916 18.1383 128.989 18.0026C129.052 17.8774 129.167 17.7834 129.313 17.7417C129.595 17.6582 129.899 17.8148 129.993 18.0965C130.035 18.2322 130.024 18.3783 129.951 18.514C129.888 18.6392 129.773 18.7331 129.627 18.7749C129.574 18.7957 129.522 18.7957 129.47 18.7957L129.459 18.8062ZM129.459 17.8774C129.459 17.8774 129.386 17.8774 129.344 17.8982C129.25 17.9296 129.167 17.9922 129.114 18.0861C129.062 18.18 129.062 18.2844 129.083 18.3783C129.114 18.4722 129.177 18.5557 129.271 18.6079C129.365 18.6601 129.47 18.6705 129.564 18.6392C129.658 18.6079 129.742 18.5453 129.794 18.4514C129.846 18.3574 129.846 18.2531 129.825 18.1591C129.773 17.9922 129.616 17.8878 129.459 17.8878V17.8774Z" fill="#D0B9EB"/>
<path d="M199.621 4.69624H192.427C192.427 4.69624 192.344 4.66493 192.344 4.61275V0.0834886C192.344 0.0834886 192.375 0 192.427 0H199.621C199.621 0 199.705 0.0313082 199.705 0.0834886V4.62318C199.705 4.62318 199.674 4.70667 199.621 4.70667V4.69624ZM192.501 4.53969H199.538V0.156541H192.501V4.53969Z" fill="#D0B9EB"/>
<path d="M196.003 2.26463C196.003 2.26463 195.972 2.26463 195.962 2.25419L192.375 0.146105C192.375 0.146105 192.333 0.0939247 192.344 0.0626165C192.344 0.0313082 192.386 0 192.417 0H199.611C199.611 0 199.674 0.0208722 199.684 0.0626165C199.684 0.0939247 199.684 0.135669 199.653 0.146105L196.045 2.25419C196.045 2.25419 196.024 2.26463 196.003 2.26463ZM192.699 0.156541L196.003 2.09765L199.318 0.156541H192.699V0.156541Z" fill="#D0B9EB"/>
<path d="M187.879 26.0063H187.868C187.22 26.0063 186.561 25.9541 185.924 25.8602C185.84 25.8498 185.777 25.7663 185.788 25.6724C185.798 25.5889 185.882 25.5263 185.976 25.5367C186.593 25.6306 187.231 25.6828 187.868 25.6828C187.962 25.6828 188.036 25.7559 188.036 25.8393C188.036 25.9228 187.973 25.9959 187.879 25.9959V26.0063ZM189.803 25.8498C189.73 25.8498 189.656 25.7976 189.646 25.7141C189.635 25.6306 189.688 25.5471 189.782 25.5263C190.409 25.4323 191.037 25.2758 191.633 25.0775C191.716 25.0462 191.81 25.0984 191.842 25.1819C191.873 25.2654 191.821 25.3593 191.737 25.3906C191.12 25.5889 190.472 25.7454 189.834 25.8498H189.813H189.803ZM184.073 25.4115C184.073 25.4115 184.041 25.4115 184.02 25.4115C183.404 25.2132 182.787 24.9627 182.212 24.6601C182.128 24.6183 182.097 24.5244 182.138 24.4409C182.18 24.3574 182.274 24.3261 182.358 24.3679C182.923 24.6601 183.519 24.9001 184.125 25.0984C184.209 25.1297 184.261 25.2132 184.23 25.2967C184.209 25.3697 184.146 25.4115 184.073 25.4115ZM193.473 24.6601C193.41 24.6601 193.358 24.6288 193.327 24.5766C193.285 24.4931 193.327 24.3992 193.4 24.3574C193.964 24.0652 194.508 23.7313 195.02 23.3556C195.094 23.3034 195.198 23.3138 195.251 23.3869C195.303 23.4599 195.292 23.5643 195.219 23.6165C194.696 24.0026 194.132 24.347 193.546 24.6392C193.525 24.6496 193.494 24.6601 193.473 24.6601V24.6601ZM180.633 23.6582C180.633 23.6582 180.57 23.6582 180.539 23.6269C180.016 23.2408 179.514 22.8233 179.043 22.3537C178.981 22.2911 178.981 22.1867 179.043 22.1241C179.106 22.0615 179.211 22.0615 179.273 22.1241C179.723 22.5728 180.214 22.9903 180.727 23.3556C180.8 23.4077 180.81 23.5121 180.758 23.5851C180.727 23.6269 180.674 23.6478 180.622 23.6478L180.633 23.6582ZM196.589 22.3954C196.589 22.3954 196.505 22.3746 196.474 22.3433C196.411 22.2806 196.411 22.1763 196.474 22.1137C196.924 21.6649 197.342 21.1744 197.718 20.663C197.77 20.59 197.875 20.5796 197.948 20.6317C198.021 20.6839 198.032 20.7883 197.98 20.8613C197.593 21.3831 197.164 21.8841 196.704 22.3433C196.673 22.3746 196.631 22.3954 196.589 22.3954V22.3954ZM177.904 20.9448C177.904 20.9448 177.809 20.9239 177.768 20.8822C177.381 20.3604 177.036 19.7969 176.743 19.2229C176.701 19.1394 176.743 19.0455 176.816 19.0037C176.9 18.962 176.994 19.0037 177.036 19.0768C177.328 19.6403 177.663 20.183 178.039 20.6944C178.092 20.7674 178.081 20.8718 178.008 20.9239C177.977 20.9448 177.945 20.9553 177.914 20.9553L177.904 20.9448ZM198.847 19.2855C198.847 19.2855 198.795 19.2855 198.774 19.2646C198.691 19.2229 198.659 19.1289 198.701 19.0455C198.994 18.4819 199.234 17.887 199.433 17.2818C199.464 17.1983 199.548 17.1461 199.632 17.1774C199.715 17.2087 199.768 17.2922 199.736 17.3757C199.538 17.9914 199.287 18.6071 198.983 19.1811C198.952 19.2333 198.9 19.2646 198.837 19.2646L198.847 19.2855ZM176.147 17.5218C176.074 17.5218 176.011 17.48 175.99 17.407C175.791 16.7913 175.634 16.1547 175.53 15.5076C175.519 15.4241 175.572 15.3406 175.666 15.3198C175.75 15.3093 175.833 15.3615 175.854 15.4554C175.959 16.0816 176.105 16.7078 176.304 17.3026C176.335 17.3861 176.283 17.48 176.199 17.5114C176.178 17.5114 176.168 17.5114 176.147 17.5114V17.5218ZM200.04 15.6224H200.019C199.935 15.612 199.872 15.5285 199.883 15.4346C199.977 14.8084 200.029 14.1718 200.029 13.5352V13.483C200.029 13.3891 200.102 13.316 200.186 13.316C200.27 13.316 200.353 13.3891 200.353 13.4726V13.5248C200.353 14.1822 200.301 14.8293 200.196 15.4763C200.186 15.5598 200.113 15.612 200.04 15.612V15.6224ZM175.54 13.7126C175.446 13.7126 175.384 13.65 175.384 13.5665H175.54L175.384 13.5456C175.384 12.8986 175.436 12.2516 175.53 11.6254C175.54 11.5419 175.624 11.4793 175.718 11.4897C175.802 11.5002 175.865 11.5837 175.854 11.6776C175.76 12.2933 175.708 12.9195 175.708 13.5561C175.708 13.65 175.635 13.7335 175.551 13.7335L175.54 13.7126ZM200.04 11.7298C199.966 11.7298 199.893 11.6776 199.883 11.5941C199.778 10.9679 199.632 10.3418 199.433 9.74691C199.402 9.66342 199.454 9.56949 199.538 9.53819C199.621 9.50688 199.715 9.55906 199.747 9.64255C199.945 10.2583 200.102 10.8949 200.207 11.5419C200.217 11.6254 200.165 11.7089 200.071 11.7298H200.05H200.04ZM176.136 9.92432C176.136 9.92432 176.105 9.92432 176.084 9.92432C176 9.89301 175.948 9.80952 175.98 9.72603C176.178 9.11031 176.429 8.49458 176.722 7.92059C176.764 7.8371 176.858 7.8058 176.942 7.84754C177.025 7.88928 177.057 7.98321 177.015 8.0667C176.722 8.63025 176.481 9.2251 176.283 9.8304C176.262 9.90345 176.199 9.94519 176.126 9.94519L176.136 9.92432ZM198.837 8.07713C198.774 8.07713 198.722 8.04583 198.691 7.99365C198.398 7.4301 198.063 6.88742 197.687 6.37605C197.635 6.303 197.645 6.19864 197.718 6.14646C197.791 6.09428 197.896 6.10472 197.948 6.17777C198.335 6.69957 198.68 7.26312 198.983 7.8371C199.025 7.92059 198.983 8.01452 198.91 8.05626C198.889 8.0667 198.858 8.07713 198.837 8.07713V8.07713ZM177.883 6.49085C177.883 6.49085 177.82 6.49085 177.788 6.45954C177.715 6.40736 177.705 6.303 177.757 6.22995C178.144 5.70814 178.562 5.20721 179.022 4.73759C179.085 4.67497 179.19 4.67497 179.252 4.73759C179.315 4.80021 179.315 4.90457 179.252 4.96718C178.803 5.41593 178.385 5.90643 178.019 6.4178C177.987 6.45954 177.935 6.48041 177.883 6.48041V6.49085ZM180.601 3.76703C180.601 3.76703 180.507 3.74616 180.465 3.70442C180.413 3.63136 180.423 3.527 180.497 3.47482C181.019 3.08869 181.584 2.7443 182.159 2.45209C182.243 2.41034 182.337 2.45209 182.379 2.52514C182.421 2.60863 182.379 2.70255 182.306 2.7443C181.741 3.03651 181.197 3.37046 180.685 3.74616C180.654 3.76703 180.622 3.77747 180.591 3.77747L180.601 3.76703ZM184.031 2.01377C183.958 2.01377 183.895 1.97203 183.874 1.89898C183.843 1.81549 183.895 1.72156 183.979 1.69025C184.596 1.49197 185.233 1.33543 185.882 1.23107C185.965 1.22063 186.049 1.27281 186.07 1.36674C186.091 1.46066 186.028 1.53371 185.934 1.55458C185.307 1.65895 184.679 1.80505 184.083 2.00334C184.062 2.00334 184.052 2.00334 184.031 2.00334V2.01377ZM189.761 1.54415H189.74C189.123 1.45022 188.496 1.39804 187.879 1.39804H187.837C187.743 1.39804 187.68 1.32499 187.68 1.2415C187.68 1.15801 187.753 1.08496 187.837 1.08496H187.879C188.517 1.08496 189.165 1.13714 189.792 1.23107C189.876 1.2415 189.939 1.32499 189.928 1.41892C189.918 1.5024 189.845 1.55458 189.771 1.55458L189.761 1.54415Z" fill="#D0B9EB"/>
<path d="M31.7661 43.8419H90.2587C88.5857 37.8202 77.2197 41.6712 77.2197 41.6712C83.9013 23.1158 54.4877 33.7189 48.8099 41.4311C48.1407 35.8896 35.1017 39.0204 31.7661 43.8419V43.8419Z" fill="#D3E4E4"/>
<path d="M256.106 115.61H298.36C297.158 109.589 288.939 113.44 288.939 113.44C293.77 94.8844 272.523 105.487 268.413 113.2C267.932 107.658 258.511 110.789 256.096 115.61H256.106Z" fill="#D3E4E4"/>
<path d="M143.669 24.7226C99.6693 29.7632 86.5153 77.8109 97.829 103.797C109.143 129.772 119.62 139.373 122.161 145.875C124.712 152.366 124.419 190.208 124.419 190.208H190.346C187.513 183.435 188.653 169.314 190.346 169.033C209.868 169.033 215.808 167.906 217.512 159.713C219.206 151.521 214.961 126.391 221.757 123.855C228.554 121.319 232.789 120.463 230.812 118.209C228.836 115.955 215.253 95.3331 217.23 89.969C219.206 84.6048 220.91 80.3678 220.91 76.1307C220.91 71.8937 202.8 17.96 143.669 24.733V24.7226Z" fill="url(#paint6_linear_1692_90029)"/>
<path d="M153.007 46.6175C151.167 31.6104 121.858 32.7793 127.337 58.1076C120.707 53.6723 115.396 61.8333 118.972 66.9157C107.48 64.4736 99.1151 86.619 118.888 92.3066C110.743 96.3663 114.287 105.581 119.996 106.009C112.217 115.965 120.948 133.039 138.818 128.478C138.169 133.414 146.942 138.225 153.08 129.47L153.007 46.6175V46.6175Z" fill="url(#paint7_radial_1692_90029)"/>
<path d="M161.874 46.6175C163.714 31.6104 193.023 32.7793 187.544 58.1076C194.174 53.6723 199.485 61.8333 195.909 66.9157C207.401 64.4736 215.766 86.619 195.993 92.3066C204.138 96.3663 200.594 105.581 194.885 106.009C202.664 115.965 193.933 133.039 176.063 128.478C176.711 133.414 167.939 138.225 161.801 129.47L161.874 46.6175Z" fill="url(#paint8_radial_1692_90029)"/>
<path d="M129.533 70.7558C129.428 70.7558 129.323 70.6932 129.261 70.5993C129.177 70.4532 129.24 70.2653 129.386 70.1922C131.059 69.2947 132.084 67.531 132.136 65.4543C132.199 63.0644 130.955 60.7893 128.895 59.537C128.748 59.4535 128.707 59.2657 128.79 59.1196C128.874 58.9735 129.062 58.9317 129.208 59.0152C131.457 60.3823 132.816 62.8557 132.743 65.4647C132.68 67.7606 131.53 69.7226 129.669 70.7245C129.627 70.7454 129.574 70.7558 129.522 70.7558H129.533Z" fill="#7A6295"/>
<path d="M133.255 62.9707C132.669 62.9707 132.147 62.8872 131.728 62.762C131.571 62.7203 131.477 62.5428 131.519 62.3863C131.561 62.2298 131.739 62.1358 131.896 62.1776C132.293 62.2924 135.806 63.1899 137.657 59.5999C137.73 59.4538 137.918 59.3911 138.065 59.4642C138.211 59.5373 138.274 59.7251 138.201 59.8712C136.956 62.2924 134.897 62.9707 133.255 62.9707V62.9707Z" fill="#7A6295"/>
<path d="M140.784 91.5132C140.721 91.5132 140.648 91.4924 140.595 91.4402C134.071 86.1282 134.625 79.1987 137.908 75.0034C141.003 71.0481 147.047 68.8043 153.007 73.2501C153.143 73.3545 153.174 73.5423 153.07 73.678C152.965 73.8137 152.777 73.8345 152.641 73.7406C147.016 69.5453 141.306 71.6534 138.389 75.3791C135.284 79.3448 134.771 85.9195 140.982 90.9706C141.108 91.0749 141.129 91.2732 141.024 91.3985C140.961 91.4715 140.878 91.5132 140.784 91.5132V91.5132Z" fill="#7A6295"/>
<path d="M139.361 128.009C139.236 128.009 139.11 127.925 139.069 127.8C139.016 127.643 139.1 127.466 139.267 127.414C145.311 125.421 147.423 118.46 146.346 112.908C145.332 107.669 141.244 102.263 132.826 102.795C132.659 102.806 132.513 102.68 132.502 102.513C132.492 102.346 132.617 102.2 132.784 102.19C141.599 101.637 145.876 107.293 146.932 112.793C148.061 118.595 145.813 125.89 139.445 127.988C139.414 127.988 139.382 127.998 139.351 127.998L139.361 128.009Z" fill="#7A6295"/>
<path d="M144.067 107.146C143.92 107.146 143.795 107.042 143.763 106.896C143.732 106.729 143.847 106.572 144.014 106.541C146.074 106.186 147.109 104.85 147.601 103.807C148.532 101.834 148.396 99.2566 147.256 97.2424C147.172 97.0963 147.224 96.9085 147.371 96.825C147.517 96.7415 147.705 96.7937 147.789 96.9398C149.033 99.1209 149.169 101.918 148.155 104.057C147.36 105.727 145.928 106.823 144.119 107.136C144.098 107.136 144.088 107.136 144.067 107.136V107.146Z" fill="#7A6295"/>
<path d="M177.496 64.2854C177.496 64.2854 177.464 64.2854 177.443 64.2854C174.422 64.275 171.692 63.0853 170.323 61.1755C170.229 61.0398 170.26 60.852 170.396 60.7476C170.532 60.6537 170.72 60.685 170.825 60.8207C172.079 62.5739 174.62 63.6593 177.454 63.6697C181.072 63.701 184.418 61.9478 186.645 58.9109C186.75 58.7752 186.938 58.7439 187.074 58.8483C187.21 58.9422 187.241 59.1405 187.136 59.2761C184.805 62.4591 181.291 64.2854 177.496 64.2854V64.2854Z" fill="#7A6295"/>
<path d="M191.183 98.6409C191.131 98.6409 191.078 98.6305 191.026 98.5992C185.965 95.5727 183.267 90.3547 183.623 84.26C184.02 77.4557 188.213 70.954 193.797 68.4494C193.954 68.3763 194.132 68.4494 194.194 68.6059C194.268 68.7624 194.194 68.9399 194.037 69.0025C188.642 71.4132 184.606 77.7062 184.219 84.2913C183.874 90.146 186.467 95.1657 191.329 98.0774C191.476 98.1609 191.517 98.3487 191.434 98.4948C191.382 98.5888 191.277 98.6409 191.172 98.6409H191.183Z" fill="#7A6295"/>
<path d="M175.101 87.35C175.101 87.35 175.091 87.35 175.08 87.35C174.913 87.35 174.787 87.1934 174.787 87.0265C174.902 84.9914 176.304 83.3947 178.374 82.9668C180.319 82.5598 182.849 83.2695 184.114 85.7741C184.188 85.9203 184.125 86.1081 183.978 86.1812C183.832 86.2542 183.644 86.1916 183.571 86.0455C182.452 83.8226 180.214 83.1964 178.499 83.5513C177.077 83.8539 175.509 84.9288 175.394 87.0473C175.394 87.2143 175.247 87.3396 175.091 87.3396L175.101 87.35Z" fill="#7A6295"/>
<path d="M175.655 127.58C175.572 127.58 175.477 127.539 175.415 127.466C171.222 122.279 170.709 115.756 174.139 111.237C174.244 111.102 174.432 111.081 174.568 111.175C174.704 111.279 174.725 111.467 174.631 111.603C171.368 115.892 171.881 122.112 175.896 127.079C176 127.215 175.979 127.403 175.854 127.507C175.802 127.549 175.728 127.57 175.666 127.57L175.655 127.58Z" fill="#7A6295"/>
<path d="M102.44 139.917H123.625L121.868 148.391H123.646L141.306 63.2637H139.529L136.235 79.1265H115.051L118.344 63.2637H116.567L98.906 148.391H100.684L102.44 139.917ZM127.975 118.93H106.79L110.324 101.888H131.509L127.975 118.93ZM135.806 81.1929L131.948 99.8108H110.763L114.622 81.1929H135.806ZM102.869 137.85L106.361 121.006H127.546L124.053 137.85H102.869Z" fill="#EDCD5F"/>
<path d="M81.1723 188.309H79.5725L86.2227 158.19H90.0393L81.1723 188.309Z" fill="#367575"/>
<path d="M62.0896 188.173H60.4897L71.9499 139.196H75.7664L62.0896 188.173Z" fill="#469999"/>
<path d="M104.406 188.309H106.006L99.3559 158.19H95.5393L104.406 188.309Z" fill="#367575"/>
<path d="M94.2113 158.618H112.939L109.645 144.164L90.217 109.016L84.5811 109.882L78.7151 110.007L80.3672 114.474L85.6162 150.875L94.2113 158.618Z" fill="#A360F0"/>
<path d="M115.929 147.461L119.861 153.786C119.861 155.518 118.909 163.053 121.074 168.501C123.238 173.959 126.187 182.349 126.02 183.654C125.852 184.958 125.591 188.246 125.591 188.246H140.941C140.763 188.246 131.75 183.915 131.049 182.443C130.359 180.972 131.394 154.13 131.478 151.792C131.561 149.455 127.902 145.52 127.902 145.52C127.902 145.52 115.929 144.268 115.929 147.472V147.461Z" fill="#F57954"/>
<path d="M125.904 184.615C125.748 186.117 125.58 188.225 125.58 188.225H140.93C140.763 188.225 132.806 184.406 131.258 182.726C130.641 183.727 130.516 184.844 130.516 184.844C129.501 185.783 126.971 185.001 125.894 184.604L125.904 184.615Z" fill="#2B1710"/>
<path d="M109.216 153.17L110.774 153.775C110.774 155.508 109.822 163.042 111.987 168.49C114.151 173.948 117.1 182.339 116.933 183.643C116.755 184.937 116.504 188.235 116.504 188.235H131.854C131.676 188.235 122.663 183.904 121.962 182.433C121.272 180.961 122.307 154.12 122.391 151.782C122.475 149.444 119.442 146.846 119.442 146.846C119.442 146.846 109.206 149.966 109.206 153.17H109.216Z" fill="#FF8762"/>
<path d="M94.2113 158.618C94.2113 158.618 94.1694 158.618 94.1485 158.618L87.6447 158.513C83.6399 158.451 80.2835 155.403 79.8338 151.438L75.5886 113.93C75.369 111.989 76.7701 110.236 78.715 110.017C80.6599 109.798 82.4165 111.196 82.6361 113.137L86.8814 150.644C86.9337 151.093 87.3101 151.438 87.7597 151.438L94.2635 151.542C96.2189 151.573 97.7873 153.18 97.7455 155.142C97.7141 157.073 96.1352 158.628 94.2008 158.628L94.2113 158.618Z" fill="#BD84FF"/>
<path d="M127.964 128.04C127.065 127.622 125.852 128.321 125.256 129.605C124.66 130.889 124.911 132.256 125.81 132.673C126.709 133.091 127.922 132.392 128.518 131.108C129.114 129.824 128.863 128.457 127.964 128.04ZM126.092 132.068C125.601 131.838 125.392 130.889 125.862 129.876C126.333 128.864 127.201 128.415 127.692 128.635C128.184 128.864 128.393 129.814 127.922 130.826C127.452 131.838 126.584 132.287 126.092 132.068Z" fill="white"/>
<path d="M125.476 124.346H114.298C113.085 130.534 114.685 134.907 117.027 136.723H122.747C125.089 134.907 126.689 130.534 125.476 124.346V124.346Z" fill="white"/>
<path d="M86.5783 106.73C88.1363 103.829 89.7048 101.063 90.7399 96.5133C91.7856 91.9632 92.2143 83.1864 100.454 85.9102C103.528 87.507 104.615 88.2897 104.699 94.1756C104.783 100.062 105.389 108.671 105.996 109.59C106.602 110.508 92.4652 109.851 92.4652 109.851L86.5679 106.73H86.5783Z" fill="#2B1710"/>
<path d="M90.4993 103.672C84.1 107.324 81.3709 112.605 79.8966 117.071C78.4223 121.528 75.0867 130.753 77.8576 133.78C80.6285 136.806 84.0164 136.984 84.0164 136.984C82.5839 141.273 79.1542 150.446 85.062 151.615C90.9594 152.784 109.216 153.17 109.216 153.17C109.519 151.876 124.911 144.466 128.341 145.677C120.791 140.699 114.465 137.578 114.465 137.578L112.729 121.956L113.21 117.499C113.21 117.499 105.881 106.197 102.043 105.028C98.2056 103.859 90.5097 103.661 90.5097 103.661L90.4993 103.672Z" fill="#543A72"/>
<path d="M99.9936 86.7656C97.9128 89.8651 95.2255 90.5331 94.9014 90.9192C94.5772 91.3053 94.6818 93.1525 94.6818 92.9751C93.312 91.2844 92.0573 92.1298 92.2977 93.5386C92.5382 94.9475 93.6675 95.8346 94.5354 95.6363C94.9432 99.362 94.7968 100.531 93.4479 101.564C92.0991 102.608 90.4993 103.662 90.4993 103.662C92.5173 107.043 102.336 108.212 102.033 105.029C99.4917 103.317 99.1675 101.804 99.2826 100.896C100.736 101.073 102.597 99.0802 102.942 96.826C103.287 94.5718 103.423 94.2692 103.465 92.9334C103.507 91.5871 103.381 90.6583 102.66 89.6251C101.949 88.5815 99.9936 86.7656 99.9936 86.7656V86.7656Z" fill="#FF8762"/>
<path d="M98.5715 97.2749C100.736 96.4713 101.583 96.8157 101.719 97.3375C101.489 98.7255 100.098 98.9551 98.5715 97.2749Z" fill="#F05A48"/>
<path d="M99.0002 93.6114C99.0002 94.0289 98.8016 94.3733 98.5715 94.3733C98.3415 94.3733 98.1428 94.0393 98.1428 93.6114C98.1428 93.1836 98.3415 92.8496 98.5715 92.8496C98.8016 92.8496 99.0002 93.1836 99.0002 93.6114Z" fill="#2B1710"/>
<path d="M101.991 94.5295C102.227 94.5295 102.419 94.1884 102.419 93.7677C102.419 93.3469 102.227 93.0059 101.991 93.0059C101.754 93.0059 101.562 93.3469 101.562 93.7677C101.562 94.1884 101.754 94.5295 101.991 94.5295Z" fill="#2B1710"/>
<path d="M100.548 96.2627C100.485 96.2627 100.433 96.2105 100.433 96.1479C100.433 96.0853 100.485 96.0331 100.548 96.0331C100.715 96.0331 101.604 95.8974 101.803 95.8035C101.75 95.6992 101.51 95.4278 101.353 95.24C101.186 95.0521 101.039 94.8747 100.956 94.7495C100.726 94.3946 100.736 93.5493 100.997 92.6205C101.018 92.5579 101.071 92.5266 101.133 92.5475C101.196 92.5683 101.228 92.6205 101.207 92.6831C100.935 93.6328 100.966 94.3738 101.133 94.6242C101.207 94.739 101.363 94.9164 101.52 95.0939C101.907 95.5426 102.054 95.72 102.033 95.8453C102.001 96.1375 100.558 96.2523 100.548 96.2523V96.2627Z" fill="#2B1710"/>
<path d="M100.496 97.6924C99.8264 97.6924 98.9899 97.5881 98.0906 97.3167C98.0279 97.2958 97.9965 97.2332 98.0174 97.1811C98.0384 97.1184 98.1011 97.0871 98.1534 97.108C100.161 97.7133 101.677 97.4315 101.939 97.2124C101.991 97.1706 102.054 97.1811 102.095 97.2228C102.137 97.275 102.127 97.3376 102.085 97.3793C101.886 97.5463 101.311 97.682 100.496 97.682V97.6924Z" fill="#2B1710"/>
<g style="mix-blend-mode:multiply">
<path d="M100.527 99.299C100.349 99.299 100.13 99.2677 99.8787 99.1947C99.816 99.1738 99.7846 99.1112 99.8055 99.059C99.8264 98.9964 99.8892 98.9651 99.9415 98.9859C100.558 99.1842 100.987 99.0068 100.987 99.0068C101.039 98.9859 101.113 99.0068 101.133 99.0694C101.154 99.1216 101.133 99.1947 101.081 99.2155C101.071 99.2155 100.862 99.3095 100.517 99.3095L100.527 99.299Z" fill="#E0B3A8"/>
</g>
<g style="mix-blend-mode:multiply">
<path d="M94.3055 94.958C93.9396 94.9267 93.6468 94.7284 93.5004 94.4049C93.3645 94.0918 93.3854 93.7161 93.5736 93.4761C93.6886 93.33 93.835 93.2465 94.0232 93.2256C93.8873 92.9334 93.6363 92.6412 93.3958 92.589C93.2599 92.5577 93.1344 92.6099 93.0194 92.7351C92.9776 92.7769 92.9044 92.7873 92.8625 92.7351C92.8207 92.6934 92.8103 92.6203 92.8625 92.5786C93.0717 92.3385 93.3017 92.3281 93.4481 92.3594C93.835 92.4429 94.1696 92.8917 94.3055 93.2987C94.316 93.33 94.3055 93.3717 94.2846 93.403C94.2637 93.4343 94.2219 93.4448 94.18 93.4448C94.0023 93.4135 93.8559 93.4761 93.7618 93.6013C93.6259 93.7787 93.6049 94.0709 93.72 94.311C93.7827 94.4571 93.95 94.6971 94.3369 94.7284C94.3996 94.7284 94.4415 94.791 94.4415 94.8432C94.4415 94.9058 94.3892 94.9476 94.3264 94.9476L94.3055 94.958Z" fill="#E0B3A8"/>
</g>
<g style="mix-blend-mode:multiply">
<path d="M98.9377 100.792C97.7352 100.709 95.7903 98.9762 95.0166 97.3064C94.9956 97.2543 95.0166 97.1812 95.0688 97.1603C95.1211 97.1395 95.1943 97.1603 95.2152 97.2125C95.9472 98.7988 97.8398 100.489 98.9586 100.573C99.0213 100.573 99.0631 100.625 99.0631 100.688C99.0631 100.75 99.0109 100.792 98.9481 100.792H98.9377Z" fill="#E0B3A8"/>
</g>
<g style="mix-blend-mode:multiply">
<path d="M88.4812 114.494C88.4185 114.494 88.3767 114.453 88.3662 114.39C88.3662 114.359 88.1362 111.28 83.755 109.767C83.6922 109.746 83.6713 109.683 83.6818 109.631C83.7027 109.569 83.7654 109.548 83.8177 109.558C88.3453 111.124 88.5753 114.338 88.5753 114.38C88.5753 114.442 88.5335 114.494 88.4708 114.494H88.4812Z" fill="#BFBFBF"/>
</g>
<g style="mix-blend-mode:multiply">
<path d="M93.2911 127.789C93.2911 127.789 93.2702 127.789 93.2597 127.789L87.2787 125.838C87.2787 125.838 87.195 125.765 87.2055 125.713C87.2055 125.66 88.0734 120.098 88.2407 117.416C88.2407 117.353 88.2929 117.312 88.3557 117.312C88.4184 117.312 88.4602 117.364 88.4602 117.426C88.3034 119.931 87.5506 124.909 87.4355 125.65L93.3329 127.57C93.3956 127.591 93.427 127.654 93.4061 127.706C93.3956 127.748 93.3433 127.779 93.3015 127.779L93.2911 127.789Z" fill="#BFBFBF"/>
</g>
<g style="mix-blend-mode:multiply">
<path d="M86.7037 127.874C86.7037 127.874 86.6828 127.874 86.6723 127.874C86.6096 127.863 86.5782 127.801 86.5887 127.738L86.9442 126.392C86.6305 126.632 86.0136 127.101 85.1666 127.801C85.1248 127.842 85.0516 127.832 85.0098 127.79C84.968 127.748 84.9784 127.675 85.0202 127.634C86.3064 126.559 87.0592 126.037 87.0697 126.026C87.1115 125.995 87.1638 125.995 87.1951 126.026C87.237 126.058 87.2474 126.099 87.237 126.141L86.8083 127.79C86.8083 127.79 86.7455 127.874 86.7037 127.874V127.874Z" fill="#BFBFBF"/>
</g>
<g style="mix-blend-mode:multiply">
<path d="M106.654 116.623C106.654 116.623 106.581 116.602 106.56 116.571C106.55 116.55 105.107 114.306 104.762 110.894C104.762 110.831 104.804 110.779 104.856 110.769C104.919 110.769 104.971 110.81 104.981 110.862C105.326 114.212 106.728 116.414 106.738 116.446C106.769 116.498 106.759 116.561 106.707 116.602C106.686 116.613 106.665 116.623 106.644 116.623H106.654Z" fill="#BFBFBF"/>
</g>
<path d="M96.355 91.5352C97.913 90.9508 99.8683 91.5561 99.8683 91.5561C98.6135 89.8654 97.1183 90.3038 96.355 91.5352Z" fill="#2B1710"/>
<path d="M101.51 91.7015C102.524 91.4615 103.246 91.9415 103.371 92.1607C103.068 90.4492 101.855 91.1171 101.51 91.7015Z" fill="#2B1710"/>
<path d="M94.7865 96.1786C94.7865 96.6378 94.4101 97.0135 93.95 97.0135C93.4899 97.0135 93.1135 96.6378 93.1135 96.1786C93.1135 95.7195 93.4899 95.3438 93.95 95.3438C94.4101 95.3438 94.7865 95.7195 94.7865 96.1786Z" fill="#FFF1D9"/>
<path d="M118.742 116.404H93.8768L89.4434 134.584H114.308L118.742 116.404Z" fill="#A6FFFF"/>
<path d="M119.631 116.404H94.7655L90.332 134.584H115.197L119.631 116.404Z" fill="#69BFBF"/>
<path d="M115.417 136.776H81.3709L81.1931 134.584H115.249L115.417 136.776Z" fill="#69BFBF"/>
<path d="M106.288 126.913H103.246V126.59C103.246 125.431 104.187 124.481 105.358 124.481H108.401V124.805C108.401 125.963 107.46 126.913 106.288 126.913Z" fill="#A6FFFF"/>
<path d="M137.919 136.838H60.6675V139.259H137.919V136.838Z" fill="#469999"/>
<path d="M116.818 184.615C116.661 186.117 116.494 188.225 116.494 188.225H131.844C131.676 188.225 123.719 184.406 122.171 182.726C121.554 183.727 121.429 184.844 121.429 184.844C120.415 185.783 117.884 185.001 116.807 184.604L116.818 184.615Z" fill="#402218"/>
<path d="M64.5991 135.199C64.3586 135.199 64.1599 135.001 64.1599 134.761V95.7925C64.1599 94.2167 64.7246 92.7034 65.7597 91.5137L69.5449 87.1306C69.7018 86.9427 69.9841 86.9218 70.1723 87.0888C70.3605 87.2558 70.3814 87.5271 70.2141 87.715L66.4289 92.0981C65.5401 93.1313 65.0487 94.4463 65.0487 95.8029V134.771C65.0487 135.011 64.85 135.21 64.6095 135.21L64.5991 135.199Z" fill="#295757"/>
<path d="M70.3814 134.041H64.5991C63.2398 134.041 62.1418 135.137 62.1418 136.493V136.869H72.8387V136.493C72.8387 135.137 71.7407 134.041 70.3814 134.041Z" fill="#68BDBD"/>
<path d="M78.9975 91.5032C79.7817 92.3799 79.6981 93.7157 78.8302 94.4984C77.9519 95.2811 76.6135 95.1976 75.8292 94.3314C75.045 93.4548 75.1287 92.119 75.9966 91.3363C76.8749 90.5536 78.2133 90.637 78.9975 91.5032Z" fill="#EDBD1D"/>
<path d="M70.1305 84.3965L69.754 84.7305C69.0639 85.3462 69.0012 86.4003 69.6181 87.089L71.6466 89.3641L74.5221 86.7968L72.4936 84.5218C71.8767 83.833 70.8206 83.7704 70.1305 84.3861V84.3965Z" fill="#68BDBD"/>
<path d="M72.0858 86.9538C68.8548 89.8342 68.5725 94.7913 71.4584 98.0161L83.1695 87.58C80.2835 84.3552 75.3168 84.0735 72.0858 86.9538V86.9538Z" fill="#8FDBDB"/>
<path d="M174.223 80.1387V96.6172H156.395V80.1387H154.732V189.279H156.395V176.015H174.223V189.279H175.886V80.1387H174.223ZM174.223 98.1722V116.07H156.395V98.1722H174.223V98.1722ZM156.395 135.533V117.636H174.223V135.533H156.395ZM174.223 137.099V154.997H156.395V137.099H174.223ZM156.395 174.46V156.562H174.223V174.46H156.395Z" fill="#EDCD5F"/>
<path d="M223.42 188.747L234.409 188.684L231 161.551L219.363 156.552L223.42 188.747Z" fill="#EDBD1D"/>
<path d="M209.21 188.84L220.21 188.767L215.964 155.09L204.326 150.102L209.21 188.84Z" fill="#EDBD1D"/>
<path d="M243.496 150.363L233.604 159.234L237.316 188.664L248.316 188.591L243.496 150.363Z" fill="#EDBD1D"/>
<path d="M246.11 148.025L251.213 188.58L262.213 188.507L256.002 139.165L246.11 148.025Z" fill="#EDBD1D"/>
<path d="M177.558 189.039L175.551 173.343L164.655 182.412L166.192 189.112L177.558 189.039Z" fill="#EDBD1D"/>
<path d="M180.789 189.029L191.789 188.956L188.381 161.812L178.489 170.703L180.789 189.029Z" fill="#EDBD1D"/>
<path d="M201.43 150.07L191.538 158.972L195.313 188.934L206.303 188.861L201.43 150.07Z" fill="#EDBD1D"/>
<g style="mix-blend-mode:multiply">
<path d="M277.782 111.979L261.888 116.884L267.179 118.919L230.3 151.981L201.639 139.666L165.314 172.331L165.868 176.819L202.35 143.997L231.011 156.312L269.532 121.789L270.787 127.049L277.782 111.979Z" fill="#EDBD1D"/>
</g>
<path d="M277.782 111.979L261.888 116.884L267.179 118.919L230.3 151.981L201.639 139.666L162.637 174.805L163.672 178.781L202.35 143.997L231.011 156.312L269.532 121.789L270.787 127.049L277.782 111.979Z" fill="#EDBD1D"/>
<path d="M251.589 81.4332C251.181 81.2975 246.444 80.7966 246.078 80.2956C242.481 76.57 238.205 74.7958 238.247 73.8879C238.288 72.98 238.707 71.7067 238.069 70.7988C237.431 69.8909 237.755 67.4384 237.295 67.3027C236.835 67.1671 236.344 67.9393 236.385 68.9412C236.427 69.9431 236.427 70.6214 235.748 70.0265C235.068 69.4317 232.422 65.8521 232.056 66.5305C231.691 67.2088 234.88 71.258 233.698 70.1205C232.517 68.9829 231.283 67.2088 230.739 67.8037C230.195 68.3985 231.513 69.3065 230.969 69.3482C230.425 69.3899 231.063 70.8927 231.649 71.665C231.649 72.1659 230.143 70.5275 230.373 71.665C230.603 72.8025 232.736 74.1592 233.332 75.0254C233.928 75.8916 236.521 77.0709 236.835 77.2483C237.149 77.5196 244.479 85.785 245.712 86.2442C246.946 86.7034 251.223 86.9226 251.223 86.9226C251.223 86.9226 252.634 86.3277 252.676 86.0564C252.718 85.785 251.589 81.4227 251.589 81.4227V81.4332Z" fill="#FF8762"/>
<path d="M242.544 116.29C241.844 117.949 240.098 120.662 240.192 120.882C240.296 122.478 240.129 124.179 240.129 124.179L227.644 124.785C229.014 122.437 235.863 120.266 236.532 119.212C237.201 118.158 236.082 108.588 236.082 108.588L242.555 116.279L242.544 116.29Z" fill="#FF8762"/>
<path d="M227.644 124.795L240.129 124.189C240.129 124.189 240.233 123.083 240.223 121.81C239.167 122.248 237.578 122.53 235.539 121.81C235.539 121.81 236.145 120.704 236.03 119.66C234.273 120.808 228.836 122.739 227.644 124.805V124.795Z" fill="#4A281C"/>
<path d="M234.524 121.82C234.524 121.82 234.472 121.779 234.472 121.737C234.472 121.695 234.451 120.808 233.667 120.62C233.625 120.61 233.594 120.558 233.604 120.516C233.615 120.474 233.667 120.443 233.709 120.453C234.629 120.672 234.65 121.726 234.65 121.737C234.65 121.789 234.608 121.82 234.566 121.82C234.556 121.82 234.545 121.82 234.535 121.82H234.524Z" fill="#2B1710"/>
<path d="M232.914 122.614C232.914 122.614 232.862 122.573 232.862 122.531C232.862 122.489 232.841 121.602 232.057 121.414C232.015 121.404 231.984 121.351 231.994 121.31C232.004 121.268 232.057 121.237 232.099 121.247C233.019 121.466 233.04 122.52 233.04 122.531C233.04 122.583 232.998 122.614 232.956 122.614C232.945 122.614 232.935 122.614 232.925 122.614H232.914Z" fill="#2B1710"/>
<path d="M242.931 136.505C242.931 138.31 242.387 141.483 242.555 141.65C243.276 143.079 243.789 144.718 243.789 144.718L232.527 150.134C232.872 147.442 238.33 142.777 238.539 141.545C238.749 140.314 238.571 135.962 238.571 135.962L242.942 136.505H242.931Z" fill="#FF8762"/>
<path d="M232.517 150.134L243.778 144.717C243.778 144.717 243.443 143.653 242.942 142.494C242.136 143.308 240.788 144.185 238.623 144.31C238.623 144.31 238.749 143.058 238.236 142.14C237.065 143.882 232.82 147.775 232.517 150.134Z" fill="#4A281C"/>
<path d="M271.571 114.004L271.341 98.7882L259.87 97.8385C259.599 99.1117 259.274 102.702 259.274 102.702C259.044 102.566 258.407 102.524 258.407 102.524C258.407 102.524 240.662 88.78 236.678 90.1158C233.709 92.6727 233.918 93.0797 234.012 96.4505C234.117 99.8214 234.221 115.361 234.221 115.361L238.571 114.38L237.839 137.318C242.116 139.092 243.621 138.132 243.621 138.132C243.621 138.132 248.128 119.775 247.312 116.603C256.19 118.105 268.706 118.053 270.254 116.916C271.801 115.778 271.571 114.004 271.571 114.004V114.004ZM242.764 108.598C242.534 104.465 241.896 100.468 241.896 100.468L249.456 106.918L242.764 108.598V108.598Z" fill="#7F52B3"/>
<path d="M259.463 95.9703L259.504 98.1514C261.596 100.155 271.289 99.2889 271.289 99.2889L271.383 95.1562L259.463 95.9703V95.9703Z" fill="#2B1710"/>
<path d="M270.316 96.3988C270.316 96.3988 270.703 96.7849 270.452 97.9851C270.201 99.1852 269.835 103.412 270.243 106.553C270.651 109.684 271.247 114.547 271.153 115.413C271.059 116.28 271.466 116.958 272.428 117.135C273.38 117.313 276.391 117.542 276.391 117.313C276.987 117.271 277.259 117.271 277.259 117.271C278.169 118.315 279.309 118.68 279.309 118.68C279.267 118.179 278.535 117.229 278.535 117.229C278.535 117.229 279.852 118.774 280.26 118.315C280.72 118.315 280.668 117.949 280.668 117.949C280.668 117.949 279.622 116.092 279.026 115.726C278.43 115.361 274.29 114.276 273.976 113.681C273.662 113.086 275.293 101.826 275.021 99.2374C274.75 96.6493 274.75 95.5117 274.75 95.5117L270.316 96.3988Z" fill="#FF8762"/>
<path d="M262.693 78.1765C259.483 79.575 251.432 81.1404 251.432 81.1404C251.223 83.1128 251.223 86.9324 251.223 86.9324C253.063 89.6562 257.026 90.752 257.026 90.752C257.706 94.0916 258.532 96.1997 259.557 96.2727C262.15 96.8154 269.521 96.9511 270.065 96.544C270.546 97.2224 275.053 95.7926 275.053 95.5213C276.423 89.5936 276.349 82.5075 274.436 80.2533C272.522 78.0096 269.762 77.7695 269.762 77.7695L262.693 78.1765V78.1765Z" fill="#C0F0F0"/>
<path d="M262.15 66.7286C260.613 62.9508 263.823 60.8322 264.848 61.3436C267.336 60.3939 272.083 62.1994 271.979 65.7685C271.874 69.3481 271.299 69.7238 271.299 69.7238C273.997 70.5795 275.534 72.4789 272.669 74.7018C269.804 76.9142 266.897 74.7331 266.897 74.7331L262.15 66.7286V66.7286Z" fill="#2B1710"/>
<path d="M264.419 62.3877C265.067 66.0299 268.926 67.4492 268.978 67.4492C269.009 68.8476 268.685 69.8182 268.685 69.8182C269.919 69.0981 270.682 69.6825 270.473 70.8931C270.264 72.1037 268.769 72.5107 268.319 71.728C267.755 73.7735 267.775 77.1234 269.752 77.7705C264.565 80.0142 261.387 85.608 261.387 85.608C261.251 81.924 262.683 78.1775 262.683 78.1775C263.332 78.1462 264.189 78.2505 264.189 74.7023C262.589 74.4622 262.213 74.0239 261.794 73.2412C261.387 72.4585 261.073 69.5573 261.659 67.6892C262.234 65.8107 262.715 63.1287 264.409 62.3877H264.419Z" fill="#FF8762"/>
<path d="M262.181 70.757C262.861 70.2247 264.084 70.8405 265.349 71.4249C264.952 72.3641 263.593 73.2825 262.819 72.959C262.045 72.6459 262.453 71.2266 262.181 70.757Z" fill="#D62B2B"/>
<path d="M262.275 70.8193C262.579 71.4455 262.631 72.3743 262.903 72.5413C263.164 72.7083 264.785 72.3326 265.266 71.4455C264.084 71.3829 262.735 71.1637 262.275 70.8193V70.8193Z" fill="white"/>
<path d="M266.259 68.8784C266.176 69.2228 265.956 69.4628 265.757 69.4211C265.559 69.3794 265.464 69.0558 265.548 68.7114C265.632 68.3671 265.851 68.127 266.05 68.1688C266.249 68.2105 266.343 68.534 266.259 68.8784Z" fill="#2B1710"/>
<path d="M263.237 67.9605C263.154 68.3049 262.934 68.5449 262.736 68.5031C262.537 68.4614 262.443 68.1379 262.526 67.7935C262.61 67.4491 262.83 67.2091 263.028 67.2508C263.227 67.2926 263.321 67.6161 263.237 67.9605Z" fill="#2B1710"/>
<path d="M263.415 70.0686C263.331 70.0686 261.878 69.5781 261.805 69.432C261.794 69.4007 261.794 69.3694 261.805 69.3381C261.826 69.3068 261.857 69.2963 261.93 69.2755C263.018 68.9728 263.561 68.1692 263.561 66.8647C263.561 66.8126 263.603 66.7812 263.645 66.7812C263.687 66.7812 263.729 66.823 263.729 66.8647C263.729 67.7935 263.436 68.9833 262.077 69.4111C262.432 69.5677 263.279 69.8808 263.405 69.9016C263.457 69.9016 263.488 69.9434 263.488 69.9956C263.488 70.0373 263.446 70.0791 263.405 70.0791L263.415 70.0686Z" fill="#2B1710"/>
<path d="M265.235 71.5297C264.555 71.5297 262.924 71.4253 262.014 70.7678C261.972 70.7365 261.962 70.6843 261.993 70.6426C262.024 70.6009 262.077 70.5904 262.119 70.6217C263.122 71.3522 265.203 71.3836 265.506 71.3418C265.559 71.3418 265.601 71.3731 265.601 71.4149C265.601 71.467 265.569 71.5088 265.527 71.5088C265.486 71.5088 265.391 71.5088 265.235 71.5088V71.5297Z" fill="#2B1710"/>
<g style="mix-blend-mode:multiply">
<path d="M263.478 73.6264C263.279 73.6264 262.976 73.5743 262.558 73.3864C262.516 73.3655 262.495 73.3134 262.516 73.2716C262.537 73.2299 262.589 73.209 262.631 73.2299C263.373 73.5743 263.708 73.4177 263.718 73.4177C263.76 73.3968 263.812 73.4177 263.833 73.4595C263.854 73.5012 263.833 73.5534 263.791 73.5743C263.791 73.5743 263.676 73.6264 263.467 73.6264H263.478Z" fill="#E0B3A8"/>
</g>
<g style="mix-blend-mode:multiply">
<path d="M264.827 74.8377C264.827 74.8377 264.754 74.8168 264.743 74.775C264.733 74.7333 264.754 74.6811 264.806 74.6707C265.632 74.4515 266.803 73.8775 267.639 72.4165V72.3956C267.639 72.3956 267.734 72.3434 267.775 72.3643C267.817 72.3852 267.828 72.4374 267.807 72.4791V72.5C266.918 74.0132 265.716 74.5976 264.848 74.8377C264.848 74.8377 264.837 74.8377 264.827 74.8377V74.8377Z" fill="#E0B3A8"/>
</g>
<g style="mix-blend-mode:multiply">
<path d="M268.664 71.6125C268.664 71.6125 268.56 71.6125 268.507 71.6021C268.455 71.6021 268.424 71.5499 268.434 71.5081C268.434 71.456 268.486 71.4247 268.528 71.4351C268.769 71.4664 268.967 71.4142 269.082 71.2577C269.187 71.122 269.208 70.9446 269.135 70.7881C269.072 70.642 268.936 70.548 268.758 70.5376C268.727 70.5376 268.706 70.5167 268.685 70.4958C268.675 70.475 268.675 70.4437 268.685 70.4124C268.685 70.3915 268.926 69.9323 269.344 69.7966C269.563 69.7236 269.783 69.7549 270.013 69.8801C270.055 69.901 270.076 69.9532 270.044 69.9949C270.023 70.0367 269.971 70.0575 269.929 70.0262C269.741 69.9323 269.563 69.901 269.396 69.9636C269.156 70.0367 268.978 70.2558 268.894 70.3811C269.072 70.4332 269.208 70.548 269.281 70.715C269.375 70.9237 269.344 71.1846 269.197 71.362C269.124 71.4664 268.947 71.6125 268.643 71.6125H268.664Z" fill="#E0B3A8"/>
</g>
<g style="mix-blend-mode:multiply">
<path d="M269.982 95.605C269.982 95.605 269.898 95.5737 269.898 95.5215C269.898 95.5006 269.794 93.6743 268.309 90.2826C267.242 87.8406 267.148 85.2211 268.047 83.28C268.863 81.5163 270.442 80.2744 272.732 79.5856C272.774 79.5752 272.826 79.5961 272.836 79.6482C272.847 79.69 272.826 79.7422 272.774 79.7526C270.536 80.4309 268.988 81.6415 268.194 83.353C267.315 85.2524 267.409 87.8197 268.455 90.22C269.95 93.643 270.055 95.5006 270.055 95.5215C270.055 95.5737 270.024 95.6154 269.971 95.6154L269.982 95.605Z" fill="#D1D1D1"/>
</g>
<g style="mix-blend-mode:multiply">
<path d="M257.058 90.1475C257.058 90.1475 256.984 90.1267 256.974 90.0849C256.953 90.0223 256.514 88.4465 257.068 87.1628C257.204 86.8602 257.434 86.4532 257.695 85.994C258.553 84.5121 259.839 82.2683 259.567 80.2228C259.567 80.1707 259.598 80.1289 259.64 80.1289C259.693 80.1289 259.734 80.1602 259.734 80.202C260.017 82.31 258.71 84.5851 257.842 86.0879C257.58 86.5471 257.35 86.9437 257.225 87.2463C256.702 88.4778 257.131 90.0327 257.141 90.0536C257.152 90.0954 257.131 90.1475 257.078 90.158H257.058V90.1475Z" fill="#D1D1D1"/>
</g>
<g style="mix-blend-mode:multiply">
<path d="M249.791 107.189C249.791 107.189 249.717 107.158 249.707 107.127C249.696 107.085 249.728 107.033 249.77 107.023C249.832 107.012 256.117 105.53 260.906 105.321C260.958 104.758 261.24 101.283 261.24 99.5503C261.24 99.4981 261.282 99.4668 261.324 99.4668C261.366 99.4668 261.407 99.5085 261.407 99.5503C261.407 101.439 261.073 105.374 261.062 105.415C261.062 105.457 261.021 105.488 260.979 105.499C256.2 105.697 249.864 107.189 249.801 107.2C249.801 107.2 249.791 107.2 249.78 107.2L249.791 107.189Z" fill="#D1D1D1"/>
</g>
<g style="mix-blend-mode:multiply">
<path d="M238.665 114.202C238.665 114.202 238.654 114.202 238.644 114.202C238.592 114.202 238.571 114.15 238.571 114.098C238.602 113.952 239.261 110.539 239.533 109.861C239.815 109.151 242.199 108.755 242.471 108.713C242.523 108.713 242.565 108.734 242.576 108.786C242.576 108.838 242.555 108.88 242.502 108.89C241.791 109.005 239.909 109.402 239.7 109.923C239.428 110.591 238.759 114.098 238.749 114.129C238.749 114.171 238.707 114.202 238.665 114.202V114.202Z" fill="#D1D1D1"/>
</g>
<g style="mix-blend-mode:multiply">
<path d="M242.084 136.421C242.084 136.421 242.084 136.421 242.074 136.421C242.021 136.421 241.99 136.369 242.001 136.316C242.032 136.149 244.866 120.026 244.531 118.012C244.489 117.782 244.458 117.573 244.426 117.406C244.228 116.3 244.217 116.217 244.813 116.06C244.918 116.029 245.054 115.997 245.211 115.945C245.482 115.851 245.639 115.757 245.66 115.653C245.692 115.517 245.514 115.329 245.326 115.121C245.221 115.016 245.117 114.902 245.033 114.776C245.012 114.745 245.001 114.693 245.022 114.662C245.137 114.401 247.208 114.192 252.676 113.722C257.999 113.253 264.618 112.668 266.521 111.99C269.825 110.8 268.12 100.135 268.099 100.03C268.099 99.978 268.12 99.9362 268.173 99.9258C268.225 99.9258 268.267 99.9467 268.277 99.9988C268.35 100.448 270.023 110.915 266.583 112.157C264.67 112.846 258.03 113.43 252.697 113.9C249.247 114.202 245.681 114.515 245.221 114.735C245.294 114.829 245.388 114.922 245.472 115.016C245.702 115.267 245.901 115.476 245.848 115.705C245.807 115.872 245.629 116.008 245.284 116.123C245.127 116.175 244.991 116.216 244.876 116.237C244.625 116.3 244.541 116.331 244.51 116.436C244.479 116.571 244.531 116.864 244.615 117.396C244.646 117.573 244.677 117.771 244.719 118.012C245.064 120.047 242.314 135.701 242.189 136.369C242.189 136.41 242.147 136.442 242.105 136.442L242.084 136.421Z" fill="#D1D1D1"/>
</g>
<g style="mix-blend-mode:multiply">
<path d="M277.887 116.603C277.887 116.603 277.845 116.603 277.824 116.582C277.625 116.384 275.827 115.956 274.865 115.768C274.812 115.768 274.792 115.716 274.792 115.664C274.792 115.612 274.844 115.591 274.896 115.591C274.927 115.591 277.636 116.144 277.949 116.447C277.981 116.478 277.981 116.54 277.949 116.572C277.928 116.593 277.908 116.593 277.887 116.593V116.603Z" fill="#E0B3A8"/>
</g>
<g style="mix-blend-mode:multiply">
<path d="M278.702 116.488C278.702 116.488 278.65 116.477 278.629 116.456C278.462 116.237 277.813 115.893 276.705 115.444C276.663 115.423 276.642 115.371 276.653 115.329C276.674 115.288 276.726 115.267 276.768 115.277C277.939 115.757 278.577 116.091 278.765 116.342C278.796 116.383 278.786 116.435 278.744 116.467C278.723 116.477 278.713 116.488 278.692 116.488H278.702Z" fill="#E0B3A8"/>
</g>
<g style="mix-blend-mode:multiply">
<path d="M234.566 74.7017C234.566 74.7017 234.566 74.7017 234.556 74.7017C234.503 74.7017 234.472 74.6495 234.482 74.6078C234.482 74.5661 234.639 73.6164 236.114 73.3242C236.093 73.0215 236.072 71.9779 236.595 71.2578C236.626 71.2161 236.678 71.2056 236.72 71.237C236.762 71.2683 236.772 71.3204 236.741 71.3622C236.176 72.1449 236.302 73.3763 236.302 73.3868C236.302 73.4285 236.27 73.4703 236.229 73.4807C234.817 73.7416 234.671 74.5974 234.66 74.6391C234.66 74.6809 234.618 74.7122 234.577 74.7122L234.566 74.7017Z" fill="#E0B3A8"/>
</g>
<g style="mix-blend-mode:multiply">
<path d="M233.709 71.5714C233.709 71.5714 233.667 71.5714 233.646 71.5505L232.192 70.0999C232.192 70.0999 232.161 70.006 232.192 69.9747C232.224 69.9433 232.287 69.9433 232.318 69.9747L233.771 71.4253C233.771 71.4253 233.803 71.5192 233.771 71.5505C233.75 71.5714 233.729 71.5714 233.709 71.5714Z" fill="#E0B3A8"/>
</g>
<g style="mix-blend-mode:multiply">
<path d="M233.343 72.4788C233.343 72.4788 233.322 72.4788 233.311 72.4788C233.269 72.458 233.249 72.4058 233.269 72.364C233.29 72.3223 233.698 71.4248 234.315 71.1848C234.357 71.1639 234.409 71.1848 234.43 71.2369C234.451 71.2787 234.43 71.3309 234.378 71.3517C233.824 71.5605 233.426 72.4371 233.426 72.4371C233.416 72.4684 233.384 72.4893 233.343 72.4893V72.4788Z" fill="#E0B3A8"/>
</g>
<path d="M264.994 66.7807C266.698 67.1668 267.681 67.8973 267.681 67.8973C266.06 66.1023 265.402 66.0084 264.994 66.7807Z" fill="#2B1710"/>
<path d="M262.118 66.0611C262.986 66.0924 263.551 66.4994 263.551 66.4994C263.478 65.581 262.829 65.5706 262.118 66.0611Z" fill="#2B1710"/>
<path d="M262.338 70.9551C262.589 71.5708 262.652 72.3744 262.903 72.5414C262.725 72.364 262.746 72.0822 262.903 71.7169C262.903 71.7169 262.547 71.4664 262.338 70.9551V70.9551Z" fill="#2B1710"/>
<g style="mix-blend-mode:multiply">
<path d="M276.161 116.979C276.161 116.979 276.088 117.01 276.046 116.989C275.827 116.843 275.346 116.77 274.886 116.707C274.206 116.613 273.505 116.509 273.275 116.144C273.244 116.102 273.275 116.039 273.317 116.019C273.317 116.019 273.401 116.019 273.422 116.05C273.62 116.353 274.3 116.446 274.907 116.53C275.409 116.603 275.89 116.666 276.14 116.843C276.182 116.874 276.193 116.937 276.151 116.979H276.161Z" fill="#E0B3A8"/>
</g>
<path d="M264.973 96.4717H263.969V99.519H264.973V96.4717Z" fill="#FFB561"/>
<path d="M237.703 144.718C237.703 144.718 237.64 144.697 237.619 144.666C237.609 144.634 237.232 143.82 236.438 143.946C236.386 143.946 236.344 143.925 236.333 143.873C236.333 143.82 236.354 143.779 236.406 143.768C237.337 143.612 237.766 144.572 237.776 144.582C237.797 144.624 237.776 144.676 237.734 144.697C237.724 144.697 237.713 144.697 237.703 144.697V144.718Z" fill="#2B1710"/>
<path d="M236.532 146.074C236.532 146.074 236.469 146.053 236.448 146.022C236.438 145.991 236.061 145.177 235.267 145.302C235.214 145.302 235.173 145.281 235.162 145.229C235.162 145.177 235.183 145.135 235.235 145.125C236.166 144.968 236.595 145.928 236.605 145.939C236.626 145.98 236.605 146.033 236.563 146.053C236.553 146.053 236.542 146.053 236.532 146.053V146.074Z" fill="#2B1710"/>
<path d="M282.142 196H15.5588V195.176C15.5588 191.293 18.7166 188.142 22.6064 188.142H275.105C278.995 188.142 282.153 191.293 282.153 195.176V196H282.142Z" fill="#A8CFCF"/>
<defs>
<linearGradient id="paint0_linear_1692_90029" x1="84.7585" y1="183.258" x2="46.7146" y2="135.441" gradientUnits="userSpaceOnUse">
<stop stop-color="#53BFC0"/>
<stop offset="1" stop-color="#95DDDE"/>
</linearGradient>
<linearGradient id="paint1_linear_1692_90029" x1="50.1692" y1="198.787" x2="26.0036" y2="154.561" gradientUnits="userSpaceOnUse">
<stop stop-color="#83DDDE"/>
<stop offset="1" stop-color="#BBF1F2"/>
</linearGradient>
<linearGradient id="paint2_linear_1692_90029" x1="276.684" y1="165.318" x2="298.998" y2="152.831" gradientUnits="userSpaceOnUse">
<stop stop-color="#53BFC0"/>
<stop offset="1" stop-color="#95DDDE"/>
</linearGradient>
<linearGradient id="paint3_linear_1692_90029" x1="258.501" y1="186.294" x2="271.919" y2="128.269" gradientUnits="userSpaceOnUse">
<stop stop-color="#53BFC0"/>
<stop offset="1" stop-color="#95DDDE"/>
</linearGradient>
<linearGradient id="paint4_linear_1692_90029" x1="261.355" y1="190.48" x2="295.485" y2="158.072" gradientUnits="userSpaceOnUse">
<stop stop-color="#83DDDE"/>
<stop offset="1" stop-color="#BBF1F2"/>
</linearGradient>
<linearGradient id="paint5_linear_1692_90029" x1="93.9811" y1="107.168" x2="231.304" y2="107.168" gradientUnits="userSpaceOnUse">
<stop stop-color="#415A9D"/>
<stop offset="1" stop-color="#7D97DD"/>
</linearGradient>
<linearGradient id="paint6_linear_1692_90029" x1="162.648" y1="181.973" x2="162.648" y2="4.34095" gradientUnits="userSpaceOnUse">
<stop stop-color="#8557BB"/>
<stop offset="1" stop-color="#B272FE"/>
</linearGradient>
<radialGradient id="paint7_radial_1692_90029" cx="0" cy="0" r="1" gradientUnits="userSpaceOnUse" gradientTransform="translate(158.256 84.5944) scale(81.1828 81.0257)">
<stop stop-color="#E4D2FA"/>
<stop offset="1" stop-color="#C4A2EB"/>
</radialGradient>
<radialGradient id="paint8_radial_1692_90029" cx="0" cy="0" r="1" gradientUnits="userSpaceOnUse" gradientTransform="translate(158.256 0.521326) scale(81.1828 81.0257)">
<stop stop-color="#E4D2FA"/>
<stop offset="1" stop-color="#C4A2EB"/>
</radialGradient>
</defs>
</svg>
