<svg width="217" height="158" viewBox="0 0 217 158" fill="none" xmlns="http://www.w3.org/2000/svg">
<g clip-path="url(#clip0_1692_91694)">
<path d="M23.3883 126.785C23.3883 126.785 23.4092 126.785 23.4197 126.774C23.4823 126.732 23.5032 126.649 23.4614 126.586C18.5018 118.531 7.91444 110.842 3.63354 110.989C3.56045 110.989 3.4978 111.052 3.4978 111.125C3.4978 111.198 3.56045 111.261 3.63354 111.261C7.85179 111.114 18.3035 118.74 23.2213 126.722C23.2526 126.774 23.3152 126.795 23.3779 126.785H23.3883Z" fill="#15A3A5"/>
<path d="M3.7067 110.309C3.93641 110.832 4.5942 111.052 4.5942 111.052C4.5942 111.052 4.88656 110.424 4.65685 109.891C4.42714 109.368 3.76935 109.148 3.76935 109.148C3.76935 109.148 3.47699 109.776 3.7067 110.309Z" fill="#15A3A5"/>
<path d="M10.0235 112.914C10.0966 113.478 10.6604 113.876 10.6604 113.876C10.6604 113.876 11.1198 113.353 11.0467 112.788C10.9737 112.223 10.4098 111.826 10.4098 111.826C10.4098 111.826 9.95042 112.349 10.0235 112.914Z" fill="#15A3A5"/>
<path d="M6.5152 112.517C6.02446 112.809 5.89917 113.5 5.89917 113.5C5.89917 113.5 6.56741 113.709 7.0477 113.406C7.528 113.102 7.66374 112.422 7.66374 112.422C7.66374 112.422 6.9955 112.213 6.5152 112.517Z" fill="#15A3A5"/>
<path d="M12.6131 116.429C12.1224 116.722 11.9971 117.412 11.9971 117.412C11.9971 117.412 12.6653 117.621 13.1456 117.318C13.6363 117.025 13.7616 116.334 13.7616 116.334C13.7616 116.334 13.0934 116.125 12.6131 116.429Z" fill="#15A3A5"/>
<path d="M49.1365 152.905C51.2456 143.689 47.2675 143.407 47.9775 140.593C48.6875 137.79 49.7525 133.375 46.902 131.074C44.0516 128.772 42.7882 126.419 43.1328 124.421C43.4669 122.423 44.4484 115.226 40.8044 112.945C37.1604 110.665 35.542 109.514 35.0304 105.947C34.5292 102.38 34.7589 96.7936 30.739 95.3291C26.7192 93.8541 25.4767 91.898 24.965 88.3308C24.4639 84.7637 19.9324 79.3241 9.16746 78.0479C6.7973 85.088 7.29848 88.6551 10.2011 92.944C13.1038 97.233 13.1142 97.233 12.0597 102.045C11.0051 106.857 13.5006 110.361 16.3615 113.06C19.2224 115.759 19.6713 117.339 18.9822 120.948C18.2931 124.546 17.6248 128.95 21.6865 131.618C25.7377 134.285 27.022 137.434 26.7714 142.214C26.5208 146.995 26.4581 147.79 26.4581 147.79C26.4581 147.79 28.6717 152.905 32.2948 154.391L49.1365 152.895V152.905Z" fill="url(#paint0_linear_1692_91694)"/>
<path d="M41.3786 152.539C41.2011 152.539 41.0236 152.424 40.9819 152.236C40.8879 151.838 30.8852 112.056 15.1711 84.6276C15.0667 84.4393 15.1294 84.1987 15.3173 84.0836C15.5053 83.979 15.7454 84.0418 15.8603 84.23C31.6265 111.752 41.6501 151.639 41.7545 152.037C41.8067 152.246 41.6814 152.466 41.4622 152.518C41.4308 152.518 41.41 152.529 41.3786 152.529V152.539Z" fill="#15A3A5"/>
<path d="M20.7258 154.098H33.4432C33.4432 154.098 33.6833 152.163 32.3573 149.505C31.0313 146.848 30.6972 147.173 31.0313 144.516C31.3654 141.859 31.3654 139.861 28.7029 136.534C26.0508 133.208 25.0485 134.201 24.3907 131.879C23.7224 129.546 24.0565 127.559 20.0784 125.895C16.0899 124.232 15.7662 124.902 13.1037 121.899C10.4516 118.908 9.44926 117.579 0.156569 117.579C-0.51167 122.904 1.14848 127.893 5.80527 130.551C10.4516 133.208 10.7857 134.547 11.1199 137.204C11.454 139.861 12.4459 141.2 14.7743 142.863C17.1027 144.526 16.7686 145.855 17.4264 149.516C18.0946 153.177 20.7467 154.108 20.7467 154.108L20.7258 154.098Z" fill="url(#paint1_linear_1692_91694)"/>
<path d="M27.3664 153.167C27.2203 153.167 27.0845 153.062 27.0428 152.916C27.0114 152.78 23.5241 138.835 5.55472 122.475C5.41899 122.349 5.40855 122.14 5.53384 122.004C5.65914 121.868 5.86796 121.857 6.0037 121.983C24.1297 138.501 27.6588 152.623 27.6901 152.759C27.7319 152.937 27.6275 153.114 27.4395 153.156C27.4187 153.156 27.3873 153.156 27.3664 153.156V153.167Z" fill="#15A3A5"/>
<path d="M23.6598 151.849C23.6598 151.849 23.6807 151.849 23.6911 151.838C23.7538 151.796 23.7747 151.713 23.7329 151.65C18.7733 143.595 8.18593 135.906 3.90502 136.053C3.83193 136.053 3.76929 136.116 3.76929 136.189C3.76929 136.262 3.83193 136.325 3.90502 136.325C8.12328 136.178 18.5749 143.804 23.4928 151.786C23.5241 151.838 23.5867 151.859 23.6494 151.849H23.6598Z" fill="#15A3A5"/>
<path d="M3.97818 135.373C4.20789 135.896 4.86569 136.116 4.86569 136.116C4.86569 136.116 5.15804 135.488 4.92833 134.955C4.69863 134.432 4.04083 134.212 4.04083 134.212C4.04083 134.212 3.74848 134.84 3.97818 135.373Z" fill="#15A3A5"/>
<path d="M10.295 137.978C10.3681 138.542 10.9319 138.94 10.9319 138.94C10.9319 138.94 11.3913 138.417 11.3182 137.852C11.2451 137.287 10.6813 136.89 10.6813 136.89C10.6813 136.89 10.2219 137.413 10.295 137.978Z" fill="#15A3A5"/>
<path d="M6.77643 137.58C6.28569 137.873 6.1604 138.564 6.1604 138.564C6.1604 138.564 6.82864 138.773 7.30894 138.47C7.79967 138.177 7.92497 137.486 7.92497 137.486C7.92497 137.486 7.25673 137.277 6.77643 137.58Z" fill="#15A3A5"/>
<path d="M12.8741 141.493C12.3834 141.785 12.2581 142.476 12.2581 142.476C12.2581 142.476 12.9263 142.685 13.4066 142.382C13.8869 142.078 14.0226 141.398 14.0226 141.398C14.0226 141.398 13.3544 141.189 12.8741 141.493Z" fill="#15A3A5"/>
<path d="M188.569 123.542C188.569 123.542 188.537 123.532 188.527 123.521C188.433 123.469 188.412 123.344 188.464 123.25C195.554 111.732 210.683 100.748 216.812 100.958C216.917 100.958 217 101.052 217 101.156C217 101.261 216.906 101.345 216.802 101.345C210.777 101.135 195.825 112.036 188.798 123.459C188.746 123.532 188.663 123.563 188.579 123.542H188.569Z" fill="#15A3A5"/>
<path d="M216.708 99.9951C216.384 100.748 215.434 101.052 215.434 101.052C215.434 101.052 215.016 100.152 215.351 99.3988C215.685 98.6456 216.624 98.3423 216.624 98.3423C216.624 98.3423 217.042 99.2419 216.708 99.9951Z" fill="#15A3A5"/>
<path d="M207.676 103.709C207.582 104.525 206.768 105.089 206.768 105.089C206.768 105.089 206.11 104.347 206.214 103.531C206.308 102.715 207.123 102.15 207.123 102.15C207.123 102.15 207.781 102.893 207.676 103.709Z" fill="#15A3A5"/>
<path d="M212.698 103.154C213.398 103.573 213.586 104.556 213.586 104.556C213.586 104.556 212.636 104.849 211.936 104.431C211.237 104.012 211.049 103.029 211.049 103.029C211.049 103.029 211.999 102.736 212.698 103.154Z" fill="#15A3A5"/>
<path d="M203.98 108.74C204.679 109.159 204.867 110.142 204.867 110.142C204.867 110.142 203.917 110.435 203.218 110.017C202.518 109.598 202.33 108.615 202.33 108.615C202.33 108.615 203.28 108.322 203.98 108.74Z" fill="#15A3A5"/>
<path d="M188.276 145.688L172.489 143.941C172.489 143.941 172.552 142.12 174.181 139.85C175.809 137.58 180.069 137.79 180.163 135.269C180.257 132.748 180.55 130.906 183.505 128.218C186.459 125.53 187.232 126.607 188.203 124.546C189.164 122.486 189.153 120.592 193.1 119.64C197.036 118.699 197.245 119.358 200.158 116.983C203.071 114.609 204.189 113.521 212.803 114.912C212.625 119.944 210.338 124.316 205.64 126.094C200.931 127.862 200.43 129.044 199.72 131.461C199.02 133.877 197.893 134.965 195.491 136.158C193.09 137.35 193.194 138.637 192.035 141.922C190.876 145.217 188.276 145.677 188.276 145.677V145.688Z" fill="url(#paint2_linear_1692_91694)"/>
<path d="M182.262 143.826C182.398 143.847 182.544 143.773 182.596 143.637C182.648 143.512 187.963 131.116 207.039 118.647C207.185 118.552 207.227 118.354 207.133 118.218C207.039 118.071 206.841 118.029 206.705 118.124C187.441 130.708 182.074 143.271 182.022 143.397C181.959 143.554 182.022 143.742 182.189 143.805C182.21 143.805 182.231 143.826 182.262 143.826Z" fill="#15A3A5"/>
<path d="M169.43 152.947C167.634 146.064 170.62 145.771 170.025 143.669C169.43 141.577 168.532 138.281 170.62 136.493C172.708 134.693 173.606 132.905 173.303 131.409C173.001 129.913 172.113 124.525 174.797 122.737C177.48 120.937 178.681 120.048 178.973 117.349C179.276 114.661 178.973 110.466 181.959 109.274C184.945 108.081 185.843 106.585 186.136 103.886C186.439 101.198 189.717 97.0031 197.788 95.8105C199.73 101.051 199.427 103.74 197.339 107.035C195.947 109.232 195.55 111.526 196.149 113.918C197.047 117.506 195.251 120.205 193.163 122.297C191.074 124.389 190.772 125.592 191.367 128.281C191.962 130.969 192.557 134.264 189.571 136.357C186.585 138.449 185.687 140.844 185.99 144.432C186.292 148.02 186.345 148.617 186.345 148.617C186.345 148.617 184.789 152.508 182.105 153.711L169.409 152.958L169.43 152.947Z" fill="url(#paint3_linear_1692_91694)"/>
<path d="M175.256 152.498C175.392 152.498 175.517 152.403 175.548 152.257C175.611 151.954 182.241 121.837 193.434 100.873C193.507 100.727 193.455 100.549 193.309 100.465C193.163 100.392 192.985 100.445 192.902 100.591C181.667 121.628 175.016 151.828 174.953 152.131C174.922 152.288 175.016 152.456 175.183 152.487C175.204 152.487 175.225 152.487 175.246 152.487L175.256 152.498Z" fill="#15A3A5"/>
<path d="M189.425 153.303L179.203 151.65C179.203 151.65 179.266 150.071 180.675 148.104C182.085 146.137 182.314 146.451 182.387 144.265C182.461 142.079 182.722 140.478 185.29 138.145C187.859 135.813 188.527 136.744 189.362 134.965C190.197 133.176 190.187 131.534 193.601 130.708C197.016 129.881 197.204 130.467 199.72 128.406C202.247 126.346 203.218 125.404 210.683 126.607C210.527 130.969 208.553 134.767 204.471 136.304C200.388 137.842 199.95 138.867 199.344 140.959C198.728 143.051 197.757 143.993 195.679 145.029C193.601 146.064 193.695 147.173 192.682 150.029C191.68 152.885 189.425 153.293 189.425 153.293V153.303Z" fill="url(#paint4_linear_1692_91694)"/>
<path d="M184.204 151.692C184.33 151.713 184.444 151.65 184.497 151.525C184.538 151.42 189.143 140.666 205.703 129.85C205.828 129.766 205.859 129.599 205.786 129.473C205.703 129.348 205.536 129.316 205.41 129.389C188.704 140.311 184.048 151.2 184.006 151.315C183.954 151.451 184.006 151.608 184.152 151.671C184.173 151.671 184.194 151.681 184.215 151.692H184.204Z" fill="#15A3A5"/>
<path d="M86.0983 23.4532C82.3916 18.0345 78.7372 6.1196 83.0912 2.84537C87.4348 -0.428863 125.723 -1.726 130.348 3.61947C134.974 8.9754 142.126 23.5682 137.187 26.2985C132.248 29.0288 89.8049 28.8719 86.0983 23.4532Z" fill="#EDBD1D"/>
<path d="M102.147 154.579H79.7397C91.2982 135.677 100.163 103.468 102.731 87.191C103.233 84.0004 103.671 81.2492 104.11 78.8433L123.551 82.4418C123.154 84.5967 122.737 87.2328 122.256 90.2874C119.615 107.035 115.762 132.319 102.147 154.579Z" fill="#FD7B53"/>
<path d="M116.19 92.7979C116.19 92.7979 104.433 90.8835 103.055 87.6512C101.677 84.4188 117.683 87.9022 117.683 87.9022L116.201 92.7979H116.19Z" fill="#412016"/>
<path d="M111.794 153.92C112.389 147.246 113.058 139.798 113.475 135.844L168.156 129.453C168.156 129.453 169.43 143.826 170.349 154.705C150.834 154.517 131.319 154.004 111.794 153.92Z" fill="#329A9A"/>
<path d="M164.878 154.652L163.04 137.863C163.029 137.727 163.123 137.612 163.249 137.591C163.405 137.591 163.499 137.675 163.51 137.8L165.358 154.652C165.201 154.652 165.034 154.652 164.878 154.652Z" fill="#412016"/>
<path d="M164.449 149.809C164.585 149.809 164.69 149.694 164.679 149.558C164.679 149.422 164.564 149.328 164.429 149.328C164.136 149.328 152.933 149.548 147.65 135.352C147.597 135.227 147.462 135.164 147.336 135.206C147.211 135.248 147.148 135.394 147.19 135.52C152.588 150.029 164.105 149.82 164.439 149.809H164.449Z" fill="#412016"/>
<path d="M134.233 154.171L134.525 132.382L129.628 132.612L129.889 154.109C129.732 154.109 129.565 154.109 129.409 154.109L129.148 132.392C129.148 132.267 129.252 132.151 129.377 132.151L134.765 131.9C134.828 131.9 134.89 131.921 134.943 131.963C134.995 132.005 135.016 132.068 135.016 132.141L134.723 154.192C134.567 154.192 134.4 154.192 134.243 154.192L134.233 154.171Z" fill="#412016"/>
<path d="M112.41 147.895C112.41 147.895 112.442 147.895 112.452 147.895C112.546 147.874 121.442 145.834 120.941 135.133C120.941 134.997 120.826 134.903 120.69 134.903C120.554 134.903 120.45 135.018 120.46 135.154C120.941 145.447 112.703 147.351 112.348 147.424C112.222 147.456 112.139 147.581 112.16 147.707C112.181 147.822 112.285 147.906 112.4 147.895H112.41Z" fill="#412016"/>
<path d="M169.503 144.087L168.605 135.813L129.388 134.955C129.388 134.955 151.471 141.273 169.503 144.098V144.087Z" fill="#412016"/>
<path d="M145.478 53.0993C145.478 53.0993 160.816 54.6998 165.629 57.7335C169.2 59.9825 170.223 74.6381 167.958 84.6387C167.06 88.6033 166.83 99.4825 167.342 103.52L170.672 140.541L143.922 136.849C139.881 136.294 135.778 136.315 131.737 136.922L112.233 139.84C112.233 139.84 114.979 93.7919 114.707 90.8001C114.707 90.8001 105.373 92.0135 99.2856 86.0195C99.2856 86.0195 101.395 80.015 104.12 74.0105C106.835 68.0164 110.729 60.7043 118.623 57.723C126.516 54.7417 137.511 53.4341 137.511 53.4341L145.478 53.0889V53.0993Z" fill="#CCA6F7"/>
<path d="M133.439 38.5584C133.439 38.5584 131.152 35.8177 129.001 36.414C126.851 36.9998 126.224 41.4979 128.406 42.544C130.589 43.5901 133.418 42.0419 133.418 42.0419L133.439 38.5584Z" fill="#F45B34"/>
<path d="M129.127 41.5922C129.127 41.5922 129.189 41.5713 129.21 41.5399C129.231 41.498 129.21 41.4353 129.168 41.4143C129.116 41.383 127.884 40.7135 128.396 39.228C128.605 38.6004 128.876 38.2343 129.252 38.0669C129.722 37.8577 130.38 37.9518 131.466 38.3912C131.507 38.4121 131.57 38.3912 131.591 38.3389C131.612 38.2866 131.591 38.2343 131.539 38.2133C130.39 37.7426 129.711 37.6485 129.179 37.889C128.761 38.0773 128.458 38.4853 128.229 39.1548C127.665 40.7972 129.074 41.5608 129.095 41.5713C129.106 41.5713 129.127 41.5713 129.137 41.5817L129.127 41.5922Z" fill="#412016"/>
<path d="M131.017 25.9321C129.826 27.5326 129.993 31.1521 130.641 34.374C131.278 37.5959 131.852 28.2544 131.852 28.2544L134.138 25.6602L131.017 25.9321Z" fill="#412016"/>
<path d="M134.368 47.4086L133.783 53.2144C133.783 53.2144 138.524 56.1538 147.367 53.5491L148.057 41.833L140.528 46.8542L134.368 47.4086Z" fill="#FD7B53"/>
<path d="M134.159 49.4691L134.368 47.4083L140.529 46.8539L143.045 45.1802H144.601C141.541 49.6574 135.653 49.5633 134.17 49.4691H134.159Z" fill="#412016"/>
<path d="M130.964 27.5328C130.296 29.2379 130.964 31.8426 130.359 35.3889C129.764 38.9351 128.062 46.3936 134.88 48.0778C141.708 49.762 147.775 44.1655 147.775 44.1655L150.928 32.9933C152.39 27.8048 149.184 23.5158 143.964 22.2292C143.838 22.1978 143.724 22.1664 143.598 22.1455C133.345 19.9905 130.964 27.5223 130.964 27.5223V27.5328Z" fill="#FD7B53"/>
<path d="M151.043 37.6799L153.141 29.2485L147.43 27.376C147.43 27.376 147.587 30.3782 147.472 33.9767C147.357 37.5857 146.699 39.0398 146.699 39.0398L151.043 37.6799Z" fill="#412016"/>
<path d="M147.608 38.9876C147.608 38.9876 150.061 36.3933 152.17 37.1151C154.28 37.8369 154.635 42.356 152.39 43.2765C150.155 44.1971 147.42 42.4711 147.42 42.4711L147.608 38.9876Z" fill="#FD7B53"/>
<path d="M136.122 39.8035C136.122 39.8035 136.206 39.7826 136.227 39.7512C136.269 39.6989 136.258 39.6152 136.196 39.5839C135.715 39.2387 135.245 38.4122 135.266 37.5022C135.277 36.9896 135.538 36.6862 135.924 36.2364C136.185 35.9226 136.519 35.5355 136.864 34.9706C136.895 34.9079 136.885 34.8347 136.822 34.8033C136.759 34.7719 136.686 34.7823 136.655 34.8451C136.321 35.3891 135.997 35.7761 135.736 36.0795C135.329 36.5607 135.037 36.9059 135.016 37.5022C134.984 38.5482 135.527 39.4165 136.049 39.7931C136.07 39.8035 136.091 39.814 136.112 39.814L136.122 39.8035Z" fill="#412016"/>
<path d="M140.8 36.3934C140.821 35.8076 141.03 35.3369 141.259 35.3473C141.5 35.3473 141.677 35.839 141.656 36.4248C141.635 37.0106 141.426 37.4813 141.197 37.4709C140.957 37.4709 140.779 36.9792 140.8 36.3934Z" fill="#412016"/>
<path d="M132.739 35.8387C132.76 35.2529 132.969 34.7822 133.199 34.7927C133.439 34.7927 133.617 35.2843 133.596 35.8701C133.575 36.4559 133.366 36.9267 133.136 36.9162C132.896 36.9162 132.719 36.4245 132.739 35.8387Z" fill="#412016"/>
<path d="M151.722 42.2824C151.722 42.2824 151.753 42.2824 151.763 42.2824C151.774 42.2824 153.236 41.592 152.776 39.9288C152.588 39.2383 152.306 38.8199 151.899 38.6002C151.387 38.3283 150.698 38.3806 149.529 38.7781C149.477 38.799 149.456 38.8513 149.466 38.8931C149.487 38.9454 149.539 38.9664 149.581 38.9559C150.688 38.5793 151.356 38.5166 151.805 38.7676C152.16 38.9559 152.411 39.343 152.588 39.9811C153.006 41.4979 151.732 42.0941 151.68 42.1151C151.638 42.136 151.617 42.1883 151.638 42.2406C151.648 42.272 151.69 42.2929 151.722 42.2929V42.2824Z" fill="#412016"/>
<path d="M139.714 33.3071C139.735 33.5163 139.933 33.6418 140.121 33.736C141.082 34.1962 142.126 34.4682 143.181 34.5414C143.369 34.5519 143.567 34.5624 143.734 34.4891C144.037 34.3741 144.225 34.0289 144.173 33.7046C144.12 33.4431 143.932 33.2234 143.703 33.0874C143.473 32.9514 143.212 32.8782 142.961 32.8154C142.001 32.5748 140.946 32.3656 140.069 32.8259C139.881 32.92 139.693 33.0874 139.704 33.2966L139.714 33.3071Z" fill="#412016"/>
<path d="M131.862 33.3489C132.468 33.4431 133.293 33.213 133.742 33.2653C134.139 33.3071 134.922 33.5686 135.026 32.9933C135.016 32.6062 134.713 32.2819 134.368 32.1355C134.097 32.01 133.805 31.9681 133.502 31.9367C132.833 31.853 131.789 31.6857 131.278 32.2506C131.152 32.3865 131.079 32.5853 131.132 32.7631C131.226 33.1397 131.507 33.2966 131.862 33.3594V33.3489Z" fill="#412016"/>
<path d="M141.614 38.2552C141.677 38.2552 141.729 38.2552 141.792 38.2552C141.844 38.2552 141.886 38.2134 141.875 38.1611C141.875 38.1088 141.834 38.0669 141.781 38.0774C140.946 38.1088 140.549 37.7008 140.539 37.7008C140.508 37.659 140.445 37.659 140.414 37.7008C140.372 37.7322 140.372 37.795 140.414 37.8263C140.435 37.8473 140.81 38.2448 141.614 38.2657V38.2552Z" fill="#412016"/>
<path d="M132.719 37.3344C133.481 37.3553 133.846 37.0834 133.857 37.0729C133.898 37.0415 133.909 36.9892 133.878 36.9474C133.846 36.9055 133.794 36.8951 133.752 36.9265C133.752 36.9265 133.418 37.1775 132.729 37.1566C132.677 37.1566 132.635 37.1984 132.635 37.2507C132.635 37.303 132.677 37.3449 132.729 37.3449L132.719 37.3344Z" fill="#412016"/>
<path d="M143.849 46.7597C143.849 46.7597 143.88 46.7597 143.901 46.7492C143.995 46.6969 146.094 45.5253 147.023 44.5734C147.054 44.542 147.054 44.4792 147.023 44.4479C146.992 44.4165 146.929 44.4165 146.898 44.4479C145.989 45.3789 143.849 46.5819 143.828 46.5923C143.786 46.6132 143.765 46.676 143.797 46.7178C143.817 46.7492 143.838 46.7597 143.87 46.7701L143.849 46.7597Z" fill="#412016"/>
<path d="M135.934 47.22C135.934 47.22 135.987 47.22 135.997 47.1886C136.028 47.1572 136.039 47.0945 135.997 47.0631C135.955 47.0213 135.068 46.1007 135.694 45.3266C135.726 45.2848 135.715 45.2325 135.684 45.2011C135.642 45.1697 135.59 45.1802 135.559 45.2115C134.838 46.1007 135.861 47.1782 135.872 47.1886C135.893 47.2096 135.914 47.22 135.934 47.22Z" fill="#412016"/>
<path d="M137.146 41.6129C138.409 40.7969 139.161 39.573 140.717 40.5773C142.283 41.5815 139.568 44.2281 137.522 44.0189C135.475 43.8097 134.598 42.9205 134.807 42.1255C135.016 41.3304 136.634 41.9267 137.135 41.6129H137.146Z" fill="white"/>
<path d="M152.515 31.2569C154.948 28.7359 156.002 27.5433 154.342 25.6395C152.682 23.7356 153.058 22.8674 149.999 21.8631C146.939 20.8589 147.42 16.2038 143.525 16.026C139.631 15.8482 138.994 20.9949 136.227 20.1685C133.46 19.3421 131.497 17.0825 129.45 19.2165C127.404 21.361 126.84 25.4093 128.939 26.7483C131.037 28.0873 130.432 28.9032 130.432 28.9032C130.432 28.9032 133.188 25.5139 135.496 26.4868C137.814 27.4492 137.396 28.6836 141.781 28.3593C146.167 28.035 146.741 24.4783 147.722 31.78L152.505 31.2674L152.515 31.2569Z" fill="#412016"/>
<path d="M140.205 29.6562C141.625 29.6144 142.993 28.8402 144.402 28.0348C144.893 27.7523 145.405 27.4699 145.927 27.2084L145.791 26.9468C145.258 27.2188 144.757 27.5013 144.256 27.7837C142.262 28.9135 140.539 29.8968 138.607 29.0599C137.616 28.6415 136.989 28.1603 136.488 27.7837C135.726 27.2084 135.172 26.7899 134.055 27.0828C133.397 27.2502 132.917 27.5954 132.468 27.9197C131.716 28.4637 131.058 28.9239 129.732 28.38C128.887 28.0348 128.218 27.2607 127.853 26.2146C127.352 24.7919 127.467 23.1077 128.166 21.8211L127.916 21.6851C127.174 23.045 127.049 24.8128 127.582 26.3192C127.978 27.449 128.709 28.2754 129.628 28.652C131.1 29.2587 131.852 28.7252 132.645 28.1603C133.084 27.8465 133.533 27.5326 134.139 27.3757C135.12 27.1247 135.569 27.4699 136.321 28.0348C136.843 28.4218 137.48 28.9135 138.503 29.3528C139.088 29.6039 139.652 29.698 140.205 29.6771V29.6562Z" fill="#412016"/>
<path d="M147.629 27.2507L147.89 27.1356C146.772 24.625 145.937 23.558 143.922 23.7881C143.181 23.8823 142.627 24.3112 142.095 24.7296C141.176 25.4514 140.393 26.0581 138.743 25.012C137.845 24.4367 137.198 23.8404 136.613 23.3069C135.444 22.2399 134.525 21.3821 132.478 21.696C131.528 21.8424 130.829 21.696 130.422 21.2985C129.91 20.7859 130.014 20.0118 130.014 20.0013L129.732 19.9595C129.732 19.9595 129.607 20.8905 130.223 21.4972C130.703 21.9784 131.476 22.1353 132.531 21.9784C134.431 21.7064 135.266 22.4596 136.425 23.5266C137.01 24.0706 137.678 24.6773 138.597 25.2631C140.424 26.4243 141.374 25.6815 142.283 24.9702C142.784 24.5831 143.296 24.1752 143.964 24.0915C144.1 24.0706 144.235 24.0601 144.361 24.0601C145.895 24.0078 146.595 24.9284 147.639 27.2611L147.629 27.2507Z" fill="white"/>
<path d="M147.368 53.5491C147.368 53.5491 140.236 59.9302 135.746 57.8903C131.257 55.8505 131.194 54.386 131.194 54.386L133.784 53.2144L147.368 53.5491Z" fill="#FD7B53"/>
<path d="M114.707 90.9043C114.759 90.9043 114.801 90.8624 114.801 90.8101C115.01 85.8517 113.945 80.7678 113.935 80.7155C113.924 80.6631 113.872 80.6213 113.82 80.6422C113.768 80.6527 113.726 80.705 113.747 80.7573C113.757 80.8096 114.812 85.8622 114.603 90.7997C114.603 90.852 114.645 90.9043 114.697 90.9043H114.707Z" fill="#412016"/>
<path d="M114.53 85.0047C114.53 85.0047 114.572 85.0047 114.582 84.9838C114.624 84.9524 114.634 84.8896 114.603 84.8478L112.609 82.0861C112.609 82.0861 112.515 82.0338 112.473 82.0652C112.431 82.0966 112.421 82.1594 112.452 82.2012L114.446 84.9629C114.446 84.9629 114.499 85.0047 114.53 85.0047Z" fill="#412016"/>
<path d="M137.605 60.1599C141.27 60.0448 144.935 58.005 144.976 57.9736C145.029 57.9422 145.039 57.8794 145.018 57.8376C144.987 57.7853 144.924 57.7748 144.882 57.7957C144.83 57.8271 139.244 60.934 135.036 59.6473C134.984 59.6264 134.932 59.6578 134.911 59.7101C134.89 59.7624 134.922 59.8251 134.974 59.8356C135.819 60.0971 136.707 60.1808 137.605 60.1494V60.1599Z" fill="#412016"/>
<path d="M113.371 66.8026C113.434 66.8026 113.465 66.7399 113.465 66.6876C113.287 65.3276 112.034 63.11 111.972 63.0158C111.94 62.9635 111.878 62.953 111.836 62.974C111.784 63.0054 111.773 63.0681 111.794 63.11C111.805 63.1309 113.079 65.3904 113.256 66.7085C113.256 66.7608 113.308 66.8026 113.36 66.7922L113.371 66.8026Z" fill="#412016"/>
<path d="M147.89 129.672C147.89 129.672 147.942 129.662 147.973 129.641C148.036 129.588 148.057 129.505 148.005 129.442C145.269 125.718 140.309 113.155 140.268 113.029C140.236 112.956 140.153 112.924 140.08 112.945C140.007 112.977 139.965 113.06 139.996 113.134C140.048 113.259 145.018 125.854 147.775 129.609C147.806 129.651 147.848 129.672 147.9 129.672H147.89Z" fill="#412016"/>
<path d="M185.457 155.521C185.666 154.621 191.2 131.827 189.728 116.806C188.287 102.181 177.532 74.1359 177.104 72.8911L160.095 78.7387C162.81 86.668 170.098 109.535 171.111 119.933C172.092 129.965 168.448 148.91 167.227 154.287L185.447 155.511L185.457 155.521Z" fill="#FD7B53"/>
<path d="M146.553 133.344C146.553 133.344 146.626 133.333 146.647 133.302C146.699 133.239 146.699 133.156 146.647 133.093C144.34 130.802 140.936 118.113 140.904 117.987C140.884 117.904 140.811 117.872 140.727 117.883C140.654 117.904 140.602 117.987 140.623 118.061C140.758 118.584 144.079 130.959 146.449 133.302C146.48 133.333 146.511 133.344 146.553 133.344Z" fill="#412016"/>
<path d="M182.868 89.3248L181.719 85.8623L169.868 90.3709C169.868 90.3709 172.562 91.4379 182.868 89.3248Z" fill="#412016"/>
<path d="M165.796 57.7334C179.161 64.0726 186.24 86.0299 186.24 86.0299C186.24 86.0299 181.03 88.4463 173.533 90.0573C166.037 91.6682 162.34 91.4904 162.34 91.4904C162.34 91.4904 157.141 85.9253 157.12 85.2453C157.099 84.5549 159.438 64.3342 159.438 64.3342L165.796 57.7439V57.7334Z" fill="#CCA6F7"/>
<path d="M161.515 90.5802C161.515 90.5802 161.536 90.5802 161.557 90.5802C161.609 90.5593 161.63 90.4965 161.609 90.4547C158.32 82.9543 157.015 81.5734 156.963 81.5211C156.932 81.4793 156.859 81.4793 156.827 81.5211C156.785 81.563 156.785 81.6257 156.827 81.6676C156.838 81.678 158.164 83.1007 161.432 90.5383C161.453 90.5802 161.484 90.6011 161.526 90.6011L161.515 90.5802Z" fill="#412016"/>
<path d="M159.928 87.3164C159.928 87.3164 160.012 87.285 160.022 87.2432C160.033 87.1909 160.001 87.1386 159.949 87.1177C158.498 86.7202 156.159 84.084 156.128 84.0631C156.086 84.0213 156.034 84.0213 155.992 84.0631C155.95 84.0945 155.95 84.1573 155.992 84.1991C156.086 84.3142 158.393 86.898 159.907 87.3164C159.907 87.3164 159.928 87.3164 159.939 87.3164H159.928Z" fill="#412016"/>
<path d="M183.86 121.304C184.528 118.05 186.721 115.351 189.227 113.134C189.446 114.431 189.623 115.665 189.728 116.816C190.187 121.534 189.957 127.026 189.425 132.361C188.809 132.214 188.245 131.88 187.733 131.492C184.664 129.202 183.087 125.07 183.849 121.304H183.86Z" fill="#F45B34"/>
<path d="M119.239 93.1955C119.563 96.4907 119.082 99.8172 118.56 103.091C130.474 103.28 142.398 103.029 154.29 102.317C153.006 94.6496 152.755 86.8144 153.528 79.0839C141.479 78.8328 129.43 79.0839 117.401 79.8685C116.879 84.3457 118.801 88.7183 119.239 93.1955Z" fill="#9A5FDE"/>
<path d="M141.886 94.7437C141.604 94.7437 141.322 94.7018 141.03 94.6286C139.84 94.2939 139.056 93.321 138.294 92.3691C137.73 91.6682 137.156 90.9464 136.415 90.4966C135.465 89.9213 134.233 89.8376 133.209 90.2874C132.823 90.4548 132.479 90.6849 132.113 90.936C131.664 91.2393 131.194 91.5532 130.662 91.731C129.68 92.0657 128.49 91.9297 127.331 91.3439C126.475 90.915 125.723 90.3188 125.003 89.7434L124.627 89.4401C123.562 88.6032 122.434 87.8082 121.275 87.0864C120.774 86.7726 120.283 86.4901 119.74 86.4274C118.31 86.26 117.193 87.6722 116.378 88.917L116.013 88.6764C116.89 87.327 118.122 85.7997 119.782 85.988C120.408 86.0612 120.972 86.3855 121.494 86.7098C122.664 87.4316 123.802 88.2371 124.877 89.0844L125.253 89.3878C125.963 89.9526 126.694 90.5385 127.508 90.9464C128.125 91.2498 129.325 91.7101 130.505 91.3126C130.985 91.1452 131.403 90.8627 131.852 90.5698C132.217 90.3188 132.604 90.0677 133.021 89.8794C134.17 89.3773 135.548 89.461 136.624 90.1096C137.428 90.5908 138.033 91.3544 138.618 92.0762C139.359 93.0072 140.069 93.8859 141.124 94.1893C142.92 94.6914 144.643 93.2269 146.104 91.731C147.566 90.2246 148.809 89.7225 149.884 90.1932C150.218 90.3397 150.49 90.5698 150.751 90.8C151.91 91.8356 152.954 93.0072 153.841 94.2939L153.486 94.5449C152.62 93.2896 151.596 92.1494 150.458 91.1347C150.229 90.936 149.988 90.7267 149.717 90.6012C148.819 90.2142 147.744 90.6744 146.428 92.0343C145.112 93.3943 143.557 94.7228 141.876 94.7228L141.886 94.7437Z" fill="#F8ECE9"/>
<path d="M140.028 86.6155C139.579 86.6155 139.098 86.5841 138.67 86.3539C137.96 85.9669 137.689 85.1928 137.584 84.7639C137.407 84.0107 137.511 83.3098 137.866 82.7868C138.336 82.0859 139.224 81.7407 140.497 81.7407H140.623C140.978 81.7407 141.354 81.7721 141.698 81.9186C142.836 82.3788 143.191 83.8224 142.878 84.9522C142.721 85.5066 142.471 85.9146 142.116 86.1761C141.562 86.5945 140.821 86.605 140.278 86.6155H140.017H140.028ZM140.497 82.1801C139.38 82.1801 138.618 82.473 138.221 83.0379C137.939 83.4458 137.866 84.0421 138.002 84.6698C138.138 85.2765 138.461 85.7472 138.869 85.9669C139.213 86.1552 139.62 86.1761 140.017 86.1761H140.268C140.894 86.1656 141.448 86.1343 141.855 85.8204C142.126 85.6112 142.335 85.2765 142.46 84.8267C142.721 83.9061 142.44 82.6822 141.542 82.3161C141.26 82.201 140.926 82.1801 140.623 82.1801H140.508H140.497Z" fill="#F8ECE9"/>
<path d="M128.605 85.078H128.553C128.156 85.078 127.738 85.078 127.341 84.9525C127.018 84.8584 126.736 84.7015 126.454 84.5445C126.329 84.4818 126.214 84.4086 126.088 84.3458C125.451 84.032 124.752 83.8751 124.209 83.7809C121.766 83.3311 119.218 83.4462 116.827 84.1052L116.712 83.6868C119.166 83.0068 121.787 82.9022 124.292 83.352C124.867 83.4566 125.608 83.624 126.287 83.9587C126.412 84.0215 126.548 84.0947 126.673 84.168C126.945 84.3144 127.195 84.4609 127.467 84.5445C127.811 84.6492 128.187 84.6492 128.563 84.6492C128.824 84.6492 129.116 84.6387 129.242 84.4713C129.263 84.4399 129.346 84.3458 129.283 84.168C129.2 83.9378 128.939 83.7181 128.688 83.6658C128.459 83.624 128.218 83.6345 127.968 83.6449C127.675 83.6658 127.362 83.6763 127.059 83.6031C126.663 83.5089 126.297 83.1533 126.193 82.7557C126.12 82.4733 126.193 82.2118 126.391 82.034C126.59 81.8561 126.84 81.8143 127.059 81.7829C127.143 81.7724 127.226 81.762 127.3 81.741C127.404 81.7097 127.529 81.6051 127.561 81.5214C127.561 81.49 127.561 81.4795 127.561 81.4691C127.54 81.4377 127.467 81.4168 127.425 81.3958C126.308 80.9879 125.055 80.967 123.927 81.3435C123.729 81.4063 123.541 81.49 123.342 81.5632C123.05 81.6783 122.747 81.8038 122.424 81.8875C121.787 82.0444 121.129 82.0549 120.492 81.8875C120.325 81.8457 120.147 81.7829 120.022 81.6155C119.803 81.3331 119.928 80.946 120.168 80.7054C120.262 80.6113 120.356 80.5381 120.461 80.4753C120.555 80.4125 120.638 80.3498 120.711 80.2765C121.045 79.9209 120.93 79.3037 120.628 78.9376C120.283 78.5087 119.719 78.2681 119.228 78.0484L119.406 77.6509C119.918 77.8706 120.555 78.153 120.972 78.6656C121.4 79.1886 121.536 80.0569 121.024 80.5799C120.93 80.6845 120.816 80.7577 120.711 80.831C120.628 80.8833 120.544 80.946 120.481 81.0193C120.387 81.1134 120.314 81.2808 120.377 81.354C120.419 81.4063 120.523 81.4377 120.607 81.4586C121.171 81.6051 121.766 81.5946 122.319 81.4586C122.611 81.3854 122.893 81.2703 123.186 81.1552C123.384 81.0716 123.582 80.9983 123.791 80.9251C125.023 80.5171 126.36 80.5381 127.581 80.9879C127.686 81.0297 127.811 81.082 127.895 81.1866C127.999 81.3122 128.03 81.4795 127.978 81.6469C127.905 81.877 127.675 82.0967 127.414 82.1595C127.32 82.1804 127.226 82.2013 127.122 82.2118C126.945 82.2432 126.788 82.2641 126.684 82.3582C126.652 82.3896 126.569 82.4628 126.61 82.6511C126.673 82.8813 126.913 83.1219 127.153 83.1846C127.394 83.2474 127.655 83.2265 127.936 83.216C128.208 83.2056 128.479 83.1846 128.761 83.2369C129.169 83.3102 129.555 83.6449 129.691 84.011C129.785 84.283 129.743 84.5341 129.576 84.7433C129.315 85.0571 128.876 85.078 128.605 85.078Z" fill="#F8ECE9"/>
<path d="M133.669 81.2492C133.669 81.2492 133.585 81.2492 133.543 81.2492C132.781 81.2073 132.029 81.0504 131.319 80.768C130.912 80.6111 130.422 80.2345 130.296 79.7847C130.223 79.5441 130.265 79.3244 130.411 79.1256C130.589 78.885 130.87 78.7909 131.121 78.7072C131.393 78.613 131.56 78.5503 131.601 78.4038L132.019 78.5294C131.904 78.9059 131.549 79.021 131.257 79.1256C131.048 79.1989 130.85 79.2616 130.756 79.3871C130.693 79.4708 130.683 79.5545 130.714 79.6591C130.787 79.9102 131.111 80.2135 131.476 80.3495C132.144 80.6111 132.844 80.768 133.564 80.7994C133.919 80.8098 134.139 80.747 134.233 80.6111C134.264 80.5588 134.285 80.4751 134.306 80.3914C134.316 80.3286 134.337 80.2659 134.358 80.2031C134.619 79.429 135.527 79.2512 136.3 79.1884C139.589 78.9059 142.815 78.1632 145.895 76.9707L146.052 77.3787C142.93 78.5817 139.662 79.3348 136.342 79.6173C135.705 79.6696 134.953 79.8056 134.775 80.3286C134.755 80.3705 134.744 80.4228 134.734 80.4751C134.713 80.5901 134.682 80.7052 134.608 80.8307C134.441 81.1027 134.128 81.2387 133.669 81.2387V81.2492Z" fill="#F8ECE9"/>
<path d="M147.806 85.1931C147.149 85.1931 146.574 85.0153 146.167 84.6701C145.885 84.4295 145.76 84.1366 145.843 83.8751C145.896 83.7077 146.01 83.5926 146.104 83.5089C146.512 83.1742 147.002 83.0173 147.483 82.8604C147.587 82.829 147.702 82.7976 147.806 82.7558C148.485 82.5256 148.903 82.2223 149.07 81.8352C149.122 81.7306 149.153 81.5841 149.091 81.49C149.038 81.4063 148.903 81.3645 148.756 81.3226L148.694 81.3017C148.297 81.1762 147.932 80.8833 147.775 80.559C147.66 80.3288 147.65 80.0882 147.733 79.8686L147.775 79.764L147.879 79.7326C150.354 78.9794 153.016 78.697 155.585 78.9271L155.543 79.3665C153.069 79.1572 150.5 79.4188 148.12 80.1196C148.12 80.2033 148.12 80.2765 148.172 80.3602C148.276 80.5799 148.548 80.7891 148.83 80.8728L148.892 80.8937C149.08 80.946 149.32 81.0193 149.456 81.2285C149.592 81.4272 149.602 81.7097 149.477 81.9921C149.258 82.5047 148.756 82.8813 147.952 83.1533C147.848 83.1951 147.733 83.2265 147.629 83.2579C147.169 83.4043 146.731 83.5403 146.397 83.8228C146.355 83.8646 146.282 83.9169 146.271 83.9797C146.24 84.0738 146.345 84.2203 146.459 84.3144C147.044 84.7956 147.879 84.7642 148.328 84.7015C148.694 84.6492 149.07 84.555 149.435 84.4609C149.759 84.3772 150.083 84.2935 150.427 84.2307C150.97 84.1366 151.503 84.1157 152.025 84.1784C152.421 84.2203 152.829 84.3144 153.215 84.4086C154.019 84.5969 154.781 84.7747 155.512 84.555L155.637 84.9734C154.791 85.2245 153.935 85.0257 153.11 84.8375C152.735 84.7538 152.348 84.6596 151.972 84.6178C151.492 84.5655 151.001 84.5759 150.5 84.6596C150.187 84.7119 149.863 84.7956 149.55 84.8793C149.174 84.9734 148.788 85.0781 148.401 85.1304C148.203 85.1617 148.015 85.1722 147.827 85.1722L147.806 85.1931Z" fill="#F8ECE9"/>
<path d="M141.834 90.7684C140.842 90.7684 140.028 90.4023 139.599 89.7642C139.453 89.5445 139.506 89.3876 139.558 89.3144C139.631 89.1993 139.735 89.1679 139.798 89.147L140.957 88.7809C141.677 88.5507 142.419 88.3101 143.202 88.3101C143.317 88.3101 143.421 88.3101 143.525 88.3101C143.797 88.3206 144.058 88.3206 144.235 88.2787C144.34 88.2578 144.434 88.216 144.538 88.1846C144.862 88.0695 145.227 87.9649 145.53 88.1114C145.885 88.2892 146.01 88.6658 146.104 89.011C146.136 89.147 146.188 89.3248 146.125 89.5131C146 89.942 145.499 90.0048 145.227 90.0466C144.757 90.1094 144.288 90.2454 143.839 90.3814C143.379 90.5174 142.909 90.6534 142.419 90.7266C142.22 90.758 142.032 90.7684 141.834 90.7684ZM139.996 89.555C140.372 90.0675 141.03 90.3395 141.834 90.3395C142.011 90.3395 142.178 90.3291 142.356 90.2977C142.815 90.2349 143.275 90.0989 143.724 89.9734C144.194 89.8374 144.674 89.7014 145.175 89.6282C145.426 89.5968 145.666 89.5445 145.708 89.4085C145.728 89.3457 145.708 89.2411 145.676 89.147C145.614 88.8959 145.53 88.6239 145.342 88.5298C145.175 88.4461 144.945 88.5298 144.695 88.6135C144.58 88.6553 144.465 88.6972 144.35 88.7286C144.121 88.7809 143.818 88.7913 143.515 88.7704C143.421 88.7704 143.327 88.7704 143.223 88.7704C142.492 88.7704 141.782 89.0005 141.093 89.2202L139.996 89.5654V89.555Z" fill="#F8ECE9"/>
<path d="M156.9 98.3943C154.259 97.4215 151.262 96.3231 148.276 96.5114C147.127 96.5846 145.968 96.8461 144.862 97.0972C144.131 97.2646 143.379 97.4319 142.627 97.5575C140.226 97.9341 138.305 97.6307 136.916 96.6265C136.613 96.4068 136.342 96.1662 136.07 95.9151C135.527 95.4235 135.005 94.9632 134.347 94.7853C133.575 94.5866 132.781 94.8377 131.946 95.0992C131.236 95.3293 130.505 95.5594 129.743 95.5071C129.054 95.4653 128.417 95.1829 127.801 94.9109C127.55 94.7958 127.289 94.6912 127.028 94.5866C124.397 93.6242 121.473 94.4715 118.466 95.4967L118.32 95.0782C121.4 94.0217 124.397 93.1535 127.174 94.1682C127.446 94.2623 127.707 94.3774 127.968 94.5029C128.573 94.7644 129.148 95.0155 129.764 95.0573C130.432 95.0992 131.131 94.8795 131.8 94.6598C132.656 94.3878 133.543 94.0949 134.452 94.3355C135.214 94.5343 135.788 95.0573 136.352 95.5594C136.613 95.7896 136.885 96.0302 137.156 96.2394C138.451 97.1704 140.268 97.4529 142.544 97.0972C143.285 96.9821 144.026 96.8147 144.747 96.6474C145.874 96.3858 147.044 96.1243 148.234 96.0511C151.325 95.8628 154.363 96.9717 157.036 97.955L156.89 98.3629L156.9 98.3943Z" fill="#F8ECE9"/>
<path d="M154.436 103.426C150.27 101.857 145.969 100.236 141.437 100.204C141.113 100.204 140.8 100.204 140.476 100.204C139.568 100.225 138.628 100.236 137.71 100.068C136.248 99.7962 135.099 99.0325 134.567 97.9864C134.535 97.9341 134.515 97.8714 134.483 97.8086C134.431 97.704 134.379 97.5889 134.316 97.4843C133.888 96.8358 132.938 96.7834 132.249 96.9299C131.915 97.0031 131.581 97.1182 131.267 97.2333C130.797 97.4006 130.296 97.568 129.785 97.6203C129.002 97.704 128.239 97.5157 127.508 97.3379C127.31 97.296 127.122 97.2437 126.924 97.2019C122.998 96.365 118.686 97.704 115.919 100.612L115.605 100.309C118.466 97.2856 122.946 95.8943 127.018 96.773C127.216 96.8148 127.414 96.8671 127.613 96.909C128.344 97.0868 129.043 97.2542 129.743 97.181C130.213 97.1287 130.662 96.9822 131.132 96.8148C131.466 96.6998 131.81 96.5847 132.165 96.501C132.99 96.3232 134.149 96.4069 134.692 97.2437C134.776 97.3692 134.828 97.4948 134.89 97.6203C134.911 97.6726 134.943 97.7249 134.963 97.7772C135.433 98.6978 136.457 99.3777 137.793 99.6288C138.67 99.7962 139.589 99.7752 140.476 99.7648C140.8 99.7648 141.124 99.7543 141.448 99.7648C146.052 99.7962 150.594 101.501 154.593 103.018L154.436 103.426Z" fill="#F8ECE9"/>
<path d="M119.677 53.8628C123.447 48.3604 127.143 36.2782 122.726 32.9621C118.32 29.646 79.4786 28.3175 74.7904 33.7467C70.1023 39.1758 62.8457 53.9779 67.8575 56.75C72.8693 59.5221 115.908 59.3547 119.677 53.8628Z" fill="#CCFDFD"/>
<path d="M31.6578 43.9353H25.9047C25.7898 43.9353 25.7063 43.8412 25.7063 43.7366V37.9727C25.7063 37.8576 25.8003 37.7739 25.9047 37.7739H31.6578C31.7726 37.7739 31.8562 37.8681 31.8562 37.9727V43.7366C31.8562 43.8517 31.7622 43.9353 31.6578 43.9353ZM26.1031 43.5378H31.4594V38.1714H26.1031V43.5378Z" fill="#C4B1D9"/>
<path d="M28.3689 42.6593C28.3167 42.6593 28.2645 42.6384 28.2228 42.5966L26.6461 40.9228C26.573 40.8392 26.573 40.7136 26.6461 40.6404C26.7192 40.5672 26.855 40.5672 26.928 40.6404L28.3376 42.1468L30.8957 38.7365C30.9584 38.6529 31.0836 38.6319 31.1776 38.6947C31.2611 38.7575 31.282 38.883 31.2194 38.9771L28.5151 42.5757C28.5151 42.5757 28.4211 42.6489 28.3689 42.6593H28.3585H28.3689Z" fill="#C4B1D9"/>
<path d="M196.953 71.0496H191.2C191.085 71.0496 191.001 70.9555 191.001 70.8508V65.0869C191.001 64.9719 191.095 64.8882 191.2 64.8882H196.953C197.068 64.8882 197.151 64.9823 197.151 65.0869V70.8508C197.151 70.9659 197.057 71.0496 196.953 71.0496ZM191.398 70.6521H196.755V65.2857H191.398V70.6521Z" fill="#C4B1D9"/>
<path d="M193.664 69.7629C193.612 69.7629 193.56 69.7419 193.518 69.7001L191.941 68.0264C191.868 67.9427 191.868 67.8172 191.941 67.7439C192.025 67.6707 192.15 67.6707 192.223 67.7439L193.633 69.2503L196.191 65.8401C196.254 65.7564 196.379 65.7354 196.473 65.7982C196.556 65.861 196.577 65.9865 196.515 66.0807L193.81 69.6792C193.81 69.6792 193.716 69.7524 193.664 69.7629H193.654H193.664Z" fill="#C4B1D9"/>
<path d="M166.276 16.6116C166.276 16.6116 166.214 16.6116 166.193 16.5907L164.376 15.6283L162.559 16.5907C162.497 16.6221 162.424 16.6221 162.371 16.5802C162.319 16.5384 162.288 16.4756 162.298 16.4024L162.643 14.373L161.171 12.9294C161.171 12.9294 161.098 12.8143 161.129 12.7411C161.15 12.6783 161.202 12.626 161.275 12.6156L163.311 12.3227L164.219 10.4711C164.282 10.3456 164.481 10.3456 164.543 10.4711L165.452 12.3227L167.488 12.6156C167.561 12.6156 167.613 12.6679 167.634 12.7411C167.655 12.8039 167.634 12.8771 167.592 12.9294L166.12 14.373L166.464 16.4024C166.475 16.4756 166.454 16.5384 166.391 16.5802C166.36 16.6011 166.318 16.6116 166.287 16.6116H166.276ZM164.366 15.2412C164.366 15.2412 164.428 15.2412 164.449 15.2621L166.026 16.099L165.723 14.3311C165.723 14.2684 165.723 14.2161 165.775 14.1742L167.049 12.9294L165.285 12.6679C165.222 12.6679 165.17 12.626 165.149 12.5737L164.355 10.9732L163.562 12.5737C163.53 12.626 163.489 12.6679 163.426 12.6679L161.661 12.9294L162.935 14.1742C162.935 14.1742 162.998 14.2788 162.987 14.3311L162.685 16.099L164.261 15.2621C164.261 15.2621 164.313 15.2412 164.345 15.2412H164.366Z" fill="#C4B1D9"/>
<path d="M13.1873 72.5457C13.1873 72.5457 13.1247 72.5457 13.1038 72.5248L11.287 71.5624L9.47023 72.5248C9.40759 72.5561 9.3345 72.5561 9.28229 72.5143C9.23009 72.4725 9.19876 72.4097 9.2092 72.3365L9.55376 70.3071L8.08155 68.8635C8.08155 68.8635 8.00846 68.7484 8.03979 68.6752C8.06067 68.6124 8.11288 68.5601 8.18596 68.5496L10.222 68.2567L11.1304 66.4052C11.193 66.2797 11.3914 66.2797 11.4541 66.4052L12.3625 68.2567L14.3985 68.5496C14.4716 68.5496 14.5238 68.602 14.5447 68.6752C14.5656 68.7379 14.5447 68.8112 14.5029 68.8635L13.0307 70.3071L13.3753 72.3365C13.3857 72.4097 13.3648 72.4725 13.3022 72.5143C13.2708 72.5352 13.2291 72.5457 13.1978 72.5457H13.1873ZM11.2766 71.1753C11.2766 71.1753 11.3392 71.1753 11.3601 71.1962L12.9367 72.0331L12.6339 70.2652C12.6339 70.2025 12.6339 70.1501 12.6861 70.1083L13.96 68.8635L12.1954 68.602C12.1327 68.602 12.0805 68.5601 12.0597 68.5078L11.2661 66.9073L10.4726 68.5078C10.4413 68.5601 10.3995 68.602 10.3369 68.602L8.57229 68.8635L9.84612 70.1083C9.84612 70.1083 9.90877 70.2129 9.89832 70.2652L9.59553 72.0331L11.1722 71.1962C11.1722 71.1962 11.2244 71.1753 11.2557 71.1753H11.2766Z" fill="#C4B1D9"/>
<path d="M96.4248 40.201C96.7172 40.201 96.9991 40.1487 97.281 40.0232C97.5525 39.8976 97.7822 39.7198 98.0014 39.542C98.1998 39.385 98.3878 39.2281 98.5966 39.134C99.1604 38.8829 99.8078 39.0712 100.497 39.2595C101.134 39.4374 101.802 39.6256 102.481 39.4897C102.815 39.4269 103.107 39.2909 103.4 39.1549C103.765 38.9875 104.11 38.8306 104.444 38.8515C104.799 38.862 105.143 39.0503 105.498 39.2491C105.926 39.4897 106.365 39.7303 106.887 39.7303C107.639 39.7303 108.182 39.2491 108.714 38.7888C109.153 38.4122 109.56 38.0461 110.051 37.9938C110.646 37.9205 111.21 38.318 111.815 38.726C112.536 39.2281 113.287 39.7407 114.164 39.4897C114.697 39.3432 115.062 38.9666 115.407 38.59C115.584 38.4017 115.762 38.2239 115.95 38.0775C116.221 37.8787 116.691 37.8264 116.973 37.9624C117.13 38.0461 117.151 38.1402 117.14 38.2239C117.14 38.4017 117.276 38.5377 117.453 38.5482C117.62 38.5482 117.767 38.4122 117.767 38.2344C117.767 37.8787 117.589 37.5753 117.255 37.3975C116.754 37.1464 116.033 37.2197 115.564 37.5649C115.334 37.7427 115.135 37.9415 114.948 38.1402C114.645 38.4645 114.352 38.7574 113.987 38.862C113.381 39.0294 112.786 38.6214 112.16 38.1821C111.491 37.7218 110.792 37.2301 109.967 37.3347C109.288 37.4184 108.787 37.8578 108.296 38.2867C107.837 38.6842 107.399 39.0712 106.887 39.0712C106.521 39.0712 106.177 38.8725 105.801 38.6737C105.394 38.4436 104.966 38.2134 104.454 38.1925C103.963 38.1821 103.535 38.3704 103.128 38.5586C102.857 38.6842 102.606 38.7992 102.345 38.8515C101.812 38.9562 101.249 38.7992 100.654 38.6319C99.8913 38.4122 99.0978 38.1925 98.3251 38.5377C98.0432 38.6633 97.8135 38.8516 97.5838 39.0294C97.3854 39.1863 97.1975 39.3327 96.9991 39.4269C96.1429 39.8139 95.1301 39.2281 94.2217 38.7051C92.7808 37.8787 91.5696 37.8055 90.8074 38.4959C90.6821 38.6109 90.6717 38.8097 90.7865 38.9457C90.9014 39.0712 91.0998 39.0817 91.2355 38.9666C91.9977 38.2762 93.3655 38.9352 93.9085 39.2595C94.6498 39.6884 95.5164 40.1905 96.3935 40.1905L96.4248 40.201Z" fill="#412016"/>
<path d="M85.2318 39.6466C85.994 39.6466 86.8711 39.4165 88.0509 39.019C88.218 38.9667 88.3015 38.7888 88.2493 38.6215C88.1971 38.4541 88.0196 38.3704 87.8526 38.4227C86.2446 38.9562 85.2736 39.1863 84.4278 38.8934C84.2608 38.8411 84.0833 38.9248 84.0311 39.0922C83.9789 39.2596 84.0624 39.4374 84.2295 39.4897C84.5531 39.5943 84.8768 39.6466 85.2318 39.6466Z" fill="#412016"/>
<path d="M114.363 43.496C114.509 43.496 114.655 43.4751 114.801 43.4437C114.948 43.4018 115.083 43.3495 115.209 43.2868C115.313 43.2345 115.428 43.1926 115.543 43.1612C115.835 43.088 116.169 43.1612 116.514 43.2345C116.837 43.3077 117.172 43.3809 117.527 43.3495C117.704 43.3391 117.829 43.1822 117.819 43.0043C117.808 42.8265 117.662 42.701 117.474 42.7114C117.213 42.7323 116.942 42.6696 116.649 42.6068C116.242 42.5231 115.835 42.429 115.397 42.5336C115.25 42.565 115.104 42.6277 114.958 42.6905C114.854 42.7323 114.749 42.7846 114.634 42.816C114.227 42.9206 113.789 42.7637 113.319 42.5963C112.995 42.4813 112.661 42.3557 112.306 42.3139C111.679 42.2302 111.074 42.408 110.5 42.565C110.385 42.5963 110.259 42.6277 110.145 42.6591C109.341 42.8683 108.777 42.8474 108.37 42.5963C108.223 42.5022 108.025 42.544 107.931 42.6905C107.837 42.8369 107.879 43.0357 108.025 43.1298C108.578 43.4855 109.32 43.5274 110.291 43.2763C110.416 43.2449 110.531 43.2135 110.656 43.1717C111.199 43.0148 111.711 42.8788 112.212 42.9416C112.494 42.9729 112.786 43.0775 113.089 43.1926C113.486 43.3391 113.903 43.4855 114.332 43.4855L114.363 43.496Z" fill="#412016"/>
<path d="M96.6336 43.6949C96.7067 43.6949 96.7693 43.6949 96.8424 43.6949C97.1452 43.674 97.4376 43.5903 97.709 43.5066C97.8134 43.4752 97.9178 43.4439 98.0223 43.4229C99.0246 43.1719 100.058 43.2347 101.155 43.3079C102.355 43.3916 103.598 43.4648 104.788 43.0882C104.955 43.0359 105.049 42.8581 104.987 42.6907C104.934 42.5233 104.757 42.4292 104.59 42.4919C103.525 42.8371 102.397 42.7639 101.196 42.6802C100.1 42.607 98.962 42.5338 97.8656 42.8162C97.7508 42.8476 97.6464 42.879 97.5315 42.9104C97.2705 42.9836 97.0303 43.0568 96.7798 43.0777C96.383 43.1091 95.9653 43.0045 95.5581 42.9104L93.0836 42.3141C92.7912 42.2409 92.3527 42.1363 91.9664 42.3455C91.7993 42.4396 91.674 42.5652 91.5696 42.6802C91.5174 42.743 91.4547 42.8058 91.3921 42.8476C91.0266 43.13 90.4419 42.8894 90.2749 42.8162C90.1183 42.743 89.9721 42.6698 89.8259 42.5861C89.5231 42.4187 89.2099 42.2409 88.8444 42.1572C88.124 41.9898 87.4453 42.199 86.7771 42.3978C86.5265 42.471 86.2654 42.5547 86.0148 42.607C85.0751 42.8058 84.1041 42.6802 83.0809 42.5442C82.0159 42.3978 80.9195 42.2513 79.8336 42.5129C79.6666 42.5547 79.5622 42.7221 79.6039 42.8894C79.6457 43.0568 79.8128 43.1614 79.9798 43.1196C80.9404 42.8894 81.9428 43.0254 82.9973 43.1719C84.031 43.3079 85.096 43.4543 86.1506 43.2347C86.4221 43.1719 86.6935 43.0882 86.965 43.0045C87.5706 42.8162 88.1449 42.6384 88.6982 42.7744C88.9802 42.8371 89.2412 42.9836 89.5231 43.1405C89.6797 43.2242 89.8468 43.3183 90.0138 43.3916C90.6925 43.7054 91.3399 43.6845 91.7784 43.3497C91.8724 43.2765 91.9559 43.1928 92.029 43.1091C92.1125 43.0254 92.1856 42.9417 92.2587 42.8999C92.4258 42.8162 92.6659 42.8581 92.9374 42.9208L95.412 43.5171C95.7774 43.6112 96.195 43.7054 96.6231 43.7054L96.6336 43.6949Z" fill="#412016"/>
<path d="M93.5117 47.5968C93.5848 47.5968 93.6579 47.5759 93.7205 47.5131C93.8458 47.3981 93.8667 47.1993 93.7519 47.0633C93.3446 46.6031 92.7599 46.2892 92.1543 46.2055C91.5488 46.1219 90.964 46.2474 90.4002 46.3729C89.8364 46.4984 89.3039 46.6135 88.7818 46.5194C88.3851 46.4461 88.0092 46.2474 87.602 46.0277C86.9233 45.672 86.2133 45.3059 85.4302 45.536C85.1378 45.6197 84.8977 45.7766 84.6575 45.9336C84.4174 46.0905 84.1877 46.2369 83.9475 46.2788C83.5508 46.3415 83.1644 46.1219 82.7468 45.8813C82.3605 45.6616 81.9533 45.4314 81.4834 45.3791C81.024 45.3268 80.5959 45.4628 80.1783 45.5988C79.7293 45.7348 79.3012 45.8708 78.9462 45.7243C78.7791 45.6616 78.6016 45.7453 78.539 45.9022C78.4763 46.0696 78.5599 46.2474 78.7165 46.3101C79.2803 46.5298 79.8337 46.3625 80.3662 46.1951C80.7421 46.08 81.0866 45.9649 81.4208 46.0068C81.7549 46.0382 82.089 46.2265 82.4336 46.4252C82.9243 46.7077 83.4359 46.9901 84.0415 46.896C84.407 46.8332 84.7098 46.6449 84.9917 46.4566C85.2005 46.3206 85.3989 46.1951 85.5973 46.1323C86.1402 45.9754 86.704 46.2683 87.2992 46.5717C87.7273 46.7913 88.1762 47.0319 88.6565 47.1261C89.2935 47.2516 89.9199 47.1156 90.5255 46.9796C91.058 46.8646 91.5696 46.7495 92.0604 46.8227C92.5198 46.8855 92.9688 47.1261 93.2716 47.4713C93.3342 47.5445 93.4177 47.5759 93.5117 47.5759V47.5968Z" fill="#412016"/>
<path d="M114.217 47.5235C114.885 47.5235 115.553 47.4503 116.19 47.3143C116.357 47.2724 116.472 47.105 116.43 46.9377C116.389 46.7703 116.221 46.6657 116.054 46.6971C114.467 47.0423 112.755 46.9272 111.241 46.3728L111.053 46.2996C110.573 46.1217 110.04 45.9125 109.466 46.0067C109.101 46.0694 108.787 46.2473 108.485 46.4146C108.161 46.5925 107.868 46.7703 107.555 46.7494C107.336 46.7494 107.106 46.6448 106.887 46.5402L105.07 45.7451C104.861 45.651 104.6 45.5464 104.298 45.5464C103.89 45.5568 103.567 45.7974 103.327 45.9753C102.721 46.4146 102.136 46.8121 101.52 46.7703C101.186 46.7494 100.862 46.5925 100.518 46.4356C100.288 46.3309 100.058 46.2263 99.8078 46.1427C98.8159 45.8393 97.6883 46.0903 96.9261 46.7808C96.8008 46.8958 96.7903 47.0946 96.9052 47.2306C97.02 47.3561 97.2184 47.3666 97.3542 47.2515C97.9598 46.7075 98.8577 46.5088 99.6304 46.7494C99.8392 46.8121 100.048 46.9063 100.257 47.0109C100.643 47.1887 101.029 47.3666 101.489 47.3979C102.324 47.4607 103.013 47.0004 103.713 46.4879C103.943 46.3205 104.141 46.1845 104.339 46.1845C104.506 46.1636 104.684 46.2577 104.841 46.3309L106.657 47.126C106.918 47.241 107.221 47.377 107.555 47.3875C108.025 47.4084 108.432 47.1887 108.819 46.9691C109.09 46.8226 109.341 46.6762 109.602 46.6343C109.998 46.5611 110.416 46.7285 110.855 46.8854L111.043 46.9586C112.055 47.3247 113.152 47.513 114.238 47.513L114.217 47.5235Z" fill="#412016"/>
<path d="M110.876 8.94388C110.541 8.94388 110.197 8.88112 109.863 8.72421C109.539 8.57776 109.268 8.35808 109.007 8.15932C108.766 7.97103 108.547 7.7932 108.297 7.67813C107.628 7.38522 106.866 7.59444 106.052 7.82458C105.289 8.03379 104.506 8.26393 103.713 8.10702C103.327 8.03379 102.972 7.86642 102.627 7.70951C102.199 7.51075 101.792 7.32246 101.395 7.34338C100.977 7.35384 100.57 7.58398 100.142 7.81412C99.6408 8.09656 99.1187 8.379 98.5027 8.379C97.6152 8.379 96.9783 7.81412 96.3518 7.27016C95.8402 6.82034 95.3494 6.40191 94.7752 6.32868C94.0651 6.245 93.4074 6.70527 92.6974 7.19693C91.8516 7.78273 90.9641 8.38946 89.92 8.09656C89.2935 7.91872 88.8654 7.46891 88.4478 7.04002C88.2389 6.82034 88.0301 6.60066 87.8109 6.43329C87.4976 6.19269 86.9338 6.12993 86.6101 6.2973C86.4326 6.39145 86.4013 6.50652 86.4117 6.60066C86.4117 6.80988 86.2551 6.97725 86.0463 6.97725C85.8479 6.97725 85.6809 6.80988 85.6704 6.61112C85.6704 6.18223 85.8792 5.82656 86.276 5.62781C86.8607 5.32445 87.7169 5.41859 88.2703 5.82656C88.5417 6.02532 88.7714 6.27638 89.0012 6.50652C89.3666 6.88311 89.7007 7.23877 90.1288 7.3643C90.8388 7.56306 91.5384 7.08186 92.2797 6.56928C93.0732 6.02532 93.8877 5.44997 94.8691 5.5755C95.6627 5.66965 96.2683 6.19269 96.8425 6.69481C97.3855 7.16555 97.9075 7.61536 98.5131 7.61536C98.9412 7.61536 99.3589 7.38522 99.7974 7.14463C100.288 6.87264 100.789 6.60066 101.384 6.57974C101.959 6.55882 102.47 6.78896 102.951 7.00863C103.264 7.15509 103.567 7.29108 103.869 7.35384C104.496 7.47937 105.154 7.29108 105.864 7.09232C106.762 6.84126 107.701 6.56928 108.61 6.97725C108.944 7.1237 109.215 7.34338 109.476 7.5526C109.706 7.74089 109.925 7.91873 110.176 8.02333C111.178 8.48361 112.39 7.78273 113.455 7.17601C115.156 6.20315 116.587 6.10901 117.485 6.93541C117.641 7.0714 117.652 7.312 117.506 7.45845C117.37 7.61536 117.13 7.62582 116.984 7.47937C116.086 6.66343 114.478 7.44799 113.82 7.82458C112.943 8.3267 111.92 8.92296 110.876 8.92296V8.94388Z" fill="white"/>
<path d="M124.094 8.28472C123.196 8.28472 122.162 8.01274 120.763 7.542C120.565 7.47924 120.46 7.27002 120.523 7.07127C120.586 6.87251 120.794 6.7679 120.993 6.83067C122.893 7.46878 124.042 7.7303 125.034 7.38509C125.232 7.32233 125.441 7.42693 125.503 7.62569C125.566 7.82444 125.462 8.03366 125.263 8.09642C124.887 8.22195 124.501 8.28472 124.083 8.28472H124.094Z" fill="white"/>
<path d="M89.7006 12.8354C89.5335 12.8354 89.356 12.8144 89.1785 12.7726C89.0115 12.7308 88.8549 12.6575 88.6878 12.5948C88.5625 12.5425 88.4268 12.4797 88.291 12.4483C87.9465 12.3646 87.5497 12.4483 87.1425 12.5425C86.7562 12.6262 86.3698 12.7203 85.9418 12.6785C85.7329 12.6575 85.5868 12.4797 85.5972 12.2809C85.6181 12.0717 85.7851 11.9253 85.994 11.9357C86.2968 11.9567 86.6309 11.8834 86.9754 11.8102C87.4557 11.7056 87.9465 11.601 88.4581 11.7265C88.6356 11.7684 88.8027 11.8416 88.9697 11.9148C89.095 11.9671 89.2203 12.0194 89.3456 12.0613C89.8259 12.1868 90.348 11.9985 90.8909 11.7998C91.2772 11.6638 91.6636 11.5173 92.0812 11.465C92.8225 11.3709 93.5325 11.5696 94.2112 11.7684C94.347 11.8102 94.4931 11.8521 94.6289 11.8834C95.579 12.1345 96.2368 12.1136 96.7171 11.8102C96.8946 11.6951 97.1243 11.7474 97.2287 11.9253C97.3436 12.1031 97.2914 12.3333 97.1139 12.4379C96.4561 12.8563 95.579 12.9086 94.4305 12.6052C94.2843 12.5634 94.1486 12.5215 94.0024 12.4902C93.3655 12.3123 92.7599 12.1345 92.1647 12.2077C91.8306 12.2496 91.4861 12.3751 91.1311 12.5006C90.6612 12.668 90.1705 12.8458 89.6588 12.8458L89.7006 12.8354Z" fill="white"/>
<path d="M110.635 13.0654C110.552 13.0654 110.468 13.0654 110.385 13.0654C110.019 13.034 109.685 12.9398 109.361 12.8457C109.236 12.8143 109.111 12.7725 108.986 12.7411C107.806 12.4377 106.584 12.5214 105.279 12.6051C103.859 12.6993 102.387 12.7934 100.998 12.3436C100.8 12.2808 100.695 12.0716 100.758 11.8728C100.821 11.6741 101.029 11.5695 101.228 11.6322C102.491 12.0402 103.817 11.9565 105.237 11.8624C106.532 11.7787 107.879 11.6846 109.174 12.0193C109.309 12.0507 109.435 12.0925 109.57 12.1344C109.873 12.2181 110.165 12.3122 110.447 12.3331C110.917 12.375 111.408 12.2494 111.888 12.1344L114.812 11.423C115.156 11.3393 115.668 11.2138 116.127 11.4544C116.326 11.559 116.472 11.7159 116.597 11.8415C116.66 11.9147 116.733 11.9879 116.806 12.0402C117.234 12.3645 117.923 12.0925 118.132 11.9984C118.31 11.9147 118.487 11.8205 118.654 11.7264C119.009 11.5276 119.385 11.3184 119.813 11.2243C120.659 11.0255 121.463 11.2766 122.246 11.5172C122.549 11.6113 122.841 11.7055 123.144 11.7682C124.261 12.0088 125.399 11.8519 126.61 11.6846C127.863 11.5172 129.168 11.3393 130.442 11.6427C130.641 11.695 130.766 11.8938 130.714 12.0925C130.662 12.2913 130.463 12.4168 130.265 12.3645C129.127 12.0925 127.947 12.2494 126.704 12.4168C125.483 12.5842 124.219 12.7516 122.987 12.49C122.664 12.4168 122.34 12.3227 122.027 12.2285C121.306 12.0088 120.628 11.7996 119.98 11.9565C119.646 12.0298 119.343 12.2076 119.009 12.3854C118.821 12.49 118.633 12.5946 118.435 12.6888C117.631 13.0549 116.879 13.034 116.357 12.6469C116.242 12.5633 116.148 12.4587 116.054 12.3645C115.96 12.2599 115.866 12.1658 115.783 12.1239C115.584 12.0193 115.292 12.0821 114.989 12.1553L112.066 12.8666C111.627 12.9712 111.147 13.0863 110.635 13.0863V13.0654Z" fill="white"/>
<path d="M114.332 17.6786C114.248 17.6786 114.154 17.6473 114.081 17.5845C113.924 17.4485 113.914 17.2079 114.05 17.0615C114.53 16.5175 115.219 16.1514 115.939 16.0468C116.649 15.9421 117.339 16.0991 118.007 16.2455C118.675 16.392 119.312 16.528 119.918 16.4129C120.377 16.3187 120.836 16.0886 121.317 15.8375C122.121 15.4191 122.956 14.9798 123.885 15.2622C124.23 15.3668 124.522 15.5446 124.794 15.7329C125.076 15.9212 125.347 16.0886 125.629 16.1409C126.088 16.2141 126.548 15.9526 127.038 15.6702C127.498 15.4086 127.978 15.1367 128.532 15.0844C129.075 15.0216 129.576 15.189 130.077 15.3354C130.609 15.5028 131.111 15.6492 131.539 15.4923C131.727 15.4191 131.946 15.5133 132.019 15.7015C132.092 15.8898 131.998 16.1095 131.81 16.1827C131.142 16.4443 130.484 16.2455 129.858 16.0468C129.419 15.9108 129.001 15.7748 128.615 15.8166C128.218 15.8585 127.822 16.0781 127.414 16.3083C126.83 16.6326 126.235 16.9778 125.514 16.8627C125.076 16.7895 124.731 16.5698 124.386 16.3501C124.136 16.1932 123.906 16.0468 123.666 15.9735C123.019 15.7852 122.361 16.1304 121.661 16.4966C121.16 16.7581 120.628 17.0405 120.064 17.1451C119.302 17.2916 118.571 17.1242 117.85 16.9673C117.224 16.8313 116.618 16.6953 116.044 16.779C115.501 16.8522 114.979 17.1347 114.613 17.5531C114.54 17.6368 114.436 17.6786 114.332 17.6786Z" fill="white"/>
<path d="M89.8675 17.5845C89.0845 17.5845 88.2909 17.5008 87.5287 17.3334C87.3303 17.2916 87.205 17.0928 87.2468 16.8941C87.2886 16.6953 87.4869 16.5698 87.6853 16.6117C89.5543 17.0196 91.5799 16.8941 93.3758 16.2351L93.5951 16.1514C94.1589 15.9422 94.7958 15.7016 95.464 15.8062C95.8921 15.8794 96.268 16.0886 96.623 16.2874C96.9989 16.4966 97.3539 16.7163 97.7193 16.6849C97.9804 16.6849 98.2518 16.5593 98.5129 16.4443L100.664 15.5028C100.914 15.3877 101.228 15.2727 101.583 15.2622C102.063 15.2831 102.449 15.5656 102.731 15.7748C103.441 16.2978 104.141 16.7581 104.861 16.7163C105.258 16.6953 105.644 16.5175 106.051 16.3187C106.323 16.1932 106.594 16.0677 106.887 15.9735C108.056 15.6074 109.393 15.9108 110.291 16.7267C110.447 16.8627 110.458 17.1033 110.322 17.2498C110.186 17.3962 109.946 17.4171 109.8 17.2811C109.09 16.6326 108.035 16.4024 107.116 16.6849C106.866 16.7581 106.626 16.8732 106.375 16.9882C105.926 17.1975 105.456 17.4171 104.924 17.4485C103.942 17.5217 103.128 16.9778 102.303 16.3711C102.042 16.1723 101.802 16.0154 101.572 16.0049C101.384 15.984 101.165 16.0886 100.977 16.1828L98.8261 17.1242C98.5129 17.2602 98.1579 17.4171 97.7611 17.4276C97.2077 17.4485 96.7274 17.187 96.2785 16.9359C95.9652 16.7581 95.6624 16.5907 95.3596 16.5384C94.8898 16.4547 94.399 16.643 93.877 16.8418L93.6473 16.9255C92.4465 17.3648 91.1623 17.5845 89.878 17.5845H89.8675Z" fill="white"/>
<path d="M59.5672 22.4698C57.0613 22.0409 55.6309 20.5764 54.8478 19.3839C54.7434 19.3839 54.639 19.3943 54.5346 19.3943H54.3675C49.8151 19.3943 46.0667 16.6013 46.0145 13.1701C45.9937 11.465 46.8498 9.85406 48.4473 8.63015C50.0135 7.42716 52.1122 6.7472 54.3466 6.71582H54.5137C59.0661 6.71582 62.8145 9.50886 62.8667 12.9295C62.898 15.21 61.3109 17.3231 58.7215 18.4842C58.9721 20.4927 59.8178 22.0932 59.8283 22.1037C59.87 22.1874 59.87 22.2815 59.8074 22.3652C59.7656 22.4279 59.6821 22.4698 59.609 22.4698C59.5986 22.4698 59.5777 22.4698 59.5672 22.4698ZM54.3571 7.20748C52.2271 7.23886 50.2328 7.88743 48.7397 9.02766C47.2779 10.1574 46.4739 11.6219 46.5053 13.1701C46.547 16.3293 50.0762 18.9131 54.3675 18.9131H54.5241C54.6181 18.9131 54.7121 18.9131 54.806 18.9027H54.9627C55.0566 18.9027 55.1297 18.934 55.1819 19.0073C55.8397 20.0638 57.0509 21.3923 59.1705 21.9049C58.8781 21.2459 58.3769 19.9278 58.2099 18.3796C58.1994 18.275 58.2621 18.1704 58.3561 18.1286C60.862 17.0616 62.4073 15.074 62.3759 12.9609C62.3342 9.80176 58.805 7.21794 54.5137 7.21794H54.3571V7.20748Z" fill="#C4B1D9"/>
<path d="M57.5208 12.9502C57.5208 12.3854 57.9802 11.9355 58.5336 11.9355C59.0869 11.9355 59.5463 12.3958 59.5463 12.9502C59.5463 13.5047 59.0869 13.9649 58.5336 13.9649C57.9802 13.9649 57.5208 13.5047 57.5208 12.9502Z" fill="#C4B1D9"/>
<path d="M53.3755 12.9502C53.3755 12.3854 53.8349 11.9355 54.3883 11.9355C54.9417 11.9355 55.4011 12.3958 55.4011 12.9502C55.4011 13.5047 54.9417 13.9649 54.3883 13.9649C53.8349 13.9649 53.3755 13.5047 53.3755 12.9502Z" fill="#C4B1D9"/>
<path d="M49.1572 12.9502C49.1572 12.3854 49.6166 11.9355 50.17 11.9355C50.7234 11.9355 51.1828 12.3958 51.1828 12.9502C51.1828 13.5047 50.7234 13.9649 50.17 13.9649C49.6166 13.9649 49.1572 13.5047 49.1572 12.9502Z" fill="#C4B1D9"/>
<path d="M184.643 50.9443C184.57 50.9443 184.497 50.9129 184.455 50.8501L182.22 47.8688H173.345C172.698 47.8688 172.166 47.3353 172.166 46.6867V39.2177C172.166 38.5691 172.698 38.0356 173.345 38.0356H185.29C185.938 38.0356 186.47 38.5691 186.47 39.2177V46.6867C186.47 47.3353 185.938 47.8688 185.29 47.8688H184.966L184.872 50.7246C184.872 50.8292 184.799 50.9129 184.705 50.9443C184.685 50.9443 184.653 50.9547 184.632 50.9547L184.643 50.9443ZM173.345 38.5064C172.959 38.5064 172.635 38.8202 172.635 39.2177V46.6867C172.635 47.0738 172.949 47.3981 173.345 47.3981H182.335C182.408 47.3981 182.481 47.4294 182.523 47.4922L184.424 50.0342L184.497 47.6282C184.497 47.5027 184.601 47.3981 184.737 47.3981H185.29C185.676 47.3981 186 47.0842 186 46.6867V39.2177C186 38.8307 185.687 38.5064 185.29 38.5064H173.345Z" fill="#C4B1D9"/>
<path d="M172.333 42.6068H169.628C169.555 42.6068 169.482 42.6382 169.44 42.701L167.603 45.1488L167.53 42.837C167.53 42.7114 167.425 42.6068 167.289 42.6068H166.788C166.402 42.6068 166.078 42.293 166.078 41.8955V34.7089C166.078 34.3219 166.391 33.9976 166.788 33.9976H178.315C178.702 33.9976 179.025 34.3114 179.025 34.7089V38.2551H179.495V34.7089C179.495 34.0604 178.963 33.5269 178.315 33.5269H166.788C166.141 33.5269 165.608 34.0604 165.608 34.7089V41.8955C165.608 42.5441 166.141 43.0776 166.788 43.0776H167.07L167.164 45.8392C167.164 45.9438 167.237 46.0275 167.331 46.0589C167.352 46.0589 167.383 46.0694 167.404 46.0694C167.477 46.0694 167.55 46.038 167.592 45.9752L169.754 43.0776H172.353V42.6068H172.333Z" fill="#C4B1D9"/>
<path d="M104.485 132.821C103.211 132.821 101.99 132.654 100.8 132.319C89.9824 129.296 85.3048 115.142 79.4055 93.8861C78.9565 92.2751 78.5389 90.7583 78.1421 89.367L97.1451 83.896C97.5628 85.3291 98.0013 86.9087 98.4607 88.5824C100.037 94.2731 103.42 106.439 106.323 111.889C110.907 109.232 119.75 103.175 126.642 96.4804L138.618 109.138C138.378 109.368 131.298 116.398 124.553 121.795C114.739 129.641 110.28 132.832 104.496 132.832L104.485 132.821Z" fill="#FD926D"/>
<path d="M123.969 99.4197C123.969 99.4197 126.965 93.7813 132.906 93.2373C136.383 92.913 141.802 95.1412 141.802 95.1412C141.802 95.1412 143.65 108.583 140.935 110.058C138.221 111.533 125.556 112.014 125.556 112.014L123.979 99.4301L123.969 99.4197Z" fill="#FD926D"/>
<path d="M127.706 97.8611C127.539 97.0765 127.832 96.2292 128.521 95.7271C132.708 92.6725 137.646 88.6974 138.325 87.5781C138.931 86.5948 140.215 86.281 141.207 86.8877C142.188 87.4944 142.502 88.7916 141.896 89.7749C140.466 92.1076 133.178 97.5159 130.985 99.1164C130.045 99.7963 128.74 99.5871 128.061 98.6561C127.884 98.4155 127.769 98.1435 127.706 97.8611Z" fill="#FD926D"/>
<path d="M132.593 100.508C132.489 100.34 132.405 100.162 132.353 99.9741C132.029 98.8653 132.666 97.6937 133.783 97.3694C133.867 97.3485 141.938 94.9948 145.686 93.5198L149.57 91.9925C150.646 91.5741 151.867 92.0972 152.285 93.1851C152.703 94.2625 152.181 95.476 151.095 95.9049L147.211 97.4322C143.274 98.9804 135.287 101.313 134.942 101.407C134.023 101.679 133.073 101.282 132.583 100.518L132.593 100.508Z" fill="#FD926D"/>
<path d="M135.276 103.468C135.151 103.27 135.057 103.05 135.005 102.809C134.754 101.679 135.464 100.56 136.592 100.299C141.593 99.1793 150.239 97.0244 152.149 96.0202C153.173 95.4867 154.446 95.8842 154.979 96.9093C155.511 97.9345 155.115 99.2003 154.091 99.7442C151.063 101.334 138.889 104.085 137.511 104.399C136.623 104.598 135.736 104.201 135.276 103.468Z" fill="#FD926D"/>
<path d="M137.458 106.429C137.302 106.178 137.187 105.885 137.156 105.571C137.01 104.42 137.834 103.374 138.983 103.228C139.077 103.217 148.599 102.035 151.982 100.958C153.089 100.612 154.258 101.219 154.613 102.328C154.958 103.437 154.352 104.608 153.246 104.964C149.497 106.157 139.902 107.349 139.495 107.401C138.659 107.506 137.887 107.109 137.469 106.439L137.458 106.429Z" fill="#FD926D"/>
<path d="M137.187 109.284C136.978 108.95 136.853 108.542 136.863 108.113C136.895 106.952 137.855 106.042 139.014 106.073C139.098 106.073 147.242 106.303 150.249 106.073C151.398 105.989 152.41 106.858 152.494 108.008C152.577 109.169 151.711 110.174 150.562 110.257C147.336 110.498 139.234 110.268 138.899 110.257C138.179 110.236 137.542 109.849 137.187 109.274V109.284Z" fill="#FD926D"/>
<path d="M128.02 104.786V104.765C128.02 104.671 128.082 104.587 128.187 104.577C135.068 104.137 135.329 97.9027 135.339 97.6308C135.339 97.5366 135.423 97.4634 135.517 97.4634C135.611 97.4634 135.694 97.5471 135.684 97.6412C135.684 97.7144 135.412 104.462 128.197 104.922C128.114 104.922 128.03 104.87 128.02 104.786Z" fill="#412016"/>
<path d="M141.217 108.489C141.217 108.489 141.217 108.458 141.207 108.437C141.207 108.353 140.591 100.11 140.09 97.1603C140.069 97.0661 140.142 96.972 140.236 96.9615C140.33 96.9406 140.413 97.0034 140.434 97.108C140.936 100.079 141.552 108.332 141.562 108.416C141.562 108.51 141.499 108.594 141.405 108.604C141.332 108.604 141.259 108.563 141.228 108.489H141.217Z" fill="#412016"/>
<path d="M141.061 106.272C141.061 106.272 141.04 106.219 141.04 106.198C141.04 106.125 141.102 106.062 141.176 106.062L147.513 106.094C147.586 106.094 147.649 106.157 147.649 106.23C147.649 106.303 147.586 106.366 147.513 106.366L141.176 106.334C141.176 106.334 141.082 106.314 141.061 106.272Z" fill="#412016"/>
<path d="M140.967 102.527C140.967 102.527 140.946 102.485 140.946 102.464C140.946 102.391 140.998 102.318 141.071 102.307L147.106 101.763C147.179 101.763 147.253 101.815 147.263 101.889C147.263 101.962 147.211 102.035 147.138 102.046L141.103 102.59C141.05 102.59 140.998 102.569 140.977 102.527H140.967Z" fill="#412016"/>
<path d="M140.518 98.9909C140.518 98.9909 140.497 98.9595 140.497 98.9281C140.486 98.8549 140.539 98.7817 140.612 98.7712L144.632 98.2168C144.705 98.2168 144.778 98.2586 144.788 98.3319C144.799 98.4051 144.747 98.4783 144.673 98.4888L140.654 99.0432C140.601 99.0432 140.549 99.0223 140.518 98.9804V98.9909Z" fill="#412016"/>
<path d="M32.4304 109.609C34.0279 103.301 39.3738 92.6413 45.8056 83.6554L38.7891 78.6029L45.8056 83.6554L38.7891 78.6029L31.7726 73.5503C25.7062 82.0131 14.1582 100.1 14.816 114.243C20.4229 110.801 26.1447 109.41 32.4408 109.609H32.4304Z" fill="#FD926D"/>
<path d="M31.1252 101.554C35.5418 102.757 21.7907 90.9883 21.7907 90.9883L21.4044 90.2456C20.5691 91.6474 20.047 93.7291 19.2222 95.0157C21.1225 96.9405 27.4812 100.56 31.1252 101.564V101.554Z" fill="#412016"/>
<path d="M98.6382 93.1013C98.9932 92.6933 99.2438 92.3377 99.4317 92.0238C99.0349 91.3334 98.6486 90.6325 98.2727 89.9003C93.7412 89.1785 80.4496 93.3523 80.4496 93.3523C80.4496 93.3523 80.1259 94.6495 79.7917 96.1454C80.7837 98.2899 82.0157 100.706 83.4879 103.133C85.4405 102.474 92.885 99.6288 98.6382 93.1118V93.1013Z" fill="#412016"/>
<path d="M43.2057 124.327C43.2057 124.327 33.3596 131.775 25.3303 154.318H103.368C103.368 154.318 95.6311 131.273 86.2966 124.128L43.2057 124.327Z" fill="#E8D4FF"/>
<path d="M56.8627 29.1858C52.1433 28.7465 50.1281 30.9537 48.729 35.5878C47.3195 40.2115 49.7314 43.4334 46.9227 47.6596C44.114 51.8858 38.8829 52.89 37.8806 56.1119C36.8782 59.3339 38.2774 60.7461 37.4838 62.9533C36.6903 65.1605 30.248 68.5917 30.248 69.9934C30.248 71.3952 31.4488 73.2153 31.4488 73.2153L79.0608 65.966L83.4774 63.152C83.4774 63.152 86.6933 59.1246 83.0806 56.9174C79.468 54.6997 76.4505 55.3064 75.8449 48.6638C75.2393 42.0212 75.8449 34.5731 72.8274 30.5457C69.8098 26.5183 61.3733 25.7128 59.1702 27.3238C56.9567 28.9348 56.8627 29.1754 56.8627 29.1754V29.1858Z" fill="#822E18"/>
<path d="M54.5239 61.196C44.6152 62.5455 37.985 65.9661 34.5707 68.7801C31.1564 71.5941 21.3104 88.4987 18.8984 89.9109C18.8984 89.9109 25.1214 101.983 31.9604 104.2L38.789 106.418L41.3993 100.78C41.3993 100.78 42.6 119.023 44.7509 121.44C44.7509 121.44 73.4121 128.951 85.4613 122.381C85.4613 122.381 86.5367 122.245 87.8732 119.431C89.2097 116.617 89.2097 103.395 89.2097 103.395C89.2097 103.395 92.2272 100.037 92.6239 95.3401C92.6239 95.3401 98.9826 97.5055 102.47 87.4422C102.47 87.4422 98.6798 81.1657 96.8631 77.8705C94.1588 72.9435 88.9382 64.01 84.9183 62.399C80.8984 60.788 69.789 61.196 69.789 61.196H54.5239Z" fill="#63329A"/>
<path d="M70.3737 43.151C70.3737 43.151 72.7543 40.6613 74.7799 41.3622C76.8055 42.0631 77.1292 46.4357 74.9678 47.3039C72.8065 48.1826 70.1753 46.4984 70.1753 46.4984L70.3737 43.1405V43.151Z" fill="#FD6238"/>
<path d="M74.3415 46.3519C74.3415 46.3519 74.3624 46.3519 74.3728 46.3519C74.3833 46.3519 75.7928 45.6929 75.3543 44.0819C75.1768 43.4229 74.9053 43.0149 74.519 42.7953C74.0283 42.5338 73.36 42.5756 72.2219 42.9626C72.1802 42.9836 72.1489 43.0254 72.1697 43.0777C72.1906 43.1196 72.2324 43.1509 72.2846 43.13C73.3496 42.7743 73.9969 42.722 74.4355 42.9522C74.78 43.1405 75.0202 43.5066 75.1872 44.1238C75.584 45.5883 74.352 46.1637 74.2997 46.1846C74.258 46.2055 74.2371 46.2578 74.258 46.2996C74.2789 46.331 74.3102 46.3519 74.3519 46.3519H74.3415Z" fill="#412016"/>
<path d="M57.8756 52.1475C57.8756 52.1475 58.6795 58.2984 57.6563 59.5223C56.6331 60.7462 54.5239 61.1961 54.5239 61.1961C54.5239 61.1961 59.6401 70.276 68.4212 69.3869C76.3356 68.5814 72.0756 61.1333 72.0756 61.1333C72.0756 61.1333 68.9641 60.7776 68.2228 60.0977C67.4919 59.4073 67.4188 53.6015 67.4188 53.6015L57.886 52.1579L57.8756 52.1475Z" fill="#FD926D"/>
<path d="M58.6064 52.4819L62.3862 52.8376L67.4188 53.6012C67.4188 53.6012 67.3875 55.9026 67.6068 57.5345C66.0197 57.5136 61.7284 57.2207 58.6064 52.4819Z" fill="#412016"/>
<path d="M72.2741 35.3681C72.9215 37.0105 72.3054 39.5211 72.8901 42.9522C73.4853 46.3729 73.7359 53.2666 68.8911 54.616C65.5708 55.547 62.073 55.0867 59.776 53.9256C57.5624 52.8063 55.9231 50.7978 55.234 48.4127L53.0309 40.7345C51.6005 35.7342 54.5136 30.4411 59.5462 29.1753C59.6611 29.1439 59.776 29.123 59.9012 29.0916C69.7891 26.9681 72.2741 35.3681 72.2741 35.3681Z" fill="#FD926D"/>
<path d="M62.1043 43.7369C62.0521 43.1721 62.2087 42.7013 62.428 42.6804C62.6577 42.6595 62.877 43.0988 62.9292 43.6637C62.9814 44.2286 62.8248 44.6993 62.6055 44.7203C62.3758 44.7412 62.1565 44.3018 62.1043 43.7369Z" fill="#412016"/>
<path d="M69.5907 42.921C69.5385 42.3561 69.6951 41.8854 69.9143 41.8645C70.144 41.8436 70.3633 42.2829 70.4155 42.8478C70.4677 43.4127 70.3111 43.8834 70.0918 43.9043C69.8621 43.9253 69.6429 43.4859 69.5907 42.921Z" fill="#412016"/>
<path d="M67.3459 47.7327C67.3459 47.7327 67.2937 47.7222 67.2833 47.7013C67.2311 47.6595 67.2311 47.5863 67.2833 47.534C67.2833 47.534 67.9619 46.8017 68.0768 45.8602C68.129 45.4104 67.8366 45.1698 67.4608 44.856C67.0953 44.5526 66.6881 44.2074 66.5524 43.5902C66.5419 43.5275 66.5837 43.4647 66.6464 43.4542C66.709 43.4438 66.7716 43.4856 66.7821 43.5484C66.8969 44.0819 67.2519 44.3852 67.6069 44.6782C67.9828 44.992 68.3691 45.3163 68.3065 45.9021C68.1812 46.9272 67.4816 47.6804 67.4503 47.7118C67.419 47.7432 67.3877 47.7536 67.3459 47.7536V47.7327Z" fill="#412016"/>
<path d="M61.0916 42.22C61.1752 42.22 61.2587 42.1886 61.3213 42.1259C61.3527 42.0945 62.0731 41.4354 63.4096 41.6237C63.608 41.6551 63.7855 41.5191 63.8168 41.3204C63.8481 41.1216 63.7124 40.9438 63.514 40.9124C61.8121 40.6718 60.8619 41.5714 60.8306 41.6133C60.6949 41.7493 60.6844 41.9794 60.8306 42.1154C60.9037 42.1886 60.9977 42.2305 61.1021 42.22H61.0916Z" fill="#412016"/>
<path d="M68.5675 41.0902C68.651 41.1111 68.7345 41.1111 68.8181 41.0692C68.8598 41.0483 69.7578 40.6613 70.9585 41.2889C71.136 41.3831 71.3448 41.3098 71.4388 41.132C71.5328 40.9542 71.4597 40.745 71.2822 40.6508C69.7578 39.8558 68.5675 40.3998 68.5153 40.4207C68.3378 40.5044 68.2647 40.7136 68.3482 40.8914C68.39 40.9856 68.4735 41.0483 68.5675 41.0797V41.0902Z" fill="#412016"/>
<path d="M55.85 44.9084C55.85 44.9084 59.3478 40.3579 60.9871 34.5417C60.9871 34.5417 63.7018 35.7342 66.5105 36.2364C69.3088 36.728 70.781 36.1318 72.2845 38.4018C73.7881 40.6613 73.0676 37.1883 73.0676 37.1883C73.0676 37.1883 71.4701 25.3676 58.3246 29.2695C45.1791 33.1714 54.3569 46.3938 54.3569 46.3938L55.85 44.9188V44.9084Z" fill="#822E18"/>
<path d="M60.9767 34.4269C60.9767 34.4269 60.9453 34.4269 60.9349 34.4164C58.9928 33.1193 57.4893 30.0019 57.4266 29.866C57.4058 29.8241 57.4267 29.7718 57.4684 29.7509C57.5102 29.73 57.5624 29.7509 57.5833 29.7927C57.5937 29.8241 59.1286 32.9937 61.0289 34.2699C61.0706 34.3013 61.0811 34.3536 61.0498 34.3955C61.0289 34.4269 60.9975 34.4373 60.9662 34.4373L60.9767 34.4269Z" fill="white"/>
<path d="M67.0116 48.9986C67.4815 49.0928 67.9618 49.1137 68.4316 49.1869C68.9328 49.2601 69.3191 49.574 69.1939 50.1179C68.6927 52.2833 65.6752 52.0532 64.0985 51.436C63.7227 51.2895 63.3677 51.0908 63.1171 50.7769C62.6368 50.1911 62.5637 49.0928 63.2424 48.6011C63.8166 48.1827 64.631 48.3814 65.268 48.5383C65.8109 48.6743 66.333 48.8417 66.8759 48.9777C66.9281 48.9881 66.9699 48.9986 67.0221 49.0091L67.0116 48.9986Z" fill="white"/>
<path d="M72.7649 40.1171C72.7023 40.1171 72.6501 40.0753 72.6396 40.0125C72.3995 38.4748 70.0398 37.3869 67.8889 37.23C65.4456 37.0521 62.4072 36.0479 61.3318 34.4997C61.29 34.4474 61.3109 34.3637 61.3631 34.3323C61.4153 34.2905 61.4988 34.3114 61.5302 34.3637C62.5639 35.8596 65.5187 36.8115 67.8993 36.9894C70.1129 37.1567 72.6083 38.2551 72.8693 39.9812C72.8693 40.0439 72.838 40.1171 72.7649 40.1171C72.7649 40.1171 72.7545 40.1171 72.744 40.1171H72.7649Z" fill="#822E18"/>
<path d="M53.7305 43.747C53.6679 43.747 53.6157 43.6947 53.6052 43.6319C53.6052 43.5587 53.647 43.5064 53.7201 43.496C56.1007 43.2972 57.458 39.2698 58.356 36.6127C58.7319 35.5144 59.0242 34.6356 59.3061 34.2172C59.3479 34.1649 59.421 34.144 59.4732 34.1858C59.5254 34.2277 59.5463 34.3009 59.5045 34.3532C59.233 34.7403 58.9303 35.6399 58.5857 36.686C57.6147 39.5731 56.2782 43.5169 53.7305 43.7366C53.7305 43.7366 53.7305 43.7366 53.7201 43.7366L53.7305 43.747Z" fill="white"/>
<path d="M56.7792 44.7618C56.7792 44.7618 54.3986 42.2721 52.373 42.973C50.3474 43.6739 50.0238 48.0465 52.1851 48.9148C54.3464 49.7935 56.9776 48.1093 56.9776 48.1093L56.7792 44.7514V44.7618Z" fill="#FD926D"/>
<path d="M52.8012 47.9628C52.8012 47.9628 52.7803 47.9628 52.7699 47.9628C52.7594 47.9628 51.3499 47.3038 51.7884 45.6928C51.9659 45.0338 52.2374 44.6258 52.6237 44.4061C53.1144 44.1446 53.7827 44.1864 54.9208 44.5735C54.9625 44.5944 54.9939 44.6362 54.973 44.6886C54.9521 44.7304 54.9103 44.7618 54.8581 44.7409C53.7931 44.3852 53.1458 44.3329 52.7072 44.563C52.3627 44.7513 52.1225 45.1174 51.9555 45.7346C51.5587 47.1991 52.7908 47.7745 52.843 47.7954C52.8847 47.8163 52.9056 47.8686 52.8847 47.9105C52.8639 47.9419 52.8325 47.9628 52.7908 47.9628H52.8012Z" fill="#412016"/>
<path d="M30.2481 70.1923C30.2481 70.1923 30.3212 70.1923 30.3526 70.1609C30.4465 70.1086 30.4778 69.9831 30.4256 69.8889C29.3189 68.0165 32.2633 65.6732 34.4142 63.9577C35.5001 63.0894 36.3667 62.399 36.5964 61.8864C36.9096 61.2065 36.7739 60.265 36.6173 59.1666C36.4189 57.723 36.1892 56.0702 36.8574 54.5011C37.5048 52.9843 40.303 50.8189 42.7776 48.915C44.8137 47.3459 46.7348 45.85 47.2987 44.8667C47.7894 43.9984 47.9356 42.8687 48.1131 41.446C48.395 39.2702 48.7396 36.5608 50.5146 33.318C50.5668 33.2238 50.5354 33.1088 50.4415 33.0564C50.3475 33.0041 50.2326 33.0355 50.1804 33.1297C48.3637 36.4353 48.0191 39.1865 47.7372 41.3937C47.5597 42.7745 47.424 43.8625 46.9645 44.6679C46.4425 45.5885 44.5526 47.053 42.5479 48.6012C39.9167 50.6306 37.1916 52.7332 36.5129 54.3442C35.8029 56.0179 36.043 57.7858 36.2414 59.2189C36.3876 60.2545 36.5129 61.1437 36.2414 61.7191C36.0535 62.1479 35.1346 62.8697 34.174 63.6438C31.9187 65.4536 28.8177 67.9223 30.0915 70.0877C30.1333 70.1505 30.1959 70.1818 30.2586 70.1818L30.2481 70.1923Z" fill="#822E18"/>
<path d="M95.4328 154.318V147.173H100.643C100.424 146.65 100.204 146.117 99.9643 145.562H95.4328V136.147C94.9107 135.196 94.3782 134.265 93.8249 133.344V145.562H81.3685V133.082H93.6682C93.3341 132.538 92.9896 131.995 92.645 131.471H81.3685V124.149H79.7605V131.471H67.5025V124.212H65.8946V131.471H53.0414V124.285H51.4335V131.471H39.1755V128.448C38.6743 129.055 38.1418 129.725 37.5675 130.478V131.471H36.8366C36.4712 131.984 36.0953 132.507 35.709 133.082H37.5675V145.562H28.8491C28.609 146.096 28.3688 146.619 28.1287 147.173H37.5675V154.318H39.1755V147.173H51.4335V154.318H53.0414V147.173H65.8946V154.318H67.5025V147.173H79.7605V154.318H81.3685V147.173H93.8249V154.318H95.4328ZM51.4439 145.562H39.1859V133.082H51.4439V145.562ZM65.905 145.562H53.0519V133.082H65.905V145.562ZM79.7605 145.562H67.5025V133.082H79.7605V145.562Z" fill="white"/>
<path d="M86.7038 121.409C86.7038 121.409 66.9177 124.934 43.9156 120.603L43.2161 124.327C43.2161 124.327 74.049 131.074 86.7038 124.63V121.409Z" fill="#412016"/>
<path d="M41.3994 100.978C41.4829 100.978 41.556 100.926 41.5873 100.842C43.3101 95.8109 45.7116 90.3189 45.7325 90.2562C45.7742 90.162 45.7325 90.0469 45.6281 89.9946C45.5341 89.9423 45.4192 89.9946 45.367 90.0992C45.3461 90.1516 42.9342 95.6644 41.2114 100.717C41.1801 100.822 41.2323 100.926 41.3367 100.968C41.3576 100.968 41.3785 100.978 41.3994 100.978Z" fill="#412016"/>
<path d="M43.8112 94.6707C43.8112 94.6707 43.8947 94.6602 43.9365 94.6288L46.8809 92.2124C46.9645 92.1391 46.9749 92.0241 46.9123 91.9404C46.8496 91.8567 46.7243 91.8462 46.6408 91.909L43.6964 94.3254C43.6128 94.3987 43.6024 94.5137 43.665 94.5974C43.7068 94.6497 43.759 94.6707 43.8112 94.6707Z" fill="#412016"/>
<path d="M60.4859 100.958C67.4607 100.958 70.8332 96.9406 70.8854 96.8778C70.9585 96.7941 70.9376 96.6686 70.8541 96.6058C70.7706 96.5326 70.6453 96.5535 70.5826 96.6372C70.52 96.7104 64.6207 103.709 52.1852 98.8549C52.0808 98.813 51.9763 98.8653 51.9346 98.9699C51.8928 99.0746 51.945 99.1792 52.0494 99.221C55.2862 100.487 58.1053 100.958 60.4859 100.958Z" fill="#412016"/>
<path d="M68.8076 71.6567C69.8727 71.6567 70.9168 71.4788 71.8774 71.029C73.8925 70.1085 75.1141 68.9996 75.5318 67.7443C75.8972 66.6355 75.4691 65.83 75.4483 65.7986C75.3961 65.7045 75.2708 65.6731 75.1872 65.7254C75.0933 65.7777 75.0619 65.8928 75.1141 65.9869C75.1246 66.0183 75.4796 66.6878 75.1663 67.6397C74.7905 68.7695 73.6002 69.8156 71.7207 70.6838C66.9178 72.891 59.6611 68.0686 59.588 68.0163C59.5045 67.9535 59.3792 67.9745 59.3166 68.0686C59.2539 68.1523 59.2748 68.2778 59.3688 68.3406C59.6194 68.508 64.3597 71.6671 68.8076 71.6671V71.6567Z" fill="#412016"/>
<path d="M68.8076 127.549V122.444C68.8076 122.015 69.1522 121.659 69.5907 121.659H78.163C78.591 121.659 78.946 122.004 78.946 122.444V127.549C78.946 127.978 78.6015 128.333 78.163 128.333H69.5907C69.1626 128.333 68.8076 127.988 68.8076 127.549ZM77.3799 123.228H70.3738V126.764H77.3799V123.228Z" fill="#FDB579"/>
<path d="M60.016 127.214L59.8802 122.245L57.0715 122.109V127.612L60.016 127.214Z" fill="#CCDBFD"/>
<path d="M84.3859 125.938L84.1875 121.513L85.8581 121.439L86.0669 125.739L84.3859 125.938Z" fill="#CCDBFD"/>
<path d="M48.301 125.666L48.8335 121.314L46.3589 120.843L45.6907 125.331L48.301 125.666Z" fill="#A576CD"/>
<path d="M75.4796 125.195H78.2883C78.3927 125.195 78.4867 125.111 78.4867 124.996C78.4867 124.881 78.4032 124.797 78.2883 124.797H75.4796C75.3752 124.797 75.2812 124.881 75.2812 124.996C75.2812 125.111 75.3648 125.195 75.4796 125.195Z" fill="#FDB579"/>
<path d="M79.8231 120.728C79.8231 120.728 79.9275 120.718 79.9901 120.676C80.7732 120.247 83.1434 116.816 83.5715 115.048C83.5924 114.943 83.5297 114.839 83.4253 114.807C83.3209 114.776 83.2165 114.849 83.1852 114.954C82.8197 116.471 80.7524 119.567 79.9275 120.237C79.9797 119.776 80.3451 118.615 80.6793 117.569C81.1282 116.146 81.6921 114.368 81.9635 112.956C81.9844 112.851 81.9113 112.747 81.8069 112.726C81.7025 112.715 81.5981 112.778 81.5772 112.883C81.3162 114.274 80.7524 116.042 80.3138 117.454C79.5516 119.86 79.4054 120.446 79.656 120.655C79.6873 120.676 79.7396 120.718 79.8231 120.718V120.728Z" fill="#412016"/>
<path d="M57.0195 108.363C56.842 108.499 39.802 121.324 32.8794 113.604C32.5662 112.663 31.8666 110.069 34.028 104.943C27.7319 104.744 20.4126 110.811 14.8057 114.242C14.9936 118.301 16.1839 122.036 18.8047 125.122C24.2028 131.482 30.906 133.846 37.7764 133.846C48.9485 133.846 59.327 125.885 66.4271 120.299L57.0091 108.353L57.0195 108.363Z" fill="#FD926D"/>
<path d="M79.04 123.385C78.7477 123.459 78.4449 123.469 78.1316 123.406L66.688 120.906C65.6439 120.676 64.9757 119.641 65.2054 118.584C65.4351 117.538 66.4688 116.868 67.5233 117.099L78.9669 119.599C80.011 119.829 80.6793 120.864 80.4496 121.921C80.293 122.664 79.7291 123.208 79.0505 123.385H79.04Z" fill="#FD926D"/>
<path d="M77.0249 108.343L72.8693 108.741C72.8171 108.741 72.7753 108.72 72.744 108.678L72.4934 108.238C72.4621 108.176 72.483 108.102 72.5456 108.061C72.6083 108.019 72.6813 108.05 72.7231 108.113L72.9319 108.479L77.004 108.092C77.0771 108.092 77.1397 108.134 77.1397 108.207C77.1397 108.28 77.098 108.333 77.0353 108.343H77.0249Z" fill="#412016"/>
<path d="M81.9218 108.625C81.7861 108.657 81.6503 108.688 81.5146 108.699L69.7787 109.86C68.3587 109.996 67.0848 108.96 66.9491 107.527C66.8134 106.094 67.8366 104.818 69.2775 104.692L81.0134 103.531C82.4334 103.395 83.7073 104.431 83.843 105.864C83.9683 107.15 83.133 108.312 81.9322 108.625H81.9218Z" fill="#FD926D"/>
<path d="M81.4415 118.605C81.3057 118.636 81.17 118.668 81.0343 118.678L69.2983 119.839C67.8783 119.975 66.6045 118.94 66.4688 117.507C66.333 116.073 67.3667 114.808 68.7972 114.672L80.5331 113.511C81.9531 113.375 83.2269 114.41 83.3627 115.843C83.488 117.13 82.6527 118.291 81.4519 118.605H81.4415Z" fill="#FD926D"/>
<path d="M83.54 114.41C83.3416 114.462 83.1328 114.494 82.9136 114.494L69.0685 114.724C67.638 114.745 66.4582 113.604 66.4373 112.171C66.4164 110.728 67.5545 109.556 68.985 109.535L82.83 109.305C84.2605 109.284 85.4403 110.424 85.4612 111.857C85.4821 113.081 84.6572 114.106 83.54 114.41Z" fill="#FD926D"/>
<path d="M56.2363 109.316C58.8571 106.742 60.2666 105.215 60.8096 104.232C61.3525 103.248 66.4583 98.9385 68.3377 96.7627C70.0709 94.7542 72.6186 95.0262 72.0966 98.3109C71.6163 101.376 66.0093 104.702 66.9281 104.671C69.7786 104.577 70.8123 104.577 70.8123 104.577L70.781 116.994L69.1417 119.358L63.0858 119.41L56.2363 109.305V109.316Z" fill="#FD926D"/>
<path d="M54.2734 110.885C54.2734 110.885 59.0241 106.941 60.9036 107.014C66.239 107.223 68.4317 108.102 68.4317 108.102C68.4317 108.102 74.1535 119.17 71.5745 120.038C69.1521 120.854 55.6099 122.005 55.6099 122.005L54.2629 110.885H54.2734Z" fill="#FD926D"/>
<path d="M69.5801 107.861C69.5801 107.861 69.5801 107.903 69.5592 107.924C69.5279 107.977 69.4653 107.987 69.4131 107.956L68.0975 107.098C68.0975 107.098 68.0348 107.004 68.0661 106.951C68.0975 106.899 68.1601 106.889 68.2123 106.92L69.5279 107.778C69.5279 107.778 69.5697 107.83 69.5801 107.861Z" fill="#412016"/>
<path d="M68.1289 107.987C68.1289 107.987 68.1393 108.029 68.1602 108.05C68.202 108.092 68.2646 108.092 68.3064 108.05L69.4653 106.993C69.4653 106.993 69.5071 106.889 69.4653 106.847C69.4236 106.805 69.3609 106.805 69.3192 106.847L68.1602 107.903C68.1602 107.903 68.1184 107.956 68.1289 107.987Z" fill="#412016"/>
<path d="M69.2149 112.433C69.2149 112.433 69.2149 112.475 69.194 112.496C69.1627 112.548 69.1 112.558 69.0478 112.527L67.7322 111.669C67.7322 111.669 67.6696 111.575 67.7009 111.523C67.7322 111.47 67.7949 111.46 67.8471 111.491L69.1627 112.349C69.1627 112.349 69.2044 112.401 69.2149 112.433Z" fill="#412016"/>
<path d="M67.7636 112.558C67.7636 112.558 67.7741 112.6 67.795 112.621C67.8367 112.663 67.8994 112.663 67.9411 112.621L69.1001 111.565C69.1001 111.565 69.1419 111.46 69.1001 111.418C69.0583 111.376 68.9957 111.376 68.9539 111.418L67.795 112.475C67.795 112.475 67.7532 112.527 67.7636 112.558Z" fill="#412016"/>
<path d="M69.4861 116.554C69.4861 116.554 69.4861 116.596 69.4652 116.617C69.4339 116.669 69.3713 116.68 69.3191 116.648L68.0035 115.791C68.0035 115.791 67.9408 115.697 67.9721 115.644C68.0035 115.592 68.0661 115.581 68.1183 115.613L69.4339 116.471C69.4339 116.471 69.4757 116.523 69.4861 116.554Z" fill="#412016"/>
<path d="M68.0349 116.67C68.0349 116.67 68.0453 116.711 68.0662 116.732C68.108 116.774 68.1706 116.774 68.2124 116.732L69.3714 115.676C69.3714 115.676 69.4131 115.571 69.3714 115.529C69.3296 115.488 69.2669 115.488 69.2252 115.529L68.0662 116.586C68.0662 116.586 68.0244 116.638 68.0349 116.67Z" fill="#412016"/>
<path d="M68.9746 98.4889C68.6718 98.2483 68.3481 97.9554 68.3272 97.9345C68.275 97.8822 68.2646 97.809 68.3168 97.7566C68.369 97.7043 68.4421 97.6939 68.4943 97.7462C68.4943 97.7462 69.2043 98.3738 69.4758 98.5517C69.6742 98.4366 70.3528 97.3591 70.3946 96.7001C70.405 96.5327 70.3737 96.4281 70.2902 96.3967C70.2275 96.3654 70.1962 96.2921 70.2275 96.2294C70.2589 96.1666 70.3319 96.1352 70.3946 96.1666C70.499 96.2189 70.6243 96.334 70.6452 96.5955C70.6765 97.2545 69.9561 98.5621 69.5906 98.7818C69.4758 98.8446 69.4027 98.8237 69.3609 98.7923C69.2669 98.74 69.1208 98.6249 68.9642 98.4889H68.9746Z" fill="#412016"/>
<path d="M83.0076 114.462C83.0076 114.462 83.0076 114.483 83.0076 114.494C83.0076 114.546 82.9658 114.588 82.9136 114.588L74.216 114.745C74.1638 114.745 74.1221 114.703 74.1221 114.65C74.1221 114.598 74.1638 114.556 74.216 114.556L82.9136 114.399C82.9136 114.399 82.9971 114.431 83.0076 114.462Z" fill="#412016"/>
<path d="M76.8682 118.929V118.95C76.8682 119.013 76.8264 119.054 76.7742 119.054L73.1511 118.971C73.0989 118.971 73.0571 118.929 73.0571 118.866C73.0571 118.814 73.1093 118.772 73.1615 118.772L76.7846 118.856C76.7846 118.856 76.8577 118.887 76.8786 118.918L76.8682 118.929Z" fill="#412016"/>
<path d="M82.5483 107.673C82.5483 107.673 82.4856 107.673 82.4543 107.653C82.4125 107.611 82.4125 107.548 82.4543 107.506C83.2061 106.638 82.4543 105.539 82.2768 105.309L79.8231 105.602C79.4159 106.293 79.9171 107.914 79.9275 107.935C79.9484 107.987 79.9171 108.05 79.8649 108.061C79.8127 108.071 79.7605 108.05 79.7396 107.998C79.7187 107.925 79.1862 106.198 79.6874 105.445C79.7083 105.424 79.7291 105.403 79.7605 105.403L82.3186 105.1C82.3186 105.1 82.3916 105.1 82.4125 105.142C82.423 105.152 83.5715 106.565 82.6214 107.653C82.6109 107.673 82.59 107.684 82.5692 107.684L82.5483 107.673Z" fill="#412016"/>
<path d="M83.6862 113.573C83.6862 113.573 83.6236 113.573 83.5922 113.552C83.5505 113.511 83.5505 113.448 83.5922 113.406C84.344 112.538 83.5922 111.439 83.4147 111.209L80.961 111.502C80.5538 112.193 81.055 113.814 81.0655 113.835C81.0863 113.887 81.055 113.95 81.0028 113.96C80.9506 113.971 80.8984 113.95 80.8775 113.898C80.8566 113.824 80.3241 112.098 80.8253 111.345C80.8462 111.324 80.8671 111.303 80.8984 111.303L83.4565 111C83.4565 111 83.5296 111 83.5505 111.042C83.5609 111.052 84.7094 112.465 83.7593 113.552C83.7489 113.573 83.728 113.584 83.7071 113.584L83.6862 113.573Z" fill="#412016"/>
<path d="M81.9008 118.26C81.9008 118.26 81.8382 118.26 81.8069 118.228C81.7651 118.186 81.7755 118.124 81.8173 118.082C82.6839 117.329 82.0992 116.136 81.953 115.875L79.4889 115.812C78.9877 116.439 79.2488 118.113 79.2488 118.113C79.2592 118.186 79.2279 118.239 79.1652 118.249C79.113 118.249 79.0608 118.218 79.0504 118.165C79.0399 118.092 78.758 116.303 79.3636 115.634C79.3845 115.613 79.4158 115.603 79.4471 115.603L82.0261 115.676C82.0261 115.676 82.0888 115.697 82.1097 115.728C82.1097 115.739 83.0494 117.297 81.953 118.249C81.9322 118.26 81.9217 118.27 81.9008 118.27V118.26Z" fill="#412016"/>
<path d="M78.685 123.417C78.685 123.417 78.6328 123.396 78.6119 123.375C78.591 123.333 78.6119 123.281 78.6432 123.25C79.5099 122.747 79.2071 121.618 79.1235 121.377L77.0144 120.917C76.4819 121.377 76.4297 122.863 76.4297 122.863C76.4297 122.925 76.3879 122.967 76.3357 122.967C76.3357 122.967 76.2522 122.925 76.2522 122.873C76.2522 122.81 76.3044 121.22 76.9413 120.749C76.9622 120.739 76.9935 120.729 77.0144 120.729L79.2175 121.21C79.2175 121.21 79.2697 121.241 79.2802 121.272C79.2802 121.283 79.8335 122.779 78.7372 123.417C78.7163 123.417 78.7059 123.427 78.685 123.427V123.417Z" fill="#412016"/>
<path d="M16.1211 120.938C16.7476 122.433 17.5829 123.835 18.6792 125.132C21.6341 128.616 24.9961 130.865 28.5462 132.225C29.1309 123.699 20.4542 121.513 16.1211 120.948V120.938Z" fill="#FD6238"/>
<path d="M32.6811 70.8616C32.3887 71.2278 32.0859 71.6253 31.7727 72.0437C38.0166 73.8534 44.4379 75.6213 51.0054 76.3222C54.8791 76.7301 58.7633 76.772 62.5221 76.8138C67.6279 76.8661 72.9111 76.9184 78.1213 75.977C82.7363 75.1401 87.4766 73.4768 92.7181 70.8721C92.4676 70.485 92.2065 70.098 91.9455 69.7109C86.8815 72.2215 82.3082 73.8011 77.8707 74.6066C72.7963 75.5271 67.5861 75.4748 62.543 75.4225C58.8155 75.3807 54.9731 75.3493 51.1621 74.9413C44.8869 74.2718 38.7057 72.6086 32.6811 70.8616Z" fill="#F8ECE9"/>
<path d="M97.8656 81.9712L98.962 81.5318C98.7218 81.1238 98.4921 80.7159 98.2624 80.3184L97.354 80.6845C91.3712 83.1114 85.1795 85.622 78.6851 86.4484C76.127 86.7727 73.4958 86.8354 71.0212 86.8773C58.8154 87.0656 48.7188 86.6262 39.259 85.4965C34.4039 84.9107 29.3816 84.0842 24.7979 82.2222C24.5265 82.6197 24.2654 83.0173 24.0044 83.4043C28.8074 85.4023 34.0384 86.2706 39.1024 86.8773C47.2048 87.8501 55.7562 88.3104 65.6858 88.3104C67.4295 88.3104 69.2149 88.3 71.0421 88.2686C73.5585 88.2267 76.2314 88.164 78.8626 87.8292C85.5345 86.9819 91.8097 84.4399 97.8761 81.9712H97.8656Z" fill="#F8ECE9"/>
<path d="M56.9986 81.5316C54.5241 81.6048 51.9033 81.6258 49.3974 80.9772C48.5308 80.7575 47.6642 80.4437 46.8289 80.1403C45.6908 79.7323 44.5109 79.3034 43.2789 79.0733C42.2765 78.885 41.2637 78.8118 40.2822 78.749C39.5618 78.6967 38.81 78.6549 38.1 78.5503C36.5025 78.3306 34.9259 77.8389 33.391 77.3682L28.9848 76.0083C28.7134 76.4058 28.4419 76.8033 28.1704 77.2113L32.9838 78.6967C34.5709 79.1884 36.2102 79.6905 37.9121 79.9311C38.6743 80.0357 39.4469 80.088 40.1987 80.1403C41.1802 80.2031 42.1094 80.2658 43.0283 80.4437C44.1559 80.6634 45.2314 81.0504 46.3799 81.4584C47.2465 81.7722 48.1445 82.0965 49.0737 82.3371C51.7571 83.038 54.6076 83.017 57.0613 82.9438C67.8157 82.6195 78.612 80.9772 89.0428 79.3871C91.5173 79.0105 94.2216 78.5817 96.7275 77.5983C96.5082 77.2113 96.289 76.8033 96.0384 76.3744C93.71 77.2531 91.1728 77.6611 88.8339 78.0168C78.4345 79.5964 67.6905 81.2282 57.0195 81.5525L56.9986 81.5316Z" fill="#F8ECE9"/>
<path d="M92.624 95.5385C92.7284 95.5385 92.8224 95.4548 92.8224 95.3397C92.8224 86.8246 88.0508 82.5566 87.9986 82.5148C87.915 82.4416 87.8002 82.452 87.7271 82.5357C87.654 82.6194 87.6645 82.7449 87.748 82.8077C87.7897 82.8495 92.4361 87.0129 92.4361 95.3397C92.4361 95.4443 92.5196 95.5385 92.6345 95.5385H92.624Z" fill="#412016"/>
<path d="M6.98529 158H197.903V156.19C197.903 154.224 196.233 152.634 194.165 152.634H10.7128C8.64545 152.634 6.97485 154.224 6.97485 156.19V158H6.98529Z" fill="#A8CFCF"/>
</g>
<defs>
<linearGradient id="paint0_linear_1692_91694" x1="50.5147" y1="148.888" x2="27.7425" y2="120.372" gradientUnits="userSpaceOnUse">
<stop stop-color="#53BFC0"/>
<stop offset="1" stop-color="#95DDDE"/>
</linearGradient>
<linearGradient id="paint1_linear_1692_91694" x1="29.9036" y1="158.188" x2="15.4113" y2="131.766" gradientUnits="userSpaceOnUse">
<stop stop-color="#83DDDE"/>
<stop offset="1" stop-color="#BBF1F2"/>
</linearGradient>
<linearGradient id="paint2_linear_1692_91694" x1="193.257" y1="131.116" x2="212.005" y2="120.653" gradientUnits="userSpaceOnUse">
<stop stop-color="#53BFC0"/>
<stop offset="1" stop-color="#95DDDE"/>
</linearGradient>
<linearGradient id="paint3_linear_1692_91694" x1="178.012" y1="148.774" x2="189.34" y2="99.9519" gradientUnits="userSpaceOnUse">
<stop stop-color="#53BFC0"/>
<stop offset="1" stop-color="#95DDDE"/>
</linearGradient>
<linearGradient id="paint4_linear_1692_91694" x1="180.404" y1="152.288" x2="209.126" y2="125.123" gradientUnits="userSpaceOnUse">
<stop stop-color="#83DDDE"/>
<stop offset="1" stop-color="#BBF1F2"/>
</linearGradient>
<clipPath id="clip0_1692_91694">
<rect width="217" height="158" fill="white"/>
</clipPath>
</defs>
</svg>
