<svg width="217" height="192" viewBox="0 0 217 192" fill="none" xmlns="http://www.w3.org/2000/svg">
<g clip-path="url(#clip0_1692_91465)">
<path d="M193.502 161.296C193.502 161.296 193.482 161.296 193.471 161.286C193.409 161.244 193.389 161.162 193.43 161.099C198.413 153.002 209.05 145.287 213.351 145.432C213.423 145.432 213.485 145.494 213.485 145.577C213.485 145.649 213.423 145.711 213.34 145.711C209.102 145.566 198.599 153.219 193.657 161.244C193.626 161.296 193.564 161.317 193.502 161.307V161.296Z" fill="#15A3A5"/>
<path d="M213.278 144.749C213.051 145.277 212.389 145.494 212.389 145.494C212.389 145.494 212.1 144.863 212.327 144.334C212.555 143.806 213.216 143.589 213.216 143.589C213.216 143.589 213.506 144.221 213.278 144.749Z" fill="#15A3A5"/>
<path d="M206.931 147.368C206.859 147.938 206.29 148.342 206.29 148.342C206.29 148.342 205.825 147.813 205.897 147.244C205.97 146.674 206.538 146.271 206.538 146.271C206.538 146.271 207.003 146.799 206.931 147.368Z" fill="#15A3A5"/>
<path d="M210.456 146.975C210.952 147.276 211.076 147.959 211.076 147.959C211.076 147.959 210.415 148.166 209.919 147.866C209.422 147.566 209.298 146.882 209.298 146.882C209.298 146.882 209.96 146.675 210.456 146.975Z" fill="#15A3A5"/>
<path d="M204.336 150.9C204.833 151.2 204.957 151.884 204.957 151.884C204.957 151.884 204.295 152.091 203.799 151.791C203.303 151.49 203.178 150.807 203.178 150.807C203.178 150.807 203.84 150.6 204.336 150.9Z" fill="#15A3A5"/>
<path d="M167.637 187.537C165.518 178.279 169.519 178 168.805 175.172C168.092 172.356 167.027 167.924 169.891 165.604C172.754 163.295 174.026 160.923 173.685 158.914C173.344 156.906 172.362 149.677 176.021 147.389C179.681 145.1 181.314 143.951 181.821 140.368C182.327 136.785 182.089 131.183 186.131 129.702C190.163 128.221 191.424 126.264 191.931 122.681C192.437 119.098 196.986 113.63 207.81 112.356C210.198 119.429 209.691 123.012 206.766 127.32C204.815 130.192 204.191 133.24 204.894 136.464C205.949 141.29 203.447 144.821 200.573 147.534C197.699 150.247 197.255 151.831 197.947 155.456C198.64 159.08 199.302 163.492 195.239 166.174C191.166 168.856 189.874 172.014 190.132 176.819C190.391 181.624 190.442 182.421 190.442 182.421C190.442 182.421 188.22 187.558 184.581 189.049L167.658 187.547L167.637 187.537Z" fill="url(#paint0_linear_1692_91465)"/>
<path d="M175.432 187.175C175.618 187.175 175.783 187.061 175.835 186.875C175.938 186.471 185.976 146.519 201.762 118.964C201.876 118.777 201.804 118.529 201.617 118.415C201.431 118.301 201.183 118.373 201.07 118.56C185.232 146.209 175.163 186.274 175.06 186.667C175.008 186.885 175.132 187.102 175.349 187.154C175.38 187.154 175.411 187.165 175.432 187.165V187.175Z" fill="#15A3A5"/>
<path d="M196.18 188.738H183.413C183.413 188.738 183.175 186.801 184.508 184.13C185.842 181.458 186.173 181.789 185.842 179.118C185.511 176.446 185.511 174.437 188.178 171.092C190.846 167.747 191.848 168.752 192.52 166.411C193.192 164.071 192.851 162.062 196.862 160.395C200.863 158.728 201.204 159.39 203.871 156.387C206.538 153.384 207.541 152.038 216.886 152.038C217.558 157.381 215.884 162.394 211.211 165.076C206.538 167.747 206.207 169.083 205.877 171.755C205.546 174.427 204.543 175.762 202.207 177.44C199.87 179.107 200.201 180.443 199.54 184.119C198.868 187.795 196.2 188.727 196.2 188.727L196.18 188.738Z" fill="url(#paint1_linear_1692_91465)"/>
<path d="M189.502 187.796C189.657 187.796 189.791 187.692 189.822 187.537C189.853 187.402 193.358 173.391 211.407 156.957C211.542 156.833 211.552 156.626 211.428 156.481C211.304 156.346 211.097 156.336 210.953 156.46C192.737 173.05 189.202 187.236 189.171 187.371C189.13 187.547 189.243 187.734 189.419 187.775C189.45 187.775 189.471 187.775 189.502 187.775V187.796Z" fill="#15A3A5"/>
<path d="M193.234 186.47C193.234 186.47 193.213 186.47 193.203 186.46C193.14 186.418 193.12 186.335 193.161 186.273C198.144 178.175 208.782 170.461 213.082 170.606C213.154 170.606 213.216 170.668 213.216 170.751C213.216 170.823 213.154 170.885 213.072 170.885C208.833 170.74 198.33 178.393 193.389 186.418C193.358 186.47 193.296 186.491 193.234 186.48V186.47Z" fill="#15A3A5"/>
<path d="M213.01 169.922C212.782 170.451 212.121 170.668 212.121 170.668C212.121 170.668 211.831 170.036 212.059 169.508C212.286 168.98 212.948 168.763 212.948 168.763C212.948 168.763 213.237 169.394 213.01 169.922Z" fill="#15A3A5"/>
<path d="M206.662 172.542C206.59 173.112 206.021 173.515 206.021 173.515C206.021 173.515 205.556 172.987 205.628 172.418C205.701 171.848 206.269 171.444 206.269 171.444C206.269 171.444 206.735 171.972 206.662 172.542Z" fill="#15A3A5"/>
<path d="M210.187 172.149C210.684 172.449 210.808 173.133 210.808 173.133C210.808 173.133 210.146 173.34 209.65 173.04C209.154 172.739 209.03 172.056 209.03 172.056C209.03 172.056 209.691 171.849 210.187 172.149Z" fill="#15A3A5"/>
<path d="M204.067 176.074C204.564 176.374 204.688 177.058 204.688 177.058C204.688 177.058 204.026 177.265 203.53 176.964C203.034 176.664 202.91 175.981 202.91 175.981C202.91 175.981 203.571 175.774 204.067 176.074Z" fill="#15A3A5"/>
<path d="M155.242 129.308C183.475 113.423 195.146 65.674 192.055 45.5327C188.964 25.3914 161.889 -0.569692 124.384 10.2828C86.8682 21.1249 95.769 62.9712 72.5608 71.8769C49.3525 80.7825 33.5047 68.0039 18.8044 81.5592C4.1041 95.1145 0.237771 138.504 36.9782 144.313C73.7186 150.122 155.242 129.308 155.242 129.308Z" fill="#F0F7F7"/>
<path d="M114.832 18.8779H113.674C113.571 18.8779 113.478 18.7847 113.478 18.6811C113.478 18.5776 113.56 18.4844 113.674 18.4844H114.832C114.935 18.4844 115.028 18.5776 115.028 18.6811C115.028 18.7847 114.946 18.8779 114.832 18.8779Z" fill="#1F1312"/>
<path d="M157.816 19.1057H155.428C155.325 19.0953 155.232 19.0021 155.232 18.8986C155.232 18.795 155.315 18.7018 155.428 18.7018H157.816C157.92 18.7122 158.013 18.8054 158.013 18.9089C158.013 19.0125 157.93 19.1057 157.816 19.1057ZM153.04 19.0746H150.652C150.549 19.0643 150.456 18.9711 150.456 18.8675C150.456 18.764 150.538 18.6708 150.652 18.6708H153.04C153.144 18.6811 153.237 18.7743 153.237 18.8779C153.237 18.9814 153.154 19.0746 153.04 19.0746ZM148.264 19.0539H145.876C145.773 19.0436 145.68 18.9504 145.68 18.8468C145.68 18.7433 145.762 18.6501 145.876 18.6501H148.264C148.368 18.6604 148.461 18.7536 148.461 18.8572C148.461 18.9607 148.378 19.0539 148.264 19.0539ZM143.488 19.0229H141.1C140.997 19.0125 140.904 18.9193 140.904 18.8157C140.904 18.7122 140.986 18.619 141.1 18.619H143.488C143.591 18.6294 143.685 18.7225 143.685 18.8261C143.685 18.9297 143.602 19.0229 143.488 19.0229ZM138.712 18.9918H136.324C136.221 18.9814 136.128 18.8882 136.128 18.7847C136.128 18.6811 136.21 18.5879 136.324 18.5879H138.712C138.815 18.5983 138.908 18.6915 138.908 18.795C138.908 18.8986 138.826 18.9918 138.712 18.9918ZM133.936 18.9711H131.548C131.445 18.9607 131.352 18.8675 131.352 18.764C131.352 18.6604 131.434 18.5672 131.548 18.5672H133.936C134.039 18.5776 134.132 18.6708 134.132 18.7743C134.132 18.8779 134.05 18.9711 133.936 18.9711ZM129.16 18.94H126.772C126.669 18.9297 126.576 18.8365 126.576 18.7329C126.576 18.6294 126.658 18.5362 126.772 18.5362H129.16C129.263 18.5465 129.356 18.6397 129.356 18.7433C129.356 18.8468 129.274 18.94 129.16 18.94ZM124.384 18.9089H121.996C121.893 18.8986 121.799 18.8054 121.799 18.7018C121.799 18.5983 121.882 18.5051 121.996 18.5051H124.384C124.487 18.5154 124.58 18.6086 124.58 18.7122C124.58 18.8157 124.498 18.9089 124.384 18.9089ZM119.608 18.8882H117.22C117.116 18.8779 117.023 18.7847 117.023 18.6811C117.023 18.5776 117.106 18.4844 117.22 18.4844H119.608C119.711 18.4947 119.804 18.5879 119.804 18.6915C119.804 18.795 119.722 18.8882 119.608 18.8882Z" fill="#1F1312"/>
<path d="M161.703 20.234C161.62 20.234 161.548 20.1822 161.517 20.0993L161.228 19.1259H160.214C160.111 19.1259 160.018 19.0327 160.018 18.9292C160.018 18.8256 160.101 18.7324 160.214 18.7324H161.372C161.455 18.7324 161.527 18.7946 161.558 18.8774L161.889 19.9958C161.92 20.0993 161.858 20.2029 161.755 20.234C161.734 20.234 161.713 20.234 161.703 20.234Z" fill="#1F1312"/>
<path d="M171.752 53.8692C171.669 53.8692 171.597 53.8174 171.566 53.7345L170.935 51.6324C170.904 51.5288 170.966 51.4253 171.069 51.3942C171.173 51.3631 171.276 51.4253 171.307 51.5288L171.938 53.631C171.969 53.7345 171.907 53.8381 171.803 53.8692C171.783 53.8692 171.762 53.8692 171.752 53.8692ZM170.501 49.6649C170.418 49.6649 170.346 49.6131 170.315 49.5302L169.684 47.4281C169.653 47.3245 169.715 47.221 169.818 47.1899C169.922 47.1588 170.025 47.221 170.056 47.3245L170.687 49.4267C170.718 49.5302 170.656 49.6338 170.552 49.6649C170.532 49.6649 170.511 49.6649 170.501 49.6649ZM169.24 45.4606C169.157 45.4606 169.084 45.4088 169.053 45.3259L168.423 43.2238C168.392 43.1202 168.454 43.0167 168.557 42.9856C168.661 42.9545 168.764 43.0167 168.795 43.1202L169.426 45.2224C169.457 45.3259 169.395 45.4295 169.291 45.4606C169.271 45.4606 169.25 45.4606 169.24 45.4606ZM167.978 41.2562C167.896 41.2562 167.823 41.2045 167.792 41.1216L167.162 39.0195C167.131 38.9159 167.193 38.8124 167.296 38.7813C167.399 38.7502 167.503 38.8124 167.534 38.9159L168.164 41.0181C168.195 41.1216 168.133 41.2252 168.03 41.2562C168.009 41.2562 167.989 41.2562 167.978 41.2562ZM166.717 37.0519C166.634 37.0519 166.562 37.0002 166.531 36.9173L165.9 34.8152C165.869 34.7116 165.931 34.6081 166.035 34.577C166.138 34.5459 166.242 34.6081 166.273 34.7116L166.903 36.8138C166.934 36.9173 166.872 37.0209 166.769 37.0519C166.748 37.0519 166.727 37.0519 166.717 37.0519ZM165.456 32.8476C165.373 32.8476 165.301 32.7959 165.27 32.713L164.639 30.6109C164.608 30.5073 164.67 30.4038 164.774 30.3727C164.877 30.3416 164.98 30.4038 165.011 30.5073L165.642 32.6095C165.673 32.713 165.611 32.8166 165.508 32.8476C165.487 32.8476 165.466 32.8476 165.456 32.8476ZM164.205 28.6433C164.122 28.6433 164.05 28.5916 164.019 28.5087L163.388 26.4066C163.357 26.303 163.419 26.1995 163.523 26.1684C163.626 26.1373 163.73 26.1995 163.761 26.303L164.391 28.4052C164.422 28.5087 164.36 28.6123 164.257 28.6433C164.236 28.6433 164.215 28.6433 164.205 28.6433ZM162.944 24.439C162.861 24.439 162.789 24.3872 162.758 24.3044L162.127 22.2023C162.096 22.0987 162.158 21.9951 162.262 21.9641C162.365 21.933 162.468 21.9951 162.499 22.0987L163.13 24.2009C163.161 24.3044 163.099 24.408 162.996 24.439C162.975 24.439 162.954 24.439 162.944 24.439Z" fill="#1F1312"/>
<path d="M172.713 57.0894C172.63 57.0894 172.558 57.0377 172.527 56.9548L172.196 55.8468C172.165 55.7432 172.227 55.6397 172.33 55.6086C172.434 55.5775 172.537 55.6397 172.568 55.7432L172.899 56.8513C172.93 56.9548 172.868 57.0584 172.765 57.0894C172.744 57.0894 172.723 57.0894 172.713 57.0894Z" fill="#1F1312"/>
<path d="M161.776 0.694155L166.727 10.7493C166.903 11.1117 167.255 11.3706 167.658 11.4327L178.74 13.0482C179.753 13.1932 180.166 14.4462 179.422 15.171L171.41 22.9997C171.121 23.2897 170.987 23.6936 171.049 24.0974L172.94 35.1467C173.116 36.1615 172.051 36.9382 171.142 36.4515L161.238 31.2323C160.876 31.0459 160.442 31.0459 160.08 31.2323L150.177 36.4515C149.267 36.9278 148.202 36.1615 148.378 35.1467L150.27 24.0974C150.342 23.6936 150.208 23.2793 149.918 22.9997L141.906 15.171C141.172 14.4565 141.576 13.2035 142.589 13.0482L153.671 11.4327C154.074 11.3706 154.425 11.1221 154.601 10.7493L159.553 0.694155C160.008 -0.227479 161.321 -0.227479 161.776 0.694155Z" fill="#EDBD1D"/>
<path d="M173.747 50.1098L175.618 53.9206C175.69 54.0552 175.814 54.1587 175.969 54.1795L180.167 54.7904C180.549 54.8422 180.704 55.3185 180.425 55.5878L177.386 58.5494C177.272 58.653 177.22 58.8083 177.251 58.9637L177.965 63.1473C178.027 63.5304 177.623 63.8204 177.282 63.6443L173.53 61.6664C173.395 61.5939 173.23 61.5939 173.096 61.6664L169.343 63.6443C169.002 63.8307 168.599 63.5304 168.661 63.1473L169.374 58.9637C169.405 58.8083 169.353 58.653 169.24 58.5494L166.2 55.5878C165.921 55.3185 166.076 54.8422 166.459 54.7904L170.656 54.1795C170.811 54.1587 170.945 54.0655 171.007 53.9206L172.878 50.1098C173.054 49.7577 173.55 49.7577 173.716 50.1098H173.747Z" fill="#EDBD1D"/>
<path d="M112.837 10.4076L114.708 14.2184C114.78 14.353 114.904 14.4566 115.059 14.4773L119.256 15.0883C119.639 15.14 119.794 15.6164 119.515 15.8856L116.476 18.8473C116.362 18.9508 116.31 19.1062 116.341 19.2615L117.054 23.4451C117.116 23.8283 116.713 24.1182 116.372 23.9422L112.62 21.9643C112.485 21.8918 112.32 21.8918 112.185 21.9643L108.433 23.9422C108.092 24.1286 107.688 23.8283 107.75 23.4451L108.464 19.2615C108.495 19.1062 108.443 18.9508 108.329 18.8473L105.29 15.8856C105.011 15.6164 105.166 15.14 105.549 15.0883L109.746 14.4773C109.901 14.4566 110.035 14.3634 110.097 14.2184L111.968 10.4076C112.144 10.0555 112.64 10.0555 112.806 10.4076H112.837Z" fill="#EDBD1D"/>
<path d="M143.922 54.2834C143.054 53.6724 141.845 53.8795 141.224 54.7494L91.7581 124.99L82.4231 125.436C82.5161 126.74 82.5161 128.024 82.4851 129.308L92.8849 128.811C93.4845 128.78 94.0324 128.48 94.3735 127.993L144.388 56.9758C145.008 56.1059 144.791 54.8944 143.922 54.273V54.2834Z" fill="#DA3226"/>
<path d="M98.6533 138.7V125.528L110.645 126.688V135.211L98.6533 138.7Z" fill="#FD926D"/>
<path d="M58.0466 171.879V158.707L70.0384 159.877V168.4L58.0466 171.879Z" fill="#FD926D"/>
<path d="M110.573 132.114C110.573 132.114 106.252 138.182 98.9117 134.786C98.9117 134.786 98.0847 134.879 98.0847 137.271C98.0847 139.663 97.8986 147.119 98.9117 147.575C99.9248 148.03 126.472 147.575 126.472 147.575C126.472 147.575 127.847 146.104 127.847 143.981C127.847 141.858 127.02 140.025 124.539 139.653C121.241 139.166 119.308 138.451 119.308 138.451L110.583 132.104L110.573 132.114Z" fill="#6BB3B3"/>
<path d="M98.9015 147.575C98.4466 147.367 98.2399 145.762 98.1365 143.836C104.494 144.188 117.065 144.157 117.065 144.157C117.923 141.921 119.194 139.704 120.301 138.772C121.19 139.021 122.616 139.373 124.529 139.663C127.01 140.036 127.837 141.869 127.837 143.992C127.837 146.114 126.462 147.585 126.462 147.585C126.462 147.585 99.9146 148.041 98.9015 147.585V147.575Z" fill="#F8ECE9"/>
<path d="M110.573 132.114C110.573 132.114 109.839 129.836 109.498 129.836C109.157 129.836 106.738 130.799 107.017 131.7C107.296 132.601 109.839 134.807 109.839 134.807L111.359 133.699L110.573 132.114Z" fill="#C43919"/>
<path d="M127.889 144.634C127.982 144.634 128.054 144.561 128.054 144.468C128.054 144.375 127.982 144.302 127.889 144.292L98.1469 143.66C98.0538 143.66 97.9814 143.733 97.9814 143.826C97.9814 143.919 98.0538 143.992 98.1469 144.002L127.889 144.634Z" fill="#412016"/>
<path d="M118.791 140.699C118.853 140.699 118.915 140.657 118.946 140.595C118.978 140.512 118.947 140.409 118.853 140.378C118.595 140.274 117.768 139.932 117.489 139.901C117.055 139.694 112.124 136.132 108.878 133.771C108.805 133.719 108.702 133.729 108.64 133.812C108.588 133.885 108.598 133.988 108.681 134.04C117.179 140.233 117.386 140.233 117.458 140.233C117.582 140.233 118.213 140.461 118.729 140.678C118.75 140.678 118.771 140.688 118.791 140.688V140.699Z" fill="#412016"/>
<path d="M101.796 147.367C101.889 147.367 101.961 147.295 101.961 147.202V143.981C101.961 143.888 101.889 143.815 101.796 143.815C101.703 143.815 101.631 143.888 101.631 143.981V147.202C101.631 147.295 101.703 147.367 101.796 147.367Z" fill="#412016"/>
<path d="M103.13 147.647C103.223 147.647 103.295 147.575 103.295 147.482V144.075C103.295 143.982 103.223 143.909 103.13 143.909C103.037 143.909 102.964 143.982 102.964 144.075V147.482C102.964 147.575 103.037 147.647 103.13 147.647Z" fill="#412016"/>
<path d="M104.37 146.725C104.463 146.725 104.536 146.653 104.536 146.56V145.131C104.536 145.037 104.463 144.965 104.37 144.965C104.277 144.965 104.205 145.037 104.205 145.131V146.56C104.205 146.653 104.277 146.725 104.37 146.725Z" fill="#412016"/>
<path d="M106.986 147.917C107.079 147.917 107.151 147.844 107.151 147.751V144.023C107.151 143.93 107.079 143.857 106.986 143.857C106.893 143.857 106.82 143.93 106.82 144.023V147.751C106.82 147.844 106.893 147.917 106.986 147.917Z" fill="#412016"/>
<path d="M108.919 147.513C109.012 147.513 109.084 147.44 109.084 147.347V144.127C109.084 144.033 109.012 143.961 108.919 143.961C108.826 143.961 108.753 144.033 108.753 144.127V147.347C108.753 147.44 108.826 147.513 108.919 147.513Z" fill="#412016"/>
<path d="M118.43 147.689C118.523 147.689 118.595 147.617 118.595 147.523V144.21C118.595 144.116 118.523 144.044 118.43 144.044C118.337 144.044 118.264 144.116 118.264 144.21V147.523C118.264 147.617 118.337 147.689 118.43 147.689Z" fill="#412016"/>
<path d="M119.846 147.368C119.939 147.368 120.011 147.295 120.011 147.202V144.354C120.011 144.261 119.939 144.188 119.846 144.188C119.753 144.188 119.68 144.261 119.68 144.354V147.202C119.68 147.295 119.753 147.368 119.846 147.368Z" fill="#412016"/>
<path d="M121.272 147.554C121.365 147.554 121.438 147.481 121.438 147.388V144.354C121.438 144.261 121.365 144.188 121.272 144.188C121.179 144.188 121.107 144.261 121.107 144.354V147.388C121.107 147.481 121.179 147.554 121.272 147.554Z" fill="#412016"/>
<path d="M117.51 140.636C117.644 140.636 117.768 140.554 117.82 140.419C118.016 139.911 118.616 138.513 118.988 138.141C119.122 138.006 119.122 137.799 118.988 137.664C118.854 137.53 118.647 137.53 118.512 137.664C118.254 137.923 117.964 138.451 117.727 138.959L117.52 136.722C117.51 136.587 117.406 136.463 117.272 136.432C117.137 136.401 116.993 136.442 116.91 136.556L115.856 138.006L115.949 135.707C115.949 135.573 115.876 135.448 115.752 135.386C115.628 135.334 115.483 135.355 115.38 135.448L113.933 136.805L114.284 134.547C114.305 134.413 114.243 134.278 114.129 134.216C114.015 134.143 113.871 134.154 113.757 134.226L112.196 135.324L112.754 133.439C112.796 133.305 112.754 133.16 112.641 133.077C112.527 132.994 112.382 132.984 112.258 133.056L110.459 134.154L111.183 132.507C111.255 132.342 111.183 132.135 111.007 132.062C110.842 131.99 110.635 132.062 110.563 132.238L109.415 134.858C109.353 134.993 109.394 135.148 109.498 135.241C109.612 135.334 109.767 135.355 109.891 135.272L111.855 134.071L111.276 136.049C111.235 136.184 111.286 136.328 111.4 136.411C111.514 136.494 111.669 136.494 111.782 136.411L113.478 135.21L113.095 137.644C113.075 137.789 113.147 137.923 113.271 137.996C113.395 138.068 113.55 138.047 113.654 137.944L115.215 136.473L115.111 139.062C115.111 139.207 115.194 139.342 115.339 139.394C115.473 139.445 115.628 139.394 115.721 139.269L116.9 137.644L117.137 140.295C117.148 140.45 117.272 140.574 117.427 140.595C117.448 140.595 117.458 140.595 117.479 140.595L117.51 140.636Z" fill="white"/>
<path d="M99.0153 136.567C99.098 136.567 99.1704 136.505 99.1807 136.422C99.1911 136.329 99.129 136.246 99.0463 136.225C98.6225 136.153 98.3847 136.122 98.3847 136.122C98.2917 136.101 98.209 136.173 98.1986 136.267C98.1883 136.36 98.2503 136.443 98.3434 136.453C98.3434 136.453 98.5811 136.484 98.9946 136.557C98.9946 136.557 99.0153 136.557 99.0257 136.557L99.0153 136.567Z" fill="#412016"/>
<path d="M112.268 142.491C112.051 142.17 111.793 141.849 111.493 141.548C111.431 141.486 111.431 141.372 111.493 141.31C111.555 141.248 111.669 141.248 111.731 141.31C112.041 141.631 112.32 141.963 112.547 142.304C112.599 142.377 112.578 142.491 112.506 142.542C112.475 142.563 112.444 142.574 112.413 142.574C112.361 142.574 112.31 142.542 112.279 142.501L112.268 142.491ZM110.573 140.741C110.263 140.502 109.922 140.275 109.549 140.047C109.467 139.995 109.446 139.891 109.498 139.819C109.549 139.736 109.653 139.715 109.725 139.767C110.108 139.995 110.459 140.244 110.769 140.482C110.842 140.533 110.852 140.647 110.8 140.72C110.769 140.761 110.718 140.782 110.666 140.782C110.635 140.782 110.594 140.772 110.562 140.751L110.573 140.741ZM108.474 139.446C108.112 139.26 107.74 139.084 107.347 138.918C107.265 138.877 107.223 138.783 107.265 138.701C107.306 138.618 107.399 138.576 107.482 138.618C107.875 138.783 108.257 138.97 108.619 139.156C108.702 139.198 108.733 139.301 108.691 139.384C108.66 139.446 108.598 139.477 108.547 139.477C108.526 139.477 108.495 139.477 108.474 139.457V139.446ZM106.2 138.452C105.807 138.307 105.414 138.162 105.032 138.038C104.949 138.007 104.897 137.914 104.928 137.831C104.959 137.738 105.052 137.696 105.135 137.727C105.528 137.862 105.931 137.996 106.324 138.141C106.407 138.172 106.458 138.276 106.417 138.359C106.396 138.421 106.324 138.473 106.262 138.473C106.241 138.473 106.221 138.473 106.2 138.462V138.452ZM103.833 137.665C103.419 137.541 103.016 137.437 102.633 137.334C102.54 137.313 102.489 137.22 102.509 137.127C102.53 137.033 102.623 136.982 102.716 137.002C103.109 137.106 103.512 137.209 103.926 137.334C104.019 137.365 104.07 137.448 104.039 137.541C104.019 137.613 103.946 137.665 103.874 137.665C103.864 137.665 103.843 137.665 103.833 137.665ZM101.424 137.044C100.979 136.94 100.576 136.857 100.204 136.785C100.111 136.764 100.059 136.681 100.07 136.588C100.09 136.495 100.173 136.443 100.266 136.453C100.638 136.526 101.052 136.609 101.496 136.712C101.589 136.733 101.641 136.826 101.62 136.909C101.6 136.992 101.538 137.044 101.455 137.044C101.445 137.044 101.434 137.044 101.414 137.044H101.424Z" fill="#412016"/>
<path d="M113.147 144.333C113.147 144.333 113.168 144.333 113.178 144.333C113.271 144.312 113.333 144.23 113.312 144.136C113.271 143.909 113.209 143.681 113.137 143.463C113.106 143.38 113.013 143.329 112.92 143.36C112.837 143.391 112.785 143.484 112.816 143.577C112.889 143.784 112.94 143.991 112.982 144.198C112.992 144.281 113.064 144.333 113.147 144.333Z" fill="#412016"/>
<path d="M101.961 142.221C102.241 142.221 102.478 141.994 102.478 141.714C102.478 141.434 102.251 141.196 101.961 141.196C101.672 141.196 101.455 141.424 101.455 141.714C101.455 142.004 101.682 142.221 101.961 142.221Z" fill="#412016"/>
<path d="M104.484 142.221C104.763 142.221 104.99 141.994 104.99 141.714C104.99 141.434 104.763 141.196 104.484 141.196C104.205 141.196 103.977 141.424 103.977 141.714C103.977 142.004 104.205 142.221 104.484 142.221Z" fill="#412016"/>
<path d="M69.9658 164.848C69.9658 164.848 65.6446 170.917 58.3048 167.52C58.3048 167.52 57.4778 167.613 57.4778 170.005C57.4778 172.397 57.2917 179.853 58.3048 180.309C59.3179 180.765 85.8653 180.309 85.8653 180.309C85.8653 180.309 87.2402 178.838 87.2402 176.716C87.2402 174.593 86.4132 172.76 83.9321 172.387C80.6344 171.9 78.7012 171.186 78.7012 171.186L69.9761 164.838L69.9658 164.848Z" fill="#6BB3B3"/>
<path d="M58.3048 180.309C57.8499 180.102 57.6432 178.497 57.5398 176.571C63.8975 176.923 76.4682 176.892 76.4682 176.892C77.3263 174.655 78.5978 172.439 79.704 171.507C80.593 171.755 82.0196 172.107 83.9321 172.387C86.4132 172.76 87.2402 174.593 87.2402 176.716C87.2402 178.838 85.8653 180.309 85.8653 180.309C85.8653 180.309 59.3179 180.765 58.3048 180.309Z" fill="#F8ECE9"/>
<path d="M69.966 164.849C69.966 164.849 69.232 162.57 68.8909 162.57C68.5497 162.57 66.1307 163.533 66.4098 164.434C66.6889 165.335 69.232 167.541 69.232 167.541L70.7517 166.433L69.966 164.849Z" fill="#C43919"/>
<path d="M87.2817 177.368C87.3747 177.368 87.4471 177.295 87.4471 177.202C87.4471 177.109 87.3747 177.037 87.2817 177.026L57.5399 176.395C57.4469 176.395 57.3745 176.467 57.3745 176.56C57.3745 176.653 57.4469 176.726 57.5399 176.736L87.2817 177.368Z" fill="#412016"/>
<path d="M78.1845 173.433C78.2465 173.433 78.3086 173.392 78.3396 173.33C78.3706 173.247 78.3396 173.143 78.2465 173.112C77.9881 173.009 77.1611 172.667 76.8819 172.646C76.4478 172.439 71.5166 168.877 68.2706 166.516C68.1982 166.464 68.0948 166.475 68.0328 166.557C67.9811 166.63 67.9915 166.733 68.0742 166.796C76.5718 172.988 76.7786 172.988 76.8509 172.988C76.975 172.988 77.6056 173.216 78.1225 173.433C78.1431 173.433 78.1638 173.444 78.1845 173.444V173.433Z" fill="#412016"/>
<path d="M61.1891 180.102C61.2821 180.102 61.3545 180.029 61.3545 179.936V176.715C61.3545 176.622 61.2821 176.55 61.1891 176.55C61.096 176.55 61.0237 176.622 61.0237 176.715V179.936C61.0237 180.029 61.096 180.102 61.1891 180.102Z" fill="#412016"/>
<path d="M62.5228 180.382C62.6159 180.382 62.6882 180.309 62.6882 180.216V176.809C62.6882 176.716 62.6159 176.644 62.5228 176.644C62.4298 176.644 62.3574 176.716 62.3574 176.809V180.216C62.3574 180.309 62.4298 180.382 62.5228 180.382Z" fill="#412016"/>
<path d="M63.7633 179.46C63.8563 179.46 63.9287 179.387 63.9287 179.294V177.865C63.9287 177.772 63.8563 177.699 63.7633 177.699C63.6703 177.699 63.5979 177.772 63.5979 177.865V179.294C63.5979 179.387 63.6703 179.46 63.7633 179.46Z" fill="#412016"/>
<path d="M66.389 180.651C66.4821 180.651 66.5544 180.579 66.5544 180.485V176.757C66.5544 176.664 66.4821 176.592 66.389 176.592C66.296 176.592 66.2236 176.664 66.2236 176.757V180.485C66.2236 180.579 66.296 180.651 66.389 180.651Z" fill="#412016"/>
<path d="M68.3119 180.247C68.4049 180.247 68.4773 180.175 68.4773 180.082V176.861C68.4773 176.768 68.4049 176.695 68.3119 176.695C68.2189 176.695 68.1465 176.768 68.1465 176.861V180.082C68.1465 180.175 68.2189 180.247 68.3119 180.247Z" fill="#412016"/>
<path d="M77.8226 180.423C77.9157 180.423 77.988 180.351 77.988 180.258V176.944C77.988 176.851 77.9157 176.778 77.8226 176.778C77.7296 176.778 77.6572 176.851 77.6572 176.944V180.258C77.6572 180.351 77.7296 180.423 77.8226 180.423Z" fill="#412016"/>
<path d="M79.2389 180.102C79.3319 180.102 79.4043 180.029 79.4043 179.936V177.089C79.4043 176.995 79.3319 176.923 79.2389 176.923C79.1459 176.923 79.0735 176.995 79.0735 177.089V179.936C79.0735 180.029 79.1459 180.102 79.2389 180.102Z" fill="#412016"/>
<path d="M80.6654 180.288C80.7584 180.288 80.8308 180.216 80.8308 180.123V177.089C80.8308 176.995 80.7584 176.923 80.6654 176.923C80.5724 176.923 80.5 176.995 80.5 177.089V180.123C80.5 180.216 80.5724 180.288 80.6654 180.288Z" fill="#412016"/>
<path d="M76.9027 173.371C77.0371 173.371 77.1611 173.288 77.2128 173.153C77.4092 172.646 78.0088 171.248 78.381 170.875C78.5154 170.74 78.5154 170.533 78.381 170.399C78.2466 170.264 78.0398 170.264 77.9054 170.399C77.647 170.658 77.3575 171.186 77.1198 171.693L76.913 169.456C76.9027 169.322 76.7993 169.197 76.6649 169.166C76.5305 169.135 76.3858 169.177 76.3031 169.291L75.2486 170.74L75.3417 168.442C75.3417 168.307 75.2693 168.183 75.1452 168.121C75.0212 168.069 74.8765 168.089 74.7731 168.183L73.3258 169.539L73.6773 167.282C73.698 167.147 73.6359 167.012 73.5222 166.95C73.4085 166.878 73.2638 166.888 73.1501 166.961L71.5891 168.058L72.1473 166.174C72.1886 166.039 72.1473 165.894 72.0336 165.811C71.9199 165.728 71.7751 165.718 71.6511 165.791L69.8523 166.888L70.576 165.242C70.6483 165.076 70.576 164.869 70.4002 164.796C70.2348 164.724 70.0281 164.796 69.9557 164.972L68.8082 167.592C68.7462 167.727 68.7875 167.882 68.8909 167.976C69.0046 168.069 69.1597 168.089 69.2837 168.007L71.2479 166.805L70.669 168.783C70.6276 168.918 70.6793 169.063 70.7931 169.146C70.9068 169.229 71.0618 169.229 71.1755 169.146L72.8709 167.944L72.4884 170.378C72.4678 170.523 72.5401 170.658 72.6642 170.73C72.7882 170.803 72.9433 170.782 73.0467 170.678L74.6077 169.208L74.5043 171.797C74.5043 171.942 74.587 172.076 74.7317 172.128C74.8661 172.18 75.0212 172.128 75.1142 172.004L76.2927 170.378L76.5305 173.029C76.5408 173.184 76.6649 173.309 76.82 173.329C76.8406 173.329 76.851 173.329 76.8717 173.329L76.9027 173.371Z" fill="white"/>
<path d="M58.4084 169.301C58.4911 169.301 58.5634 169.239 58.5738 169.156C58.5841 169.063 58.5221 168.98 58.4394 168.96C58.0155 168.887 57.7778 168.856 57.7778 168.856C57.6847 168.835 57.602 168.908 57.5917 169.001C57.5814 169.094 57.6434 169.177 57.7364 169.187C57.7364 169.187 57.9742 169.219 58.3877 169.291C58.3877 169.291 58.4084 169.291 58.4187 169.291L58.4084 169.301Z" fill="#412016"/>
<path d="M71.6716 175.225C71.4545 174.904 71.1961 174.583 70.8963 174.283C70.8343 174.221 70.8343 174.107 70.8963 174.045C70.9583 173.982 71.072 173.982 71.1341 174.045C71.4442 174.366 71.7233 174.697 71.9507 175.039C72.0024 175.111 71.9818 175.225 71.9094 175.266C71.8784 175.287 71.8474 175.298 71.8164 175.298C71.7647 175.298 71.713 175.266 71.682 175.225H71.6716ZM69.9762 173.475C69.6661 173.237 69.325 173.009 68.9528 172.781C68.8701 172.729 68.8494 172.626 68.9011 172.553C68.9528 172.471 69.0562 172.45 69.1285 172.502C69.511 172.729 69.8625 172.978 70.1727 173.216C70.245 173.268 70.2554 173.382 70.2037 173.454C70.1727 173.496 70.121 173.516 70.0693 173.516C70.0383 173.516 69.9969 173.506 69.9659 173.485L69.9762 173.475ZM67.8777 172.181C67.5159 171.994 67.1437 171.818 66.7509 171.652C66.6682 171.611 66.6268 171.518 66.6681 171.435C66.7095 171.352 66.8025 171.311 66.8852 171.352C67.2781 171.518 67.6606 171.704 68.0224 171.891C68.1051 171.932 68.1361 172.036 68.0948 172.118C68.0638 172.181 68.0017 172.212 67.95 172.212C67.9294 172.212 67.8983 172.212 67.8777 172.191V172.181ZM65.6034 171.186C65.2105 171.041 64.8177 170.896 64.4352 170.772C64.3525 170.741 64.3008 170.648 64.3318 170.565C64.3628 170.472 64.4559 170.43 64.5386 170.462C64.9314 170.596 65.3346 170.731 65.7274 170.876C65.8101 170.907 65.8618 171.01 65.8205 171.093C65.7998 171.155 65.7274 171.197 65.6654 171.197C65.6447 171.197 65.624 171.197 65.6034 171.186ZM63.236 170.399C62.8225 170.275 62.4193 170.172 62.0368 170.068C61.9438 170.047 61.8921 169.954 61.9128 169.861C61.9335 169.768 62.0265 169.716 62.1195 169.737C62.5124 169.84 62.9155 169.944 63.3291 170.068C63.4221 170.099 63.4738 170.182 63.4428 170.275C63.4221 170.348 63.3497 170.399 63.2774 170.399C63.267 170.399 63.2463 170.399 63.236 170.399ZM60.817 169.778C60.3725 169.675 59.9693 169.592 59.5971 169.519C59.5041 169.498 59.4524 169.416 59.4627 169.322C59.4834 169.229 59.5661 169.177 59.6591 169.188C60.0313 169.26 60.4448 169.343 60.8893 169.447C60.9824 169.467 61.0341 169.561 61.0134 169.643C60.9927 169.726 60.9307 169.778 60.848 169.778C60.8377 169.778 60.8273 169.778 60.8066 169.778H60.817Z" fill="#412016"/>
<path d="M72.5401 177.067C72.5401 177.067 72.5608 177.067 72.5711 177.067C72.6642 177.047 72.7262 176.964 72.7055 176.871C72.6642 176.643 72.6021 176.415 72.5298 176.198C72.4988 176.115 72.4057 176.063 72.3127 176.094C72.23 176.125 72.1783 176.218 72.2093 176.312C72.2817 176.519 72.3333 176.726 72.3747 176.933C72.385 177.016 72.4574 177.067 72.5401 177.067Z" fill="#412016"/>
<path d="M61.3544 174.956C61.6336 174.956 61.8713 174.728 61.8713 174.448C61.8713 174.169 61.6439 173.931 61.3544 173.931C61.065 173.931 60.8479 174.158 60.8479 174.448C60.8479 174.738 61.0753 174.956 61.3544 174.956Z" fill="#412016"/>
<path d="M63.8769 174.956C64.156 174.956 64.3835 174.728 64.3835 174.448C64.3835 174.169 64.156 173.931 63.8769 173.931C63.5978 173.931 63.3704 174.158 63.3704 174.448C63.3704 174.738 63.5978 174.956 63.8769 174.956Z" fill="#412016"/>
<path d="M85.6999 88.342C85.6999 88.342 108.619 84.6658 111.224 87.3686C116.444 92.7949 116.062 133.077 116.062 133.077L96.1411 134.051L94.0115 105.967C94.0115 105.967 80.4794 107.903 77.192 109.063C77.192 109.063 73.7081 163.295 73.9046 165.625C73.9046 165.625 55.5344 166.401 53.7976 166.008C53.7976 166.008 55.5344 114.096 55.5344 108.68C55.5344 103.264 55.7928 95.1766 55.7928 95.1766L79.1251 84.0859L85.6999 88.342Z" fill="#AA9ABC"/>
<path d="M77.1922 109.157C73.76 109.064 69.3871 106.029 67.9295 103.492C66.4926 100.997 65.221 95.9639 65.2107 95.9121L65.3968 95.8604C65.3968 95.8604 66.6683 100.914 68.0949 103.389C69.5319 105.884 73.822 108.856 77.2025 108.96V109.157H77.1922Z" fill="#231714"/>
<path d="M107.265 130.178C107.265 129.836 106.293 96.2843 105.724 94.9588C105.425 94.265 99.9043 95.4663 95.4797 96.4397C91.7891 97.2474 88.295 98.0137 87.0544 97.9308C84.1392 97.7341 79.8283 94.0165 78.6602 90.7028L78.8462 90.6406C79.9937 93.9026 84.2219 97.5477 87.0751 97.7444C88.3053 97.8273 91.7684 97.0713 95.4487 96.2636C101.734 94.8864 105.58 94.1097 105.921 94.8967C106.5 96.2533 107.43 128.8 107.472 130.188H107.275L107.265 130.178Z" fill="#231714"/>
<path d="M94.0427 106.06L93.991 105.874L101.341 103.938L101.393 104.124L94.0427 106.06Z" fill="#231714"/>
<path d="M72.3229 104.32L72.2919 104.289C72.2919 104.289 68.4876 100.53 67.3401 95.8184L67.5262 95.777C68.6116 100.219 72.0438 103.771 72.4056 104.123L78.1224 103.833L81.8853 99.7845C79.4146 98.2312 77.4814 92.3907 77.3987 92.1422L77.5848 92.0801C77.6055 92.1422 79.6317 98.2623 82.0817 99.681L82.1851 99.7431L78.2051 104.03H78.1637L72.3229 104.32Z" fill="#231714"/>
<path d="M96.7926 131.628L96.7822 131.431L114.956 130.271L114.966 130.468L96.7926 131.628Z" fill="#231714"/>
<path d="M68.9115 164.072H68.7151L69.8833 109.882L69.9556 109.871L76.7889 108.836L76.8199 109.033L70.0693 110.048L68.9115 164.072Z" fill="#231714"/>
<path d="M57.5917 109.56L55.2244 107.976L55.3277 107.821L57.6021 109.343L63.0501 106.682L62.9157 96.668H63.1121L63.2361 106.796L63.1844 106.827L57.5917 109.56Z" fill="#231714"/>
<path d="M105.425 48.6288C104.174 49.2604 101.393 52.9366 102.447 55.5462C106.303 53.91 109.88 52.2428 113.054 50.6688C112.382 47.1065 108.257 47.2101 105.425 48.6288Z" fill="#FD6238"/>
<path d="M105.424 48.6295C108.257 47.2108 112.382 47.1073 113.054 50.6696C121.427 46.517 126.979 43.048 127.413 42.7787L120.828 32.2783C120.642 32.3922 102.189 43.9075 81.9268 49.779L85.3692 61.6877C91.3755 59.948 97.175 57.7837 102.458 55.547C101.413 52.9374 104.184 49.2612 105.435 48.6295H105.424Z" fill="#FD926D"/>
<path d="M39.8625 85.7842C38.684 90.1645 37.6296 94.8659 36.8853 99.6294C41.8164 97.2787 46.5201 89.3361 39.8625 85.7842Z" fill="#FD6238"/>
<path d="M59.101 67.921L47.7294 63.0332C46.1581 66.7094 42.6639 75.3665 39.8624 85.7737C46.5303 89.3256 41.8266 97.2682 36.8851 99.6189C36.1408 104.434 35.717 109.322 35.8203 114.034L48.1946 113.764C47.7915 95.3525 57.2092 72.3427 59.101 67.921Z" fill="#FD926D"/>
<path d="M9.13866 79.084H4.2489C4.15586 79.084 4.0835 79.0115 4.0835 78.9183V74.0202C4.0835 73.927 4.15586 73.8545 4.2489 73.8545H9.13866C9.2317 73.8545 9.30407 73.927 9.30407 74.0202V78.9183C9.30407 79.0115 9.2317 79.084 9.13866 79.084ZM4.42464 78.7423H8.97326V74.1859H4.4143V78.7423H4.42464Z" fill="#C4B1D9"/>
<path d="M6.33715 77.9964C6.33715 77.9964 6.24411 77.9757 6.2131 77.9447L4.87953 76.526C4.8175 76.4535 4.8175 76.3499 4.87953 76.2878C4.95189 76.2257 5.05527 76.2257 5.1173 76.2878L6.31648 77.5615L8.48741 74.6723C8.54943 74.5999 8.65281 74.5791 8.72518 74.6413C8.79754 74.6931 8.81822 74.807 8.75619 74.8795L6.46121 77.9343C6.46121 77.9343 6.38884 77.9964 6.33715 78.0068V77.9964Z" fill="#C4B1D9"/>
<path d="M194.97 81.3623H190.08C189.987 81.3623 189.915 81.2898 189.915 81.1966V76.2985C189.915 76.2053 189.987 76.1328 190.08 76.1328H194.97C195.063 76.1328 195.136 76.2053 195.136 76.2985V81.1966C195.136 81.2898 195.063 81.3623 194.97 81.3623ZM190.256 81.0206H194.805V76.4642H190.256V81.0206Z" fill="#C4B1D9"/>
<path d="M192.179 80.2748C192.179 80.2748 192.086 80.2541 192.055 80.223L190.721 78.8043C190.659 78.7318 190.659 78.6283 190.721 78.5661C190.794 78.504 190.897 78.504 190.959 78.5661L192.158 79.8398L194.329 76.9507C194.391 76.8782 194.495 76.8575 194.567 76.9196C194.639 76.9714 194.66 77.0853 194.598 77.1578L192.303 80.2126C192.303 80.2126 192.231 80.2748 192.179 80.2851V80.2748Z" fill="#C4B1D9"/>
<path d="M86.2583 24.957H81.3685C81.2755 24.957 81.2031 24.8845 81.2031 24.7913V19.8932C81.2031 19.8 81.2755 19.7275 81.3685 19.7275H86.2583C86.3513 19.7275 86.4237 19.8 86.4237 19.8932V24.7913C86.4237 24.8845 86.3513 24.957 86.2583 24.957ZM81.5443 24.6153H86.0929V20.0589H81.5443V24.6153Z" fill="#C4B1D9"/>
<path d="M83.4568 23.8695C83.4568 23.8695 83.3637 23.8488 83.3327 23.8177L81.9992 22.399C81.9371 22.3265 81.9371 22.223 81.9992 22.1608C82.0612 22.0987 82.1749 22.0987 82.2369 22.1608L83.4361 23.4346L85.607 20.5454C85.6691 20.4729 85.7724 20.4522 85.8448 20.5143C85.9172 20.5661 85.9378 20.68 85.8758 20.7525L83.5808 23.8074C83.5808 23.8074 83.5085 23.8695 83.4568 23.8798V23.8695Z" fill="#C4B1D9"/>
<path d="M85.297 154.037C85.297 154.037 85.2453 154.037 85.2246 154.016L83.7463 153.239L82.268 154.016C82.2163 154.037 82.1543 154.037 82.1129 154.006C82.0716 153.975 82.0406 153.912 82.0509 153.861L82.33 152.214L81.1309 151.044C81.1309 151.044 81.0792 150.951 81.0895 150.889C81.1102 150.837 81.1515 150.796 81.2135 150.785L82.8676 150.547L83.6016 149.045C83.6533 148.942 83.8187 148.942 83.8704 149.045L84.6043 150.547L86.2584 150.785C86.3101 150.785 86.3618 150.837 86.3824 150.889C86.4031 150.94 86.3824 151.003 86.3411 151.044L85.1419 152.214L85.421 153.861C85.421 153.912 85.4107 153.975 85.359 154.006C85.3383 154.026 85.3073 154.037 85.2763 154.037H85.297ZM83.7566 152.929C83.7566 152.929 83.8083 152.929 83.829 152.949L85.1109 153.623L84.8628 152.193C84.8628 152.193 84.8628 152.1 84.9041 152.059L85.9379 151.044L84.501 150.837C84.501 150.837 84.4079 150.796 84.3872 150.754L83.7463 149.449L83.1054 150.754C83.1054 150.754 83.0433 150.827 82.9916 150.837L81.5547 151.044L82.5885 152.059C82.5885 152.059 82.6402 152.142 82.6298 152.193L82.3817 153.623L83.6636 152.949C83.6636 152.949 83.705 152.929 83.736 152.929H83.7566Z" fill="#C4B1D9"/>
<path d="M108.35 74.7245C108.35 74.7245 108.288 74.7245 108.257 74.7038L106.324 73.6786L104.391 74.7038C104.318 74.7348 104.246 74.7348 104.184 74.6934C104.122 74.652 104.091 74.5795 104.112 74.507L104.484 72.3427L102.912 70.8101C102.861 70.7584 102.84 70.6859 102.861 70.6134C102.881 70.5409 102.943 70.4891 103.016 70.4788L105.187 70.1681L106.158 68.2006C106.22 68.066 106.438 68.066 106.51 68.2006L107.482 70.1681L109.653 70.4788C109.725 70.4891 109.787 70.5409 109.808 70.6134C109.828 70.6859 109.808 70.7584 109.756 70.8101L108.185 72.3427L108.557 74.507C108.567 74.5795 108.536 74.652 108.484 74.6934C108.453 74.7141 108.412 74.7348 108.371 74.7348L108.35 74.7245ZM106.324 73.2747C106.324 73.2747 106.386 73.2747 106.417 73.2954L108.102 74.186L107.781 72.3117C107.771 72.2495 107.781 72.1874 107.833 72.146L109.198 70.8205L107.316 70.5513C107.254 70.5513 107.203 70.4995 107.172 70.4477L106.334 68.7391L105.497 70.4477C105.466 70.5098 105.414 70.5409 105.352 70.5513L103.471 70.8205L104.835 72.146C104.835 72.146 104.897 72.2495 104.887 72.3117L104.566 74.186L106.251 73.2954C106.251 73.2954 106.314 73.2747 106.345 73.2747H106.324Z" fill="#C4B1D9"/>
<path d="M68.2292 33.0752C70.1003 33.7897 71.5683 36.5339 71.9818 36.9895C72.3953 37.4452 73.4394 37.2484 73.9356 37.6834C74.4319 38.1079 73.7806 39.7027 73.7806 39.7027C73.7806 39.7027 75.8688 43.2546 74.742 44.4247C73.6048 45.5949 71.6613 45.16 71.0824 45.9573C70.5035 46.7547 71.0411 48.7947 71.2582 49.4057C71.2582 49.4057 70.3381 52.8955 63.6186 51.0419C63.6186 51.0419 63.4842 48.9501 63.3601 48.5669C63.2257 48.1838 61.2822 42.3537 61.2822 42.3537L68.2292 33.0752Z" fill="#FD926D"/>
<path d="M69.1182 34.6496C68.2601 36.4929 69.2732 39.6513 68.8804 40.0034C68.4876 40.3554 67.7122 40.459 67.7536 41.422C67.7949 42.3955 67.6812 42.9443 67.8363 43.752C67.9914 44.5597 67.888 47.4593 66.9576 47.8735C66.0272 48.2877 65.4483 47.4593 65.1071 47.8321C64.766 48.2049 63.7632 49.375 63.1533 49.1161C62.5433 48.8572 59.6074 42.002 59.6074 42.002L60.0313 36.3272L66.2133 32.5889L69.1182 34.66V34.6496Z" fill="#231714"/>
<path d="M71.434 37.6423C71.1963 37.3213 70.8965 37.1349 70.7621 37.2281C70.6277 37.3213 70.7207 37.663 70.9585 37.9944C71.1963 38.3154 71.4961 38.5018 71.6305 38.4086C71.7648 38.3154 71.6718 37.9737 71.434 37.6423Z" fill="#231714"/>
<path d="M70.8137 36.379C70.8137 36.379 70.7413 36.4618 70.6793 36.4825C70.6483 36.4825 70.028 36.6896 69.6972 37.5388C69.6455 37.663 69.5111 37.7252 69.3871 37.6734C69.263 37.6216 69.201 37.487 69.2527 37.3627C69.6765 36.2858 70.5139 36.0269 70.5449 36.0165C70.6689 35.9751 70.8033 36.0476 70.8447 36.1822C70.8653 36.2547 70.8447 36.3168 70.824 36.379H70.8137Z" fill="#231714"/>
<path d="M71.9715 39.0299C72.1989 39.1024 72.416 39.2681 72.2816 39.5166C72.2403 39.5891 72.1679 39.6409 72.0852 39.6719C71.7234 39.848 71.2479 39.8998 70.8447 39.879C70.7 39.879 70.4519 39.8273 70.4829 39.6202C70.4932 39.5166 70.5759 39.4441 70.6483 39.3716C70.9274 39.1231 71.2996 38.9885 71.6717 38.9678C71.7544 38.9678 71.8681 38.9781 71.9715 39.0195V39.0299Z" fill="#FD6238"/>
<path d="M71.0927 45.9576C71.1858 45.823 71.3201 45.7298 71.4856 45.6469C70.6275 45.6469 69.9762 45.2845 69.2939 44.9531L70.8446 46.9207C70.8549 46.5375 70.9273 46.1854 71.1031 45.9472L71.0927 45.9576Z" fill="#231714"/>
<path d="M83.3844 65.5498C84.4182 74.3312 84.6766 82.7191 85.3176 84.4071C85.9585 86.0846 86.6098 88.1557 86.6098 88.1557C86.6098 88.1557 71.2685 98.2316 62.1196 97.9727L52.9707 97.7138L61.7371 71.6285L66.2444 60.2686L83.3844 65.5602V65.5498Z" fill="white"/>
<path d="M71.3926 49.4055C74.1011 48.7635 80.0246 48.37 83.3844 47.9868C86.7442 47.6037 93.8255 45.1494 93.8255 45.1494C93.8255 45.1494 98.3328 54.4486 98.4672 60.6411C98.4672 60.6411 87.2507 65.1561 83.3844 65.5496C83.3844 65.5496 83.3844 73.1712 82.485 75.8843C81.5856 78.5974 78.6187 87.8966 77.9777 90.8583C77.3368 93.8199 77.4609 97.0612 77.4609 97.0612C77.4609 97.0612 67.1438 95.6425 64.0528 95.3836C60.9618 95.1247 53.0948 101.069 47.8122 99.8986C42.5296 98.7388 42.1367 97.7032 42.1367 97.7032C42.1367 97.7032 45.7446 91.1172 47.6778 87.8863C49.6109 84.6554 52.185 72.6534 52.3194 70.4581C52.4435 68.2627 54.6351 55.4841 54.6351 55.4841C54.6351 55.4841 61.8508 50.9588 64.3009 50.3789C66.7509 49.799 71.3926 49.4159 71.3926 49.4159V49.4055Z" fill="#63329A"/>
<path d="M54.635 55.4736C47.8017 59.6054 46.6439 64.3793 43.9354 70.1991C41.2269 76.0084 37.8774 80.9169 37.8774 80.9169C37.8774 80.9169 40.3275 81.4347 45.0932 82.4702C49.8589 83.5058 53.7252 82.4702 53.7252 82.4702L57.3331 72.2701L54.6246 55.484L54.635 55.4736Z" fill="#63329A"/>
<path d="M81.4099 56.6546L81.2961 56.4993C81.2961 56.4993 84.2321 54.3143 87.8503 49.4473L88.0053 49.5612C84.3665 54.4593 81.4409 56.6339 81.4099 56.6546Z" fill="#231714"/>
<path d="M81.4824 52.5951L81.3997 52.419C81.3997 52.419 84.7904 50.8553 86.4031 49.623L86.5169 49.7784C84.8835 51.0314 81.503 52.5847 81.472 52.5951H81.4824Z" fill="#231714"/>
<path d="M60.755 44.373C59.163 42.2915 57.0851 42.7782 56.837 40.5C56.5992 38.2218 57.6123 39.0917 58.4807 36.9688C59.349 34.8356 57.7053 32.9509 60.4138 32.1225C63.1223 31.3044 64.3318 33.4273 66.265 31.4494C68.1982 29.4612 69.0252 27.5765 69.6971 28.6845C70.3691 29.8029 69.356 31.1077 69.356 31.1077C69.356 31.1077 70.1727 30.0411 70.9997 30.1343C71.8267 30.2275 72.6434 31.7808 70.855 33.2823C69.0665 34.7838 67.857 37.2484 67.857 37.2484L60.755 44.3626V44.373Z" fill="#231714"/>
<path d="M68.653 40.1993C68.653 40.1993 66.8542 38.9463 65.8515 39.6298C64.8384 40.3132 65.469 43.0471 66.8439 43.337C68.2188 43.6166 69.387 42.2601 69.387 42.2601L68.653 40.2097V40.1993Z" fill="#FD926D"/>
<path d="M67.0195 42.654C67.0195 42.654 67.0092 42.654 66.9989 42.654C66.9989 42.654 66.0788 42.4158 66.0271 41.3699C66.0064 40.935 66.0788 40.6554 66.2545 40.4793C66.482 40.2515 66.8645 40.2101 67.5674 40.3033C67.5985 40.3033 67.6191 40.3343 67.6191 40.3654C67.6191 40.3965 67.5985 40.4172 67.5674 40.4172C66.9058 40.324 66.5337 40.3654 66.3269 40.5622C66.1718 40.7175 66.0995 40.9764 66.1202 41.3802C66.1718 42.3329 66.9678 42.54 66.9989 42.5504C67.0299 42.5504 67.0506 42.5918 67.0506 42.6229C67.0506 42.6436 67.0299 42.6643 67.0092 42.6643L67.0195 42.654Z" fill="#231714"/>
<path d="M174.264 83.4961H130.173V187.309H174.264V83.4961Z" fill="#6DBFBF"/>
<path d="M134.815 147.026H90.7241V187.309H134.815V147.026Z" fill="#6DD4D4"/>
<path d="M96.1516 180.309H52.061V187.205H96.1516V180.309Z" fill="#15A3A5"/>
<path d="M82.4231 125.436L60.2176 126.492C59.7937 126.513 59.3906 126.668 59.0598 126.947L19.094 160.779C18.2773 161.472 18.1739 162.694 18.8665 163.512C19.249 163.968 19.7969 164.196 20.3448 164.196C20.7894 164.196 21.2339 164.041 21.5957 163.74L61.0549 130.334L82.4851 129.308C82.5161 128.024 82.5161 126.73 82.4231 125.436Z" fill="#DA3226"/>
<path d="M143.323 69.8367C143.323 69.8367 143.271 69.8367 143.25 69.8367C142.186 69.7953 141.348 68.8944 141.39 67.8278L141.793 57.4827L131.155 61.7802C130.163 62.1841 129.036 61.6974 128.633 60.7136C128.23 59.7195 128.716 58.5907 129.698 58.1972L143.106 52.771C143.716 52.5224 144.408 52.6053 144.946 52.9781C145.483 53.3509 145.793 53.9826 145.762 54.6349L145.246 67.9624C145.204 69.0083 144.346 69.8264 143.312 69.8264L143.323 69.8367Z" fill="#DA3226"/>
<path d="M119.143 35.4258C119.143 35.4258 120.218 31.1904 124.063 29.8546C126.317 29.0675 130.276 29.6578 130.276 29.6578C130.276 29.6578 135.239 38.2217 133.667 39.6404C132.106 41.0695 124.694 43.9379 124.694 43.9379L119.132 35.4258H119.143Z" fill="#FD926D"/>
<path d="M120.859 33.2516C120.683 32.7338 120.817 32.1332 121.241 31.7397C123.836 29.3372 126.875 26.241 127.247 25.4229C127.578 24.7084 128.426 24.3874 129.149 24.7187C129.863 25.0501 130.183 25.8992 129.852 26.6241C129.067 28.3224 124.549 32.5785 123.185 33.8419C122.606 34.3803 121.696 34.3389 121.158 33.759C121.014 33.6037 120.921 33.4276 120.859 33.2516Z" fill="#FD926D"/>
<path d="M134.804 31.8637C135.022 32.4436 134.918 33.0546 134.598 33.4791C135.084 33.593 135.518 33.9555 135.725 34.5043C135.962 35.1256 135.838 35.7884 135.466 36.213C135.414 36.2751 135.352 36.3269 135.29 36.3787C135.756 36.4511 136.19 36.7929 136.386 37.3106C136.593 37.8595 136.49 38.4601 136.148 38.8432C136.035 38.9779 135.88 39.0814 135.714 39.1539L132.044 40.6451C131.393 40.9143 130.628 40.5208 130.349 39.7752C130.152 39.2471 130.246 38.6879 130.535 38.3151C129.904 38.3773 129.263 37.963 128.995 37.2589C128.778 36.679 128.871 36.0576 129.201 35.6331C128.726 35.5192 128.281 35.1567 128.075 34.6079C127.837 33.9762 127.982 33.3134 128.385 32.8889C130.008 31.9155 131.455 31.6876 133.781 30.7764C134.091 30.9524 134.66 31.4702 134.804 31.8533V31.8637Z" fill="#FD926D"/>
<path d="M132.437 34.4111C132.437 34.4111 132.406 34.3904 132.396 34.3697C132.385 34.3386 132.396 34.2972 132.437 34.2765L134.577 33.417C134.577 33.417 134.649 33.417 134.67 33.4584C134.68 33.4895 134.67 33.5309 134.629 33.5516L132.489 34.4111C132.489 34.4111 132.458 34.4111 132.437 34.4111Z" fill="#1F1312"/>
<path d="M133.14 37.3519C133.14 37.3519 133.109 37.3312 133.099 37.3105C133.088 37.2795 133.099 37.238 133.14 37.2173L135.27 36.3164C135.27 36.3164 135.342 36.3164 135.363 36.3578C135.373 36.3889 135.363 36.4303 135.321 36.451L133.192 37.3519C133.192 37.3519 133.161 37.3519 133.14 37.3519Z" fill="#1F1312"/>
<path d="M127.196 26.6138C126.927 26.5206 126.73 26.3964 126.72 26.386C126.689 26.3653 126.679 26.3239 126.699 26.2928C126.72 26.2617 126.762 26.2514 126.793 26.2721C126.793 26.2721 127.258 26.5517 127.692 26.5931L128.581 25.2883C128.467 25.1019 128.291 24.8534 128.209 24.8327C128.167 24.8223 128.157 24.7809 128.167 24.7395C128.178 24.6981 128.219 24.6877 128.26 24.6981C128.426 24.7602 128.674 25.1744 128.726 25.2573C128.736 25.278 128.736 25.309 128.726 25.3298L127.795 26.707C127.795 26.707 127.754 26.7381 127.733 26.7381C127.558 26.7381 127.371 26.676 127.206 26.6242L127.196 26.6138Z" fill="#1F1312"/>
<path d="M129.232 35.9032C129.232 35.9032 129.181 35.8618 129.191 35.8307C129.191 35.7893 129.222 35.7583 129.263 35.7686L130.659 35.8411C130.659 35.8411 130.731 35.8722 130.721 35.9136C130.721 35.955 130.69 35.9861 130.649 35.9757L129.253 35.9032C129.253 35.9032 129.243 35.9032 129.232 35.9032Z" fill="#1F1312"/>
<path d="M129.677 36.5969C129.646 36.5761 129.625 36.5347 129.646 36.5037L130.297 35.116C130.297 35.116 130.359 35.0643 130.39 35.085C130.421 35.1057 130.442 35.1471 130.421 35.1782L129.77 36.5658C129.77 36.5658 129.718 36.6176 129.687 36.6072L129.677 36.5969Z" fill="#1F1312"/>
<path d="M130.287 38.6151C130.287 38.6151 130.235 38.5737 130.246 38.5427C130.246 38.5012 130.277 38.4702 130.318 38.4805L131.713 38.553C131.713 38.553 131.786 38.5841 131.776 38.6255C131.776 38.6669 131.744 38.698 131.703 38.6876L130.308 38.6151C130.308 38.6151 130.297 38.6151 130.287 38.6151Z" fill="#1F1312"/>
<path d="M130.731 39.3195C130.7 39.2988 130.68 39.2574 130.7 39.2263L131.352 37.8387C131.352 37.8387 131.403 37.7869 131.434 37.7973C131.465 37.818 131.486 37.8594 131.465 37.8905L130.814 39.2781C130.814 39.2781 130.762 39.3299 130.731 39.3195Z" fill="#1F1312"/>
<path d="M126.42 32.2883C126.338 32.1744 126.276 32.0501 126.224 31.9155C125.935 31.1388 126.317 30.3104 127.061 30.0515C127.113 30.0308 132.561 28.1461 135.084 27.007L137.689 25.8265C138.412 25.4951 139.281 25.8265 139.632 26.5825C139.984 27.328 139.684 28.1979 138.96 28.5293L136.355 29.7098C133.719 30.911 128.323 32.775 128.095 32.8578C127.475 33.0753 126.793 32.8268 126.42 32.2986V32.2883Z" fill="#FD926D"/>
<path d="M131.227 31.8637C131.227 31.8637 131.196 31.843 131.186 31.8223C131.176 31.7912 131.186 31.7498 131.227 31.7291L133.76 30.7246C133.76 30.7246 133.833 30.7246 133.853 30.766C133.864 30.7971 133.853 30.8385 133.812 30.8592L131.279 31.8637C131.279 31.8637 131.248 31.8637 131.227 31.8637Z" fill="#1F1312"/>
<path d="M137.72 28.747C137.689 28.7366 137.037 28.3535 136.965 27.1523C136.965 27.1212 136.975 27.1005 137.006 27.0901C137.058 27.0694 138.206 26.4584 138.94 26.6966C139.146 26.7691 139.312 26.9037 139.415 27.1005C139.436 27.1315 139.415 27.173 139.384 27.1937C139.353 27.2144 139.312 27.1937 139.291 27.1626C139.208 26.9969 139.074 26.8934 138.898 26.8312C138.288 26.6345 137.317 27.0901 137.11 27.1937C137.182 28.281 137.782 28.6331 137.792 28.6331C137.823 28.6538 137.833 28.6952 137.823 28.7263C137.802 28.7573 137.771 28.7677 137.74 28.7574L137.72 28.747Z" fill="#1F1312"/>
<path d="M127.837 32.6815C127.837 32.6815 127.785 32.6401 127.795 32.6091C127.795 32.5676 127.826 32.5366 127.868 32.5469L129.263 32.6194C129.263 32.6194 129.336 32.6505 129.325 32.6919C129.325 32.7333 129.294 32.7644 129.253 32.754L127.857 32.6815C127.857 32.6815 127.847 32.6815 127.837 32.6815Z" fill="#1F1312"/>
<path d="M128.281 33.3859C128.25 33.3652 128.23 33.3238 128.25 33.2927L128.902 31.9051C128.902 31.9051 128.953 31.8533 128.984 31.8637C129.015 31.8844 129.036 31.9258 129.015 31.9569L128.364 33.3445C128.364 33.3445 128.312 33.3963 128.281 33.3859Z" fill="#1F1312"/>
<path d="M74.2251 41.4316C74.1734 40.6549 73.1293 41.2038 72.0955 40.8828C71.0618 40.5618 71.4856 42.4361 72.8709 42.2704C74.2561 42.1047 74.2561 41.9183 74.2251 41.4316Z" fill="white"/>
<path d="M105.993 51.9843C105.755 51.9843 105.528 51.9222 105.404 51.7565C105.29 51.6115 105.207 51.3319 105.476 50.8348C105.993 49.8821 107.151 49.4783 107.802 49.7579C107.999 49.8407 108.433 50.1307 108.164 50.9177L107.978 50.8555C108.133 50.3999 108.04 50.0789 107.72 49.9443C107.151 49.7061 106.107 50.0892 105.642 50.9384C105.518 51.1559 105.404 51.4665 105.549 51.6426C105.683 51.8082 106.014 51.8497 106.365 51.7358C106.655 51.6529 106.862 51.4872 106.872 51.3319L107.068 51.3526C107.037 51.6426 106.717 51.8393 106.427 51.9222C106.293 51.9636 106.138 51.9843 105.993 51.9843Z" fill="#231714"/>
<path d="M76.7786 48.65C74.4733 50.3276 71.527 52.5954 70.7 53.7967C69.2837 55.8677 67.609 57.2864 64.7661 57.1518C61.9233 57.0172 62.0576 61.5425 63.9908 62.1846C65.924 62.8266 67.5987 58.5705 71.465 57.2761C75.3313 55.9817 76.4892 55.7228 78.6808 52.3676C80.0557 50.2655 81.0791 49.0746 82.3713 48.0908C80.7173 48.2565 78.6911 48.4326 76.7579 48.6397L76.7786 48.65Z" fill="#E8DAF8"/>
<path d="M76.6545 68.5119C75.5587 69.3092 74.2975 69.8788 72.9742 70.1687C72.1162 70.3551 71.2168 70.438 70.4105 70.7797C68.6117 71.546 67.5572 73.4928 65.8205 74.3834C64.4662 75.0876 62.8639 75.0668 61.3339 75.0254C60.817 75.0151 60.2484 74.984 59.8556 74.6319C59.2767 74.1038 59.4318 73.0993 59.9693 72.5298C60.5069 71.9602 61.2926 71.7117 62.0369 71.4735C63.5255 70.9972 65.0865 70.4173 66.0479 69.1746C66.7509 68.2633 67.061 67.0621 67.888 66.2647C68.9218 65.2706 70.4932 65.136 71.9198 65.2292C73.3464 65.3224 74.804 65.5813 76.1789 65.1774C76.427 65.1049 76.6648 65.0117 76.9233 65.0117C77.6986 65.0117 78.2258 65.9437 78.0707 66.71C77.9157 67.4763 77.3057 68.0666 76.6751 68.5222L76.6545 68.5119Z" fill="#E8DAF8"/>
<path d="M96.1516 50.5859C95.9655 50.7516 95.7898 50.938 95.6554 51.1451C95.3556 51.5801 95.1281 52.1082 94.6526 52.3464C94.4148 52.4706 94.1357 52.4913 93.8773 52.5431C91.727 52.8952 89.7939 54.4071 88.9358 56.416C88.7704 56.7992 88.636 57.2031 88.4396 57.5759C88.0261 58.3318 87.3128 58.9117 86.4961 59.1602C85.6174 59.4295 84.4079 59.5123 84.2011 60.4132C84.0047 61.2417 84.9248 61.9044 85.7415 62.1115C86.1446 62.2151 86.5788 62.2669 86.982 62.1737C88.0881 61.9148 88.6257 60.6928 89.4734 59.9472C90.993 58.6321 93.3707 58.9531 95.1178 57.9383C96.3067 57.2445 97.02 56.064 97.5162 54.7592C97.113 53.3094 96.6375 51.8907 96.1619 50.5963L96.1516 50.5859Z" fill="#E8DAF8"/>
<path d="M66.9059 85.2973C67.3711 85.1213 67.7536 84.7899 68.1982 84.5724C69.4077 83.9822 70.8446 84.3343 72.1885 84.2928C73.243 84.2618 74.3388 83.9615 75.1141 83.2469C75.8895 82.5324 76.2823 81.3415 75.8791 80.3578C75.8068 80.1817 75.7137 80.016 75.569 79.8918C75.3416 79.695 75.0107 79.6432 74.711 79.6536C72.9018 79.7054 71.651 81.4762 70.0073 82.2321C68.8391 82.7706 67.4952 82.7913 66.234 83.0191C64.9624 83.2573 63.6185 83.8268 63.0913 85.0073C63.1843 85.3284 63.6082 85.4009 63.939 85.4112L65.4173 85.4423C65.9239 85.4423 66.4407 85.463 66.9163 85.2869L66.9059 85.2973Z" fill="#E8DAF8"/>
<path d="M55.1622 84.5938C53.808 84.8112 52.6708 85.7121 51.4613 86.3438C50.2828 86.9652 49.0112 87.3276 47.7087 87.5968C47.657 87.7004 47.6053 87.7936 47.5433 87.8868C46.3338 89.9165 44.4523 93.2613 43.2324 95.4773C43.4082 95.3634 43.5839 95.2495 43.7493 95.1356C47.3985 92.7228 51.3062 90.7138 55.3896 89.1398C56.6302 88.6635 58.1085 87.9386 58.1498 86.6131C58.2015 85.2358 56.5268 84.3659 55.1725 84.5938H55.1622Z" fill="#E8DAF8"/>
<path d="M56.4443 63.168C55.855 63.2716 55.3691 63.6858 54.8419 63.9758C52.8674 65.0424 50.438 64.2968 48.2154 64.5246C47.4297 64.6074 46.613 64.856 46.0651 65.4255C45.3725 66.9374 44.7212 68.5218 43.9356 70.189C43.1396 71.8873 42.3022 73.5027 41.4958 74.9525C41.6716 74.9421 41.8473 74.9214 42.0231 74.9007C44.2147 74.6626 46.3856 74.1551 48.4325 73.3474C50.9032 72.3637 53.1672 70.9346 55.4105 69.5159C56.2685 68.9774 57.1472 68.4182 57.7985 67.6416C58.4498 66.8649 58.8736 65.819 58.6565 64.8249C58.4394 63.8308 57.447 62.992 56.4443 63.168Z" fill="#E8DAF8"/>
<path d="M49.6316 82.9468L49.4558 82.8743C51.6681 77.3445 53.2084 71.2762 53.1257 69.5469H53.3221C53.4255 71.473 51.6681 77.8623 49.6419 82.9468H49.6316Z" fill="#231714"/>
<path d="M52.1541 69.9206L51.9631 69.9668L52.6399 72.7753L52.8308 72.7291L52.1541 69.9206Z" fill="#231714"/>
<path d="M56.8681 86.5611L56.7234 86.4265C56.7854 86.3643 62.6676 79.9543 67.3506 72.0117L67.516 72.1153C62.833 80.0682 56.9301 86.499 56.8681 86.5611Z" fill="#231714"/>
<path d="M54.4076 82.5222L54.356 82.3358C58.4394 81.1967 64.5903 74.01 64.6524 73.9375L64.7971 74.0618C64.549 74.3621 58.5428 81.3623 54.4076 82.5222Z" fill="#231714"/>
<path d="M47.6468 108.96C47.6468 108.96 49.7247 112.605 47.957 116.105C46.9232 118.155 43.7908 120.402 43.7908 120.402C43.7908 120.402 35.6757 116.737 35.7997 114.707C35.9341 112.677 40.0899 105.449 40.0899 105.449L47.6365 108.96H47.6468Z" fill="#FD926D"/>
<path d="M47.2021 111.59C47.6983 111.766 48.0705 112.232 48.1015 112.791C48.3393 116.188 48.8251 120.341 49.1973 121.107C49.5384 121.79 49.2593 122.619 48.577 122.95C47.8947 123.292 47.0677 123.012 46.7369 122.329C45.9409 120.713 45.4757 114.759 45.3517 112.978C45.3 112.222 45.8685 111.559 46.6335 111.507C46.83 111.497 47.0264 111.518 47.2021 111.59Z" fill="#FD926D"/>
<path d="M44.0284 113.392C44.1525 113.392 44.2868 113.413 44.4109 113.444C45.1449 113.651 45.5687 114.417 45.362 115.153C45.3413 115.204 43.832 120.527 43.3461 123.137L42.8396 125.839C42.6948 126.585 41.9815 127.082 41.2269 126.937C40.4825 126.792 39.9863 126.078 40.1311 125.322L40.6376 122.619C41.1545 119.885 42.6535 114.614 42.7155 114.386C42.8912 113.786 43.4391 113.382 44.0387 113.382L44.0284 113.392Z" fill="#FD926D"/>
<path d="M41.4442 113.857C41.5992 113.857 41.7543 113.878 41.9094 113.94C42.6227 114.199 43.0052 114.986 42.7467 115.701C41.6199 118.88 39.8005 124.451 39.6868 125.87C39.6247 126.626 38.9631 127.195 38.2085 127.133C37.4538 127.071 36.8852 126.408 36.9473 125.652C37.123 123.405 39.8418 115.659 40.152 114.779C40.3484 114.21 40.8859 113.857 41.4442 113.857Z" fill="#FD926D"/>
<path d="M39.0457 114.034C39.2421 114.034 39.4385 114.076 39.6349 114.169C40.3275 114.49 40.617 115.308 40.2965 116.002C40.2655 116.064 37.5984 121.78 37.0195 124.048C36.823 124.783 36.0787 125.228 35.3447 125.032C34.6108 124.845 34.1662 124.089 34.3627 123.354C35.0139 120.848 37.7018 115.08 37.8155 114.832C38.0532 114.334 38.5391 114.034 39.056 114.034H39.0457Z" fill="#FD926D"/>
<path d="M37.5467 112.895C37.8052 112.895 38.074 112.967 38.3117 113.122C38.9423 113.547 39.1181 114.406 38.6942 115.038C38.6632 115.08 35.6963 119.543 34.7659 121.303C34.4144 121.976 33.577 122.235 32.9051 121.883C32.2331 121.531 31.9747 120.692 32.3262 120.019C33.3186 118.134 36.2752 113.702 36.3992 113.506C36.668 113.112 37.1022 112.895 37.5467 112.895Z" fill="#FD926D"/>
<path d="M43.2533 109.343C43.2533 109.343 43.2636 109.343 43.274 109.343C43.3256 109.374 43.3463 109.447 43.3153 109.498C41.1547 113.496 44.5248 115.815 44.6696 115.908C44.7212 115.94 44.7316 116.012 44.7006 116.064C44.6696 116.116 44.5972 116.126 44.5455 116.095C44.5042 116.074 40.8549 113.558 43.1086 109.374C43.1396 109.322 43.1913 109.302 43.2533 109.322V109.343Z" fill="#3B211B"/>
<path d="M36.5749 115.411C36.5749 115.411 36.5956 115.411 36.6059 115.422C36.6576 115.442 41.4544 117.99 43.2635 118.735C43.3255 118.756 43.3462 118.828 43.3255 118.891C43.3048 118.953 43.2324 118.973 43.1704 118.953C41.3406 118.197 36.5439 115.649 36.4922 115.629C36.4405 115.598 36.4199 115.525 36.4405 115.473C36.4612 115.432 36.5129 115.401 36.5646 115.411H36.5749Z" fill="#3B211B"/>
<path d="M37.8672 116.104C37.8672 116.104 37.8982 116.104 37.9189 116.115C37.9602 116.146 37.9705 116.198 37.9499 116.239L35.7169 119.76C35.7169 119.76 35.6342 119.812 35.5929 119.791C35.5515 119.76 35.5412 119.708 35.5619 119.667L37.7948 116.146C37.7948 116.146 37.8465 116.104 37.8672 116.104Z" fill="#3B211B"/>
<path d="M39.9761 117.358C39.9761 117.358 40.0071 117.358 40.0174 117.358C40.0588 117.379 40.0795 117.441 40.0588 117.482L38.2497 121.034C38.2497 121.034 38.167 121.096 38.1256 121.076C38.0843 121.055 38.0636 120.993 38.0843 120.951L39.8934 117.399C39.8934 117.399 39.9451 117.348 39.9761 117.348V117.358Z" fill="#3B211B"/>
<path d="M42.1056 118.341C42.1056 118.341 42.1366 118.341 42.1469 118.341C42.1883 118.362 42.2089 118.414 42.1883 118.466L41.0925 120.899C41.0925 120.899 41.0201 120.961 40.9684 120.941C40.9271 120.92 40.9064 120.868 40.9271 120.816L42.0229 118.383C42.0229 118.383 42.0745 118.331 42.1056 118.331V118.341Z" fill="#3B211B"/>
<path d="M86.5167 88.1761C86.5167 88.1761 85.5139 85.4422 85.0281 84.0132C84.7593 83.1951 84.5835 80.6477 84.3768 77.7067C84.2114 75.3871 84.0253 72.7465 83.7668 70.634L83.9633 70.6133C84.2217 72.7361 84.4078 75.3664 84.5732 77.6964C84.7799 80.627 84.9557 83.1641 85.2141 83.9614C85.6897 85.4008 86.6821 88.0932 86.6924 88.1243L86.5064 88.1968L86.5167 88.1761Z" fill="#231714"/>
<path d="M38.4977 50.7006C38.4253 50.7006 38.3426 50.6695 38.3013 50.597L35.9546 47.4697H26.6609C25.9787 47.4697 25.4204 46.9105 25.4204 46.227V38.4087C25.4204 37.7252 25.9787 37.166 26.6609 37.166H39.18C39.8623 37.166 40.4205 37.7252 40.4205 38.4087V46.227C40.4205 46.9105 39.8623 47.4697 39.18 47.4697H38.8388L38.7458 50.4624C38.7458 50.5659 38.6734 50.6591 38.57 50.6902C38.5494 50.6902 38.5184 50.7006 38.4977 50.7006ZM26.6609 37.6631C26.2474 37.6631 25.9166 37.9945 25.9166 38.4087V46.227C25.9166 46.6412 26.2474 46.9726 26.6609 46.9726H36.0786C36.1613 46.9726 36.2337 47.014 36.2751 47.0762L38.2703 49.7375L38.353 47.2108C38.353 47.0762 38.4667 46.9726 38.6011 46.9726H39.18C39.5935 46.9726 39.9243 46.6412 39.9243 46.227V38.4087C39.9243 37.9945 39.5935 37.6631 39.18 37.6631H26.6609Z" fill="#C4B1D9"/>
<path d="M25.5963 41.9604H22.7637C22.681 41.9604 22.6086 42.0018 22.5673 42.0639L20.6445 44.6321L20.5618 42.2089C20.5618 42.0743 20.448 41.9707 20.3137 41.9707H19.7864C19.3729 41.9707 19.0421 41.6394 19.0421 41.2252V33.6968C19.0421 33.2825 19.3729 32.9512 19.7864 32.9512H31.8713C32.2848 32.9512 32.6156 33.2825 32.6156 33.6968V37.4144H33.1118V33.6968C33.1118 33.0133 32.5536 32.4541 31.8713 32.4541H19.7864C19.1041 32.4541 18.5459 33.0133 18.5459 33.6968V41.2252C18.5459 41.9086 19.1041 42.4678 19.7864 42.4678H20.0759L20.1689 45.357C20.1689 45.4605 20.2413 45.5537 20.3447 45.5848C20.3653 45.5848 20.3964 45.5951 20.417 45.5951C20.4894 45.5951 20.5721 45.5641 20.6135 45.4916L22.8878 42.4574H25.6066V41.9604H25.5963Z" fill="#C4B1D9"/>
<path d="M21.8954 165.19C21.8954 165.19 21.9161 165.19 21.9264 165.17C21.9988 165.128 22.0194 165.035 21.9781 164.962C16.5197 156.088 4.85875 147.638 0.144729 147.793C0.0620266 147.793 0 147.866 0 147.948C0 148.031 0.0723644 148.093 0.155066 148.093C4.79672 147.938 16.313 156.326 21.73 165.118C21.7713 165.18 21.8334 165.201 21.8954 165.18V165.19Z" fill="#15A3A5"/>
<path d="M0.217183 147.047C0.465289 147.627 1.19927 147.865 1.19927 147.865C1.19927 147.865 1.51974 147.171 1.2613 146.592C1.00285 146.012 0.27921 145.773 0.27921 145.773C0.27921 145.773 -0.041261 146.467 0.217183 147.047Z" fill="#15A3A5"/>
<path d="M7.18481 149.916C7.25717 150.537 7.88778 150.983 7.88778 150.983C7.88778 150.983 8.39433 150.403 8.32196 149.781C8.2496 149.16 7.619 148.715 7.619 148.715C7.619 148.715 7.11245 149.295 7.18481 149.916Z" fill="#15A3A5"/>
<path d="M3.30802 149.481C2.77046 149.802 2.62573 150.558 2.62573 150.558C2.62573 150.558 3.35971 150.785 3.89728 150.454C4.43484 150.123 4.57957 149.377 4.57957 149.377C4.57957 149.377 3.84559 149.149 3.30802 149.481Z" fill="#15A3A5"/>
<path d="M10.0278 153.788C9.49019 154.109 9.34546 154.865 9.34546 154.865C9.34546 154.865 10.0794 155.093 10.617 154.762C11.1546 154.43 11.2993 153.685 11.2993 153.685C11.2993 153.685 10.5653 153.457 10.0278 153.788Z" fill="#15A3A5"/>
<path d="M22.1228 182.245L34.28 180.899C34.28 180.899 34.2283 179.491 32.9774 177.751C31.7266 176.001 28.4391 176.156 28.3668 174.22C28.2944 172.283 28.067 170.854 25.7927 168.794C23.5184 166.722 22.9188 167.551 22.1745 165.967C21.4301 164.382 21.4405 162.922 18.4012 162.187C15.3619 161.462 15.2068 161.969 12.9635 160.136C10.7202 158.304 9.86219 157.475 3.22534 158.542C3.35973 162.415 5.11715 165.791 8.74571 167.147C12.3743 168.514 12.7568 169.425 13.3047 171.279C13.8422 173.143 14.7106 173.971 16.5611 174.893C18.4115 175.815 18.3288 176.798 19.2179 179.335C20.1172 181.872 22.1124 182.235 22.1124 182.235L22.1228 182.245Z" fill="url(#paint2_linear_1692_91465)"/>
<path d="M26.7542 180.806C26.6508 180.826 26.5371 180.764 26.4958 180.661C26.4544 180.568 22.3607 171.02 7.66036 161.42C7.54665 161.348 7.51564 161.203 7.588 161.089C7.66036 160.975 7.80509 160.944 7.91881 161.017C22.7535 170.709 26.8886 180.381 26.93 180.485C26.9816 180.609 26.93 180.744 26.7956 180.795C26.7749 180.795 26.7646 180.806 26.7439 180.806H26.7542Z" fill="#15A3A5"/>
<path d="M36.637 187.837C38.0223 182.535 35.7169 182.308 36.1718 180.692C36.637 179.077 37.3193 176.54 35.7066 175.162C34.0939 173.775 33.4013 172.397 33.639 171.248C33.8665 170.098 34.5591 165.946 32.4916 164.569C30.424 163.181 29.5039 162.498 29.2662 160.416C29.0387 158.345 29.2662 155.114 26.9608 154.193C24.6555 153.271 23.9732 152.121 23.7355 150.04C23.508 147.969 20.9753 144.738 14.7623 143.816C13.2633 147.845 13.5011 149.926 15.1034 152.453C16.1786 154.144 16.4852 155.912 16.0235 157.755C15.3309 160.52 16.7161 162.591 18.3288 164.206C19.9415 165.822 20.1689 166.743 19.7141 168.814C19.2489 170.885 18.794 173.423 21.0993 175.038C23.4047 176.653 24.0869 178.497 23.8595 181.262C23.6321 184.027 23.5804 184.482 23.5804 184.482C23.5804 184.482 24.7796 187.485 26.8471 188.407L36.6267 187.827L36.637 187.837Z" fill="url(#paint3_linear_1692_91465)"/>
<path d="M32.1505 187.485C32.0471 187.485 31.9541 187.413 31.9231 187.299C31.8714 187.071 26.7645 163.864 18.1428 147.72C18.0808 147.606 18.1221 147.472 18.2359 147.41C18.3496 147.348 18.484 147.389 18.546 147.503C27.1987 163.709 32.3159 186.967 32.3676 187.195C32.3986 187.32 32.3159 187.444 32.1918 187.465C32.1712 187.465 32.1608 187.465 32.1402 187.465L32.1505 187.485Z" fill="#15A3A5"/>
<path d="M21.244 188.107L29.111 186.833C29.111 186.833 29.0697 185.611 27.9739 184.099C26.8884 182.587 26.7127 182.825 26.6506 181.148C26.5886 179.47 26.3922 178.228 24.4177 176.436C22.4432 174.645 21.9263 175.359 21.2853 173.982C20.6444 172.605 20.6444 171.341 18.0186 170.71C15.3928 170.078 15.2481 170.523 13.3046 168.939C11.3611 167.354 10.6168 166.629 4.85864 167.561C4.9827 170.927 6.50235 173.847 9.64503 175.028C12.7877 176.208 13.1289 177.006 13.5941 178.611C14.0696 180.226 14.8139 180.951 16.4163 181.748C18.0186 182.546 17.9463 183.405 18.7216 185.601C19.4969 187.796 21.2337 188.107 21.2337 188.107H21.244Z" fill="url(#paint4_linear_1692_91465)"/>
<path d="M25.2655 186.864C25.1725 186.874 25.0794 186.833 25.0381 186.739C25.0071 186.657 21.4509 178.383 8.7044 170.047C8.61136 169.984 8.58035 169.85 8.64238 169.757C8.7044 169.663 8.8388 169.632 8.93184 169.694C21.8024 178.103 25.3896 186.491 25.4206 186.574C25.4619 186.677 25.4206 186.802 25.3069 186.843C25.2965 186.843 25.2758 186.853 25.2552 186.853L25.2655 186.864Z" fill="#15A3A5"/>
<path d="M6.2854 192H209.691V189.97C209.691 187.765 207.913 185.983 205.711 185.983H10.2654C8.0635 185.983 6.2854 187.765 6.2854 189.97V192Z" fill="#A8CFCF"/>
<path d="M170.708 185.611C184.753 185.611 196.138 174.206 196.138 160.136C196.138 146.067 184.753 134.662 170.708 134.662C156.662 134.662 145.277 146.067 145.277 160.136C145.277 174.206 156.662 185.611 170.708 185.611Z" fill="#DA3226"/>
<path d="M183.995 173.458C191.339 166.102 191.339 154.175 183.995 146.819C176.652 139.463 164.746 139.463 157.402 146.819C150.058 154.175 150.058 166.102 157.402 173.458C164.746 180.814 176.652 180.814 183.995 173.458Z" fill="white"/>
<path d="M180.216 169.672C185.472 164.407 185.472 155.87 180.216 150.605C174.96 145.34 166.437 145.34 161.181 150.605C155.925 155.87 155.925 164.407 161.181 169.672C166.437 174.938 174.96 174.938 180.216 169.672Z" fill="#DA3226"/>
<path d="M176.627 166.077C179.901 162.797 179.901 157.48 176.627 154.2C173.353 150.92 168.044 150.92 164.77 154.2C161.496 157.48 161.496 162.797 164.77 166.077C168.044 169.357 173.353 169.357 176.627 166.077Z" fill="white"/>
<path d="M174.884 160.137C174.884 157.827 173.013 155.953 170.707 155.953C168.402 155.953 166.531 157.827 166.531 160.137C166.531 162.446 168.402 164.32 170.707 164.32C173.013 164.32 174.884 162.446 174.884 160.137Z" fill="#DA3226"/>
<path d="M142.609 145.235L141.772 144.666L146.321 143.785L145.752 143.402L141.245 144.272L135.621 140.461L140.159 139.581L147.168 144.355L142.609 145.235Z" fill="#6C419D"/>
<path d="M140.707 138.763L139.829 134.228L146.879 139.074L147.737 143.516L140.707 138.763Z" fill="#6C419D"/>
<path d="M165.663 157.134L163.275 158.48L171.266 159.795L166.955 153.261L166.634 156.067L165.663 157.134Z" fill="#6C419D"/>
<path d="M138.974 137.85L138.696 138.262C138.546 138.485 138.604 138.787 138.826 138.938L166.554 157.722C166.777 157.872 167.079 157.814 167.229 157.591L167.507 157.18C167.657 156.957 167.599 156.654 167.377 156.504L139.649 137.72C139.426 137.569 139.124 137.627 138.974 137.85Z" fill="#5F398A"/>
</g>
<defs>
<linearGradient id="paint0_linear_1692_91465" x1="166.242" y1="183.498" x2="189.125" y2="154.852" gradientUnits="userSpaceOnUse">
<stop stop-color="#53BFC0"/>
<stop offset="1" stop-color="#95DDDE"/>
</linearGradient>
<linearGradient id="paint1_linear_1692_91465" x1="186.959" y1="192.838" x2="201.511" y2="166.298" gradientUnits="userSpaceOnUse">
<stop stop-color="#83DDDE"/>
<stop offset="1" stop-color="#BBF1F2"/>
</linearGradient>
<linearGradient id="paint2_linear_1692_91465" x1="18.2771" y1="171.02" x2="3.84423" y2="162.964" gradientUnits="userSpaceOnUse">
<stop stop-color="#53BFC0"/>
<stop offset="1" stop-color="#95DDDE"/>
</linearGradient>
<linearGradient id="paint3_linear_1692_91465" x1="30.0312" y1="184.617" x2="21.2985" y2="147.012" gradientUnits="userSpaceOnUse">
<stop stop-color="#53BFC0"/>
<stop offset="1" stop-color="#95DDDE"/>
</linearGradient>
<linearGradient id="paint4_linear_1692_91465" x1="28.1806" y1="187.32" x2="6.06351" y2="166.398" gradientUnits="userSpaceOnUse">
<stop stop-color="#83DDDE"/>
<stop offset="1" stop-color="#BBF1F2"/>
</linearGradient>
<clipPath id="clip0_1692_91465">
<rect width="217" height="192" fill="white"/>
</clipPath>
</defs>
</svg>
