<svg width="217" height="173" viewBox="0 0 217 173" fill="none" xmlns="http://www.w3.org/2000/svg">
<g clip-path="url(#clip0_1692_92462)">
<path d="M190.557 0.00376641L48.0149 0.797852L48.5614 98.3911L191.104 97.597L190.557 0.00376641Z" fill="#ECFFFF"/>
<path d="M184.826 22.641L53.947 23.3702C53.7577 23.3712 53.6051 23.5251 53.6062 23.7139L53.6124 24.8223C53.6134 25.0111 53.7677 25.1633 53.957 25.1623L184.836 24.4332C185.026 24.4321 185.178 24.2782 185.177 24.0894L185.171 22.981C185.17 22.7922 185.016 22.64 184.826 22.641Z" fill="#C0F0F0"/>
<path d="M184.929 40.9969L75.4126 41.607C75.2233 41.608 75.0707 41.7619 75.0717 41.9507L75.0779 43.0592C75.079 43.248 75.2333 43.4002 75.4226 43.3991L184.939 42.789C185.128 42.7879 185.281 42.634 185.279 42.4452L185.273 41.3368C185.272 41.148 185.118 40.9958 184.929 40.9969Z" fill="#C0F0F0"/>
<path d="M185.038 58.6067L75.5217 59.2168C75.3324 59.2179 75.1798 59.3718 75.1809 59.5606L75.1871 60.669C75.1881 60.8578 75.3424 61.01 75.5317 61.009L185.048 60.3989C185.237 60.3978 185.39 60.2439 185.389 60.0551L185.382 58.9467C185.381 58.7579 185.227 58.6057 185.038 58.6067Z" fill="#C0F0F0"/>
<path d="M185.123 73.8445L75.6069 74.4546C75.4176 74.4557 75.265 74.6096 75.2661 74.7984L75.2723 75.9068C75.2733 76.0956 75.4276 76.2478 75.6169 76.2468L185.133 75.6367C185.322 75.6356 185.475 75.4817 185.474 75.2929L185.468 74.1845C185.467 73.9957 185.312 73.8435 185.123 73.8445Z" fill="#C0F0F0"/>
<path d="M185.215 92.0551L54.3356 92.7842C54.1464 92.7853 53.9938 92.9392 53.9948 93.128L54.001 94.2364C54.0021 94.4252 54.1564 94.5774 54.3457 94.5764L185.225 93.8472C185.414 93.8462 185.567 93.6923 185.566 93.5035L185.56 92.3951C185.558 92.2063 185.404 92.0541 185.215 92.0551Z" fill="#C0F0F0"/>
<path d="M184.729 5.31048L53.85 6.03959C53.6608 6.04065 53.5082 6.19456 53.5092 6.38335L53.5154 7.49178C53.5165 7.68058 53.6708 7.83278 53.8601 7.83172L184.739 7.10261C184.929 7.10156 185.081 6.94765 185.08 6.75885L185.074 5.65042C185.073 5.46163 184.919 5.30943 184.729 5.31048Z" fill="#C0F0F0"/>
<path d="M55.0266 6.18735L53.7907 6.19424C53.6358 6.1951 53.511 6.32103 53.5118 6.4755L53.9996 93.5957C54.0005 93.7502 54.1268 93.8747 54.2816 93.8738L55.5175 93.8669C55.6724 93.8661 55.7972 93.7402 55.7964 93.5857L55.3085 6.46549C55.3077 6.31102 55.1814 6.18649 55.0266 6.18735Z" fill="#C0F0F0"/>
<path d="M75.9838 6.07065L74.7479 6.07754C74.5931 6.0784 74.4682 6.20433 74.4691 6.3588L74.9569 93.479C74.9578 93.6335 75.084 93.758 75.2389 93.7571L76.4748 93.7502C76.6296 93.7494 76.7545 93.6235 76.7536 93.469L76.2658 6.34879C76.2649 6.19432 76.1387 6.06979 75.9838 6.07065Z" fill="#C0F0F0"/>
<path d="M97.5334 5.95054L96.2975 5.95742C96.1426 5.95829 96.0178 6.08421 96.0187 6.23868L96.5065 93.3589C96.5073 93.5134 96.6336 93.6379 96.7884 93.637L98.0243 93.6301C98.1792 93.6293 98.304 93.5033 98.3032 93.3489L97.8154 6.22867C97.8145 6.0742 97.6883 5.94967 97.5334 5.95054Z" fill="#C0F0F0"/>
<path d="M119.986 5.82554L118.75 5.83242C118.596 5.83328 118.471 5.95921 118.472 6.11368L118.959 93.2339C118.96 93.3883 119.086 93.5129 119.241 93.512L120.477 93.5051C120.632 93.5043 120.757 93.3783 120.756 93.2239L120.268 6.10367C120.267 5.9492 120.141 5.82467 119.986 5.82554Z" fill="#C0F0F0"/>
<path d="M141.536 5.70542L140.3 5.71231C140.145 5.71317 140.02 5.83909 140.021 5.99356L140.509 93.1138C140.51 93.2682 140.636 93.3928 140.791 93.3919L142.027 93.385C142.182 93.3842 142.306 93.2582 142.306 93.1037L141.818 5.98355C141.817 5.82908 141.691 5.70456 141.536 5.70542Z" fill="#C0F0F0"/>
<path d="M163.687 5.58188L162.452 5.58877C162.297 5.58963 162.172 5.71556 162.173 5.87003L162.661 92.9902C162.661 93.1447 162.788 93.2692 162.943 93.2684L164.178 93.2615C164.333 93.2606 164.458 93.1347 164.457 92.9802L163.969 5.86002C163.969 5.70555 163.842 5.58102 163.687 5.58188Z" fill="#C0F0F0"/>
<path d="M185.247 5.46177L184.011 5.46865C183.857 5.46952 183.732 5.59544 183.733 5.74991L184.22 92.8701C184.221 93.0246 184.347 93.1491 184.502 93.1482L185.738 93.1414C185.893 93.1405 186.018 93.0146 186.017 92.8601L185.529 5.7399C185.528 5.58543 185.402 5.4609 185.247 5.46177Z" fill="#C0F0F0"/>
<path d="M70.1071 13.7184L58.548 13.7828C58.2669 13.7844 58.0403 14.0129 58.0419 14.2932L58.0507 15.8575C58.0522 16.1378 58.2813 16.3638 58.5624 16.3622L70.1216 16.2978C70.4026 16.2963 70.6292 16.0677 70.6276 15.7874L70.6189 14.2232C70.6173 13.9428 70.3882 13.7168 70.1071 13.7184Z" fill="#C0F0F0"/>
<path d="M91.6669 13.5983L80.1078 13.6627C79.8267 13.6643 79.6001 13.8928 79.6017 14.1731L79.6105 15.7374C79.612 16.0177 79.8412 16.2437 80.1222 16.2421L91.6814 16.1777C91.9624 16.1762 92.189 15.9476 92.1874 15.6673L92.1787 14.1031C92.1771 13.8227 91.948 13.5967 91.6669 13.5983Z" fill="#C0F0F0"/>
<path d="M113.964 13.464L102.405 13.5284C102.124 13.53 101.897 13.7585 101.899 14.0388L101.908 15.6031C101.909 15.8834 102.138 16.1094 102.419 16.1078L113.978 16.0434C114.26 16.0419 114.486 15.8133 114.485 15.533L114.476 13.9688C114.474 13.6884 114.245 13.4625 113.964 13.464Z" fill="#C0F0F0"/>
<path d="M135.597 13.3537L124.037 13.4181C123.756 13.4196 123.53 13.6482 123.531 13.9285L123.54 15.4927C123.542 15.7731 123.771 15.999 124.052 15.9975L135.611 15.9331C135.892 15.9315 136.119 15.703 136.117 15.4227L136.108 13.8584C136.107 13.5781 135.878 13.3521 135.597 13.3537Z" fill="#C0F0F0"/>
<path d="M157.291 13.2326L145.732 13.297C145.451 13.2985 145.225 13.5271 145.226 13.8074L145.235 15.3716C145.237 15.652 145.466 15.878 145.747 15.8764L157.306 15.812C157.587 15.8104 157.814 15.5819 157.812 15.3016L157.803 13.7373C157.802 13.457 157.573 13.231 157.291 13.2326Z" fill="#C0F0F0"/>
<path d="M179.371 13.11L167.811 13.1744C167.53 13.176 167.304 13.4045 167.305 13.6848L167.314 15.2491C167.316 15.5294 167.545 15.7554 167.826 15.7538L179.385 15.6894C179.666 15.6879 179.893 15.4593 179.891 15.179L179.882 13.6148C179.881 13.3344 179.652 13.1085 179.371 13.11Z" fill="#C0F0F0"/>
<path d="M115.007 43.9448L100.987 44.0229L101.065 58.0078L115.085 57.9297L115.007 43.9448Z" fill="#A074D3"/>
<path d="M112.193 47.6797L103.375 47.7288C103.111 47.7303 102.899 47.9425 102.9 48.2028C102.902 48.4631 103.117 48.6729 103.38 48.6715L112.198 48.6223C112.462 48.6209 112.674 48.4087 112.673 48.1483C112.671 47.888 112.456 47.6782 112.193 47.6797Z" fill="white"/>
<path d="M109.321 50.3789L103.39 50.4119C103.126 50.4134 102.914 50.6256 102.915 50.8859C102.917 51.1462 103.132 51.356 103.396 51.3546L109.326 51.3215C109.59 51.3201 109.802 51.1078 109.801 50.8475C109.799 50.5872 109.584 50.3774 109.321 50.3789Z" fill="white"/>
<path d="M113.308 27.9597L102.486 28.02C102.291 28.0211 102.134 28.1797 102.135 28.3742L102.141 29.4619C102.142 29.6564 102.301 29.8132 102.496 29.8121L113.318 29.7518C113.513 29.7508 113.67 29.5922 113.669 29.3977L113.663 28.31C113.662 28.1154 113.503 27.9586 113.308 27.9597Z" fill="#C0F0F0"/>
<path d="M116.517 33.5463L101.51 33.6299C101.315 33.631 101.158 33.7895 101.159 33.984L101.165 35.0718C101.166 35.2663 101.325 35.4231 101.52 35.422L116.527 35.3384C116.722 35.3373 116.88 35.1787 116.878 34.9842L116.872 33.8965C116.871 33.702 116.712 33.5452 116.517 33.5463Z" fill="#C0F0F0"/>
<path d="M134.737 47.0979L123.915 47.1582C123.72 47.1593 123.563 47.3178 123.564 47.5124L123.57 48.6001C123.571 48.7946 123.73 48.9514 123.925 48.9503L134.747 48.89C134.942 48.8889 135.099 48.7304 135.098 48.5359L135.092 47.4481C135.091 47.2536 134.932 47.0968 134.737 47.0979Z" fill="#C0F0F0"/>
<path d="M137.946 52.6844L122.939 52.7681C122.744 52.7691 122.587 52.9277 122.588 53.1222L122.594 54.2099C122.595 54.4045 122.754 54.5613 122.949 54.5602L137.956 54.4766C138.151 54.4755 138.308 54.3169 138.307 54.1224L138.301 53.0347C138.3 52.8402 138.141 52.6834 137.946 52.6844Z" fill="#C0F0F0"/>
<path d="M177.292 27.6033L166.47 27.6636C166.275 27.6646 166.118 27.8232 166.119 28.0177L166.125 29.1054C166.126 29.3 166.285 29.4568 166.48 29.4557L177.302 29.3954C177.497 29.3943 177.654 29.2357 177.653 29.0412L177.647 27.9535C177.646 27.759 177.487 27.6022 177.292 27.6033Z" fill="#C0F0F0"/>
<path d="M180.501 33.1796L165.494 33.2632C165.298 33.2643 165.141 33.4228 165.142 33.6173L165.148 34.7051C165.15 34.8996 165.309 35.0564 165.504 35.0553L180.511 34.9717C180.706 34.9706 180.863 34.812 180.862 34.6175L180.856 33.5298C180.855 33.3353 180.696 33.1785 180.501 33.1796Z" fill="#C0F0F0"/>
<path d="M90.1532 64.1492L79.3314 64.2095C79.1364 64.2105 78.9792 64.3691 78.9802 64.5636L78.9863 65.6513C78.9874 65.8459 79.1464 66.0027 79.3414 66.0016L90.1632 65.9413C90.3582 65.9402 90.5154 65.7816 90.5143 65.5871L90.5083 64.4994C90.5072 64.3049 90.3482 64.1481 90.1532 64.1492Z" fill="#C0F0F0"/>
<path d="M93.3625 69.725L78.3553 69.8086C78.1603 69.8097 78.0031 69.9682 78.0042 70.1628L78.0103 71.2505C78.0113 71.445 78.1703 71.6018 78.3653 71.6007L93.3725 71.5171C93.5675 71.516 93.7248 71.3574 93.7237 71.1629L93.7176 70.0752C93.7165 69.8807 93.5575 69.7239 93.3625 69.725Z" fill="#C0F0F0"/>
<path d="M112.584 80.4846L101.762 80.5449C101.567 80.546 101.41 80.7046 101.411 80.8991L101.417 81.9868C101.418 82.1813 101.577 82.3381 101.772 82.337L112.594 82.2767C112.789 82.2757 112.946 82.1171 112.945 81.9226L112.939 80.8349C112.938 80.6403 112.779 80.4835 112.584 80.4846Z" fill="#C0F0F0"/>
<path d="M115.793 86.0712L100.786 86.1548C100.591 86.1559 100.434 86.3144 100.435 86.5089L100.441 87.5967C100.442 87.7912 100.601 87.948 100.796 87.9469L115.803 87.8633C115.998 87.8622 116.156 87.7036 116.155 87.5091L116.148 86.4214C116.147 86.2269 115.988 86.0701 115.793 86.0712Z" fill="#C0F0F0"/>
<path d="M156.079 28.6126L145.258 28.6728C145.063 28.6739 144.905 28.8325 144.907 29.027L144.913 30.1147C144.914 30.3092 145.073 30.4661 145.268 30.465L156.089 30.4047C156.284 30.4036 156.442 30.245 156.441 30.0505L156.435 28.9628C156.433 28.7683 156.274 28.6115 156.079 28.6126Z" fill="#C0F0F0"/>
<path d="M159.289 34.1991L144.282 34.2827C144.087 34.2838 143.929 34.4424 143.93 34.6369L143.937 35.7246C143.938 35.9191 144.097 36.0759 144.292 36.0748L159.299 35.9912C159.494 35.9901 159.651 35.8316 159.65 35.637L159.644 34.5493C159.643 34.3548 159.484 34.198 159.289 34.1991Z" fill="#C0F0F0"/>
<path d="M134.963 72.3698L127.08 72.4113C126.821 72.4113 126.613 72.2041 126.603 71.9451L126.561 64.0824C126.561 63.8234 126.769 63.6163 127.028 63.6059L134.911 63.5645C135.171 63.5645 135.379 63.7716 135.389 64.0306L135.43 71.8933C135.43 72.1523 135.223 72.3595 134.963 72.3698ZM127.548 71.4686L134.485 71.4271L134.444 64.5071L127.506 64.5486L127.548 71.4686Z" fill="#C0F0F0"/>
<path d="M157.863 87.2356L149.981 87.277C149.721 87.277 149.513 87.0698 149.503 86.8108L149.461 78.9481C149.461 78.6892 149.669 78.482 149.929 78.4716L157.812 78.4302C158.071 78.4302 158.279 78.6374 158.289 78.8963L158.331 86.759C158.331 87.018 158.123 87.2252 157.863 87.2356ZM150.448 86.3343L157.386 86.2929L157.344 79.3729L150.407 79.4143L150.448 86.3343Z" fill="#C0F0F0"/>
<path d="M154.519 85.8683L150.51 81.911L152.515 79.891L154.249 81.6003L157.22 77.8398L159.463 79.6113L154.519 85.8683Z" fill="#DA3226"/>
<path d="M157.687 56.1159L149.804 56.1574C149.545 56.1574 149.337 55.9502 149.326 55.6912L149.285 47.8285C149.285 47.5695 149.493 47.3623 149.752 47.352L157.635 47.3105C157.895 47.3105 158.102 47.5177 158.113 47.7767L158.154 55.6394C158.154 55.8984 157.947 56.1056 157.687 56.1159ZM150.272 55.2147L157.209 55.1732L157.168 48.2532L150.23 48.2947L150.272 55.2147Z" fill="#C0F0F0"/>
<path d="M154.343 54.7487L150.334 50.7914L152.338 48.7714L154.073 50.4806L157.043 46.7202L159.287 48.4917L154.343 54.7487Z" fill="#DA3226"/>
<path d="M134.537 36.7444L126.654 36.7858C126.395 36.7858 126.187 36.5786 126.177 36.3196L126.135 28.4569C126.135 28.1979 126.343 27.9908 126.602 27.9804L134.485 27.939C134.745 27.939 134.953 28.1462 134.963 28.4051L135.004 36.2678C135.004 36.5268 134.797 36.734 134.537 36.7444ZM127.122 35.8431L134.059 35.8017L134.018 28.8817L127.08 28.9231L127.122 35.8431Z" fill="#C0F0F0"/>
<path d="M131.193 35.377L127.184 31.4197L129.189 29.3997L130.923 31.1089L133.893 27.3589L136.137 29.12L131.193 35.377Z" fill="#DA3226"/>
<path d="M91.1975 56.634L83.3147 56.6754C83.0551 56.6754 82.8473 56.4683 82.837 56.2093L82.7954 48.3466C82.7954 48.0876 83.0031 47.8804 83.2628 47.8701L91.1456 47.8286C91.4052 47.8286 91.6129 48.0358 91.6233 48.2948L91.6648 56.1575C91.6648 56.4165 91.4571 56.6236 91.1975 56.634ZM83.7821 55.7327L90.7197 55.6913L90.6782 48.7713L83.7405 48.8127L83.7821 55.7327Z" fill="#C0F0F0"/>
<path d="M87.843 55.2666L83.8445 51.3197L85.8489 49.2893L87.5834 50.9986L90.5537 47.2485L92.797 49.0096L87.843 55.2666Z" fill="#DA3226"/>
<path d="M91.3117 37.2312L83.429 37.2726C83.1693 37.2726 82.9616 37.0654 82.9512 36.8064L82.9097 28.9437C82.9097 28.6848 83.1174 28.4776 83.377 28.4672L91.2598 28.4258C91.5195 28.4258 91.7272 28.633 91.7376 28.8919L91.7791 36.7546C91.7791 37.0136 91.5714 37.2208 91.3117 37.2312ZM83.8963 36.3299L90.834 36.2885L90.7925 29.3685L83.8548 29.4099L83.8963 36.3299Z" fill="#C0F0F0"/>
<path d="M87.9573 35.8638L83.9587 31.9065L85.9632 29.8865L87.6976 31.5958L90.6679 27.8457L92.9113 29.6068L87.9573 35.8638Z" fill="#DA3226"/>
<path d="M190.703 141.01C190.703 141.01 190.683 141.01 190.672 140.99C190.6 140.948 190.579 140.855 190.62 140.782C196.197 131.76 208.1 123.161 212.908 123.327C212.991 123.327 213.054 123.4 213.054 123.482C213.054 123.565 212.981 123.627 212.898 123.627C208.162 123.462 196.405 131.998 190.88 140.938C190.838 141 190.776 141.021 190.703 141V141.01Z" fill="#15A3A5"/>
<path d="M212.825 122.571C212.565 123.161 211.828 123.4 211.828 123.4C211.828 123.4 211.506 122.695 211.755 122.105C212.015 121.514 212.752 121.276 212.752 121.276C212.752 121.276 213.074 121.98 212.825 122.571Z" fill="#15A3A5"/>
<path d="M205.721 125.482C205.648 126.114 205.005 126.559 205.005 126.559C205.005 126.559 204.485 125.979 204.568 125.337C204.641 124.705 205.285 124.259 205.285 124.259C205.285 124.259 205.804 124.839 205.721 125.482Z" fill="#15A3A5"/>
<path d="M209.678 125.047C210.229 125.378 210.374 126.145 210.374 126.145C210.374 126.145 209.626 126.373 209.076 126.041C208.525 125.71 208.38 124.943 208.38 124.943C208.38 124.943 209.128 124.715 209.678 125.047Z" fill="#15A3A5"/>
<path d="M202.824 129.418C203.374 129.75 203.519 130.516 203.519 130.516C203.519 130.516 202.772 130.744 202.221 130.413C201.671 130.081 201.525 129.315 201.525 129.315C201.525 129.315 202.273 129.087 202.824 129.418Z" fill="#15A3A5"/>
<path d="M161.758 170.255C159.39 159.937 163.867 159.626 163.067 156.477C162.267 153.338 161.073 148.397 164.282 145.817C167.481 143.238 168.904 140.606 168.519 138.369C168.135 136.131 167.034 128.072 171.137 125.523C175.229 122.975 177.056 121.69 177.628 117.692C178.189 113.703 177.929 107.457 182.447 105.799C186.965 104.152 188.367 101.966 188.938 97.9677C189.499 93.9793 194.598 87.8881 206.697 86.4585C209.367 94.3315 208.806 98.3302 205.534 103.137C203.353 106.341 202.657 109.736 203.447 113.32C204.631 118.707 201.827 122.633 198.617 125.658C195.398 128.683 194.899 130.454 195.678 134.484C196.447 138.514 197.194 143.445 192.646 146.428C188.086 149.412 186.643 152.934 186.933 158.29C187.224 163.646 187.286 164.526 187.286 164.526C187.286 164.526 184.794 170.255 180.723 171.912L161.789 170.234L161.758 170.255Z" fill="url(#paint0_linear_1692_92462)"/>
<path d="M170.482 169.84C170.69 169.84 170.877 169.706 170.929 169.499C171.043 169.053 182.28 124.529 199.947 93.8344C200.071 93.6169 199.999 93.3475 199.78 93.2232C199.562 93.0989 199.292 93.1714 199.168 93.389C181.439 124.187 170.171 168.836 170.056 169.281C169.994 169.519 170.14 169.758 170.378 169.82C170.41 169.82 170.441 169.83 170.472 169.83L170.482 169.84Z" fill="#15A3A5"/>
<path d="M193.695 171.581H179.404C179.404 171.581 179.134 169.416 180.629 166.443C182.125 163.459 182.499 163.832 182.125 160.859C181.751 157.876 181.751 155.648 184.742 151.919C187.733 148.2 188.844 149.308 189.592 146.708C190.34 144.098 189.966 141.87 194.442 140.006C198.919 138.141 199.292 138.887 202.284 135.541C205.275 132.185 206.386 130.703 216.844 130.703C217.592 136.66 215.723 142.243 210.499 145.227C205.275 148.21 204.901 149.692 204.527 152.675C204.153 155.659 203.031 157.14 200.425 159.005C197.807 160.869 198.181 162.361 197.433 166.453C196.686 170.545 193.705 171.591 193.705 171.591L193.695 171.581Z" fill="url(#paint1_linear_1692_92462)"/>
<path d="M186.227 170.534C186.393 170.534 186.549 170.42 186.591 170.244C186.632 170.089 190.548 154.488 210.748 136.173C210.904 136.038 210.914 135.8 210.769 135.644C210.634 135.489 210.395 135.479 210.239 135.624C189.862 154.105 185.895 169.913 185.864 170.068C185.812 170.265 185.937 170.472 186.144 170.514C186.175 170.514 186.207 170.514 186.227 170.514V170.534Z" fill="#15A3A5"/>
<path d="M190.402 169.064C190.402 169.064 190.381 169.064 190.371 169.043C190.298 169.001 190.277 168.908 190.319 168.836C195.896 159.813 207.798 151.215 212.607 151.38C212.69 151.38 212.752 151.453 212.752 151.536C212.752 151.619 212.68 151.681 212.596 151.681C207.85 151.515 196.104 160.051 190.579 168.991C190.537 169.053 190.475 169.074 190.402 169.053V169.064Z" fill="#15A3A5"/>
<path d="M212.534 150.624C212.275 151.214 211.537 151.453 211.537 151.453C211.537 151.453 211.215 150.748 211.465 150.158C211.724 149.567 212.462 149.329 212.462 149.329C212.462 149.329 212.783 150.034 212.534 150.624Z" fill="#15A3A5"/>
<path d="M205.42 153.535C205.347 154.167 204.703 154.612 204.703 154.612C204.703 154.612 204.184 154.032 204.267 153.39C204.34 152.758 204.984 152.312 204.984 152.312C204.984 152.312 205.503 152.893 205.42 153.535Z" fill="#15A3A5"/>
<path d="M209.377 153.1C209.927 153.431 210.073 154.198 210.073 154.198C210.073 154.198 209.325 154.426 208.774 154.094C208.224 153.763 208.079 152.996 208.079 152.996C208.079 152.996 208.826 152.768 209.377 153.1Z" fill="#15A3A5"/>
<path d="M202.522 157.471C203.073 157.803 203.218 158.57 203.218 158.57C203.218 158.57 202.47 158.797 201.92 158.466C201.37 158.134 201.224 157.368 201.224 157.368C201.224 157.368 201.972 157.14 202.522 157.471Z" fill="#15A3A5"/>
<path d="M120.932 157.409L114.752 157.44C114.638 157.44 114.534 157.347 114.534 157.223L114.503 151.059C114.503 150.945 114.596 150.842 114.721 150.842L120.901 150.811C121.015 150.811 121.119 150.904 121.119 151.028L121.15 157.192C121.15 157.306 121.056 157.409 120.932 157.409ZM114.97 157.016L120.714 156.985L120.682 151.256L114.939 151.287L114.97 157.016Z" fill="#C4B1D9"/>
<path d="M117.39 156.063C117.328 156.063 117.276 156.042 117.234 156.001L115.531 154.219C115.448 154.136 115.448 154.001 115.531 153.919C115.614 153.836 115.749 153.836 115.832 153.919L117.359 155.514L120.09 151.857C120.163 151.764 120.298 151.743 120.392 151.816C120.485 151.888 120.506 152.023 120.433 152.116L117.556 155.98C117.556 155.98 117.463 156.063 117.401 156.063H117.39Z" fill="#C4B1D9"/>
<path d="M10.4895 52.5008C10.4895 52.5008 10.4272 52.5008 10.4064 52.48L8.59931 51.5477L6.80258 52.5008C6.74026 52.5318 6.66756 52.5318 6.61563 52.4904C6.5637 52.449 6.53255 52.3868 6.54293 52.3143L6.87528 50.3149L5.41089 48.9061C5.41089 48.9061 5.33819 48.7921 5.35896 48.7196C5.37973 48.6575 5.43166 48.6057 5.50436 48.5953L7.50881 48.2949L8.40198 46.4717C8.4643 46.3473 8.66163 46.3473 8.72394 46.4717L9.63789 48.2845L11.6527 48.5642C11.7254 48.5642 11.7774 48.616 11.7981 48.6885C11.8189 48.7507 11.7981 48.8232 11.7566 48.875L10.313 50.2942L10.6661 52.2936C10.6765 52.3557 10.6557 52.4282 10.5934 52.4697C10.5622 52.4904 10.5311 52.5008 10.4895 52.5008ZM8.59931 51.1644C8.59931 51.1644 8.66163 51.1644 8.6824 51.1851L10.2506 51.9931L9.93908 50.2631C9.93908 50.201 9.93908 50.1492 9.991 50.1078L11.2477 48.875L9.50287 48.6367C9.44056 48.6367 9.38863 48.5953 9.36786 48.5435L8.57854 46.9689L7.81 48.5539C7.77884 48.6057 7.7373 48.6471 7.67498 48.6471L5.93017 48.9061L7.19724 50.1285C7.19724 50.1285 7.25955 50.2321 7.24916 50.2839L6.95836 52.0139L8.51623 51.1851C8.51623 51.1851 8.56816 51.1644 8.59931 51.1644Z" fill="#C4B1D9"/>
<path d="M23.2018 27.7007C18.8294 27.7215 15.2567 24.1993 15.2359 19.8484C15.2152 15.4871 18.7463 11.9236 23.1083 11.9028C24.1158 11.9028 25.1024 12.0789 26.0475 12.4519C26.1202 12.483 26.1514 12.5555 26.1202 12.628L23.3368 19.6827L30.908 20.2213C30.9807 20.2213 31.0431 20.2938 31.0327 20.3664C30.7419 24.4583 27.2938 27.68 23.181 27.7007H23.2018ZM23.1187 12.1618C18.9021 12.1825 15.4852 15.6322 15.506 19.838C15.5267 24.0439 18.9852 27.4521 23.2018 27.4314C27.1276 27.4107 30.4303 24.365 30.773 20.4803L23.1499 19.9416C23.1499 19.9416 23.0668 19.9106 23.046 19.8795C23.0252 19.838 23.0149 19.7966 23.0356 19.7552L25.8398 12.6591C24.9674 12.3276 24.0534 12.1722 23.1187 12.1722V12.1618Z" fill="#C4B1D9"/>
<path d="M33.6602 18.6158H33.6498L25.8917 18.0668C25.8501 18.0668 25.8086 18.0357 25.7878 18.0046C25.767 17.9632 25.7567 17.9217 25.7774 17.8803L28.6231 10.6599C28.6231 10.6599 28.6647 10.5977 28.6958 10.5874C28.727 10.577 28.7685 10.577 28.7997 10.5874C31.8323 11.7787 33.8056 14.6482 33.816 17.8907C33.816 18.0978 33.8056 18.305 33.7849 18.5019C33.7849 18.5329 33.7641 18.5744 33.7329 18.5951C33.7122 18.6158 33.681 18.6262 33.6498 18.6262L33.6602 18.6158ZM26.089 17.8078L33.5252 18.3361C33.5252 18.1911 33.546 18.0357 33.546 17.8803C33.5252 14.7932 31.6765 12.0584 28.8205 10.8774L26.089 17.8078Z" fill="#C4B1D9"/>
<path d="M16.6691 24.1374C16.6691 24.1374 16.586 24.1167 16.5548 24.0753C16.5133 24.0131 16.534 23.9302 16.5964 23.8888L22.9836 19.7554L19.7121 12.8665C19.6809 12.8044 19.7121 12.7215 19.7744 12.6904C19.8367 12.6593 19.9198 12.6904 19.951 12.7526L23.2744 19.7554C23.3056 19.8176 23.2744 19.8901 23.2225 19.9212L16.7418 24.1271C16.7418 24.1271 16.6898 24.1478 16.6691 24.1478V24.1374Z" fill="#C4B1D9"/>
<path d="M160.377 164.557C179.982 164.557 195.875 148.705 195.875 129.149C195.875 109.594 179.982 93.7412 160.377 93.7412C140.772 93.7412 124.878 109.594 124.878 129.149C124.878 148.705 140.772 164.557 160.377 164.557Z" fill="white"/>
<path d="M160.585 167.551C139.356 167.665 121.991 150.541 121.867 129.367C121.752 108.192 138.92 90.8715 160.148 90.7471C181.377 90.6332 198.742 107.757 198.867 128.931C198.981 150.106 181.813 167.437 160.585 167.551ZM160.19 96.7245C142.264 96.8281 127.776 111.445 127.87 129.325C127.963 147.205 142.628 161.667 160.553 161.563C178.479 161.46 192.967 146.832 192.874 128.963C192.77 111.082 178.116 96.6312 160.19 96.7245Z" fill="#EDBD1D"/>
<path d="M161.488 131.107L188.834 120.986C188.834 120.986 181.096 98.8586 160.636 99.5112L161.498 131.107H161.488Z" fill="#E5CEFF"/>
<path d="M160.221 101.794L160.21 101.794C159.384 101.798 158.718 102.47 158.723 103.293L158.904 136.785C158.909 137.608 159.582 138.273 160.408 138.268L160.418 138.268C161.244 138.264 161.91 137.592 161.906 136.768L161.724 103.277C161.72 102.453 161.046 101.789 160.221 101.794Z" fill="#5B3785"/>
<path d="M174.2 126.922C173.909 126.155 173.047 125.751 172.269 126.041L154.052 132.816C153.283 133.106 152.878 133.966 153.169 134.743L153.356 135.241C153.543 135.738 154.104 135.997 154.602 135.81L173.318 128.849C174.086 128.559 174.491 127.699 174.2 126.922Z" fill="#5B3785"/>
<path d="M190.309 131.418C190.309 131.211 190.153 131.045 189.956 131.034L182.644 130.765C182.436 130.765 182.27 130.921 182.26 131.117C182.26 131.325 182.416 131.49 182.613 131.501L189.924 131.77C190.132 131.77 190.298 131.615 190.309 131.418Z" fill="#1E2136"/>
<path d="M188.481 123.617C188.439 123.483 188.304 123.41 188.169 123.441L183.402 124.767C183.267 124.809 183.195 124.943 183.226 125.078C183.267 125.213 183.402 125.285 183.537 125.254L188.304 123.928C188.439 123.887 188.512 123.752 188.481 123.617Z" fill="#1E2136"/>
<path d="M189.094 127.751C189.094 127.616 188.979 127.502 188.834 127.502L183.89 127.626C183.755 127.626 183.641 127.74 183.641 127.885C183.641 128.02 183.755 128.134 183.901 128.134L188.844 128.01C188.979 128.01 189.094 127.896 189.094 127.751Z" fill="#1E2136"/>
<path d="M184.555 146.615C184.669 146.449 184.628 146.221 184.461 146.097L178.469 141.911C178.303 141.798 178.064 141.839 177.949 142.005C177.835 142.17 177.877 142.409 178.043 142.523L184.036 146.708C184.202 146.822 184.441 146.78 184.555 146.615Z" fill="#1E2136"/>
<path d="M188.304 135.157C188.325 135.023 188.232 134.888 188.097 134.867L183.205 134.122C183.07 134.101 182.935 134.194 182.914 134.329C182.893 134.463 182.987 134.598 183.122 134.619L188.013 135.365C188.148 135.385 188.283 135.292 188.304 135.157Z" fill="#1E2136"/>
<path d="M187.255 139.063C187.297 138.928 187.224 138.794 187.089 138.752L182.364 137.291C182.229 137.25 182.093 137.322 182.052 137.457C182.01 137.592 182.083 137.727 182.218 137.768L186.944 139.229C187.079 139.27 187.214 139.198 187.255 139.063Z" fill="#1E2136"/>
<path d="M185.521 142.875C185.593 142.761 185.552 142.606 185.438 142.533L181.211 139.964C181.096 139.892 180.941 139.933 180.868 140.047C180.795 140.161 180.837 140.317 180.951 140.389L185.178 142.958C185.292 143.031 185.448 142.989 185.521 142.875Z" fill="#1E2136"/>
<path d="M171.728 157.181C171.915 157.098 171.998 156.881 171.915 156.694L168.945 150.023C168.862 149.836 168.644 149.753 168.457 149.836C168.27 149.919 168.187 150.137 168.27 150.323L171.24 156.995C171.323 157.181 171.542 157.264 171.728 157.181Z" fill="#1E2136"/>
<path d="M180.868 149.308C180.961 149.205 180.941 149.039 180.837 148.956L177.036 145.796C176.932 145.703 176.766 145.724 176.682 145.827C176.589 145.931 176.61 146.097 176.714 146.18L180.515 149.339C180.619 149.432 180.785 149.412 180.868 149.308Z" fill="#1E2136"/>
<path d="M177.95 152.105C178.054 152.012 178.064 151.857 177.97 151.753L174.678 148.065C174.585 147.961 174.429 147.951 174.325 148.044C174.221 148.138 174.211 148.293 174.304 148.397L177.597 152.084C177.69 152.188 177.846 152.198 177.95 152.105Z" fill="#1E2136"/>
<path d="M174.491 154.477C174.616 154.415 174.657 154.26 174.595 154.136L172.31 149.764C172.248 149.64 172.092 149.598 171.967 149.66C171.843 149.723 171.801 149.878 171.864 150.002L174.148 154.374C174.211 154.498 174.367 154.54 174.491 154.477Z" fill="#1E2136"/>
<path d="M154.592 158.797C154.789 158.838 154.987 158.704 155.028 158.507L156.503 151.359C156.545 151.162 156.41 150.965 156.212 150.924C156.015 150.883 155.818 151.017 155.776 151.214L154.301 158.362C154.26 158.559 154.395 158.756 154.592 158.797Z" fill="#1E2136"/>
<path d="M166.619 157.699C166.754 157.668 166.837 157.523 166.795 157.399L165.549 152.623C165.518 152.489 165.372 152.406 165.248 152.447C165.113 152.478 165.03 152.623 165.071 152.748L166.318 157.523C166.349 157.658 166.494 157.741 166.619 157.699Z" fill="#1E2136"/>
<path d="M162.61 158.279C162.745 158.269 162.849 158.145 162.828 158L162.309 153.089C162.298 152.955 162.174 152.851 162.028 152.872C161.893 152.882 161.789 153.006 161.81 153.151L162.329 158.062C162.34 158.196 162.464 158.3 162.61 158.279Z" fill="#1E2136"/>
<path d="M144.372 104.339C144.549 104.235 144.777 104.287 144.881 104.463L148.714 110.679C148.817 110.855 148.766 111.083 148.589 111.186C148.412 111.29 148.184 111.238 148.08 111.062L144.248 104.846C144.144 104.67 144.196 104.442 144.372 104.339Z" fill="#1E2136"/>
<path d="M156.056 101.272C156.191 101.262 156.316 101.365 156.326 101.5L156.794 106.41C156.804 106.545 156.7 106.669 156.565 106.68C156.43 106.69 156.306 106.587 156.295 106.452L155.828 101.542C155.817 101.407 155.921 101.283 156.056 101.272Z" fill="#1E2136"/>
<path d="M152.089 102.091C152.224 102.059 152.359 102.142 152.39 102.277L153.574 107.063C153.605 107.198 153.522 107.332 153.387 107.363C153.252 107.394 153.117 107.312 153.086 107.177L151.902 102.391C151.871 102.256 151.954 102.122 152.089 102.091Z" fill="#1E2136"/>
<path d="M148.174 103.593C148.298 103.53 148.444 103.572 148.516 103.696L150.843 108.047C150.905 108.171 150.864 108.316 150.739 108.389C150.614 108.451 150.469 108.41 150.396 108.285L148.07 103.934C148.008 103.81 148.049 103.665 148.174 103.593Z" fill="#1E2136"/>
<path d="M133.696 116.138C133.789 115.962 134.018 115.889 134.194 115.982L140.706 119.318C140.883 119.411 140.956 119.639 140.862 119.815C140.769 119.991 140.54 120.064 140.364 119.971L133.852 116.635C133.675 116.542 133.602 116.314 133.696 116.138Z" fill="#1E2136"/>
<path d="M142.108 107.477C142.223 107.394 142.378 107.415 142.461 107.529L145.411 111.486C145.494 111.6 145.473 111.756 145.359 111.838C145.245 111.921 145.089 111.901 145.006 111.787L142.056 107.829C141.973 107.715 141.994 107.56 142.108 107.477Z" fill="#1E2136"/>
<path d="M139.138 110.233C139.231 110.14 139.398 110.14 139.491 110.233L142.991 113.714C143.085 113.807 143.085 113.973 142.991 114.066C142.898 114.159 142.731 114.159 142.638 114.066L139.138 110.585C139.045 110.492 139.045 110.326 139.138 110.233Z" fill="#1E2136"/>
<path d="M136.562 113.537C136.635 113.423 136.791 113.382 136.905 113.455L141.153 115.982C141.267 116.055 141.309 116.21 141.236 116.324C141.163 116.438 141.007 116.479 140.893 116.407L136.645 113.879C136.531 113.807 136.49 113.651 136.562 113.537Z" fill="#1E2136"/>
<path d="M130.632 132.018C130.622 131.811 130.777 131.635 130.985 131.625L138.286 131.21C138.494 131.2 138.671 131.355 138.681 131.563C138.691 131.77 138.536 131.946 138.328 131.956L131.027 132.371C130.819 132.381 130.642 132.226 130.632 132.018Z" fill="#1E2136"/>
<path d="M133.478 120.302C133.53 120.178 133.675 120.116 133.81 120.168L138.37 122.095C138.494 122.146 138.556 122.291 138.505 122.426C138.453 122.55 138.307 122.613 138.172 122.561L133.613 120.634C133.488 120.582 133.426 120.437 133.478 120.302Z" fill="#1E2136"/>
<path d="M132.314 124.177C132.346 124.042 132.491 123.959 132.616 124L137.403 125.233C137.538 125.264 137.622 125.409 137.58 125.534C137.549 125.668 137.403 125.751 137.279 125.71L132.491 124.477C132.356 124.446 132.273 124.301 132.314 124.177Z" fill="#1E2136"/>
<path d="M131.774 128.331C131.774 128.196 131.889 128.082 132.024 128.082L136.967 128.103C137.102 128.103 137.217 128.217 137.217 128.351C137.217 128.486 137.102 128.6 136.967 128.6L132.024 128.579C131.889 128.579 131.774 128.465 131.774 128.331Z" fill="#1E2136"/>
<path d="M136.697 147.102C136.573 146.936 136.614 146.708 136.781 146.584L142.69 142.285C142.856 142.16 143.085 142.202 143.209 142.368C143.334 142.533 143.292 142.761 143.126 142.886L137.217 147.185C137.051 147.309 136.822 147.267 136.697 147.102Z" fill="#1E2136"/>
<path d="M132.72 135.727C132.699 135.593 132.792 135.458 132.927 135.437L137.798 134.588C137.933 134.567 138.068 134.66 138.089 134.795C138.11 134.93 138.016 135.064 137.881 135.085L133.01 135.935C132.875 135.955 132.74 135.862 132.72 135.727Z" fill="#1E2136"/>
<path d="M133.852 139.602C133.81 139.467 133.883 139.332 134.007 139.28L138.702 137.727C138.837 137.685 138.972 137.758 139.024 137.882C139.065 138.017 138.993 138.151 138.868 138.203L134.174 139.757C134.039 139.798 133.904 139.726 133.852 139.602Z" fill="#1E2136"/>
<path d="M135.659 143.382C135.586 143.269 135.617 143.113 135.731 143.041L139.896 140.389C140.01 140.316 140.166 140.347 140.239 140.461C140.312 140.575 140.28 140.73 140.166 140.803L136.001 143.455C135.887 143.527 135.731 143.496 135.659 143.382Z" fill="#1E2136"/>
<path d="M140.436 149.712C140.343 149.609 140.353 149.453 140.457 149.36L144.185 146.128C144.289 146.035 144.445 146.045 144.539 146.149C144.632 146.252 144.622 146.408 144.518 146.501L140.789 149.733C140.685 149.826 140.53 149.816 140.436 149.712Z" fill="#1E2136"/>
<path d="M143.417 152.457C143.313 152.364 143.303 152.209 143.386 152.105L146.595 148.355C146.688 148.251 146.844 148.241 146.948 148.324C147.052 148.417 147.062 148.572 146.979 148.676L143.77 152.426C143.677 152.53 143.521 152.54 143.417 152.457Z" fill="#1E2136"/>
<path d="M146.917 154.757C146.792 154.695 146.74 154.55 146.803 154.426L148.994 150.002C149.056 149.878 149.202 149.826 149.327 149.888C149.451 149.95 149.503 150.095 149.441 150.22L147.249 154.643C147.187 154.767 147.042 154.819 146.917 154.757Z" fill="#1E2136"/>
<path d="M150.355 156.632C150.23 156.58 150.168 156.425 150.22 156.301L152.182 151.774C152.234 151.649 152.39 151.587 152.515 151.639C152.639 151.691 152.702 151.846 152.65 151.97L150.687 156.497C150.635 156.622 150.479 156.684 150.355 156.632Z" fill="#1E2136"/>
<path d="M158.871 158.321C158.736 158.31 158.632 158.186 158.643 158.052L159.068 153.141C159.079 153.007 159.203 152.903 159.338 152.913C159.473 152.924 159.577 153.048 159.567 153.183L159.141 158.093C159.131 158.228 159.006 158.331 158.871 158.321Z" fill="#1E2136"/>
<path d="M30.4407 124.56C32.2582 116.417 35.0416 107.819 37.5238 100.485L13.7404 92.4771C9.45109 105.157 6.15881 116.438 4.61133 126.124C13.0653 126.145 21.4466 126.507 29.6306 128.569C29.8487 127.357 30.1187 126.031 30.4407 124.57V124.56Z" fill="#FF956A"/>
<path d="M72.607 63.1502C72.5447 63.1502 72.4928 63.1399 72.4304 63.1088C72.2954 63.0363 69.2005 61.3063 69.7821 59.2137C69.8963 58.82 70.0209 58.4471 70.1352 58.0845C70.5818 56.7482 70.9349 55.6812 70.3117 54.5831C69.9794 53.9926 69.6574 53.6611 69.3043 53.3089C68.785 52.7806 68.2554 52.2419 67.7984 50.8538C67.7361 50.6673 67.8399 50.4601 68.0269 50.398C68.2138 50.3358 68.4215 50.4394 68.4839 50.6259C68.8889 51.8482 69.3147 52.2937 69.8132 52.8013C70.156 53.1535 70.5506 53.5472 70.9245 54.2205C71.7034 55.5983 71.2672 56.9139 70.7999 58.3021C70.6856 58.6543 70.561 59.0169 70.4571 59.4002C70.0936 60.6847 71.9942 62.0625 72.7628 62.4769C72.9393 62.5701 73.0017 62.7877 72.9082 62.9638C72.8459 63.0777 72.7212 63.1502 72.5966 63.1502H72.607Z" fill="#832E18"/>
<path d="M43.8487 65.3254C43.8487 65.3254 43.8176 65.3254 43.7968 65.3254C43.3294 65.2632 42.9867 65.0043 42.7998 64.6002C42.1974 63.3053 43.2983 60.5498 44.6484 58.3847C45.5416 56.9654 45.282 56.5407 44.7211 55.598C44.3368 54.9557 43.8591 54.1477 43.5995 52.7803C43.5579 52.5835 43.6929 52.397 43.8799 52.3659C44.0772 52.3245 44.2641 52.4592 44.2953 52.6456C44.5342 53.8887 44.9704 54.6346 45.3339 55.2354C45.9155 56.2092 46.3725 56.9758 45.2508 58.768C43.8176 61.0574 43.0386 63.4296 43.4437 64.2998C43.5268 64.4863 43.6722 64.5899 43.8903 64.621C44.0876 64.652 44.2226 64.8281 44.1914 65.025C44.1707 65.2011 44.0149 65.3357 43.8383 65.3357L43.8487 65.3254Z" fill="#832E18"/>
<path d="M104.46 138.089C107.004 138.959 109.674 139.394 112.457 139.384C113.776 139.384 115.116 139.27 116.487 139.063C120.091 138.524 123.03 137.012 125.429 134.888C118.429 134.122 111.439 135.686 104.46 138.1V138.089Z" fill="#FF6238"/>
<path d="M136.542 103.945C137.736 91.7626 137.383 80.0256 137.373 79.5283L113.568 80.3881C113.953 92.5707 112.073 105.934 110.297 112.896C109.643 112.088 108.832 110.948 107.856 109.373C104.948 104.67 101.781 98.0404 97.7717 89.639C96.8369 87.6811 95.8711 85.6507 94.8533 83.5374L72.7004 94.1453C73.7079 96.2378 74.6633 98.2475 75.5877 100.174C81.1025 111.735 85.4645 120.862 90.4393 127.347C94.5728 132.744 99.2672 136.318 104.45 138.089C111.429 135.676 118.419 134.111 125.419 134.878C134.267 127.067 135.846 110.948 136.531 103.945H136.542Z" fill="#FF946C"/>
<path d="M88.4971 99.8115C91.9556 99.5525 96.8161 94.5904 97.647 92.9225C98.4675 91.2547 86.7419 94.6525 86.7419 94.6525L88.4971 99.8218V99.8115Z" fill="#231714"/>
<path d="M33.4527 112.937L32.0714 118.137C32.0714 118.137 18.3102 112.678 13.4497 107.353L27.5016 107.716L33.4631 112.926L33.4527 112.937Z" fill="#231714"/>
<path d="M90.0549 137.975C89.4318 136.338 88.8502 134.95 88.3309 133.945C70.3635 134.67 52.4066 137.996 34.4288 138.389L31.8428 143.497C51.5861 144.284 70.8621 140.358 90.0549 137.975Z" fill="#412016"/>
<path d="M31.8428 143.497L18.6321 169.561L99.506 169.105C99.506 169.105 94.0119 148.365 90.0653 137.975C70.862 140.358 51.5861 144.284 31.8531 143.497H31.8428Z" fill="#E8D4FF"/>
<path d="M71.4125 169.095C71.319 169.095 71.2359 169.022 71.2359 168.918L70.1143 140.016C70.1143 139.912 70.187 139.83 70.2908 139.83C70.3947 139.83 70.4778 139.902 70.4778 140.006L71.5994 168.908C71.5994 169.012 71.5267 169.095 71.4229 169.095H71.4125Z" fill="#231714"/>
<path d="M65.6797 168.773C65.5862 168.773 65.5031 168.701 65.5031 168.607L64.2776 140.948C64.2776 140.845 64.3503 140.762 64.4438 140.762C64.5372 140.762 64.6307 140.834 64.6307 140.927L65.8562 168.587C65.8562 168.69 65.7835 168.773 65.6901 168.773H65.6797Z" fill="#231714"/>
<path d="M93.4928 149.691C93.4928 149.691 93.4824 149.691 93.472 149.691C84.0002 148.676 78.6619 139.425 78.61 139.332C78.558 139.249 78.5892 139.135 78.6827 139.084C78.7658 139.032 78.88 139.063 78.9319 139.156C78.9839 139.249 84.2391 148.334 93.5239 149.339C93.6174 149.35 93.6901 149.443 93.6797 149.536C93.6797 149.629 93.5966 149.691 93.5031 149.691H93.4928Z" fill="#231714"/>
<path d="M31.3234 167.893C31.3234 167.893 31.2923 167.893 31.2715 167.893C31.178 167.862 31.1261 167.769 31.1469 167.675C31.1884 167.53 35.4154 153.462 39.1128 148.127C39.1647 148.045 39.2789 148.024 39.362 148.086C39.4451 148.138 39.4659 148.252 39.4036 148.335C35.7374 153.628 31.5312 167.644 31.4896 167.779C31.4688 167.851 31.3961 167.903 31.3131 167.903L31.3234 167.893Z" fill="#231714"/>
<path d="M37.4511 48.6367C33.1514 48.3881 28.8517 46.2748 24.6766 52.0138C20.5015 57.7529 25.5386 62.9843 22.4333 66.6618C19.3176 70.3394 15.2671 65.8953 9.47187 68.34C3.66623 70.7848 -0.207656 82.0454 10.3754 86.5413C20.9585 91.0372 36.1944 80.419 38.6766 75.229C41.1484 70.039 41.865 69.4071 39.2478 65.139C36.6306 60.871 34.6677 61.3268 35.3532 57.4006C36.049 53.4745 39.8917 52.3764 39.8917 52.3764L37.4511 48.6471V48.6367Z" fill="#832E18"/>
<path d="M47.8473 25.2247C47.8473 25.2247 44.2953 24.8622 41.8028 26.5714C39.3102 28.2807 34.0861 37.7698 36.101 45.964C38.1158 54.1582 45.9051 55.1941 47.6292 58.8406L67.7775 45.5186C67.7775 45.5186 69.782 36.765 68.4111 32.3105C67.0402 27.856 56.831 20.3869 47.8577 25.2247H47.8473Z" fill="#832E18"/>
<path d="M34.6469 137.975L34.4392 138.39C52.4065 137.996 70.3635 134.681 88.3412 133.946C88.0401 133.355 87.7493 132.889 87.5 132.589L87.2092 112.243C87.2092 112.243 90.4911 107.851 90.1172 104.639C89.7433 101.428 88.1958 97.512 88.1958 97.512C88.1958 97.512 92.0386 97.222 94.8947 95.2433C97.7507 93.2647 100.15 91.8248 100.15 91.8248C100.15 91.8248 90.5846 76.348 86.8042 73.696C84.1454 71.8314 72.1083 69.6559 65.2018 68.5371C62.3145 74.7423 50.454 74.8355 45.2196 69.2415C36.3917 72.2664 24.5935 75.9647 18.8605 81.7452C12.6291 88.0229 7.90356 106.079 7.90356 106.079C7.90356 106.079 14 109.259 18.4866 110.658C22.9629 112.056 28.5816 113.579 30.2018 114.284C31.822 114.988 33.7849 115.454 33.7849 115.454L34.6573 137.965L34.6469 137.975Z" fill="#905FC7"/>
<path d="M65.2019 68.5472C62.2939 68.0707 60.2895 67.791 60.2895 67.791L47.4423 68.4851C46.7257 68.7337 45.9883 68.9927 45.2197 69.262C50.4541 74.856 62.3147 74.7628 65.2019 68.5576V68.5472Z" fill="white"/>
<path d="M65.2019 45.8086C65.2019 45.8086 68.4838 42.3486 71.2983 43.312C74.1233 44.265 74.601 50.2941 71.6099 51.5165C68.6188 52.7389 64.9526 50.4495 64.9526 50.4495L65.2019 45.8086Z" fill="#FF6238"/>
<path d="M70.7375 50.1908C70.7375 50.1908 70.7582 50.1908 70.7686 50.1908C70.7894 50.1908 72.7315 49.2791 72.1188 47.0519C71.8695 46.1403 71.4956 45.5809 70.9452 45.2908C70.2597 44.9282 69.3354 45.0008 67.7671 45.5394C67.7048 45.5602 67.6633 45.6327 67.6944 45.6948C67.7152 45.757 67.7879 45.7881 67.8502 45.7673C69.3354 45.2597 70.2182 45.1872 70.8309 45.5084C71.3087 45.7673 71.6514 46.2749 71.8799 47.1244C72.4407 49.1445 70.7375 49.9421 70.6648 49.9732C70.6024 50.0043 70.5713 50.0768 70.6024 50.139C70.6232 50.1908 70.6751 50.2115 70.7271 50.2115L70.7375 50.1908Z" fill="#231714"/>
<path d="M61.2138 64.4969C60.9645 62.0417 60.7776 59.3379 60.7776 59.3379L48.7197 55.7329C50.8592 60.695 55.8963 62.7254 61.2138 64.4865V64.4969Z" fill="#231714"/>
<path d="M61.7746 68.2263C61.598 67.6979 61.3799 66.1441 61.2137 64.4866C55.9066 62.7255 50.8591 60.6951 48.7197 55.733L47.0891 55.2461C47.0891 55.2461 48.8443 66.776 47.4318 68.4749C46.0194 70.1738 63.1974 72.5772 61.7746 68.2263Z" fill="#FF8E66"/>
<path d="M67.7672 34.2683C68.6811 36.5266 67.8399 40.0073 68.6811 44.7311C69.5327 49.455 69.9378 58.9648 63.2286 60.8709C58.6381 62.1762 53.8191 61.4821 50.5787 59.98C48.6262 59.0787 46.2686 55.453 45.3028 52.1587L41.1277 41.8098C39.1025 34.9209 43.101 27.5865 50.0802 25.8047C50.236 25.7633 50.4022 25.7219 50.5683 25.6908C64.2568 22.6762 67.7776 34.2683 67.7776 34.2683H67.7672Z" fill="#FF8E66"/>
<path d="M53.9333 45.622C53.8814 44.9901 54.0371 44.4618 54.2968 44.4411C54.5564 44.4203 54.8057 44.9072 54.868 45.5391C54.9303 46.1711 54.7641 46.6994 54.5045 46.7201C54.2449 46.7408 53.9956 46.2539 53.9333 45.622Z" fill="#231714"/>
<path d="M64.319 45.2387C64.2671 44.6068 64.4229 44.0785 64.6825 44.0578C64.9422 44.037 65.1914 44.5239 65.2538 45.1559C65.3057 45.7878 65.1499 46.3161 64.8902 46.3368C64.6306 46.3575 64.3813 45.8706 64.319 45.2387Z" fill="#231714"/>
<path d="M52.3131 43.8095C52.4274 43.8095 52.5416 43.7577 52.6351 43.6748C52.6766 43.6334 53.6737 42.7114 55.5327 42.96C55.8028 42.9911 56.052 42.8046 56.0936 42.5353C56.1351 42.266 55.9378 42.0173 55.6677 41.9759C53.2998 41.6548 52.0016 42.9082 51.9393 42.96C51.7419 43.1465 51.7419 43.4573 51.9393 43.6541C52.0431 43.7577 52.1781 43.8095 52.3131 43.7991V43.8095Z" fill="#231714"/>
<path d="M63.2182 42.2863C63.3324 42.3174 63.4571 42.3174 63.5713 42.2656C63.6336 42.2345 64.8695 41.6958 66.5416 42.5453C66.7805 42.6696 67.0817 42.5764 67.2063 42.3277C67.331 42.0895 67.2375 41.789 66.9882 41.6647C64.8592 40.5874 63.2182 41.3436 63.1455 41.3747C62.8962 41.4886 62.7924 41.789 62.9066 42.0273C62.9689 42.162 63.0832 42.2449 63.2078 42.2863H63.2182Z" fill="#231714"/>
<path d="M60.5801 53.1222C61.2344 53.2465 61.8991 53.2672 62.5534 53.3604C63.2492 53.464 63.7789 53.8991 63.6127 54.6346C62.9377 57.6285 58.7418 57.328 56.5504 56.4889C56.0311 56.2921 55.5326 56.0124 55.1795 55.5877C54.5044 54.7796 54.4006 53.2672 55.3353 52.5938C56.135 52.0137 57.267 52.2831 58.1394 52.4902C58.8872 52.6664 59.6246 52.9046 60.3828 53.0807C60.4451 53.0911 60.5178 53.1118 60.5801 53.1222Z" fill="white"/>
<path d="M45.6144 47.7045C45.6144 47.7045 50.9838 43.219 56.4156 32.7458C56.4156 32.7458 64.0387 38.2569 65.8147 39.0028C67.5906 39.7486 68.5357 42.7735 68.5357 42.7735C68.5357 42.7735 69.6678 38.5366 68.7435 33.8542C67.6114 28.1359 57.7138 22.4693 48.5328 26.0537C39.3622 29.638 38.739 40.3287 38.739 40.3287L41.5639 47.9739L45.6144 47.6942V47.7045Z" fill="#832E18"/>
<path d="M56.4154 32.9422C56.3427 32.9422 56.2804 32.9007 56.2389 32.8386C56.2181 32.7971 54.0475 28.4048 47.8472 25.2349C47.7537 25.1934 47.7121 25.0691 47.7641 24.9759C47.816 24.8826 47.9302 24.8516 48.0237 24.893C54.359 28.1355 56.5712 32.6314 56.592 32.6728C56.6439 32.7661 56.592 32.88 56.5089 32.9215C56.4777 32.9318 56.457 32.9422 56.4258 32.9422H56.4154Z" fill="white"/>
<path d="M68.6914 44.6069L68.6499 44.2754L70.7374 43.9854L70.779 44.3168L68.6914 44.6069Z" fill="#3B211B"/>
<path d="M54.1098 49.7143C51.7522 49.7661 49.7789 47.5803 49.7166 44.8247C49.6543 42.0692 51.5133 39.7901 53.8709 39.728C56.2285 39.6762 58.2018 41.862 58.2641 44.6175C58.3264 47.3731 56.4674 49.6521 54.1098 49.7039V49.7143ZM53.8813 40.0802C51.7107 40.132 49.997 42.2556 50.0593 44.8247C50.1217 47.3835 51.9392 49.4242 54.1098 49.3724C56.2804 49.3206 57.9941 47.197 57.9317 44.6279C57.8694 42.0692 56.0519 40.018 53.8917 40.0698L53.8813 40.0802Z" fill="#3B211B"/>
<path d="M66.7077 49.4135C64.3501 49.4653 62.3768 47.2795 62.3145 44.5239C62.2522 41.7684 64.1112 39.4893 66.4688 39.4272C68.8264 39.3754 70.7997 41.5612 70.862 44.3167C70.9243 47.0723 69.0653 49.3514 66.7077 49.4032V49.4135ZM66.4792 39.7794C64.3086 39.8312 62.5949 41.9548 62.6572 44.5239C62.7196 47.0827 64.5371 49.1235 66.7077 49.0717C68.8783 49.0199 70.592 46.8962 70.5296 44.3271C70.4673 41.7684 68.6498 39.7172 66.4792 39.769V39.7794Z" fill="#3B211B"/>
<path d="M58.1707 45.2077L57.9734 44.928C60.7152 43.0633 62.5431 44.5757 62.5639 44.5965L62.3458 44.8555C62.2835 44.8037 60.6841 43.488 58.1707 45.2077Z" fill="#3B211B"/>
<path d="M40.7538 46.7616L40.7227 46.4301L49.8517 45.5288L49.8933 45.8707L40.7538 46.7616Z" fill="#3B211B"/>
<path d="M61.0059 50.5014C61.0059 50.5014 60.9332 50.4807 60.9125 50.4496C60.8813 50.3978 60.8917 50.3253 60.954 50.2942C61.4318 50.0042 61.9407 49.2583 61.9718 48.3881C61.9926 47.9012 61.7641 47.6008 61.4318 47.145C61.2033 46.8342 60.9125 46.4406 60.6321 45.8812C60.6009 45.819 60.6321 45.7569 60.684 45.7258C60.7463 45.6947 60.8086 45.7258 60.8398 45.7776C61.1202 46.3163 61.4006 46.6996 61.6291 47.0103C61.9822 47.4869 62.2419 47.8391 62.2107 48.3985C62.1692 49.393 61.5979 50.1803 61.0786 50.4911C61.0579 50.5014 61.0371 50.5118 61.0163 50.5118L61.0059 50.5014Z" fill="#412016"/>
<path d="M47.3695 47.8288C47.3695 47.8288 43.9214 44.2755 41.003 45.3011C38.0846 46.3267 37.6588 52.594 40.7849 53.8268C43.911 55.0595 47.681 52.6355 47.681 52.6355L47.3695 47.8184V47.8288Z" fill="#FF8E66"/>
<path d="M41.6781 52.449C41.6781 52.449 41.6573 52.449 41.6366 52.449C41.6158 52.449 39.5906 51.5167 40.2033 49.2066C40.4526 48.2535 40.8369 47.663 41.3977 47.3626C42.1039 46.9793 43.0594 47.0415 44.7004 47.5802C44.7627 47.6009 44.8042 47.6734 44.7834 47.7459C44.7627 47.8081 44.69 47.8495 44.6173 47.8288C43.0698 47.3212 42.1455 47.2487 41.5223 47.5905C41.0238 47.8599 40.6811 48.3985 40.4526 49.2791C39.8918 51.382 41.6677 52.19 41.7404 52.2211C41.8027 52.2522 41.8339 52.3247 41.8027 52.3869C41.782 52.4387 41.73 52.4697 41.6677 52.4594L41.6781 52.449Z" fill="#231714"/>
<path d="M33.7746 115.64C33.7746 115.64 33.7538 115.64 33.7435 115.64C33.65 115.63 33.5773 115.537 33.5981 115.433L35.6752 102.101C35.6856 102.008 35.7791 101.935 35.8829 101.956C35.9764 101.966 36.0491 102.059 36.0283 102.163L33.9512 115.495C33.9408 115.589 33.8577 115.651 33.7746 115.651V115.64Z" fill="#231714"/>
<path d="M35.0416 107.664C34.9481 107.664 34.865 107.581 34.865 107.488C34.865 107.384 34.9481 107.312 35.0416 107.312C35.5505 107.312 36.6306 104.774 37.3472 102.433C37.3783 102.339 37.4718 102.288 37.5757 102.319C37.6691 102.35 37.7211 102.443 37.7003 102.547C37.3368 103.748 36.0594 107.674 35.0519 107.685L35.0416 107.664Z" fill="#231714"/>
<path d="M34.2316 91.4828C34.1693 91.4828 34.1173 91.4517 34.0862 91.3999C30.1915 85.7023 23.0877 82.636 23.0253 82.6049C22.9319 82.5634 22.8903 82.4599 22.9319 82.3666C22.9734 82.2734 23.0773 82.2319 23.1707 82.2734C23.2434 82.3045 30.4408 85.4123 34.3874 91.2031C34.4393 91.286 34.4185 91.3999 34.3354 91.4517C34.3043 91.4724 34.2731 91.4828 34.2316 91.4828Z" fill="#231714"/>
<path d="M88.1855 97.698C88.1128 97.698 88.0401 97.6566 88.0194 97.5737C87.0535 94.7664 86.6692 91.6586 86.6692 91.6275C86.6588 91.5343 86.7315 91.441 86.825 91.4307C86.9185 91.4203 87.0119 91.4928 87.0223 91.5861C87.0223 91.6171 87.4066 94.6938 88.3621 97.4598C88.3932 97.553 88.3413 97.6566 88.2478 97.6877C88.2271 97.6877 88.2063 97.6877 88.1855 97.6877V97.698Z" fill="#231714"/>
<path d="M85.5787 80.3774C85.4852 80.3774 85.4021 80.2945 85.4021 80.2013C85.4021 79.2171 87.2196 75.177 87.3027 75.0009C87.3442 74.9077 87.4481 74.8662 87.5416 74.9077C87.635 74.9491 87.6766 75.0527 87.635 75.1459C87.1157 76.2958 85.7656 79.445 85.776 80.2013C85.776 80.3048 85.6929 80.3774 85.5994 80.3774H85.5787Z" fill="#231714"/>
<path d="M50.9734 113.361C46.6426 113.361 44.0046 111.59 43.963 111.569C43.8799 111.517 43.8592 111.403 43.9215 111.321C43.9734 111.238 44.0877 111.217 44.1707 111.279C44.2331 111.321 50.8488 115.744 60.4348 110.285C60.5179 110.233 60.6322 110.264 60.6841 110.347C60.736 110.43 60.7049 110.544 60.6218 110.595C56.9141 112.709 53.6322 113.372 50.9838 113.372L50.9734 113.361Z" fill="#231714"/>
<path d="M114.129 81.8173C114.129 81.8173 108.594 74.2861 111.637 66.1023C113.423 61.3059 119.8 55.5669 119.8 55.5669C119.8 55.5669 140.737 59.0165 140.966 63.5332C141.184 68.0602 135.825 84.2103 135.825 84.2103L114.129 81.8277V81.8173Z" fill="#FF946C"/>
<path d="M114.461 75.8916C113.319 75.6119 112.384 74.69 112.156 73.4572C110.785 65.9985 108.666 56.9549 107.628 55.3492C106.703 53.9196 107.119 52.0239 108.542 51.1122C109.975 50.1903 111.875 50.6046 112.789 52.0239C114.96 55.3906 117.484 68.433 118.2 72.3488C118.502 74.0166 117.401 75.6119 115.729 75.9227C115.292 76.0056 114.856 75.9849 114.451 75.8916H114.461Z" fill="#FF946C"/>
<path d="M119.987 65.8019C119.706 65.8019 119.416 65.7501 119.135 65.6569C117.515 65.1493 116.622 63.4193 117.131 61.8032C117.172 61.6893 120.88 49.9419 122.147 44.1717L123.456 38.1944C123.819 36.5369 125.45 35.4803 127.122 35.8532C128.783 36.2158 129.832 37.8526 129.469 39.5101L128.16 45.4874C126.831 51.5268 123.154 63.1603 122.999 63.6472C122.573 64.9835 121.326 65.8226 119.987 65.7916V65.8019Z" fill="#FF946C"/>
<path d="M123.809 79.8701C123.809 79.8701 123.788 79.8701 123.778 79.8597C123.643 79.8079 123.58 79.6629 123.632 79.5282C127.433 70.1634 119.353 65.8643 119.011 65.6882C118.886 65.626 118.834 65.4707 118.896 65.3463C118.959 65.222 119.125 65.1702 119.239 65.2324C119.332 65.2738 128.077 69.9148 124.1 79.7147C124.048 79.8286 123.923 79.9011 123.798 79.8701H123.809Z" fill="#231714"/>
<path d="M137.092 64.7765C137.092 64.7765 137.04 64.7765 137.019 64.7558C136.905 64.7143 125.626 60.3013 121.409 59.0996C121.274 59.0582 121.191 58.9235 121.233 58.7785C121.274 58.6438 121.409 58.5713 121.555 58.6024C125.792 59.8144 137.102 64.2274 137.217 64.2792C137.352 64.331 137.414 64.4761 137.362 64.6107C137.32 64.7143 137.217 64.7765 137.102 64.7765H137.092Z" fill="#231714"/>
<path d="M129.936 52.7597C131.203 53.1844 132.076 54.1892 132.335 55.308C133.177 54.6554 134.392 54.4379 135.576 54.8419C136.916 55.2977 137.85 56.3958 138.037 57.5974C138.068 57.7632 138.068 57.9393 138.058 58.1154C138.816 57.4421 139.969 57.1934 141.101 57.5767C142.306 57.9807 143.137 58.9752 143.313 60.0422C143.376 60.4152 143.355 60.8088 143.23 61.1818L140.696 69.2827C140.239 70.7227 138.557 71.4582 136.936 70.9091C135.794 70.5258 134.994 69.6142 134.766 68.599C134.008 69.7282 132.439 70.2254 130.913 69.7178C129.646 69.2931 128.763 68.2882 128.503 67.1798C127.662 67.8221 126.457 68.0396 125.273 67.646C123.902 67.1798 123.009 66.0299 122.853 64.8075C123.445 60.7985 124.525 57.9497 126.197 52.884C126.914 52.6146 129.085 52.511 129.926 52.7907L129.936 52.7597Z" fill="#FF6238"/>
<path d="M122.916 64.383C122.916 64.383 122.822 64.4452 122.77 64.4244C122.698 64.4037 122.656 64.3312 122.677 64.269L126 53.7854C126.021 53.7233 126.094 53.6922 126.166 53.7129C126.239 53.7337 126.281 53.8062 126.26 53.8683L122.936 64.3519C122.936 64.3519 122.936 64.3726 122.916 64.383Z" fill="#231714"/>
<path d="M128.638 67.2314C128.638 67.2314 128.555 67.2832 128.493 67.2729C128.42 67.2521 128.379 67.1796 128.399 67.1175L130.144 60.5911C130.155 60.529 130.227 60.4979 130.3 60.5186C130.373 60.5393 130.414 60.6118 130.393 60.674L128.649 67.2003C128.649 67.2003 128.649 67.2211 128.628 67.2314H128.638Z" fill="#231714"/>
<path d="M135.773 66.092C135.773 66.092 135.69 66.1438 135.638 66.1335C135.565 66.1128 135.524 66.0402 135.534 65.9781L137.425 58.5608C137.435 58.4987 137.508 58.4676 137.58 58.4883C137.653 58.509 137.695 58.5816 137.684 58.6437L135.794 66.061C135.794 66.061 135.794 66.092 135.773 66.1024V66.092Z" fill="#231714"/>
<path d="M134.89 68.6508C134.89 68.6508 134.807 68.7026 134.755 68.6923C134.683 68.6716 134.641 68.6094 134.651 68.5473L134.859 67.4906C134.87 67.4285 134.942 67.387 135.015 67.4077C135.088 67.4285 135.129 67.4906 135.119 67.5528L134.911 68.6094C134.911 68.6094 134.911 68.6405 134.89 68.6508Z" fill="#231714"/>
<path d="M128.244 64.1445C128.244 64.1445 128.244 64.1652 128.244 64.1756L127.631 66.5893C127.631 66.5893 127.6 66.6514 127.558 66.6721C127.496 66.6929 126.125 67.1797 124.588 66.4339C124.515 66.4028 124.494 66.3199 124.515 66.2681C124.546 66.206 124.629 66.1853 124.692 66.2163C125.938 66.8172 127.101 66.5375 127.371 66.4546L127.953 64.1548C126.8 62.6217 124.785 62.6631 124.359 62.6838L123.819 64.6728C123.798 64.735 123.726 64.7764 123.653 64.7453C123.58 64.7246 123.539 64.6521 123.549 64.5899L124.11 62.5284C124.11 62.5284 124.162 62.4559 124.214 62.4456C124.245 62.4456 126.831 62.1659 128.212 64.072C128.223 64.0927 128.233 64.1134 128.233 64.1341L128.244 64.1445Z" fill="#231714"/>
<path d="M134.35 65.978C134.35 65.978 134.35 65.9987 134.35 66.009L133.737 68.4228C133.737 68.4228 133.706 68.4849 133.665 68.5056C133.602 68.5264 132.232 69.0132 130.694 68.2674C130.622 68.2363 130.601 68.1534 130.622 68.1016C130.653 68.0395 130.736 68.0188 130.798 68.0498C132.045 68.6507 133.208 68.371 133.478 68.2881L134.059 65.9883C132.907 64.4552 130.892 64.4966 130.466 64.5173L129.926 66.5063C129.905 66.5684 129.832 66.6099 129.76 66.5788C129.687 66.5581 129.645 66.4856 129.656 66.4234L130.217 64.3619C130.217 64.3619 130.269 64.2894 130.321 64.279C130.352 64.279 132.938 63.9993 134.319 65.9055C134.329 65.9262 134.34 65.9469 134.34 65.9676L134.35 65.978Z" fill="#231714"/>
<path d="M140.488 67.2834C140.488 67.2834 140.488 67.3041 140.488 67.3145L139.907 69.5935C139.907 69.5935 139.876 69.6557 139.834 69.666C139.782 69.6867 138.474 70.1426 137.03 69.4381C136.968 69.407 136.936 69.3345 136.968 69.2827C136.999 69.2206 137.071 69.2102 137.134 69.2413C138.307 69.8111 139.419 69.5417 139.668 69.4692L140.218 67.2938C139.128 65.8435 137.217 65.8745 136.812 65.9056L136.303 67.791C136.282 67.8532 136.22 67.8842 136.147 67.8635C136.074 67.8428 136.033 67.7703 136.054 67.7185L136.583 65.7606C136.583 65.7606 136.635 65.6881 136.677 65.6777C136.698 65.6777 139.149 65.4084 140.468 67.2212C140.478 67.242 140.488 67.2627 140.488 67.2834Z" fill="#231714"/>
<path d="M73.0951 141.829L62.2316 142.823C61.6396 142.875 61.1203 142.44 61.0684 141.86L60.4764 135.458C60.4244 134.867 60.8606 134.349 61.4422 134.298L72.3057 133.303C72.8977 133.251 73.417 133.686 73.4689 134.266L74.0609 140.668C74.1129 141.259 73.6767 141.777 73.0951 141.829ZM63.0936 140.596L71.828 139.798L71.4333 135.53L62.6989 136.328L63.0936 140.596Z" fill="#FFB778"/>
<path d="M72.3299 137.141L68.3975 137.58L68.4771 138.29L72.4096 137.851L72.3299 137.141Z" fill="#FFB778"/>
<path d="M5.598 82.9776C5.50453 82.9776 5.41106 82.9465 5.34874 82.874C2.03569 79.5486 1.02827 75.2288 2.6069 71.0126C3.96744 67.3765 7.11432 64.4759 9.91848 64.2687C11.4971 64.1548 12.9719 64.2169 14.2701 64.2791C16.2434 64.3723 17.8013 64.4448 18.4867 63.8025C18.7671 63.5436 18.9229 63.1395 18.9333 62.5801C19.0164 59.9178 19.7538 54.0855 21.9763 51.0399C24.0846 48.16 27.2315 45.8292 35.914 48.1497C36.101 48.2015 36.2152 48.3983 36.1633 48.5848C36.1114 48.7712 35.914 48.8852 35.7271 48.8334C27.46 46.6269 24.5105 48.7919 22.5579 51.4543C20.5846 54.1477 19.7434 59.5863 19.6499 62.5905C19.6292 63.3571 19.4007 63.9165 18.9749 64.3205C18.0609 65.17 16.368 65.0871 14.239 64.9835C12.9615 64.9213 11.5179 64.8592 9.98079 64.9731C7.43628 65.1596 4.55943 67.8634 3.29236 71.2509C2.43035 73.5713 1.60987 78.088 5.86803 82.356C6.00305 82.501 6.00305 82.7186 5.86803 82.8636C5.79533 82.9361 5.70186 82.9672 5.61877 82.9672L5.598 82.9776Z" fill="#832E18"/>
<path d="M109.102 117.236C109.102 117.236 109.071 117.236 109.051 117.236C108.957 117.205 108.905 117.112 108.926 117.018L110.131 112.864C110.162 112.771 110.255 112.719 110.349 112.74C110.442 112.771 110.494 112.864 110.473 112.957L109.269 117.112C109.248 117.194 109.175 117.236 109.092 117.236H109.102Z" fill="#231714"/>
<path d="M3.89478 142.026C4.44522 146.905 5.87845 151.09 8.40219 154.498C11.331 158.455 15.6618 160.931 21.9764 162.019C26.8992 149.381 15.5684 140.637 3.89478 142.015V142.026Z" fill="#FF6238"/>
<path d="M70.0417 131.076C53.9853 135.282 36.4438 138.017 28.696 137.685C28.6648 135.872 28.8414 132.972 29.6411 128.559C21.4571 126.507 13.0758 126.145 4.6218 126.114C3.6767 132.029 3.3859 137.354 3.90519 142.026C15.5788 140.648 26.9096 149.391 21.9868 162.029C24.5936 162.475 27.5328 162.703 30.8562 162.682C36.2672 162.651 42.696 162.009 50.3191 160.786C63.6441 158.642 75.9304 155.431 76.4393 155.296L70.0521 131.086L70.0417 131.076Z" fill="#FF956A"/>
<path d="M33.3664 148.411L30.0554 148.527L30.0995 149.78L33.4105 149.664L33.3664 148.411Z" fill="#412016"/>
<path d="M37.5339 148.266L34.2229 148.382L34.267 149.635L37.578 149.519L37.5339 148.266Z" fill="#412016"/>
<path d="M41.6702 148.121L38.3591 148.237L38.4032 149.49L41.7142 149.374L41.6702 148.121Z" fill="#412016"/>
<path d="M45.6714 147.981L42.3604 148.097L42.4044 149.35L45.7154 149.234L45.6714 147.981Z" fill="#412016"/>
<path d="M49.9324 147.832L46.6213 147.948L46.6654 149.201L49.9764 149.085L49.9324 147.832Z" fill="#412016"/>
<path d="M53.9336 147.692L50.6226 147.808L50.6666 149.061L53.9777 148.945L53.9336 147.692Z" fill="#412016"/>
<path d="M107.711 111.383L59.4481 113.714C58.5757 113.755 57.8695 114.408 57.7449 115.268L52.8843 149.381C52.7285 150.489 53.6113 151.473 54.733 151.442L102.705 149.961C103.577 149.93 104.315 149.288 104.439 148.417L109.591 113.444C109.757 112.315 108.853 111.321 107.711 111.373V111.383Z" fill="#D1C3CE"/>
<path d="M109.196 111.331L60.9332 113.662C60.0608 113.703 59.3546 114.356 59.23 115.216L54.3694 149.329C54.2137 150.437 55.0964 151.422 56.2181 151.39L104.19 149.909C105.062 149.878 105.8 149.236 105.924 148.366L111.076 113.393C111.242 112.263 110.338 111.269 109.196 111.321V111.331Z" fill="#74D3D3"/>
<path d="M52.9155 149.339L57.7761 115.226C57.9007 114.366 58.6173 113.714 59.4793 113.672L107.742 111.341C107.804 111.341 107.856 111.341 107.918 111.352L60.9749 113.62C60.1025 113.662 59.3962 114.314 59.2716 115.174L54.4111 149.287C54.2553 150.396 55.1381 151.38 56.2597 151.349L102.819 149.919H102.778L54.785 151.401C53.6633 151.432 52.7805 150.448 52.9363 149.339H52.9155Z" fill="#A6FFFF"/>
<path d="M28.8309 152.8L66.7597 150.966L66.6039 147.692L28.7582 149.526C28.5401 149.536 28.3636 149.723 28.374 149.951L28.4986 152.509C28.4986 152.686 28.6544 152.82 28.8309 152.81V152.8Z" fill="#74D3D3"/>
<path d="M50.2281 149.447L46.2839 149.585L46.3222 150.673L50.2663 150.534L50.2281 149.447Z" fill="#412016"/>
<path d="M50.223 149.593L46.2788 149.731L46.2937 150.155L50.2379 150.017L50.223 149.593Z" fill="white"/>
<path d="M30.9393 150.903C30.9289 150.582 31.1781 150.313 31.5001 150.303C31.8221 150.292 32.0921 150.541 32.1025 150.862C32.1129 151.183 31.8636 151.452 31.5417 151.463C31.2197 151.473 30.9497 151.225 30.9393 150.903Z" fill="#412016"/>
<path d="M32.7879 150.841C32.7775 150.52 33.0268 150.251 33.3487 150.241C33.6707 150.23 33.9407 150.479 33.9511 150.8C33.9615 151.121 33.7122 151.39 33.3903 151.401C33.0683 151.411 32.7983 151.163 32.7879 150.841Z" fill="#412016"/>
<path d="M87.1781 133.697C86.0772 134.308 84.6855 134.288 83.5223 133.79C81.7775 133.044 80.0431 131.128 80.2716 129.118C80.4897 127.171 82.3176 125.834 84.1247 125.41C85.3917 125.109 86.7938 125.306 87.8636 126.052C90.3561 127.792 89.7849 132.154 87.282 133.645C87.2508 133.666 87.2196 133.687 87.1885 133.697H87.1781Z" fill="#A6FFFF"/>
<path d="M62.6678 153.369L62.377 143.455C62.325 141.684 63.9141 140.171 65.9185 140.068C67.5802 139.985 69.0031 140.907 69.4704 142.233C69.8132 140.803 71.2049 139.685 72.9185 139.591C74.2271 139.519 75.3903 140.089 76.055 140.969C76.6366 139.923 77.8102 139.156 79.2019 139.084C80.8844 139.001 82.328 139.943 82.7746 141.301C83.2835 140.348 84.3532 139.653 85.6099 139.581C87.4066 139.488 88.9022 140.7 88.9437 142.285L89.2034 151.173C89.2138 151.587 89.1307 151.981 88.9645 152.344C88.4868 153.379 87.3651 154.136 86.0357 154.208C84.779 154.27 83.6885 153.69 83.1173 152.799C83.0758 152.975 83.0239 153.152 82.9512 153.317C82.4215 154.467 81.1648 155.327 79.6796 155.4C78.3607 155.472 77.2078 154.902 76.5431 154.011C75.9615 155.058 74.7983 155.835 73.3963 155.907C71.7345 155.99 70.3221 155.068 69.8443 153.752C69.8028 153.939 69.7405 154.136 69.6574 154.312C69.1277 155.462 67.871 156.311 66.3859 156.394C64.3814 156.498 62.7197 155.151 62.6678 153.379V153.369Z" fill="#FF946C"/>
<path d="M69.6055 142.191C69.6055 142.191 69.5328 142.108 69.4705 142.108C69.3978 142.108 69.3354 142.171 69.3354 142.243L69.7093 153.763C69.7093 153.835 69.7717 153.887 69.8547 153.877C69.9274 153.877 69.9897 153.814 69.9897 153.742L69.6159 142.222C69.6159 142.222 69.6159 142.202 69.6159 142.181L69.6055 142.191Z" fill="#231714"/>
<path d="M76.1899 140.928C76.1899 140.928 76.1172 140.845 76.0549 140.845C75.9822 140.845 75.9095 140.907 75.9095 140.969L75.8264 148.044C75.8264 148.117 75.8887 148.169 75.9614 148.169C76.0341 148.169 76.1068 148.107 76.1068 148.044L76.1899 140.969C76.1899 140.969 76.1899 140.938 76.1899 140.928Z" fill="#231714"/>
<path d="M83.0655 144.098C83.0655 144.098 82.9928 144.015 82.9409 144.015C82.8682 144.015 82.7955 144.066 82.7955 144.139L82.5981 152.167C82.5981 152.24 82.6605 152.292 82.7332 152.292C82.8059 152.292 82.8786 152.24 82.8786 152.167L83.0759 144.139C83.0759 144.139 83.0759 144.108 83.0759 144.098H83.0655Z" fill="#231714"/>
<path d="M82.9096 141.269C82.9096 141.269 82.8473 141.187 82.785 141.187C82.7123 141.187 82.6396 141.238 82.6396 141.3L82.5461 142.43C82.5461 142.502 82.5981 142.554 82.6812 142.554C82.7539 142.554 82.8266 142.502 82.8266 142.44L82.92 141.311C82.92 141.311 82.92 141.28 82.92 141.259L82.9096 141.269Z" fill="#231714"/>
<path d="M67.9956 145.123C67.9956 145.123 67.9956 145.103 67.9956 145.082L68.2864 142.482C68.2864 142.482 68.276 142.409 68.2448 142.378C68.1929 142.337 67.0297 141.373 65.2538 141.58C65.1707 141.591 65.1187 141.653 65.1187 141.725C65.1187 141.798 65.2018 141.85 65.2745 141.839C66.7181 141.674 67.7567 142.368 67.9852 142.533L67.7048 145.009C66.0119 146.128 64.049 145.382 63.6336 145.196L63.8413 143.041C63.8413 142.969 63.7894 142.906 63.7063 142.906C63.6232 142.906 63.5609 142.958 63.5505 143.031L63.3428 145.268C63.3428 145.268 63.3635 145.362 63.4155 145.382C63.4362 145.393 65.8769 146.574 67.9333 145.165C67.9541 145.154 67.9748 145.134 67.9852 145.113L67.9956 145.123Z" fill="#231714"/>
<path d="M74.9126 143.932V143.911L74.9749 141.29C74.9749 141.29 74.9541 141.218 74.923 141.187C74.871 141.145 73.6143 140.275 71.8592 140.586C71.7761 140.607 71.7241 140.669 71.7449 140.741C71.7553 140.814 71.8384 140.855 71.9111 140.845C73.3339 140.586 74.4348 141.197 74.6841 141.353L74.6218 143.839C73.0224 145.061 70.9971 144.45 70.5713 144.305L70.5921 142.15C70.5921 142.078 70.5298 142.026 70.4467 142.026C70.3636 142.026 70.3013 142.088 70.3013 142.161L70.2805 144.409C70.2805 144.409 70.3117 144.502 70.3636 144.522C70.3844 144.522 72.9185 145.548 74.8606 144.005C74.8814 143.984 74.8918 143.973 74.9022 143.942L74.9126 143.932Z" fill="#231714"/>
<path d="M81.6009 143.818V143.776L81.6736 141.176C81.6736 141.135 81.6528 141.104 81.6217 141.073C81.5697 141.031 80.3131 140.161 78.5579 140.472C78.4748 140.492 78.4229 140.555 78.4436 140.627C78.454 140.7 78.5371 140.741 78.6098 140.731C80.0327 140.472 81.1335 141.083 81.3828 141.238L81.3205 143.725C79.7211 144.947 77.6959 144.336 77.27 144.191L77.2908 142.036C77.2908 141.963 77.2285 141.912 77.1454 141.912C77.0623 141.912 77 141.974 77 142.046L76.9792 144.294C76.9792 144.294 77.0104 144.388 77.0623 144.408C77.0831 144.408 79.6172 145.434 81.5594 143.89C81.5801 143.87 81.5905 143.859 81.6009 143.828V143.818Z" fill="#231714"/>
<path d="M88.1648 144.232C88.1648 144.232 88.1648 144.212 88.1648 144.201L88.2271 141.736C88.2271 141.736 88.2063 141.663 88.1752 141.642C88.1232 141.611 86.9393 140.783 85.2775 141.083C85.2048 141.093 85.1529 141.166 85.1633 141.228C85.1737 141.29 85.2464 141.332 85.3191 141.321C86.6692 141.073 87.7078 141.653 87.9467 141.808L87.8844 144.16C86.368 145.32 84.4571 144.74 84.052 144.595L84.0728 142.554C84.0728 142.492 84.0105 142.43 83.9378 142.44C83.8651 142.44 83.8028 142.502 83.8028 142.564L83.782 144.688C83.782 144.688 83.8131 144.771 83.8547 144.792C83.8755 144.792 86.2746 145.765 88.1128 144.305C88.1336 144.294 88.144 144.274 88.1544 144.253L88.1648 144.232Z" fill="#231714"/>
<path d="M181.055 53.1949V51.2577C181.045 51.1023 181.169 50.978 181.315 50.978C181.47 50.978 181.595 51.1023 181.595 51.2577V53.1949C181.595 53.1949 181.086 53.1949 181.055 53.1949Z" fill="#3B3047"/>
<path d="M192.272 52.9253L174.47 53.0289L166.806 53.0703L166.961 80.3049L192.417 80.1598L192.272 52.9253Z" fill="#A074D3"/>
<path d="M179.497 55.4427C178.874 55.4427 178.365 54.9454 178.355 54.3239L178.334 50.9364C178.334 50.781 178.458 50.6567 178.614 50.6567C178.77 50.6567 178.895 50.781 178.895 50.9364L178.915 54.3239C178.915 54.645 179.175 54.8936 179.497 54.8936C179.819 54.8936 180.068 54.6346 180.068 54.3135L180.047 50.8121C180.047 50.2112 179.559 49.7347 178.957 49.7347H178.635C178.033 49.7347 177.555 50.2319 177.555 50.8224V53.0082C177.555 53.0082 177.004 53.0082 177.015 53.0082V50.8224C176.994 49.9212 177.731 49.1857 178.635 49.1753H178.957C179.861 49.1753 180.598 49.9004 180.608 50.8017L180.629 54.3031C180.629 54.9247 180.131 55.4323 179.507 55.4427H179.497Z" fill="#3B3047"/>
<path d="M174.19 62.9637L170.555 62.9844C170.482 62.9844 170.43 62.9326 170.43 62.8601L170.409 59.2344C170.409 59.1619 170.461 59.1101 170.534 59.1101L174.169 59.0894C174.242 59.0894 174.294 59.1412 174.294 59.2137L174.314 62.8394C174.314 62.9119 174.263 62.9637 174.19 62.9637ZM170.679 62.7358L174.065 62.7151L174.044 59.338L170.659 59.3587L170.679 62.7358Z" fill="white"/>
<path d="M172.113 62.1765C172.113 62.1765 172.04 62.1661 172.019 62.135L171.022 61.0887C171.022 61.0887 170.981 60.9541 171.022 60.9126C171.074 60.8608 171.157 60.8712 171.199 60.9126L172.092 61.8553L173.702 59.7006C173.743 59.6488 173.826 59.6384 173.878 59.6799C173.93 59.7213 173.951 59.8042 173.899 59.856L172.206 62.1247C172.206 62.1247 172.154 62.1765 172.113 62.1765Z" fill="white"/>
<path d="M174.232 69.9144L170.597 69.9351C170.524 69.9351 170.472 69.8833 170.472 69.8108L170.451 66.1851C170.451 66.1126 170.503 66.0608 170.576 66.0608L174.211 66.04C174.284 66.04 174.335 66.0918 174.335 66.1643L174.356 69.7901C174.356 69.8626 174.304 69.9144 174.232 69.9144ZM170.721 69.6865L174.107 69.6658L174.086 66.2887L170.7 66.3094L170.721 69.6865Z" fill="white"/>
<path d="M172.144 69.1169C172.144 69.1169 172.071 69.1065 172.051 69.0754L171.054 68.0292C171.054 68.0292 171.012 67.8945 171.054 67.8531C171.106 67.8013 171.189 67.8116 171.23 67.8531L172.123 68.7957L173.733 66.641C173.775 66.5892 173.858 66.5789 173.91 66.6203C173.962 66.6617 173.982 66.7446 173.93 66.7964L172.238 69.0651C172.238 69.0651 172.186 69.1169 172.144 69.1169Z" fill="white"/>
<path d="M181.086 60.581L176.651 60.6017C176.371 60.6017 176.143 60.3842 176.143 60.1045C176.143 59.8248 176.361 59.5969 176.641 59.5969L181.076 59.5762C181.356 59.5762 181.585 59.7937 181.585 60.0734C181.585 60.3531 181.367 60.581 181.086 60.581Z" fill="white"/>
<path d="M188.605 60.5395L183.412 60.5706C183.132 60.5706 182.904 60.3531 182.904 60.0734C182.904 59.7937 183.122 59.5657 183.402 59.5657L188.595 59.5347C188.875 59.5347 189.104 59.7522 189.104 60.0319C189.104 60.3116 188.886 60.5395 188.605 60.5395Z" fill="white"/>
<path d="M186.217 62.7251L176.662 62.7769C176.381 62.7769 176.153 62.5593 176.153 62.2796C176.153 61.9999 176.371 61.772 176.651 61.772L186.206 61.7202C186.487 61.7202 186.715 61.9378 186.715 62.2175C186.715 62.4972 186.497 62.7251 186.217 62.7251Z" fill="white"/>
<path d="M174.273 76.0267L170.638 76.0474C170.565 76.0474 170.513 75.9956 170.513 75.9231L170.493 72.2974C170.493 72.2249 170.545 72.1731 170.617 72.1731L174.252 72.1523C174.325 72.1523 174.377 72.2041 174.377 72.2767L174.398 75.9024C174.398 75.9749 174.346 76.0267 174.273 76.0267ZM170.763 75.7988L174.148 75.7781L174.128 72.401L170.742 72.4217L170.763 75.7988Z" fill="white"/>
<path d="M172.186 75.2394C172.186 75.2394 172.113 75.2291 172.092 75.198L171.095 74.1517C171.095 74.1517 171.054 74.017 171.095 73.9756C171.147 73.9238 171.23 73.9342 171.272 73.9756L172.165 74.9183L173.775 72.7636C173.816 72.7118 173.899 72.7014 173.951 72.7429C174.003 72.7843 174.024 72.8672 173.972 72.919L172.279 75.1876C172.279 75.1876 172.227 75.2394 172.186 75.2394Z" fill="white"/>
<path d="M181.159 73.644L176.724 73.6647C176.444 73.6647 176.215 73.4472 176.215 73.1675C176.215 72.8878 176.433 72.6599 176.714 72.6599L181.148 72.6392C181.429 72.6392 181.657 72.8567 181.657 73.1364C181.657 73.4161 181.439 73.644 181.159 73.644Z" fill="white"/>
<path d="M188.678 73.5923L183.485 73.6233C183.205 73.6233 182.976 73.4058 182.976 73.1261C182.976 72.8464 183.194 72.6185 183.475 72.6185L188.668 72.5874C188.948 72.5874 189.177 72.805 189.177 73.0847C189.177 73.3644 188.959 73.5923 188.678 73.5923Z" fill="white"/>
<path d="M186.289 75.7881L176.734 75.8398C176.454 75.8398 176.226 75.6223 176.226 75.3426C176.226 75.0629 176.444 74.835 176.724 74.835L186.279 74.7832C186.559 74.7832 186.788 75.0007 186.788 75.2804C186.788 75.5601 186.57 75.7881 186.289 75.7881Z" fill="white"/>
<path d="M186.237 67.0449L176.682 67.0967C176.402 67.0967 176.174 66.8791 176.174 66.5994C176.174 66.3197 176.392 66.0918 176.672 66.0918L186.227 66.04C186.507 66.04 186.736 66.2576 186.736 66.5373C186.736 66.817 186.518 67.0449 186.237 67.0449Z" fill="white"/>
<path d="M180.307 69.2207L176.693 69.2414C176.413 69.2414 176.184 69.0238 176.184 68.7441C176.184 68.4644 176.402 68.2365 176.683 68.2365L180.297 68.2158C180.577 68.2158 180.806 68.4334 180.806 68.7131C180.806 68.9928 180.588 69.2207 180.307 69.2207Z" fill="white"/>
<path d="M188.616 69.1689L181.886 69.2103C181.605 69.2103 181.377 68.9928 181.377 68.7131C181.377 68.4334 181.595 68.2055 181.875 68.2055L188.605 68.1641C188.886 68.1641 189.114 68.3816 189.114 68.6613C189.114 68.941 188.896 69.1689 188.616 69.1689Z" fill="white"/>
<path d="M0 173H205.264V171.208C205.264 169.26 203.602 167.686 201.546 167.686H3.7181C1.66172 167.686 0 169.26 0 171.208V173Z" fill="#A8CFCF"/>
</g>
<defs>
<linearGradient id="paint0_linear_1692_92462" x1="160.2" y1="165.748" x2="185.67" y2="133.716" gradientUnits="userSpaceOnUse">
<stop stop-color="#53BFC0"/>
<stop offset="1" stop-color="#95DDDE"/>
</linearGradient>
<linearGradient id="paint1_linear_1692_92462" x1="183.371" y1="176.16" x2="199.551" y2="146.528" gradientUnits="userSpaceOnUse">
<stop stop-color="#83DDDE"/>
<stop offset="1" stop-color="#BBF1F2"/>
</linearGradient>
<clipPath id="clip0_1692_92462">
<rect width="217" height="173" fill="white"/>
</clipPath>
</defs>
</svg>
