<svg width="150" height="150" viewBox="0 0 150 150" fill="none" xmlns="http://www.w3.org/2000/svg">
<path d="M149.008 21.3448C148.871 20.7393 148.443 20.2419 147.865 20.0167C147.289 19.794 146.636 19.8669 146.125 20.2211L130.456 31.0571L118.621 19.2224L129.458 3.55309C129.813 3.04269 129.888 2.39032 129.663 1.81219C129.436 1.23405 128.938 0.805688 128.333 0.670255C120.435 -1.10838 112.242 0.693693 105.879 5.59092C105.695 5.72894 105.513 5.86696 105.376 5.98546C104.767 6.49326 104.176 7.04146 103.646 7.59092C98.5143 12.7056 95.702 19.5219 95.6773 26.6573C93.2489 25.6013 90.7436 24.7302 88.184 24.0739V14.3069C88.184 13.2757 87.348 12.4397 86.3168 12.4397H63.6904C62.6592 12.4397 61.8232 13.2757 61.8232 14.3069V24.0739C57.1839 25.2653 52.7332 27.1091 48.5562 29.5699L41.6602 22.6586C41.31 22.307 40.8347 22.1104 40.3399 22.1104H40.3386C39.8425 22.1104 39.3686 22.307 39.0183 22.6586L23.021 38.6743C22.2931 39.4021 22.2931 40.5831 23.0197 41.3123L29.9157 48.2236C27.4587 52.3733 25.615 56.82 24.421 61.4776H14.654C13.6228 61.4776 12.7868 62.3136 12.7868 63.3448V85.9868C12.7868 87.0181 13.6228 87.854 14.654 87.854H24.426C25.0745 90.3501 25.9143 92.7797 26.9169 95.126C19.8779 95.2315 13.1603 98.0375 8.12526 103.073C7.47033 103.728 6.8401 104.432 6.2763 105.136C5.97031 105.502 5.706 105.849 5.45206 106.194C5.30102 106.389 5.14998 106.603 5.01586 106.816C4.98591 106.855 4.95727 106.897 4.92993 106.936L4.92732 106.935C0.796989 113.083 -0.636345 120.756 0.997655 127.987C1.13438 128.592 1.56275 129.09 2.14219 129.315C2.72032 129.541 3.37135 129.462 3.88179 129.11L19.5328 118.273L31.3831 130.108L20.5301 145.756C20.176 146.266 20.0991 146.919 20.3244 147.498C20.551 148.078 21.0497 148.506 21.6551 148.641C23.6304 149.085 25.6291 149.303 27.6188 149.303C33.2568 149.303 38.8155 147.546 43.5135 144.168C43.5942 144.108 43.671 144.049 43.7452 143.987C44.0213 143.789 44.2921 143.591 44.5096 143.406C45.1515 142.893 45.8051 142.31 46.5864 141.55C51.6371 136.5 54.4444 129.778 54.5381 122.743C56.9274 123.765 59.3637 124.606 61.8231 125.238V135.005C61.8231 136.036 62.659 136.872 63.6903 136.872H86.3139C87.3452 136.872 88.1811 136.036 88.1811 135.005V125.238C92.8205 124.046 97.2711 122.203 101.448 119.742L108.344 126.653C108.694 127.005 109.168 127.201 109.664 127.201H109.666C110.161 127.201 110.636 127.005 110.986 126.655L126.983 110.657C127.711 109.929 127.713 108.751 126.987 108.02L120.089 101.089C122.526 96.9685 124.369 92.5268 125.58 87.8511H135.352C136.383 87.8511 137.219 87.0152 137.219 85.9839V63.3446C137.219 62.3133 136.383 61.4774 135.352 61.4774H125.585C124.929 58.9188 124.059 56.4161 123.004 53.9891C130.137 53.976 136.948 51.1714 142.055 46.0647C142.537 45.6051 142.974 45.1429 143.393 44.6403C148.75 38.2159 150.849 29.5076 149.008 21.3446L149.008 21.3448ZM25.8912 84.1181H16.5202V65.2091H25.8912C26.7636 65.2091 27.5201 64.605 27.7128 63.7534C28.899 58.4957 30.9654 53.5124 33.8535 48.9397C34.3196 48.2028 34.2128 47.2418 33.597 46.6246L26.9796 39.992L40.339 26.617L46.9523 33.2446C47.5682 33.8631 48.5278 33.9712 49.2661 33.5076C53.8794 30.6105 58.8714 28.544 64.1034 27.3643C64.955 27.1716 65.5592 26.4151 65.5592 25.5427V16.1717H84.4498V25.5427C84.4498 26.4164 85.0553 27.1729 85.9082 27.3643C89.3822 28.1443 92.7662 29.3291 95.9785 30.893C96.0189 31.1651 96.0801 31.4373 96.1295 31.7094C96.1673 31.9125 96.1999 32.113 96.2415 32.3162C96.3835 32.9959 96.5436 33.6755 96.7402 34.3552L87.5906 43.5035C87.1947 43.3408 86.7833 43.2223 86.3822 43.0765C85.9434 42.9163 85.5085 42.751 85.0645 42.6104C84.4096 42.4033 83.7442 42.2341 83.0776 42.0687C82.6505 41.9632 82.2273 41.8421 81.795 41.7536C81.0541 41.6012 80.3015 41.4971 79.5476 41.3955C79.1765 41.346 78.8119 41.2731 78.4382 41.2354C77.3054 41.1221 76.1609 41.057 75.0032 41.057C56.4759 41.057 41.4032 56.13 41.4032 74.657C41.4032 75.8132 41.4683 76.9564 41.5816 78.0893C41.6194 78.4617 41.691 78.825 41.7418 79.1948C41.8433 79.95 41.9488 80.7052 42.1011 81.4474C42.1897 81.881 42.3108 82.3054 42.4175 82.7351C42.5829 83.4018 42.7509 84.0659 42.9579 84.7208C43.0998 85.17 43.2678 85.6114 43.4293 86.0554C43.5751 86.4552 43.6923 86.8653 43.8537 87.2599L34.9137 96.2025C34.1663 95.989 33.4255 95.8158 32.6898 95.6648C32.4658 95.6192 32.2458 95.584 32.0231 95.545C31.7223 95.4916 31.4176 95.4252 31.1195 95.3822C29.639 92.2741 28.4945 88.9772 27.7118 85.5685C27.5152 84.7196 26.7613 84.118 25.8915 84.118L25.8912 84.1181ZM75.0046 52.2548C62.6529 52.2548 52.6049 62.3041 52.6049 74.6545C52.6049 75.3472 52.6479 76.0425 52.7117 76.7378C52.7312 76.9487 52.7611 77.1571 52.7872 77.3667C52.821 77.6518 52.8445 77.937 52.8887 78.2209L46.7664 84.3459C46.7417 84.2755 46.7078 84.2078 46.6844 84.1375C46.6088 83.9136 46.5516 83.6857 46.4812 83.4605C46.2664 82.7704 46.075 82.0737 45.9122 81.368C45.8419 81.062 45.7794 80.7534 45.7182 80.4449C45.5867 79.7769 45.4813 79.1024 45.3966 78.4227C45.3602 78.1324 45.3172 77.8446 45.2885 77.5529C45.1974 76.5959 45.1375 75.6311 45.1375 74.6545C45.1375 58.1858 58.5358 44.7872 75.0048 44.7872C75.9827 44.7872 76.9475 44.8471 77.9046 44.9369C78.1975 44.9642 78.4879 45.0085 78.7783 45.045C79.4553 45.1296 80.1259 45.2351 80.79 45.3653C81.1012 45.4265 81.4111 45.489 81.7197 45.5606C82.4163 45.7221 83.1051 45.9122 83.7874 46.1244C84.0179 46.196 84.2535 46.2559 84.4814 46.3327C84.5491 46.3562 84.6142 46.3887 84.6819 46.4122L78.5583 52.5372C78.2822 52.4929 78.001 52.4708 77.7223 52.4369C77.5101 52.4109 77.2992 52.3809 77.0856 52.3601C76.3955 52.2963 75.7002 52.2546 75.0049 52.2546L75.0046 52.2548ZM75.1035 55.9931L63.4968 67.6115L56.3445 74.7665C56.3445 74.73 56.3393 74.6922 56.3393 74.6558C56.3393 64.3628 64.713 55.9891 75.006 55.9891C75.0372 55.9878 75.0711 55.993 75.1036 55.993L75.1035 55.9931ZM124.117 65.2091H133.488V84.1181H124.117C123.246 84.1181 122.492 84.7197 122.298 85.5687C121.087 90.855 119.021 95.8357 116.156 100.369C115.69 101.106 115.795 102.066 116.41 102.683L123.029 109.334L109.67 122.692L103.057 116.064C102.44 115.447 101.483 115.337 100.743 115.801C96.1296 118.699 91.1376 120.765 85.9056 121.945C85.0541 122.137 84.4499 122.894 84.4499 123.766V133.137H65.5592V123.766C65.5592 122.893 64.9537 122.136 64.0996 121.945C60.7714 121.2 57.4719 120.055 54.2792 118.54C54.2363 118.229 54.1699 117.921 54.1165 117.613C54.0774 117.387 54.0423 117.163 53.998 116.94C53.8509 116.208 53.6829 115.481 53.4759 114.765L62.4342 105.807C62.8326 105.971 63.2454 106.089 63.6503 106.236C64.0852 106.395 64.5175 106.559 64.9576 106.699C65.6152 106.907 66.2819 107.078 66.9511 107.243C67.3756 107.348 67.7962 107.468 68.2246 107.557C68.9655 107.709 69.7181 107.815 70.472 107.916C70.8418 107.966 71.205 108.039 71.5774 108.076C72.7076 108.19 73.8496 108.255 75.0031 108.255C93.5304 108.255 108.603 93.1817 108.603 74.6547C108.603 73.4971 108.538 72.3526 108.425 71.221C108.387 70.846 108.314 70.4814 108.265 70.1103C108.163 69.3577 108.059 68.6051 107.906 67.8655C107.818 67.4319 107.697 67.0075 107.59 66.5791C107.425 65.9137 107.257 65.2509 107.05 64.5986C106.908 64.1507 106.741 63.7119 106.58 63.2705C106.435 62.8746 106.319 62.471 106.159 62.0804L115.319 52.9204C115.99 53.1157 116.663 53.2758 117.337 53.4165C117.546 53.4594 117.751 53.4933 117.96 53.5323C118.229 53.5818 118.497 53.6417 118.767 53.6821C120.331 56.8943 121.517 60.2784 122.296 63.7524C122.486 64.604 123.244 65.2094 124.116 65.2094L124.117 65.2091ZM75.0035 97.0541C87.3552 97.0541 97.4032 87.0048 97.4032 74.6545C97.4032 73.9592 97.3615 73.2638 97.2964 72.5724C97.2769 72.3589 97.2456 72.148 97.2196 71.9357C97.1857 71.6623 97.1649 71.3875 97.1206 71.1167L103.248 64.989C103.27 65.0541 103.302 65.1153 103.324 65.1791C103.401 65.4057 103.459 65.6388 103.531 65.8679C103.743 66.5515 103.934 67.2416 104.096 67.9409C104.168 68.2495 104.23 68.5594 104.291 68.8706C104.421 69.5346 104.527 70.2052 104.612 70.8823C104.648 71.174 104.691 71.463 104.72 71.7573C104.811 72.7143 104.869 73.6792 104.869 74.6557C104.869 91.1244 91.4711 104.523 75.002 104.523C74.0281 104.523 73.0658 104.463 72.1114 104.373C71.8184 104.345 71.5294 104.302 71.2377 104.265C70.5632 104.181 69.894 104.075 69.2312 103.945C68.92 103.884 68.6101 103.821 68.3015 103.75C67.6049 103.588 66.9161 103.398 66.2338 103.186C66.0046 103.114 65.7716 103.056 65.5437 102.979C65.4747 102.955 65.4096 102.923 65.3419 102.899L68.2573 99.9827L71.4565 96.7835C71.7416 96.8264 72.0255 96.8486 72.3094 96.8811C72.5242 96.9059 72.7391 96.9358 72.9526 96.9553C73.6414 97.0152 74.3263 97.0543 75.0034 97.0543L75.0035 97.0541ZM74.9215 93.3171L93.6661 74.5725C93.6661 74.5998 93.6701 74.6271 93.6701 74.6545C93.6701 84.9475 85.2964 93.3212 75.0034 93.3212C74.976 93.3212 74.9487 93.3173 74.9213 93.3173L74.9215 93.3171ZM140.528 42.2471C140.199 42.6404 139.855 43.0023 139.447 43.3917C134.355 48.484 127.346 50.9307 120.19 50.0987C118.619 49.9307 117.026 49.5765 115.454 49.0466C115.45 49.0453 115.445 49.044 115.441 49.0427C115.342 49.0075 115.241 49.001 115.139 48.9828C115.063 48.9698 114.989 48.9424 114.912 48.9372C114.381 48.9086 113.855 49.1013 113.483 49.4763L102.619 60.3213L93.7901 69.1506L69.5037 93.4566L60.6937 102.268L50.4867 112.484C50.4112 112.548 50.3396 112.615 50.2719 112.69C49.781 113.04 49.4893 113.606 49.4893 114.209C49.4893 114.363 49.514 114.54 49.5544 114.699C49.5674 114.759 49.5844 114.817 49.6039 114.875C50.152 116.52 50.5192 118.23 50.6937 119.959C50.6937 119.961 50.695 119.962 50.695 119.963C51.4151 127 48.9581 133.906 43.971 138.892C43.3812 139.464 42.7913 140.003 42.1403 140.524C41.9437 140.691 41.7314 140.841 41.4983 141.006C41.415 141.066 41.3056 141.141 41.2327 141.214C36.6154 144.532 30.9267 146.016 25.2874 145.453L35.3434 130.951C35.8577 130.209 35.7679 129.205 35.1285 128.567L21.0725 114.53C20.4345 113.893 19.4332 113.802 18.691 114.315L4.18971 124.356C3.65714 119.01 4.99048 113.57 7.99304 109.071C8.05294 109 8.10762 108.924 8.1558 108.842C8.23002 108.719 8.31726 108.596 8.43445 108.443C8.67143 108.12 8.89148 107.831 9.17141 107.496C9.67401 106.868 10.2118 106.267 10.7691 105.708C15.7574 100.721 22.6611 98.2589 29.7014 98.9649C31.3095 99.1276 32.9931 99.487 34.7068 100.035C34.7693 100.06 34.8187 100.076 34.863 100.086C35.0687 100.158 35.2771 100.19 35.4828 100.193C35.4919 100.193 35.501 100.197 35.5088 100.197C35.5349 100.197 35.557 100.181 35.5818 100.18C35.8005 100.171 36.0088 100.118 36.2068 100.033C36.2667 100.007 36.3213 99.9818 36.3786 99.9492C36.5935 99.8268 36.794 99.6732 36.9502 99.4557L35.5622 98.2083L37.0895 99.3047L56.2222 80.172L68.1962 68.189L100.183 36.193C100.533 35.8428 100.73 35.3688 100.73 34.8727C100.73 34.6605 100.688 34.4365 100.615 34.2295C100.614 34.2282 100.614 34.2282 100.614 34.2269C100.083 32.6344 99.7288 31.0329 99.5595 29.4549C98.747 22.3065 101.198 15.2985 106.309 10.2035C106.767 9.72958 107.257 9.27255 107.789 8.82985C107.89 8.74391 108.006 8.65797 108.14 8.55771C112.889 4.90538 118.802 3.25938 124.713 3.85204L114.669 18.374C114.156 19.1162 114.246 20.1188 114.884 20.7555L128.921 34.7932C129.557 35.4299 130.561 35.5211 131.303 35.0081L145.823 24.9677C146.428 31.1501 144.537 37.4404 140.528 42.2477L140.528 42.2471Z" fill="#EEEBF1"/>
</svg>
