<svg width="131" height="108" viewBox="0 0 131 108" fill="none" xmlns="http://www.w3.org/2000/svg">
<path fill-rule="evenodd" clip-rule="evenodd" d="M101.285 14.5405C99.6203 14.7914 98.065 13.6465 97.8167 11.9815C97.5658 10.3164 98.7107 8.76377 100.376 8.51022C102.041 8.25928 103.593 9.40417 103.847 11.0718C104.098 12.7395 102.95 14.2922 101.285 14.5405ZM97.0299 0.472471C84.7812 2.32573 78.4974 15.0005 73.8943 24.2616C72.7102 26.6402 71.6489 28.7941 70.6321 30.4252C65.2553 39.0145 57.6018 45.8707 49.5066 53.1243C41.4662 60.3204 33.1984 67.7282 26.5617 77.3682C32.0431 75.3974 38.4811 73.633 42.747 71.8006C48.861 69.1737 55.5891 67.1426 61.2012 63.9432C65.9794 61.2195 70.376 58.1299 74.0302 54.4156C76.3357 52.0761 78.2491 49.755 79.7233 47.5305C80.9884 45.6224 82.1385 43.3431 83.0037 41.2127C83.618 39.7019 85.2831 39.3046 85.4451 41.1291C85.4948 41.7198 85.4556 42.3785 85.351 43.0843C85.0112 45.3453 83.9683 48.0638 82.8129 50.3536C81.1766 53.5948 78.994 56.2584 76.4036 58.7965C72.7259 62.4063 68.4051 65.394 63.7497 68.0262C57.8946 71.3354 50.9181 73.4108 44.6029 76.124C39.3071 78.4033 31.1988 80.4134 25.4613 82.7947C23.893 83.4456 22.5285 84.1226 21.1144 85.0165C14.6894 89.1151 8.11021 94.3142 0.759917 101.097C-0.479073 102.234 -0.152335 104.257 1.37157 104.963C6.79019 107.457 11.7827 108.536 16.4303 108.536C29.3508 108.536 39.5973 100.164 48.7851 90.3959C56.5981 90.2914 63.9066 89.251 70.5302 87.335L71.9469 95.1192H67.0093C65.7128 95.1192 64.6541 96.17 64.6541 97.4717C64.6541 98.7709 65.7076 99.8269 67.0093 99.8269L86.1718 99.8321C87.4683 99.8321 88.5217 98.7787 88.5217 97.4796C88.5217 96.1779 87.4735 95.1245 86.1718 95.1245L76.7382 95.1219L75.047 85.8556C83.0769 82.8966 89.9253 78.5445 95.1976 72.9377C104.226 63.3237 108.322 50.5888 107.357 35.0884C107.031 29.7665 108.591 25.8718 110.094 22.1025C110.774 20.4035 111.435 18.7515 111.864 17.0681C115.014 9.26302 122.299 6.29624 130.219 4.21558C130.815 4.06397 130.867 3.24321 130.305 3.00534C121.739 -0.604457 110.149 0.313023 100.436 0.333934C99.2753 0.333934 98.1879 0.302568 97.0299 0.472471Z" fill="#16181E"/>
</svg>
