<svg width="16" height="20" viewBox="0 0 16 20" fill="none" xmlns="http://www.w3.org/2000/svg">
<path d="M13.3333 18.4264L7.2695 15.7464L7 15.6273L6.7305 15.7464L0.666667 18.4264V2.94995C0.666667 2.16428 1.28738 1.55412 2 1.55412H7.33333V2.28328H2H1.33333V2.94995V16.3253V17.3482L2.26919 16.9352L7 14.8471L11.7308 16.9352L12.6667 17.3482V16.3253V9.80412H13.3333V18.4264ZM12 4.34578H10.6667V3.61662H12H12.6667V2.94995V1.55412H13.3333V2.94995V3.61662H14H15.3333V4.34578H14H13.3333V5.01245V6.40828H12.6667V5.01245V4.34578H12Z" fill="#F79C30" stroke="#F79C30" stroke-width="1.33333"/>
</svg>
