<svg width="24" height="24" viewBox="0 0 24 24" fill="none" xmlns="http://www.w3.org/2000/svg">
<path fill-rule="evenodd" clip-rule="evenodd" d="M12 24C18.6274 24 24 18.6274 24 12C24 5.37258 18.6274 0 12 0C5.37258 0 0 5.37258 0 12C0 18.6274 5.37258 24 12 24ZM12 22C17.5228 22 22 17.5228 22 12C22 6.47715 17.5228 2 12 2C6.47715 2 2 6.47715 2 12C2 17.5228 6.47715 22 12 22Z" fill="#D6D2DE"/>
<path fill-rule="evenodd" clip-rule="evenodd" d="M22.7816 9.60068C23.3293 9.53001 23.8306 9.91675 23.9013 10.4645C23.967 10.9737 24 11.4866 24 12C24 12.5523 23.5522 13 23 13C22.4477 13 22 12.5523 22 12C22 11.5721 21.9725 11.1447 21.9178 10.7204C21.8471 10.1727 22.2338 9.67135 22.7816 9.60068Z" fill="#752CAF"/>
</svg>
