<svg width="24" height="24" viewBox="0 0 24 24" fill="none" xmlns="http://www.w3.org/2000/svg">
<path d="M13.9286 13.4295L9.92308 11L6 13.5735L6.07143 18.5705L10.0769 21L14 18.4265L13.9286 13.4295Z" stroke="black" stroke-width="0.75" stroke-miterlimit="10" stroke-linecap="round" stroke-linejoin="round"/>
<path d="M8.92858 6.4295L4.92308 4L1 6.57349L1.07143 11.5705L5.07692 14L9 11.4265L8.92858 6.4295Z" stroke="black" stroke-width="0.75" stroke-miterlimit="10" stroke-linecap="round" stroke-linejoin="round"/>
<path d="M18.9286 3.4295L14.9231 1L11 3.57349L11.0714 8.57048L15.0769 11L19 8.42651L18.9286 3.4295Z" stroke="black" stroke-width="0.75" stroke-miterlimit="10" stroke-linecap="round" stroke-linejoin="round" stroke-dasharray="1.5 1.5"/>
<path d="M21.9286 13.4295L17.9231 11L14 13.5735L14.0714 18.5705L18.0769 21L22 18.4265L21.9286 13.4295Z" stroke="black" stroke-width="0.75" stroke-miterlimit="10" stroke-linecap="round" stroke-linejoin="round"/>
<path d="M15 4V8" stroke="black" stroke-width="0.75" stroke-linecap="round"/>
<path d="M17 6L13 6" stroke="black" stroke-width="0.75" stroke-linecap="round"/>
</svg>
