<svg width="24" height="24" viewBox="0 0 24 24" fill="none" xmlns="http://www.w3.org/2000/svg">
<path d="M16.687 1C16.652 1 16.617 1.005 16.577 1.01L3.39205 3.91C3.12205 3.97 2.95204 4.235 3.01204 4.505L6.87705 22.085C6.92705 22.32 7.13704 22.48 7.36704 22.48C7.40204 22.48 7.43705 22.475 7.47705 22.47L20.662 19.57C20.932 19.51 21.102 19.245 21.042 18.975L17.177 1.395C17.122 1.16 16.917 1 16.687 1Z" stroke="black" stroke-width="0.75"/>
<path d="M7.03836 9.69471L9.40168 6.00003" stroke="black" stroke-width="0.75" stroke-miterlimit="10" stroke-linecap="round"/>
<path d="M9.66921 9.33796C10.021 9.33796 10.3062 9.05276 10.3062 8.70095C10.3062 8.34913 10.021 8.06393 9.66921 8.06393C9.3174 8.06393 9.0322 8.34913 9.0322 8.70095C9.0322 9.05276 9.3174 9.33796 9.66921 9.33796Z" fill="black"/>
<path d="M6.63701 7.39507C6.98883 7.39507 7.27403 7.10987 7.27403 6.75806C7.27403 6.40625 6.98883 6.12105 6.63701 6.12105C6.2852 6.12105 6 6.40625 6 6.75806C6 7.10987 6.2852 7.39507 6.63701 7.39507Z" fill="black"/>
<path d="M13.4524 4.50002L14.2741 8.23291" stroke="black" stroke-width="0.75" stroke-miterlimit="10" stroke-linecap="round"/>
<path d="M12 6.77417L15.7329 5.95242" stroke="black" stroke-width="0.75" stroke-miterlimit="10" stroke-linecap="round"/>
<path d="M13.6181 11L11.6689 14.287" stroke="black" stroke-width="0.75" stroke-miterlimit="10" stroke-linecap="round"/>
<path d="M11 11.6689L14.287 13.6245" stroke="black" stroke-width="0.75" stroke-miterlimit="10" stroke-linecap="round"/>
<path d="M8 17.235L18.165 15" stroke="black" stroke-width="0.75" stroke-miterlimit="10" stroke-linecap="round"/>
<path d="M8.42999 19.19L18.595 16.955" stroke="black" stroke-width="0.75" stroke-miterlimit="10" stroke-linecap="round"/>
<path d="M20.5 16.75H22L21.795 2H17" stroke="black" stroke-width="0.75" stroke-miterlimit="10" stroke-linejoin="round"/>
</svg>
