<svg width="24" height="24" viewBox="0 0 24 24" fill="none" xmlns="http://www.w3.org/2000/svg">
<path d="M9.75488 8.50488H17.9999" stroke="black" stroke-width="0.75" stroke-miterlimit="10" stroke-linecap="round" stroke-linejoin="round"/>
<path d="M9.75488 10.0049H17.9999" stroke="black" stroke-width="0.75" stroke-miterlimit="10" stroke-linecap="round" stroke-linejoin="round"/>
<path d="M9.75488 11.5049H17.9999" stroke="black" stroke-width="0.75" stroke-miterlimit="10" stroke-linecap="round" stroke-linejoin="round"/>
<path d="M9.75488 13.0049H17.9999" stroke="black" stroke-width="0.75" stroke-miterlimit="10" stroke-linecap="round" stroke-linejoin="round"/>
<path d="M9.75488 14.5049H17.9999" stroke="black" stroke-width="0.75" stroke-miterlimit="10" stroke-linecap="round" stroke-linejoin="round"/>
<path d="M9.75488 16.0049H17.9999" stroke="black" stroke-width="0.75" stroke-miterlimit="10" stroke-linecap="round" stroke-linejoin="round"/>
<path d="M5.60989 15.8198L4.12489 15.4748C3.71489 15.3798 3.44989 15.0248 3.52489 14.6898L5.95989 4.2648C6.03989 3.9248 6.43489 3.7298 6.84489 3.8248L8.32989 4.1698C8.73989 4.2648 9.00489 4.61981 8.92989 4.95481L6.49489 15.3798C6.41489 15.7148 6.01989 15.9148 5.60989 15.8198Z" stroke="black" stroke-width="0.75" stroke-miterlimit="10"/>
<path d="M3.58002 15.0649L4 17.9999H4.32001L6.00002 15.7499" stroke="black" stroke-width="0.75" stroke-miterlimit="10"/>
<path d="M5.3501 6.6001L8.1201 7.2751" stroke="black" stroke-width="0.75" stroke-miterlimit="10"/>
<path d="M7.23511 3.795V3.5C7.23511 2.95 7.68511 2.5 8.23511 2.5H19.1501C19.7001 2.5 20.1451 2.935 20.1501 3.485C20.1901 6.945 20.1501 18.475 20.1401 21.005C20.1401 21.28 19.9151 21.5 19.6401 21.5H8.23511C7.68511 21.5 7.23511 21.05 7.23511 20.5V12.25" stroke="black" stroke-width="0.75" stroke-miterlimit="10" stroke-linecap="round"/>
</svg>
