<svg width="38" height="37" viewBox="0 0 38 37" fill="none" xmlns="http://www.w3.org/2000/svg">
<path d="M19.9301 1.49995L23.5501 12.66C23.6801 13.06 24.0501 13.33 24.4801 13.33H36.2101C37.1501 13.33 37.5501 14.54 36.7801 15.09L27.2901 21.9799C26.9501 22.2299 26.8101 22.67 26.9401 23.07L30.5601 34.2299C30.8501 35.13 29.8201 35.8699 29.0601 35.32L19.5701 28.43C19.2301 28.18 18.7701 28.18 18.4301 28.43L8.94011 35.32C8.18011 35.8699 7.15011 35.13 7.44011 34.2299L11.0601 23.07C11.1901 22.67 11.0501 22.2299 10.7101 21.9799L1.22011 15.09C0.46011 14.54 0.85011 13.33 1.79011 13.33H13.5201C13.9401 13.33 14.3201 13.06 14.4501 12.66L18.0701 1.49995C18.3701 0.599951 19.6301 0.599951 19.9301 1.49995Z" fill="#EFD135" stroke="#EFD135" stroke-miterlimit="10" stroke-linecap="round" stroke-linejoin="round"/>
</svg>
