<svg width="32" height="32" viewBox="0 0 32 32" fill="none" xmlns="http://www.w3.org/2000/svg">
<path d="M23.55 8.13375L17.92 5.09375C17.75 4.99375 17.54 4.97375 17.35 5.03375C17.16 5.09375 17 5.22375 16.9 5.39375L10.32 17.5837C10.27 17.6837 10.23 17.8037 10.23 17.9137L10.11 21.7437L10 25.0537C10 25.3337 10.14 25.6037 10.39 25.7337C10.5 25.7937 10.62 25.8237 10.75 25.8237C10.9 25.8237 11.05 25.7738 11.18 25.6838L13.65 23.9538L17.03 21.5837C17.12 21.5137 17.2 21.4237 17.26 21.3237L23.85 9.15375C24.05 8.79375 23.91 8.33375 23.55 8.13375V8.13375ZM16.03 20.4637L13.22 22.4338L11.63 21.3738L11.73 18.1337L17.87 6.77375L22.17 9.10375L16.03 20.4637Z" fill="black"/>
</svg>
