<svg width="48" height="48" viewBox="0 0 48 48" fill="none" xmlns="http://www.w3.org/2000/svg">
<path fill-rule="evenodd" clip-rule="evenodd" d="M14.57 8.14001C14.3937 8.14001 14.2305 8.23282 14.1403 8.38427L12.2857 11.5H9.72999C8.93384 11.5 8.28999 12.1439 8.28999 12.94V17.28H4.06999C3.12393 17.28 2.41339 18.1938 2.69053 19.1219L2.69107 19.1237L8.0001 37.2702C8.00004 37.2735 8.00001 37.2767 8.00001 37.28C8.00001 37.5541 8.10101 37.7889 8.2428 37.98C8.49065 38.4296 8.97085 38.72 9.49999 38.72H9.72288C9.72525 38.72 9.72762 38.72 9.72999 38.72H45.06C45.8561 38.72 46.5 38.0762 46.5 37.28V12.94C46.5 12.1439 45.8561 11.5 45.06 11.5H21.7542L19.8996 8.38427C19.8095 8.23282 19.6462 8.14001 19.47 8.14001H14.57ZM45.5 34.7569V12.94C45.5 12.6962 45.3038 12.5 45.06 12.5H21.47C21.2937 12.5 21.1305 12.4072 21.0403 12.2558L19.1857 9.14001H14.8542L12.9996 12.2558C12.9095 12.4072 12.7462 12.5 12.57 12.5H9.72999C9.48613 12.5 9.28999 12.6962 9.28999 12.94V17.28H39.32C39.9603 17.28 40.5289 17.7052 40.7009 18.3231L45.5 34.7569ZM9.72593 37.72C9.58364 37.7188 9.37687 37.6547 9.20702 37.5356C9.15854 37.5016 9.12117 37.4693 9.09245 37.4398C9.08856 37.4292 9.0851 37.4184 9.08209 37.4074L9.08215 37.4074L9.07987 37.3996L3.64987 18.8396L3.64988 18.8396L3.6489 18.8363C3.5675 18.565 3.77665 18.28 4.06999 18.28H39.32C39.5182 18.28 39.6884 18.4128 39.7379 18.5926L39.7378 18.5926L39.74 18.6002L45.16 37.1602L45.1611 37.1637C45.2447 37.4426 45.0354 37.72 44.75 37.72H9.72593Z" fill="black"/>
</svg>
