<svg width="32" height="32" viewBox="0 0 32 32" fill="none" xmlns="http://www.w3.org/2000/svg">
<path d="M22.77 16.73C24.49 11.8 22.72 6.68 18.83 5.33C14.94 3.98 10.37 6.89 8.65998 11.82C6.93998 16.75 8.70998 21.87 12.6 23.22C13.25 23.44 13.91 23.55 14.57 23.55C15.51 23.55 16.45 23.33 17.35 22.94C18.19 24.38 19.5 25.68 21.43 26.44C21.52 26.48 21.61 26.49 21.71 26.49C22.01 26.49 22.29 26.31 22.41 26.02C22.56 25.64 22.37 25.2 21.99 25.05C20.43 24.43 19.37 23.39 18.68 22.22C20.45 21.03 21.94 19.12 22.77 16.74V16.73ZM18.05 20.83C17.76 19.99 17.62 19.15 17.62 18.39C17.62 17.98 17.28 17.64 16.87 17.64C16.46 17.64 16.12 17.98 16.12 18.39C16.12 19.38 16.3 20.49 16.72 21.59C15.53 22.1 14.27 22.21 13.09 21.8C9.97998 20.73 8.62998 16.47 10.07 12.32C11.29 8.82 14.11 6.5 16.83 6.5C17.34 6.5 17.84 6.58 18.34 6.75C21.45 7.83 22.8 12.09 21.36 16.24C20.67 18.22 19.46 19.82 18.06 20.84L18.05 20.83Z" fill="black"/>
</svg>
