<svg width="32" height="32" viewBox="0 0 32 32" fill="none" xmlns="http://www.w3.org/2000/svg">
<path d="M10.4401 25.27C9.01006 25.27 7.87006 24.51 7.23006 23.12L4.25006 16.65C3.64006 15.31 3.03006 13.98 2.41006 12.64C1.96006 11.71 1.88006 10.86 2.16006 10.1C2.44006 9.34 3.05006 8.74 3.99006 8.31C4.79006 7.94 5.65006 7.9 6.42006 8.2C7.22006 8.51 7.86006 9.17 8.23006 10.05C8.92006 11.72 10.1101 14.65 10.6501 15.99L12.8101 10.89C12.9601 10.53 13.1101 10.17 13.2901 9.83C13.8801 8.64 14.9201 8 16.1801 8.05C17.4901 8.1 18.4901 8.8 19.0201 10.03L20.1501 12.67C20.6301 13.79 21.1001 14.9 21.5801 16.02C21.7501 15.65 21.9301 15.28 22.0801 14.91C22.3401 14.26 22.6001 13.61 22.8501 12.96C23.2301 11.99 23.6101 11.03 24.0101 10.07C24.3901 9.15 24.9901 8.51 25.7601 8.2C26.4601 7.92 27.2301 7.95 27.9901 8.28C28.8801 8.67 29.5001 9.28 29.7901 10.04C30.0701 10.79 30.0101 11.65 29.6101 12.52C28.4801 14.96 27.3401 17.4 26.2101 19.85L24.6301 23.24C24.0201 24.55 22.9001 25.27 21.4601 25.27H21.4201C19.9901 25.26 18.8901 24.52 18.3101 23.21C17.6101 21.61 16.8901 20.03 16.1701 18.44L15.9001 17.85C15.7401 18.21 15.5901 18.58 15.4301 18.94L15.0301 19.88C14.5801 20.94 14.1301 22.01 13.7101 23.08C13.1701 24.46 12.0401 25.24 10.5301 25.27C10.5001 25.27 10.4701 25.27 10.4401 25.27V25.27ZM5.34006 9.5C5.10006 9.5 4.86006 9.56 4.61006 9.67C4.05006 9.93 3.70006 10.25 3.56006 10.61C3.43006 10.98 3.49006 11.45 3.75006 12.01C4.37006 13.35 4.98006 14.69 5.60006 16.03L8.58006 22.5C8.98006 23.38 9.58006 23.82 10.4901 23.77C11.4101 23.75 11.9801 23.36 12.3101 22.53C12.7401 21.44 13.1901 20.37 13.6501 19.29L14.0501 18.35C14.2801 17.8 14.5201 17.26 14.7501 16.72L15.0401 16.05C15.1601 15.78 15.4301 15.6 15.7201 15.6H15.9701C16.2801 15.62 16.5201 15.75 16.6501 16L16.8101 16.3C16.9301 16.53 17.0601 16.77 17.1701 17.01L17.5301 17.81C18.2501 19.4 18.9801 21 19.6801 22.6C20.0201 23.39 20.5801 23.76 21.4301 23.76H21.4601C22.3101 23.76 22.9101 23.38 23.2701 22.6L24.8501 19.2C25.9901 16.76 27.1201 14.32 28.2501 11.88C28.4801 11.38 28.5301 10.93 28.3901 10.56C28.2101 10.09 27.7501 9.8 27.3901 9.64C27.0101 9.47 26.6501 9.45 26.3301 9.58C25.9401 9.74 25.6301 10.1 25.4101 10.63C25.0201 11.58 24.6401 12.54 24.2601 13.5C24.0001 14.15 23.7401 14.81 23.4801 15.46C23.3001 15.9 23.0901 16.34 22.8901 16.79C22.7201 17.16 22.5401 17.53 22.3801 17.91C22.2601 18.19 22.0001 18.38 21.6801 18.37H21.4801C21.1901 18.37 20.9301 18.2 20.8101 17.94C20.8101 17.94 20.5201 17.34 20.3901 17.02C19.8501 15.77 19.3101 14.51 18.7801 13.26L17.6501 10.62C17.3501 9.93 16.8601 9.58 16.1301 9.55C15.4501 9.52 14.9601 9.84 14.6201 10.5C14.4601 10.81 14.3301 11.13 14.2001 11.46L11.3901 17.98C11.2601 18.23 11.0101 18.38 10.7401 18.39H10.5501C10.2001 18.39 9.97006 18.22 9.84006 17.94L9.56006 17.28C9.56006 17.28 7.76006 12.84 6.85006 10.63C6.64006 10.13 6.30006 9.77 5.88006 9.61C5.71006 9.54 5.53006 9.51 5.35006 9.51L5.34006 9.5Z" fill="black"/>
</svg>
