<svg xmlns="http://www.w3.org/2000/svg" viewBox="0 0 48 48"><defs><style>.cls-1,.cls-2{fill:none;stroke:#1F252D;}.cls-1{stroke-linecap:round;stroke-miterlimit:10;}.cls-2{stroke-linejoin:round;}</style></defs><g id="exams"><path d="M31.81,3.42l7.73,35.16-26.37,5.8L5.44,9.22l26.37-5.8h0m0-1-.22,0L5.22,8.24a1,1,0,0,0-.76,1.19l7.73,35.16a1,1,0,0,0,1,.79l.21,0,26.37-5.79a1,1,0,0,0,.77-1.2L32.79,3.2a1,1,0,0,0-1-.78Z"/><line class="cls-1" x1="3.96" y1="11.59" x2="6.86" y2="10.95"/><line class="cls-1" x1="4.39" y1="13.54" x2="7.29" y2="12.91"/><line class="cls-1" x1="4.82" y1="15.5" x2="7.72" y2="14.86"/><line class="cls-1" x1="5.25" y1="17.45" x2="8.15" y2="16.81"/><line class="cls-1" x1="5.68" y1="19.4" x2="8.58" y2="18.77"/><line class="cls-1" x1="6.11" y1="21.36" x2="9.01" y2="20.72"/><line class="cls-1" x1="6.54" y1="23.31" x2="9.44" y2="22.67"/><line class="cls-1" x1="6.97" y1="25.26" x2="9.87" y2="24.63"/><line class="cls-1" x1="7.4" y1="27.22" x2="10.29" y2="26.58"/><line class="cls-1" x1="7.83" y1="29.17" x2="10.72" y2="28.53"/><line class="cls-1" x1="8.26" y1="31.12" x2="11.15" y2="30.49"/><line class="cls-1" x1="8.69" y1="33.08" x2="11.58" y2="32.44"/><line class="cls-1" x1="9.12" y1="35.03" x2="12.01" y2="34.39"/><line class="cls-1" x1="9.55" y1="36.98" x2="12.44" y2="36.35"/><line class="cls-1" x1="9.98" y1="38.94" x2="12.87" y2="38.3"/><line class="cls-1" x1="10.41" y1="40.89" x2="13.3" y2="40.25"/><line class="cls-1" x1="10.83" y1="42.84" x2="13.73" y2="42.21"/><line class="cls-1" x1="12.84" y1="18.99" x2="16.55" y2="13.19"/><circle cx="16.97" cy="17.43" r="1"/><circle cx="12.21" cy="14.38" r="1"/><line class="cls-1" x1="26.64" y1="10.19" x2="27.93" y2="16.05"/><line class="cls-1" x1="24.36" y1="13.76" x2="30.22" y2="12.47"/><line class="cls-1" x1="18.16" y1="22.62" x2="15.1" y2="27.78"/><line class="cls-1" x1="14.05" y1="23.67" x2="19.21" y2="26.74"/><line class="cls-1" x1="26.19" y1="22.12" x2="32.05" y2="20.83"/><line class="cls-1" x1="26.61" y1="24" x2="32.47" y2="22.71"/><line class="cls-1" x1="15.33" y1="33.25" x2="35.66" y2="28.78"/><line class="cls-1" x1="16.19" y1="37.16" x2="36.52" y2="32.69"/><polyline class="cls-2" points="39.5 34.5 42.5 34.5 42.09 5 32.5 5"/></g></svg>