<svg xmlns="http://www.w3.org/2000/svg" viewBox="0 0 32 32"><defs><style>.cls-1{fill:none;stroke:#1F252D;stroke-linecap:round;stroke-miterlimit:10;stroke-width:0.8px;}</style></defs><g id="schedule"><path d="M16,2.13A13.87,13.87,0,1,1,2.13,16,13.88,13.88,0,0,1,16,2.13m0-.8A14.67,14.67,0,1,0,30.67,16,14.67,14.67,0,0,0,16,1.33Z"/><line class="cls-1" x1="16" y1="3.67" x2="16" y2="5"/><line class="cls-1" x1="16" y1="27" x2="16" y2="28.33"/><line class="cls-1" x1="28.33" y1="16" x2="27" y2="16"/><line class="cls-1" x1="5" y1="16" x2="3.67" y2="16"/><line class="cls-1" x1="22.17" y1="26.68" x2="21.5" y2="25.53"/><line class="cls-1" x1="10.5" y1="6.47" x2="9.83" y2="5.32"/><line class="cls-1" x1="26.68" y1="9.83" x2="25.53" y2="10.5"/><line class="cls-1" x1="6.47" y1="21.5" x2="5.32" y2="22.17"/><line class="cls-1" x1="22.84" y1="5.74" x2="22.1" y2="6.85"/><line class="cls-1" x1="9.9" y1="25.15" x2="9.16" y2="26.26"/><line class="cls-1" x1="9.83" y1="5.32" x2="10.5" y2="6.47"/><line class="cls-1" x1="21.5" y1="25.53" x2="22.17" y2="26.68"/><line class="cls-1" x1="5.35" y1="9.79" x2="6.5" y2="10.46"/><line class="cls-1" x1="25.5" y1="21.54" x2="26.65" y2="22.21"/><circle cx="16" cy="16" r="0.67"/><polyline class="cls-1" points="16 8 16 16 21.34 16"/></g></svg>