<svg xmlns="http://www.w3.org/2000/svg" viewBox="0 0 48 48"><defs><style>.cls-1,.cls-2,.cls-3{fill:none;stroke:#1F252D;}.cls-1{stroke-miterlimit:10;}.cls-2,.cls-3{stroke-linecap:round;stroke-linejoin:round;}.cls-2{stroke-width:1.09px;}</style></defs><g id="class"><path class="cls-1" d="M41.5,11.5H6.5a1,1,0,0,1-1-1v-4a1,1,0,0,1,1-1h35a1,1,0,0,1,1,1v4A1,1,0,0,1,41.5,11.5Z"/><path class="cls-2" d="M8,11.5V22a2,2,0,0,0,2,2H38a2,2,0,0,0,2-2V11.5"/><rect class="cls-3" x="19.5" y="15.5" width="9" height="3"/><polyline class="cls-2" points="17.5 24.5 17.5 43 14 43 14 24.5"/><polyline class="cls-2" points="33.5 24.5 33.5 43 30 43 30 24.5"/></g></svg>