<svg xmlns="http://www.w3.org/2000/svg" viewBox="0 0 32 32"><defs><style>.cls-1{fill:none;stroke:#1F252D;stroke-linejoin:round;stroke-width:0.8px;}</style></defs><g id="school_year" data-name="school year"><path d="M21.86,4.13a6.11,6.11,0,0,0,5.69,3.33h.31A23.32,23.32,0,0,1,21.8,23.39a20.55,20.55,0,0,1-5.8,4.4C14.15,26.89,4.44,21.5,4.14,7.46h.31a6.11,6.11,0,0,0,5.69-3.33H21.86m.47-.8H9.67A5.44,5.44,0,0,1,4.45,6.66H3.76c-.27,0-.43,0-.43.14C3.33,23.48,16,28.67,16,28.67S28.67,23.48,28.67,6.79c0-.12-.16-.14-.43-.14h-.69a5.44,5.44,0,0,1-5.22-3.33Z"/><line class="cls-1" x1="16" y1="4" x2="16" y2="28"/><line class="cls-1" x1="10" y1="4" x2="16" y2="10"/><line class="cls-1" x1="6.67" y1="6.67" x2="16" y2="16.67"/><line class="cls-1" x1="16" y1="24" x2="4" y2="10.67"/></g></svg>