<svg xmlns="http://www.w3.org/2000/svg" viewBox="0 0 48 48"><defs><style>.cls-1{fill:none;stroke:#1F252D;stroke-linecap:round;stroke-miterlimit:10;}</style></defs><g id="Library"><path d="M41.76,34a.24.24,0,0,1,.24.24v3.52a.24.24,0,0,1-.24.24H6.24A.24.24,0,0,1,6,37.76V34.24A.24.24,0,0,1,6.24,34H41.76m0-1H6.24A1.25,1.25,0,0,0,5,34.24v3.52A1.25,1.25,0,0,0,6.24,39H41.76A1.25,1.25,0,0,0,43,37.76V34.24A1.25,1.25,0,0,0,41.76,33Z"/><path d="M11.5,39.5v2h-2v-2h2m.11-1H9.39a.89.89,0,0,0-.89.89v2.22a.89.89,0,0,0,.89.89h2.22a.89.89,0,0,0,.89-.89V39.39a.89.89,0,0,0-.89-.89Z"/><path d="M39.5,39.5v2h-2v-2h2m.11-1H37.39a.89.89,0,0,0-.89.89v2.22a.89.89,0,0,0,.89.89h2.22a.89.89,0,0,0,.89-.89V39.39a.89.89,0,0,0-.89-.89Z"/><path class="cls-1" d="M39.42,8.79H34V7.3A1.34,1.34,0,0,0,32.61,6H23.39A1.34,1.34,0,0,0,22,7.3V8.79H16.58a1,1,0,0,0-1.08,1V12h-6a1,1,0,0,0-1,.93v18.6a1,1,0,0,0,1,.93H39.42a1,1,0,0,0,1.08-1V9.79A1,1,0,0,0,39.42,8.79Z"/><line class="cls-1" x1="15.5" y1="10.5" x2="15.5" y2="32.5"/><line class="cls-1" x1="22" y1="7" x2="22" y2="32.5"/><line class="cls-1" x1="34" y1="7" x2="34" y2="32.5"/><line class="cls-1" x1="24.21" y1="26" x2="31.92" y2="26"/><line class="cls-1" x1="24.21" y1="29" x2="31.92" y2="29"/><line class="cls-1" x1="36.21" y1="26" x2="39" y2="26"/><line class="cls-1" x1="36.21" y1="29" x2="39" y2="29"/><line class="cls-1" x1="17.21" y1="26" x2="20" y2="26"/><line class="cls-1" x1="17.21" y1="29" x2="20" y2="29"/><line class="cls-1" x1="10.21" y1="26" x2="13" y2="26"/><line class="cls-1" x1="10.21" y1="29" x2="13" y2="29"/></g></svg>