<svg xmlns="http://www.w3.org/2000/svg" viewBox="0 0 48 48"><defs><style>.cls-1,.cls-2,.cls-3{fill:none;stroke:#1F252D;}.cls-1,.cls-3{stroke-linecap:round;}.cls-1{stroke-linejoin:round;stroke-width:1.02px;}.cls-2,.cls-3{stroke-miterlimit:10;}.cls-3{stroke-width:0.99px;}</style></defs><g id="create"><line class="cls-1" x1="19.01" y1="17.01" x2="35.5" y2="17.01"/><line class="cls-1" x1="19.01" y1="20.01" x2="35.5" y2="20.01"/><line class="cls-1" x1="19.01" y1="23.01" x2="35.5" y2="23.01"/><line class="cls-1" x1="19.01" y1="26.01" x2="35.5" y2="26.01"/><line class="cls-1" x1="19.01" y1="29.01" x2="35.5" y2="29.01"/><line class="cls-1" x1="19.01" y1="32.01" x2="35.5" y2="32.01"/><path class="cls-2" d="M10.72,31.64l-3-.7a1.41,1.41,0,0,1-1.2-1.57L11.43,8.52a1.4,1.4,0,0,1,1.76-.88l3,.69a1.42,1.42,0,0,1,1.2,1.57L12.49,30.75A1.41,1.41,0,0,1,10.72,31.64Z"/><polyline class="cls-2" points="6.66 30.13 6.5 35.5 8.14 36 11.5 31.5"/><line class="cls-2" x1="11.2" y1="11.2" x2="16.74" y2="12.55"/><line class="cls-2" x1="10.2" y1="13.2" x2="15.74" y2="14.55"/><line class="cls-2" x1="7.2" y1="25.2" x2="13.5" y2="26.5"/><line class="cls-2" x1="7.2" y1="27.2" x2="12.74" y2="28.55"/><path class="cls-3" d="M14,7.59V7a2,2,0,0,1,2-2H37.8a2,2,0,0,1,2,2c.08,6.91,0,30,0,35a1,1,0,0,1-1,1H16a2,2,0,0,1-2-2V24.5"/></g></svg>