<svg width="50" height="43" viewBox="0 0 50 43" fill="none" xmlns="http://www.w3.org/2000/svg">
<g clip-path="url(#clip0_1859_67049)">
<path d="M49.935 43.0255H22.873C22.873 40.4792 22.4812 37.9004 22.9709 35.4956C23.5367 32.7535 26.0503 31.4586 28.553 30.6207C31.8908 29.48 35.4431 29.108 38.9448 29.5326C42.3833 29.9678 45.985 30.4031 48.4007 33.3302C49.2079 34.3795 49.7156 35.6279 49.8697 36.9428C50.0135 38.9672 50.0353 40.9985 49.935 43.0255Z" fill="black"/>
<path d="M18.1936 42.9708H0.119603C-0.054247 40.5753 -0.0287698 38.1695 0.195773 35.7782C0.707198 32.8076 3.27521 31.4256 5.86498 30.5987C8.94943 29.5876 12.2079 29.2173 15.4406 29.5105C16.8694 29.6368 18.2899 29.8439 19.6952 30.1308C19.9129 30.1308 20.2393 30.9142 20.1522 31.0339C18.0848 33.5693 18.1174 36.5617 18.1936 39.5758C18.1936 40.6422 18.1936 41.763 18.1936 42.9708Z" fill="black"/>
<path d="M29.5537 18.0739C29.5559 16.7333 29.9549 15.4233 30.7004 14.3091C31.4459 13.1949 32.5045 12.3263 33.7429 11.8128C34.9812 11.2993 36.3439 11.1638 37.6591 11.4236C38.9743 11.6833 40.1832 12.3265 41.1334 13.2722C42.0837 14.2179 42.7327 15.4237 42.9987 16.7376C43.2647 18.0516 43.1358 19.4149 42.6282 20.6557C42.1206 21.8965 41.2571 22.9593 40.1465 23.7101C39.0358 24.4609 37.7278 24.8662 36.3872 24.8748C35.4918 24.8776 34.6046 24.7039 33.7763 24.3635C32.9481 24.0232 32.1951 23.5229 31.5604 22.8912C30.9257 22.2595 30.4217 21.5089 30.0774 20.6823C29.7331 19.8557 29.5551 18.9693 29.5537 18.0739Z" fill="black"/>
<path d="M20.4353 18.2045C20.411 19.5503 19.9873 20.8585 19.218 21.9629C18.4486 23.0674 17.3684 23.9183 16.1144 24.4076C14.8605 24.8968 13.4894 25.0023 12.1754 24.7107C10.8613 24.4191 9.66361 23.7435 8.73434 22.7698C7.80506 21.796 7.18615 20.568 6.95624 19.2418C6.72632 17.9156 6.89577 16.5509 7.44305 15.3212C7.99033 14.0915 8.89076 13.0522 10.03 12.3352C11.1692 11.6183 12.4957 11.2562 13.8412 11.2948C15.6278 11.3489 17.3213 12.1042 18.5553 13.3973C19.7894 14.6903 20.4647 16.4173 20.4353 18.2045Z" fill="black"/>
<path d="M24.9731 2.23037C25.8709 2.21236 26.7523 2.47249 27.4965 2.9751C28.2406 3.4777 28.8111 4.19819 29.1298 5.03777C29.534 5.83327 29.6625 6.74052 29.4951 7.61699C29.3276 8.49346 28.8738 9.28947 28.2048 9.87999C27.2582 10.6526 27.3234 11.5122 27.2255 12.4806C27.2278 13.3919 26.9834 14.2868 26.5182 15.0704C26.2286 15.3344 25.8795 15.5247 25.5007 15.6251C25.1218 15.7255 24.7243 15.733 24.3419 15.6471C23.7919 15.3137 23.3615 14.8147 23.1123 14.2217C22.9435 13.6579 22.8341 13.078 22.7859 12.4915C22.8491 11.9901 22.7901 11.4808 22.6138 11.0071C22.4376 10.5334 22.1495 10.1094 21.7739 9.77117C21.1128 9.17726 20.6668 8.3813 20.5054 7.50738C20.344 6.63347 20.4763 5.73071 20.8817 4.93983C21.2194 4.13435 21.7883 3.44705 22.5166 2.96479C23.2448 2.48254 24.0996 2.22696 24.9731 2.23037Z" fill="black"/>
<path d="M14.7875 6.19121C15.3945 6.19121 15.8865 5.69916 15.8865 5.09218C15.8865 4.48521 15.3945 3.99316 14.7875 3.99316C14.1805 3.99316 13.6885 4.48521 13.6885 5.09218C13.6885 5.69916 14.1805 6.19121 14.7875 6.19121Z" fill="black"/>
<path d="M32.9818 2.19804C33.5888 2.19804 34.0809 1.70599 34.0809 1.09902C34.0809 0.492048 33.5888 0 32.9818 0C32.3749 0 31.8828 0.492048 31.8828 1.09902C31.8828 1.70599 32.3749 2.19804 32.9818 2.19804Z" fill="black"/>
<path d="M17.3236 2.19804C17.9306 2.19804 18.4227 1.70599 18.4227 1.09902C18.4227 0.492048 17.9306 0 17.3236 0C16.7167 0 16.2246 0.492048 16.2246 1.09902C16.2246 1.70599 16.7167 2.19804 17.3236 2.19804Z" fill="black"/>
<path d="M35.1908 6.19121C35.7978 6.19121 36.2898 5.69916 36.2898 5.09218C36.2898 4.48521 35.7978 3.99316 35.1908 3.99316C34.5838 3.99316 34.0918 4.48521 34.0918 5.09218C34.0918 5.69916 34.5838 6.19121 35.1908 6.19121Z" fill="black"/>
</g>
<defs>
<clipPath id="clip0_1859_67049">
<rect width="50" height="42.9815" fill="white"/>
</clipPath>
</defs>
</svg>
