<svg width="36" height="49" viewBox="0 0 36 49" fill="none" xmlns="http://www.w3.org/2000/svg">
<path d="M35 8.79297C29.78 10.193 23.66 10.793 18 10.793C12.34 10.793 6.22 10.193 1 8.79297L0 12.793C3.72 13.793 8 14.453 12 14.793V38.793H16V26.793H20V38.793H24V14.793C28 14.453 32.28 13.793 36 12.793L35 8.79297ZM18 8.79297C20.2 8.79297 22 6.99297 22 4.79297C22 2.59297 20.2 0.792969 18 0.792969C15.8 0.792969 14 2.59297 14 4.79297C14 6.99297 15.8 8.79297 18 8.79297ZM8 48.793H12V44.793H8V48.793ZM16 48.793H20V44.793H16V48.793ZM24 48.793H28V44.793H24V48.793Z" fill="black"/>
</svg>
