<svg width="50" height="42" viewBox="0 0 50 42" fill="none" xmlns="http://www.w3.org/2000/svg">
<path d="M6.95325 23.6757V30.3958C6.95325 32.1416 7.90984 33.7678 9.44039 34.6048L21.3978 41.1336C22.8327 41.9227 24.5546 41.9227 25.9895 41.1336L37.9469 34.6048C39.4775 33.7678 40.4341 32.1416 40.4341 30.3958V23.6757L25.9895 31.5676C24.5546 32.3568 22.8327 32.3568 21.3978 31.5676L6.95325 23.6757ZM21.3978 0.573957L1.23759 11.5748C-0.412531 12.4836 -0.412531 14.875 1.23759 15.7838L21.3978 26.7846C22.8327 27.5738 24.5546 27.5738 25.9895 26.7846L45.217 16.286V30.4197C45.217 31.735 46.2932 32.8112 47.6085 32.8112C48.9238 32.8112 50 31.735 50 30.4197V15.0903C50 14.2054 49.5217 13.4162 48.7564 12.9858L25.9895 0.573957C24.5546 -0.191319 22.8327 -0.191319 21.3978 0.573957Z" fill="#189FA4"/>
</svg>
