<svg width="13" height="15" viewBox="0 0 13 15" fill="none" xmlns="http://www.w3.org/2000/svg">
<path fill-rule="evenodd" clip-rule="evenodd" d="M4.78465 2.98927C4.57089 3.78212 3.8611 4.39161 2.97582 4.39161C2.09054 4.39161 1.38074 3.78212 1.16699 2.98927H0V1.98927H1.16698C1.38072 1.19641 2.09053 0.586914 2.97582 0.586914C3.86111 0.586914 4.57091 1.19641 4.78466 1.98927H12.75V2.98927H4.78465ZM3.8508 2.4953C3.84765 2.99087 3.45711 3.39161 2.97582 3.39161C2.49257 3.39161 2.10081 2.98761 2.10081 2.48926C2.10081 1.99091 2.49257 1.58691 2.97582 1.58691C3.45711 1.58691 3.84765 1.98765 3.8508 2.48322V2.4953ZM12.377 7.8877C12.1632 8.68056 11.4534 9.29005 10.5681 9.29005C9.68286 9.29005 8.97305 8.68055 8.75931 7.8877H0V6.8877H8.75932C8.97307 6.09485 9.68287 5.48536 10.5681 5.48536C11.4534 5.48536 12.1632 6.09484 12.377 6.8877H12.75V7.8877H12.377ZM10.5681 8.29005C10.1261 8.29005 9.76068 7.95207 9.70152 7.51304V7.26237C9.76068 6.82334 10.1261 6.48536 10.5681 6.48536C11.0514 6.48536 11.4431 6.88935 11.4431 7.3877C11.4431 7.88606 11.0514 8.29005 10.5681 8.29005ZM5.5815 14.1885C6.46461 14.1885 7.17311 13.582 7.38875 12.792H12.75V11.792H7.39189C7.18006 10.9963 6.46895 10.3838 5.5815 10.3838C4.69405 10.3838 3.98294 10.9963 3.7711 11.792H0V12.792H3.77424C3.98989 13.582 4.69838 14.1885 5.5815 14.1885ZM4.7065 12.2897C4.70837 12.7864 5.0994 13.1885 5.5815 13.1885C6.06475 13.1885 6.4565 12.7845 6.4565 12.2861C6.4565 11.7878 6.06475 11.3838 5.5815 11.3838C5.0994 11.3838 4.70837 11.7859 4.7065 12.2826V12.2897Z" fill="black"/>
</svg>
