<svg width="50" height="25" viewBox="0 0 50 25" fill="none" xmlns="http://www.w3.org/2000/svg">
<path d="M25 14.0625C28.3958 14.0625 31.3958 14.875 33.8333 15.9375C36.0833 16.9375 37.5 19.1875 37.5 21.625V22.9167C37.5 24.0625 36.5625 25 35.4167 25H14.5833C13.4375 25 12.5 24.0625 12.5 22.9167V21.6458C12.5 19.1875 13.9167 16.9375 16.1667 15.9583C18.6042 14.875 21.6042 14.0625 25 14.0625ZM8.33333 14.5833C10.625 14.5833 12.5 12.7083 12.5 10.4167C12.5 8.125 10.625 6.25 8.33333 6.25C6.04167 6.25 4.16667 8.125 4.16667 10.4167C4.16667 12.7083 6.04167 14.5833 8.33333 14.5833ZM10.6875 16.875C9.91667 16.75 9.14583 16.6667 8.33333 16.6667C6.27083 16.6667 4.3125 17.1042 2.54167 17.875C1 18.5417 0 20.0417 0 21.7292V22.9167C0 24.0625 0.9375 25 2.08333 25H9.375V21.6458C9.375 19.9167 9.85417 18.2917 10.6875 16.875ZM41.6667 14.5833C43.9583 14.5833 45.8333 12.7083 45.8333 10.4167C45.8333 8.125 43.9583 6.25 41.6667 6.25C39.375 6.25 37.5 8.125 37.5 10.4167C37.5 12.7083 39.375 14.5833 41.6667 14.5833ZM50 21.7292C50 20.0417 49 18.5417 47.4583 17.875C45.6875 17.1042 43.7292 16.6667 41.6667 16.6667C40.8542 16.6667 40.0833 16.75 39.3125 16.875C40.1458 18.2917 40.625 19.9167 40.625 21.6458V25H47.9167C49.0625 25 50 24.0625 50 22.9167V21.7292ZM25 0C28.4583 0 31.25 2.79167 31.25 6.25C31.25 9.70833 28.4583 12.5 25 12.5C21.5417 12.5 18.75 9.70833 18.75 6.25C18.75 2.79167 21.5417 0 25 0Z" fill="#189FA4"/>
</svg>
