<svg width="18" height="18" viewBox="0 0 18 18" fill="none" xmlns="http://www.w3.org/2000/svg">
<path fill-rule="evenodd" clip-rule="evenodd" d="M11.72 1.36654C9.28523 1.36654 7.27669 3.40789 7.27669 5.96956C7.27669 8.53122 9.28523 10.5726 11.72 10.5726C14.1548 10.5726 16.1634 8.53122 16.1634 5.96956C16.1634 3.40789 14.1548 1.36654 11.72 1.36654ZM5.94336 5.96956C5.94336 2.71048 8.51047 0.0332031 11.72 0.0332031C14.9296 0.0332031 17.4967 2.71049 17.4967 5.96956C17.4967 9.22863 14.9296 11.9059 11.72 11.9059C10.3012 11.9059 9.00795 11.3827 8.00648 10.5174L6.61897 11.9483C6.95334 12.5877 6.85823 13.4002 6.33365 13.9411L3.50365 16.8596C2.85174 17.5319 1.78335 17.5319 1.13145 16.8596C0.49069 16.1988 0.49069 15.133 1.13145 14.4722L3.96145 11.5537C4.48708 11.0117 5.28349 10.9067 5.91401 11.2388L7.30794 9.80126C6.45537 8.7645 5.94336 7.42505 5.94336 5.96956ZM5.37645 12.4819C5.24835 12.3498 5.04674 12.3498 4.91865 12.4819L2.08865 15.4004C1.9494 15.544 1.9494 15.7878 2.08865 15.9314C2.21674 16.0635 2.41835 16.0635 2.54645 15.9314L5.37645 13.013C5.51569 12.8694 5.51569 12.6255 5.37645 12.4819Z" fill="black"/>
</svg>
