<svg width="45" height="45" viewBox="0 0 45 45" fill="none" xmlns="http://www.w3.org/2000/svg">
<rect width="45" height="45" rx="4" fill="#A41D18"/>
<path d="M19.4889 15.9997C17.1939 18.5759 15.6189 22.2772 15.4727 22.6259L12.9302 21.5347C12.1989 21.2197 12.0189 20.2634 12.5814 19.7009L15.9677 16.3147C16.4964 15.7859 17.2614 15.5497 18.0039 15.6959L19.4889 15.9997ZM21.1652 27.4297C21.5027 27.7672 21.9977 27.8572 22.4252 27.6547C23.7302 27.0472 26.5314 25.6184 28.3427 23.8072C33.5064 18.6434 33.5514 14.4359 33.2477 12.6359C33.1689 12.1859 32.8089 11.8259 32.3589 11.7472C30.5589 11.4434 26.3514 11.4884 21.1877 16.6522C19.3764 18.4634 17.9589 21.2647 17.3402 22.5697C17.1377 22.9972 17.2389 23.5034 17.5652 23.8297L21.1652 27.4297ZM29.0064 25.5172C26.4302 27.8122 22.7289 29.3872 22.3802 29.5334L23.4714 32.0759C23.7864 32.8072 24.7427 32.9872 25.3052 32.4247L28.6914 29.0384C29.2202 28.5097 29.4564 27.7447 29.3102 27.0022L29.0064 25.5172ZM19.2077 28.4422C19.4327 29.6347 19.0389 30.7372 18.2852 31.4909C17.4189 32.3572 14.7302 32.9984 12.9864 33.3359C12.2102 33.4822 11.5239 32.7959 11.6702 32.0197C12.0077 30.2759 12.6377 27.5872 13.5152 26.7209C14.2689 25.9672 15.3714 25.5734 16.5639 25.7984C17.8802 26.0459 18.9602 27.1259 19.2077 28.4422ZM23.7752 18.9809C23.7752 17.7434 24.7877 16.7309 26.0252 16.7309C27.2627 16.7309 28.2752 17.7434 28.2752 18.9809C28.2752 20.2184 27.2627 21.2309 26.0252 21.2309C24.7877 21.2309 23.7752 20.2184 23.7752 18.9809Z" fill="white"/>
</svg>
