<svg width="45" height="45" viewBox="0 0 45 45" fill="none" xmlns="http://www.w3.org/2000/svg">
<rect width="45" height="45" rx="4" fill="#4F4074"/>
<path d="M28.125 16.875H24.75C24.1313 16.875 23.625 17.3812 23.625 18C23.625 18.6187 24.1313 19.125 24.75 19.125H28.125C29.9813 19.125 31.5 20.6437 31.5 22.5C31.5 24.3562 29.9813 25.875 28.125 25.875H24.75C24.1313 25.875 23.625 26.3813 23.625 27C23.625 27.6187 24.1313 28.125 24.75 28.125H28.125C31.23 28.125 33.75 25.605 33.75 22.5C33.75 19.395 31.23 16.875 28.125 16.875ZM18 22.5C18 23.1188 18.5062 23.625 19.125 23.625H25.875C26.4937 23.625 27 23.1188 27 22.5C27 21.8812 26.4937 21.375 25.875 21.375H19.125C18.5062 21.375 18 21.8812 18 22.5ZM20.25 25.875H16.875C15.0187 25.875 13.5 24.3562 13.5 22.5C13.5 20.6437 15.0187 19.125 16.875 19.125H20.25C20.8687 19.125 21.375 18.6187 21.375 18C21.375 17.3812 20.8687 16.875 20.25 16.875H16.875C13.77 16.875 11.25 19.395 11.25 22.5C11.25 25.605 13.77 28.125 16.875 28.125H20.25C20.8687 28.125 21.375 27.6187 21.375 27C21.375 26.3813 20.8687 25.875 20.25 25.875Z" fill="#F4F7F8"/>
</svg>
