<svg width="36" height="44" viewBox="0 0 36 44" fill="none" xmlns="http://www.w3.org/2000/svg">
<path d="M34.0489 23.2905C30.681 14.5383 18.6895 14.0663 21.5855 1.34552C21.8 0.401645 20.7918 -0.327709 19.9766 0.165678C12.1897 4.75632 6.59083 13.9591 11.2887 26.0149C11.6749 27.0016 10.5165 27.9241 9.67986 27.2805C5.79712 24.3416 5.38954 20.1157 5.73276 17.091C5.86147 15.9755 4.40276 15.4392 3.78067 16.3616C2.32196 18.5926 0.841797 22.1965 0.841797 27.6237C1.65696 39.6366 11.8036 43.3263 15.4503 43.7983C20.6631 44.4633 26.3049 43.4979 30.3592 39.7868C34.8211 35.6467 36.4515 29.0396 34.0489 23.2905ZM14.1418 34.0807C17.2308 33.3299 18.8182 31.0989 19.2473 29.1254C19.9552 26.0578 17.1879 23.0545 19.0542 18.2065C19.7621 22.2179 26.0689 24.7278 26.0689 29.1039C26.2405 34.5312 20.3628 39.1862 14.1418 34.0807Z" fill="#F4F7F8"/>
</svg>
