<svg width="45" height="45" viewBox="0 0 45 45" fill="none" xmlns="http://www.w3.org/2000/svg">
<rect width="45" height="45" rx="4" fill="#3366CC"/>
<path d="M24.9412 12.375H14.625C13.3875 12.375 12.375 13.3875 12.375 14.625V30.375C12.375 31.6125 13.3875 32.625 14.625 32.625H30.375C31.6125 32.625 32.625 31.6125 32.625 30.375V20.0588C32.625 19.4625 32.3888 18.8888 31.9613 18.4725L26.5275 13.0387C26.1112 12.6112 25.5375 12.375 24.9412 12.375ZM18 25.875H27C27.6187 25.875 28.125 26.3813 28.125 27C28.125 27.6187 27.6187 28.125 27 28.125H18C17.3812 28.125 16.875 27.6187 16.875 27C16.875 26.3813 17.3812 25.875 18 25.875ZM18 21.375H27C27.6187 21.375 28.125 21.8813 28.125 22.5C28.125 23.1187 27.6187 23.625 27 23.625H18C17.3812 23.625 16.875 23.1187 16.875 22.5C16.875 21.8813 17.3812 21.375 18 21.375ZM18 16.875H23.625C24.2437 16.875 24.75 17.3812 24.75 18C24.75 18.6188 24.2437 19.125 23.625 19.125H18C17.3812 19.125 16.875 18.6188 16.875 18C16.875 17.3812 17.3812 16.875 18 16.875Z" fill="white"/>
</svg>
