<svg width="50" height="50" viewBox="0 0 50 50" fill="none" xmlns="http://www.w3.org/2000/svg">
<path d="M33.75 22.5C35.8211 22.5 37.5 20.8211 37.5 18.75C37.5 16.6789 35.8211 15 33.75 15C31.6789 15 30 16.6789 30 18.75C30 20.8211 31.6789 22.5 33.75 22.5Z" fill="#189FA4"/>
<path d="M16.25 22.5C18.3211 22.5 20 20.8211 20 18.75C20 16.6789 18.3211 15 16.25 15C14.1789 15 12.5 16.6789 12.5 18.75C12.5 20.8211 14.1789 22.5 16.25 22.5Z" fill="#189FA4"/>
<path d="M24.975 0C11.175 0 0 11.2 0 25C0 38.8 11.175 50 24.975 50C38.8 50 50 38.8 50 25C50 11.2 38.8 0 24.975 0ZM25 45C13.95 45 5 36.05 5 25C5 13.95 13.95 5 25 5C36.05 5 45 13.95 45 25C45 36.05 36.05 45 25 45ZM36.025 29.725C35.15 29.175 33.975 29.45 33.45 30.325C31.6 33.25 28.45 35 25 35C21.55 35 18.4 33.25 16.55 30.3C16 29.425 14.85 29.15 13.975 29.7C13.1 30.25 12.825 31.4 13.375 32.275C15.925 36.35 20.25 38.75 25 38.75C29.75 38.75 34.075 36.325 36.625 32.3C37.175 31.425 36.9 30.275 36.025 29.725Z" fill="#189FA4"/>
</svg>
