<svg width="45" height="45" viewBox="0 0 45 45" fill="none" xmlns="http://www.w3.org/2000/svg">
<rect width="45" height="45" rx="4" fill="#1F252D"/>
<path fill-rule="evenodd" clip-rule="evenodd" d="M16.875 24.7509C17.4717 24.7509 18.044 24.5138 18.466 24.0919C18.8879 23.6699 19.125 23.0976 19.125 22.5009C19.125 21.9042 18.8879 21.3319 18.466 20.9099C18.044 20.4879 17.4717 20.2509 16.875 20.2509C16.2783 20.2509 15.706 20.4879 15.284 20.9099C14.8621 21.3319 14.625 21.9042 14.625 22.5009C14.625 23.0976 14.8621 23.6699 15.284 24.0919C15.706 24.5138 16.2783 24.7509 16.875 24.7509ZM20.7731 20.2509C20.3259 19.4774 19.6587 18.8544 18.8563 18.4612C18.054 18.0681 17.1528 17.9225 16.2675 18.0432C15.3822 18.1638 14.5527 18.5451 13.8848 19.1386C13.2169 19.7321 12.7407 20.5109 12.5167 21.3759H11.25C10.9516 21.3759 10.6655 21.4944 10.4545 21.7054C10.2435 21.9164 10.125 22.2025 10.125 22.5009C10.125 22.7993 10.2435 23.0854 10.4545 23.2964C10.6655 23.5074 10.9516 23.6259 11.25 23.6259H12.5167C12.7932 24.6839 13.4453 25.6052 14.3513 26.2177C15.2572 26.8301 16.3551 27.0919 17.44 26.9541C18.5249 26.8164 19.5225 26.2884 20.2466 25.469C20.9707 24.6495 21.3718 23.5945 21.375 22.5009H23.625C23.6239 23.5969 24.0229 24.6557 24.747 25.4785C25.4712 26.3012 26.4707 26.8314 27.5581 26.9695C28.6454 27.1076 29.7457 26.8441 30.6525 26.2285C31.5594 25.6128 32.2103 24.6874 32.4832 23.6259H33.75C34.0484 23.6259 34.3345 23.5074 34.5455 23.2964C34.7565 23.0854 34.875 22.7993 34.875 22.5009C34.875 22.2025 34.7565 21.9164 34.5455 21.7054C34.3345 21.4944 34.0484 21.3759 33.75 21.3759H32.4832C32.2593 20.5109 31.7831 19.7321 31.1152 19.1386C30.4473 18.5451 29.6178 18.1638 28.7325 18.0432C27.8472 17.9225 26.946 18.0681 26.1437 18.4612C25.3413 18.8544 24.6741 19.4774 24.2269 20.2509H20.7731ZM25.875 22.5009C25.875 23.0976 26.1121 23.6699 26.534 24.0919C26.956 24.5138 27.5283 24.7509 28.125 24.7509C28.7217 24.7509 29.294 24.5138 29.716 24.0919C30.1379 23.6699 30.375 23.0976 30.375 22.5009C30.375 21.9042 30.1379 21.3319 29.716 20.9099C29.294 20.4879 28.7217 20.2509 28.125 20.2509C27.5283 20.2509 26.956 20.4879 26.534 20.9099C26.1121 21.3319 25.875 21.9042 25.875 22.5009Z" fill="white"/>
</svg>
