<svg width="45" height="45" viewBox="0 0 45 45" fill="none" xmlns="http://www.w3.org/2000/svg">
<rect width="45" height="45" rx="4" fill="#189FA4"/>
<path d="M13.1056 15.8067C13.6344 16.3242 14.4669 16.3467 15.0294 15.8742C15.4456 15.5142 15.8056 15.3005 16.0081 15.3905C16.5706 15.6155 16.0081 16.5492 15.6706 17.1005C15.3894 17.573 12.4531 21.4767 12.4531 24.1992C12.4531 25.6392 12.9931 26.8317 13.9606 27.5517C14.8044 28.1817 15.9181 28.373 16.9306 28.0692C18.1344 27.7205 19.1244 26.4942 20.3731 24.953C21.7344 23.2767 23.5569 21.083 24.9631 21.083C26.7969 21.083 26.8194 22.2192 26.9431 23.0967C22.6906 23.8167 20.8906 27.2255 20.8906 29.138C20.8906 31.0505 22.5106 32.6142 24.5019 32.6142C26.3356 32.6142 29.3281 31.118 29.7781 25.7517H31.1394C31.9156 25.7517 32.5456 25.1217 32.5456 24.3455C32.5456 23.5692 31.9156 22.9392 31.1394 22.9392H29.7669C29.5981 21.083 28.5406 18.2142 25.2331 18.2142C22.7019 18.2142 20.5306 20.363 19.6756 21.4092C19.0231 22.2305 17.3581 24.1992 17.0994 24.4692C16.8181 24.8067 16.3344 25.4142 15.8506 25.4142C15.3444 25.4142 15.0406 24.4805 15.4456 23.2542C15.8394 22.028 17.0206 20.0367 17.5269 19.2942C18.4044 18.0117 18.9894 17.1342 18.9894 15.6042C18.9894 13.163 17.1444 12.3867 16.1656 12.3867C14.9394 12.3867 13.8706 13.0955 13.1281 13.7592C12.5319 14.2992 12.5319 15.2442 13.1056 15.8067ZM24.5356 29.8805C24.1869 29.8805 23.7031 29.588 23.7031 29.0705C23.7031 28.3955 24.5244 26.5955 26.9319 25.9655C26.5944 28.9917 25.3231 29.8805 24.5356 29.8805Z" fill="white"/>
</svg>
