<svg width="84" height="84" viewBox="0 0 84 84" fill="none" xmlns="http://www.w3.org/2000/svg">
<path d="M57.7959 54.4688H24.9375C24.9375 59.5809 33.7312 62.3438 42 62.3438C50.2688 62.3438 59.0625 59.5809 59.0625 54.4688H57.7959Z" fill="white"/>
<path d="M55.3291 32.8125H49.6657C47.6051 32.8125 45.9316 34.4859 45.9316 36.5466V49.2188H49.8691V39.375C49.8691 38.6531 50.4598 38.0625 51.1816 38.0625C51.9035 38.0625 52.4941 38.6531 52.4941 39.375V49.2188H59.0566V36.5466C59.0566 34.4859 57.3832 32.8125 55.3226 32.8125H55.3291Z" fill="white"/>
<path d="M34.3291 32.8125H28.6657C26.6051 32.8125 24.9316 34.4859 24.9316 36.5466V49.2188H31.4941V39.375C31.4941 38.6531 32.0848 38.0625 32.8066 38.0625C33.5285 38.0625 34.1191 38.6531 34.1191 39.375V49.2188H38.0566V36.5466C38.0566 34.4859 36.3832 32.8125 34.3226 32.8125H34.3291Z" fill="white"/>
<path d="M60.5266 24.3075V16.1569C60.5266 15.2119 59.7588 14.4375 58.8073 14.4375C57.8623 14.4375 57.0879 15.2053 57.0879 16.1569V24.2812H25.2729C20.7382 24.2812 17.0566 27.9694 17.0566 32.4975V60.9787C17.0566 65.7103 20.9088 69.5625 25.6404 69.5625H59.6669C64.3985 69.5625 68.2507 65.7103 68.2507 60.9787V32.4975C68.2507 28.1334 64.8251 24.5634 60.5266 24.3075ZM65.6257 60.9787C65.6257 64.26 62.9548 66.9375 59.6669 66.9375H25.6404C22.3591 66.9375 19.6816 64.2666 19.6816 60.9787V32.4975C19.6816 29.4131 22.1885 26.9062 25.2729 26.9062H60.0279C63.1123 26.9062 65.6191 29.4131 65.6191 32.4975V60.9787H65.6257Z" fill="white"/>
</svg>
