<svg width="81" height="73" viewBox="0 0 81 73" fill="none" xmlns="http://www.w3.org/2000/svg">
<path d="M51.516 28.5C55.38 28.5 58.516 31.636 58.516 35.5V54.496C58.516 59.271 56.6192 63.8503 53.2428 67.2268C49.8663 70.6032 45.287 72.5 40.512 72.5C35.737 72.5 31.1577 70.6032 27.7812 67.2268C24.4048 63.8503 22.508 59.271 22.508 54.496V35.5C22.508 31.636 25.64 28.5 29.508 28.5H51.516ZM51.516 34.5H29.508C29.2428 34.5 28.9884 34.6054 28.8009 34.7929C28.6134 34.9804 28.508 35.2348 28.508 35.5V54.496C28.508 57.6797 29.7727 60.7329 32.0239 62.9841C34.2751 65.2353 37.3283 66.5 40.512 66.5C43.6957 66.5 46.7489 65.2353 49.0001 62.9841C51.2513 60.7329 52.516 57.6797 52.516 54.496V35.5C52.516 35.2348 52.4106 34.9804 52.2231 34.7929C52.0356 34.6054 51.7812 34.5 51.516 34.5ZM7.5 28.5H21.024C19.6128 30.2044 18.751 32.2962 18.552 34.5H7.5C7.23478 34.5 6.98043 34.6054 6.79289 34.7929C6.60536 34.9804 6.5 35.2348 6.5 35.5V48.496C6.49975 50.0075 6.84201 51.4995 7.50109 52.8597C8.16017 54.22 9.11892 55.4133 10.3053 56.3498C11.4917 57.2864 12.8749 57.942 14.3511 58.2673C15.8272 58.5926 17.3578 58.5791 18.828 58.228C19.168 60.244 19.788 62.168 20.64 63.956C18.2691 64.5903 15.7841 64.6708 13.3772 64.1913C10.9702 63.7117 8.7058 62.6851 6.75899 61.1907C4.81218 59.6962 3.23516 57.7741 2.14985 55.5729C1.06455 53.3716 0.500049 50.9502 0.5 48.496V35.5C0.5 31.636 3.636 28.5 7.5 28.5ZM60 28.5H73.5C77.364 28.5 80.5 31.636 80.5 35.5V48.5C80.5005 50.9527 79.9372 53.3726 78.8536 55.5729C77.7699 57.7732 76.1949 59.6948 74.2503 61.1895C72.3056 62.6841 70.0434 63.7116 67.6384 64.1927C65.2334 64.6738 62.7499 64.5956 60.38 63.964C61.236 62.172 61.856 60.248 62.2 58.232C63.6683 58.579 65.1962 58.5893 66.6691 58.262C68.1419 57.9348 69.5217 57.2784 70.7049 56.3423C71.8881 55.4061 72.8441 54.2143 73.5014 52.8562C74.1586 51.498 74.5 50.0088 74.5 48.5V35.5C74.5 35.2348 74.3946 34.9804 74.2071 34.7929C74.0196 34.6054 73.7652 34.5 73.5 34.5H62.472C62.273 32.2962 61.4112 30.2044 60 28.5ZM40.5 0.5C43.6826 0.5 46.7348 1.76428 48.9853 4.01472C51.2357 6.26516 52.5 9.3174 52.5 12.5C52.5 15.6826 51.2357 18.7348 48.9853 20.9853C46.7348 23.2357 43.6826 24.5 40.5 24.5C37.3174 24.5 34.2652 23.2357 32.0147 20.9853C29.7643 18.7348 28.5 15.6826 28.5 12.5C28.5 9.3174 29.7643 6.26516 32.0147 4.01472C34.2652 1.76428 37.3174 0.5 40.5 0.5ZM66.5 4.5C69.1522 4.5 71.6957 5.55357 73.5711 7.42893C75.4464 9.3043 76.5 11.8478 76.5 14.5C76.5 17.1522 75.4464 19.6957 73.5711 21.5711C71.6957 23.4464 69.1522 24.5 66.5 24.5C63.8478 24.5 61.3043 23.4464 59.4289 21.5711C57.5536 19.6957 56.5 17.1522 56.5 14.5C56.5 11.8478 57.5536 9.3043 59.4289 7.42893C61.3043 5.55357 63.8478 4.5 66.5 4.5ZM14.5 4.5C17.1522 4.5 19.6957 5.55357 21.5711 7.42893C23.4464 9.3043 24.5 11.8478 24.5 14.5C24.5 17.1522 23.4464 19.6957 21.5711 21.5711C19.6957 23.4464 17.1522 24.5 14.5 24.5C11.8478 24.5 9.3043 23.4464 7.42893 21.5711C5.55357 19.6957 4.5 17.1522 4.5 14.5C4.5 11.8478 5.55357 9.3043 7.42893 7.42893C9.3043 5.55357 11.8478 4.5 14.5 4.5ZM40.5 6.5C38.9087 6.5 37.3826 7.13214 36.2574 8.25736C35.1321 9.38258 34.5 10.9087 34.5 12.5C34.5 14.0913 35.1321 15.6174 36.2574 16.7426C37.3826 17.8679 38.9087 18.5 40.5 18.5C42.0913 18.5 43.6174 17.8679 44.7426 16.7426C45.8679 15.6174 46.5 14.0913 46.5 12.5C46.5 10.9087 45.8679 9.38258 44.7426 8.25736C43.6174 7.13214 42.0913 6.5 40.5 6.5ZM66.5 10.5C65.4391 10.5 64.4217 10.9214 63.6716 11.6716C62.9214 12.4217 62.5 13.4391 62.5 14.5C62.5 15.5609 62.9214 16.5783 63.6716 17.3284C64.4217 18.0786 65.4391 18.5 66.5 18.5C67.5609 18.5 68.5783 18.0786 69.3284 17.3284C70.0786 16.5783 70.5 15.5609 70.5 14.5C70.5 13.4391 70.0786 12.4217 69.3284 11.6716C68.5783 10.9214 67.5609 10.5 66.5 10.5ZM14.5 10.5C13.4391 10.5 12.4217 10.9214 11.6716 11.6716C10.9214 12.4217 10.5 13.4391 10.5 14.5C10.5 15.5609 10.9214 16.5783 11.6716 17.3284C12.4217 18.0786 13.4391 18.5 14.5 18.5C15.5609 18.5 16.5783 18.0786 17.3284 17.3284C18.0786 16.5783 18.5 15.5609 18.5 14.5C18.5 13.4391 18.0786 12.4217 17.3284 11.6716C16.5783 10.9214 15.5609 10.5 14.5 10.5Z" fill="black"/>
</svg>
