<svg width="48" height="64" viewBox="0 0 48 64" fill="none" xmlns="http://www.w3.org/2000/svg">
<path d="M24.0063 0.333984C22.4729 0.333984 20.9063 0.467318 19.3396 0.800651C10.1396 2.56732 2.80626 10.0007 1.07293 19.2006C-0.527073 27.9007 2.67293 35.9007 8.47293 41.0673C9.90626 42.334 10.6729 44.1007 10.6729 45.9673V53.6673C10.6729 57.334 13.6729 60.334 17.3396 60.334H18.2729C19.4396 62.334 21.5396 63.6673 24.0063 63.6673C26.4729 63.6673 28.6063 62.334 29.7396 60.334H30.6729C34.3396 60.334 37.3396 57.334 37.3396 53.6673V45.9673C37.3396 44.134 38.0729 42.334 39.4729 41.1006C44.3063 36.834 47.3396 30.6007 47.3396 23.6673C47.3396 10.7673 36.9063 0.333984 24.0063 0.333984ZM30.6729 47.0006H17.3396V43.6673H30.6729V47.0006ZM17.3396 53.6673V50.334H30.6729V53.6673H17.3396ZM35.0396 36.134C34.7396 36.4007 34.5063 36.734 34.2396 37.0006H13.7396C13.4729 36.7006 13.2396 36.3673 12.9396 36.1006C8.5396 32.1673 6.57293 26.3006 7.6396 20.434C8.8396 13.9673 14.1729 8.60065 20.6063 7.33398C21.7396 7.10065 22.8729 7.00065 24.0063 7.00065C33.2063 7.00065 40.6729 14.4673 40.6729 23.6673C40.6729 28.434 38.6396 32.9673 35.0396 36.134Z" fill="#4F4074"/>
<path d="M25.6729 27.0007H22.3396V37.0006H25.6729V27.0007Z" fill="#4F4074"/>
<path d="M18.6046 19.9131L16.2476 22.2701L23.3186 29.341L25.6756 26.9841L18.6046 19.9131Z" fill="#4F4074"/>
<path d="M22.3429 27.0179L24.6999 29.3749L31.7709 22.3039L29.4139 19.9469L22.3429 27.0179Z" fill="#4F4074"/>
</svg>
