<svg width="40" height="40" viewBox="0 0 40 40" fill="none" xmlns="http://www.w3.org/2000/svg">
<path d="M31.1111 17.7778C31.8667 17.7778 32.6 17.8667 33.3333 17.9778V7.26667L16.6667 0L0 7.26667V18.1778C0 28.2667 7.11111 37.7111 16.6667 40C17.8889 39.7111 19.0667 39.2889 20.2222 38.7778C18.6889 36.6 17.7778 33.9556 17.7778 31.1111C17.7778 23.7556 23.7556 17.7778 31.1111 17.7778Z" fill="rgb(51, 51, 51)"/>
<path d="M31.1111 22.2227C26.1999 22.2227 22.2222 26.2004 22.2222 31.1115C22.2222 36.0227 26.1999 40.0004 31.1111 40.0004C36.0222 40.0004 39.9999 36.0227 39.9999 31.1115C39.9999 26.2004 36.0222 22.2227 31.1111 22.2227ZM31.1111 25.2893C32.4888 25.2893 33.5999 26.4227 33.5999 27.7782C33.5999 29.1338 32.4666 30.2671 31.1111 30.2671C29.7555 30.2671 28.6222 29.1338 28.6222 27.7782C28.6222 26.4227 29.7333 25.2893 31.1111 25.2893ZM31.1111 37.2227C29.0444 37.2227 27.2444 36.2004 26.1333 34.6227C26.2444 33.0227 29.4888 32.2227 31.1111 32.2227C32.7333 32.2227 35.9777 33.0227 36.0888 34.6227C34.9777 36.2004 33.1777 37.2227 31.1111 37.2227Z" fill="rgb(51, 51, 51)"/>
</svg>
