<svg width="50" height="50" viewBox="0 0 50 50" fill="none" xmlns="http://www.w3.org/2000/svg">
<g clip-path="url(#clip0_1859_67059)">
<path d="M25.1196 0.039937C31.4428 0.039937 37.766 0.133121 44.0892 0.039937C45.6366 0.0705872 47.1121 0.698938 48.2065 1.79332C49.3008 2.88769 49.9292 4.36316 49.9598 5.91054C49.88 14.0176 49.9598 22.2178 49.9598 30.3647C49.91 31.8706 49.2895 33.3012 48.2241 34.3665C47.1588 35.4319 45.7282 36.0524 44.2223 36.1022C31.4073 36.0401 18.5967 36.0401 5.7905 36.1022C4.25393 36.0748 2.78815 35.4513 1.7027 34.3633C0.617243 33.2754 -0.00292577 31.8082 -0.0268555 30.2716C0.0796408 22.1246 0.0796408 13.9732 -0.0268555 5.81736C0.0103004 4.28619 0.635123 2.82801 1.71814 1.745C2.80116 0.661981 4.25934 0.0371559 5.7905 0C12.2468 0.13312 18.6899 0.039937 25.1196 0.039937Z" fill="black"/>
<path d="M25.0664 47.0572V41.7324H49.8268V47.0572H25.0664Z" fill="black"/>
<path d="M0.119629 47.2047V41.7734H19.3422V47.1914C17.8921 47.1187 16.4393 47.1187 14.9892 47.1914C14.2914 47.2844 13.6519 47.6302 13.192 48.1632C12.7978 48.7024 12.2819 49.141 11.6863 49.4433C11.0907 49.7456 10.4321 49.9032 9.7642 49.9032C9.09625 49.9032 8.43773 49.7456 7.84212 49.4433C7.24651 49.141 6.73061 48.7024 6.33635 48.1632C5.91169 47.6881 5.33072 47.3811 4.69897 47.2979C3.1814 47.1116 1.69045 47.2047 0.119629 47.2047Z" fill="black"/>
</g>
<defs>
<clipPath id="clip0_1859_67059">
<rect width="50" height="49.9334" fill="white"/>
</clipPath>
</defs>
</svg>
