<svg width="50" height="51" viewBox="0 0 50 51" fill="none" xmlns="http://www.w3.org/2000/svg">
<g clip-path="url(#clip0_1859_67046)">
<path d="M32.5398 27.7916C32.3711 29.4231 32.0762 31.039 31.6577 32.6249C31.3616 33.4496 30.8139 34.1604 30.0919 34.6569C29.3699 35.1535 28.5101 35.4106 27.634 35.3919C25.9787 35.4886 24.2991 35.3194 22.6558 35.4886C22.0879 35.4886 21.5925 36.2619 21.0729 36.6969C21.5804 37.0836 22.0879 37.7723 22.6075 37.7844C25.5678 37.8931 28.5524 37.8811 31.5127 37.7844C32.0881 37.6824 32.612 37.3885 32.999 36.9507C36.3702 33.6278 39.7413 30.3049 43.04 26.9096C44.8767 25.0246 46.9912 24.8796 48.3204 25.8946C48.7796 26.1821 49.1667 26.5713 49.4519 27.032C49.7371 27.4927 49.9127 28.0128 49.9652 28.5521C50.0177 29.0914 49.9458 29.6355 49.7549 30.1426C49.564 30.6497 49.2592 31.1062 48.8641 31.477C44.7196 35.7303 40.4784 39.9352 36.2493 44.0797C35.7421 44.5663 35.1405 44.9439 34.4817 45.1891C33.823 45.4343 33.1209 45.542 32.419 45.5055C26.9816 45.5055 21.5441 45.5055 16.1067 45.5055C15.2937 45.5623 14.5195 45.8753 13.8955 46.3997C12.7047 47.4453 11.5712 48.5545 10.5002 49.7225C9.93226 50.3146 9.52144 50.52 8.80853 49.7225C6.00525 46.8347 3.10529 44.0314 0.350338 41.1435C0.0724262 40.8535 -0.0725718 39.9352 0.132841 39.7539C3.64903 36.2498 7.16522 32.7457 10.8385 29.4108C11.8905 28.4793 13.2192 27.919 14.6205 27.8158C20.4083 27.695 26.2445 27.7916 32.5398 27.7916Z" fill="black"/>
<path d="M47.3784 7.46718C47.4141 8.50959 47.2376 9.54837 46.8596 10.5205C46.4815 11.4926 45.9099 12.3777 45.1793 13.1221C41.8202 16.9162 38.2073 20.4807 34.6911 24.1298C34.5802 24.2957 34.4329 24.4342 34.2606 24.5349C34.0882 24.6356 33.8952 24.6957 33.6962 24.7108C33.4972 24.726 33.2973 24.6957 33.1117 24.6222C32.9262 24.5488 32.7597 24.4341 32.6249 24.2869C28.0078 20.7121 24.0112 16.4011 20.7955 11.5271C19.8055 10.0433 19.4077 8.24236 19.6806 6.47963C19.9535 4.71691 20.8773 3.12054 22.2697 2.00561C23.6411 0.751663 25.4279 0.0492908 27.2861 0.0336756C29.1443 0.0180604 30.9426 0.690306 32.3349 1.92102C32.4742 2.09487 32.6507 2.23519 32.8515 2.33162C33.0523 2.42804 33.2722 2.4781 33.4949 2.4781C33.7176 2.4781 33.9375 2.42804 34.1383 2.33162C34.3391 2.23519 34.5156 2.09487 34.6549 1.92102C39.029 -1.70392 45.3243 0.0239744 47.2817 5.81179C47.384 6.35727 47.4165 6.91352 47.3784 7.46718Z" fill="black"/>
</g>
<defs>
<clipPath id="clip0_1859_67046">
<rect width="50" height="50.2417" fill="white"/>
</clipPath>
</defs>
</svg>
