<svg width="53" height="49" viewBox="0 0 53 49" fill="none" xmlns="http://www.w3.org/2000/svg">
<path d="M5.69969 0.744629C5.27534 0.744629 4.86838 0.9132 4.56832 1.21326C4.26826 1.51332 4.09969 1.92028 4.09969 2.34463C4.09969 2.76898 4.26826 3.17594 4.56832 3.476C4.86838 3.77606 5.27534 3.94463 5.69969 3.94463H8.09969L1.14609 20.6326C0.972772 21.042 0.890868 21.4843 0.906089 21.9286C0.996827 24.4124 2.0473 26.7641 3.83653 28.4892C5.62576 30.2142 8.01429 31.1781 10.4997 31.1781C12.9851 31.1781 15.3736 30.2142 17.1628 28.4892C18.9521 26.7641 20.0026 24.4124 20.0933 21.9286C20.1085 21.4843 20.0266 21.042 19.8533 20.6326L12.8997 3.94463H24.8997V39.1446H12.0997C10.8266 39.1446 9.60575 39.6503 8.70557 40.5505C7.8054 41.4507 7.29969 42.6716 7.29969 43.9446C7.29969 45.2177 7.8054 46.4386 8.70557 47.3387C9.60575 48.2389 10.8266 48.7446 12.0997 48.7446H40.8997C42.1727 48.7446 43.3936 48.2389 44.2938 47.3387C45.194 46.4386 45.6997 45.2177 45.6997 43.9446C45.6997 42.6716 45.194 41.4507 44.2938 40.5505C43.3936 39.6503 42.1727 39.1446 40.8997 39.1446H28.0997V3.94463H40.0997L33.1461 20.6326C32.9728 21.042 32.8909 21.4843 32.9061 21.9286C32.9968 24.4124 34.0473 26.7641 35.8365 28.4892C37.6258 30.2142 40.0143 31.1781 42.4997 31.1781C44.9851 31.1781 47.3736 30.2142 49.1628 28.4892C50.9521 26.7641 52.0025 24.4124 52.0933 21.9286C52.1085 21.4843 52.0266 21.042 51.8533 20.6326L44.8997 3.94463H47.2997C47.724 3.94463 48.131 3.77606 48.4311 3.476C48.7311 3.17594 48.8997 2.76898 48.8997 2.34463C48.8997 1.92028 48.7311 1.51332 48.4311 1.21326C48.131 0.9132 47.724 0.744629 47.2997 0.744629H5.69969ZM10.4997 6.50463L16.0997 19.9446H4.89969L10.4997 6.50463ZM48.0997 19.9446H36.8997L42.4997 6.50463L48.0997 19.9446Z" fill="#1F252D"/>
</svg>
